G04 EAGLE Gerber RS-274X export*
G75*
%MOMM*%
%FSLAX34Y34*%
%LPD*%
%INBottom Copper*%
%IPPOS*%
%AMOC8*
5,1,8,0,0,1.08239X$1,22.5*%
G01*
%ADD10R,1.270000X3.000000*%
%ADD11R,1.270000X3.680000*%
%ADD12C,0.756400*%
%ADD13C,0.254000*%
%ADD14C,0.706400*%
%ADD15C,0.152400*%
%ADD16C,0.406400*%
%ADD17C,0.806400*%
%ADD18C,1.006400*%
%ADD19C,1.016000*%
%ADD20C,0.609600*%
%ADD21C,0.203200*%
%ADD22C,0.856400*%
%ADD23C,0.304800*%
%ADD24C,1.056400*%
%ADD25C,6.000000*%


D10*
X546500Y1145000D03*
X571900Y1145000D03*
D11*
X597300Y1142000D03*
X622700Y1142000D03*
D10*
X648100Y1145000D03*
X673500Y1145000D03*
X673500Y1095000D03*
X648100Y1095000D03*
D11*
X622700Y1098000D03*
X597300Y1098000D03*
D10*
X571900Y1095000D03*
X546500Y1095000D03*
X1203500Y272000D03*
X1178100Y272000D03*
D11*
X1152700Y275000D03*
X1127300Y275000D03*
D10*
X1101900Y272000D03*
X1076500Y272000D03*
X1076500Y322000D03*
X1101900Y322000D03*
D11*
X1127300Y319000D03*
X1152700Y319000D03*
D10*
X1178100Y322000D03*
X1203500Y322000D03*
D12*
X810000Y320800D03*
D13*
X810000Y404253D02*
X765936Y448317D01*
X765936Y580075D02*
X670744Y675267D01*
X765936Y580075D02*
X765936Y448317D01*
X670744Y675267D02*
X670744Y769744D01*
X700000Y799000D01*
X810000Y404253D02*
X810000Y320800D01*
D12*
X700000Y799000D03*
D13*
X622700Y1078000D02*
X622700Y1098000D01*
X622700Y1078000D02*
X633700Y1067000D01*
X633700Y801384D01*
X631316Y799000D01*
D14*
X631316Y799000D03*
D12*
X854000Y320800D03*
D13*
X854000Y366000D01*
X770000Y581758D02*
X674808Y676950D01*
X674808Y760808D01*
X700000Y786000D01*
X770000Y450000D02*
X854000Y366000D01*
X770000Y450000D02*
X770000Y581758D01*
D12*
X700000Y786000D03*
D14*
X636000Y786000D03*
D13*
X648100Y1077721D02*
X648100Y1095000D01*
X648100Y1077721D02*
X638134Y1067755D01*
D15*
X638134Y788134D02*
X636000Y786000D01*
D13*
X638134Y788134D02*
X638134Y1067755D01*
D12*
X442552Y851174D03*
X702574Y440426D03*
D16*
X442552Y700448D01*
X442552Y851174D01*
D12*
X432392Y878098D03*
X719000Y444000D03*
D16*
X460000Y703000D01*
X460000Y850490D02*
X432392Y878098D01*
X460000Y850490D02*
X460000Y703000D01*
D17*
X336284Y1048400D03*
D13*
X314766Y1026882D01*
X314766Y555946D01*
X319672Y551040D01*
X319672Y522084D01*
D17*
X319672Y522084D03*
D12*
X660000Y240000D03*
D13*
X455884Y240000D01*
X445884Y230000D01*
D12*
X445884Y230000D03*
D17*
X306000Y1073800D03*
X312826Y546468D03*
D13*
X310064Y549230D02*
X310064Y1042811D01*
X310064Y549230D02*
X312826Y546468D01*
X314000Y1065800D02*
X306000Y1073800D01*
X314000Y1065800D02*
X314000Y1046747D01*
X310064Y1042811D01*
D12*
X520000Y220000D03*
D13*
X432202Y220000D01*
X432101Y220101D01*
D12*
X432101Y220101D03*
X857400Y295400D03*
D13*
X838576Y314224D01*
X807276Y314224D01*
X800000Y321500D01*
X800000Y408505D02*
X761872Y446633D01*
X761872Y578391D01*
X666680Y673583D02*
X666680Y779680D01*
X699000Y812000D01*
X800000Y408505D02*
X800000Y321500D01*
X761872Y578391D02*
X666680Y673583D01*
D12*
X699000Y812000D03*
D13*
X571900Y1078000D02*
X571900Y1095000D01*
X571900Y1078000D02*
X614900Y1035000D01*
X614900Y812100D01*
D15*
X615000Y812000D01*
D14*
X615000Y812000D03*
D12*
X806600Y295400D03*
D13*
X790000Y312000D01*
X790000Y412758D01*
X757808Y576708D02*
X662616Y671900D01*
X662616Y786616D01*
X700000Y824000D01*
X757808Y444950D02*
X790000Y412758D01*
X757808Y444950D02*
X757808Y576708D01*
D12*
X700000Y824000D03*
D14*
X603000Y824000D03*
D13*
X546500Y1078000D02*
X546500Y1095000D01*
X603000Y1021500D02*
X603000Y824000D01*
X603000Y1021500D02*
X546500Y1078000D01*
D12*
X806600Y270000D03*
D13*
X785936Y290664D01*
X785936Y411075D02*
X753744Y443267D01*
X753744Y575024D02*
X658552Y670216D01*
X658552Y795552D02*
X700000Y837000D01*
X785936Y411075D02*
X785936Y290664D01*
X753744Y443267D02*
X753744Y575024D01*
X658552Y670216D02*
X658552Y795552D01*
D12*
X700000Y837000D03*
D13*
X597300Y1078000D02*
X597300Y1098000D01*
X597300Y1078000D02*
X623000Y1052300D01*
X623000Y837000D01*
D14*
X623000Y837000D03*
D12*
X806600Y473200D03*
D13*
X806600Y574400D01*
X697000Y684000D01*
X697000Y720000D02*
X700000Y723000D01*
X697000Y720000D02*
X697000Y684000D01*
D12*
X700000Y723000D03*
D13*
X648100Y1145000D02*
X648100Y1162000D01*
X659100Y1173000D01*
X682000Y1173000D01*
X698000Y1157000D01*
X698000Y867000D01*
X650000Y819000D01*
D15*
X650000Y724838D02*
X648162Y723000D01*
D14*
X648162Y723000D03*
D13*
X650000Y724838D02*
X650000Y819000D01*
D12*
X854000Y447800D03*
D13*
X800024Y489976D02*
X800000Y490000D01*
X800024Y489976D02*
X800024Y470476D01*
X822700Y447800D01*
X854000Y447800D01*
X800000Y490000D02*
X800000Y575000D01*
X692000Y683000D01*
X692000Y728000D01*
X699000Y735000D01*
D12*
X699000Y735000D03*
D13*
X673500Y1145000D02*
X673500Y1161500D01*
D14*
X643182Y735000D03*
D13*
X643182Y819493D02*
X691952Y868263D01*
X643182Y819493D02*
X643182Y735000D01*
X691952Y1154048D02*
X681000Y1165000D01*
X677000Y1165000D01*
X673500Y1161500D01*
X691952Y1154048D02*
X691952Y868263D01*
D12*
X810000Y447800D03*
D13*
X793000Y464800D01*
X687000Y735000D02*
X700000Y748000D01*
X793000Y576000D02*
X793000Y464800D01*
X793000Y576000D02*
X687000Y682000D01*
X687000Y735000D01*
D12*
X700000Y748000D03*
X854000Y422400D03*
D13*
X823600Y422400D01*
X786000Y460000D01*
X786000Y577253D01*
X682936Y680317D01*
X682936Y737683D01*
X683000Y737747D01*
X683000Y743000D01*
X700000Y760000D01*
D12*
X700000Y760000D03*
X810000Y422400D03*
D13*
X778936Y453464D01*
X678872Y678633D02*
X678872Y751872D01*
X700000Y773000D01*
X778936Y578569D02*
X778936Y453464D01*
X778936Y578569D02*
X678872Y678633D01*
D12*
X700000Y773000D03*
D18*
X385804Y795804D03*
D19*
X385804Y1086000D01*
X385804Y1137804D01*
X467000Y1219000D01*
X597000Y1219000D01*
X683000Y1219000D01*
X766000Y1136000D01*
X766000Y842000D01*
X755000Y831000D02*
X737000Y831000D01*
D18*
X737000Y831000D03*
D19*
X755000Y831000D02*
X766000Y842000D01*
D12*
X385804Y1086000D03*
D13*
X720000Y848000D02*
X737000Y831000D01*
X720000Y848000D02*
X697000Y848000D01*
X654488Y805488D01*
X654488Y668512D02*
X749680Y573320D01*
X654488Y668512D02*
X654488Y805488D01*
X749680Y573320D02*
X749680Y441583D01*
X766000Y425263D02*
X766000Y397000D01*
X766000Y304000D01*
X766000Y425263D02*
X749680Y441583D01*
D14*
X766000Y304000D03*
X766000Y397000D03*
D13*
X597300Y1142000D02*
X597300Y1218700D01*
D15*
X597000Y1219000D01*
D12*
X364000Y438000D03*
X544000Y353000D03*
X515000Y346000D03*
X558000Y367000D03*
X488000Y386000D03*
X475000Y315000D03*
X541000Y312000D03*
X554000Y312000D03*
X540000Y228000D03*
X385000Y220000D03*
X328382Y418382D03*
X400000Y680000D03*
X390000Y720000D03*
X440000Y690000D03*
X430000Y780000D03*
X476000Y896000D03*
X496954Y890000D03*
X496000Y913000D03*
X396000Y543000D03*
X222000Y816000D03*
X270189Y829811D03*
X321342Y910000D03*
X558000Y528000D03*
X558000Y453000D03*
X631000Y295000D03*
X735000Y729000D03*
X417000Y582000D03*
X417000Y612000D03*
X601000Y327000D03*
X594000Y423000D03*
D13*
X571900Y1145000D02*
X571900Y1173900D01*
D15*
X572000Y1174000D01*
D14*
X572000Y1174000D03*
X224000Y968000D03*
D12*
X857400Y270000D03*
D20*
X857400Y240000D01*
X807400Y190000D01*
X440000Y470000D02*
X373000Y537000D01*
X373000Y651000D01*
X373000Y752000D01*
D12*
X373000Y651000D03*
X373000Y752000D03*
D20*
X360000Y230000D02*
X400000Y190000D01*
X360000Y340000D02*
X440000Y420000D01*
X440000Y470000D01*
X400000Y190000D02*
X807400Y190000D01*
X360000Y230000D02*
X360000Y340000D01*
D17*
X357772Y369684D03*
D12*
X281572Y1042672D03*
D21*
X281572Y471589D01*
X281346Y471363D01*
X281346Y446110D01*
X357772Y369684D01*
D17*
X350000Y1099200D03*
D13*
X363119Y1086081D01*
X363119Y517737D01*
X421780Y459076D01*
X421780Y458076D01*
D17*
X421780Y458076D03*
D22*
X353400Y921400D03*
D23*
X353592Y921208D01*
X353592Y517120D01*
X401968Y468744D01*
D17*
X401968Y468744D03*
X306000Y1048400D03*
X306000Y1048400D03*
D13*
X306000Y533000D01*
X301000Y528000D01*
D17*
X301000Y528000D03*
D12*
X660000Y440000D03*
D13*
X470000Y440000D01*
X380000Y244907D02*
X404453Y220453D01*
D12*
X404453Y220453D03*
D13*
X380000Y350000D02*
X470000Y440000D01*
X380000Y350000D02*
X380000Y244907D01*
D14*
X400000Y987000D03*
D13*
X400000Y1133000D01*
X461000Y1194000D02*
X574000Y1194000D01*
X584156Y1183844D01*
X584156Y1124443D02*
X588793Y1119806D01*
X612806Y1119806D01*
X461000Y1194000D02*
X400000Y1133000D01*
X584156Y1124443D02*
X584156Y1183844D01*
X621500Y1128500D02*
X612806Y1119806D01*
D15*
X621500Y1140800D02*
X622700Y1142000D01*
X621500Y1140800D02*
X621500Y1128500D01*
D24*
X328620Y724000D03*
X510000Y770000D03*
D17*
X489000Y856000D03*
D16*
X489000Y726688D01*
X487312Y725000D01*
D17*
X487312Y725000D03*
D12*
X275000Y648000D03*
D24*
X410000Y940000D03*
D12*
X651000Y295000D03*
X229000Y470000D03*
X735000Y805000D03*
X400000Y740000D03*
D18*
X330000Y680000D03*
D12*
X520050Y252000D03*
X480000Y360000D03*
D13*
X536000Y1145000D02*
X546500Y1145000D01*
X536000Y1145000D02*
X529000Y1152000D01*
D14*
X529000Y1152000D03*
D17*
X306000Y1099200D03*
D13*
X344532Y1060668D01*
X344532Y519512D01*
X330340Y505320D01*
X318943Y505320D01*
D17*
X318943Y505320D03*
D14*
X421000Y215000D03*
D13*
X421000Y222000D01*
X461674Y262674D02*
X461674Y280674D01*
D14*
X461674Y280674D03*
D13*
X461674Y262674D02*
X421000Y222000D01*
D12*
X302600Y1124600D03*
D21*
X299428Y1121428D01*
X299428Y544512D01*
X287668Y532752D02*
X287668Y468744D01*
D12*
X287668Y468744D03*
D21*
X287668Y532752D02*
X299428Y544512D01*
D12*
X540000Y890000D03*
D13*
X540000Y998000D01*
X413000Y1125000D01*
D12*
X413000Y1125000D03*
D25*
X610000Y610000D03*
D12*
X940000Y1096200D03*
D13*
X940000Y1012747D02*
X984064Y968683D01*
X984064Y836926D02*
X1079256Y741734D01*
X984064Y836926D02*
X984064Y968683D01*
X1079256Y741734D02*
X1079256Y647256D01*
X1050000Y618000D01*
X940000Y1012747D02*
X940000Y1096200D01*
D12*
X1050000Y618000D03*
D13*
X1127300Y339000D02*
X1127300Y319000D01*
X1127300Y339000D02*
X1116300Y350000D01*
X1116300Y615616D01*
X1118684Y618000D01*
D14*
X1118684Y618000D03*
D12*
X896000Y1096200D03*
D13*
X896000Y1051000D01*
X980000Y835242D02*
X1075192Y740050D01*
X1075192Y656192D01*
X1050000Y631000D01*
X980000Y967000D02*
X896000Y1051000D01*
X980000Y967000D02*
X980000Y835242D01*
D12*
X1050000Y631000D03*
D14*
X1114000Y631000D03*
D13*
X1101900Y339279D02*
X1101900Y322000D01*
X1101900Y339279D02*
X1111866Y349245D01*
D15*
X1111866Y628866D02*
X1114000Y631000D01*
D13*
X1111866Y628866D02*
X1111866Y349245D01*
D12*
X1307448Y565826D03*
X1047426Y976574D03*
D16*
X1307448Y716552D01*
X1307448Y565826D01*
D12*
X1317608Y538902D03*
X1031000Y973000D03*
D16*
X1290000Y714000D01*
X1290000Y566510D02*
X1317608Y538902D01*
X1290000Y566510D02*
X1290000Y714000D01*
D17*
X1413716Y368600D03*
D13*
X1435234Y390118D01*
X1435234Y861054D01*
X1430328Y865960D01*
X1430328Y894916D01*
D17*
X1430328Y894916D03*
D12*
X1090000Y1177000D03*
D13*
X1294116Y1177000D01*
X1304116Y1187000D01*
D12*
X1304116Y1187000D03*
D17*
X1444000Y343200D03*
X1437174Y870532D03*
D13*
X1439936Y867770D02*
X1439936Y374189D01*
X1439936Y867770D02*
X1437174Y870532D01*
X1436000Y351200D02*
X1444000Y343200D01*
X1436000Y351200D02*
X1436000Y370253D01*
X1439936Y374189D01*
D12*
X1230000Y1197000D03*
D13*
X1317798Y1197000D01*
X1317899Y1196899D01*
D12*
X1317899Y1196899D03*
X892600Y1121600D03*
D13*
X911424Y1102776D01*
X942724Y1102776D01*
X950000Y1095500D01*
X950000Y1008495D02*
X988128Y970367D01*
X988128Y838609D01*
X1083320Y743417D02*
X1083320Y637320D01*
X1051000Y605000D01*
X950000Y1008495D02*
X950000Y1095500D01*
X988128Y838609D02*
X1083320Y743417D01*
D12*
X1051000Y605000D03*
D13*
X1178100Y339000D02*
X1178100Y322000D01*
X1178100Y339000D02*
X1135100Y382000D01*
X1135100Y604900D01*
D15*
X1135000Y605000D01*
D14*
X1135000Y605000D03*
D12*
X943400Y1121600D03*
D13*
X960000Y1105000D01*
X960000Y1004242D01*
X992192Y840292D02*
X1087384Y745100D01*
X1087384Y630384D01*
X1050000Y593000D01*
X992192Y972050D02*
X960000Y1004242D01*
X992192Y972050D02*
X992192Y840292D01*
D12*
X1050000Y593000D03*
D14*
X1147000Y593000D03*
D13*
X1203500Y339000D02*
X1203500Y322000D01*
X1147000Y395500D02*
X1147000Y593000D01*
X1147000Y395500D02*
X1203500Y339000D01*
D12*
X943400Y1147000D03*
D13*
X964064Y1126336D01*
X964064Y1005926D02*
X996256Y973734D01*
X996256Y841976D02*
X1091448Y746784D01*
X1091448Y621448D02*
X1050000Y580000D01*
X964064Y1005926D02*
X964064Y1126336D01*
X996256Y973734D02*
X996256Y841976D01*
X1091448Y746784D02*
X1091448Y621448D01*
D12*
X1050000Y580000D03*
D13*
X1152700Y339000D02*
X1152700Y319000D01*
X1152700Y339000D02*
X1127000Y364700D01*
X1127000Y580000D01*
D14*
X1127000Y580000D03*
D12*
X943400Y943800D03*
D13*
X943400Y842600D01*
X1053000Y733000D01*
X1053000Y697000D02*
X1050000Y694000D01*
X1053000Y697000D02*
X1053000Y733000D01*
D12*
X1050000Y694000D03*
D13*
X1101900Y272000D02*
X1101900Y255000D01*
X1090900Y244000D01*
X1068000Y244000D01*
X1052000Y260000D01*
X1052000Y550000D01*
X1100000Y598000D01*
D15*
X1100000Y692162D02*
X1101838Y694000D01*
D14*
X1101838Y694000D03*
D13*
X1100000Y692162D02*
X1100000Y598000D01*
D12*
X896000Y969200D03*
D13*
X949976Y927024D02*
X950000Y927000D01*
X949976Y927024D02*
X949976Y946524D01*
X927300Y969200D01*
X896000Y969200D01*
X950000Y927000D02*
X950000Y842000D01*
X1058000Y734000D01*
X1058000Y689000D01*
X1051000Y682000D01*
D12*
X1051000Y682000D03*
D13*
X1076500Y272000D02*
X1076500Y255500D01*
D14*
X1106818Y682000D03*
D13*
X1106818Y597507D02*
X1058048Y548737D01*
X1106818Y597507D02*
X1106818Y682000D01*
X1058048Y262952D02*
X1069000Y252000D01*
X1073000Y252000D01*
X1076500Y255500D01*
X1058048Y262952D02*
X1058048Y548737D01*
D12*
X940000Y969200D03*
D13*
X957000Y952200D01*
X1063000Y682000D02*
X1050000Y669000D01*
X957000Y841000D02*
X957000Y952200D01*
X957000Y841000D02*
X1063000Y735000D01*
X1063000Y682000D01*
D12*
X1050000Y669000D03*
X896000Y994600D03*
D13*
X926400Y994600D01*
X964000Y957000D01*
X964000Y839747D01*
X1067064Y736683D01*
X1067064Y679317D01*
X1067000Y679253D01*
X1067000Y674000D01*
X1050000Y657000D01*
D12*
X1050000Y657000D03*
X940000Y994600D03*
D13*
X971064Y963536D01*
X1071128Y738367D02*
X1071128Y665128D01*
X1050000Y644000D01*
X971064Y838431D02*
X971064Y963536D01*
X971064Y838431D02*
X1071128Y738367D01*
D12*
X1050000Y644000D03*
D18*
X1364196Y621196D03*
D19*
X1364196Y331000D01*
X1364196Y279196D01*
X1283000Y198000D01*
X1153000Y198000D01*
X1067000Y198000D01*
X984000Y281000D01*
X984000Y575000D01*
X995000Y586000D02*
X1013000Y586000D01*
D18*
X1013000Y586000D03*
D19*
X995000Y586000D02*
X984000Y575000D01*
D12*
X1364196Y331000D03*
D13*
X1030000Y569000D02*
X1013000Y586000D01*
X1030000Y569000D02*
X1053000Y569000D01*
X1095512Y611512D01*
X1095512Y748488D02*
X1000320Y843680D01*
X1095512Y748488D02*
X1095512Y611512D01*
X1000320Y843680D02*
X1000320Y975417D01*
X984000Y991737D02*
X984000Y1020000D01*
X984000Y1113000D01*
X984000Y991737D02*
X1000320Y975417D01*
D14*
X984000Y1113000D03*
X984000Y1020000D03*
D13*
X1152700Y275000D02*
X1152700Y198300D01*
D15*
X1153000Y198000D01*
D12*
X1386000Y979000D03*
X1206000Y1064000D03*
X1235000Y1071000D03*
X1192000Y1050000D03*
X1262000Y1031000D03*
X1275000Y1102000D03*
X1209000Y1105000D03*
X1196000Y1105000D03*
X1210000Y1189000D03*
X1365000Y1197000D03*
X1421618Y998618D03*
X1350000Y737000D03*
X1360000Y697000D03*
X1310000Y727000D03*
X1320000Y637000D03*
X1274000Y521000D03*
X1253046Y527000D03*
X1254000Y504000D03*
X1354000Y874000D03*
X1528000Y601000D03*
X1479811Y587189D03*
X1428658Y507000D03*
X1192000Y889000D03*
X1192000Y964000D03*
X1119000Y1122000D03*
X1015000Y688000D03*
X1333000Y835000D03*
X1333000Y805000D03*
X1149000Y1090000D03*
X1156000Y994000D03*
D13*
X1178100Y272000D02*
X1178100Y243100D01*
D15*
X1178000Y243000D01*
D14*
X1178000Y243000D03*
X1526000Y449000D03*
D12*
X892600Y1147000D03*
D20*
X892600Y1177000D01*
X942600Y1227000D01*
X1310000Y947000D02*
X1377000Y880000D01*
X1377000Y766000D01*
X1377000Y665000D01*
D12*
X1377000Y766000D03*
X1377000Y665000D03*
D20*
X1390000Y1187000D02*
X1350000Y1227000D01*
X1390000Y1077000D02*
X1310000Y997000D01*
X1310000Y947000D01*
X1350000Y1227000D02*
X942600Y1227000D01*
X1390000Y1187000D02*
X1390000Y1077000D01*
D17*
X1392228Y1047316D03*
D12*
X1468428Y374328D03*
D21*
X1468428Y945411D01*
X1468654Y945637D01*
X1468654Y970890D01*
X1392228Y1047316D01*
D17*
X1400000Y317800D03*
D13*
X1386881Y330919D01*
X1386881Y899263D01*
X1328220Y957924D01*
X1328220Y958924D01*
D17*
X1328220Y958924D03*
D22*
X1396600Y495600D03*
D23*
X1396408Y495792D01*
X1396408Y899880D01*
X1348032Y948256D01*
D17*
X1348032Y948256D03*
X1444000Y368600D03*
X1444000Y368600D03*
D13*
X1444000Y884000D01*
X1449000Y889000D01*
D17*
X1449000Y889000D03*
D12*
X1090000Y977000D03*
D13*
X1280000Y977000D01*
X1370000Y1172093D02*
X1345547Y1196547D01*
D12*
X1345547Y1196547D03*
D13*
X1370000Y1067000D02*
X1280000Y977000D01*
X1370000Y1067000D02*
X1370000Y1172093D01*
D14*
X1350000Y430000D03*
D13*
X1350000Y284000D01*
X1289000Y223000D02*
X1176000Y223000D01*
X1165844Y233156D01*
X1165844Y292557D02*
X1161207Y297194D01*
X1137194Y297194D01*
X1289000Y223000D02*
X1350000Y284000D01*
X1165844Y292557D02*
X1165844Y233156D01*
X1128500Y288500D02*
X1137194Y297194D01*
D15*
X1128500Y276200D02*
X1127300Y275000D01*
X1128500Y276200D02*
X1128500Y288500D01*
D24*
X1421380Y693000D03*
X1240000Y647000D03*
D17*
X1261000Y561000D03*
D16*
X1261000Y690312D01*
X1262688Y692000D01*
D17*
X1262688Y692000D03*
D12*
X1475000Y769000D03*
D24*
X1340000Y477000D03*
D12*
X1099000Y1122000D03*
X1521000Y947000D03*
X1015000Y612000D03*
X1350000Y677000D03*
D18*
X1420000Y737000D03*
D12*
X1229950Y1165000D03*
X1270000Y1057000D03*
D13*
X1214000Y272000D02*
X1203500Y272000D01*
X1214000Y272000D02*
X1221000Y265000D01*
D14*
X1221000Y265000D03*
D17*
X1444000Y317800D03*
D13*
X1405468Y356332D01*
X1405468Y897488D01*
X1419660Y911680D01*
X1431057Y911680D01*
D17*
X1431057Y911680D03*
D14*
X1329000Y1202000D03*
D13*
X1329000Y1195000D01*
X1288326Y1154326D02*
X1288326Y1136326D01*
D14*
X1288326Y1136326D03*
D13*
X1288326Y1154326D02*
X1329000Y1195000D01*
D12*
X1447400Y292400D03*
D21*
X1450572Y295572D01*
X1450572Y872488D01*
X1462332Y884248D02*
X1462332Y948256D01*
D12*
X1462332Y948256D03*
D21*
X1462332Y884248D02*
X1450572Y872488D01*
D12*
X1210000Y527000D03*
D13*
X1210000Y419000D01*
X1337000Y292000D01*
D12*
X1337000Y292000D03*
D25*
X1140000Y807000D03*
M02*
