G04 EAGLE Gerber RS-274X export*
G75*
%MOMM*%
%FSLAX34Y34*%
%LPD*%
%INLayer3*%
%IPPOS*%
%AMOC8*
5,1,8,0,0,1.08239X$1,22.5*%
G01*
%ADD10C,0.756400*%
%ADD11C,0.706400*%
%ADD12C,0.806400*%
%ADD13C,1.006400*%
%ADD14C,0.406400*%
%ADD15C,0.508000*%
%ADD16C,0.254000*%
%ADD17C,0.856400*%
%ADD18C,1.056400*%
%ADD19C,5.216000*%

G36*
X1440002Y186997D02*
X1440002Y186997D01*
X1440003Y186997D01*
X1460003Y206997D01*
X1460003Y206999D01*
X1460004Y207000D01*
X1460004Y376998D01*
X1560003Y476997D01*
X1560003Y476999D01*
X1560004Y477000D01*
X1560004Y987000D01*
X1560003Y987002D01*
X1560003Y987003D01*
X1540003Y1007003D01*
X1540001Y1007003D01*
X1540001Y1007004D01*
X1540000Y1007004D01*
X1420002Y1007004D01*
X1400004Y1027002D01*
X1400004Y1217000D01*
X1400003Y1217002D01*
X1400003Y1217003D01*
X1380003Y1237003D01*
X1380001Y1237003D01*
X1380000Y1237004D01*
X900000Y1237004D01*
X899998Y1237003D01*
X899997Y1237003D01*
X869997Y1207003D01*
X869997Y1207002D01*
X869996Y1207001D01*
X869996Y1207000D01*
X869996Y887000D01*
X869997Y886998D01*
X869997Y886997D01*
X979996Y776998D01*
X979996Y207000D01*
X979997Y206998D01*
X979997Y206997D01*
X999997Y186997D01*
X999999Y186997D01*
X1000000Y186996D01*
X1440000Y186996D01*
X1440002Y186997D01*
G37*
G36*
X850002Y179997D02*
X850002Y179997D01*
X850003Y179997D01*
X880003Y209997D01*
X880003Y209999D01*
X880004Y210000D01*
X880004Y530000D01*
X880003Y530002D01*
X880003Y530003D01*
X770004Y640002D01*
X770004Y1210000D01*
X770003Y1210002D01*
X770003Y1210003D01*
X750003Y1230003D01*
X750001Y1230003D01*
X750000Y1230004D01*
X310000Y1230004D01*
X309998Y1230003D01*
X309997Y1230003D01*
X289997Y1210003D01*
X289997Y1210002D01*
X289996Y1210001D01*
X289996Y1210000D01*
X289996Y1040002D01*
X189997Y940003D01*
X189997Y940001D01*
X189996Y940000D01*
X189996Y430000D01*
X189997Y429998D01*
X189997Y429997D01*
X209997Y409997D01*
X209999Y409997D01*
X210000Y409996D01*
X329998Y409996D01*
X349996Y389998D01*
X349996Y200000D01*
X349997Y199998D01*
X349997Y199997D01*
X369997Y179997D01*
X369999Y179997D01*
X370000Y179996D01*
X850000Y179996D01*
X850002Y179997D01*
G37*
%LPC*%
G36*
X606366Y582395D02*
X606366Y582395D01*
X599345Y584276D01*
X593050Y587911D01*
X587911Y593050D01*
X584276Y599345D01*
X582395Y606366D01*
X582395Y613634D01*
X584276Y620655D01*
X587911Y626950D01*
X593050Y632089D01*
X599345Y635724D01*
X606366Y637605D01*
X613634Y637605D01*
X620655Y635724D01*
X626950Y632089D01*
X632089Y626950D01*
X635724Y620655D01*
X637605Y613634D01*
X637605Y606366D01*
X635724Y599345D01*
X632089Y593050D01*
X626950Y587911D01*
X620655Y584276D01*
X613634Y582395D01*
X606366Y582395D01*
G37*
%LPD*%
%LPC*%
G36*
X1136366Y779395D02*
X1136366Y779395D01*
X1129345Y781276D01*
X1123050Y784911D01*
X1117911Y790050D01*
X1114276Y796345D01*
X1112395Y803366D01*
X1112395Y810634D01*
X1114276Y817655D01*
X1117911Y823950D01*
X1123050Y829089D01*
X1129345Y832724D01*
X1136366Y834605D01*
X1143634Y834605D01*
X1150655Y832724D01*
X1156950Y829089D01*
X1162089Y823950D01*
X1165724Y817655D01*
X1167605Y810634D01*
X1167605Y803366D01*
X1165724Y796345D01*
X1162089Y790050D01*
X1156950Y784911D01*
X1150655Y781276D01*
X1143634Y779395D01*
X1136366Y779395D01*
G37*
%LPD*%
%LPC*%
G36*
X1512573Y694299D02*
X1512573Y694299D01*
X1506678Y696741D01*
X1502165Y701254D01*
X1499723Y707149D01*
X1499723Y713531D01*
X1502165Y719426D01*
X1506678Y723939D01*
X1512573Y726381D01*
X1518955Y726381D01*
X1524850Y723939D01*
X1529363Y719426D01*
X1531805Y713531D01*
X1531805Y707149D01*
X1529363Y701254D01*
X1524850Y696741D01*
X1518955Y694299D01*
X1512573Y694299D01*
G37*
%LPD*%
%LPC*%
G36*
X231045Y490659D02*
X231045Y490659D01*
X225150Y493101D01*
X220637Y497614D01*
X218195Y503509D01*
X218195Y509891D01*
X220637Y515786D01*
X225150Y520299D01*
X231045Y522741D01*
X237427Y522741D01*
X243322Y520299D01*
X247835Y515786D01*
X250277Y509891D01*
X250277Y503509D01*
X247835Y497614D01*
X243322Y493101D01*
X237427Y490659D01*
X231045Y490659D01*
G37*
%LPD*%
%LPC*%
G36*
X1513073Y494259D02*
X1513073Y494259D01*
X1507178Y496701D01*
X1502665Y501214D01*
X1500223Y507109D01*
X1500223Y513491D01*
X1502665Y519386D01*
X1507178Y523899D01*
X1513073Y526341D01*
X1519455Y526341D01*
X1525350Y523899D01*
X1529863Y519386D01*
X1532305Y513491D01*
X1532305Y507109D01*
X1529863Y501214D01*
X1525350Y496701D01*
X1519455Y494259D01*
X1513073Y494259D01*
G37*
%LPD*%
%LPC*%
G36*
X1512573Y894259D02*
X1512573Y894259D01*
X1506678Y896701D01*
X1502165Y901214D01*
X1499723Y907109D01*
X1499723Y913491D01*
X1502165Y919386D01*
X1506678Y923899D01*
X1512573Y926341D01*
X1518955Y926341D01*
X1524850Y923899D01*
X1529363Y919386D01*
X1531805Y913491D01*
X1531805Y907109D01*
X1529363Y901214D01*
X1524850Y896701D01*
X1518955Y894259D01*
X1512573Y894259D01*
G37*
%LPD*%
%LPC*%
G36*
X230545Y890659D02*
X230545Y890659D01*
X224650Y893101D01*
X220137Y897614D01*
X217695Y903509D01*
X217695Y909891D01*
X220137Y915786D01*
X224650Y920299D01*
X230545Y922741D01*
X236927Y922741D01*
X242822Y920299D01*
X247335Y915786D01*
X249777Y909891D01*
X249777Y903509D01*
X247335Y897614D01*
X242822Y893101D01*
X236927Y890659D01*
X230545Y890659D01*
G37*
%LPD*%
%LPC*%
G36*
X231045Y690619D02*
X231045Y690619D01*
X225150Y693061D01*
X220637Y697574D01*
X218195Y703469D01*
X218195Y709851D01*
X220637Y715746D01*
X225150Y720259D01*
X231045Y722701D01*
X237427Y722701D01*
X243322Y720259D01*
X247835Y715746D01*
X250277Y709851D01*
X250277Y703469D01*
X247835Y697574D01*
X243322Y693061D01*
X237427Y690619D01*
X231045Y690619D01*
G37*
%LPD*%
%LPC*%
G36*
X740854Y848459D02*
X740854Y848459D01*
X736888Y850102D01*
X733852Y853138D01*
X732209Y857104D01*
X732209Y861396D01*
X733852Y865362D01*
X736888Y868398D01*
X740854Y870041D01*
X745146Y870041D01*
X749112Y868398D01*
X752148Y865362D01*
X753791Y861396D01*
X753791Y857104D01*
X752148Y853138D01*
X749112Y850102D01*
X745146Y848459D01*
X740854Y848459D01*
G37*
%LPD*%
%LPC*%
G36*
X740854Y689959D02*
X740854Y689959D01*
X736888Y691602D01*
X733852Y694638D01*
X732209Y698604D01*
X732209Y702896D01*
X733852Y706862D01*
X736888Y709898D01*
X740854Y711541D01*
X745146Y711541D01*
X749112Y709898D01*
X752148Y706862D01*
X753791Y702896D01*
X753791Y698604D01*
X752148Y694638D01*
X749112Y691602D01*
X745146Y689959D01*
X740854Y689959D01*
G37*
%LPD*%
%LPC*%
G36*
X1004854Y546959D02*
X1004854Y546959D01*
X1000888Y548602D01*
X997852Y551638D01*
X996209Y555604D01*
X996209Y559896D01*
X997852Y563862D01*
X1000888Y566898D01*
X1004854Y568541D01*
X1009146Y568541D01*
X1013112Y566898D01*
X1016148Y563862D01*
X1017791Y559896D01*
X1017791Y555604D01*
X1016148Y551638D01*
X1013112Y548602D01*
X1009146Y546959D01*
X1004854Y546959D01*
G37*
%LPD*%
%LPC*%
G36*
X1004854Y705459D02*
X1004854Y705459D01*
X1000888Y707102D01*
X997852Y710138D01*
X996209Y714104D01*
X996209Y718396D01*
X997852Y722362D01*
X1000888Y725398D01*
X1004854Y727041D01*
X1009146Y727041D01*
X1013112Y725398D01*
X1016148Y722362D01*
X1017791Y718396D01*
X1017791Y714104D01*
X1016148Y710138D01*
X1013112Y707102D01*
X1009146Y705459D01*
X1004854Y705459D01*
G37*
%LPD*%
%LPC*%
G36*
X915923Y1123859D02*
X915923Y1123859D01*
X912086Y1125449D01*
X909149Y1128386D01*
X907559Y1132223D01*
X907559Y1136377D01*
X909149Y1140214D01*
X912086Y1143151D01*
X915923Y1144741D01*
X920077Y1144741D01*
X923914Y1143151D01*
X926851Y1140214D01*
X928441Y1136377D01*
X928441Y1132223D01*
X926851Y1128386D01*
X923914Y1125449D01*
X920077Y1123859D01*
X915923Y1123859D01*
G37*
%LPD*%
%LPC*%
G36*
X1188723Y286969D02*
X1188723Y286969D01*
X1184886Y288559D01*
X1181949Y291496D01*
X1180359Y295333D01*
X1180359Y299487D01*
X1181949Y303324D01*
X1184886Y306261D01*
X1188723Y307851D01*
X1192877Y307851D01*
X1196714Y306261D01*
X1199651Y303324D01*
X1201241Y299487D01*
X1201241Y295333D01*
X1199651Y291496D01*
X1196714Y288559D01*
X1192877Y286969D01*
X1188723Y286969D01*
G37*
%LPD*%
%LPC*%
G36*
X557123Y1109149D02*
X557123Y1109149D01*
X553286Y1110739D01*
X550349Y1113676D01*
X548759Y1117513D01*
X548759Y1121667D01*
X550349Y1125504D01*
X553286Y1128441D01*
X557123Y1130031D01*
X561277Y1130031D01*
X565114Y1128441D01*
X568051Y1125504D01*
X569641Y1121667D01*
X569641Y1117513D01*
X568051Y1113676D01*
X565114Y1110739D01*
X561277Y1109149D01*
X557123Y1109149D01*
G37*
%LPD*%
%LPC*%
G36*
X658723Y1109149D02*
X658723Y1109149D01*
X654886Y1110739D01*
X651949Y1113676D01*
X650359Y1117513D01*
X650359Y1121667D01*
X651949Y1125504D01*
X654886Y1128441D01*
X658723Y1130031D01*
X662877Y1130031D01*
X666714Y1128441D01*
X669651Y1125504D01*
X671241Y1121667D01*
X671241Y1117513D01*
X669651Y1113676D01*
X666714Y1110739D01*
X662877Y1109149D01*
X658723Y1109149D01*
G37*
%LPD*%
%LPC*%
G36*
X829923Y272259D02*
X829923Y272259D01*
X826086Y273849D01*
X823149Y276786D01*
X821559Y280623D01*
X821559Y284777D01*
X823149Y288614D01*
X826086Y291551D01*
X829923Y293141D01*
X834077Y293141D01*
X837914Y291551D01*
X840851Y288614D01*
X842441Y284777D01*
X842441Y280623D01*
X840851Y276786D01*
X837914Y273849D01*
X834077Y272259D01*
X829923Y272259D01*
G37*
%LPD*%
%LPC*%
G36*
X1419923Y269259D02*
X1419923Y269259D01*
X1416086Y270849D01*
X1413149Y273786D01*
X1411559Y277623D01*
X1411559Y281777D01*
X1413149Y285614D01*
X1416086Y288551D01*
X1419923Y290141D01*
X1424077Y290141D01*
X1427914Y288551D01*
X1430851Y285614D01*
X1432441Y281777D01*
X1432441Y277623D01*
X1430851Y273786D01*
X1427914Y270849D01*
X1424077Y269259D01*
X1419923Y269259D01*
G37*
%LPD*%
%LPC*%
G36*
X325923Y1126859D02*
X325923Y1126859D01*
X322086Y1128449D01*
X319149Y1131386D01*
X317559Y1135223D01*
X317559Y1139377D01*
X319149Y1143214D01*
X322086Y1146151D01*
X325923Y1147741D01*
X330077Y1147741D01*
X333914Y1146151D01*
X336851Y1143214D01*
X338441Y1139377D01*
X338441Y1135223D01*
X336851Y1131386D01*
X333914Y1128449D01*
X330077Y1126859D01*
X325923Y1126859D01*
G37*
%LPD*%
%LPC*%
G36*
X1087123Y286969D02*
X1087123Y286969D01*
X1083286Y288559D01*
X1080349Y291496D01*
X1078759Y295333D01*
X1078759Y299487D01*
X1080349Y303324D01*
X1083286Y306261D01*
X1087123Y307851D01*
X1091277Y307851D01*
X1095114Y306261D01*
X1098051Y303324D01*
X1099641Y299487D01*
X1099641Y295333D01*
X1098051Y291496D01*
X1095114Y288559D01*
X1091277Y286969D01*
X1087123Y286969D01*
G37*
%LPD*%
%LPC*%
G36*
X829923Y475459D02*
X829923Y475459D01*
X826086Y477049D01*
X823149Y479986D01*
X821559Y483823D01*
X821559Y487977D01*
X823149Y491814D01*
X826086Y494751D01*
X829923Y496341D01*
X834077Y496341D01*
X837914Y494751D01*
X840851Y491814D01*
X842441Y487977D01*
X842441Y483823D01*
X840851Y479986D01*
X837914Y477049D01*
X834077Y475459D01*
X829923Y475459D01*
G37*
%LPD*%
%LPC*%
G36*
X915923Y920659D02*
X915923Y920659D01*
X912086Y922249D01*
X909149Y925186D01*
X907559Y929023D01*
X907559Y933177D01*
X909149Y937014D01*
X912086Y939951D01*
X915923Y941541D01*
X920077Y941541D01*
X923914Y939951D01*
X926851Y937014D01*
X928441Y933177D01*
X928441Y929023D01*
X926851Y925186D01*
X923914Y922249D01*
X920077Y920659D01*
X915923Y920659D01*
G37*
%LPD*%
%LPC*%
G36*
X1419923Y472459D02*
X1419923Y472459D01*
X1416086Y474049D01*
X1413149Y476986D01*
X1411559Y480823D01*
X1411559Y484977D01*
X1413149Y488814D01*
X1416086Y491751D01*
X1419923Y493341D01*
X1424077Y493341D01*
X1427914Y491751D01*
X1430851Y488814D01*
X1432441Y484977D01*
X1432441Y480823D01*
X1430851Y476986D01*
X1427914Y474049D01*
X1424077Y472459D01*
X1419923Y472459D01*
G37*
%LPD*%
%LPC*%
G36*
X325923Y923659D02*
X325923Y923659D01*
X322086Y925249D01*
X319149Y928186D01*
X317559Y932023D01*
X317559Y936177D01*
X319149Y940014D01*
X322086Y942951D01*
X325923Y944541D01*
X330077Y944541D01*
X333914Y942951D01*
X336851Y940014D01*
X338441Y936177D01*
X338441Y932023D01*
X336851Y928186D01*
X333914Y925249D01*
X330077Y923659D01*
X325923Y923659D01*
G37*
%LPD*%
%LPC*%
G36*
X458041Y473971D02*
X458041Y473971D01*
X454902Y475272D01*
X452500Y477674D01*
X451199Y480813D01*
X451199Y484211D01*
X452500Y487350D01*
X454902Y489752D01*
X458041Y491053D01*
X461439Y491053D01*
X464578Y489752D01*
X466980Y487350D01*
X468281Y484211D01*
X468281Y480813D01*
X466980Y477674D01*
X464578Y475272D01*
X461439Y473971D01*
X458041Y473971D01*
G37*
%LPD*%
%LPC*%
G36*
X1288561Y925947D02*
X1288561Y925947D01*
X1285422Y927248D01*
X1283020Y929650D01*
X1281719Y932789D01*
X1281719Y936187D01*
X1283020Y939326D01*
X1285422Y941728D01*
X1288561Y943029D01*
X1291959Y943029D01*
X1295098Y941728D01*
X1297500Y939326D01*
X1298801Y936187D01*
X1298801Y932789D01*
X1297500Y929650D01*
X1295098Y927248D01*
X1291959Y925947D01*
X1288561Y925947D01*
G37*
%LPD*%
%LPC*%
G36*
X408646Y933193D02*
X408646Y933193D01*
X406144Y934230D01*
X404230Y936144D01*
X403193Y938646D01*
X403193Y941354D01*
X404230Y943856D01*
X406144Y945770D01*
X408646Y946807D01*
X411354Y946807D01*
X413856Y945770D01*
X415770Y943856D01*
X416807Y941354D01*
X416807Y938646D01*
X415770Y936144D01*
X413856Y934230D01*
X411354Y933193D01*
X408646Y933193D01*
G37*
%LPD*%
%LPC*%
G36*
X1338646Y470193D02*
X1338646Y470193D01*
X1336144Y471230D01*
X1334230Y473144D01*
X1333193Y475646D01*
X1333193Y478354D01*
X1334230Y480856D01*
X1336144Y482770D01*
X1338646Y483807D01*
X1341354Y483807D01*
X1343856Y482770D01*
X1345770Y480856D01*
X1346807Y478354D01*
X1346807Y475646D01*
X1345770Y473144D01*
X1343856Y471230D01*
X1341354Y470193D01*
X1338646Y470193D01*
G37*
%LPD*%
%LPC*%
G36*
X1238646Y640193D02*
X1238646Y640193D01*
X1236144Y641230D01*
X1234230Y643144D01*
X1233193Y645646D01*
X1233193Y648354D01*
X1234230Y650856D01*
X1236144Y652770D01*
X1238646Y653807D01*
X1241354Y653807D01*
X1243856Y652770D01*
X1245770Y650856D01*
X1246807Y648354D01*
X1246807Y645646D01*
X1245770Y643144D01*
X1243856Y641230D01*
X1241354Y640193D01*
X1238646Y640193D01*
G37*
%LPD*%
%LPC*%
G36*
X508646Y763193D02*
X508646Y763193D01*
X506144Y764230D01*
X504230Y766144D01*
X503193Y768646D01*
X503193Y771354D01*
X504230Y773856D01*
X506144Y775770D01*
X508646Y776807D01*
X511354Y776807D01*
X513856Y775770D01*
X515770Y773856D01*
X516807Y771354D01*
X516807Y768646D01*
X515770Y766144D01*
X513856Y764230D01*
X511354Y763193D01*
X508646Y763193D01*
G37*
%LPD*%
%LPC*%
G36*
X1420026Y686193D02*
X1420026Y686193D01*
X1417524Y687230D01*
X1415610Y689144D01*
X1414573Y691646D01*
X1414573Y694354D01*
X1415610Y696856D01*
X1417524Y698770D01*
X1420026Y699807D01*
X1422734Y699807D01*
X1425236Y698770D01*
X1427150Y696856D01*
X1428187Y694354D01*
X1428187Y691646D01*
X1427150Y689144D01*
X1425236Y687230D01*
X1422734Y686193D01*
X1420026Y686193D01*
G37*
%LPD*%
%LPC*%
G36*
X327266Y717193D02*
X327266Y717193D01*
X324764Y718230D01*
X322850Y720144D01*
X321813Y722646D01*
X321813Y725354D01*
X322850Y727856D01*
X324764Y729770D01*
X327266Y730807D01*
X329974Y730807D01*
X332476Y729770D01*
X334390Y727856D01*
X335427Y725354D01*
X335427Y722646D01*
X334390Y720144D01*
X332476Y718230D01*
X329974Y717193D01*
X327266Y717193D01*
G37*
%LPD*%
%LPC*%
G36*
X384500Y789247D02*
X384500Y789247D01*
X382090Y790245D01*
X380245Y792090D01*
X379247Y794500D01*
X379247Y797108D01*
X380245Y799518D01*
X382090Y801363D01*
X384500Y802361D01*
X387108Y802361D01*
X389518Y801363D01*
X391363Y799518D01*
X392361Y797108D01*
X392361Y794500D01*
X391363Y792090D01*
X389518Y790245D01*
X387108Y789247D01*
X384500Y789247D01*
G37*
%LPD*%
%LPC*%
G36*
X1418696Y730443D02*
X1418696Y730443D01*
X1416286Y731441D01*
X1414441Y733286D01*
X1413443Y735696D01*
X1413443Y738304D01*
X1414441Y740714D01*
X1416286Y742559D01*
X1418696Y743557D01*
X1421304Y743557D01*
X1423714Y742559D01*
X1425559Y740714D01*
X1426557Y738304D01*
X1426557Y735696D01*
X1425559Y733286D01*
X1423714Y731441D01*
X1421304Y730443D01*
X1418696Y730443D01*
G37*
%LPD*%
%LPC*%
G36*
X735696Y824443D02*
X735696Y824443D01*
X733286Y825441D01*
X731441Y827286D01*
X730443Y829696D01*
X730443Y832304D01*
X731441Y834714D01*
X733286Y836559D01*
X735696Y837557D01*
X738304Y837557D01*
X740714Y836559D01*
X742559Y834714D01*
X743557Y832304D01*
X743557Y829696D01*
X742559Y827286D01*
X740714Y825441D01*
X738304Y824443D01*
X735696Y824443D01*
G37*
%LPD*%
%LPC*%
G36*
X328696Y673443D02*
X328696Y673443D01*
X326286Y674441D01*
X324441Y676286D01*
X323443Y678696D01*
X323443Y681304D01*
X324441Y683714D01*
X326286Y685559D01*
X328696Y686557D01*
X331304Y686557D01*
X333714Y685559D01*
X335559Y683714D01*
X336557Y681304D01*
X336557Y678696D01*
X335559Y676286D01*
X333714Y674441D01*
X331304Y673443D01*
X328696Y673443D01*
G37*
%LPD*%
%LPC*%
G36*
X1362892Y614639D02*
X1362892Y614639D01*
X1360482Y615637D01*
X1358637Y617482D01*
X1357639Y619892D01*
X1357639Y622500D01*
X1358637Y624910D01*
X1360482Y626755D01*
X1362892Y627753D01*
X1365500Y627753D01*
X1367910Y626755D01*
X1369755Y624910D01*
X1370753Y622500D01*
X1370753Y619892D01*
X1369755Y617482D01*
X1367910Y615637D01*
X1365500Y614639D01*
X1362892Y614639D01*
G37*
%LPD*%
%LPC*%
G36*
X1011696Y579443D02*
X1011696Y579443D01*
X1009286Y580441D01*
X1007441Y582286D01*
X1006443Y584696D01*
X1006443Y587304D01*
X1007441Y589714D01*
X1009286Y591559D01*
X1011696Y592557D01*
X1014304Y592557D01*
X1016714Y591559D01*
X1018559Y589714D01*
X1019557Y587304D01*
X1019557Y584696D01*
X1018559Y582286D01*
X1016714Y580441D01*
X1014304Y579443D01*
X1011696Y579443D01*
G37*
%LPD*%
%LPC*%
G36*
X1542875Y925523D02*
X1542875Y925523D01*
X1540471Y926519D01*
X1538631Y928359D01*
X1537635Y930763D01*
X1537635Y933365D01*
X1538631Y935769D01*
X1540471Y937609D01*
X1542875Y938605D01*
X1545477Y938605D01*
X1547881Y937609D01*
X1549721Y935769D01*
X1550717Y933365D01*
X1550717Y930763D01*
X1549721Y928359D01*
X1547881Y926519D01*
X1545477Y925523D01*
X1542875Y925523D01*
G37*
%LPD*%
%LPC*%
G36*
X1542875Y955523D02*
X1542875Y955523D01*
X1540471Y956519D01*
X1538631Y958359D01*
X1537635Y960763D01*
X1537635Y963365D01*
X1538631Y965769D01*
X1540471Y967609D01*
X1542875Y968605D01*
X1545477Y968605D01*
X1547881Y967609D01*
X1549721Y965769D01*
X1550717Y963365D01*
X1550717Y960763D01*
X1549721Y958359D01*
X1547881Y956519D01*
X1545477Y955523D01*
X1542875Y955523D01*
G37*
%LPD*%
%LPC*%
G36*
X204523Y478395D02*
X204523Y478395D01*
X202119Y479391D01*
X200279Y481231D01*
X199283Y483635D01*
X199283Y486237D01*
X200279Y488641D01*
X202119Y490481D01*
X204523Y491477D01*
X207125Y491477D01*
X209529Y490481D01*
X211369Y488641D01*
X212365Y486237D01*
X212365Y483635D01*
X211369Y481231D01*
X209529Y479391D01*
X207125Y478395D01*
X204523Y478395D01*
G37*
%LPD*%
%LPC*%
G36*
X204523Y448395D02*
X204523Y448395D01*
X202119Y449391D01*
X200279Y451231D01*
X199283Y453635D01*
X199283Y456237D01*
X200279Y458641D01*
X202119Y460481D01*
X204523Y461477D01*
X207125Y461477D01*
X209529Y460481D01*
X211369Y458641D01*
X212365Y456237D01*
X212365Y453635D01*
X211369Y451231D01*
X209529Y449391D01*
X207125Y448395D01*
X204523Y448395D01*
G37*
%LPD*%
%LPC*%
G36*
X1394195Y489793D02*
X1394195Y489793D01*
X1390793Y493195D01*
X1390793Y498005D01*
X1394195Y501407D01*
X1399005Y501407D01*
X1402407Y498005D01*
X1402407Y493195D01*
X1399005Y489793D01*
X1394195Y489793D01*
G37*
%LPD*%
%LPC*%
G36*
X350995Y915593D02*
X350995Y915593D01*
X347593Y918995D01*
X347593Y923805D01*
X350995Y927207D01*
X355805Y927207D01*
X359207Y923805D01*
X359207Y918995D01*
X355805Y915593D01*
X350995Y915593D01*
G37*
%LPD*%
%LPC*%
G36*
X333982Y1042843D02*
X333982Y1042843D01*
X330727Y1046098D01*
X330727Y1050702D01*
X333982Y1053957D01*
X338586Y1053957D01*
X341841Y1050702D01*
X341841Y1046098D01*
X338586Y1042843D01*
X333982Y1042843D01*
G37*
%LPD*%
%LPC*%
G36*
X1345730Y942699D02*
X1345730Y942699D01*
X1342475Y945954D01*
X1342475Y950558D01*
X1345730Y953813D01*
X1350334Y953813D01*
X1353589Y950558D01*
X1353589Y945954D01*
X1350334Y942699D01*
X1345730Y942699D01*
G37*
%LPD*%
%LPC*%
G36*
X303698Y1068243D02*
X303698Y1068243D01*
X300443Y1071498D01*
X300443Y1076102D01*
X303698Y1079357D01*
X308302Y1079357D01*
X311557Y1076102D01*
X311557Y1071498D01*
X308302Y1068243D01*
X303698Y1068243D01*
G37*
%LPD*%
%LPC*%
G36*
X1325918Y953367D02*
X1325918Y953367D01*
X1322663Y956622D01*
X1322663Y961226D01*
X1325918Y964481D01*
X1330522Y964481D01*
X1333777Y961226D01*
X1333777Y956622D01*
X1330522Y953367D01*
X1325918Y953367D01*
G37*
%LPD*%
%LPC*%
G36*
X347698Y1093643D02*
X347698Y1093643D01*
X344443Y1096898D01*
X344443Y1101502D01*
X347698Y1104757D01*
X352302Y1104757D01*
X355557Y1101502D01*
X355557Y1096898D01*
X352302Y1093643D01*
X347698Y1093643D01*
G37*
%LPD*%
%LPC*%
G36*
X303698Y1093643D02*
X303698Y1093643D01*
X300443Y1096898D01*
X300443Y1101502D01*
X303698Y1104757D01*
X308302Y1104757D01*
X311557Y1101502D01*
X311557Y1096898D01*
X308302Y1093643D01*
X303698Y1093643D01*
G37*
%LPD*%
%LPC*%
G36*
X1258698Y555443D02*
X1258698Y555443D01*
X1255443Y558698D01*
X1255443Y563302D01*
X1258698Y566557D01*
X1263302Y566557D01*
X1266557Y563302D01*
X1266557Y558698D01*
X1263302Y555443D01*
X1258698Y555443D01*
G37*
%LPD*%
%LPC*%
G36*
X310524Y540911D02*
X310524Y540911D01*
X307269Y544166D01*
X307269Y548770D01*
X310524Y552025D01*
X315128Y552025D01*
X318383Y548770D01*
X318383Y544166D01*
X315128Y540911D01*
X310524Y540911D01*
G37*
%LPD*%
%LPC*%
G36*
X399666Y463187D02*
X399666Y463187D01*
X396411Y466442D01*
X396411Y471046D01*
X399666Y474301D01*
X404270Y474301D01*
X407525Y471046D01*
X407525Y466442D01*
X404270Y463187D01*
X399666Y463187D01*
G37*
%LPD*%
%LPC*%
G36*
X419478Y452519D02*
X419478Y452519D01*
X416223Y455774D01*
X416223Y460378D01*
X419478Y463633D01*
X424082Y463633D01*
X427337Y460378D01*
X427337Y455774D01*
X424082Y452519D01*
X419478Y452519D01*
G37*
%LPD*%
%LPC*%
G36*
X1428756Y906123D02*
X1428756Y906123D01*
X1425501Y909378D01*
X1425501Y913982D01*
X1428756Y917237D01*
X1433359Y917237D01*
X1436614Y913982D01*
X1436614Y909378D01*
X1433359Y906123D01*
X1428756Y906123D01*
G37*
%LPD*%
%LPC*%
G36*
X1428026Y889359D02*
X1428026Y889359D01*
X1424771Y892614D01*
X1424771Y897218D01*
X1428026Y900473D01*
X1432630Y900473D01*
X1435885Y897218D01*
X1435885Y892614D01*
X1432630Y889359D01*
X1428026Y889359D01*
G37*
%LPD*%
%LPC*%
G36*
X317370Y516527D02*
X317370Y516527D01*
X314115Y519782D01*
X314115Y524386D01*
X317370Y527641D01*
X321974Y527641D01*
X325229Y524386D01*
X325229Y519782D01*
X321974Y516527D01*
X317370Y516527D01*
G37*
%LPD*%
%LPC*%
G36*
X1446698Y883443D02*
X1446698Y883443D01*
X1443443Y886698D01*
X1443443Y891302D01*
X1446698Y894557D01*
X1451302Y894557D01*
X1454557Y891302D01*
X1454557Y886698D01*
X1451302Y883443D01*
X1446698Y883443D01*
G37*
%LPD*%
%LPC*%
G36*
X303698Y1042843D02*
X303698Y1042843D01*
X300443Y1046098D01*
X300443Y1050702D01*
X303698Y1053957D01*
X308302Y1053957D01*
X311557Y1050702D01*
X311557Y1046098D01*
X308302Y1042843D01*
X303698Y1042843D01*
G37*
%LPD*%
%LPC*%
G36*
X1434872Y864975D02*
X1434872Y864975D01*
X1431617Y868230D01*
X1431617Y872834D01*
X1434872Y876089D01*
X1439476Y876089D01*
X1442731Y872834D01*
X1442731Y868230D01*
X1439476Y864975D01*
X1434872Y864975D01*
G37*
%LPD*%
%LPC*%
G36*
X355470Y364127D02*
X355470Y364127D01*
X352215Y367382D01*
X352215Y371986D01*
X355470Y375241D01*
X360074Y375241D01*
X363329Y371986D01*
X363329Y367382D01*
X360074Y364127D01*
X355470Y364127D01*
G37*
%LPD*%
%LPC*%
G36*
X486698Y850443D02*
X486698Y850443D01*
X483443Y853698D01*
X483443Y858302D01*
X486698Y861557D01*
X491302Y861557D01*
X494557Y858302D01*
X494557Y853698D01*
X491302Y850443D01*
X486698Y850443D01*
G37*
%LPD*%
%LPC*%
G36*
X1260386Y686443D02*
X1260386Y686443D01*
X1257131Y689698D01*
X1257131Y694302D01*
X1260386Y697557D01*
X1264990Y697557D01*
X1268245Y694302D01*
X1268245Y689698D01*
X1264990Y686443D01*
X1260386Y686443D01*
G37*
%LPD*%
%LPC*%
G36*
X1411414Y363043D02*
X1411414Y363043D01*
X1408159Y366298D01*
X1408159Y370902D01*
X1411414Y374157D01*
X1416018Y374157D01*
X1419273Y370902D01*
X1419273Y366298D01*
X1416018Y363043D01*
X1411414Y363043D01*
G37*
%LPD*%
%LPC*%
G36*
X1441698Y363043D02*
X1441698Y363043D01*
X1438443Y366298D01*
X1438443Y370902D01*
X1441698Y374157D01*
X1446302Y374157D01*
X1449557Y370902D01*
X1449557Y366298D01*
X1446302Y363043D01*
X1441698Y363043D01*
G37*
%LPD*%
%LPC*%
G36*
X1389926Y1041759D02*
X1389926Y1041759D01*
X1386671Y1045014D01*
X1386671Y1049618D01*
X1389926Y1052873D01*
X1394530Y1052873D01*
X1397785Y1049618D01*
X1397785Y1045014D01*
X1394530Y1041759D01*
X1389926Y1041759D01*
G37*
%LPD*%
%LPC*%
G36*
X1441698Y337643D02*
X1441698Y337643D01*
X1438443Y340898D01*
X1438443Y345502D01*
X1441698Y348757D01*
X1446302Y348757D01*
X1449557Y345502D01*
X1449557Y340898D01*
X1446302Y337643D01*
X1441698Y337643D01*
G37*
%LPD*%
%LPC*%
G36*
X485010Y719443D02*
X485010Y719443D01*
X481755Y722698D01*
X481755Y727302D01*
X485010Y730557D01*
X489614Y730557D01*
X492869Y727302D01*
X492869Y722698D01*
X489614Y719443D01*
X485010Y719443D01*
G37*
%LPD*%
%LPC*%
G36*
X1441698Y312243D02*
X1441698Y312243D01*
X1438443Y315498D01*
X1438443Y320102D01*
X1441698Y323357D01*
X1446302Y323357D01*
X1449557Y320102D01*
X1449557Y315498D01*
X1446302Y312243D01*
X1441698Y312243D01*
G37*
%LPD*%
%LPC*%
G36*
X316641Y499763D02*
X316641Y499763D01*
X313386Y503018D01*
X313386Y507622D01*
X316641Y510877D01*
X321244Y510877D01*
X324499Y507622D01*
X324499Y503018D01*
X321244Y499763D01*
X316641Y499763D01*
G37*
%LPD*%
%LPC*%
G36*
X1397698Y312243D02*
X1397698Y312243D01*
X1394443Y315498D01*
X1394443Y320102D01*
X1397698Y323357D01*
X1402302Y323357D01*
X1405557Y320102D01*
X1405557Y315498D01*
X1402302Y312243D01*
X1397698Y312243D01*
G37*
%LPD*%
%LPC*%
G36*
X298698Y522443D02*
X298698Y522443D01*
X295443Y525698D01*
X295443Y530302D01*
X298698Y533557D01*
X303302Y533557D01*
X306557Y530302D01*
X306557Y525698D01*
X303302Y522443D01*
X298698Y522443D01*
G37*
%LPD*%
%LPC*%
G36*
X697802Y793693D02*
X697802Y793693D01*
X694693Y796802D01*
X694693Y801198D01*
X697802Y804307D01*
X702198Y804307D01*
X705307Y801198D01*
X705307Y796802D01*
X702198Y793693D01*
X697802Y793693D01*
G37*
%LPD*%
%LPC*%
G36*
X1028802Y967693D02*
X1028802Y967693D01*
X1025693Y970802D01*
X1025693Y975198D01*
X1028802Y978307D01*
X1033198Y978307D01*
X1036307Y975198D01*
X1036307Y970802D01*
X1033198Y967693D01*
X1028802Y967693D01*
G37*
%LPD*%
%LPC*%
G36*
X732802Y799693D02*
X732802Y799693D01*
X729693Y802802D01*
X729693Y807198D01*
X732802Y810307D01*
X737198Y810307D01*
X740307Y807198D01*
X740307Y802802D01*
X737198Y799693D01*
X732802Y799693D01*
G37*
%LPD*%
%LPC*%
G36*
X697802Y780693D02*
X697802Y780693D01*
X694693Y783802D01*
X694693Y788198D01*
X697802Y791307D01*
X702198Y791307D01*
X705307Y788198D01*
X705307Y783802D01*
X702198Y780693D01*
X697802Y780693D01*
G37*
%LPD*%
%LPC*%
G36*
X517802Y214693D02*
X517802Y214693D01*
X514693Y217802D01*
X514693Y222198D01*
X517802Y225307D01*
X522198Y225307D01*
X525307Y222198D01*
X525307Y217802D01*
X522198Y214693D01*
X517802Y214693D01*
G37*
%LPD*%
%LPC*%
G36*
X697802Y767693D02*
X697802Y767693D01*
X694693Y770802D01*
X694693Y775198D01*
X697802Y778307D01*
X702198Y778307D01*
X705307Y775198D01*
X705307Y770802D01*
X702198Y767693D01*
X697802Y767693D01*
G37*
%LPD*%
%LPC*%
G36*
X429903Y214794D02*
X429903Y214794D01*
X426794Y217903D01*
X426794Y222299D01*
X429903Y225408D01*
X434299Y225408D01*
X437408Y222299D01*
X437408Y217903D01*
X434299Y214794D01*
X429903Y214794D01*
G37*
%LPD*%
%LPC*%
G36*
X1472802Y763693D02*
X1472802Y763693D01*
X1469693Y766802D01*
X1469693Y771198D01*
X1472802Y774307D01*
X1477198Y774307D01*
X1480307Y771198D01*
X1480307Y766802D01*
X1477198Y763693D01*
X1472802Y763693D01*
G37*
%LPD*%
%LPC*%
G36*
X1374802Y760693D02*
X1374802Y760693D01*
X1371693Y763802D01*
X1371693Y768198D01*
X1374802Y771307D01*
X1379198Y771307D01*
X1382307Y768198D01*
X1382307Y763802D01*
X1379198Y760693D01*
X1374802Y760693D01*
G37*
%LPD*%
%LPC*%
G36*
X697802Y754693D02*
X697802Y754693D01*
X694693Y757802D01*
X694693Y762198D01*
X697802Y765307D01*
X702198Y765307D01*
X705307Y762198D01*
X705307Y757802D01*
X702198Y754693D01*
X697802Y754693D01*
G37*
%LPD*%
%LPC*%
G36*
X370802Y746693D02*
X370802Y746693D01*
X367693Y749802D01*
X367693Y754198D01*
X370802Y757307D01*
X375198Y757307D01*
X378307Y754198D01*
X378307Y749802D01*
X375198Y746693D01*
X370802Y746693D01*
G37*
%LPD*%
%LPC*%
G36*
X697802Y742693D02*
X697802Y742693D01*
X694693Y745802D01*
X694693Y750198D01*
X697802Y753307D01*
X702198Y753307D01*
X705307Y750198D01*
X705307Y745802D01*
X702198Y742693D01*
X697802Y742693D01*
G37*
%LPD*%
%LPC*%
G36*
X397802Y734693D02*
X397802Y734693D01*
X394693Y737802D01*
X394693Y742198D01*
X397802Y745307D01*
X402198Y745307D01*
X405307Y742198D01*
X405307Y737802D01*
X402198Y734693D01*
X397802Y734693D01*
G37*
%LPD*%
%LPC*%
G36*
X696802Y806693D02*
X696802Y806693D01*
X693693Y809802D01*
X693693Y814198D01*
X696802Y817307D01*
X701198Y817307D01*
X704307Y814198D01*
X704307Y809802D01*
X701198Y806693D01*
X696802Y806693D01*
G37*
%LPD*%
%LPC*%
G36*
X696802Y729693D02*
X696802Y729693D01*
X693693Y732802D01*
X693693Y737198D01*
X696802Y740307D01*
X701198Y740307D01*
X704307Y737198D01*
X704307Y732802D01*
X701198Y729693D01*
X696802Y729693D01*
G37*
%LPD*%
%LPC*%
G36*
X402255Y215147D02*
X402255Y215147D01*
X399147Y218255D01*
X399147Y222651D01*
X402255Y225760D01*
X406651Y225760D01*
X409760Y222651D01*
X409760Y218255D01*
X406651Y215147D01*
X402255Y215147D01*
G37*
%LPD*%
%LPC*%
G36*
X443686Y224693D02*
X443686Y224693D01*
X440577Y227802D01*
X440577Y232198D01*
X443686Y235307D01*
X448082Y235307D01*
X451191Y232198D01*
X451191Y227802D01*
X448082Y224693D01*
X443686Y224693D01*
G37*
%LPD*%
%LPC*%
G36*
X697802Y818693D02*
X697802Y818693D01*
X694693Y821802D01*
X694693Y826198D01*
X697802Y829307D01*
X702198Y829307D01*
X705307Y826198D01*
X705307Y821802D01*
X702198Y818693D01*
X697802Y818693D01*
G37*
%LPD*%
%LPC*%
G36*
X697802Y717693D02*
X697802Y717693D01*
X694693Y720802D01*
X694693Y725198D01*
X697802Y728307D01*
X702198Y728307D01*
X705307Y725198D01*
X705307Y720802D01*
X702198Y717693D01*
X697802Y717693D01*
G37*
%LPD*%
%LPC*%
G36*
X657802Y234693D02*
X657802Y234693D01*
X654693Y237802D01*
X654693Y242198D01*
X657802Y245307D01*
X662198Y245307D01*
X665307Y242198D01*
X665307Y237802D01*
X662198Y234693D01*
X657802Y234693D01*
G37*
%LPD*%
%LPC*%
G36*
X1227802Y1191693D02*
X1227802Y1191693D01*
X1224693Y1194802D01*
X1224693Y1199198D01*
X1227802Y1202307D01*
X1232198Y1202307D01*
X1235307Y1199198D01*
X1235307Y1194802D01*
X1232198Y1191693D01*
X1227802Y1191693D01*
G37*
%LPD*%
%LPC*%
G36*
X1315701Y1191592D02*
X1315701Y1191592D01*
X1312592Y1194701D01*
X1312592Y1199097D01*
X1315701Y1202206D01*
X1320097Y1202206D01*
X1323206Y1199097D01*
X1323206Y1194701D01*
X1320097Y1191592D01*
X1315701Y1191592D01*
G37*
%LPD*%
%LPC*%
G36*
X517852Y246693D02*
X517852Y246693D01*
X514743Y249802D01*
X514743Y254198D01*
X517852Y257307D01*
X522248Y257307D01*
X525357Y254198D01*
X525357Y249802D01*
X522248Y246693D01*
X517852Y246693D01*
G37*
%LPD*%
%LPC*%
G36*
X1343349Y1191240D02*
X1343349Y1191240D01*
X1340240Y1194349D01*
X1340240Y1198745D01*
X1343349Y1201853D01*
X1347745Y1201853D01*
X1350853Y1198745D01*
X1350853Y1194349D01*
X1347745Y1191240D01*
X1343349Y1191240D01*
G37*
%LPD*%
%LPC*%
G36*
X697802Y831693D02*
X697802Y831693D01*
X694693Y834802D01*
X694693Y839198D01*
X697802Y842307D01*
X702198Y842307D01*
X705307Y839198D01*
X705307Y834802D01*
X702198Y831693D01*
X697802Y831693D01*
G37*
%LPD*%
%LPC*%
G36*
X1047802Y688693D02*
X1047802Y688693D01*
X1044693Y691802D01*
X1044693Y696198D01*
X1047802Y699307D01*
X1052198Y699307D01*
X1055307Y696198D01*
X1055307Y691802D01*
X1052198Y688693D01*
X1047802Y688693D01*
G37*
%LPD*%
%LPC*%
G36*
X804402Y264693D02*
X804402Y264693D01*
X801293Y267802D01*
X801293Y272198D01*
X804402Y275307D01*
X808798Y275307D01*
X811907Y272198D01*
X811907Y267802D01*
X808798Y264693D01*
X804402Y264693D01*
G37*
%LPD*%
%LPC*%
G36*
X440354Y845867D02*
X440354Y845867D01*
X437245Y848976D01*
X437245Y853372D01*
X440354Y856481D01*
X444750Y856481D01*
X447859Y853372D01*
X447859Y848976D01*
X444750Y845867D01*
X440354Y845867D01*
G37*
%LPD*%
%LPC*%
G36*
X1048802Y676693D02*
X1048802Y676693D01*
X1045693Y679802D01*
X1045693Y684198D01*
X1048802Y687307D01*
X1053198Y687307D01*
X1056307Y684198D01*
X1056307Y679802D01*
X1053198Y676693D01*
X1048802Y676693D01*
G37*
%LPD*%
%LPC*%
G36*
X855202Y264693D02*
X855202Y264693D01*
X852093Y267802D01*
X852093Y272198D01*
X855202Y275307D01*
X859598Y275307D01*
X862707Y272198D01*
X862707Y267802D01*
X859598Y264693D01*
X855202Y264693D01*
G37*
%LPD*%
%LPC*%
G36*
X430194Y872791D02*
X430194Y872791D01*
X427085Y875900D01*
X427085Y880296D01*
X430194Y883405D01*
X434590Y883405D01*
X437699Y880296D01*
X437699Y875900D01*
X434590Y872791D01*
X430194Y872791D01*
G37*
%LPD*%
%LPC*%
G36*
X1347802Y671693D02*
X1347802Y671693D01*
X1344693Y674802D01*
X1344693Y679198D01*
X1347802Y682307D01*
X1352198Y682307D01*
X1355307Y679198D01*
X1355307Y674802D01*
X1352198Y671693D01*
X1347802Y671693D01*
G37*
%LPD*%
%LPC*%
G36*
X1047802Y663693D02*
X1047802Y663693D01*
X1044693Y666802D01*
X1044693Y671198D01*
X1047802Y674307D01*
X1052198Y674307D01*
X1055307Y671198D01*
X1055307Y666802D01*
X1052198Y663693D01*
X1047802Y663693D01*
G37*
%LPD*%
%LPC*%
G36*
X1374802Y659693D02*
X1374802Y659693D01*
X1371693Y662802D01*
X1371693Y667198D01*
X1374802Y670307D01*
X1379198Y670307D01*
X1382307Y667198D01*
X1382307Y662802D01*
X1379198Y659693D01*
X1374802Y659693D01*
G37*
%LPD*%
%LPC*%
G36*
X1047802Y651693D02*
X1047802Y651693D01*
X1044693Y654802D01*
X1044693Y659198D01*
X1047802Y662307D01*
X1052198Y662307D01*
X1055307Y659198D01*
X1055307Y654802D01*
X1052198Y651693D01*
X1047802Y651693D01*
G37*
%LPD*%
%LPC*%
G36*
X370802Y645693D02*
X370802Y645693D01*
X367693Y648802D01*
X367693Y653198D01*
X370802Y656307D01*
X375198Y656307D01*
X378307Y653198D01*
X378307Y648802D01*
X375198Y645693D01*
X370802Y645693D01*
G37*
%LPD*%
%LPC*%
G36*
X537802Y884693D02*
X537802Y884693D01*
X534693Y887802D01*
X534693Y892198D01*
X537802Y895307D01*
X542198Y895307D01*
X545307Y892198D01*
X545307Y887802D01*
X542198Y884693D01*
X537802Y884693D01*
G37*
%LPD*%
%LPC*%
G36*
X272802Y642693D02*
X272802Y642693D01*
X269693Y645802D01*
X269693Y650198D01*
X272802Y653307D01*
X277198Y653307D01*
X280307Y650198D01*
X280307Y645802D01*
X277198Y642693D01*
X272802Y642693D01*
G37*
%LPD*%
%LPC*%
G36*
X1047802Y638693D02*
X1047802Y638693D01*
X1044693Y641802D01*
X1044693Y646198D01*
X1047802Y649307D01*
X1052198Y649307D01*
X1055307Y646198D01*
X1055307Y641802D01*
X1052198Y638693D01*
X1047802Y638693D01*
G37*
%LPD*%
%LPC*%
G36*
X1301918Y1181693D02*
X1301918Y1181693D01*
X1298809Y1184802D01*
X1298809Y1189198D01*
X1301918Y1192307D01*
X1306314Y1192307D01*
X1309423Y1189198D01*
X1309423Y1184802D01*
X1306314Y1181693D01*
X1301918Y1181693D01*
G37*
%LPD*%
%LPC*%
G36*
X1047802Y625693D02*
X1047802Y625693D01*
X1044693Y628802D01*
X1044693Y633198D01*
X1047802Y636307D01*
X1052198Y636307D01*
X1055307Y633198D01*
X1055307Y628802D01*
X1052198Y625693D01*
X1047802Y625693D01*
G37*
%LPD*%
%LPC*%
G36*
X1087802Y1171693D02*
X1087802Y1171693D01*
X1084693Y1174802D01*
X1084693Y1179198D01*
X1087802Y1182307D01*
X1092198Y1182307D01*
X1095307Y1179198D01*
X1095307Y1174802D01*
X1092198Y1171693D01*
X1087802Y1171693D01*
G37*
%LPD*%
%LPC*%
G36*
X941202Y938493D02*
X941202Y938493D01*
X938093Y941602D01*
X938093Y945998D01*
X941202Y949107D01*
X945598Y949107D01*
X948707Y945998D01*
X948707Y941602D01*
X945598Y938493D01*
X941202Y938493D01*
G37*
%LPD*%
%LPC*%
G36*
X1047802Y612693D02*
X1047802Y612693D01*
X1044693Y615802D01*
X1044693Y620198D01*
X1047802Y623307D01*
X1052198Y623307D01*
X1055307Y620198D01*
X1055307Y615802D01*
X1052198Y612693D01*
X1047802Y612693D01*
G37*
%LPD*%
%LPC*%
G36*
X1334802Y286693D02*
X1334802Y286693D01*
X1331693Y289802D01*
X1331693Y294198D01*
X1334802Y297307D01*
X1339198Y297307D01*
X1342307Y294198D01*
X1342307Y289802D01*
X1339198Y286693D01*
X1334802Y286693D01*
G37*
%LPD*%
%LPC*%
G36*
X1012802Y606693D02*
X1012802Y606693D01*
X1009693Y609802D01*
X1009693Y614198D01*
X1012802Y617307D01*
X1017198Y617307D01*
X1020307Y614198D01*
X1020307Y609802D01*
X1017198Y606693D01*
X1012802Y606693D01*
G37*
%LPD*%
%LPC*%
G36*
X1048802Y599693D02*
X1048802Y599693D01*
X1045693Y602802D01*
X1045693Y607198D01*
X1048802Y610307D01*
X1053198Y610307D01*
X1056307Y607198D01*
X1056307Y602802D01*
X1053198Y599693D01*
X1048802Y599693D01*
G37*
%LPD*%
%LPC*%
G36*
X1445202Y287093D02*
X1445202Y287093D01*
X1442093Y290202D01*
X1442093Y294598D01*
X1445202Y297707D01*
X1449598Y297707D01*
X1452707Y294598D01*
X1452707Y290202D01*
X1449598Y287093D01*
X1445202Y287093D01*
G37*
%LPD*%
%LPC*%
G36*
X1047802Y587693D02*
X1047802Y587693D01*
X1044693Y590802D01*
X1044693Y595198D01*
X1047802Y598307D01*
X1052198Y598307D01*
X1055307Y595198D01*
X1055307Y590802D01*
X1052198Y587693D01*
X1047802Y587693D01*
G37*
%LPD*%
%LPC*%
G36*
X648802Y289693D02*
X648802Y289693D01*
X645693Y292802D01*
X645693Y297198D01*
X648802Y300307D01*
X653198Y300307D01*
X656307Y297198D01*
X656307Y292802D01*
X653198Y289693D01*
X648802Y289693D01*
G37*
%LPD*%
%LPC*%
G36*
X1518802Y941693D02*
X1518802Y941693D01*
X1515693Y944802D01*
X1515693Y949198D01*
X1518802Y952307D01*
X1523198Y952307D01*
X1526307Y949198D01*
X1526307Y944802D01*
X1523198Y941693D01*
X1518802Y941693D01*
G37*
%LPD*%
%LPC*%
G36*
X1047802Y574693D02*
X1047802Y574693D01*
X1044693Y577802D01*
X1044693Y582198D01*
X1047802Y585307D01*
X1052198Y585307D01*
X1055307Y582198D01*
X1055307Y577802D01*
X1052198Y574693D01*
X1047802Y574693D01*
G37*
%LPD*%
%LPC*%
G36*
X804402Y290093D02*
X804402Y290093D01*
X801293Y293202D01*
X801293Y297598D01*
X804402Y300707D01*
X808798Y300707D01*
X811907Y297598D01*
X811907Y293202D01*
X808798Y290093D01*
X804402Y290093D01*
G37*
%LPD*%
%LPC*%
G36*
X1305250Y560519D02*
X1305250Y560519D01*
X1302141Y563628D01*
X1302141Y568024D01*
X1305250Y571133D01*
X1309646Y571133D01*
X1312755Y568024D01*
X1312755Y563628D01*
X1309646Y560519D01*
X1305250Y560519D01*
G37*
%LPD*%
%LPC*%
G36*
X1460134Y942949D02*
X1460134Y942949D01*
X1457025Y946058D01*
X1457025Y950454D01*
X1460134Y953563D01*
X1464530Y953563D01*
X1467639Y950454D01*
X1467639Y946058D01*
X1464530Y942949D01*
X1460134Y942949D01*
G37*
%LPD*%
%LPC*%
G36*
X893802Y963893D02*
X893802Y963893D01*
X890693Y967002D01*
X890693Y971398D01*
X893802Y974507D01*
X898198Y974507D01*
X901307Y971398D01*
X901307Y967002D01*
X898198Y963893D01*
X893802Y963893D01*
G37*
%LPD*%
%LPC*%
G36*
X937802Y963893D02*
X937802Y963893D01*
X934693Y967002D01*
X934693Y971398D01*
X937802Y974507D01*
X942198Y974507D01*
X945307Y971398D01*
X945307Y967002D01*
X942198Y963893D01*
X937802Y963893D01*
G37*
%LPD*%
%LPC*%
G36*
X1315410Y533595D02*
X1315410Y533595D01*
X1312301Y536704D01*
X1312301Y541100D01*
X1315410Y544209D01*
X1319806Y544209D01*
X1322915Y541100D01*
X1322915Y536704D01*
X1319806Y533595D01*
X1315410Y533595D01*
G37*
%LPD*%
%LPC*%
G36*
X855202Y290093D02*
X855202Y290093D01*
X852093Y293202D01*
X852093Y297598D01*
X855202Y300707D01*
X859598Y300707D01*
X862707Y297598D01*
X862707Y293202D01*
X859598Y290093D01*
X855202Y290093D01*
G37*
%LPD*%
%LPC*%
G36*
X1207802Y521693D02*
X1207802Y521693D01*
X1204693Y524802D01*
X1204693Y529198D01*
X1207802Y532307D01*
X1212198Y532307D01*
X1215307Y529198D01*
X1215307Y524802D01*
X1212198Y521693D01*
X1207802Y521693D01*
G37*
%LPD*%
%LPC*%
G36*
X1045228Y971267D02*
X1045228Y971267D01*
X1042119Y974376D01*
X1042119Y978772D01*
X1045228Y981881D01*
X1049624Y981881D01*
X1052733Y978772D01*
X1052733Y974376D01*
X1049624Y971267D01*
X1045228Y971267D01*
G37*
%LPD*%
%LPC*%
G36*
X1087802Y971693D02*
X1087802Y971693D01*
X1084693Y974802D01*
X1084693Y979198D01*
X1087802Y982307D01*
X1092198Y982307D01*
X1095307Y979198D01*
X1095307Y974802D01*
X1092198Y971693D01*
X1087802Y971693D01*
G37*
%LPD*%
%LPC*%
G36*
X1227752Y1159693D02*
X1227752Y1159693D01*
X1224643Y1162802D01*
X1224643Y1167198D01*
X1227752Y1170307D01*
X1232148Y1170307D01*
X1235257Y1167198D01*
X1235257Y1162802D01*
X1232148Y1159693D01*
X1227752Y1159693D01*
G37*
%LPD*%
%LPC*%
G36*
X893802Y989293D02*
X893802Y989293D01*
X890693Y992402D01*
X890693Y996798D01*
X893802Y999907D01*
X898198Y999907D01*
X901307Y996798D01*
X901307Y992402D01*
X898198Y989293D01*
X893802Y989293D01*
G37*
%LPD*%
%LPC*%
G36*
X937802Y989293D02*
X937802Y989293D01*
X934693Y992402D01*
X934693Y996798D01*
X937802Y999907D01*
X942198Y999907D01*
X945307Y996798D01*
X945307Y992402D01*
X942198Y989293D01*
X937802Y989293D01*
G37*
%LPD*%
%LPC*%
G36*
X941202Y1141693D02*
X941202Y1141693D01*
X938093Y1144802D01*
X938093Y1149198D01*
X941202Y1152307D01*
X945598Y1152307D01*
X948707Y1149198D01*
X948707Y1144802D01*
X945598Y1141693D01*
X941202Y1141693D01*
G37*
%LPD*%
%LPC*%
G36*
X1267802Y1051693D02*
X1267802Y1051693D01*
X1264693Y1054802D01*
X1264693Y1059198D01*
X1267802Y1062307D01*
X1272198Y1062307D01*
X1275307Y1059198D01*
X1275307Y1054802D01*
X1272198Y1051693D01*
X1267802Y1051693D01*
G37*
%LPD*%
%LPC*%
G36*
X383606Y1080693D02*
X383606Y1080693D01*
X380497Y1083802D01*
X380497Y1088198D01*
X383606Y1091307D01*
X388002Y1091307D01*
X391111Y1088198D01*
X391111Y1083802D01*
X388002Y1080693D01*
X383606Y1080693D01*
G37*
%LPD*%
%LPC*%
G36*
X893802Y1090893D02*
X893802Y1090893D01*
X890693Y1094002D01*
X890693Y1098398D01*
X893802Y1101507D01*
X898198Y1101507D01*
X901307Y1098398D01*
X901307Y1094002D01*
X898198Y1090893D01*
X893802Y1090893D01*
G37*
%LPD*%
%LPC*%
G36*
X937802Y1090893D02*
X937802Y1090893D01*
X934693Y1094002D01*
X934693Y1098398D01*
X937802Y1101507D01*
X942198Y1101507D01*
X945307Y1098398D01*
X945307Y1094002D01*
X942198Y1090893D01*
X937802Y1090893D01*
G37*
%LPD*%
%LPC*%
G36*
X804402Y467893D02*
X804402Y467893D01*
X801293Y471002D01*
X801293Y475398D01*
X804402Y478507D01*
X808798Y478507D01*
X811907Y475398D01*
X811907Y471002D01*
X808798Y467893D01*
X804402Y467893D01*
G37*
%LPD*%
%LPC*%
G36*
X226802Y464693D02*
X226802Y464693D01*
X223693Y467802D01*
X223693Y472198D01*
X226802Y475307D01*
X231198Y475307D01*
X234307Y472198D01*
X234307Y467802D01*
X231198Y464693D01*
X226802Y464693D01*
G37*
%LPD*%
%LPC*%
G36*
X890402Y1141693D02*
X890402Y1141693D01*
X887293Y1144802D01*
X887293Y1149198D01*
X890402Y1152307D01*
X894798Y1152307D01*
X897907Y1149198D01*
X897907Y1144802D01*
X894798Y1141693D01*
X890402Y1141693D01*
G37*
%LPD*%
%LPC*%
G36*
X285470Y463437D02*
X285470Y463437D01*
X282361Y466546D01*
X282361Y470942D01*
X285470Y474051D01*
X289866Y474051D01*
X292975Y470942D01*
X292975Y466546D01*
X289866Y463437D01*
X285470Y463437D01*
G37*
%LPD*%
%LPC*%
G36*
X890402Y1116293D02*
X890402Y1116293D01*
X887293Y1119402D01*
X887293Y1123798D01*
X890402Y1126907D01*
X894798Y1126907D01*
X897907Y1123798D01*
X897907Y1119402D01*
X894798Y1116293D01*
X890402Y1116293D01*
G37*
%LPD*%
%LPC*%
G36*
X941202Y1116293D02*
X941202Y1116293D01*
X938093Y1119402D01*
X938093Y1123798D01*
X941202Y1126907D01*
X945598Y1126907D01*
X948707Y1123798D01*
X948707Y1119402D01*
X945598Y1116293D01*
X941202Y1116293D01*
G37*
%LPD*%
%LPC*%
G36*
X807802Y442493D02*
X807802Y442493D01*
X804693Y445602D01*
X804693Y449998D01*
X807802Y453107D01*
X812198Y453107D01*
X815307Y449998D01*
X815307Y445602D01*
X812198Y442493D01*
X807802Y442493D01*
G37*
%LPD*%
%LPC*%
G36*
X851802Y442493D02*
X851802Y442493D01*
X848693Y445602D01*
X848693Y449998D01*
X851802Y453107D01*
X856198Y453107D01*
X859307Y449998D01*
X859307Y445602D01*
X856198Y442493D01*
X851802Y442493D01*
G37*
%LPD*%
%LPC*%
G36*
X716802Y438693D02*
X716802Y438693D01*
X713693Y441802D01*
X713693Y446198D01*
X716802Y449307D01*
X721198Y449307D01*
X724307Y446198D01*
X724307Y441802D01*
X721198Y438693D01*
X716802Y438693D01*
G37*
%LPD*%
%LPC*%
G36*
X700376Y435119D02*
X700376Y435119D01*
X697267Y438228D01*
X697267Y442624D01*
X700376Y445733D01*
X704772Y445733D01*
X707881Y442624D01*
X707881Y438228D01*
X704772Y435119D01*
X700376Y435119D01*
G37*
%LPD*%
%LPC*%
G36*
X657802Y434693D02*
X657802Y434693D01*
X654693Y437802D01*
X654693Y442198D01*
X657802Y445307D01*
X662198Y445307D01*
X665307Y442198D01*
X665307Y437802D01*
X662198Y434693D01*
X657802Y434693D01*
G37*
%LPD*%
%LPC*%
G36*
X851802Y315493D02*
X851802Y315493D01*
X848693Y318602D01*
X848693Y322998D01*
X851802Y326107D01*
X856198Y326107D01*
X859307Y322998D01*
X859307Y318602D01*
X856198Y315493D01*
X851802Y315493D01*
G37*
%LPD*%
%LPC*%
G36*
X851802Y417093D02*
X851802Y417093D01*
X848693Y420202D01*
X848693Y424598D01*
X851802Y427707D01*
X856198Y427707D01*
X859307Y424598D01*
X859307Y420202D01*
X856198Y417093D01*
X851802Y417093D01*
G37*
%LPD*%
%LPC*%
G36*
X807802Y417093D02*
X807802Y417093D01*
X804693Y420202D01*
X804693Y424598D01*
X807802Y427707D01*
X812198Y427707D01*
X815307Y424598D01*
X815307Y420202D01*
X812198Y417093D01*
X807802Y417093D01*
G37*
%LPD*%
%LPC*%
G36*
X807802Y315493D02*
X807802Y315493D01*
X804693Y318602D01*
X804693Y322998D01*
X807802Y326107D01*
X812198Y326107D01*
X815307Y322998D01*
X815307Y318602D01*
X812198Y315493D01*
X807802Y315493D01*
G37*
%LPD*%
%LPC*%
G36*
X1096802Y1116693D02*
X1096802Y1116693D01*
X1093693Y1119802D01*
X1093693Y1124198D01*
X1096802Y1127307D01*
X1101198Y1127307D01*
X1104307Y1124198D01*
X1104307Y1119802D01*
X1101198Y1116693D01*
X1096802Y1116693D01*
G37*
%LPD*%
%LPC*%
G36*
X300402Y1119293D02*
X300402Y1119293D01*
X297293Y1122402D01*
X297293Y1126798D01*
X300402Y1129907D01*
X304798Y1129907D01*
X307907Y1126798D01*
X307907Y1122402D01*
X304798Y1119293D01*
X300402Y1119293D01*
G37*
%LPD*%
%LPC*%
G36*
X410802Y1119693D02*
X410802Y1119693D01*
X407693Y1122802D01*
X407693Y1127198D01*
X410802Y1130307D01*
X415198Y1130307D01*
X418307Y1127198D01*
X418307Y1122802D01*
X415198Y1119693D01*
X410802Y1119693D01*
G37*
%LPD*%
%LPC*%
G36*
X477802Y354693D02*
X477802Y354693D01*
X474693Y357802D01*
X474693Y362198D01*
X477802Y365307D01*
X482198Y365307D01*
X485307Y362198D01*
X485307Y357802D01*
X482198Y354693D01*
X477802Y354693D01*
G37*
%LPD*%
%LPC*%
G36*
X1361998Y325693D02*
X1361998Y325693D01*
X1358889Y328802D01*
X1358889Y333198D01*
X1361998Y336307D01*
X1366394Y336307D01*
X1369503Y333198D01*
X1369503Y328802D01*
X1366394Y325693D01*
X1361998Y325693D01*
G37*
%LPD*%
%LPC*%
G36*
X1286232Y1131270D02*
X1286232Y1131270D01*
X1283270Y1134232D01*
X1283270Y1138421D01*
X1286232Y1141383D01*
X1290421Y1141383D01*
X1293383Y1138421D01*
X1293383Y1134232D01*
X1290421Y1131270D01*
X1286232Y1131270D01*
G37*
%LPD*%
%LPC*%
G36*
X763905Y391943D02*
X763905Y391943D01*
X760943Y394905D01*
X760943Y399095D01*
X763905Y402057D01*
X768095Y402057D01*
X771057Y399095D01*
X771057Y394905D01*
X768095Y391943D01*
X763905Y391943D01*
G37*
%LPD*%
%LPC*%
G36*
X1347905Y424943D02*
X1347905Y424943D01*
X1344943Y427905D01*
X1344943Y432095D01*
X1347905Y435057D01*
X1352095Y435057D01*
X1355057Y432095D01*
X1355057Y427905D01*
X1352095Y424943D01*
X1347905Y424943D01*
G37*
%LPD*%
%LPC*%
G36*
X981905Y1107943D02*
X981905Y1107943D01*
X978943Y1110905D01*
X978943Y1115095D01*
X981905Y1118057D01*
X986095Y1118057D01*
X989057Y1115095D01*
X989057Y1110905D01*
X986095Y1107943D01*
X981905Y1107943D01*
G37*
%LPD*%
%LPC*%
G36*
X981905Y1014943D02*
X981905Y1014943D01*
X978943Y1017905D01*
X978943Y1022095D01*
X981905Y1025057D01*
X986095Y1025057D01*
X989057Y1022095D01*
X989057Y1017905D01*
X986095Y1014943D01*
X981905Y1014943D01*
G37*
%LPD*%
%LPC*%
G36*
X763905Y298943D02*
X763905Y298943D01*
X760943Y301905D01*
X760943Y306095D01*
X763905Y309057D01*
X768095Y309057D01*
X771057Y306095D01*
X771057Y301905D01*
X768095Y298943D01*
X763905Y298943D01*
G37*
%LPD*%
%LPC*%
G36*
X526905Y1146943D02*
X526905Y1146943D01*
X523943Y1149905D01*
X523943Y1154095D01*
X526905Y1157057D01*
X531095Y1157057D01*
X534057Y1154095D01*
X534057Y1149905D01*
X531095Y1146943D01*
X526905Y1146943D01*
G37*
%LPD*%
%LPC*%
G36*
X397905Y981943D02*
X397905Y981943D01*
X394943Y984905D01*
X394943Y989095D01*
X397905Y992057D01*
X402095Y992057D01*
X405057Y989095D01*
X405057Y984905D01*
X402095Y981943D01*
X397905Y981943D01*
G37*
%LPD*%
%LPC*%
G36*
X629221Y793943D02*
X629221Y793943D01*
X626259Y796905D01*
X626259Y801095D01*
X629221Y804057D01*
X633411Y804057D01*
X636373Y801095D01*
X636373Y796905D01*
X633411Y793943D01*
X629221Y793943D01*
G37*
%LPD*%
%LPC*%
G36*
X1124905Y574943D02*
X1124905Y574943D01*
X1121943Y577905D01*
X1121943Y582095D01*
X1124905Y585057D01*
X1129095Y585057D01*
X1132057Y582095D01*
X1132057Y577905D01*
X1129095Y574943D01*
X1124905Y574943D01*
G37*
%LPD*%
%LPC*%
G36*
X1144905Y587943D02*
X1144905Y587943D01*
X1141943Y590905D01*
X1141943Y595095D01*
X1144905Y598057D01*
X1149095Y598057D01*
X1152057Y595095D01*
X1152057Y590905D01*
X1149095Y587943D01*
X1144905Y587943D01*
G37*
%LPD*%
%LPC*%
G36*
X1132905Y599943D02*
X1132905Y599943D01*
X1129943Y602905D01*
X1129943Y607095D01*
X1132905Y610057D01*
X1137095Y610057D01*
X1140057Y607095D01*
X1140057Y602905D01*
X1137095Y599943D01*
X1132905Y599943D01*
G37*
%LPD*%
%LPC*%
G36*
X1116589Y612943D02*
X1116589Y612943D01*
X1113627Y615905D01*
X1113627Y620095D01*
X1116589Y623057D01*
X1120779Y623057D01*
X1123741Y620095D01*
X1123741Y615905D01*
X1120779Y612943D01*
X1116589Y612943D01*
G37*
%LPD*%
%LPC*%
G36*
X1111905Y625943D02*
X1111905Y625943D01*
X1108943Y628905D01*
X1108943Y633095D01*
X1111905Y636057D01*
X1116095Y636057D01*
X1119057Y633095D01*
X1119057Y628905D01*
X1116095Y625943D01*
X1111905Y625943D01*
G37*
%LPD*%
%LPC*%
G36*
X1326905Y1196943D02*
X1326905Y1196943D01*
X1323943Y1199905D01*
X1323943Y1204095D01*
X1326905Y1207057D01*
X1331095Y1207057D01*
X1334057Y1204095D01*
X1334057Y1199905D01*
X1331095Y1196943D01*
X1326905Y1196943D01*
G37*
%LPD*%
%LPC*%
G36*
X459579Y275617D02*
X459579Y275617D01*
X456617Y278579D01*
X456617Y282768D01*
X459579Y285730D01*
X463768Y285730D01*
X466730Y282768D01*
X466730Y278579D01*
X463768Y275617D01*
X459579Y275617D01*
G37*
%LPD*%
%LPC*%
G36*
X1104723Y676943D02*
X1104723Y676943D01*
X1101761Y679905D01*
X1101761Y684095D01*
X1104723Y687057D01*
X1108913Y687057D01*
X1111875Y684095D01*
X1111875Y679905D01*
X1108913Y676943D01*
X1104723Y676943D01*
G37*
%LPD*%
%LPC*%
G36*
X1099743Y688943D02*
X1099743Y688943D01*
X1096781Y691905D01*
X1096781Y696095D01*
X1099743Y699057D01*
X1103933Y699057D01*
X1106895Y696095D01*
X1106895Y691905D01*
X1103933Y688943D01*
X1099743Y688943D01*
G37*
%LPD*%
%LPC*%
G36*
X1218905Y259943D02*
X1218905Y259943D01*
X1215943Y262905D01*
X1215943Y267095D01*
X1218905Y270057D01*
X1223095Y270057D01*
X1226057Y267095D01*
X1226057Y262905D01*
X1223095Y259943D01*
X1218905Y259943D01*
G37*
%LPD*%
%LPC*%
G36*
X620905Y831943D02*
X620905Y831943D01*
X617943Y834905D01*
X617943Y839095D01*
X620905Y842057D01*
X625095Y842057D01*
X628057Y839095D01*
X628057Y834905D01*
X625095Y831943D01*
X620905Y831943D01*
G37*
%LPD*%
%LPC*%
G36*
X646067Y717943D02*
X646067Y717943D01*
X643105Y720905D01*
X643105Y725095D01*
X646067Y728057D01*
X650257Y728057D01*
X653219Y725095D01*
X653219Y720905D01*
X650257Y717943D01*
X646067Y717943D01*
G37*
%LPD*%
%LPC*%
G36*
X600905Y818943D02*
X600905Y818943D01*
X597943Y821905D01*
X597943Y826095D01*
X600905Y829057D01*
X605095Y829057D01*
X608057Y826095D01*
X608057Y821905D01*
X605095Y818943D01*
X600905Y818943D01*
G37*
%LPD*%
%LPC*%
G36*
X641087Y729943D02*
X641087Y729943D01*
X638125Y732905D01*
X638125Y737095D01*
X641087Y740057D01*
X645277Y740057D01*
X648239Y737095D01*
X648239Y732905D01*
X645277Y729943D01*
X641087Y729943D01*
G37*
%LPD*%
%LPC*%
G36*
X612905Y806943D02*
X612905Y806943D01*
X609943Y809905D01*
X609943Y814095D01*
X612905Y817057D01*
X617095Y817057D01*
X620057Y814095D01*
X620057Y809905D01*
X617095Y806943D01*
X612905Y806943D01*
G37*
%LPD*%
%LPC*%
G36*
X633905Y780943D02*
X633905Y780943D01*
X630943Y783905D01*
X630943Y788095D01*
X633905Y791057D01*
X638095Y791057D01*
X641057Y788095D01*
X641057Y783905D01*
X638095Y780943D01*
X633905Y780943D01*
G37*
%LPD*%
%LPC*%
G36*
X418905Y209943D02*
X418905Y209943D01*
X415943Y212905D01*
X415943Y217095D01*
X418905Y220057D01*
X423095Y220057D01*
X426057Y217095D01*
X426057Y212905D01*
X423095Y209943D01*
X418905Y209943D01*
G37*
%LPD*%
D10*
X810000Y320800D03*
X700000Y799000D03*
D11*
X631316Y799000D03*
D10*
X854000Y320800D03*
X700000Y786000D03*
D11*
X636000Y786000D03*
D10*
X442552Y851174D03*
X702574Y440426D03*
X432392Y878098D03*
X719000Y444000D03*
D12*
X336284Y1048400D03*
X319672Y522084D03*
D10*
X660000Y240000D03*
X445884Y230000D03*
D12*
X306000Y1073800D03*
X312826Y546468D03*
D10*
X520000Y220000D03*
X432101Y220101D03*
X857400Y295400D03*
X699000Y812000D03*
D11*
X615000Y812000D03*
D10*
X806600Y295400D03*
X700000Y824000D03*
D11*
X603000Y824000D03*
D10*
X806600Y270000D03*
X700000Y837000D03*
D11*
X623000Y837000D03*
D10*
X806600Y473200D03*
X700000Y723000D03*
D11*
X648162Y723000D03*
D10*
X854000Y447800D03*
X699000Y735000D03*
D11*
X643182Y735000D03*
D10*
X810000Y447800D03*
X700000Y748000D03*
X854000Y422400D03*
X700000Y760000D03*
X810000Y422400D03*
X700000Y773000D03*
D13*
X385804Y795804D03*
X737000Y831000D03*
D10*
X385804Y1086000D03*
D11*
X766000Y304000D03*
X766000Y397000D03*
D10*
X364000Y438000D03*
D14*
X360000Y442000D01*
X360000Y450000D01*
D10*
X544000Y353000D03*
D14*
X541000Y350000D01*
X540000Y350000D01*
D10*
X515000Y346000D03*
D14*
X516000Y346000D01*
X520000Y350000D01*
D10*
X558000Y367000D03*
D14*
X558000Y368000D01*
X560000Y370000D01*
D10*
X488000Y386000D03*
D14*
X488000Y388000D01*
X490000Y390000D01*
D10*
X475000Y315000D03*
D14*
X470000Y310000D01*
D10*
X541000Y312000D03*
D14*
X541000Y311000D01*
X540000Y310000D01*
D10*
X554000Y312000D03*
D14*
X552000Y310000D01*
X550000Y310000D01*
D10*
X540000Y228000D03*
D14*
X540000Y230000D01*
D10*
X385000Y220000D03*
D14*
X390000Y220000D01*
D10*
X328382Y418382D03*
D14*
X330000Y420000D01*
D10*
X400000Y680000D03*
X390000Y720000D03*
X440000Y690000D03*
X430000Y780000D03*
X476000Y896000D03*
D14*
X480000Y900000D01*
D10*
X496954Y890000D03*
D14*
X500000Y890000D01*
D10*
X496000Y913000D03*
D14*
X499000Y910000D01*
D10*
X396000Y543000D03*
D14*
X397000Y543000D01*
X400000Y540000D01*
D10*
X222000Y816000D03*
D14*
X220000Y818000D01*
X220000Y820000D01*
D10*
X270189Y829811D03*
D14*
X270000Y830000D01*
D10*
X321342Y910000D03*
D14*
X320000Y910000D01*
D10*
X558000Y528000D03*
D14*
X560000Y530000D01*
D10*
X558000Y453000D03*
D14*
X560000Y451000D01*
X560000Y450000D01*
D10*
X631000Y295000D03*
X735000Y729000D03*
D15*
X739000Y729000D01*
X740000Y730000D01*
D10*
X417000Y582000D03*
D16*
X418000Y582000D01*
X420000Y580000D01*
D10*
X417000Y612000D03*
D16*
X418000Y612000D01*
X420000Y610000D01*
D10*
X601000Y327000D03*
D16*
X600000Y327000D01*
X600000Y330000D01*
D10*
X594000Y423000D03*
D16*
X591000Y420000D01*
X590000Y420000D01*
D11*
X572000Y1174000D03*
X224000Y968000D03*
D10*
X857400Y270000D03*
X373000Y651000D03*
X373000Y752000D03*
D12*
X357772Y369684D03*
D10*
X281572Y1042672D03*
D12*
X350000Y1099200D03*
X421780Y458076D03*
D17*
X353400Y921400D03*
D12*
X401968Y468744D03*
X306000Y1048400D03*
X306000Y1048400D03*
X301000Y528000D03*
D10*
X660000Y440000D03*
X404453Y220453D03*
D11*
X400000Y987000D03*
D18*
X328620Y724000D03*
X510000Y770000D03*
D12*
X489000Y856000D03*
X487312Y725000D03*
D10*
X275000Y648000D03*
D18*
X410000Y940000D03*
D10*
X651000Y295000D03*
X229000Y470000D03*
X735000Y805000D03*
X400000Y740000D03*
D13*
X330000Y680000D03*
D10*
X520050Y252000D03*
X480000Y360000D03*
D11*
X529000Y1152000D03*
D12*
X306000Y1099200D03*
X318943Y505320D03*
D11*
X421000Y215000D03*
X461674Y280674D03*
D10*
X302600Y1124600D03*
X287668Y468744D03*
X540000Y890000D03*
X413000Y1125000D03*
D19*
X610000Y610000D03*
D10*
X940000Y1096200D03*
X1050000Y618000D03*
D11*
X1118684Y618000D03*
D10*
X896000Y1096200D03*
X1050000Y631000D03*
D11*
X1114000Y631000D03*
D10*
X1307448Y565826D03*
X1047426Y976574D03*
X1317608Y538902D03*
X1031000Y973000D03*
D12*
X1413716Y368600D03*
X1430328Y894916D03*
D10*
X1090000Y1177000D03*
X1304116Y1187000D03*
D12*
X1444000Y343200D03*
X1437174Y870532D03*
D10*
X1230000Y1197000D03*
X1317899Y1196899D03*
X892600Y1121600D03*
X1051000Y605000D03*
D11*
X1135000Y605000D03*
D10*
X943400Y1121600D03*
X1050000Y593000D03*
D11*
X1147000Y593000D03*
D10*
X943400Y1147000D03*
X1050000Y580000D03*
D11*
X1127000Y580000D03*
D10*
X943400Y943800D03*
X1050000Y694000D03*
D11*
X1101838Y694000D03*
D10*
X896000Y969200D03*
X1051000Y682000D03*
D11*
X1106818Y682000D03*
D10*
X940000Y969200D03*
X1050000Y669000D03*
X896000Y994600D03*
X1050000Y657000D03*
X940000Y994600D03*
X1050000Y644000D03*
D13*
X1364196Y621196D03*
X1013000Y586000D03*
D10*
X1364196Y331000D03*
D11*
X984000Y1113000D03*
X984000Y1020000D03*
D10*
X1386000Y979000D03*
D14*
X1390000Y975000D01*
X1390000Y967000D01*
D10*
X1206000Y1064000D03*
D14*
X1209000Y1067000D01*
X1210000Y1067000D01*
D10*
X1235000Y1071000D03*
D14*
X1234000Y1071000D01*
X1230000Y1067000D01*
D10*
X1192000Y1050000D03*
D14*
X1192000Y1049000D01*
X1190000Y1047000D01*
D10*
X1262000Y1031000D03*
D14*
X1262000Y1029000D01*
X1260000Y1027000D01*
D10*
X1275000Y1102000D03*
D14*
X1280000Y1107000D01*
D10*
X1209000Y1105000D03*
D14*
X1209000Y1106000D01*
X1210000Y1107000D01*
D10*
X1196000Y1105000D03*
D14*
X1198000Y1107000D01*
X1200000Y1107000D01*
D10*
X1210000Y1189000D03*
D14*
X1210000Y1187000D01*
D10*
X1365000Y1197000D03*
D14*
X1360000Y1197000D01*
D10*
X1421618Y998618D03*
D14*
X1420000Y997000D01*
D10*
X1350000Y737000D03*
X1360000Y697000D03*
X1310000Y727000D03*
X1320000Y637000D03*
X1274000Y521000D03*
D14*
X1270000Y517000D01*
D10*
X1253046Y527000D03*
D14*
X1250000Y527000D01*
D10*
X1254000Y504000D03*
D14*
X1251000Y507000D01*
D10*
X1354000Y874000D03*
D14*
X1353000Y874000D01*
X1350000Y877000D01*
D10*
X1528000Y601000D03*
D14*
X1530000Y599000D01*
X1530000Y597000D01*
D10*
X1479811Y587189D03*
D14*
X1480000Y587000D01*
D10*
X1428658Y507000D03*
D14*
X1430000Y507000D01*
D10*
X1192000Y889000D03*
D14*
X1190000Y887000D01*
D10*
X1192000Y964000D03*
D14*
X1190000Y966000D01*
X1190000Y967000D01*
D10*
X1119000Y1122000D03*
X1015000Y688000D03*
D15*
X1011000Y688000D01*
X1010000Y687000D01*
D10*
X1333000Y835000D03*
D16*
X1332000Y835000D01*
X1330000Y837000D01*
D10*
X1333000Y805000D03*
D16*
X1332000Y805000D01*
X1330000Y807000D01*
D10*
X1149000Y1090000D03*
D16*
X1150000Y1090000D01*
X1150000Y1087000D01*
D10*
X1156000Y994000D03*
D16*
X1159000Y997000D01*
X1160000Y997000D01*
D11*
X1178000Y243000D03*
X1526000Y449000D03*
D10*
X892600Y1147000D03*
X1377000Y766000D03*
X1377000Y665000D03*
D12*
X1392228Y1047316D03*
D10*
X1468428Y374328D03*
D12*
X1400000Y317800D03*
X1328220Y958924D03*
D17*
X1396600Y495600D03*
D12*
X1348032Y948256D03*
X1444000Y368600D03*
X1444000Y368600D03*
X1449000Y889000D03*
D10*
X1090000Y977000D03*
X1345547Y1196547D03*
D11*
X1350000Y430000D03*
D18*
X1421380Y693000D03*
X1240000Y647000D03*
D12*
X1261000Y561000D03*
X1262688Y692000D03*
D10*
X1475000Y769000D03*
D18*
X1340000Y477000D03*
D10*
X1099000Y1122000D03*
X1521000Y947000D03*
X1015000Y612000D03*
X1350000Y677000D03*
D13*
X1420000Y737000D03*
D10*
X1229950Y1165000D03*
X1270000Y1057000D03*
D11*
X1221000Y265000D03*
D12*
X1444000Y317800D03*
X1431057Y911680D03*
D11*
X1329000Y1202000D03*
X1288326Y1136326D03*
D10*
X1447400Y292400D03*
X1462332Y948256D03*
X1210000Y527000D03*
X1337000Y292000D03*
D19*
X1140000Y807000D03*
M02*
