M48
;GenerationSoftware,Autodesk,EAGLE,9.4.2*%
;CreationDate,2019-08-06T19:44:24Z*%
FMAT,2
ICI,OFF
METRIC,TZ,000.000
T12C0.300
T11C0.350
T10C0.400
T9C0.450
T8C0.600
T7C0.650
T6C0.800
T5C1.200
T4C1.580
T3C1.650
T2C2.700
T1C4.200
%
G90
M71
T1
X61000Y61000
X114000Y80700
T2
X151626Y51030
X151576Y71034
X151576Y91030
X23374Y90670
X23424Y70666
X23424Y50670
T3
X100700Y55775
X100700Y71625
X74300Y85925
X74300Y70075
T4
X108920Y29741
X119080Y29741
X91800Y113430
X91800Y93110
X142200Y27970
X142200Y48290
X66080Y111959
X55920Y111959
X32800Y93410
X32800Y113730
X83200Y28270
X83200Y48590
T5
X129026Y93449
X45974Y48251
T6
X20582Y48494
X20582Y45494
X154418Y93206
X154418Y96206
T7
X134000Y47700
X124000Y64700
X142138Y69300
X41000Y94000
X51000Y77000
X32862Y72400
T8
X142000Y73700
X101300Y58600
X136420Y62120
X33000Y68000
X38580Y79580
X73700Y83100
T9
X139660Y49560
X35340Y92140
T10
X144400Y34320
X33628Y104840
X31967Y52208
X30600Y107380
X31283Y54647
X143106Y91168
X144400Y31780
X126269Y69200
X126100Y56100
X144900Y88900
X144400Y36860
X144400Y36860
X134803Y94826
X132822Y95892
X140000Y31780
X139223Y104732
X143717Y87053
X143033Y89492
X141372Y36860
X31894Y50532
X30600Y109920
X48731Y72500
X48900Y85600
X30100Y52800
X30600Y104840
X30600Y104840
X40197Y46874
X42178Y45808
X35000Y109920
X35777Y36968
T11
X105000Y65700
X119600Y110500
X85740Y27000
X37300Y65100
X37300Y75200
X59400Y42300
X28157Y104267
X60100Y32700
X41700Y61200
X70000Y79900
X41700Y58200
X73500Y72900
X63100Y29500
X55800Y45300
X66000Y44000
X40445Y22045
X85400Y32080
X70000Y78600
X38580Y108600
X55800Y52800
X32134Y91000
X27500Y64800
X70000Y77300
X65100Y29500
X22900Y47000
X73500Y80500
X40000Y74000
X81000Y42240
X52005Y25200
X48000Y36000
X44255Y85117
X27019Y82981
X22200Y81600
X70257Y44043
X43239Y87810
X30260Y112460
X28767Y46874
X54000Y89000
X41300Y112500
X70000Y76000
X94000Y109620
X105000Y61800
X71900Y44400
X89600Y109620
X105000Y63100
X54400Y35300
X130745Y56583
X104743Y97657
X131761Y53890
X103100Y97300
X39600Y54300
X49600Y91300
X109000Y117700
X130412Y118700
X36400Y43800
X49695Y89000
X123000Y119700
X131790Y119690
X89260Y112160
X105100Y60500
X51500Y34600
X94340Y112160
X105000Y59300
X66000Y24000
X94340Y114700
X105000Y58000
X44588Y23000
X94340Y94380
X105000Y69400
X55800Y36700
X89600Y96920
X105100Y68200
X48800Y38600
X94000Y96920
X105000Y66900
X89600Y99460
X52000Y22000
X94000Y99460
X105000Y64400
X85400Y42240
X70000Y74800
X136420Y33100
X43210Y22010
X85740Y29540
X138600Y97900
X120600Y106400
X123500Y107100
X119200Y105000
X126200Y103100
X127500Y110200
X120900Y110500
X81000Y32080
X121000Y118900
X136500Y119700
X142162Y99862
X135000Y73700
X136000Y69700
X131000Y72700
X132000Y63700
X127400Y52100
X125305Y52700
X125400Y50400
X135400Y87400
X152800Y60100
X147981Y58719
X142866Y50700
X119200Y88900
X119200Y96400
X111900Y112200
X101500Y68800
X133300Y83500
X133300Y80500
X114900Y109000
X115600Y99400
X69900Y81200
X80660Y29540
X89260Y114700
X137700Y76600
X137700Y66500
X47600Y89600
X146843Y37433
X43000Y78000
X44000Y69000
X81000Y44780
X39000Y72000
X40000Y68000
X32838Y41838
X38500Y22000
X109000Y97700
X134555Y119655
X70000Y82400
X80660Y27000
X69900Y73500
X54000Y22800
X55400Y31200
X147500Y76900
X85400Y44780
X109900Y112200
X152100Y94700
X101500Y61200
X135000Y67700
X70000Y83700
X122995Y116500
X127000Y105700
X80660Y47320
X54100Y31200
X47500Y31500
X70000Y72300
X133700Y29200
X144740Y29240
X146233Y94826
X121000Y52700
T12
X128833Y113633
X132900Y120200
X122100Y26500
X62300Y83700
X64816Y72300
X64318Y73500
X60300Y82400
X135000Y43000
X152600Y44900
X61500Y81200
X117800Y24300
X98400Y102000
X98400Y111300
X57200Y117400
X110682Y68200
X110184Y69400
X112700Y58000
X114700Y59300
X113500Y60500
X111400Y63100
X111868Y61800
X46167Y28067
X42100Y21500
X52900Y115200
X63600Y78600
X76600Y30400
X40000Y98700
X63132Y79900
X76600Y39700
X22400Y96800
M30