G04 EAGLE Gerber RS-274X export*
G75*
%MOMM*%
%FSLAX34Y34*%
%LPD*%
%INSoldermask Bottom*%
%IPPOS*%
%AMOC8*
5,1,8,0,0,1.08239X$1,22.5*%
G01*
%ADD10C,2.903200*%
%ADD11C,1.783200*%
%ADD12C,1.403200*%
%ADD13C,1.003200*%
%ADD14C,1.853200*%
%ADD15R,1.473200X3.203200*%
%ADD16R,1.473200X3.883200*%
%ADD17C,6.203200*%


D10*
X234236Y506700D03*
X234236Y706660D03*
X233736Y906700D03*
X1515764Y910300D03*
X1515764Y710340D03*
X1516264Y510300D03*
D11*
X328000Y934100D03*
X328000Y1137300D03*
X832000Y485900D03*
X832000Y282700D03*
D12*
X459740Y482512D03*
D13*
X205824Y484936D03*
X205824Y454936D03*
D14*
X743000Y700750D03*
X743000Y859250D03*
D15*
X546500Y1145000D03*
X571900Y1145000D03*
D16*
X597300Y1142000D03*
X622700Y1142000D03*
D15*
X648100Y1145000D03*
X673500Y1145000D03*
X673500Y1095000D03*
X648100Y1095000D03*
D16*
X622700Y1098000D03*
X597300Y1098000D03*
D15*
X571900Y1095000D03*
X546500Y1095000D03*
D11*
X559200Y1119590D03*
X660800Y1119590D03*
X1422000Y482900D03*
X1422000Y279700D03*
X918000Y931100D03*
X918000Y1134300D03*
D12*
X1290260Y934488D03*
D13*
X1544176Y932064D03*
X1544176Y962064D03*
D14*
X1007000Y716250D03*
X1007000Y557750D03*
D15*
X1203500Y272000D03*
X1178100Y272000D03*
D16*
X1152700Y275000D03*
X1127300Y275000D03*
D15*
X1101900Y272000D03*
X1076500Y272000D03*
X1076500Y322000D03*
X1101900Y322000D03*
D16*
X1127300Y319000D03*
X1152700Y319000D03*
D15*
X1178100Y322000D03*
X1203500Y322000D03*
D11*
X1190800Y297410D03*
X1089200Y297410D03*
D17*
X610000Y610000D03*
X1140000Y807000D03*
M02*
