G04 EAGLE Gerber RS-274X export*
G75*
%MOMM*%
%FSLAX34Y34*%
%LPD*%
%INSolderpaste Top*%
%IPPOS*%
%AMOC8*
5,1,8,0,0,1.08239X$1,22.5*%
G01*
%ADD10R,3.000000X1.270000*%
%ADD11R,3.680000X1.270000*%
%ADD12C,0.350000*%
%ADD13R,3.700000X3.700000*%
%ADD14R,1.270000X0.635000*%
%ADD15C,0.243678*%
%ADD16R,1.500000X1.950000*%
%ADD17R,1.080000X1.050000*%
%ADD18R,1.780000X0.720000*%
%ADD19R,1.000000X1.100000*%
%ADD20C,0.196759*%
%ADD21R,1.100000X1.000000*%
%ADD22R,0.700000X0.900000*%
%ADD23R,0.600000X0.600000*%
%ADD24R,4.851400X2.082800*%
%ADD25R,0.990600X0.762000*%
%ADD26R,5.500000X1.000000*%
%ADD27R,4.000000X2.600000*%
%ADD28C,0.120000*%
%ADD29R,0.300000X1.000000*%
%ADD30R,2.000000X1.300000*%
%ADD31R,0.800000X0.800000*%
%ADD32R,2.700000X1.200000*%
%ADD33R,0.200000X0.650000*%
%ADD34R,1.400000X1.300000*%
%ADD35R,2.200000X1.050000*%
%ADD36R,1.000000X1.050000*%
%ADD37R,1.500000X1.300000*%


D10*
X353400Y921400D03*
X353400Y946800D03*
D11*
X350000Y972200D03*
X350000Y997600D03*
X350000Y1023000D03*
X350000Y1048400D03*
X350000Y1073800D03*
X350000Y1099200D03*
D10*
X353400Y1124600D03*
X353400Y1150000D03*
X302600Y1150000D03*
X302600Y1124600D03*
D11*
X306000Y1099200D03*
X306000Y1073800D03*
X306000Y1048400D03*
X306000Y1023000D03*
X306000Y997600D03*
X306000Y972200D03*
D10*
X302600Y946800D03*
X302600Y921400D03*
X806600Y498600D03*
X806600Y473200D03*
D11*
X810000Y447800D03*
X810000Y422400D03*
X810000Y397000D03*
X810000Y371600D03*
X810000Y346200D03*
X810000Y320800D03*
D10*
X806600Y295400D03*
X806600Y270000D03*
X857400Y270000D03*
X857400Y295400D03*
D11*
X854000Y320800D03*
X854000Y346200D03*
X854000Y371600D03*
X854000Y397000D03*
X854000Y422400D03*
X854000Y447800D03*
D10*
X857400Y473200D03*
X857400Y498600D03*
D12*
X467954Y349336D02*
X467954Y333836D01*
X464454Y333836D01*
X464454Y349336D01*
X467954Y349336D01*
X467954Y337161D02*
X464454Y337161D01*
X464454Y340486D02*
X467954Y340486D01*
X467954Y343811D02*
X464454Y343811D01*
X464454Y347136D02*
X467954Y347136D01*
X457794Y202036D02*
X457794Y186536D01*
X454294Y186536D01*
X454294Y202036D01*
X457794Y202036D01*
X457794Y189861D02*
X454294Y189861D01*
X454294Y193186D02*
X457794Y193186D01*
X457794Y196511D02*
X454294Y196511D01*
X454294Y199836D02*
X457794Y199836D01*
X447634Y202036D02*
X447634Y186536D01*
X444134Y186536D01*
X444134Y202036D01*
X447634Y202036D01*
X447634Y189861D02*
X444134Y189861D01*
X444134Y193186D02*
X447634Y193186D01*
X447634Y196511D02*
X444134Y196511D01*
X444134Y199836D02*
X447634Y199836D01*
X437474Y202036D02*
X437474Y186536D01*
X433974Y186536D01*
X433974Y202036D01*
X437474Y202036D01*
X437474Y189861D02*
X433974Y189861D01*
X433974Y193186D02*
X437474Y193186D01*
X437474Y196511D02*
X433974Y196511D01*
X433974Y199836D02*
X437474Y199836D01*
X427314Y202036D02*
X427314Y186536D01*
X423814Y186536D01*
X423814Y202036D01*
X427314Y202036D01*
X427314Y189861D02*
X423814Y189861D01*
X423814Y193186D02*
X427314Y193186D01*
X427314Y196511D02*
X423814Y196511D01*
X423814Y199836D02*
X427314Y199836D01*
X417154Y202036D02*
X417154Y186536D01*
X413654Y186536D01*
X413654Y202036D01*
X417154Y202036D01*
X417154Y189861D02*
X413654Y189861D01*
X413654Y193186D02*
X417154Y193186D01*
X417154Y196511D02*
X413654Y196511D01*
X413654Y199836D02*
X417154Y199836D01*
X406994Y202036D02*
X406994Y186536D01*
X403494Y186536D01*
X403494Y202036D01*
X406994Y202036D01*
X406994Y189861D02*
X403494Y189861D01*
X403494Y193186D02*
X406994Y193186D01*
X406994Y196511D02*
X403494Y196511D01*
X403494Y199836D02*
X406994Y199836D01*
X396834Y202036D02*
X396834Y186536D01*
X393334Y186536D01*
X393334Y202036D01*
X396834Y202036D01*
X396834Y189861D02*
X393334Y189861D01*
X393334Y193186D02*
X396834Y193186D01*
X396834Y196511D02*
X393334Y196511D01*
X393334Y199836D02*
X396834Y199836D01*
X386674Y202036D02*
X386674Y186536D01*
X383174Y186536D01*
X383174Y202036D01*
X386674Y202036D01*
X386674Y189861D02*
X383174Y189861D01*
X383174Y193186D02*
X386674Y193186D01*
X386674Y196511D02*
X383174Y196511D01*
X383174Y199836D02*
X386674Y199836D01*
X376514Y202036D02*
X376514Y186536D01*
X373014Y186536D01*
X373014Y202036D01*
X376514Y202036D01*
X376514Y189861D02*
X373014Y189861D01*
X373014Y193186D02*
X376514Y193186D01*
X376514Y196511D02*
X373014Y196511D01*
X373014Y199836D02*
X376514Y199836D01*
X366354Y202036D02*
X366354Y186536D01*
X362854Y186536D01*
X362854Y202036D01*
X366354Y202036D01*
X366354Y189861D02*
X362854Y189861D01*
X362854Y193186D02*
X366354Y193186D01*
X366354Y196511D02*
X362854Y196511D01*
X362854Y199836D02*
X366354Y199836D01*
X457794Y333836D02*
X457794Y349336D01*
X457794Y333836D02*
X454294Y333836D01*
X454294Y349336D01*
X457794Y349336D01*
X457794Y337161D02*
X454294Y337161D01*
X454294Y340486D02*
X457794Y340486D01*
X457794Y343811D02*
X454294Y343811D01*
X454294Y347136D02*
X457794Y347136D01*
X447634Y349336D02*
X447634Y333836D01*
X444134Y333836D01*
X444134Y349336D01*
X447634Y349336D01*
X447634Y337161D02*
X444134Y337161D01*
X444134Y340486D02*
X447634Y340486D01*
X447634Y343811D02*
X444134Y343811D01*
X444134Y347136D02*
X447634Y347136D01*
X437474Y349336D02*
X437474Y333836D01*
X433974Y333836D01*
X433974Y349336D01*
X437474Y349336D01*
X437474Y337161D02*
X433974Y337161D01*
X433974Y340486D02*
X437474Y340486D01*
X437474Y343811D02*
X433974Y343811D01*
X433974Y347136D02*
X437474Y347136D01*
X396834Y349336D02*
X396834Y333836D01*
X393334Y333836D01*
X393334Y349336D01*
X396834Y349336D01*
X396834Y337161D02*
X393334Y337161D01*
X393334Y340486D02*
X396834Y340486D01*
X396834Y343811D02*
X393334Y343811D01*
X393334Y347136D02*
X396834Y347136D01*
X376514Y349336D02*
X376514Y333836D01*
X373014Y333836D01*
X373014Y349336D01*
X376514Y349336D01*
X376514Y337161D02*
X373014Y337161D01*
X373014Y340486D02*
X376514Y340486D01*
X376514Y343811D02*
X373014Y343811D01*
X373014Y347136D02*
X376514Y347136D01*
X366354Y349336D02*
X366354Y333836D01*
X362854Y333836D01*
X362854Y349336D01*
X366354Y349336D01*
X366354Y337161D02*
X362854Y337161D01*
X362854Y340486D02*
X366354Y340486D01*
X366354Y343811D02*
X362854Y343811D01*
X362854Y347136D02*
X366354Y347136D01*
X356194Y349336D02*
X356194Y333836D01*
X352694Y333836D01*
X352694Y349336D01*
X356194Y349336D01*
X356194Y337161D02*
X352694Y337161D01*
X352694Y340486D02*
X356194Y340486D01*
X356194Y343811D02*
X352694Y343811D01*
X352694Y347136D02*
X356194Y347136D01*
X346034Y349336D02*
X346034Y333836D01*
X342534Y333836D01*
X342534Y349336D01*
X346034Y349336D01*
X346034Y337161D02*
X342534Y337161D01*
X342534Y340486D02*
X346034Y340486D01*
X346034Y343811D02*
X342534Y343811D01*
X342534Y347136D02*
X346034Y347136D01*
X485154Y215036D02*
X500654Y215036D01*
X500654Y211536D01*
X485154Y211536D01*
X485154Y215036D01*
X485154Y214861D02*
X500654Y214861D01*
X500654Y245516D02*
X485154Y245516D01*
X500654Y245516D02*
X500654Y242016D01*
X485154Y242016D01*
X485154Y245516D01*
X485154Y245341D02*
X500654Y245341D01*
X500654Y255676D02*
X485154Y255676D01*
X500654Y255676D02*
X500654Y252176D01*
X485154Y252176D01*
X485154Y255676D01*
X485154Y255501D02*
X500654Y255501D01*
X500654Y265836D02*
X485154Y265836D01*
X500654Y265836D02*
X500654Y262336D01*
X485154Y262336D01*
X485154Y265836D01*
X485154Y265661D02*
X500654Y265661D01*
X500654Y275996D02*
X485154Y275996D01*
X500654Y275996D02*
X500654Y272496D01*
X485154Y272496D01*
X485154Y275996D01*
X485154Y275821D02*
X500654Y275821D01*
X500654Y286156D02*
X485154Y286156D01*
X500654Y286156D02*
X500654Y282656D01*
X485154Y282656D01*
X485154Y286156D01*
X485154Y285981D02*
X500654Y285981D01*
X500654Y296316D02*
X485154Y296316D01*
X500654Y296316D02*
X500654Y292816D01*
X485154Y292816D01*
X485154Y296316D01*
X485154Y296141D02*
X500654Y296141D01*
X500654Y306476D02*
X485154Y306476D01*
X500654Y306476D02*
X500654Y302976D01*
X485154Y302976D01*
X485154Y306476D01*
X485154Y306301D02*
X500654Y306301D01*
X500654Y316636D02*
X485154Y316636D01*
X500654Y316636D02*
X500654Y313136D01*
X485154Y313136D01*
X485154Y316636D01*
X485154Y316461D02*
X500654Y316461D01*
D13*
X430204Y263086D03*
D14*
X541740Y423012D03*
X541740Y438012D03*
X541740Y453012D03*
X541740Y468012D03*
X541740Y483012D03*
X541740Y498012D03*
X541740Y513012D03*
X541740Y528012D03*
X541740Y543012D03*
X541740Y558012D03*
X381740Y558012D03*
X381740Y543012D03*
X381740Y528012D03*
X381740Y513012D03*
X381740Y498012D03*
X381740Y483012D03*
X381740Y468012D03*
X381740Y453012D03*
X381740Y438012D03*
X381740Y423012D03*
D15*
X497423Y393756D02*
X507605Y393756D01*
X497423Y393756D02*
X497423Y397412D01*
X507605Y397412D01*
X507605Y393756D01*
X507605Y396071D02*
X497423Y396071D01*
X497423Y384256D02*
X507605Y384256D01*
X497423Y384256D02*
X497423Y387912D01*
X507605Y387912D01*
X507605Y384256D01*
X507605Y386571D02*
X497423Y386571D01*
X497423Y374756D02*
X507605Y374756D01*
X497423Y374756D02*
X497423Y378412D01*
X507605Y378412D01*
X507605Y374756D01*
X507605Y377071D02*
X497423Y377071D01*
X520923Y374756D02*
X531105Y374756D01*
X520923Y374756D02*
X520923Y378412D01*
X531105Y378412D01*
X531105Y374756D01*
X531105Y377071D02*
X520923Y377071D01*
X520923Y393756D02*
X531105Y393756D01*
X520923Y393756D02*
X520923Y397412D01*
X531105Y397412D01*
X531105Y393756D01*
X531105Y396071D02*
X520923Y396071D01*
X532232Y246277D02*
X532232Y236095D01*
X528576Y236095D01*
X528576Y246277D01*
X532232Y246277D01*
X532232Y238410D02*
X528576Y238410D01*
X528576Y240725D02*
X532232Y240725D01*
X532232Y243040D02*
X528576Y243040D01*
X528576Y245355D02*
X532232Y245355D01*
X541732Y246277D02*
X541732Y236095D01*
X538076Y236095D01*
X538076Y246277D01*
X541732Y246277D01*
X541732Y238410D02*
X538076Y238410D01*
X538076Y240725D02*
X541732Y240725D01*
X541732Y243040D02*
X538076Y243040D01*
X538076Y245355D02*
X541732Y245355D01*
X551232Y246277D02*
X551232Y236095D01*
X547576Y236095D01*
X547576Y246277D01*
X551232Y246277D01*
X551232Y238410D02*
X547576Y238410D01*
X547576Y240725D02*
X551232Y240725D01*
X551232Y243040D02*
X547576Y243040D01*
X547576Y245355D02*
X551232Y245355D01*
X551232Y259595D02*
X551232Y269777D01*
X551232Y259595D02*
X547576Y259595D01*
X547576Y269777D01*
X551232Y269777D01*
X551232Y261910D02*
X547576Y261910D01*
X547576Y264225D02*
X551232Y264225D01*
X551232Y266540D02*
X547576Y266540D01*
X547576Y268855D02*
X551232Y268855D01*
X532232Y269777D02*
X532232Y259595D01*
X528576Y259595D01*
X528576Y269777D01*
X532232Y269777D01*
X532232Y261910D02*
X528576Y261910D01*
X528576Y264225D02*
X532232Y264225D01*
X532232Y266540D02*
X528576Y266540D01*
X528576Y268855D02*
X532232Y268855D01*
D16*
X525904Y284186D03*
X525904Y311686D03*
X543264Y395834D03*
X543264Y368334D03*
D17*
X553904Y280186D03*
X553904Y297686D03*
X526264Y362834D03*
X526264Y345334D03*
X540904Y280186D03*
X540904Y297686D03*
X558264Y395834D03*
X558264Y378334D03*
D18*
X466652Y832250D03*
X415788Y832250D03*
X466652Y844950D03*
X466652Y857650D03*
X415788Y844950D03*
X415788Y857650D03*
X466652Y870350D03*
X415788Y870350D03*
D19*
X517420Y795810D03*
X517420Y812810D03*
X481860Y795810D03*
X481860Y812810D03*
D20*
X488825Y823725D02*
X488825Y835875D01*
X488825Y823725D02*
X485875Y823725D01*
X485875Y835875D01*
X488825Y835875D01*
X488825Y825595D02*
X485875Y825595D01*
X485875Y827465D02*
X488825Y827465D01*
X488825Y829335D02*
X485875Y829335D01*
X485875Y831205D02*
X488825Y831205D01*
X488825Y833075D02*
X485875Y833075D01*
X485875Y834945D02*
X488825Y834945D01*
X495325Y835875D02*
X495325Y823725D01*
X492375Y823725D01*
X492375Y835875D01*
X495325Y835875D01*
X495325Y825595D02*
X492375Y825595D01*
X492375Y827465D02*
X495325Y827465D01*
X495325Y829335D02*
X492375Y829335D01*
X492375Y831205D02*
X495325Y831205D01*
X495325Y833075D02*
X492375Y833075D01*
X492375Y834945D02*
X495325Y834945D01*
X501825Y835875D02*
X501825Y823725D01*
X498875Y823725D01*
X498875Y835875D01*
X501825Y835875D01*
X501825Y825595D02*
X498875Y825595D01*
X498875Y827465D02*
X501825Y827465D01*
X501825Y829335D02*
X498875Y829335D01*
X498875Y831205D02*
X501825Y831205D01*
X501825Y833075D02*
X498875Y833075D01*
X498875Y834945D02*
X501825Y834945D01*
X508325Y835875D02*
X508325Y823725D01*
X505375Y823725D01*
X505375Y835875D01*
X508325Y835875D01*
X508325Y825595D02*
X505375Y825595D01*
X505375Y827465D02*
X508325Y827465D01*
X508325Y829335D02*
X505375Y829335D01*
X505375Y831205D02*
X508325Y831205D01*
X508325Y833075D02*
X505375Y833075D01*
X505375Y834945D02*
X508325Y834945D01*
X508325Y866725D02*
X508325Y878875D01*
X508325Y866725D02*
X505375Y866725D01*
X505375Y878875D01*
X508325Y878875D01*
X508325Y868595D02*
X505375Y868595D01*
X505375Y870465D02*
X508325Y870465D01*
X508325Y872335D02*
X505375Y872335D01*
X505375Y874205D02*
X508325Y874205D01*
X508325Y876075D02*
X505375Y876075D01*
X505375Y877945D02*
X508325Y877945D01*
X501825Y878875D02*
X501825Y866725D01*
X498875Y866725D01*
X498875Y878875D01*
X501825Y878875D01*
X501825Y868595D02*
X498875Y868595D01*
X498875Y870465D02*
X501825Y870465D01*
X501825Y872335D02*
X498875Y872335D01*
X498875Y874205D02*
X501825Y874205D01*
X501825Y876075D02*
X498875Y876075D01*
X498875Y877945D02*
X501825Y877945D01*
X495325Y878875D02*
X495325Y866725D01*
X492375Y866725D01*
X492375Y878875D01*
X495325Y878875D01*
X495325Y868595D02*
X492375Y868595D01*
X492375Y870465D02*
X495325Y870465D01*
X495325Y872335D02*
X492375Y872335D01*
X492375Y874205D02*
X495325Y874205D01*
X495325Y876075D02*
X492375Y876075D01*
X492375Y877945D02*
X495325Y877945D01*
X488825Y878875D02*
X488825Y866725D01*
X485875Y866725D01*
X485875Y878875D01*
X488825Y878875D01*
X488825Y868595D02*
X485875Y868595D01*
X485875Y870465D02*
X488825Y870465D01*
X488825Y872335D02*
X485875Y872335D01*
X485875Y874205D02*
X488825Y874205D01*
X488825Y876075D02*
X485875Y876075D01*
X485875Y877945D02*
X488825Y877945D01*
D19*
X507260Y896140D03*
X507260Y913140D03*
X415820Y812810D03*
X415820Y795810D03*
X410740Y896140D03*
X410740Y913140D03*
X465350Y913140D03*
X465350Y896140D03*
D21*
X446690Y935120D03*
X463690Y935120D03*
D15*
X420333Y728192D02*
X410151Y728192D01*
X410151Y731848D01*
X420333Y731848D01*
X420333Y728192D01*
X420333Y730507D02*
X410151Y730507D01*
X410151Y718692D02*
X420333Y718692D01*
X410151Y718692D02*
X410151Y722348D01*
X420333Y722348D01*
X420333Y718692D01*
X420333Y721007D02*
X410151Y721007D01*
X410151Y709192D02*
X420333Y709192D01*
X410151Y709192D02*
X410151Y712848D01*
X420333Y712848D01*
X420333Y709192D01*
X420333Y711507D02*
X410151Y711507D01*
X433651Y709192D02*
X443833Y709192D01*
X433651Y709192D02*
X433651Y712848D01*
X443833Y712848D01*
X443833Y709192D01*
X443833Y711507D02*
X433651Y711507D01*
X433651Y728192D02*
X443833Y728192D01*
X433651Y728192D02*
X433651Y731848D01*
X443833Y731848D01*
X443833Y728192D01*
X443833Y730507D02*
X433651Y730507D01*
D16*
X455016Y738594D03*
X455016Y766094D03*
D17*
X454636Y710846D03*
X454636Y693346D03*
X471364Y734578D03*
X471364Y752078D03*
D22*
X205824Y499936D03*
X205824Y439936D03*
D23*
X219374Y469936D03*
X219374Y479936D03*
X219374Y459936D03*
D19*
X400184Y691060D03*
X400184Y708060D03*
D24*
X321167Y625798D03*
X321167Y650690D03*
D25*
X357743Y631894D03*
X357743Y619194D03*
X357743Y644594D03*
X357743Y657294D03*
D24*
X321167Y752186D03*
X321167Y777078D03*
D25*
X357743Y758282D03*
X357743Y745582D03*
X357743Y770982D03*
X357743Y783682D03*
D26*
X260000Y816260D03*
X260000Y796260D03*
D27*
X237500Y840260D03*
X237500Y772260D03*
D26*
X260000Y620000D03*
X260000Y600000D03*
D27*
X237500Y644000D03*
X237500Y576000D03*
D28*
X657648Y305416D02*
X659448Y305416D01*
X657648Y305416D02*
X657648Y314216D01*
X659448Y314216D01*
X659448Y305416D01*
X659448Y306556D02*
X657648Y306556D01*
X657648Y307696D02*
X659448Y307696D01*
X659448Y308836D02*
X657648Y308836D01*
X657648Y309976D02*
X659448Y309976D01*
X659448Y311116D02*
X657648Y311116D01*
X657648Y312256D02*
X659448Y312256D01*
X659448Y313396D02*
X657648Y313396D01*
X662648Y305416D02*
X664448Y305416D01*
X662648Y305416D02*
X662648Y314216D01*
X664448Y314216D01*
X664448Y305416D01*
X664448Y306556D02*
X662648Y306556D01*
X662648Y307696D02*
X664448Y307696D01*
X664448Y308836D02*
X662648Y308836D01*
X662648Y309976D02*
X664448Y309976D01*
X664448Y311116D02*
X662648Y311116D01*
X662648Y312256D02*
X664448Y312256D01*
X664448Y313396D02*
X662648Y313396D01*
X654448Y305416D02*
X652648Y305416D01*
X652648Y314216D01*
X654448Y314216D01*
X654448Y305416D01*
X654448Y306556D02*
X652648Y306556D01*
X652648Y307696D02*
X654448Y307696D01*
X654448Y308836D02*
X652648Y308836D01*
X652648Y309976D02*
X654448Y309976D01*
X654448Y311116D02*
X652648Y311116D01*
X652648Y312256D02*
X654448Y312256D01*
X654448Y313396D02*
X652648Y313396D01*
X649448Y305416D02*
X647648Y305416D01*
X647648Y314216D01*
X649448Y314216D01*
X649448Y305416D01*
X649448Y306556D02*
X647648Y306556D01*
X647648Y307696D02*
X649448Y307696D01*
X649448Y308836D02*
X647648Y308836D01*
X647648Y309976D02*
X649448Y309976D01*
X649448Y311116D02*
X647648Y311116D01*
X647648Y312256D02*
X649448Y312256D01*
X649448Y313396D02*
X647648Y313396D01*
X644448Y305416D02*
X642648Y305416D01*
X642648Y314216D01*
X644448Y314216D01*
X644448Y305416D01*
X644448Y306556D02*
X642648Y306556D01*
X642648Y307696D02*
X644448Y307696D01*
X644448Y308836D02*
X642648Y308836D01*
X642648Y309976D02*
X644448Y309976D01*
X644448Y311116D02*
X642648Y311116D01*
X642648Y312256D02*
X644448Y312256D01*
X644448Y313396D02*
X642648Y313396D01*
X639448Y305416D02*
X637648Y305416D01*
X637648Y314216D01*
X639448Y314216D01*
X639448Y305416D01*
X639448Y306556D02*
X637648Y306556D01*
X637648Y307696D02*
X639448Y307696D01*
X639448Y308836D02*
X637648Y308836D01*
X637648Y309976D02*
X639448Y309976D01*
X639448Y311116D02*
X637648Y311116D01*
X637648Y312256D02*
X639448Y312256D01*
X639448Y313396D02*
X637648Y313396D01*
X634448Y305416D02*
X632648Y305416D01*
X632648Y314216D01*
X634448Y314216D01*
X634448Y305416D01*
X634448Y306556D02*
X632648Y306556D01*
X632648Y307696D02*
X634448Y307696D01*
X634448Y308836D02*
X632648Y308836D01*
X632648Y309976D02*
X634448Y309976D01*
X634448Y311116D02*
X632648Y311116D01*
X632648Y312256D02*
X634448Y312256D01*
X634448Y313396D02*
X632648Y313396D01*
X629448Y305416D02*
X627648Y305416D01*
X627648Y314216D01*
X629448Y314216D01*
X629448Y305416D01*
X629448Y306556D02*
X627648Y306556D01*
X627648Y307696D02*
X629448Y307696D01*
X629448Y308836D02*
X627648Y308836D01*
X627648Y309976D02*
X629448Y309976D01*
X629448Y311116D02*
X627648Y311116D01*
X627648Y312256D02*
X629448Y312256D01*
X629448Y313396D02*
X627648Y313396D01*
D29*
X623548Y309816D03*
D28*
X667648Y305416D02*
X669448Y305416D01*
X667648Y305416D02*
X667648Y314216D01*
X669448Y314216D01*
X669448Y305416D01*
X669448Y306556D02*
X667648Y306556D01*
X667648Y307696D02*
X669448Y307696D01*
X669448Y308836D02*
X667648Y308836D01*
X667648Y309976D02*
X669448Y309976D01*
X669448Y311116D02*
X667648Y311116D01*
X667648Y312256D02*
X669448Y312256D01*
X669448Y313396D02*
X667648Y313396D01*
X672648Y305416D02*
X674448Y305416D01*
X672648Y305416D02*
X672648Y314216D01*
X674448Y314216D01*
X674448Y305416D01*
X674448Y306556D02*
X672648Y306556D01*
X672648Y307696D02*
X674448Y307696D01*
X674448Y308836D02*
X672648Y308836D01*
X672648Y309976D02*
X674448Y309976D01*
X674448Y311116D02*
X672648Y311116D01*
X672648Y312256D02*
X674448Y312256D01*
X674448Y313396D02*
X672648Y313396D01*
X677648Y305416D02*
X679448Y305416D01*
X677648Y305416D02*
X677648Y314216D01*
X679448Y314216D01*
X679448Y305416D01*
X679448Y306556D02*
X677648Y306556D01*
X677648Y307696D02*
X679448Y307696D01*
X679448Y308836D02*
X677648Y308836D01*
X677648Y309976D02*
X679448Y309976D01*
X679448Y311116D02*
X677648Y311116D01*
X677648Y312256D02*
X679448Y312256D01*
X679448Y313396D02*
X677648Y313396D01*
X682648Y305416D02*
X684448Y305416D01*
X682648Y305416D02*
X682648Y314216D01*
X684448Y314216D01*
X684448Y305416D01*
X684448Y306556D02*
X682648Y306556D01*
X682648Y307696D02*
X684448Y307696D01*
X684448Y308836D02*
X682648Y308836D01*
X682648Y309976D02*
X684448Y309976D01*
X684448Y311116D02*
X682648Y311116D01*
X682648Y312256D02*
X684448Y312256D01*
X684448Y313396D02*
X682648Y313396D01*
X687648Y305416D02*
X689448Y305416D01*
X687648Y305416D02*
X687648Y314216D01*
X689448Y314216D01*
X689448Y305416D01*
X689448Y306556D02*
X687648Y306556D01*
X687648Y307696D02*
X689448Y307696D01*
X689448Y308836D02*
X687648Y308836D01*
X687648Y309976D02*
X689448Y309976D01*
X689448Y311116D02*
X687648Y311116D01*
X687648Y312256D02*
X689448Y312256D01*
X689448Y313396D02*
X687648Y313396D01*
X692648Y305416D02*
X694448Y305416D01*
X692648Y305416D02*
X692648Y314216D01*
X694448Y314216D01*
X694448Y305416D01*
X694448Y306556D02*
X692648Y306556D01*
X692648Y307696D02*
X694448Y307696D01*
X694448Y308836D02*
X692648Y308836D01*
X692648Y309976D02*
X694448Y309976D01*
X694448Y311116D02*
X692648Y311116D01*
X692648Y312256D02*
X694448Y312256D01*
X694448Y313396D02*
X692648Y313396D01*
X697648Y305416D02*
X699448Y305416D01*
X697648Y305416D02*
X697648Y314216D01*
X699448Y314216D01*
X699448Y305416D01*
X699448Y306556D02*
X697648Y306556D01*
X697648Y307696D02*
X699448Y307696D01*
X699448Y308836D02*
X697648Y308836D01*
X697648Y309976D02*
X699448Y309976D01*
X699448Y311116D02*
X697648Y311116D01*
X697648Y312256D02*
X699448Y312256D01*
X699448Y313396D02*
X697648Y313396D01*
D30*
X721548Y282816D03*
X600548Y282816D03*
D28*
X657648Y407524D02*
X659448Y407524D01*
X657648Y407524D02*
X657648Y416324D01*
X659448Y416324D01*
X659448Y407524D01*
X659448Y408664D02*
X657648Y408664D01*
X657648Y409804D02*
X659448Y409804D01*
X659448Y410944D02*
X657648Y410944D01*
X657648Y412084D02*
X659448Y412084D01*
X659448Y413224D02*
X657648Y413224D01*
X657648Y414364D02*
X659448Y414364D01*
X659448Y415504D02*
X657648Y415504D01*
X662648Y407524D02*
X664448Y407524D01*
X662648Y407524D02*
X662648Y416324D01*
X664448Y416324D01*
X664448Y407524D01*
X664448Y408664D02*
X662648Y408664D01*
X662648Y409804D02*
X664448Y409804D01*
X664448Y410944D02*
X662648Y410944D01*
X662648Y412084D02*
X664448Y412084D01*
X664448Y413224D02*
X662648Y413224D01*
X662648Y414364D02*
X664448Y414364D01*
X664448Y415504D02*
X662648Y415504D01*
X654448Y407524D02*
X652648Y407524D01*
X652648Y416324D01*
X654448Y416324D01*
X654448Y407524D01*
X654448Y408664D02*
X652648Y408664D01*
X652648Y409804D02*
X654448Y409804D01*
X654448Y410944D02*
X652648Y410944D01*
X652648Y412084D02*
X654448Y412084D01*
X654448Y413224D02*
X652648Y413224D01*
X652648Y414364D02*
X654448Y414364D01*
X654448Y415504D02*
X652648Y415504D01*
X649448Y407524D02*
X647648Y407524D01*
X647648Y416324D01*
X649448Y416324D01*
X649448Y407524D01*
X649448Y408664D02*
X647648Y408664D01*
X647648Y409804D02*
X649448Y409804D01*
X649448Y410944D02*
X647648Y410944D01*
X647648Y412084D02*
X649448Y412084D01*
X649448Y413224D02*
X647648Y413224D01*
X647648Y414364D02*
X649448Y414364D01*
X649448Y415504D02*
X647648Y415504D01*
X644448Y407524D02*
X642648Y407524D01*
X642648Y416324D01*
X644448Y416324D01*
X644448Y407524D01*
X644448Y408664D02*
X642648Y408664D01*
X642648Y409804D02*
X644448Y409804D01*
X644448Y410944D02*
X642648Y410944D01*
X642648Y412084D02*
X644448Y412084D01*
X644448Y413224D02*
X642648Y413224D01*
X642648Y414364D02*
X644448Y414364D01*
X644448Y415504D02*
X642648Y415504D01*
X639448Y407524D02*
X637648Y407524D01*
X637648Y416324D01*
X639448Y416324D01*
X639448Y407524D01*
X639448Y408664D02*
X637648Y408664D01*
X637648Y409804D02*
X639448Y409804D01*
X639448Y410944D02*
X637648Y410944D01*
X637648Y412084D02*
X639448Y412084D01*
X639448Y413224D02*
X637648Y413224D01*
X637648Y414364D02*
X639448Y414364D01*
X639448Y415504D02*
X637648Y415504D01*
X634448Y407524D02*
X632648Y407524D01*
X632648Y416324D01*
X634448Y416324D01*
X634448Y407524D01*
X634448Y408664D02*
X632648Y408664D01*
X632648Y409804D02*
X634448Y409804D01*
X634448Y410944D02*
X632648Y410944D01*
X632648Y412084D02*
X634448Y412084D01*
X634448Y413224D02*
X632648Y413224D01*
X632648Y414364D02*
X634448Y414364D01*
X634448Y415504D02*
X632648Y415504D01*
X629448Y407524D02*
X627648Y407524D01*
X627648Y416324D01*
X629448Y416324D01*
X629448Y407524D01*
X629448Y408664D02*
X627648Y408664D01*
X627648Y409804D02*
X629448Y409804D01*
X629448Y410944D02*
X627648Y410944D01*
X627648Y412084D02*
X629448Y412084D01*
X629448Y413224D02*
X627648Y413224D01*
X627648Y414364D02*
X629448Y414364D01*
X629448Y415504D02*
X627648Y415504D01*
D29*
X623548Y411924D03*
D28*
X667648Y407524D02*
X669448Y407524D01*
X667648Y407524D02*
X667648Y416324D01*
X669448Y416324D01*
X669448Y407524D01*
X669448Y408664D02*
X667648Y408664D01*
X667648Y409804D02*
X669448Y409804D01*
X669448Y410944D02*
X667648Y410944D01*
X667648Y412084D02*
X669448Y412084D01*
X669448Y413224D02*
X667648Y413224D01*
X667648Y414364D02*
X669448Y414364D01*
X669448Y415504D02*
X667648Y415504D01*
X672648Y407524D02*
X674448Y407524D01*
X672648Y407524D02*
X672648Y416324D01*
X674448Y416324D01*
X674448Y407524D01*
X674448Y408664D02*
X672648Y408664D01*
X672648Y409804D02*
X674448Y409804D01*
X674448Y410944D02*
X672648Y410944D01*
X672648Y412084D02*
X674448Y412084D01*
X674448Y413224D02*
X672648Y413224D01*
X672648Y414364D02*
X674448Y414364D01*
X674448Y415504D02*
X672648Y415504D01*
X677648Y407524D02*
X679448Y407524D01*
X677648Y407524D02*
X677648Y416324D01*
X679448Y416324D01*
X679448Y407524D01*
X679448Y408664D02*
X677648Y408664D01*
X677648Y409804D02*
X679448Y409804D01*
X679448Y410944D02*
X677648Y410944D01*
X677648Y412084D02*
X679448Y412084D01*
X679448Y413224D02*
X677648Y413224D01*
X677648Y414364D02*
X679448Y414364D01*
X679448Y415504D02*
X677648Y415504D01*
X682648Y407524D02*
X684448Y407524D01*
X682648Y407524D02*
X682648Y416324D01*
X684448Y416324D01*
X684448Y407524D01*
X684448Y408664D02*
X682648Y408664D01*
X682648Y409804D02*
X684448Y409804D01*
X684448Y410944D02*
X682648Y410944D01*
X682648Y412084D02*
X684448Y412084D01*
X684448Y413224D02*
X682648Y413224D01*
X682648Y414364D02*
X684448Y414364D01*
X684448Y415504D02*
X682648Y415504D01*
X687648Y407524D02*
X689448Y407524D01*
X687648Y407524D02*
X687648Y416324D01*
X689448Y416324D01*
X689448Y407524D01*
X689448Y408664D02*
X687648Y408664D01*
X687648Y409804D02*
X689448Y409804D01*
X689448Y410944D02*
X687648Y410944D01*
X687648Y412084D02*
X689448Y412084D01*
X689448Y413224D02*
X687648Y413224D01*
X687648Y414364D02*
X689448Y414364D01*
X689448Y415504D02*
X687648Y415504D01*
X692648Y407524D02*
X694448Y407524D01*
X692648Y407524D02*
X692648Y416324D01*
X694448Y416324D01*
X694448Y407524D01*
X694448Y408664D02*
X692648Y408664D01*
X692648Y409804D02*
X694448Y409804D01*
X694448Y410944D02*
X692648Y410944D01*
X692648Y412084D02*
X694448Y412084D01*
X694448Y413224D02*
X692648Y413224D01*
X692648Y414364D02*
X694448Y414364D01*
X694448Y415504D02*
X692648Y415504D01*
X697648Y407524D02*
X699448Y407524D01*
X697648Y407524D02*
X697648Y416324D01*
X699448Y416324D01*
X699448Y407524D01*
X699448Y408664D02*
X697648Y408664D01*
X697648Y409804D02*
X699448Y409804D01*
X699448Y410944D02*
X697648Y410944D01*
X697648Y412084D02*
X699448Y412084D01*
X699448Y413224D02*
X697648Y413224D01*
X697648Y414364D02*
X699448Y414364D01*
X699448Y415504D02*
X697648Y415504D01*
D30*
X721548Y384924D03*
X600548Y384924D03*
D31*
X710300Y722850D03*
X710300Y735550D03*
X710300Y748250D03*
X710300Y760950D03*
X710300Y773650D03*
X710300Y786350D03*
X710300Y799050D03*
X710300Y811750D03*
X710300Y824450D03*
X710300Y837150D03*
X723000Y837150D03*
X723000Y824450D03*
X723000Y811750D03*
X723000Y799050D03*
X723000Y786350D03*
X723000Y773650D03*
X723000Y760950D03*
X723000Y748250D03*
X723000Y735550D03*
X723000Y722850D03*
D32*
X767500Y697900D03*
X767500Y862100D03*
X718500Y862100D03*
X718500Y697900D03*
D33*
X435000Y890750D03*
X439000Y890750D03*
X443000Y890750D03*
X447000Y890750D03*
X451000Y890750D03*
X451000Y915250D03*
X447000Y915250D03*
X443000Y915250D03*
X439000Y915250D03*
X435000Y915250D03*
D34*
X443000Y903000D03*
D35*
X397000Y611750D03*
X397000Y582250D03*
D36*
X381750Y597000D03*
D37*
X465000Y377500D03*
X465000Y396500D03*
D19*
X588000Y326500D03*
X588000Y309500D03*
X578000Y422500D03*
X578000Y405500D03*
X413000Y1086500D03*
X413000Y1103500D03*
X766000Y366500D03*
X766000Y383500D03*
X766000Y335500D03*
X766000Y318500D03*
D26*
X257000Y988000D03*
X257000Y968000D03*
D27*
X234500Y1012000D03*
X234500Y944000D03*
D21*
X614500Y855000D03*
X597500Y855000D03*
D10*
X1396600Y495600D03*
X1396600Y470200D03*
D11*
X1400000Y444800D03*
X1400000Y419400D03*
X1400000Y394000D03*
X1400000Y368600D03*
X1400000Y343200D03*
X1400000Y317800D03*
D10*
X1396600Y292400D03*
X1396600Y267000D03*
X1447400Y267000D03*
X1447400Y292400D03*
D11*
X1444000Y317800D03*
X1444000Y343200D03*
X1444000Y368600D03*
X1444000Y394000D03*
X1444000Y419400D03*
X1444000Y444800D03*
D10*
X1447400Y470200D03*
X1447400Y495600D03*
X943400Y918400D03*
X943400Y943800D03*
D11*
X940000Y969200D03*
X940000Y994600D03*
X940000Y1020000D03*
X940000Y1045400D03*
X940000Y1070800D03*
X940000Y1096200D03*
D10*
X943400Y1121600D03*
X943400Y1147000D03*
X892600Y1147000D03*
X892600Y1121600D03*
D11*
X896000Y1096200D03*
X896000Y1070800D03*
X896000Y1045400D03*
X896000Y1020000D03*
X896000Y994600D03*
X896000Y969200D03*
D10*
X892600Y943800D03*
X892600Y918400D03*
D12*
X1282046Y1067664D02*
X1282046Y1083164D01*
X1285546Y1083164D01*
X1285546Y1067664D01*
X1282046Y1067664D01*
X1282046Y1070989D02*
X1285546Y1070989D01*
X1285546Y1074314D02*
X1282046Y1074314D01*
X1282046Y1077639D02*
X1285546Y1077639D01*
X1285546Y1080964D02*
X1282046Y1080964D01*
X1292206Y1214964D02*
X1292206Y1230464D01*
X1295706Y1230464D01*
X1295706Y1214964D01*
X1292206Y1214964D01*
X1292206Y1218289D02*
X1295706Y1218289D01*
X1295706Y1221614D02*
X1292206Y1221614D01*
X1292206Y1224939D02*
X1295706Y1224939D01*
X1295706Y1228264D02*
X1292206Y1228264D01*
X1302366Y1230464D02*
X1302366Y1214964D01*
X1302366Y1230464D02*
X1305866Y1230464D01*
X1305866Y1214964D01*
X1302366Y1214964D01*
X1302366Y1218289D02*
X1305866Y1218289D01*
X1305866Y1221614D02*
X1302366Y1221614D01*
X1302366Y1224939D02*
X1305866Y1224939D01*
X1305866Y1228264D02*
X1302366Y1228264D01*
X1312526Y1230464D02*
X1312526Y1214964D01*
X1312526Y1230464D02*
X1316026Y1230464D01*
X1316026Y1214964D01*
X1312526Y1214964D01*
X1312526Y1218289D02*
X1316026Y1218289D01*
X1316026Y1221614D02*
X1312526Y1221614D01*
X1312526Y1224939D02*
X1316026Y1224939D01*
X1316026Y1228264D02*
X1312526Y1228264D01*
X1322686Y1230464D02*
X1322686Y1214964D01*
X1322686Y1230464D02*
X1326186Y1230464D01*
X1326186Y1214964D01*
X1322686Y1214964D01*
X1322686Y1218289D02*
X1326186Y1218289D01*
X1326186Y1221614D02*
X1322686Y1221614D01*
X1322686Y1224939D02*
X1326186Y1224939D01*
X1326186Y1228264D02*
X1322686Y1228264D01*
X1332846Y1230464D02*
X1332846Y1214964D01*
X1332846Y1230464D02*
X1336346Y1230464D01*
X1336346Y1214964D01*
X1332846Y1214964D01*
X1332846Y1218289D02*
X1336346Y1218289D01*
X1336346Y1221614D02*
X1332846Y1221614D01*
X1332846Y1224939D02*
X1336346Y1224939D01*
X1336346Y1228264D02*
X1332846Y1228264D01*
X1343006Y1230464D02*
X1343006Y1214964D01*
X1343006Y1230464D02*
X1346506Y1230464D01*
X1346506Y1214964D01*
X1343006Y1214964D01*
X1343006Y1218289D02*
X1346506Y1218289D01*
X1346506Y1221614D02*
X1343006Y1221614D01*
X1343006Y1224939D02*
X1346506Y1224939D01*
X1346506Y1228264D02*
X1343006Y1228264D01*
X1353166Y1230464D02*
X1353166Y1214964D01*
X1353166Y1230464D02*
X1356666Y1230464D01*
X1356666Y1214964D01*
X1353166Y1214964D01*
X1353166Y1218289D02*
X1356666Y1218289D01*
X1356666Y1221614D02*
X1353166Y1221614D01*
X1353166Y1224939D02*
X1356666Y1224939D01*
X1356666Y1228264D02*
X1353166Y1228264D01*
X1363326Y1230464D02*
X1363326Y1214964D01*
X1363326Y1230464D02*
X1366826Y1230464D01*
X1366826Y1214964D01*
X1363326Y1214964D01*
X1363326Y1218289D02*
X1366826Y1218289D01*
X1366826Y1221614D02*
X1363326Y1221614D01*
X1363326Y1224939D02*
X1366826Y1224939D01*
X1366826Y1228264D02*
X1363326Y1228264D01*
X1373486Y1230464D02*
X1373486Y1214964D01*
X1373486Y1230464D02*
X1376986Y1230464D01*
X1376986Y1214964D01*
X1373486Y1214964D01*
X1373486Y1218289D02*
X1376986Y1218289D01*
X1376986Y1221614D02*
X1373486Y1221614D01*
X1373486Y1224939D02*
X1376986Y1224939D01*
X1376986Y1228264D02*
X1373486Y1228264D01*
X1383646Y1230464D02*
X1383646Y1214964D01*
X1383646Y1230464D02*
X1387146Y1230464D01*
X1387146Y1214964D01*
X1383646Y1214964D01*
X1383646Y1218289D02*
X1387146Y1218289D01*
X1387146Y1221614D02*
X1383646Y1221614D01*
X1383646Y1224939D02*
X1387146Y1224939D01*
X1387146Y1228264D02*
X1383646Y1228264D01*
X1292206Y1083164D02*
X1292206Y1067664D01*
X1292206Y1083164D02*
X1295706Y1083164D01*
X1295706Y1067664D01*
X1292206Y1067664D01*
X1292206Y1070989D02*
X1295706Y1070989D01*
X1295706Y1074314D02*
X1292206Y1074314D01*
X1292206Y1077639D02*
X1295706Y1077639D01*
X1295706Y1080964D02*
X1292206Y1080964D01*
X1302366Y1083164D02*
X1302366Y1067664D01*
X1302366Y1083164D02*
X1305866Y1083164D01*
X1305866Y1067664D01*
X1302366Y1067664D01*
X1302366Y1070989D02*
X1305866Y1070989D01*
X1305866Y1074314D02*
X1302366Y1074314D01*
X1302366Y1077639D02*
X1305866Y1077639D01*
X1305866Y1080964D02*
X1302366Y1080964D01*
X1312526Y1083164D02*
X1312526Y1067664D01*
X1312526Y1083164D02*
X1316026Y1083164D01*
X1316026Y1067664D01*
X1312526Y1067664D01*
X1312526Y1070989D02*
X1316026Y1070989D01*
X1316026Y1074314D02*
X1312526Y1074314D01*
X1312526Y1077639D02*
X1316026Y1077639D01*
X1316026Y1080964D02*
X1312526Y1080964D01*
X1353166Y1083164D02*
X1353166Y1067664D01*
X1353166Y1083164D02*
X1356666Y1083164D01*
X1356666Y1067664D01*
X1353166Y1067664D01*
X1353166Y1070989D02*
X1356666Y1070989D01*
X1356666Y1074314D02*
X1353166Y1074314D01*
X1353166Y1077639D02*
X1356666Y1077639D01*
X1356666Y1080964D02*
X1353166Y1080964D01*
X1373486Y1083164D02*
X1373486Y1067664D01*
X1373486Y1083164D02*
X1376986Y1083164D01*
X1376986Y1067664D01*
X1373486Y1067664D01*
X1373486Y1070989D02*
X1376986Y1070989D01*
X1376986Y1074314D02*
X1373486Y1074314D01*
X1373486Y1077639D02*
X1376986Y1077639D01*
X1376986Y1080964D02*
X1373486Y1080964D01*
X1383646Y1083164D02*
X1383646Y1067664D01*
X1383646Y1083164D02*
X1387146Y1083164D01*
X1387146Y1067664D01*
X1383646Y1067664D01*
X1383646Y1070989D02*
X1387146Y1070989D01*
X1387146Y1074314D02*
X1383646Y1074314D01*
X1383646Y1077639D02*
X1387146Y1077639D01*
X1387146Y1080964D02*
X1383646Y1080964D01*
X1393806Y1083164D02*
X1393806Y1067664D01*
X1393806Y1083164D02*
X1397306Y1083164D01*
X1397306Y1067664D01*
X1393806Y1067664D01*
X1393806Y1070989D02*
X1397306Y1070989D01*
X1397306Y1074314D02*
X1393806Y1074314D01*
X1393806Y1077639D02*
X1397306Y1077639D01*
X1397306Y1080964D02*
X1393806Y1080964D01*
X1403966Y1083164D02*
X1403966Y1067664D01*
X1403966Y1083164D02*
X1407466Y1083164D01*
X1407466Y1067664D01*
X1403966Y1067664D01*
X1403966Y1070989D02*
X1407466Y1070989D01*
X1407466Y1074314D02*
X1403966Y1074314D01*
X1403966Y1077639D02*
X1407466Y1077639D01*
X1407466Y1080964D02*
X1403966Y1080964D01*
X1264846Y1201964D02*
X1249346Y1201964D01*
X1249346Y1205464D01*
X1264846Y1205464D01*
X1264846Y1201964D01*
X1264846Y1205289D02*
X1249346Y1205289D01*
X1249346Y1171484D02*
X1264846Y1171484D01*
X1249346Y1171484D02*
X1249346Y1174984D01*
X1264846Y1174984D01*
X1264846Y1171484D01*
X1264846Y1174809D02*
X1249346Y1174809D01*
X1249346Y1161324D02*
X1264846Y1161324D01*
X1249346Y1161324D02*
X1249346Y1164824D01*
X1264846Y1164824D01*
X1264846Y1161324D01*
X1264846Y1164649D02*
X1249346Y1164649D01*
X1249346Y1151164D02*
X1264846Y1151164D01*
X1249346Y1151164D02*
X1249346Y1154664D01*
X1264846Y1154664D01*
X1264846Y1151164D01*
X1264846Y1154489D02*
X1249346Y1154489D01*
X1249346Y1141004D02*
X1264846Y1141004D01*
X1249346Y1141004D02*
X1249346Y1144504D01*
X1264846Y1144504D01*
X1264846Y1141004D01*
X1264846Y1144329D02*
X1249346Y1144329D01*
X1249346Y1130844D02*
X1264846Y1130844D01*
X1249346Y1130844D02*
X1249346Y1134344D01*
X1264846Y1134344D01*
X1264846Y1130844D01*
X1264846Y1134169D02*
X1249346Y1134169D01*
X1249346Y1120684D02*
X1264846Y1120684D01*
X1249346Y1120684D02*
X1249346Y1124184D01*
X1264846Y1124184D01*
X1264846Y1120684D01*
X1264846Y1124009D02*
X1249346Y1124009D01*
X1249346Y1110524D02*
X1264846Y1110524D01*
X1249346Y1110524D02*
X1249346Y1114024D01*
X1264846Y1114024D01*
X1264846Y1110524D01*
X1264846Y1113849D02*
X1249346Y1113849D01*
X1249346Y1100364D02*
X1264846Y1100364D01*
X1249346Y1100364D02*
X1249346Y1103864D01*
X1264846Y1103864D01*
X1264846Y1100364D01*
X1264846Y1103689D02*
X1249346Y1103689D01*
D13*
X1319796Y1153914D03*
D14*
X1208260Y993988D03*
X1208260Y978988D03*
X1208260Y963988D03*
X1208260Y948988D03*
X1208260Y933988D03*
X1208260Y918988D03*
X1208260Y903988D03*
X1208260Y888988D03*
X1208260Y873988D03*
X1208260Y858988D03*
X1368260Y858988D03*
X1368260Y873988D03*
X1368260Y888988D03*
X1368260Y903988D03*
X1368260Y918988D03*
X1368260Y933988D03*
X1368260Y948988D03*
X1368260Y963988D03*
X1368260Y978988D03*
X1368260Y993988D03*
D15*
X1252577Y1023244D02*
X1242395Y1023244D01*
X1252577Y1023244D02*
X1252577Y1019588D01*
X1242395Y1019588D01*
X1242395Y1023244D01*
X1242395Y1021903D02*
X1252577Y1021903D01*
X1252577Y1032744D02*
X1242395Y1032744D01*
X1252577Y1032744D02*
X1252577Y1029088D01*
X1242395Y1029088D01*
X1242395Y1032744D01*
X1242395Y1031403D02*
X1252577Y1031403D01*
X1252577Y1042244D02*
X1242395Y1042244D01*
X1252577Y1042244D02*
X1252577Y1038588D01*
X1242395Y1038588D01*
X1242395Y1042244D01*
X1242395Y1040903D02*
X1252577Y1040903D01*
X1229077Y1042244D02*
X1218895Y1042244D01*
X1229077Y1042244D02*
X1229077Y1038588D01*
X1218895Y1038588D01*
X1218895Y1042244D01*
X1218895Y1040903D02*
X1229077Y1040903D01*
X1229077Y1023244D02*
X1218895Y1023244D01*
X1229077Y1023244D02*
X1229077Y1019588D01*
X1218895Y1019588D01*
X1218895Y1023244D01*
X1218895Y1021903D02*
X1229077Y1021903D01*
X1217768Y1170723D02*
X1217768Y1180905D01*
X1221424Y1180905D01*
X1221424Y1170723D01*
X1217768Y1170723D01*
X1217768Y1173038D02*
X1221424Y1173038D01*
X1221424Y1175353D02*
X1217768Y1175353D01*
X1217768Y1177668D02*
X1221424Y1177668D01*
X1221424Y1179983D02*
X1217768Y1179983D01*
X1208268Y1180905D02*
X1208268Y1170723D01*
X1208268Y1180905D02*
X1211924Y1180905D01*
X1211924Y1170723D01*
X1208268Y1170723D01*
X1208268Y1173038D02*
X1211924Y1173038D01*
X1211924Y1175353D02*
X1208268Y1175353D01*
X1208268Y1177668D02*
X1211924Y1177668D01*
X1211924Y1179983D02*
X1208268Y1179983D01*
X1198768Y1180905D02*
X1198768Y1170723D01*
X1198768Y1180905D02*
X1202424Y1180905D01*
X1202424Y1170723D01*
X1198768Y1170723D01*
X1198768Y1173038D02*
X1202424Y1173038D01*
X1202424Y1175353D02*
X1198768Y1175353D01*
X1198768Y1177668D02*
X1202424Y1177668D01*
X1202424Y1179983D02*
X1198768Y1179983D01*
X1198768Y1157405D02*
X1198768Y1147223D01*
X1198768Y1157405D02*
X1202424Y1157405D01*
X1202424Y1147223D01*
X1198768Y1147223D01*
X1198768Y1149538D02*
X1202424Y1149538D01*
X1202424Y1151853D02*
X1198768Y1151853D01*
X1198768Y1154168D02*
X1202424Y1154168D01*
X1202424Y1156483D02*
X1198768Y1156483D01*
X1217768Y1157405D02*
X1217768Y1147223D01*
X1217768Y1157405D02*
X1221424Y1157405D01*
X1221424Y1147223D01*
X1217768Y1147223D01*
X1217768Y1149538D02*
X1221424Y1149538D01*
X1221424Y1151853D02*
X1217768Y1151853D01*
X1217768Y1154168D02*
X1221424Y1154168D01*
X1221424Y1156483D02*
X1217768Y1156483D01*
D16*
X1224096Y1132814D03*
X1224096Y1105314D03*
X1206736Y1021166D03*
X1206736Y1048666D03*
D17*
X1196096Y1136814D03*
X1196096Y1119314D03*
X1223736Y1054166D03*
X1223736Y1071666D03*
X1209096Y1136814D03*
X1209096Y1119314D03*
X1191736Y1021166D03*
X1191736Y1038666D03*
D18*
X1283348Y584750D03*
X1334212Y584750D03*
X1283348Y572050D03*
X1283348Y559350D03*
X1334212Y572050D03*
X1334212Y559350D03*
X1283348Y546650D03*
X1334212Y546650D03*
D19*
X1232580Y621190D03*
X1232580Y604190D03*
X1268140Y621190D03*
X1268140Y604190D03*
D20*
X1261175Y593275D02*
X1261175Y581125D01*
X1261175Y593275D02*
X1264125Y593275D01*
X1264125Y581125D01*
X1261175Y581125D01*
X1261175Y582995D02*
X1264125Y582995D01*
X1264125Y584865D02*
X1261175Y584865D01*
X1261175Y586735D02*
X1264125Y586735D01*
X1264125Y588605D02*
X1261175Y588605D01*
X1261175Y590475D02*
X1264125Y590475D01*
X1264125Y592345D02*
X1261175Y592345D01*
X1254675Y593275D02*
X1254675Y581125D01*
X1254675Y593275D02*
X1257625Y593275D01*
X1257625Y581125D01*
X1254675Y581125D01*
X1254675Y582995D02*
X1257625Y582995D01*
X1257625Y584865D02*
X1254675Y584865D01*
X1254675Y586735D02*
X1257625Y586735D01*
X1257625Y588605D02*
X1254675Y588605D01*
X1254675Y590475D02*
X1257625Y590475D01*
X1257625Y592345D02*
X1254675Y592345D01*
X1248175Y593275D02*
X1248175Y581125D01*
X1248175Y593275D02*
X1251125Y593275D01*
X1251125Y581125D01*
X1248175Y581125D01*
X1248175Y582995D02*
X1251125Y582995D01*
X1251125Y584865D02*
X1248175Y584865D01*
X1248175Y586735D02*
X1251125Y586735D01*
X1251125Y588605D02*
X1248175Y588605D01*
X1248175Y590475D02*
X1251125Y590475D01*
X1251125Y592345D02*
X1248175Y592345D01*
X1241675Y593275D02*
X1241675Y581125D01*
X1241675Y593275D02*
X1244625Y593275D01*
X1244625Y581125D01*
X1241675Y581125D01*
X1241675Y582995D02*
X1244625Y582995D01*
X1244625Y584865D02*
X1241675Y584865D01*
X1241675Y586735D02*
X1244625Y586735D01*
X1244625Y588605D02*
X1241675Y588605D01*
X1241675Y590475D02*
X1244625Y590475D01*
X1244625Y592345D02*
X1241675Y592345D01*
X1241675Y550275D02*
X1241675Y538125D01*
X1241675Y550275D02*
X1244625Y550275D01*
X1244625Y538125D01*
X1241675Y538125D01*
X1241675Y539995D02*
X1244625Y539995D01*
X1244625Y541865D02*
X1241675Y541865D01*
X1241675Y543735D02*
X1244625Y543735D01*
X1244625Y545605D02*
X1241675Y545605D01*
X1241675Y547475D02*
X1244625Y547475D01*
X1244625Y549345D02*
X1241675Y549345D01*
X1248175Y550275D02*
X1248175Y538125D01*
X1248175Y550275D02*
X1251125Y550275D01*
X1251125Y538125D01*
X1248175Y538125D01*
X1248175Y539995D02*
X1251125Y539995D01*
X1251125Y541865D02*
X1248175Y541865D01*
X1248175Y543735D02*
X1251125Y543735D01*
X1251125Y545605D02*
X1248175Y545605D01*
X1248175Y547475D02*
X1251125Y547475D01*
X1251125Y549345D02*
X1248175Y549345D01*
X1254675Y550275D02*
X1254675Y538125D01*
X1254675Y550275D02*
X1257625Y550275D01*
X1257625Y538125D01*
X1254675Y538125D01*
X1254675Y539995D02*
X1257625Y539995D01*
X1257625Y541865D02*
X1254675Y541865D01*
X1254675Y543735D02*
X1257625Y543735D01*
X1257625Y545605D02*
X1254675Y545605D01*
X1254675Y547475D02*
X1257625Y547475D01*
X1257625Y549345D02*
X1254675Y549345D01*
X1261175Y550275D02*
X1261175Y538125D01*
X1261175Y550275D02*
X1264125Y550275D01*
X1264125Y538125D01*
X1261175Y538125D01*
X1261175Y539995D02*
X1264125Y539995D01*
X1264125Y541865D02*
X1261175Y541865D01*
X1261175Y543735D02*
X1264125Y543735D01*
X1264125Y545605D02*
X1261175Y545605D01*
X1261175Y547475D02*
X1264125Y547475D01*
X1264125Y549345D02*
X1261175Y549345D01*
D19*
X1242740Y520860D03*
X1242740Y503860D03*
X1334180Y604190D03*
X1334180Y621190D03*
X1339260Y520860D03*
X1339260Y503860D03*
X1284650Y503860D03*
X1284650Y520860D03*
D21*
X1303310Y481880D03*
X1286310Y481880D03*
D15*
X1329667Y688808D02*
X1339849Y688808D01*
X1339849Y685152D01*
X1329667Y685152D01*
X1329667Y688808D01*
X1329667Y687467D02*
X1339849Y687467D01*
X1339849Y698308D02*
X1329667Y698308D01*
X1339849Y698308D02*
X1339849Y694652D01*
X1329667Y694652D01*
X1329667Y698308D01*
X1329667Y696967D02*
X1339849Y696967D01*
X1339849Y707808D02*
X1329667Y707808D01*
X1339849Y707808D02*
X1339849Y704152D01*
X1329667Y704152D01*
X1329667Y707808D01*
X1329667Y706467D02*
X1339849Y706467D01*
X1316349Y707808D02*
X1306167Y707808D01*
X1316349Y707808D02*
X1316349Y704152D01*
X1306167Y704152D01*
X1306167Y707808D01*
X1306167Y706467D02*
X1316349Y706467D01*
X1316349Y688808D02*
X1306167Y688808D01*
X1316349Y688808D02*
X1316349Y685152D01*
X1306167Y685152D01*
X1306167Y688808D01*
X1306167Y687467D02*
X1316349Y687467D01*
D16*
X1294984Y678406D03*
X1294984Y650906D03*
D17*
X1295364Y706154D03*
X1295364Y723654D03*
X1278636Y682422D03*
X1278636Y664922D03*
D22*
X1544176Y917064D03*
X1544176Y977064D03*
D23*
X1530626Y947064D03*
X1530626Y937064D03*
X1530626Y957064D03*
D19*
X1349816Y725940D03*
X1349816Y708940D03*
D24*
X1428833Y791202D03*
X1428833Y766310D03*
D25*
X1392257Y785106D03*
X1392257Y797806D03*
X1392257Y772406D03*
X1392257Y759706D03*
D24*
X1428833Y664814D03*
X1428833Y639922D03*
D25*
X1392257Y658718D03*
X1392257Y671418D03*
X1392257Y646018D03*
X1392257Y633318D03*
D26*
X1490000Y600740D03*
X1490000Y620740D03*
D27*
X1512500Y576740D03*
X1512500Y644740D03*
D26*
X1490000Y797000D03*
X1490000Y817000D03*
D27*
X1512500Y773000D03*
X1512500Y841000D03*
D28*
X1092352Y1111584D02*
X1090552Y1111584D01*
X1092352Y1111584D02*
X1092352Y1102784D01*
X1090552Y1102784D01*
X1090552Y1111584D01*
X1090552Y1103924D02*
X1092352Y1103924D01*
X1092352Y1105064D02*
X1090552Y1105064D01*
X1090552Y1106204D02*
X1092352Y1106204D01*
X1092352Y1107344D02*
X1090552Y1107344D01*
X1090552Y1108484D02*
X1092352Y1108484D01*
X1092352Y1109624D02*
X1090552Y1109624D01*
X1090552Y1110764D02*
X1092352Y1110764D01*
X1087352Y1111584D02*
X1085552Y1111584D01*
X1087352Y1111584D02*
X1087352Y1102784D01*
X1085552Y1102784D01*
X1085552Y1111584D01*
X1085552Y1103924D02*
X1087352Y1103924D01*
X1087352Y1105064D02*
X1085552Y1105064D01*
X1085552Y1106204D02*
X1087352Y1106204D01*
X1087352Y1107344D02*
X1085552Y1107344D01*
X1085552Y1108484D02*
X1087352Y1108484D01*
X1087352Y1109624D02*
X1085552Y1109624D01*
X1085552Y1110764D02*
X1087352Y1110764D01*
X1095552Y1111584D02*
X1097352Y1111584D01*
X1097352Y1102784D01*
X1095552Y1102784D01*
X1095552Y1111584D01*
X1095552Y1103924D02*
X1097352Y1103924D01*
X1097352Y1105064D02*
X1095552Y1105064D01*
X1095552Y1106204D02*
X1097352Y1106204D01*
X1097352Y1107344D02*
X1095552Y1107344D01*
X1095552Y1108484D02*
X1097352Y1108484D01*
X1097352Y1109624D02*
X1095552Y1109624D01*
X1095552Y1110764D02*
X1097352Y1110764D01*
X1100552Y1111584D02*
X1102352Y1111584D01*
X1102352Y1102784D01*
X1100552Y1102784D01*
X1100552Y1111584D01*
X1100552Y1103924D02*
X1102352Y1103924D01*
X1102352Y1105064D02*
X1100552Y1105064D01*
X1100552Y1106204D02*
X1102352Y1106204D01*
X1102352Y1107344D02*
X1100552Y1107344D01*
X1100552Y1108484D02*
X1102352Y1108484D01*
X1102352Y1109624D02*
X1100552Y1109624D01*
X1100552Y1110764D02*
X1102352Y1110764D01*
X1105552Y1111584D02*
X1107352Y1111584D01*
X1107352Y1102784D01*
X1105552Y1102784D01*
X1105552Y1111584D01*
X1105552Y1103924D02*
X1107352Y1103924D01*
X1107352Y1105064D02*
X1105552Y1105064D01*
X1105552Y1106204D02*
X1107352Y1106204D01*
X1107352Y1107344D02*
X1105552Y1107344D01*
X1105552Y1108484D02*
X1107352Y1108484D01*
X1107352Y1109624D02*
X1105552Y1109624D01*
X1105552Y1110764D02*
X1107352Y1110764D01*
X1110552Y1111584D02*
X1112352Y1111584D01*
X1112352Y1102784D01*
X1110552Y1102784D01*
X1110552Y1111584D01*
X1110552Y1103924D02*
X1112352Y1103924D01*
X1112352Y1105064D02*
X1110552Y1105064D01*
X1110552Y1106204D02*
X1112352Y1106204D01*
X1112352Y1107344D02*
X1110552Y1107344D01*
X1110552Y1108484D02*
X1112352Y1108484D01*
X1112352Y1109624D02*
X1110552Y1109624D01*
X1110552Y1110764D02*
X1112352Y1110764D01*
X1115552Y1111584D02*
X1117352Y1111584D01*
X1117352Y1102784D01*
X1115552Y1102784D01*
X1115552Y1111584D01*
X1115552Y1103924D02*
X1117352Y1103924D01*
X1117352Y1105064D02*
X1115552Y1105064D01*
X1115552Y1106204D02*
X1117352Y1106204D01*
X1117352Y1107344D02*
X1115552Y1107344D01*
X1115552Y1108484D02*
X1117352Y1108484D01*
X1117352Y1109624D02*
X1115552Y1109624D01*
X1115552Y1110764D02*
X1117352Y1110764D01*
X1120552Y1111584D02*
X1122352Y1111584D01*
X1122352Y1102784D01*
X1120552Y1102784D01*
X1120552Y1111584D01*
X1120552Y1103924D02*
X1122352Y1103924D01*
X1122352Y1105064D02*
X1120552Y1105064D01*
X1120552Y1106204D02*
X1122352Y1106204D01*
X1122352Y1107344D02*
X1120552Y1107344D01*
X1120552Y1108484D02*
X1122352Y1108484D01*
X1122352Y1109624D02*
X1120552Y1109624D01*
X1120552Y1110764D02*
X1122352Y1110764D01*
D29*
X1126452Y1107184D03*
D28*
X1082352Y1111584D02*
X1080552Y1111584D01*
X1082352Y1111584D02*
X1082352Y1102784D01*
X1080552Y1102784D01*
X1080552Y1111584D01*
X1080552Y1103924D02*
X1082352Y1103924D01*
X1082352Y1105064D02*
X1080552Y1105064D01*
X1080552Y1106204D02*
X1082352Y1106204D01*
X1082352Y1107344D02*
X1080552Y1107344D01*
X1080552Y1108484D02*
X1082352Y1108484D01*
X1082352Y1109624D02*
X1080552Y1109624D01*
X1080552Y1110764D02*
X1082352Y1110764D01*
X1077352Y1111584D02*
X1075552Y1111584D01*
X1077352Y1111584D02*
X1077352Y1102784D01*
X1075552Y1102784D01*
X1075552Y1111584D01*
X1075552Y1103924D02*
X1077352Y1103924D01*
X1077352Y1105064D02*
X1075552Y1105064D01*
X1075552Y1106204D02*
X1077352Y1106204D01*
X1077352Y1107344D02*
X1075552Y1107344D01*
X1075552Y1108484D02*
X1077352Y1108484D01*
X1077352Y1109624D02*
X1075552Y1109624D01*
X1075552Y1110764D02*
X1077352Y1110764D01*
X1072352Y1111584D02*
X1070552Y1111584D01*
X1072352Y1111584D02*
X1072352Y1102784D01*
X1070552Y1102784D01*
X1070552Y1111584D01*
X1070552Y1103924D02*
X1072352Y1103924D01*
X1072352Y1105064D02*
X1070552Y1105064D01*
X1070552Y1106204D02*
X1072352Y1106204D01*
X1072352Y1107344D02*
X1070552Y1107344D01*
X1070552Y1108484D02*
X1072352Y1108484D01*
X1072352Y1109624D02*
X1070552Y1109624D01*
X1070552Y1110764D02*
X1072352Y1110764D01*
X1067352Y1111584D02*
X1065552Y1111584D01*
X1067352Y1111584D02*
X1067352Y1102784D01*
X1065552Y1102784D01*
X1065552Y1111584D01*
X1065552Y1103924D02*
X1067352Y1103924D01*
X1067352Y1105064D02*
X1065552Y1105064D01*
X1065552Y1106204D02*
X1067352Y1106204D01*
X1067352Y1107344D02*
X1065552Y1107344D01*
X1065552Y1108484D02*
X1067352Y1108484D01*
X1067352Y1109624D02*
X1065552Y1109624D01*
X1065552Y1110764D02*
X1067352Y1110764D01*
X1062352Y1111584D02*
X1060552Y1111584D01*
X1062352Y1111584D02*
X1062352Y1102784D01*
X1060552Y1102784D01*
X1060552Y1111584D01*
X1060552Y1103924D02*
X1062352Y1103924D01*
X1062352Y1105064D02*
X1060552Y1105064D01*
X1060552Y1106204D02*
X1062352Y1106204D01*
X1062352Y1107344D02*
X1060552Y1107344D01*
X1060552Y1108484D02*
X1062352Y1108484D01*
X1062352Y1109624D02*
X1060552Y1109624D01*
X1060552Y1110764D02*
X1062352Y1110764D01*
X1057352Y1111584D02*
X1055552Y1111584D01*
X1057352Y1111584D02*
X1057352Y1102784D01*
X1055552Y1102784D01*
X1055552Y1111584D01*
X1055552Y1103924D02*
X1057352Y1103924D01*
X1057352Y1105064D02*
X1055552Y1105064D01*
X1055552Y1106204D02*
X1057352Y1106204D01*
X1057352Y1107344D02*
X1055552Y1107344D01*
X1055552Y1108484D02*
X1057352Y1108484D01*
X1057352Y1109624D02*
X1055552Y1109624D01*
X1055552Y1110764D02*
X1057352Y1110764D01*
X1052352Y1111584D02*
X1050552Y1111584D01*
X1052352Y1111584D02*
X1052352Y1102784D01*
X1050552Y1102784D01*
X1050552Y1111584D01*
X1050552Y1103924D02*
X1052352Y1103924D01*
X1052352Y1105064D02*
X1050552Y1105064D01*
X1050552Y1106204D02*
X1052352Y1106204D01*
X1052352Y1107344D02*
X1050552Y1107344D01*
X1050552Y1108484D02*
X1052352Y1108484D01*
X1052352Y1109624D02*
X1050552Y1109624D01*
X1050552Y1110764D02*
X1052352Y1110764D01*
D30*
X1028452Y1134184D03*
X1149452Y1134184D03*
D28*
X1092352Y1009476D02*
X1090552Y1009476D01*
X1092352Y1009476D02*
X1092352Y1000676D01*
X1090552Y1000676D01*
X1090552Y1009476D01*
X1090552Y1001816D02*
X1092352Y1001816D01*
X1092352Y1002956D02*
X1090552Y1002956D01*
X1090552Y1004096D02*
X1092352Y1004096D01*
X1092352Y1005236D02*
X1090552Y1005236D01*
X1090552Y1006376D02*
X1092352Y1006376D01*
X1092352Y1007516D02*
X1090552Y1007516D01*
X1090552Y1008656D02*
X1092352Y1008656D01*
X1087352Y1009476D02*
X1085552Y1009476D01*
X1087352Y1009476D02*
X1087352Y1000676D01*
X1085552Y1000676D01*
X1085552Y1009476D01*
X1085552Y1001816D02*
X1087352Y1001816D01*
X1087352Y1002956D02*
X1085552Y1002956D01*
X1085552Y1004096D02*
X1087352Y1004096D01*
X1087352Y1005236D02*
X1085552Y1005236D01*
X1085552Y1006376D02*
X1087352Y1006376D01*
X1087352Y1007516D02*
X1085552Y1007516D01*
X1085552Y1008656D02*
X1087352Y1008656D01*
X1095552Y1009476D02*
X1097352Y1009476D01*
X1097352Y1000676D01*
X1095552Y1000676D01*
X1095552Y1009476D01*
X1095552Y1001816D02*
X1097352Y1001816D01*
X1097352Y1002956D02*
X1095552Y1002956D01*
X1095552Y1004096D02*
X1097352Y1004096D01*
X1097352Y1005236D02*
X1095552Y1005236D01*
X1095552Y1006376D02*
X1097352Y1006376D01*
X1097352Y1007516D02*
X1095552Y1007516D01*
X1095552Y1008656D02*
X1097352Y1008656D01*
X1100552Y1009476D02*
X1102352Y1009476D01*
X1102352Y1000676D01*
X1100552Y1000676D01*
X1100552Y1009476D01*
X1100552Y1001816D02*
X1102352Y1001816D01*
X1102352Y1002956D02*
X1100552Y1002956D01*
X1100552Y1004096D02*
X1102352Y1004096D01*
X1102352Y1005236D02*
X1100552Y1005236D01*
X1100552Y1006376D02*
X1102352Y1006376D01*
X1102352Y1007516D02*
X1100552Y1007516D01*
X1100552Y1008656D02*
X1102352Y1008656D01*
X1105552Y1009476D02*
X1107352Y1009476D01*
X1107352Y1000676D01*
X1105552Y1000676D01*
X1105552Y1009476D01*
X1105552Y1001816D02*
X1107352Y1001816D01*
X1107352Y1002956D02*
X1105552Y1002956D01*
X1105552Y1004096D02*
X1107352Y1004096D01*
X1107352Y1005236D02*
X1105552Y1005236D01*
X1105552Y1006376D02*
X1107352Y1006376D01*
X1107352Y1007516D02*
X1105552Y1007516D01*
X1105552Y1008656D02*
X1107352Y1008656D01*
X1110552Y1009476D02*
X1112352Y1009476D01*
X1112352Y1000676D01*
X1110552Y1000676D01*
X1110552Y1009476D01*
X1110552Y1001816D02*
X1112352Y1001816D01*
X1112352Y1002956D02*
X1110552Y1002956D01*
X1110552Y1004096D02*
X1112352Y1004096D01*
X1112352Y1005236D02*
X1110552Y1005236D01*
X1110552Y1006376D02*
X1112352Y1006376D01*
X1112352Y1007516D02*
X1110552Y1007516D01*
X1110552Y1008656D02*
X1112352Y1008656D01*
X1115552Y1009476D02*
X1117352Y1009476D01*
X1117352Y1000676D01*
X1115552Y1000676D01*
X1115552Y1009476D01*
X1115552Y1001816D02*
X1117352Y1001816D01*
X1117352Y1002956D02*
X1115552Y1002956D01*
X1115552Y1004096D02*
X1117352Y1004096D01*
X1117352Y1005236D02*
X1115552Y1005236D01*
X1115552Y1006376D02*
X1117352Y1006376D01*
X1117352Y1007516D02*
X1115552Y1007516D01*
X1115552Y1008656D02*
X1117352Y1008656D01*
X1120552Y1009476D02*
X1122352Y1009476D01*
X1122352Y1000676D01*
X1120552Y1000676D01*
X1120552Y1009476D01*
X1120552Y1001816D02*
X1122352Y1001816D01*
X1122352Y1002956D02*
X1120552Y1002956D01*
X1120552Y1004096D02*
X1122352Y1004096D01*
X1122352Y1005236D02*
X1120552Y1005236D01*
X1120552Y1006376D02*
X1122352Y1006376D01*
X1122352Y1007516D02*
X1120552Y1007516D01*
X1120552Y1008656D02*
X1122352Y1008656D01*
D29*
X1126452Y1005076D03*
D28*
X1082352Y1009476D02*
X1080552Y1009476D01*
X1082352Y1009476D02*
X1082352Y1000676D01*
X1080552Y1000676D01*
X1080552Y1009476D01*
X1080552Y1001816D02*
X1082352Y1001816D01*
X1082352Y1002956D02*
X1080552Y1002956D01*
X1080552Y1004096D02*
X1082352Y1004096D01*
X1082352Y1005236D02*
X1080552Y1005236D01*
X1080552Y1006376D02*
X1082352Y1006376D01*
X1082352Y1007516D02*
X1080552Y1007516D01*
X1080552Y1008656D02*
X1082352Y1008656D01*
X1077352Y1009476D02*
X1075552Y1009476D01*
X1077352Y1009476D02*
X1077352Y1000676D01*
X1075552Y1000676D01*
X1075552Y1009476D01*
X1075552Y1001816D02*
X1077352Y1001816D01*
X1077352Y1002956D02*
X1075552Y1002956D01*
X1075552Y1004096D02*
X1077352Y1004096D01*
X1077352Y1005236D02*
X1075552Y1005236D01*
X1075552Y1006376D02*
X1077352Y1006376D01*
X1077352Y1007516D02*
X1075552Y1007516D01*
X1075552Y1008656D02*
X1077352Y1008656D01*
X1072352Y1009476D02*
X1070552Y1009476D01*
X1072352Y1009476D02*
X1072352Y1000676D01*
X1070552Y1000676D01*
X1070552Y1009476D01*
X1070552Y1001816D02*
X1072352Y1001816D01*
X1072352Y1002956D02*
X1070552Y1002956D01*
X1070552Y1004096D02*
X1072352Y1004096D01*
X1072352Y1005236D02*
X1070552Y1005236D01*
X1070552Y1006376D02*
X1072352Y1006376D01*
X1072352Y1007516D02*
X1070552Y1007516D01*
X1070552Y1008656D02*
X1072352Y1008656D01*
X1067352Y1009476D02*
X1065552Y1009476D01*
X1067352Y1009476D02*
X1067352Y1000676D01*
X1065552Y1000676D01*
X1065552Y1009476D01*
X1065552Y1001816D02*
X1067352Y1001816D01*
X1067352Y1002956D02*
X1065552Y1002956D01*
X1065552Y1004096D02*
X1067352Y1004096D01*
X1067352Y1005236D02*
X1065552Y1005236D01*
X1065552Y1006376D02*
X1067352Y1006376D01*
X1067352Y1007516D02*
X1065552Y1007516D01*
X1065552Y1008656D02*
X1067352Y1008656D01*
X1062352Y1009476D02*
X1060552Y1009476D01*
X1062352Y1009476D02*
X1062352Y1000676D01*
X1060552Y1000676D01*
X1060552Y1009476D01*
X1060552Y1001816D02*
X1062352Y1001816D01*
X1062352Y1002956D02*
X1060552Y1002956D01*
X1060552Y1004096D02*
X1062352Y1004096D01*
X1062352Y1005236D02*
X1060552Y1005236D01*
X1060552Y1006376D02*
X1062352Y1006376D01*
X1062352Y1007516D02*
X1060552Y1007516D01*
X1060552Y1008656D02*
X1062352Y1008656D01*
X1057352Y1009476D02*
X1055552Y1009476D01*
X1057352Y1009476D02*
X1057352Y1000676D01*
X1055552Y1000676D01*
X1055552Y1009476D01*
X1055552Y1001816D02*
X1057352Y1001816D01*
X1057352Y1002956D02*
X1055552Y1002956D01*
X1055552Y1004096D02*
X1057352Y1004096D01*
X1057352Y1005236D02*
X1055552Y1005236D01*
X1055552Y1006376D02*
X1057352Y1006376D01*
X1057352Y1007516D02*
X1055552Y1007516D01*
X1055552Y1008656D02*
X1057352Y1008656D01*
X1052352Y1009476D02*
X1050552Y1009476D01*
X1052352Y1009476D02*
X1052352Y1000676D01*
X1050552Y1000676D01*
X1050552Y1009476D01*
X1050552Y1001816D02*
X1052352Y1001816D01*
X1052352Y1002956D02*
X1050552Y1002956D01*
X1050552Y1004096D02*
X1052352Y1004096D01*
X1052352Y1005236D02*
X1050552Y1005236D01*
X1050552Y1006376D02*
X1052352Y1006376D01*
X1052352Y1007516D02*
X1050552Y1007516D01*
X1050552Y1008656D02*
X1052352Y1008656D01*
D30*
X1028452Y1032076D03*
X1149452Y1032076D03*
D31*
X1039700Y694150D03*
X1039700Y681450D03*
X1039700Y668750D03*
X1039700Y656050D03*
X1039700Y643350D03*
X1039700Y630650D03*
X1039700Y617950D03*
X1039700Y605250D03*
X1039700Y592550D03*
X1039700Y579850D03*
X1027000Y579850D03*
X1027000Y592550D03*
X1027000Y605250D03*
X1027000Y617950D03*
X1027000Y630650D03*
X1027000Y643350D03*
X1027000Y656050D03*
X1027000Y668750D03*
X1027000Y681450D03*
X1027000Y694150D03*
D32*
X982500Y719100D03*
X982500Y554900D03*
X1031500Y554900D03*
X1031500Y719100D03*
D33*
X1315000Y526250D03*
X1311000Y526250D03*
X1307000Y526250D03*
X1303000Y526250D03*
X1299000Y526250D03*
X1299000Y501750D03*
X1303000Y501750D03*
X1307000Y501750D03*
X1311000Y501750D03*
X1315000Y501750D03*
D34*
X1307000Y514000D03*
D35*
X1353000Y805250D03*
X1353000Y834750D03*
D36*
X1368250Y820000D03*
D37*
X1285000Y1039500D03*
X1285000Y1020500D03*
D19*
X1162000Y1090500D03*
X1162000Y1107500D03*
X1172000Y994500D03*
X1172000Y1011500D03*
X1337000Y330500D03*
X1337000Y313500D03*
X984000Y1050500D03*
X984000Y1033500D03*
X984000Y1081500D03*
X984000Y1098500D03*
D26*
X1493000Y429000D03*
X1493000Y449000D03*
D27*
X1515500Y405000D03*
X1515500Y473000D03*
D21*
X1135500Y562000D03*
X1152500Y562000D03*
M02*
