G04 EAGLE Gerber RS-274X export*
G75*
%MOMM*%
%FSLAX34Y34*%
%LPD*%
%INSoldermask Top*%
%IPPOS*%
%AMOC8*
5,1,8,0,0,1.08239X$1,22.5*%
G01*
%ADD10C,2.903200*%
%ADD11R,3.203200X1.473200*%
%ADD12R,3.883200X1.473200*%
%ADD13C,1.783200*%
%ADD14C,0.550950*%
%ADD15R,3.903200X3.903200*%
%ADD16R,1.473200X0.838200*%
%ADD17C,1.403200*%
%ADD18C,0.446819*%
%ADD19R,1.703200X2.153200*%
%ADD20R,1.283200X1.253200*%
%ADD21R,1.983200X0.923200*%
%ADD22R,1.203200X1.303200*%
%ADD23C,0.403156*%
%ADD24R,1.303200X1.203200*%
%ADD25R,0.903200X1.103200*%
%ADD26R,0.803200X0.803200*%
%ADD27C,1.003200*%
%ADD28R,5.054600X2.286000*%
%ADD29R,1.193800X0.965200*%
%ADD30R,5.703200X1.203200*%
%ADD31R,4.203200X2.803200*%
%ADD32C,0.322047*%
%ADD33R,0.503200X1.203200*%
%ADD34R,2.203200X1.503200*%
%ADD35R,1.003200X1.003200*%
%ADD36R,2.903200X1.403200*%
%ADD37C,1.853200*%
%ADD38R,0.403200X0.853200*%
%ADD39R,1.603200X1.503200*%
%ADD40R,2.403200X1.253200*%
%ADD41R,1.203200X1.253200*%
%ADD42R,1.703200X1.503200*%
%ADD43C,0.500000*%
%ADD44C,1.203200*%
%ADD45C,6.203200*%


D10*
X234236Y506700D03*
X234236Y706660D03*
X233736Y906700D03*
X1515764Y910300D03*
X1515764Y710340D03*
X1516264Y510300D03*
D11*
X353400Y921400D03*
X353400Y946800D03*
D12*
X350000Y972200D03*
X350000Y997600D03*
X350000Y1023000D03*
X350000Y1048400D03*
X350000Y1073800D03*
X350000Y1099200D03*
D11*
X353400Y1124600D03*
X353400Y1150000D03*
X302600Y1150000D03*
X302600Y1124600D03*
D12*
X306000Y1099200D03*
X306000Y1073800D03*
X306000Y1048400D03*
X306000Y1023000D03*
X306000Y997600D03*
X306000Y972200D03*
D11*
X302600Y946800D03*
X302600Y921400D03*
D13*
X328000Y934100D03*
X328000Y1137300D03*
D11*
X806600Y498600D03*
X806600Y473200D03*
D12*
X810000Y447800D03*
X810000Y422400D03*
X810000Y397000D03*
X810000Y371600D03*
X810000Y346200D03*
X810000Y320800D03*
D11*
X806600Y295400D03*
X806600Y270000D03*
X857400Y270000D03*
X857400Y295400D03*
D12*
X854000Y320800D03*
X854000Y346200D03*
X854000Y371600D03*
X854000Y397000D03*
X854000Y422400D03*
X854000Y447800D03*
D11*
X857400Y473200D03*
X857400Y498600D03*
D13*
X832000Y485900D03*
X832000Y282700D03*
D14*
X467965Y333825D02*
X467965Y349347D01*
X467965Y333825D02*
X464443Y333825D01*
X464443Y349347D01*
X467965Y349347D01*
X467965Y339059D02*
X464443Y339059D01*
X464443Y344293D02*
X467965Y344293D01*
X457805Y202047D02*
X457805Y186525D01*
X454283Y186525D01*
X454283Y202047D01*
X457805Y202047D01*
X457805Y191759D02*
X454283Y191759D01*
X454283Y196993D02*
X457805Y196993D01*
X447645Y202047D02*
X447645Y186525D01*
X444123Y186525D01*
X444123Y202047D01*
X447645Y202047D01*
X447645Y191759D02*
X444123Y191759D01*
X444123Y196993D02*
X447645Y196993D01*
X437485Y202047D02*
X437485Y186525D01*
X433963Y186525D01*
X433963Y202047D01*
X437485Y202047D01*
X437485Y191759D02*
X433963Y191759D01*
X433963Y196993D02*
X437485Y196993D01*
X427325Y202047D02*
X427325Y186525D01*
X423803Y186525D01*
X423803Y202047D01*
X427325Y202047D01*
X427325Y191759D02*
X423803Y191759D01*
X423803Y196993D02*
X427325Y196993D01*
X417165Y202047D02*
X417165Y186525D01*
X413643Y186525D01*
X413643Y202047D01*
X417165Y202047D01*
X417165Y191759D02*
X413643Y191759D01*
X413643Y196993D02*
X417165Y196993D01*
X407005Y202047D02*
X407005Y186525D01*
X403483Y186525D01*
X403483Y202047D01*
X407005Y202047D01*
X407005Y191759D02*
X403483Y191759D01*
X403483Y196993D02*
X407005Y196993D01*
X396845Y202047D02*
X396845Y186525D01*
X393323Y186525D01*
X393323Y202047D01*
X396845Y202047D01*
X396845Y191759D02*
X393323Y191759D01*
X393323Y196993D02*
X396845Y196993D01*
X386685Y202047D02*
X386685Y186525D01*
X383163Y186525D01*
X383163Y202047D01*
X386685Y202047D01*
X386685Y191759D02*
X383163Y191759D01*
X383163Y196993D02*
X386685Y196993D01*
X376525Y202047D02*
X376525Y186525D01*
X373003Y186525D01*
X373003Y202047D01*
X376525Y202047D01*
X376525Y191759D02*
X373003Y191759D01*
X373003Y196993D02*
X376525Y196993D01*
X366365Y202047D02*
X366365Y186525D01*
X362843Y186525D01*
X362843Y202047D01*
X366365Y202047D01*
X366365Y191759D02*
X362843Y191759D01*
X362843Y196993D02*
X366365Y196993D01*
X457805Y333825D02*
X457805Y349347D01*
X457805Y333825D02*
X454283Y333825D01*
X454283Y349347D01*
X457805Y349347D01*
X457805Y339059D02*
X454283Y339059D01*
X454283Y344293D02*
X457805Y344293D01*
X447645Y349347D02*
X447645Y333825D01*
X444123Y333825D01*
X444123Y349347D01*
X447645Y349347D01*
X447645Y339059D02*
X444123Y339059D01*
X444123Y344293D02*
X447645Y344293D01*
X437485Y349347D02*
X437485Y333825D01*
X433963Y333825D01*
X433963Y349347D01*
X437485Y349347D01*
X437485Y339059D02*
X433963Y339059D01*
X433963Y344293D02*
X437485Y344293D01*
X396845Y349347D02*
X396845Y333825D01*
X393323Y333825D01*
X393323Y349347D01*
X396845Y349347D01*
X396845Y339059D02*
X393323Y339059D01*
X393323Y344293D02*
X396845Y344293D01*
X376525Y349347D02*
X376525Y333825D01*
X373003Y333825D01*
X373003Y349347D01*
X376525Y349347D01*
X376525Y339059D02*
X373003Y339059D01*
X373003Y344293D02*
X376525Y344293D01*
X366365Y349347D02*
X366365Y333825D01*
X362843Y333825D01*
X362843Y349347D01*
X366365Y349347D01*
X366365Y339059D02*
X362843Y339059D01*
X362843Y344293D02*
X366365Y344293D01*
X356205Y349347D02*
X356205Y333825D01*
X352683Y333825D01*
X352683Y349347D01*
X356205Y349347D01*
X356205Y339059D02*
X352683Y339059D01*
X352683Y344293D02*
X356205Y344293D01*
X346045Y349347D02*
X346045Y333825D01*
X342523Y333825D01*
X342523Y349347D01*
X346045Y349347D01*
X346045Y339059D02*
X342523Y339059D01*
X342523Y344293D02*
X346045Y344293D01*
X485143Y215047D02*
X500665Y215047D01*
X500665Y211525D01*
X485143Y211525D01*
X485143Y215047D01*
X485143Y245527D02*
X500665Y245527D01*
X500665Y242005D01*
X485143Y242005D01*
X485143Y245527D01*
X485143Y255687D02*
X500665Y255687D01*
X500665Y252165D01*
X485143Y252165D01*
X485143Y255687D01*
X485143Y265847D02*
X500665Y265847D01*
X500665Y262325D01*
X485143Y262325D01*
X485143Y265847D01*
X485143Y276007D02*
X500665Y276007D01*
X500665Y272485D01*
X485143Y272485D01*
X485143Y276007D01*
X485143Y286167D02*
X500665Y286167D01*
X500665Y282645D01*
X485143Y282645D01*
X485143Y286167D01*
X485143Y296327D02*
X500665Y296327D01*
X500665Y292805D01*
X485143Y292805D01*
X485143Y296327D01*
X485143Y306487D02*
X500665Y306487D01*
X500665Y302965D01*
X485143Y302965D01*
X485143Y306487D01*
X485143Y316647D02*
X500665Y316647D01*
X500665Y313125D01*
X485143Y313125D01*
X485143Y316647D01*
D15*
X430204Y263086D03*
D16*
X541740Y423012D03*
X541740Y438012D03*
X541740Y453012D03*
X541740Y468012D03*
X541740Y483012D03*
X541740Y498012D03*
X541740Y513012D03*
X541740Y528012D03*
X541740Y543012D03*
X541740Y558012D03*
X381740Y558012D03*
X381740Y543012D03*
X381740Y528012D03*
X381740Y513012D03*
X381740Y498012D03*
X381740Y483012D03*
X381740Y468012D03*
X381740Y453012D03*
X381740Y438012D03*
X381740Y423012D03*
D17*
X459740Y482512D03*
D18*
X497423Y393756D02*
X507605Y393756D01*
X497423Y393756D02*
X497423Y397412D01*
X507605Y397412D01*
X507605Y393756D01*
X507605Y384256D02*
X497423Y384256D01*
X497423Y387912D01*
X507605Y387912D01*
X507605Y384256D01*
X507605Y374756D02*
X497423Y374756D01*
X497423Y378412D01*
X507605Y378412D01*
X507605Y374756D01*
X520923Y374756D02*
X531105Y374756D01*
X520923Y374756D02*
X520923Y378412D01*
X531105Y378412D01*
X531105Y374756D01*
X531105Y393756D02*
X520923Y393756D01*
X520923Y397412D01*
X531105Y397412D01*
X531105Y393756D01*
X532232Y246277D02*
X532232Y236095D01*
X528576Y236095D01*
X528576Y246277D01*
X532232Y246277D01*
X532232Y240340D02*
X528576Y240340D01*
X528576Y244585D02*
X532232Y244585D01*
X541732Y246277D02*
X541732Y236095D01*
X538076Y236095D01*
X538076Y246277D01*
X541732Y246277D01*
X541732Y240340D02*
X538076Y240340D01*
X538076Y244585D02*
X541732Y244585D01*
X551232Y246277D02*
X551232Y236095D01*
X547576Y236095D01*
X547576Y246277D01*
X551232Y246277D01*
X551232Y240340D02*
X547576Y240340D01*
X547576Y244585D02*
X551232Y244585D01*
X551232Y259595D02*
X551232Y269777D01*
X551232Y259595D02*
X547576Y259595D01*
X547576Y269777D01*
X551232Y269777D01*
X551232Y263840D02*
X547576Y263840D01*
X547576Y268085D02*
X551232Y268085D01*
X532232Y269777D02*
X532232Y259595D01*
X528576Y259595D01*
X528576Y269777D01*
X532232Y269777D01*
X532232Y263840D02*
X528576Y263840D01*
X528576Y268085D02*
X532232Y268085D01*
D19*
X525904Y284186D03*
X525904Y311686D03*
X543264Y395834D03*
X543264Y368334D03*
D20*
X553904Y280186D03*
X553904Y297686D03*
X526264Y362834D03*
X526264Y345334D03*
X540904Y280186D03*
X540904Y297686D03*
X558264Y395834D03*
X558264Y378334D03*
D21*
X466652Y832250D03*
X415788Y832250D03*
X466652Y844950D03*
X466652Y857650D03*
X415788Y844950D03*
X415788Y857650D03*
X466652Y870350D03*
X415788Y870350D03*
D22*
X517420Y795810D03*
X517420Y812810D03*
X481860Y795810D03*
X481860Y812810D03*
D23*
X488809Y823741D02*
X488809Y835859D01*
X488809Y823741D02*
X485891Y823741D01*
X485891Y835859D01*
X488809Y835859D01*
X488809Y827571D02*
X485891Y827571D01*
X485891Y831401D02*
X488809Y831401D01*
X488809Y835231D02*
X485891Y835231D01*
X495309Y835859D02*
X495309Y823741D01*
X492391Y823741D01*
X492391Y835859D01*
X495309Y835859D01*
X495309Y827571D02*
X492391Y827571D01*
X492391Y831401D02*
X495309Y831401D01*
X495309Y835231D02*
X492391Y835231D01*
X501809Y835859D02*
X501809Y823741D01*
X498891Y823741D01*
X498891Y835859D01*
X501809Y835859D01*
X501809Y827571D02*
X498891Y827571D01*
X498891Y831401D02*
X501809Y831401D01*
X501809Y835231D02*
X498891Y835231D01*
X508309Y835859D02*
X508309Y823741D01*
X505391Y823741D01*
X505391Y835859D01*
X508309Y835859D01*
X508309Y827571D02*
X505391Y827571D01*
X505391Y831401D02*
X508309Y831401D01*
X508309Y835231D02*
X505391Y835231D01*
X508309Y866741D02*
X508309Y878859D01*
X508309Y866741D02*
X505391Y866741D01*
X505391Y878859D01*
X508309Y878859D01*
X508309Y870571D02*
X505391Y870571D01*
X505391Y874401D02*
X508309Y874401D01*
X508309Y878231D02*
X505391Y878231D01*
X501809Y878859D02*
X501809Y866741D01*
X498891Y866741D01*
X498891Y878859D01*
X501809Y878859D01*
X501809Y870571D02*
X498891Y870571D01*
X498891Y874401D02*
X501809Y874401D01*
X501809Y878231D02*
X498891Y878231D01*
X495309Y878859D02*
X495309Y866741D01*
X492391Y866741D01*
X492391Y878859D01*
X495309Y878859D01*
X495309Y870571D02*
X492391Y870571D01*
X492391Y874401D02*
X495309Y874401D01*
X495309Y878231D02*
X492391Y878231D01*
X488809Y878859D02*
X488809Y866741D01*
X485891Y866741D01*
X485891Y878859D01*
X488809Y878859D01*
X488809Y870571D02*
X485891Y870571D01*
X485891Y874401D02*
X488809Y874401D01*
X488809Y878231D02*
X485891Y878231D01*
D22*
X507260Y896140D03*
X507260Y913140D03*
X415820Y812810D03*
X415820Y795810D03*
X410740Y896140D03*
X410740Y913140D03*
X465350Y913140D03*
X465350Y896140D03*
D24*
X446690Y935120D03*
X463690Y935120D03*
D18*
X420333Y728192D02*
X410151Y728192D01*
X410151Y731848D01*
X420333Y731848D01*
X420333Y728192D01*
X420333Y718692D02*
X410151Y718692D01*
X410151Y722348D01*
X420333Y722348D01*
X420333Y718692D01*
X420333Y709192D02*
X410151Y709192D01*
X410151Y712848D01*
X420333Y712848D01*
X420333Y709192D01*
X433651Y709192D02*
X443833Y709192D01*
X433651Y709192D02*
X433651Y712848D01*
X443833Y712848D01*
X443833Y709192D01*
X443833Y728192D02*
X433651Y728192D01*
X433651Y731848D01*
X443833Y731848D01*
X443833Y728192D01*
D19*
X455016Y738594D03*
X455016Y766094D03*
D20*
X454636Y710846D03*
X454636Y693346D03*
X471364Y734578D03*
X471364Y752078D03*
D25*
X205824Y499936D03*
X205824Y439936D03*
D26*
X219374Y469936D03*
X219374Y479936D03*
X219374Y459936D03*
D27*
X205824Y484936D03*
X205824Y454936D03*
D22*
X400184Y691060D03*
X400184Y708060D03*
D28*
X321167Y625798D03*
X321167Y650690D03*
D29*
X357743Y631894D03*
X357743Y619194D03*
X357743Y644594D03*
X357743Y657294D03*
D28*
X321167Y752186D03*
X321167Y777078D03*
D29*
X357743Y758282D03*
X357743Y745582D03*
X357743Y770982D03*
X357743Y783682D03*
D30*
X260000Y816260D03*
X260000Y796260D03*
D31*
X237500Y840260D03*
X237500Y772260D03*
D30*
X260000Y620000D03*
X260000Y600000D03*
D31*
X237500Y644000D03*
X237500Y576000D03*
D32*
X657642Y305410D02*
X659454Y305410D01*
X657642Y305410D02*
X657642Y314222D01*
X659454Y314222D01*
X659454Y305410D01*
X659454Y308469D02*
X657642Y308469D01*
X657642Y311528D02*
X659454Y311528D01*
X662642Y305410D02*
X664454Y305410D01*
X662642Y305410D02*
X662642Y314222D01*
X664454Y314222D01*
X664454Y305410D01*
X664454Y308469D02*
X662642Y308469D01*
X662642Y311528D02*
X664454Y311528D01*
X654454Y305410D02*
X652642Y305410D01*
X652642Y314222D01*
X654454Y314222D01*
X654454Y305410D01*
X654454Y308469D02*
X652642Y308469D01*
X652642Y311528D02*
X654454Y311528D01*
X649454Y305410D02*
X647642Y305410D01*
X647642Y314222D01*
X649454Y314222D01*
X649454Y305410D01*
X649454Y308469D02*
X647642Y308469D01*
X647642Y311528D02*
X649454Y311528D01*
X644454Y305410D02*
X642642Y305410D01*
X642642Y314222D01*
X644454Y314222D01*
X644454Y305410D01*
X644454Y308469D02*
X642642Y308469D01*
X642642Y311528D02*
X644454Y311528D01*
X639454Y305410D02*
X637642Y305410D01*
X637642Y314222D01*
X639454Y314222D01*
X639454Y305410D01*
X639454Y308469D02*
X637642Y308469D01*
X637642Y311528D02*
X639454Y311528D01*
X634454Y305410D02*
X632642Y305410D01*
X632642Y314222D01*
X634454Y314222D01*
X634454Y305410D01*
X634454Y308469D02*
X632642Y308469D01*
X632642Y311528D02*
X634454Y311528D01*
X629454Y305410D02*
X627642Y305410D01*
X627642Y314222D01*
X629454Y314222D01*
X629454Y305410D01*
X629454Y308469D02*
X627642Y308469D01*
X627642Y311528D02*
X629454Y311528D01*
D33*
X623548Y309816D03*
D32*
X667642Y305410D02*
X669454Y305410D01*
X667642Y305410D02*
X667642Y314222D01*
X669454Y314222D01*
X669454Y305410D01*
X669454Y308469D02*
X667642Y308469D01*
X667642Y311528D02*
X669454Y311528D01*
X672642Y305410D02*
X674454Y305410D01*
X672642Y305410D02*
X672642Y314222D01*
X674454Y314222D01*
X674454Y305410D01*
X674454Y308469D02*
X672642Y308469D01*
X672642Y311528D02*
X674454Y311528D01*
X677642Y305410D02*
X679454Y305410D01*
X677642Y305410D02*
X677642Y314222D01*
X679454Y314222D01*
X679454Y305410D01*
X679454Y308469D02*
X677642Y308469D01*
X677642Y311528D02*
X679454Y311528D01*
X682642Y305410D02*
X684454Y305410D01*
X682642Y305410D02*
X682642Y314222D01*
X684454Y314222D01*
X684454Y305410D01*
X684454Y308469D02*
X682642Y308469D01*
X682642Y311528D02*
X684454Y311528D01*
X687642Y305410D02*
X689454Y305410D01*
X687642Y305410D02*
X687642Y314222D01*
X689454Y314222D01*
X689454Y305410D01*
X689454Y308469D02*
X687642Y308469D01*
X687642Y311528D02*
X689454Y311528D01*
X692642Y305410D02*
X694454Y305410D01*
X692642Y305410D02*
X692642Y314222D01*
X694454Y314222D01*
X694454Y305410D01*
X694454Y308469D02*
X692642Y308469D01*
X692642Y311528D02*
X694454Y311528D01*
X697642Y305410D02*
X699454Y305410D01*
X697642Y305410D02*
X697642Y314222D01*
X699454Y314222D01*
X699454Y305410D01*
X699454Y308469D02*
X697642Y308469D01*
X697642Y311528D02*
X699454Y311528D01*
D34*
X721548Y282816D03*
X600548Y282816D03*
D32*
X657642Y407518D02*
X659454Y407518D01*
X657642Y407518D02*
X657642Y416330D01*
X659454Y416330D01*
X659454Y407518D01*
X659454Y410577D02*
X657642Y410577D01*
X657642Y413636D02*
X659454Y413636D01*
X662642Y407518D02*
X664454Y407518D01*
X662642Y407518D02*
X662642Y416330D01*
X664454Y416330D01*
X664454Y407518D01*
X664454Y410577D02*
X662642Y410577D01*
X662642Y413636D02*
X664454Y413636D01*
X654454Y407518D02*
X652642Y407518D01*
X652642Y416330D01*
X654454Y416330D01*
X654454Y407518D01*
X654454Y410577D02*
X652642Y410577D01*
X652642Y413636D02*
X654454Y413636D01*
X649454Y407518D02*
X647642Y407518D01*
X647642Y416330D01*
X649454Y416330D01*
X649454Y407518D01*
X649454Y410577D02*
X647642Y410577D01*
X647642Y413636D02*
X649454Y413636D01*
X644454Y407518D02*
X642642Y407518D01*
X642642Y416330D01*
X644454Y416330D01*
X644454Y407518D01*
X644454Y410577D02*
X642642Y410577D01*
X642642Y413636D02*
X644454Y413636D01*
X639454Y407518D02*
X637642Y407518D01*
X637642Y416330D01*
X639454Y416330D01*
X639454Y407518D01*
X639454Y410577D02*
X637642Y410577D01*
X637642Y413636D02*
X639454Y413636D01*
X634454Y407518D02*
X632642Y407518D01*
X632642Y416330D01*
X634454Y416330D01*
X634454Y407518D01*
X634454Y410577D02*
X632642Y410577D01*
X632642Y413636D02*
X634454Y413636D01*
X629454Y407518D02*
X627642Y407518D01*
X627642Y416330D01*
X629454Y416330D01*
X629454Y407518D01*
X629454Y410577D02*
X627642Y410577D01*
X627642Y413636D02*
X629454Y413636D01*
D33*
X623548Y411924D03*
D32*
X667642Y407518D02*
X669454Y407518D01*
X667642Y407518D02*
X667642Y416330D01*
X669454Y416330D01*
X669454Y407518D01*
X669454Y410577D02*
X667642Y410577D01*
X667642Y413636D02*
X669454Y413636D01*
X672642Y407518D02*
X674454Y407518D01*
X672642Y407518D02*
X672642Y416330D01*
X674454Y416330D01*
X674454Y407518D01*
X674454Y410577D02*
X672642Y410577D01*
X672642Y413636D02*
X674454Y413636D01*
X677642Y407518D02*
X679454Y407518D01*
X677642Y407518D02*
X677642Y416330D01*
X679454Y416330D01*
X679454Y407518D01*
X679454Y410577D02*
X677642Y410577D01*
X677642Y413636D02*
X679454Y413636D01*
X682642Y407518D02*
X684454Y407518D01*
X682642Y407518D02*
X682642Y416330D01*
X684454Y416330D01*
X684454Y407518D01*
X684454Y410577D02*
X682642Y410577D01*
X682642Y413636D02*
X684454Y413636D01*
X687642Y407518D02*
X689454Y407518D01*
X687642Y407518D02*
X687642Y416330D01*
X689454Y416330D01*
X689454Y407518D01*
X689454Y410577D02*
X687642Y410577D01*
X687642Y413636D02*
X689454Y413636D01*
X692642Y407518D02*
X694454Y407518D01*
X692642Y407518D02*
X692642Y416330D01*
X694454Y416330D01*
X694454Y407518D01*
X694454Y410577D02*
X692642Y410577D01*
X692642Y413636D02*
X694454Y413636D01*
X697642Y407518D02*
X699454Y407518D01*
X697642Y407518D02*
X697642Y416330D01*
X699454Y416330D01*
X699454Y407518D01*
X699454Y410577D02*
X697642Y410577D01*
X697642Y413636D02*
X699454Y413636D01*
D34*
X721548Y384924D03*
X600548Y384924D03*
D35*
X710300Y722850D03*
X710300Y735550D03*
X710300Y748250D03*
X710300Y760950D03*
X710300Y773650D03*
X710300Y786350D03*
X710300Y799050D03*
X710300Y811750D03*
X710300Y824450D03*
X710300Y837150D03*
X723000Y837150D03*
X723000Y824450D03*
X723000Y811750D03*
X723000Y799050D03*
X723000Y786350D03*
X723000Y773650D03*
X723000Y760950D03*
X723000Y748250D03*
X723000Y735550D03*
X723000Y722850D03*
D36*
X767500Y697900D03*
X767500Y862100D03*
X718500Y862100D03*
X718500Y697900D03*
D37*
X743000Y700750D03*
X743000Y859250D03*
D38*
X435000Y890750D03*
X439000Y890750D03*
X443000Y890750D03*
X447000Y890750D03*
X451000Y890750D03*
X451000Y915250D03*
X447000Y915250D03*
X443000Y915250D03*
X439000Y915250D03*
X435000Y915250D03*
D39*
X443000Y903000D03*
D40*
X397000Y611750D03*
X397000Y582250D03*
D41*
X381750Y597000D03*
D42*
X465000Y377500D03*
X465000Y396500D03*
D22*
X588000Y326500D03*
X588000Y309500D03*
X578000Y422500D03*
X578000Y405500D03*
X413000Y1086500D03*
X413000Y1103500D03*
X766000Y366500D03*
X766000Y383500D03*
X766000Y335500D03*
X766000Y318500D03*
D13*
X559200Y1119590D03*
X660800Y1119590D03*
D43*
X852500Y210000D02*
X852502Y209819D01*
X852509Y209638D01*
X852520Y209457D01*
X852535Y209276D01*
X852555Y209096D01*
X852579Y208916D01*
X852607Y208737D01*
X852640Y208559D01*
X852677Y208382D01*
X852718Y208205D01*
X852763Y208030D01*
X852813Y207855D01*
X852867Y207682D01*
X852925Y207511D01*
X852987Y207340D01*
X853054Y207172D01*
X853124Y207005D01*
X853198Y206839D01*
X853277Y206676D01*
X853359Y206515D01*
X853445Y206355D01*
X853535Y206198D01*
X853629Y206043D01*
X853726Y205890D01*
X853828Y205740D01*
X853932Y205592D01*
X854041Y205446D01*
X854152Y205304D01*
X854268Y205164D01*
X854386Y205027D01*
X854508Y204892D01*
X854633Y204761D01*
X854761Y204633D01*
X854892Y204508D01*
X855027Y204386D01*
X855164Y204268D01*
X855304Y204152D01*
X855446Y204041D01*
X855592Y203932D01*
X855740Y203828D01*
X855890Y203726D01*
X856043Y203629D01*
X856198Y203535D01*
X856355Y203445D01*
X856515Y203359D01*
X856676Y203277D01*
X856839Y203198D01*
X857005Y203124D01*
X857172Y203054D01*
X857340Y202987D01*
X857511Y202925D01*
X857682Y202867D01*
X857855Y202813D01*
X858030Y202763D01*
X858205Y202718D01*
X858382Y202677D01*
X858559Y202640D01*
X858737Y202607D01*
X858916Y202579D01*
X859096Y202555D01*
X859276Y202535D01*
X859457Y202520D01*
X859638Y202509D01*
X859819Y202502D01*
X860000Y202500D01*
X852500Y210000D02*
X852502Y210181D01*
X852509Y210362D01*
X852520Y210543D01*
X852535Y210724D01*
X852555Y210904D01*
X852579Y211084D01*
X852607Y211263D01*
X852640Y211441D01*
X852677Y211618D01*
X852718Y211795D01*
X852763Y211970D01*
X852813Y212145D01*
X852867Y212318D01*
X852925Y212489D01*
X852987Y212660D01*
X853054Y212828D01*
X853124Y212995D01*
X853198Y213161D01*
X853277Y213324D01*
X853359Y213485D01*
X853445Y213645D01*
X853535Y213802D01*
X853629Y213957D01*
X853726Y214110D01*
X853828Y214260D01*
X853932Y214408D01*
X854041Y214554D01*
X854152Y214696D01*
X854268Y214836D01*
X854386Y214973D01*
X854508Y215108D01*
X854633Y215239D01*
X854761Y215367D01*
X854892Y215492D01*
X855027Y215614D01*
X855164Y215732D01*
X855304Y215848D01*
X855446Y215959D01*
X855592Y216068D01*
X855740Y216172D01*
X855890Y216274D01*
X856043Y216371D01*
X856198Y216465D01*
X856355Y216555D01*
X856515Y216641D01*
X856676Y216723D01*
X856839Y216802D01*
X857005Y216876D01*
X857172Y216946D01*
X857340Y217013D01*
X857511Y217075D01*
X857682Y217133D01*
X857855Y217187D01*
X858030Y217237D01*
X858205Y217282D01*
X858382Y217323D01*
X858559Y217360D01*
X858737Y217393D01*
X858916Y217421D01*
X859096Y217445D01*
X859276Y217465D01*
X859457Y217480D01*
X859638Y217491D01*
X859819Y217498D01*
X860000Y217500D01*
X860181Y217498D01*
X860362Y217491D01*
X860543Y217480D01*
X860724Y217465D01*
X860904Y217445D01*
X861084Y217421D01*
X861263Y217393D01*
X861441Y217360D01*
X861618Y217323D01*
X861795Y217282D01*
X861970Y217237D01*
X862145Y217187D01*
X862318Y217133D01*
X862489Y217075D01*
X862660Y217013D01*
X862828Y216946D01*
X862995Y216876D01*
X863161Y216802D01*
X863324Y216723D01*
X863485Y216641D01*
X863645Y216555D01*
X863802Y216465D01*
X863957Y216371D01*
X864110Y216274D01*
X864260Y216172D01*
X864408Y216068D01*
X864554Y215959D01*
X864696Y215848D01*
X864836Y215732D01*
X864973Y215614D01*
X865108Y215492D01*
X865239Y215367D01*
X865367Y215239D01*
X865492Y215108D01*
X865614Y214973D01*
X865732Y214836D01*
X865848Y214696D01*
X865959Y214554D01*
X866068Y214408D01*
X866172Y214260D01*
X866274Y214110D01*
X866371Y213957D01*
X866465Y213802D01*
X866555Y213645D01*
X866641Y213485D01*
X866723Y213324D01*
X866802Y213161D01*
X866876Y212995D01*
X866946Y212828D01*
X867013Y212660D01*
X867075Y212489D01*
X867133Y212318D01*
X867187Y212145D01*
X867237Y211970D01*
X867282Y211795D01*
X867323Y211618D01*
X867360Y211441D01*
X867393Y211263D01*
X867421Y211084D01*
X867445Y210904D01*
X867465Y210724D01*
X867480Y210543D01*
X867491Y210362D01*
X867498Y210181D01*
X867500Y210000D01*
X867498Y209819D01*
X867491Y209638D01*
X867480Y209457D01*
X867465Y209276D01*
X867445Y209096D01*
X867421Y208916D01*
X867393Y208737D01*
X867360Y208559D01*
X867323Y208382D01*
X867282Y208205D01*
X867237Y208030D01*
X867187Y207855D01*
X867133Y207682D01*
X867075Y207511D01*
X867013Y207340D01*
X866946Y207172D01*
X866876Y207005D01*
X866802Y206839D01*
X866723Y206676D01*
X866641Y206515D01*
X866555Y206355D01*
X866465Y206198D01*
X866371Y206043D01*
X866274Y205890D01*
X866172Y205740D01*
X866068Y205592D01*
X865959Y205446D01*
X865848Y205304D01*
X865732Y205164D01*
X865614Y205027D01*
X865492Y204892D01*
X865367Y204761D01*
X865239Y204633D01*
X865108Y204508D01*
X864973Y204386D01*
X864836Y204268D01*
X864696Y204152D01*
X864554Y204041D01*
X864408Y203932D01*
X864260Y203828D01*
X864110Y203726D01*
X863957Y203629D01*
X863802Y203535D01*
X863645Y203445D01*
X863485Y203359D01*
X863324Y203277D01*
X863161Y203198D01*
X862995Y203124D01*
X862828Y203054D01*
X862660Y202987D01*
X862489Y202925D01*
X862318Y202867D01*
X862145Y202813D01*
X861970Y202763D01*
X861795Y202718D01*
X861618Y202677D01*
X861441Y202640D01*
X861263Y202607D01*
X861084Y202579D01*
X860904Y202555D01*
X860724Y202535D01*
X860543Y202520D01*
X860362Y202509D01*
X860181Y202502D01*
X860000Y202500D01*
D44*
X860000Y210000D03*
D43*
X310000Y1202500D02*
X309819Y1202502D01*
X309638Y1202509D01*
X309457Y1202520D01*
X309276Y1202535D01*
X309096Y1202555D01*
X308916Y1202579D01*
X308737Y1202607D01*
X308559Y1202640D01*
X308382Y1202677D01*
X308205Y1202718D01*
X308030Y1202763D01*
X307855Y1202813D01*
X307682Y1202867D01*
X307511Y1202925D01*
X307340Y1202987D01*
X307172Y1203054D01*
X307005Y1203124D01*
X306839Y1203198D01*
X306676Y1203277D01*
X306515Y1203359D01*
X306355Y1203445D01*
X306198Y1203535D01*
X306043Y1203629D01*
X305890Y1203726D01*
X305740Y1203828D01*
X305592Y1203932D01*
X305446Y1204041D01*
X305304Y1204152D01*
X305164Y1204268D01*
X305027Y1204386D01*
X304892Y1204508D01*
X304761Y1204633D01*
X304633Y1204761D01*
X304508Y1204892D01*
X304386Y1205027D01*
X304268Y1205164D01*
X304152Y1205304D01*
X304041Y1205446D01*
X303932Y1205592D01*
X303828Y1205740D01*
X303726Y1205890D01*
X303629Y1206043D01*
X303535Y1206198D01*
X303445Y1206355D01*
X303359Y1206515D01*
X303277Y1206676D01*
X303198Y1206839D01*
X303124Y1207005D01*
X303054Y1207172D01*
X302987Y1207340D01*
X302925Y1207511D01*
X302867Y1207682D01*
X302813Y1207855D01*
X302763Y1208030D01*
X302718Y1208205D01*
X302677Y1208382D01*
X302640Y1208559D01*
X302607Y1208737D01*
X302579Y1208916D01*
X302555Y1209096D01*
X302535Y1209276D01*
X302520Y1209457D01*
X302509Y1209638D01*
X302502Y1209819D01*
X302500Y1210000D01*
X302502Y1210181D01*
X302509Y1210362D01*
X302520Y1210543D01*
X302535Y1210724D01*
X302555Y1210904D01*
X302579Y1211084D01*
X302607Y1211263D01*
X302640Y1211441D01*
X302677Y1211618D01*
X302718Y1211795D01*
X302763Y1211970D01*
X302813Y1212145D01*
X302867Y1212318D01*
X302925Y1212489D01*
X302987Y1212660D01*
X303054Y1212828D01*
X303124Y1212995D01*
X303198Y1213161D01*
X303277Y1213324D01*
X303359Y1213485D01*
X303445Y1213645D01*
X303535Y1213802D01*
X303629Y1213957D01*
X303726Y1214110D01*
X303828Y1214260D01*
X303932Y1214408D01*
X304041Y1214554D01*
X304152Y1214696D01*
X304268Y1214836D01*
X304386Y1214973D01*
X304508Y1215108D01*
X304633Y1215239D01*
X304761Y1215367D01*
X304892Y1215492D01*
X305027Y1215614D01*
X305164Y1215732D01*
X305304Y1215848D01*
X305446Y1215959D01*
X305592Y1216068D01*
X305740Y1216172D01*
X305890Y1216274D01*
X306043Y1216371D01*
X306198Y1216465D01*
X306355Y1216555D01*
X306515Y1216641D01*
X306676Y1216723D01*
X306839Y1216802D01*
X307005Y1216876D01*
X307172Y1216946D01*
X307340Y1217013D01*
X307511Y1217075D01*
X307682Y1217133D01*
X307855Y1217187D01*
X308030Y1217237D01*
X308205Y1217282D01*
X308382Y1217323D01*
X308559Y1217360D01*
X308737Y1217393D01*
X308916Y1217421D01*
X309096Y1217445D01*
X309276Y1217465D01*
X309457Y1217480D01*
X309638Y1217491D01*
X309819Y1217498D01*
X310000Y1217500D01*
X310181Y1217498D01*
X310362Y1217491D01*
X310543Y1217480D01*
X310724Y1217465D01*
X310904Y1217445D01*
X311084Y1217421D01*
X311263Y1217393D01*
X311441Y1217360D01*
X311618Y1217323D01*
X311795Y1217282D01*
X311970Y1217237D01*
X312145Y1217187D01*
X312318Y1217133D01*
X312489Y1217075D01*
X312660Y1217013D01*
X312828Y1216946D01*
X312995Y1216876D01*
X313161Y1216802D01*
X313324Y1216723D01*
X313485Y1216641D01*
X313645Y1216555D01*
X313802Y1216465D01*
X313957Y1216371D01*
X314110Y1216274D01*
X314260Y1216172D01*
X314408Y1216068D01*
X314554Y1215959D01*
X314696Y1215848D01*
X314836Y1215732D01*
X314973Y1215614D01*
X315108Y1215492D01*
X315239Y1215367D01*
X315367Y1215239D01*
X315492Y1215108D01*
X315614Y1214973D01*
X315732Y1214836D01*
X315848Y1214696D01*
X315959Y1214554D01*
X316068Y1214408D01*
X316172Y1214260D01*
X316274Y1214110D01*
X316371Y1213957D01*
X316465Y1213802D01*
X316555Y1213645D01*
X316641Y1213485D01*
X316723Y1213324D01*
X316802Y1213161D01*
X316876Y1212995D01*
X316946Y1212828D01*
X317013Y1212660D01*
X317075Y1212489D01*
X317133Y1212318D01*
X317187Y1212145D01*
X317237Y1211970D01*
X317282Y1211795D01*
X317323Y1211618D01*
X317360Y1211441D01*
X317393Y1211263D01*
X317421Y1211084D01*
X317445Y1210904D01*
X317465Y1210724D01*
X317480Y1210543D01*
X317491Y1210362D01*
X317498Y1210181D01*
X317500Y1210000D01*
X317498Y1209819D01*
X317491Y1209638D01*
X317480Y1209457D01*
X317465Y1209276D01*
X317445Y1209096D01*
X317421Y1208916D01*
X317393Y1208737D01*
X317360Y1208559D01*
X317323Y1208382D01*
X317282Y1208205D01*
X317237Y1208030D01*
X317187Y1207855D01*
X317133Y1207682D01*
X317075Y1207511D01*
X317013Y1207340D01*
X316946Y1207172D01*
X316876Y1207005D01*
X316802Y1206839D01*
X316723Y1206676D01*
X316641Y1206515D01*
X316555Y1206355D01*
X316465Y1206198D01*
X316371Y1206043D01*
X316274Y1205890D01*
X316172Y1205740D01*
X316068Y1205592D01*
X315959Y1205446D01*
X315848Y1205304D01*
X315732Y1205164D01*
X315614Y1205027D01*
X315492Y1204892D01*
X315367Y1204761D01*
X315239Y1204633D01*
X315108Y1204508D01*
X314973Y1204386D01*
X314836Y1204268D01*
X314696Y1204152D01*
X314554Y1204041D01*
X314408Y1203932D01*
X314260Y1203828D01*
X314110Y1203726D01*
X313957Y1203629D01*
X313802Y1203535D01*
X313645Y1203445D01*
X313485Y1203359D01*
X313324Y1203277D01*
X313161Y1203198D01*
X312995Y1203124D01*
X312828Y1203054D01*
X312660Y1202987D01*
X312489Y1202925D01*
X312318Y1202867D01*
X312145Y1202813D01*
X311970Y1202763D01*
X311795Y1202718D01*
X311618Y1202677D01*
X311441Y1202640D01*
X311263Y1202607D01*
X311084Y1202579D01*
X310904Y1202555D01*
X310724Y1202535D01*
X310543Y1202520D01*
X310362Y1202509D01*
X310181Y1202502D01*
X310000Y1202500D01*
D44*
X310000Y1210000D03*
D43*
X418500Y974000D02*
X418502Y973819D01*
X418509Y973638D01*
X418520Y973457D01*
X418535Y973276D01*
X418555Y973096D01*
X418579Y972916D01*
X418607Y972737D01*
X418640Y972559D01*
X418677Y972382D01*
X418718Y972205D01*
X418763Y972030D01*
X418813Y971855D01*
X418867Y971682D01*
X418925Y971511D01*
X418987Y971340D01*
X419054Y971172D01*
X419124Y971005D01*
X419198Y970839D01*
X419277Y970676D01*
X419359Y970515D01*
X419445Y970355D01*
X419535Y970198D01*
X419629Y970043D01*
X419726Y969890D01*
X419828Y969740D01*
X419932Y969592D01*
X420041Y969446D01*
X420152Y969304D01*
X420268Y969164D01*
X420386Y969027D01*
X420508Y968892D01*
X420633Y968761D01*
X420761Y968633D01*
X420892Y968508D01*
X421027Y968386D01*
X421164Y968268D01*
X421304Y968152D01*
X421446Y968041D01*
X421592Y967932D01*
X421740Y967828D01*
X421890Y967726D01*
X422043Y967629D01*
X422198Y967535D01*
X422355Y967445D01*
X422515Y967359D01*
X422676Y967277D01*
X422839Y967198D01*
X423005Y967124D01*
X423172Y967054D01*
X423340Y966987D01*
X423511Y966925D01*
X423682Y966867D01*
X423855Y966813D01*
X424030Y966763D01*
X424205Y966718D01*
X424382Y966677D01*
X424559Y966640D01*
X424737Y966607D01*
X424916Y966579D01*
X425096Y966555D01*
X425276Y966535D01*
X425457Y966520D01*
X425638Y966509D01*
X425819Y966502D01*
X426000Y966500D01*
X418500Y974000D02*
X418502Y974181D01*
X418509Y974362D01*
X418520Y974543D01*
X418535Y974724D01*
X418555Y974904D01*
X418579Y975084D01*
X418607Y975263D01*
X418640Y975441D01*
X418677Y975618D01*
X418718Y975795D01*
X418763Y975970D01*
X418813Y976145D01*
X418867Y976318D01*
X418925Y976489D01*
X418987Y976660D01*
X419054Y976828D01*
X419124Y976995D01*
X419198Y977161D01*
X419277Y977324D01*
X419359Y977485D01*
X419445Y977645D01*
X419535Y977802D01*
X419629Y977957D01*
X419726Y978110D01*
X419828Y978260D01*
X419932Y978408D01*
X420041Y978554D01*
X420152Y978696D01*
X420268Y978836D01*
X420386Y978973D01*
X420508Y979108D01*
X420633Y979239D01*
X420761Y979367D01*
X420892Y979492D01*
X421027Y979614D01*
X421164Y979732D01*
X421304Y979848D01*
X421446Y979959D01*
X421592Y980068D01*
X421740Y980172D01*
X421890Y980274D01*
X422043Y980371D01*
X422198Y980465D01*
X422355Y980555D01*
X422515Y980641D01*
X422676Y980723D01*
X422839Y980802D01*
X423005Y980876D01*
X423172Y980946D01*
X423340Y981013D01*
X423511Y981075D01*
X423682Y981133D01*
X423855Y981187D01*
X424030Y981237D01*
X424205Y981282D01*
X424382Y981323D01*
X424559Y981360D01*
X424737Y981393D01*
X424916Y981421D01*
X425096Y981445D01*
X425276Y981465D01*
X425457Y981480D01*
X425638Y981491D01*
X425819Y981498D01*
X426000Y981500D01*
X426181Y981498D01*
X426362Y981491D01*
X426543Y981480D01*
X426724Y981465D01*
X426904Y981445D01*
X427084Y981421D01*
X427263Y981393D01*
X427441Y981360D01*
X427618Y981323D01*
X427795Y981282D01*
X427970Y981237D01*
X428145Y981187D01*
X428318Y981133D01*
X428489Y981075D01*
X428660Y981013D01*
X428828Y980946D01*
X428995Y980876D01*
X429161Y980802D01*
X429324Y980723D01*
X429485Y980641D01*
X429645Y980555D01*
X429802Y980465D01*
X429957Y980371D01*
X430110Y980274D01*
X430260Y980172D01*
X430408Y980068D01*
X430554Y979959D01*
X430696Y979848D01*
X430836Y979732D01*
X430973Y979614D01*
X431108Y979492D01*
X431239Y979367D01*
X431367Y979239D01*
X431492Y979108D01*
X431614Y978973D01*
X431732Y978836D01*
X431848Y978696D01*
X431959Y978554D01*
X432068Y978408D01*
X432172Y978260D01*
X432274Y978110D01*
X432371Y977957D01*
X432465Y977802D01*
X432555Y977645D01*
X432641Y977485D01*
X432723Y977324D01*
X432802Y977161D01*
X432876Y976995D01*
X432946Y976828D01*
X433013Y976660D01*
X433075Y976489D01*
X433133Y976318D01*
X433187Y976145D01*
X433237Y975970D01*
X433282Y975795D01*
X433323Y975618D01*
X433360Y975441D01*
X433393Y975263D01*
X433421Y975084D01*
X433445Y974904D01*
X433465Y974724D01*
X433480Y974543D01*
X433491Y974362D01*
X433498Y974181D01*
X433500Y974000D01*
X433498Y973819D01*
X433491Y973638D01*
X433480Y973457D01*
X433465Y973276D01*
X433445Y973096D01*
X433421Y972916D01*
X433393Y972737D01*
X433360Y972559D01*
X433323Y972382D01*
X433282Y972205D01*
X433237Y972030D01*
X433187Y971855D01*
X433133Y971682D01*
X433075Y971511D01*
X433013Y971340D01*
X432946Y971172D01*
X432876Y971005D01*
X432802Y970839D01*
X432723Y970676D01*
X432641Y970515D01*
X432555Y970355D01*
X432465Y970198D01*
X432371Y970043D01*
X432274Y969890D01*
X432172Y969740D01*
X432068Y969592D01*
X431959Y969446D01*
X431848Y969304D01*
X431732Y969164D01*
X431614Y969027D01*
X431492Y968892D01*
X431367Y968761D01*
X431239Y968633D01*
X431108Y968508D01*
X430973Y968386D01*
X430836Y968268D01*
X430696Y968152D01*
X430554Y968041D01*
X430408Y967932D01*
X430260Y967828D01*
X430110Y967726D01*
X429957Y967629D01*
X429802Y967535D01*
X429645Y967445D01*
X429485Y967359D01*
X429324Y967277D01*
X429161Y967198D01*
X428995Y967124D01*
X428828Y967054D01*
X428660Y966987D01*
X428489Y966925D01*
X428318Y966867D01*
X428145Y966813D01*
X427970Y966763D01*
X427795Y966718D01*
X427618Y966677D01*
X427441Y966640D01*
X427263Y966607D01*
X427084Y966579D01*
X426904Y966555D01*
X426724Y966535D01*
X426543Y966520D01*
X426362Y966509D01*
X426181Y966502D01*
X426000Y966500D01*
D44*
X426000Y974000D03*
D43*
X560500Y335000D02*
X560502Y334819D01*
X560509Y334638D01*
X560520Y334457D01*
X560535Y334276D01*
X560555Y334096D01*
X560579Y333916D01*
X560607Y333737D01*
X560640Y333559D01*
X560677Y333382D01*
X560718Y333205D01*
X560763Y333030D01*
X560813Y332855D01*
X560867Y332682D01*
X560925Y332511D01*
X560987Y332340D01*
X561054Y332172D01*
X561124Y332005D01*
X561198Y331839D01*
X561277Y331676D01*
X561359Y331515D01*
X561445Y331355D01*
X561535Y331198D01*
X561629Y331043D01*
X561726Y330890D01*
X561828Y330740D01*
X561932Y330592D01*
X562041Y330446D01*
X562152Y330304D01*
X562268Y330164D01*
X562386Y330027D01*
X562508Y329892D01*
X562633Y329761D01*
X562761Y329633D01*
X562892Y329508D01*
X563027Y329386D01*
X563164Y329268D01*
X563304Y329152D01*
X563446Y329041D01*
X563592Y328932D01*
X563740Y328828D01*
X563890Y328726D01*
X564043Y328629D01*
X564198Y328535D01*
X564355Y328445D01*
X564515Y328359D01*
X564676Y328277D01*
X564839Y328198D01*
X565005Y328124D01*
X565172Y328054D01*
X565340Y327987D01*
X565511Y327925D01*
X565682Y327867D01*
X565855Y327813D01*
X566030Y327763D01*
X566205Y327718D01*
X566382Y327677D01*
X566559Y327640D01*
X566737Y327607D01*
X566916Y327579D01*
X567096Y327555D01*
X567276Y327535D01*
X567457Y327520D01*
X567638Y327509D01*
X567819Y327502D01*
X568000Y327500D01*
X560500Y335000D02*
X560502Y335181D01*
X560509Y335362D01*
X560520Y335543D01*
X560535Y335724D01*
X560555Y335904D01*
X560579Y336084D01*
X560607Y336263D01*
X560640Y336441D01*
X560677Y336618D01*
X560718Y336795D01*
X560763Y336970D01*
X560813Y337145D01*
X560867Y337318D01*
X560925Y337489D01*
X560987Y337660D01*
X561054Y337828D01*
X561124Y337995D01*
X561198Y338161D01*
X561277Y338324D01*
X561359Y338485D01*
X561445Y338645D01*
X561535Y338802D01*
X561629Y338957D01*
X561726Y339110D01*
X561828Y339260D01*
X561932Y339408D01*
X562041Y339554D01*
X562152Y339696D01*
X562268Y339836D01*
X562386Y339973D01*
X562508Y340108D01*
X562633Y340239D01*
X562761Y340367D01*
X562892Y340492D01*
X563027Y340614D01*
X563164Y340732D01*
X563304Y340848D01*
X563446Y340959D01*
X563592Y341068D01*
X563740Y341172D01*
X563890Y341274D01*
X564043Y341371D01*
X564198Y341465D01*
X564355Y341555D01*
X564515Y341641D01*
X564676Y341723D01*
X564839Y341802D01*
X565005Y341876D01*
X565172Y341946D01*
X565340Y342013D01*
X565511Y342075D01*
X565682Y342133D01*
X565855Y342187D01*
X566030Y342237D01*
X566205Y342282D01*
X566382Y342323D01*
X566559Y342360D01*
X566737Y342393D01*
X566916Y342421D01*
X567096Y342445D01*
X567276Y342465D01*
X567457Y342480D01*
X567638Y342491D01*
X567819Y342498D01*
X568000Y342500D01*
X568181Y342498D01*
X568362Y342491D01*
X568543Y342480D01*
X568724Y342465D01*
X568904Y342445D01*
X569084Y342421D01*
X569263Y342393D01*
X569441Y342360D01*
X569618Y342323D01*
X569795Y342282D01*
X569970Y342237D01*
X570145Y342187D01*
X570318Y342133D01*
X570489Y342075D01*
X570660Y342013D01*
X570828Y341946D01*
X570995Y341876D01*
X571161Y341802D01*
X571324Y341723D01*
X571485Y341641D01*
X571645Y341555D01*
X571802Y341465D01*
X571957Y341371D01*
X572110Y341274D01*
X572260Y341172D01*
X572408Y341068D01*
X572554Y340959D01*
X572696Y340848D01*
X572836Y340732D01*
X572973Y340614D01*
X573108Y340492D01*
X573239Y340367D01*
X573367Y340239D01*
X573492Y340108D01*
X573614Y339973D01*
X573732Y339836D01*
X573848Y339696D01*
X573959Y339554D01*
X574068Y339408D01*
X574172Y339260D01*
X574274Y339110D01*
X574371Y338957D01*
X574465Y338802D01*
X574555Y338645D01*
X574641Y338485D01*
X574723Y338324D01*
X574802Y338161D01*
X574876Y337995D01*
X574946Y337828D01*
X575013Y337660D01*
X575075Y337489D01*
X575133Y337318D01*
X575187Y337145D01*
X575237Y336970D01*
X575282Y336795D01*
X575323Y336618D01*
X575360Y336441D01*
X575393Y336263D01*
X575421Y336084D01*
X575445Y335904D01*
X575465Y335724D01*
X575480Y335543D01*
X575491Y335362D01*
X575498Y335181D01*
X575500Y335000D01*
X575498Y334819D01*
X575491Y334638D01*
X575480Y334457D01*
X575465Y334276D01*
X575445Y334096D01*
X575421Y333916D01*
X575393Y333737D01*
X575360Y333559D01*
X575323Y333382D01*
X575282Y333205D01*
X575237Y333030D01*
X575187Y332855D01*
X575133Y332682D01*
X575075Y332511D01*
X575013Y332340D01*
X574946Y332172D01*
X574876Y332005D01*
X574802Y331839D01*
X574723Y331676D01*
X574641Y331515D01*
X574555Y331355D01*
X574465Y331198D01*
X574371Y331043D01*
X574274Y330890D01*
X574172Y330740D01*
X574068Y330592D01*
X573959Y330446D01*
X573848Y330304D01*
X573732Y330164D01*
X573614Y330027D01*
X573492Y329892D01*
X573367Y329761D01*
X573239Y329633D01*
X573108Y329508D01*
X572973Y329386D01*
X572836Y329268D01*
X572696Y329152D01*
X572554Y329041D01*
X572408Y328932D01*
X572260Y328828D01*
X572110Y328726D01*
X571957Y328629D01*
X571802Y328535D01*
X571645Y328445D01*
X571485Y328359D01*
X571324Y328277D01*
X571161Y328198D01*
X570995Y328124D01*
X570828Y328054D01*
X570660Y327987D01*
X570489Y327925D01*
X570318Y327867D01*
X570145Y327813D01*
X569970Y327763D01*
X569795Y327718D01*
X569618Y327677D01*
X569441Y327640D01*
X569263Y327607D01*
X569084Y327579D01*
X568904Y327555D01*
X568724Y327535D01*
X568543Y327520D01*
X568362Y327509D01*
X568181Y327502D01*
X568000Y327500D01*
D44*
X568000Y335000D03*
D30*
X257000Y988000D03*
X257000Y968000D03*
D31*
X234500Y1012000D03*
X234500Y944000D03*
D24*
X614500Y855000D03*
X597500Y855000D03*
D11*
X1396600Y495600D03*
X1396600Y470200D03*
D12*
X1400000Y444800D03*
X1400000Y419400D03*
X1400000Y394000D03*
X1400000Y368600D03*
X1400000Y343200D03*
X1400000Y317800D03*
D11*
X1396600Y292400D03*
X1396600Y267000D03*
X1447400Y267000D03*
X1447400Y292400D03*
D12*
X1444000Y317800D03*
X1444000Y343200D03*
X1444000Y368600D03*
X1444000Y394000D03*
X1444000Y419400D03*
X1444000Y444800D03*
D11*
X1447400Y470200D03*
X1447400Y495600D03*
D13*
X1422000Y482900D03*
X1422000Y279700D03*
D11*
X943400Y918400D03*
X943400Y943800D03*
D12*
X940000Y969200D03*
X940000Y994600D03*
X940000Y1020000D03*
X940000Y1045400D03*
X940000Y1070800D03*
X940000Y1096200D03*
D11*
X943400Y1121600D03*
X943400Y1147000D03*
X892600Y1147000D03*
X892600Y1121600D03*
D12*
X896000Y1096200D03*
X896000Y1070800D03*
X896000Y1045400D03*
X896000Y1020000D03*
X896000Y994600D03*
X896000Y969200D03*
D11*
X892600Y943800D03*
X892600Y918400D03*
D13*
X918000Y931100D03*
X918000Y1134300D03*
D14*
X1282035Y1083175D02*
X1282035Y1067653D01*
X1282035Y1083175D02*
X1285557Y1083175D01*
X1285557Y1067653D01*
X1282035Y1067653D01*
X1282035Y1072887D02*
X1285557Y1072887D01*
X1285557Y1078121D02*
X1282035Y1078121D01*
X1292195Y1214953D02*
X1292195Y1230475D01*
X1295717Y1230475D01*
X1295717Y1214953D01*
X1292195Y1214953D01*
X1292195Y1220187D02*
X1295717Y1220187D01*
X1295717Y1225421D02*
X1292195Y1225421D01*
X1302355Y1230475D02*
X1302355Y1214953D01*
X1302355Y1230475D02*
X1305877Y1230475D01*
X1305877Y1214953D01*
X1302355Y1214953D01*
X1302355Y1220187D02*
X1305877Y1220187D01*
X1305877Y1225421D02*
X1302355Y1225421D01*
X1312515Y1230475D02*
X1312515Y1214953D01*
X1312515Y1230475D02*
X1316037Y1230475D01*
X1316037Y1214953D01*
X1312515Y1214953D01*
X1312515Y1220187D02*
X1316037Y1220187D01*
X1316037Y1225421D02*
X1312515Y1225421D01*
X1322675Y1230475D02*
X1322675Y1214953D01*
X1322675Y1230475D02*
X1326197Y1230475D01*
X1326197Y1214953D01*
X1322675Y1214953D01*
X1322675Y1220187D02*
X1326197Y1220187D01*
X1326197Y1225421D02*
X1322675Y1225421D01*
X1332835Y1230475D02*
X1332835Y1214953D01*
X1332835Y1230475D02*
X1336357Y1230475D01*
X1336357Y1214953D01*
X1332835Y1214953D01*
X1332835Y1220187D02*
X1336357Y1220187D01*
X1336357Y1225421D02*
X1332835Y1225421D01*
X1342995Y1230475D02*
X1342995Y1214953D01*
X1342995Y1230475D02*
X1346517Y1230475D01*
X1346517Y1214953D01*
X1342995Y1214953D01*
X1342995Y1220187D02*
X1346517Y1220187D01*
X1346517Y1225421D02*
X1342995Y1225421D01*
X1353155Y1230475D02*
X1353155Y1214953D01*
X1353155Y1230475D02*
X1356677Y1230475D01*
X1356677Y1214953D01*
X1353155Y1214953D01*
X1353155Y1220187D02*
X1356677Y1220187D01*
X1356677Y1225421D02*
X1353155Y1225421D01*
X1363315Y1230475D02*
X1363315Y1214953D01*
X1363315Y1230475D02*
X1366837Y1230475D01*
X1366837Y1214953D01*
X1363315Y1214953D01*
X1363315Y1220187D02*
X1366837Y1220187D01*
X1366837Y1225421D02*
X1363315Y1225421D01*
X1373475Y1230475D02*
X1373475Y1214953D01*
X1373475Y1230475D02*
X1376997Y1230475D01*
X1376997Y1214953D01*
X1373475Y1214953D01*
X1373475Y1220187D02*
X1376997Y1220187D01*
X1376997Y1225421D02*
X1373475Y1225421D01*
X1383635Y1230475D02*
X1383635Y1214953D01*
X1383635Y1230475D02*
X1387157Y1230475D01*
X1387157Y1214953D01*
X1383635Y1214953D01*
X1383635Y1220187D02*
X1387157Y1220187D01*
X1387157Y1225421D02*
X1383635Y1225421D01*
X1292195Y1083175D02*
X1292195Y1067653D01*
X1292195Y1083175D02*
X1295717Y1083175D01*
X1295717Y1067653D01*
X1292195Y1067653D01*
X1292195Y1072887D02*
X1295717Y1072887D01*
X1295717Y1078121D02*
X1292195Y1078121D01*
X1302355Y1083175D02*
X1302355Y1067653D01*
X1302355Y1083175D02*
X1305877Y1083175D01*
X1305877Y1067653D01*
X1302355Y1067653D01*
X1302355Y1072887D02*
X1305877Y1072887D01*
X1305877Y1078121D02*
X1302355Y1078121D01*
X1312515Y1083175D02*
X1312515Y1067653D01*
X1312515Y1083175D02*
X1316037Y1083175D01*
X1316037Y1067653D01*
X1312515Y1067653D01*
X1312515Y1072887D02*
X1316037Y1072887D01*
X1316037Y1078121D02*
X1312515Y1078121D01*
X1353155Y1083175D02*
X1353155Y1067653D01*
X1353155Y1083175D02*
X1356677Y1083175D01*
X1356677Y1067653D01*
X1353155Y1067653D01*
X1353155Y1072887D02*
X1356677Y1072887D01*
X1356677Y1078121D02*
X1353155Y1078121D01*
X1373475Y1083175D02*
X1373475Y1067653D01*
X1373475Y1083175D02*
X1376997Y1083175D01*
X1376997Y1067653D01*
X1373475Y1067653D01*
X1373475Y1072887D02*
X1376997Y1072887D01*
X1376997Y1078121D02*
X1373475Y1078121D01*
X1383635Y1083175D02*
X1383635Y1067653D01*
X1383635Y1083175D02*
X1387157Y1083175D01*
X1387157Y1067653D01*
X1383635Y1067653D01*
X1383635Y1072887D02*
X1387157Y1072887D01*
X1387157Y1078121D02*
X1383635Y1078121D01*
X1393795Y1083175D02*
X1393795Y1067653D01*
X1393795Y1083175D02*
X1397317Y1083175D01*
X1397317Y1067653D01*
X1393795Y1067653D01*
X1393795Y1072887D02*
X1397317Y1072887D01*
X1397317Y1078121D02*
X1393795Y1078121D01*
X1403955Y1083175D02*
X1403955Y1067653D01*
X1403955Y1083175D02*
X1407477Y1083175D01*
X1407477Y1067653D01*
X1403955Y1067653D01*
X1403955Y1072887D02*
X1407477Y1072887D01*
X1407477Y1078121D02*
X1403955Y1078121D01*
X1264857Y1201953D02*
X1249335Y1201953D01*
X1249335Y1205475D01*
X1264857Y1205475D01*
X1264857Y1201953D01*
X1264857Y1171473D02*
X1249335Y1171473D01*
X1249335Y1174995D01*
X1264857Y1174995D01*
X1264857Y1171473D01*
X1264857Y1161313D02*
X1249335Y1161313D01*
X1249335Y1164835D01*
X1264857Y1164835D01*
X1264857Y1161313D01*
X1264857Y1151153D02*
X1249335Y1151153D01*
X1249335Y1154675D01*
X1264857Y1154675D01*
X1264857Y1151153D01*
X1264857Y1140993D02*
X1249335Y1140993D01*
X1249335Y1144515D01*
X1264857Y1144515D01*
X1264857Y1140993D01*
X1264857Y1130833D02*
X1249335Y1130833D01*
X1249335Y1134355D01*
X1264857Y1134355D01*
X1264857Y1130833D01*
X1264857Y1120673D02*
X1249335Y1120673D01*
X1249335Y1124195D01*
X1264857Y1124195D01*
X1264857Y1120673D01*
X1264857Y1110513D02*
X1249335Y1110513D01*
X1249335Y1114035D01*
X1264857Y1114035D01*
X1264857Y1110513D01*
X1264857Y1100353D02*
X1249335Y1100353D01*
X1249335Y1103875D01*
X1264857Y1103875D01*
X1264857Y1100353D01*
D15*
X1319796Y1153914D03*
D16*
X1208260Y993988D03*
X1208260Y978988D03*
X1208260Y963988D03*
X1208260Y948988D03*
X1208260Y933988D03*
X1208260Y918988D03*
X1208260Y903988D03*
X1208260Y888988D03*
X1208260Y873988D03*
X1208260Y858988D03*
X1368260Y858988D03*
X1368260Y873988D03*
X1368260Y888988D03*
X1368260Y903988D03*
X1368260Y918988D03*
X1368260Y933988D03*
X1368260Y948988D03*
X1368260Y963988D03*
X1368260Y978988D03*
X1368260Y993988D03*
D17*
X1290260Y934488D03*
D18*
X1252577Y1023244D02*
X1242395Y1023244D01*
X1252577Y1023244D02*
X1252577Y1019588D01*
X1242395Y1019588D01*
X1242395Y1023244D01*
X1242395Y1032744D02*
X1252577Y1032744D01*
X1252577Y1029088D01*
X1242395Y1029088D01*
X1242395Y1032744D01*
X1242395Y1042244D02*
X1252577Y1042244D01*
X1252577Y1038588D01*
X1242395Y1038588D01*
X1242395Y1042244D01*
X1229077Y1042244D02*
X1218895Y1042244D01*
X1229077Y1042244D02*
X1229077Y1038588D01*
X1218895Y1038588D01*
X1218895Y1042244D01*
X1218895Y1023244D02*
X1229077Y1023244D01*
X1229077Y1019588D01*
X1218895Y1019588D01*
X1218895Y1023244D01*
X1217768Y1170723D02*
X1217768Y1180905D01*
X1221424Y1180905D01*
X1221424Y1170723D01*
X1217768Y1170723D01*
X1217768Y1174968D02*
X1221424Y1174968D01*
X1221424Y1179213D02*
X1217768Y1179213D01*
X1208268Y1180905D02*
X1208268Y1170723D01*
X1208268Y1180905D02*
X1211924Y1180905D01*
X1211924Y1170723D01*
X1208268Y1170723D01*
X1208268Y1174968D02*
X1211924Y1174968D01*
X1211924Y1179213D02*
X1208268Y1179213D01*
X1198768Y1180905D02*
X1198768Y1170723D01*
X1198768Y1180905D02*
X1202424Y1180905D01*
X1202424Y1170723D01*
X1198768Y1170723D01*
X1198768Y1174968D02*
X1202424Y1174968D01*
X1202424Y1179213D02*
X1198768Y1179213D01*
X1198768Y1157405D02*
X1198768Y1147223D01*
X1198768Y1157405D02*
X1202424Y1157405D01*
X1202424Y1147223D01*
X1198768Y1147223D01*
X1198768Y1151468D02*
X1202424Y1151468D01*
X1202424Y1155713D02*
X1198768Y1155713D01*
X1217768Y1157405D02*
X1217768Y1147223D01*
X1217768Y1157405D02*
X1221424Y1157405D01*
X1221424Y1147223D01*
X1217768Y1147223D01*
X1217768Y1151468D02*
X1221424Y1151468D01*
X1221424Y1155713D02*
X1217768Y1155713D01*
D19*
X1224096Y1132814D03*
X1224096Y1105314D03*
X1206736Y1021166D03*
X1206736Y1048666D03*
D20*
X1196096Y1136814D03*
X1196096Y1119314D03*
X1223736Y1054166D03*
X1223736Y1071666D03*
X1209096Y1136814D03*
X1209096Y1119314D03*
X1191736Y1021166D03*
X1191736Y1038666D03*
D21*
X1283348Y584750D03*
X1334212Y584750D03*
X1283348Y572050D03*
X1283348Y559350D03*
X1334212Y572050D03*
X1334212Y559350D03*
X1283348Y546650D03*
X1334212Y546650D03*
D22*
X1232580Y621190D03*
X1232580Y604190D03*
X1268140Y621190D03*
X1268140Y604190D03*
D23*
X1261191Y593259D02*
X1261191Y581141D01*
X1261191Y593259D02*
X1264109Y593259D01*
X1264109Y581141D01*
X1261191Y581141D01*
X1261191Y584971D02*
X1264109Y584971D01*
X1264109Y588801D02*
X1261191Y588801D01*
X1261191Y592631D02*
X1264109Y592631D01*
X1254691Y593259D02*
X1254691Y581141D01*
X1254691Y593259D02*
X1257609Y593259D01*
X1257609Y581141D01*
X1254691Y581141D01*
X1254691Y584971D02*
X1257609Y584971D01*
X1257609Y588801D02*
X1254691Y588801D01*
X1254691Y592631D02*
X1257609Y592631D01*
X1248191Y593259D02*
X1248191Y581141D01*
X1248191Y593259D02*
X1251109Y593259D01*
X1251109Y581141D01*
X1248191Y581141D01*
X1248191Y584971D02*
X1251109Y584971D01*
X1251109Y588801D02*
X1248191Y588801D01*
X1248191Y592631D02*
X1251109Y592631D01*
X1241691Y593259D02*
X1241691Y581141D01*
X1241691Y593259D02*
X1244609Y593259D01*
X1244609Y581141D01*
X1241691Y581141D01*
X1241691Y584971D02*
X1244609Y584971D01*
X1244609Y588801D02*
X1241691Y588801D01*
X1241691Y592631D02*
X1244609Y592631D01*
X1241691Y550259D02*
X1241691Y538141D01*
X1241691Y550259D02*
X1244609Y550259D01*
X1244609Y538141D01*
X1241691Y538141D01*
X1241691Y541971D02*
X1244609Y541971D01*
X1244609Y545801D02*
X1241691Y545801D01*
X1241691Y549631D02*
X1244609Y549631D01*
X1248191Y550259D02*
X1248191Y538141D01*
X1248191Y550259D02*
X1251109Y550259D01*
X1251109Y538141D01*
X1248191Y538141D01*
X1248191Y541971D02*
X1251109Y541971D01*
X1251109Y545801D02*
X1248191Y545801D01*
X1248191Y549631D02*
X1251109Y549631D01*
X1254691Y550259D02*
X1254691Y538141D01*
X1254691Y550259D02*
X1257609Y550259D01*
X1257609Y538141D01*
X1254691Y538141D01*
X1254691Y541971D02*
X1257609Y541971D01*
X1257609Y545801D02*
X1254691Y545801D01*
X1254691Y549631D02*
X1257609Y549631D01*
X1261191Y550259D02*
X1261191Y538141D01*
X1261191Y550259D02*
X1264109Y550259D01*
X1264109Y538141D01*
X1261191Y538141D01*
X1261191Y541971D02*
X1264109Y541971D01*
X1264109Y545801D02*
X1261191Y545801D01*
X1261191Y549631D02*
X1264109Y549631D01*
D22*
X1242740Y520860D03*
X1242740Y503860D03*
X1334180Y604190D03*
X1334180Y621190D03*
X1339260Y520860D03*
X1339260Y503860D03*
X1284650Y503860D03*
X1284650Y520860D03*
D24*
X1303310Y481880D03*
X1286310Y481880D03*
D18*
X1329667Y688808D02*
X1339849Y688808D01*
X1339849Y685152D01*
X1329667Y685152D01*
X1329667Y688808D01*
X1329667Y698308D02*
X1339849Y698308D01*
X1339849Y694652D01*
X1329667Y694652D01*
X1329667Y698308D01*
X1329667Y707808D02*
X1339849Y707808D01*
X1339849Y704152D01*
X1329667Y704152D01*
X1329667Y707808D01*
X1316349Y707808D02*
X1306167Y707808D01*
X1316349Y707808D02*
X1316349Y704152D01*
X1306167Y704152D01*
X1306167Y707808D01*
X1306167Y688808D02*
X1316349Y688808D01*
X1316349Y685152D01*
X1306167Y685152D01*
X1306167Y688808D01*
D19*
X1294984Y678406D03*
X1294984Y650906D03*
D20*
X1295364Y706154D03*
X1295364Y723654D03*
X1278636Y682422D03*
X1278636Y664922D03*
D25*
X1544176Y917064D03*
X1544176Y977064D03*
D26*
X1530626Y947064D03*
X1530626Y937064D03*
X1530626Y957064D03*
D27*
X1544176Y932064D03*
X1544176Y962064D03*
D22*
X1349816Y725940D03*
X1349816Y708940D03*
D28*
X1428833Y791202D03*
X1428833Y766310D03*
D29*
X1392257Y785106D03*
X1392257Y797806D03*
X1392257Y772406D03*
X1392257Y759706D03*
D28*
X1428833Y664814D03*
X1428833Y639922D03*
D29*
X1392257Y658718D03*
X1392257Y671418D03*
X1392257Y646018D03*
X1392257Y633318D03*
D30*
X1490000Y600740D03*
X1490000Y620740D03*
D31*
X1512500Y576740D03*
X1512500Y644740D03*
D30*
X1490000Y797000D03*
X1490000Y817000D03*
D31*
X1512500Y773000D03*
X1512500Y841000D03*
D32*
X1092358Y1111590D02*
X1090546Y1111590D01*
X1092358Y1111590D02*
X1092358Y1102778D01*
X1090546Y1102778D01*
X1090546Y1111590D01*
X1090546Y1105837D02*
X1092358Y1105837D01*
X1092358Y1108896D02*
X1090546Y1108896D01*
X1087358Y1111590D02*
X1085546Y1111590D01*
X1087358Y1111590D02*
X1087358Y1102778D01*
X1085546Y1102778D01*
X1085546Y1111590D01*
X1085546Y1105837D02*
X1087358Y1105837D01*
X1087358Y1108896D02*
X1085546Y1108896D01*
X1095546Y1111590D02*
X1097358Y1111590D01*
X1097358Y1102778D01*
X1095546Y1102778D01*
X1095546Y1111590D01*
X1095546Y1105837D02*
X1097358Y1105837D01*
X1097358Y1108896D02*
X1095546Y1108896D01*
X1100546Y1111590D02*
X1102358Y1111590D01*
X1102358Y1102778D01*
X1100546Y1102778D01*
X1100546Y1111590D01*
X1100546Y1105837D02*
X1102358Y1105837D01*
X1102358Y1108896D02*
X1100546Y1108896D01*
X1105546Y1111590D02*
X1107358Y1111590D01*
X1107358Y1102778D01*
X1105546Y1102778D01*
X1105546Y1111590D01*
X1105546Y1105837D02*
X1107358Y1105837D01*
X1107358Y1108896D02*
X1105546Y1108896D01*
X1110546Y1111590D02*
X1112358Y1111590D01*
X1112358Y1102778D01*
X1110546Y1102778D01*
X1110546Y1111590D01*
X1110546Y1105837D02*
X1112358Y1105837D01*
X1112358Y1108896D02*
X1110546Y1108896D01*
X1115546Y1111590D02*
X1117358Y1111590D01*
X1117358Y1102778D01*
X1115546Y1102778D01*
X1115546Y1111590D01*
X1115546Y1105837D02*
X1117358Y1105837D01*
X1117358Y1108896D02*
X1115546Y1108896D01*
X1120546Y1111590D02*
X1122358Y1111590D01*
X1122358Y1102778D01*
X1120546Y1102778D01*
X1120546Y1111590D01*
X1120546Y1105837D02*
X1122358Y1105837D01*
X1122358Y1108896D02*
X1120546Y1108896D01*
D33*
X1126452Y1107184D03*
D32*
X1082358Y1111590D02*
X1080546Y1111590D01*
X1082358Y1111590D02*
X1082358Y1102778D01*
X1080546Y1102778D01*
X1080546Y1111590D01*
X1080546Y1105837D02*
X1082358Y1105837D01*
X1082358Y1108896D02*
X1080546Y1108896D01*
X1077358Y1111590D02*
X1075546Y1111590D01*
X1077358Y1111590D02*
X1077358Y1102778D01*
X1075546Y1102778D01*
X1075546Y1111590D01*
X1075546Y1105837D02*
X1077358Y1105837D01*
X1077358Y1108896D02*
X1075546Y1108896D01*
X1072358Y1111590D02*
X1070546Y1111590D01*
X1072358Y1111590D02*
X1072358Y1102778D01*
X1070546Y1102778D01*
X1070546Y1111590D01*
X1070546Y1105837D02*
X1072358Y1105837D01*
X1072358Y1108896D02*
X1070546Y1108896D01*
X1067358Y1111590D02*
X1065546Y1111590D01*
X1067358Y1111590D02*
X1067358Y1102778D01*
X1065546Y1102778D01*
X1065546Y1111590D01*
X1065546Y1105837D02*
X1067358Y1105837D01*
X1067358Y1108896D02*
X1065546Y1108896D01*
X1062358Y1111590D02*
X1060546Y1111590D01*
X1062358Y1111590D02*
X1062358Y1102778D01*
X1060546Y1102778D01*
X1060546Y1111590D01*
X1060546Y1105837D02*
X1062358Y1105837D01*
X1062358Y1108896D02*
X1060546Y1108896D01*
X1057358Y1111590D02*
X1055546Y1111590D01*
X1057358Y1111590D02*
X1057358Y1102778D01*
X1055546Y1102778D01*
X1055546Y1111590D01*
X1055546Y1105837D02*
X1057358Y1105837D01*
X1057358Y1108896D02*
X1055546Y1108896D01*
X1052358Y1111590D02*
X1050546Y1111590D01*
X1052358Y1111590D02*
X1052358Y1102778D01*
X1050546Y1102778D01*
X1050546Y1111590D01*
X1050546Y1105837D02*
X1052358Y1105837D01*
X1052358Y1108896D02*
X1050546Y1108896D01*
D34*
X1028452Y1134184D03*
X1149452Y1134184D03*
D32*
X1092358Y1009482D02*
X1090546Y1009482D01*
X1092358Y1009482D02*
X1092358Y1000670D01*
X1090546Y1000670D01*
X1090546Y1009482D01*
X1090546Y1003729D02*
X1092358Y1003729D01*
X1092358Y1006788D02*
X1090546Y1006788D01*
X1087358Y1009482D02*
X1085546Y1009482D01*
X1087358Y1009482D02*
X1087358Y1000670D01*
X1085546Y1000670D01*
X1085546Y1009482D01*
X1085546Y1003729D02*
X1087358Y1003729D01*
X1087358Y1006788D02*
X1085546Y1006788D01*
X1095546Y1009482D02*
X1097358Y1009482D01*
X1097358Y1000670D01*
X1095546Y1000670D01*
X1095546Y1009482D01*
X1095546Y1003729D02*
X1097358Y1003729D01*
X1097358Y1006788D02*
X1095546Y1006788D01*
X1100546Y1009482D02*
X1102358Y1009482D01*
X1102358Y1000670D01*
X1100546Y1000670D01*
X1100546Y1009482D01*
X1100546Y1003729D02*
X1102358Y1003729D01*
X1102358Y1006788D02*
X1100546Y1006788D01*
X1105546Y1009482D02*
X1107358Y1009482D01*
X1107358Y1000670D01*
X1105546Y1000670D01*
X1105546Y1009482D01*
X1105546Y1003729D02*
X1107358Y1003729D01*
X1107358Y1006788D02*
X1105546Y1006788D01*
X1110546Y1009482D02*
X1112358Y1009482D01*
X1112358Y1000670D01*
X1110546Y1000670D01*
X1110546Y1009482D01*
X1110546Y1003729D02*
X1112358Y1003729D01*
X1112358Y1006788D02*
X1110546Y1006788D01*
X1115546Y1009482D02*
X1117358Y1009482D01*
X1117358Y1000670D01*
X1115546Y1000670D01*
X1115546Y1009482D01*
X1115546Y1003729D02*
X1117358Y1003729D01*
X1117358Y1006788D02*
X1115546Y1006788D01*
X1120546Y1009482D02*
X1122358Y1009482D01*
X1122358Y1000670D01*
X1120546Y1000670D01*
X1120546Y1009482D01*
X1120546Y1003729D02*
X1122358Y1003729D01*
X1122358Y1006788D02*
X1120546Y1006788D01*
D33*
X1126452Y1005076D03*
D32*
X1082358Y1009482D02*
X1080546Y1009482D01*
X1082358Y1009482D02*
X1082358Y1000670D01*
X1080546Y1000670D01*
X1080546Y1009482D01*
X1080546Y1003729D02*
X1082358Y1003729D01*
X1082358Y1006788D02*
X1080546Y1006788D01*
X1077358Y1009482D02*
X1075546Y1009482D01*
X1077358Y1009482D02*
X1077358Y1000670D01*
X1075546Y1000670D01*
X1075546Y1009482D01*
X1075546Y1003729D02*
X1077358Y1003729D01*
X1077358Y1006788D02*
X1075546Y1006788D01*
X1072358Y1009482D02*
X1070546Y1009482D01*
X1072358Y1009482D02*
X1072358Y1000670D01*
X1070546Y1000670D01*
X1070546Y1009482D01*
X1070546Y1003729D02*
X1072358Y1003729D01*
X1072358Y1006788D02*
X1070546Y1006788D01*
X1067358Y1009482D02*
X1065546Y1009482D01*
X1067358Y1009482D02*
X1067358Y1000670D01*
X1065546Y1000670D01*
X1065546Y1009482D01*
X1065546Y1003729D02*
X1067358Y1003729D01*
X1067358Y1006788D02*
X1065546Y1006788D01*
X1062358Y1009482D02*
X1060546Y1009482D01*
X1062358Y1009482D02*
X1062358Y1000670D01*
X1060546Y1000670D01*
X1060546Y1009482D01*
X1060546Y1003729D02*
X1062358Y1003729D01*
X1062358Y1006788D02*
X1060546Y1006788D01*
X1057358Y1009482D02*
X1055546Y1009482D01*
X1057358Y1009482D02*
X1057358Y1000670D01*
X1055546Y1000670D01*
X1055546Y1009482D01*
X1055546Y1003729D02*
X1057358Y1003729D01*
X1057358Y1006788D02*
X1055546Y1006788D01*
X1052358Y1009482D02*
X1050546Y1009482D01*
X1052358Y1009482D02*
X1052358Y1000670D01*
X1050546Y1000670D01*
X1050546Y1009482D01*
X1050546Y1003729D02*
X1052358Y1003729D01*
X1052358Y1006788D02*
X1050546Y1006788D01*
D34*
X1028452Y1032076D03*
X1149452Y1032076D03*
D35*
X1039700Y694150D03*
X1039700Y681450D03*
X1039700Y668750D03*
X1039700Y656050D03*
X1039700Y643350D03*
X1039700Y630650D03*
X1039700Y617950D03*
X1039700Y605250D03*
X1039700Y592550D03*
X1039700Y579850D03*
X1027000Y579850D03*
X1027000Y592550D03*
X1027000Y605250D03*
X1027000Y617950D03*
X1027000Y630650D03*
X1027000Y643350D03*
X1027000Y656050D03*
X1027000Y668750D03*
X1027000Y681450D03*
X1027000Y694150D03*
D36*
X982500Y719100D03*
X982500Y554900D03*
X1031500Y554900D03*
X1031500Y719100D03*
D37*
X1007000Y716250D03*
X1007000Y557750D03*
D38*
X1315000Y526250D03*
X1311000Y526250D03*
X1307000Y526250D03*
X1303000Y526250D03*
X1299000Y526250D03*
X1299000Y501750D03*
X1303000Y501750D03*
X1307000Y501750D03*
X1311000Y501750D03*
X1315000Y501750D03*
D39*
X1307000Y514000D03*
D40*
X1353000Y805250D03*
X1353000Y834750D03*
D41*
X1368250Y820000D03*
D42*
X1285000Y1039500D03*
X1285000Y1020500D03*
D22*
X1162000Y1090500D03*
X1162000Y1107500D03*
X1172000Y994500D03*
X1172000Y1011500D03*
X1337000Y330500D03*
X1337000Y313500D03*
X984000Y1050500D03*
X984000Y1033500D03*
X984000Y1081500D03*
X984000Y1098500D03*
D13*
X1190800Y297410D03*
X1089200Y297410D03*
D43*
X897500Y1207000D02*
X897498Y1207181D01*
X897491Y1207362D01*
X897480Y1207543D01*
X897465Y1207724D01*
X897445Y1207904D01*
X897421Y1208084D01*
X897393Y1208263D01*
X897360Y1208441D01*
X897323Y1208618D01*
X897282Y1208795D01*
X897237Y1208970D01*
X897187Y1209145D01*
X897133Y1209318D01*
X897075Y1209489D01*
X897013Y1209660D01*
X896946Y1209828D01*
X896876Y1209995D01*
X896802Y1210161D01*
X896723Y1210324D01*
X896641Y1210485D01*
X896555Y1210645D01*
X896465Y1210802D01*
X896371Y1210957D01*
X896274Y1211110D01*
X896172Y1211260D01*
X896068Y1211408D01*
X895959Y1211554D01*
X895848Y1211696D01*
X895732Y1211836D01*
X895614Y1211973D01*
X895492Y1212108D01*
X895367Y1212239D01*
X895239Y1212367D01*
X895108Y1212492D01*
X894973Y1212614D01*
X894836Y1212732D01*
X894696Y1212848D01*
X894554Y1212959D01*
X894408Y1213068D01*
X894260Y1213172D01*
X894110Y1213274D01*
X893957Y1213371D01*
X893802Y1213465D01*
X893645Y1213555D01*
X893485Y1213641D01*
X893324Y1213723D01*
X893161Y1213802D01*
X892995Y1213876D01*
X892828Y1213946D01*
X892660Y1214013D01*
X892489Y1214075D01*
X892318Y1214133D01*
X892145Y1214187D01*
X891970Y1214237D01*
X891795Y1214282D01*
X891618Y1214323D01*
X891441Y1214360D01*
X891263Y1214393D01*
X891084Y1214421D01*
X890904Y1214445D01*
X890724Y1214465D01*
X890543Y1214480D01*
X890362Y1214491D01*
X890181Y1214498D01*
X890000Y1214500D01*
X897500Y1207000D02*
X897498Y1206819D01*
X897491Y1206638D01*
X897480Y1206457D01*
X897465Y1206276D01*
X897445Y1206096D01*
X897421Y1205916D01*
X897393Y1205737D01*
X897360Y1205559D01*
X897323Y1205382D01*
X897282Y1205205D01*
X897237Y1205030D01*
X897187Y1204855D01*
X897133Y1204682D01*
X897075Y1204511D01*
X897013Y1204340D01*
X896946Y1204172D01*
X896876Y1204005D01*
X896802Y1203839D01*
X896723Y1203676D01*
X896641Y1203515D01*
X896555Y1203355D01*
X896465Y1203198D01*
X896371Y1203043D01*
X896274Y1202890D01*
X896172Y1202740D01*
X896068Y1202592D01*
X895959Y1202446D01*
X895848Y1202304D01*
X895732Y1202164D01*
X895614Y1202027D01*
X895492Y1201892D01*
X895367Y1201761D01*
X895239Y1201633D01*
X895108Y1201508D01*
X894973Y1201386D01*
X894836Y1201268D01*
X894696Y1201152D01*
X894554Y1201041D01*
X894408Y1200932D01*
X894260Y1200828D01*
X894110Y1200726D01*
X893957Y1200629D01*
X893802Y1200535D01*
X893645Y1200445D01*
X893485Y1200359D01*
X893324Y1200277D01*
X893161Y1200198D01*
X892995Y1200124D01*
X892828Y1200054D01*
X892660Y1199987D01*
X892489Y1199925D01*
X892318Y1199867D01*
X892145Y1199813D01*
X891970Y1199763D01*
X891795Y1199718D01*
X891618Y1199677D01*
X891441Y1199640D01*
X891263Y1199607D01*
X891084Y1199579D01*
X890904Y1199555D01*
X890724Y1199535D01*
X890543Y1199520D01*
X890362Y1199509D01*
X890181Y1199502D01*
X890000Y1199500D01*
X889819Y1199502D01*
X889638Y1199509D01*
X889457Y1199520D01*
X889276Y1199535D01*
X889096Y1199555D01*
X888916Y1199579D01*
X888737Y1199607D01*
X888559Y1199640D01*
X888382Y1199677D01*
X888205Y1199718D01*
X888030Y1199763D01*
X887855Y1199813D01*
X887682Y1199867D01*
X887511Y1199925D01*
X887340Y1199987D01*
X887172Y1200054D01*
X887005Y1200124D01*
X886839Y1200198D01*
X886676Y1200277D01*
X886515Y1200359D01*
X886355Y1200445D01*
X886198Y1200535D01*
X886043Y1200629D01*
X885890Y1200726D01*
X885740Y1200828D01*
X885592Y1200932D01*
X885446Y1201041D01*
X885304Y1201152D01*
X885164Y1201268D01*
X885027Y1201386D01*
X884892Y1201508D01*
X884761Y1201633D01*
X884633Y1201761D01*
X884508Y1201892D01*
X884386Y1202027D01*
X884268Y1202164D01*
X884152Y1202304D01*
X884041Y1202446D01*
X883932Y1202592D01*
X883828Y1202740D01*
X883726Y1202890D01*
X883629Y1203043D01*
X883535Y1203198D01*
X883445Y1203355D01*
X883359Y1203515D01*
X883277Y1203676D01*
X883198Y1203839D01*
X883124Y1204005D01*
X883054Y1204172D01*
X882987Y1204340D01*
X882925Y1204511D01*
X882867Y1204682D01*
X882813Y1204855D01*
X882763Y1205030D01*
X882718Y1205205D01*
X882677Y1205382D01*
X882640Y1205559D01*
X882607Y1205737D01*
X882579Y1205916D01*
X882555Y1206096D01*
X882535Y1206276D01*
X882520Y1206457D01*
X882509Y1206638D01*
X882502Y1206819D01*
X882500Y1207000D01*
X882502Y1207181D01*
X882509Y1207362D01*
X882520Y1207543D01*
X882535Y1207724D01*
X882555Y1207904D01*
X882579Y1208084D01*
X882607Y1208263D01*
X882640Y1208441D01*
X882677Y1208618D01*
X882718Y1208795D01*
X882763Y1208970D01*
X882813Y1209145D01*
X882867Y1209318D01*
X882925Y1209489D01*
X882987Y1209660D01*
X883054Y1209828D01*
X883124Y1209995D01*
X883198Y1210161D01*
X883277Y1210324D01*
X883359Y1210485D01*
X883445Y1210645D01*
X883535Y1210802D01*
X883629Y1210957D01*
X883726Y1211110D01*
X883828Y1211260D01*
X883932Y1211408D01*
X884041Y1211554D01*
X884152Y1211696D01*
X884268Y1211836D01*
X884386Y1211973D01*
X884508Y1212108D01*
X884633Y1212239D01*
X884761Y1212367D01*
X884892Y1212492D01*
X885027Y1212614D01*
X885164Y1212732D01*
X885304Y1212848D01*
X885446Y1212959D01*
X885592Y1213068D01*
X885740Y1213172D01*
X885890Y1213274D01*
X886043Y1213371D01*
X886198Y1213465D01*
X886355Y1213555D01*
X886515Y1213641D01*
X886676Y1213723D01*
X886839Y1213802D01*
X887005Y1213876D01*
X887172Y1213946D01*
X887340Y1214013D01*
X887511Y1214075D01*
X887682Y1214133D01*
X887855Y1214187D01*
X888030Y1214237D01*
X888205Y1214282D01*
X888382Y1214323D01*
X888559Y1214360D01*
X888737Y1214393D01*
X888916Y1214421D01*
X889096Y1214445D01*
X889276Y1214465D01*
X889457Y1214480D01*
X889638Y1214491D01*
X889819Y1214498D01*
X890000Y1214500D01*
D44*
X890000Y1207000D03*
D43*
X1440000Y214500D02*
X1440181Y214498D01*
X1440362Y214491D01*
X1440543Y214480D01*
X1440724Y214465D01*
X1440904Y214445D01*
X1441084Y214421D01*
X1441263Y214393D01*
X1441441Y214360D01*
X1441618Y214323D01*
X1441795Y214282D01*
X1441970Y214237D01*
X1442145Y214187D01*
X1442318Y214133D01*
X1442489Y214075D01*
X1442660Y214013D01*
X1442828Y213946D01*
X1442995Y213876D01*
X1443161Y213802D01*
X1443324Y213723D01*
X1443485Y213641D01*
X1443645Y213555D01*
X1443802Y213465D01*
X1443957Y213371D01*
X1444110Y213274D01*
X1444260Y213172D01*
X1444408Y213068D01*
X1444554Y212959D01*
X1444696Y212848D01*
X1444836Y212732D01*
X1444973Y212614D01*
X1445108Y212492D01*
X1445239Y212367D01*
X1445367Y212239D01*
X1445492Y212108D01*
X1445614Y211973D01*
X1445732Y211836D01*
X1445848Y211696D01*
X1445959Y211554D01*
X1446068Y211408D01*
X1446172Y211260D01*
X1446274Y211110D01*
X1446371Y210957D01*
X1446465Y210802D01*
X1446555Y210645D01*
X1446641Y210485D01*
X1446723Y210324D01*
X1446802Y210161D01*
X1446876Y209995D01*
X1446946Y209828D01*
X1447013Y209660D01*
X1447075Y209489D01*
X1447133Y209318D01*
X1447187Y209145D01*
X1447237Y208970D01*
X1447282Y208795D01*
X1447323Y208618D01*
X1447360Y208441D01*
X1447393Y208263D01*
X1447421Y208084D01*
X1447445Y207904D01*
X1447465Y207724D01*
X1447480Y207543D01*
X1447491Y207362D01*
X1447498Y207181D01*
X1447500Y207000D01*
X1447498Y206819D01*
X1447491Y206638D01*
X1447480Y206457D01*
X1447465Y206276D01*
X1447445Y206096D01*
X1447421Y205916D01*
X1447393Y205737D01*
X1447360Y205559D01*
X1447323Y205382D01*
X1447282Y205205D01*
X1447237Y205030D01*
X1447187Y204855D01*
X1447133Y204682D01*
X1447075Y204511D01*
X1447013Y204340D01*
X1446946Y204172D01*
X1446876Y204005D01*
X1446802Y203839D01*
X1446723Y203676D01*
X1446641Y203515D01*
X1446555Y203355D01*
X1446465Y203198D01*
X1446371Y203043D01*
X1446274Y202890D01*
X1446172Y202740D01*
X1446068Y202592D01*
X1445959Y202446D01*
X1445848Y202304D01*
X1445732Y202164D01*
X1445614Y202027D01*
X1445492Y201892D01*
X1445367Y201761D01*
X1445239Y201633D01*
X1445108Y201508D01*
X1444973Y201386D01*
X1444836Y201268D01*
X1444696Y201152D01*
X1444554Y201041D01*
X1444408Y200932D01*
X1444260Y200828D01*
X1444110Y200726D01*
X1443957Y200629D01*
X1443802Y200535D01*
X1443645Y200445D01*
X1443485Y200359D01*
X1443324Y200277D01*
X1443161Y200198D01*
X1442995Y200124D01*
X1442828Y200054D01*
X1442660Y199987D01*
X1442489Y199925D01*
X1442318Y199867D01*
X1442145Y199813D01*
X1441970Y199763D01*
X1441795Y199718D01*
X1441618Y199677D01*
X1441441Y199640D01*
X1441263Y199607D01*
X1441084Y199579D01*
X1440904Y199555D01*
X1440724Y199535D01*
X1440543Y199520D01*
X1440362Y199509D01*
X1440181Y199502D01*
X1440000Y199500D01*
X1439819Y199502D01*
X1439638Y199509D01*
X1439457Y199520D01*
X1439276Y199535D01*
X1439096Y199555D01*
X1438916Y199579D01*
X1438737Y199607D01*
X1438559Y199640D01*
X1438382Y199677D01*
X1438205Y199718D01*
X1438030Y199763D01*
X1437855Y199813D01*
X1437682Y199867D01*
X1437511Y199925D01*
X1437340Y199987D01*
X1437172Y200054D01*
X1437005Y200124D01*
X1436839Y200198D01*
X1436676Y200277D01*
X1436515Y200359D01*
X1436355Y200445D01*
X1436198Y200535D01*
X1436043Y200629D01*
X1435890Y200726D01*
X1435740Y200828D01*
X1435592Y200932D01*
X1435446Y201041D01*
X1435304Y201152D01*
X1435164Y201268D01*
X1435027Y201386D01*
X1434892Y201508D01*
X1434761Y201633D01*
X1434633Y201761D01*
X1434508Y201892D01*
X1434386Y202027D01*
X1434268Y202164D01*
X1434152Y202304D01*
X1434041Y202446D01*
X1433932Y202592D01*
X1433828Y202740D01*
X1433726Y202890D01*
X1433629Y203043D01*
X1433535Y203198D01*
X1433445Y203355D01*
X1433359Y203515D01*
X1433277Y203676D01*
X1433198Y203839D01*
X1433124Y204005D01*
X1433054Y204172D01*
X1432987Y204340D01*
X1432925Y204511D01*
X1432867Y204682D01*
X1432813Y204855D01*
X1432763Y205030D01*
X1432718Y205205D01*
X1432677Y205382D01*
X1432640Y205559D01*
X1432607Y205737D01*
X1432579Y205916D01*
X1432555Y206096D01*
X1432535Y206276D01*
X1432520Y206457D01*
X1432509Y206638D01*
X1432502Y206819D01*
X1432500Y207000D01*
X1432502Y207181D01*
X1432509Y207362D01*
X1432520Y207543D01*
X1432535Y207724D01*
X1432555Y207904D01*
X1432579Y208084D01*
X1432607Y208263D01*
X1432640Y208441D01*
X1432677Y208618D01*
X1432718Y208795D01*
X1432763Y208970D01*
X1432813Y209145D01*
X1432867Y209318D01*
X1432925Y209489D01*
X1432987Y209660D01*
X1433054Y209828D01*
X1433124Y209995D01*
X1433198Y210161D01*
X1433277Y210324D01*
X1433359Y210485D01*
X1433445Y210645D01*
X1433535Y210802D01*
X1433629Y210957D01*
X1433726Y211110D01*
X1433828Y211260D01*
X1433932Y211408D01*
X1434041Y211554D01*
X1434152Y211696D01*
X1434268Y211836D01*
X1434386Y211973D01*
X1434508Y212108D01*
X1434633Y212239D01*
X1434761Y212367D01*
X1434892Y212492D01*
X1435027Y212614D01*
X1435164Y212732D01*
X1435304Y212848D01*
X1435446Y212959D01*
X1435592Y213068D01*
X1435740Y213172D01*
X1435890Y213274D01*
X1436043Y213371D01*
X1436198Y213465D01*
X1436355Y213555D01*
X1436515Y213641D01*
X1436676Y213723D01*
X1436839Y213802D01*
X1437005Y213876D01*
X1437172Y213946D01*
X1437340Y214013D01*
X1437511Y214075D01*
X1437682Y214133D01*
X1437855Y214187D01*
X1438030Y214237D01*
X1438205Y214282D01*
X1438382Y214323D01*
X1438559Y214360D01*
X1438737Y214393D01*
X1438916Y214421D01*
X1439096Y214445D01*
X1439276Y214465D01*
X1439457Y214480D01*
X1439638Y214491D01*
X1439819Y214498D01*
X1440000Y214500D01*
D44*
X1440000Y207000D03*
D43*
X1331500Y443000D02*
X1331498Y443181D01*
X1331491Y443362D01*
X1331480Y443543D01*
X1331465Y443724D01*
X1331445Y443904D01*
X1331421Y444084D01*
X1331393Y444263D01*
X1331360Y444441D01*
X1331323Y444618D01*
X1331282Y444795D01*
X1331237Y444970D01*
X1331187Y445145D01*
X1331133Y445318D01*
X1331075Y445489D01*
X1331013Y445660D01*
X1330946Y445828D01*
X1330876Y445995D01*
X1330802Y446161D01*
X1330723Y446324D01*
X1330641Y446485D01*
X1330555Y446645D01*
X1330465Y446802D01*
X1330371Y446957D01*
X1330274Y447110D01*
X1330172Y447260D01*
X1330068Y447408D01*
X1329959Y447554D01*
X1329848Y447696D01*
X1329732Y447836D01*
X1329614Y447973D01*
X1329492Y448108D01*
X1329367Y448239D01*
X1329239Y448367D01*
X1329108Y448492D01*
X1328973Y448614D01*
X1328836Y448732D01*
X1328696Y448848D01*
X1328554Y448959D01*
X1328408Y449068D01*
X1328260Y449172D01*
X1328110Y449274D01*
X1327957Y449371D01*
X1327802Y449465D01*
X1327645Y449555D01*
X1327485Y449641D01*
X1327324Y449723D01*
X1327161Y449802D01*
X1326995Y449876D01*
X1326828Y449946D01*
X1326660Y450013D01*
X1326489Y450075D01*
X1326318Y450133D01*
X1326145Y450187D01*
X1325970Y450237D01*
X1325795Y450282D01*
X1325618Y450323D01*
X1325441Y450360D01*
X1325263Y450393D01*
X1325084Y450421D01*
X1324904Y450445D01*
X1324724Y450465D01*
X1324543Y450480D01*
X1324362Y450491D01*
X1324181Y450498D01*
X1324000Y450500D01*
X1331500Y443000D02*
X1331498Y442819D01*
X1331491Y442638D01*
X1331480Y442457D01*
X1331465Y442276D01*
X1331445Y442096D01*
X1331421Y441916D01*
X1331393Y441737D01*
X1331360Y441559D01*
X1331323Y441382D01*
X1331282Y441205D01*
X1331237Y441030D01*
X1331187Y440855D01*
X1331133Y440682D01*
X1331075Y440511D01*
X1331013Y440340D01*
X1330946Y440172D01*
X1330876Y440005D01*
X1330802Y439839D01*
X1330723Y439676D01*
X1330641Y439515D01*
X1330555Y439355D01*
X1330465Y439198D01*
X1330371Y439043D01*
X1330274Y438890D01*
X1330172Y438740D01*
X1330068Y438592D01*
X1329959Y438446D01*
X1329848Y438304D01*
X1329732Y438164D01*
X1329614Y438027D01*
X1329492Y437892D01*
X1329367Y437761D01*
X1329239Y437633D01*
X1329108Y437508D01*
X1328973Y437386D01*
X1328836Y437268D01*
X1328696Y437152D01*
X1328554Y437041D01*
X1328408Y436932D01*
X1328260Y436828D01*
X1328110Y436726D01*
X1327957Y436629D01*
X1327802Y436535D01*
X1327645Y436445D01*
X1327485Y436359D01*
X1327324Y436277D01*
X1327161Y436198D01*
X1326995Y436124D01*
X1326828Y436054D01*
X1326660Y435987D01*
X1326489Y435925D01*
X1326318Y435867D01*
X1326145Y435813D01*
X1325970Y435763D01*
X1325795Y435718D01*
X1325618Y435677D01*
X1325441Y435640D01*
X1325263Y435607D01*
X1325084Y435579D01*
X1324904Y435555D01*
X1324724Y435535D01*
X1324543Y435520D01*
X1324362Y435509D01*
X1324181Y435502D01*
X1324000Y435500D01*
X1323819Y435502D01*
X1323638Y435509D01*
X1323457Y435520D01*
X1323276Y435535D01*
X1323096Y435555D01*
X1322916Y435579D01*
X1322737Y435607D01*
X1322559Y435640D01*
X1322382Y435677D01*
X1322205Y435718D01*
X1322030Y435763D01*
X1321855Y435813D01*
X1321682Y435867D01*
X1321511Y435925D01*
X1321340Y435987D01*
X1321172Y436054D01*
X1321005Y436124D01*
X1320839Y436198D01*
X1320676Y436277D01*
X1320515Y436359D01*
X1320355Y436445D01*
X1320198Y436535D01*
X1320043Y436629D01*
X1319890Y436726D01*
X1319740Y436828D01*
X1319592Y436932D01*
X1319446Y437041D01*
X1319304Y437152D01*
X1319164Y437268D01*
X1319027Y437386D01*
X1318892Y437508D01*
X1318761Y437633D01*
X1318633Y437761D01*
X1318508Y437892D01*
X1318386Y438027D01*
X1318268Y438164D01*
X1318152Y438304D01*
X1318041Y438446D01*
X1317932Y438592D01*
X1317828Y438740D01*
X1317726Y438890D01*
X1317629Y439043D01*
X1317535Y439198D01*
X1317445Y439355D01*
X1317359Y439515D01*
X1317277Y439676D01*
X1317198Y439839D01*
X1317124Y440005D01*
X1317054Y440172D01*
X1316987Y440340D01*
X1316925Y440511D01*
X1316867Y440682D01*
X1316813Y440855D01*
X1316763Y441030D01*
X1316718Y441205D01*
X1316677Y441382D01*
X1316640Y441559D01*
X1316607Y441737D01*
X1316579Y441916D01*
X1316555Y442096D01*
X1316535Y442276D01*
X1316520Y442457D01*
X1316509Y442638D01*
X1316502Y442819D01*
X1316500Y443000D01*
X1316502Y443181D01*
X1316509Y443362D01*
X1316520Y443543D01*
X1316535Y443724D01*
X1316555Y443904D01*
X1316579Y444084D01*
X1316607Y444263D01*
X1316640Y444441D01*
X1316677Y444618D01*
X1316718Y444795D01*
X1316763Y444970D01*
X1316813Y445145D01*
X1316867Y445318D01*
X1316925Y445489D01*
X1316987Y445660D01*
X1317054Y445828D01*
X1317124Y445995D01*
X1317198Y446161D01*
X1317277Y446324D01*
X1317359Y446485D01*
X1317445Y446645D01*
X1317535Y446802D01*
X1317629Y446957D01*
X1317726Y447110D01*
X1317828Y447260D01*
X1317932Y447408D01*
X1318041Y447554D01*
X1318152Y447696D01*
X1318268Y447836D01*
X1318386Y447973D01*
X1318508Y448108D01*
X1318633Y448239D01*
X1318761Y448367D01*
X1318892Y448492D01*
X1319027Y448614D01*
X1319164Y448732D01*
X1319304Y448848D01*
X1319446Y448959D01*
X1319592Y449068D01*
X1319740Y449172D01*
X1319890Y449274D01*
X1320043Y449371D01*
X1320198Y449465D01*
X1320355Y449555D01*
X1320515Y449641D01*
X1320676Y449723D01*
X1320839Y449802D01*
X1321005Y449876D01*
X1321172Y449946D01*
X1321340Y450013D01*
X1321511Y450075D01*
X1321682Y450133D01*
X1321855Y450187D01*
X1322030Y450237D01*
X1322205Y450282D01*
X1322382Y450323D01*
X1322559Y450360D01*
X1322737Y450393D01*
X1322916Y450421D01*
X1323096Y450445D01*
X1323276Y450465D01*
X1323457Y450480D01*
X1323638Y450491D01*
X1323819Y450498D01*
X1324000Y450500D01*
D44*
X1324000Y443000D03*
D43*
X1189500Y1082000D02*
X1189498Y1082181D01*
X1189491Y1082362D01*
X1189480Y1082543D01*
X1189465Y1082724D01*
X1189445Y1082904D01*
X1189421Y1083084D01*
X1189393Y1083263D01*
X1189360Y1083441D01*
X1189323Y1083618D01*
X1189282Y1083795D01*
X1189237Y1083970D01*
X1189187Y1084145D01*
X1189133Y1084318D01*
X1189075Y1084489D01*
X1189013Y1084660D01*
X1188946Y1084828D01*
X1188876Y1084995D01*
X1188802Y1085161D01*
X1188723Y1085324D01*
X1188641Y1085485D01*
X1188555Y1085645D01*
X1188465Y1085802D01*
X1188371Y1085957D01*
X1188274Y1086110D01*
X1188172Y1086260D01*
X1188068Y1086408D01*
X1187959Y1086554D01*
X1187848Y1086696D01*
X1187732Y1086836D01*
X1187614Y1086973D01*
X1187492Y1087108D01*
X1187367Y1087239D01*
X1187239Y1087367D01*
X1187108Y1087492D01*
X1186973Y1087614D01*
X1186836Y1087732D01*
X1186696Y1087848D01*
X1186554Y1087959D01*
X1186408Y1088068D01*
X1186260Y1088172D01*
X1186110Y1088274D01*
X1185957Y1088371D01*
X1185802Y1088465D01*
X1185645Y1088555D01*
X1185485Y1088641D01*
X1185324Y1088723D01*
X1185161Y1088802D01*
X1184995Y1088876D01*
X1184828Y1088946D01*
X1184660Y1089013D01*
X1184489Y1089075D01*
X1184318Y1089133D01*
X1184145Y1089187D01*
X1183970Y1089237D01*
X1183795Y1089282D01*
X1183618Y1089323D01*
X1183441Y1089360D01*
X1183263Y1089393D01*
X1183084Y1089421D01*
X1182904Y1089445D01*
X1182724Y1089465D01*
X1182543Y1089480D01*
X1182362Y1089491D01*
X1182181Y1089498D01*
X1182000Y1089500D01*
X1189500Y1082000D02*
X1189498Y1081819D01*
X1189491Y1081638D01*
X1189480Y1081457D01*
X1189465Y1081276D01*
X1189445Y1081096D01*
X1189421Y1080916D01*
X1189393Y1080737D01*
X1189360Y1080559D01*
X1189323Y1080382D01*
X1189282Y1080205D01*
X1189237Y1080030D01*
X1189187Y1079855D01*
X1189133Y1079682D01*
X1189075Y1079511D01*
X1189013Y1079340D01*
X1188946Y1079172D01*
X1188876Y1079005D01*
X1188802Y1078839D01*
X1188723Y1078676D01*
X1188641Y1078515D01*
X1188555Y1078355D01*
X1188465Y1078198D01*
X1188371Y1078043D01*
X1188274Y1077890D01*
X1188172Y1077740D01*
X1188068Y1077592D01*
X1187959Y1077446D01*
X1187848Y1077304D01*
X1187732Y1077164D01*
X1187614Y1077027D01*
X1187492Y1076892D01*
X1187367Y1076761D01*
X1187239Y1076633D01*
X1187108Y1076508D01*
X1186973Y1076386D01*
X1186836Y1076268D01*
X1186696Y1076152D01*
X1186554Y1076041D01*
X1186408Y1075932D01*
X1186260Y1075828D01*
X1186110Y1075726D01*
X1185957Y1075629D01*
X1185802Y1075535D01*
X1185645Y1075445D01*
X1185485Y1075359D01*
X1185324Y1075277D01*
X1185161Y1075198D01*
X1184995Y1075124D01*
X1184828Y1075054D01*
X1184660Y1074987D01*
X1184489Y1074925D01*
X1184318Y1074867D01*
X1184145Y1074813D01*
X1183970Y1074763D01*
X1183795Y1074718D01*
X1183618Y1074677D01*
X1183441Y1074640D01*
X1183263Y1074607D01*
X1183084Y1074579D01*
X1182904Y1074555D01*
X1182724Y1074535D01*
X1182543Y1074520D01*
X1182362Y1074509D01*
X1182181Y1074502D01*
X1182000Y1074500D01*
X1181819Y1074502D01*
X1181638Y1074509D01*
X1181457Y1074520D01*
X1181276Y1074535D01*
X1181096Y1074555D01*
X1180916Y1074579D01*
X1180737Y1074607D01*
X1180559Y1074640D01*
X1180382Y1074677D01*
X1180205Y1074718D01*
X1180030Y1074763D01*
X1179855Y1074813D01*
X1179682Y1074867D01*
X1179511Y1074925D01*
X1179340Y1074987D01*
X1179172Y1075054D01*
X1179005Y1075124D01*
X1178839Y1075198D01*
X1178676Y1075277D01*
X1178515Y1075359D01*
X1178355Y1075445D01*
X1178198Y1075535D01*
X1178043Y1075629D01*
X1177890Y1075726D01*
X1177740Y1075828D01*
X1177592Y1075932D01*
X1177446Y1076041D01*
X1177304Y1076152D01*
X1177164Y1076268D01*
X1177027Y1076386D01*
X1176892Y1076508D01*
X1176761Y1076633D01*
X1176633Y1076761D01*
X1176508Y1076892D01*
X1176386Y1077027D01*
X1176268Y1077164D01*
X1176152Y1077304D01*
X1176041Y1077446D01*
X1175932Y1077592D01*
X1175828Y1077740D01*
X1175726Y1077890D01*
X1175629Y1078043D01*
X1175535Y1078198D01*
X1175445Y1078355D01*
X1175359Y1078515D01*
X1175277Y1078676D01*
X1175198Y1078839D01*
X1175124Y1079005D01*
X1175054Y1079172D01*
X1174987Y1079340D01*
X1174925Y1079511D01*
X1174867Y1079682D01*
X1174813Y1079855D01*
X1174763Y1080030D01*
X1174718Y1080205D01*
X1174677Y1080382D01*
X1174640Y1080559D01*
X1174607Y1080737D01*
X1174579Y1080916D01*
X1174555Y1081096D01*
X1174535Y1081276D01*
X1174520Y1081457D01*
X1174509Y1081638D01*
X1174502Y1081819D01*
X1174500Y1082000D01*
X1174502Y1082181D01*
X1174509Y1082362D01*
X1174520Y1082543D01*
X1174535Y1082724D01*
X1174555Y1082904D01*
X1174579Y1083084D01*
X1174607Y1083263D01*
X1174640Y1083441D01*
X1174677Y1083618D01*
X1174718Y1083795D01*
X1174763Y1083970D01*
X1174813Y1084145D01*
X1174867Y1084318D01*
X1174925Y1084489D01*
X1174987Y1084660D01*
X1175054Y1084828D01*
X1175124Y1084995D01*
X1175198Y1085161D01*
X1175277Y1085324D01*
X1175359Y1085485D01*
X1175445Y1085645D01*
X1175535Y1085802D01*
X1175629Y1085957D01*
X1175726Y1086110D01*
X1175828Y1086260D01*
X1175932Y1086408D01*
X1176041Y1086554D01*
X1176152Y1086696D01*
X1176268Y1086836D01*
X1176386Y1086973D01*
X1176508Y1087108D01*
X1176633Y1087239D01*
X1176761Y1087367D01*
X1176892Y1087492D01*
X1177027Y1087614D01*
X1177164Y1087732D01*
X1177304Y1087848D01*
X1177446Y1087959D01*
X1177592Y1088068D01*
X1177740Y1088172D01*
X1177890Y1088274D01*
X1178043Y1088371D01*
X1178198Y1088465D01*
X1178355Y1088555D01*
X1178515Y1088641D01*
X1178676Y1088723D01*
X1178839Y1088802D01*
X1179005Y1088876D01*
X1179172Y1088946D01*
X1179340Y1089013D01*
X1179511Y1089075D01*
X1179682Y1089133D01*
X1179855Y1089187D01*
X1180030Y1089237D01*
X1180205Y1089282D01*
X1180382Y1089323D01*
X1180559Y1089360D01*
X1180737Y1089393D01*
X1180916Y1089421D01*
X1181096Y1089445D01*
X1181276Y1089465D01*
X1181457Y1089480D01*
X1181638Y1089491D01*
X1181819Y1089498D01*
X1182000Y1089500D01*
D44*
X1182000Y1082000D03*
D30*
X1493000Y429000D03*
X1493000Y449000D03*
D31*
X1515500Y405000D03*
X1515500Y473000D03*
D24*
X1135500Y562000D03*
X1152500Y562000D03*
D43*
X60000Y1352500D02*
X59819Y1352502D01*
X59638Y1352509D01*
X59457Y1352520D01*
X59276Y1352535D01*
X59096Y1352555D01*
X58916Y1352579D01*
X58737Y1352607D01*
X58559Y1352640D01*
X58382Y1352677D01*
X58205Y1352718D01*
X58030Y1352763D01*
X57855Y1352813D01*
X57682Y1352867D01*
X57511Y1352925D01*
X57340Y1352987D01*
X57172Y1353054D01*
X57005Y1353124D01*
X56839Y1353198D01*
X56676Y1353277D01*
X56515Y1353359D01*
X56355Y1353445D01*
X56198Y1353535D01*
X56043Y1353629D01*
X55890Y1353726D01*
X55740Y1353828D01*
X55592Y1353932D01*
X55446Y1354041D01*
X55304Y1354152D01*
X55164Y1354268D01*
X55027Y1354386D01*
X54892Y1354508D01*
X54761Y1354633D01*
X54633Y1354761D01*
X54508Y1354892D01*
X54386Y1355027D01*
X54268Y1355164D01*
X54152Y1355304D01*
X54041Y1355446D01*
X53932Y1355592D01*
X53828Y1355740D01*
X53726Y1355890D01*
X53629Y1356043D01*
X53535Y1356198D01*
X53445Y1356355D01*
X53359Y1356515D01*
X53277Y1356676D01*
X53198Y1356839D01*
X53124Y1357005D01*
X53054Y1357172D01*
X52987Y1357340D01*
X52925Y1357511D01*
X52867Y1357682D01*
X52813Y1357855D01*
X52763Y1358030D01*
X52718Y1358205D01*
X52677Y1358382D01*
X52640Y1358559D01*
X52607Y1358737D01*
X52579Y1358916D01*
X52555Y1359096D01*
X52535Y1359276D01*
X52520Y1359457D01*
X52509Y1359638D01*
X52502Y1359819D01*
X52500Y1360000D01*
X52502Y1360181D01*
X52509Y1360362D01*
X52520Y1360543D01*
X52535Y1360724D01*
X52555Y1360904D01*
X52579Y1361084D01*
X52607Y1361263D01*
X52640Y1361441D01*
X52677Y1361618D01*
X52718Y1361795D01*
X52763Y1361970D01*
X52813Y1362145D01*
X52867Y1362318D01*
X52925Y1362489D01*
X52987Y1362660D01*
X53054Y1362828D01*
X53124Y1362995D01*
X53198Y1363161D01*
X53277Y1363324D01*
X53359Y1363485D01*
X53445Y1363645D01*
X53535Y1363802D01*
X53629Y1363957D01*
X53726Y1364110D01*
X53828Y1364260D01*
X53932Y1364408D01*
X54041Y1364554D01*
X54152Y1364696D01*
X54268Y1364836D01*
X54386Y1364973D01*
X54508Y1365108D01*
X54633Y1365239D01*
X54761Y1365367D01*
X54892Y1365492D01*
X55027Y1365614D01*
X55164Y1365732D01*
X55304Y1365848D01*
X55446Y1365959D01*
X55592Y1366068D01*
X55740Y1366172D01*
X55890Y1366274D01*
X56043Y1366371D01*
X56198Y1366465D01*
X56355Y1366555D01*
X56515Y1366641D01*
X56676Y1366723D01*
X56839Y1366802D01*
X57005Y1366876D01*
X57172Y1366946D01*
X57340Y1367013D01*
X57511Y1367075D01*
X57682Y1367133D01*
X57855Y1367187D01*
X58030Y1367237D01*
X58205Y1367282D01*
X58382Y1367323D01*
X58559Y1367360D01*
X58737Y1367393D01*
X58916Y1367421D01*
X59096Y1367445D01*
X59276Y1367465D01*
X59457Y1367480D01*
X59638Y1367491D01*
X59819Y1367498D01*
X60000Y1367500D01*
X60181Y1367498D01*
X60362Y1367491D01*
X60543Y1367480D01*
X60724Y1367465D01*
X60904Y1367445D01*
X61084Y1367421D01*
X61263Y1367393D01*
X61441Y1367360D01*
X61618Y1367323D01*
X61795Y1367282D01*
X61970Y1367237D01*
X62145Y1367187D01*
X62318Y1367133D01*
X62489Y1367075D01*
X62660Y1367013D01*
X62828Y1366946D01*
X62995Y1366876D01*
X63161Y1366802D01*
X63324Y1366723D01*
X63485Y1366641D01*
X63645Y1366555D01*
X63802Y1366465D01*
X63957Y1366371D01*
X64110Y1366274D01*
X64260Y1366172D01*
X64408Y1366068D01*
X64554Y1365959D01*
X64696Y1365848D01*
X64836Y1365732D01*
X64973Y1365614D01*
X65108Y1365492D01*
X65239Y1365367D01*
X65367Y1365239D01*
X65492Y1365108D01*
X65614Y1364973D01*
X65732Y1364836D01*
X65848Y1364696D01*
X65959Y1364554D01*
X66068Y1364408D01*
X66172Y1364260D01*
X66274Y1364110D01*
X66371Y1363957D01*
X66465Y1363802D01*
X66555Y1363645D01*
X66641Y1363485D01*
X66723Y1363324D01*
X66802Y1363161D01*
X66876Y1362995D01*
X66946Y1362828D01*
X67013Y1362660D01*
X67075Y1362489D01*
X67133Y1362318D01*
X67187Y1362145D01*
X67237Y1361970D01*
X67282Y1361795D01*
X67323Y1361618D01*
X67360Y1361441D01*
X67393Y1361263D01*
X67421Y1361084D01*
X67445Y1360904D01*
X67465Y1360724D01*
X67480Y1360543D01*
X67491Y1360362D01*
X67498Y1360181D01*
X67500Y1360000D01*
X67498Y1359819D01*
X67491Y1359638D01*
X67480Y1359457D01*
X67465Y1359276D01*
X67445Y1359096D01*
X67421Y1358916D01*
X67393Y1358737D01*
X67360Y1358559D01*
X67323Y1358382D01*
X67282Y1358205D01*
X67237Y1358030D01*
X67187Y1357855D01*
X67133Y1357682D01*
X67075Y1357511D01*
X67013Y1357340D01*
X66946Y1357172D01*
X66876Y1357005D01*
X66802Y1356839D01*
X66723Y1356676D01*
X66641Y1356515D01*
X66555Y1356355D01*
X66465Y1356198D01*
X66371Y1356043D01*
X66274Y1355890D01*
X66172Y1355740D01*
X66068Y1355592D01*
X65959Y1355446D01*
X65848Y1355304D01*
X65732Y1355164D01*
X65614Y1355027D01*
X65492Y1354892D01*
X65367Y1354761D01*
X65239Y1354633D01*
X65108Y1354508D01*
X64973Y1354386D01*
X64836Y1354268D01*
X64696Y1354152D01*
X64554Y1354041D01*
X64408Y1353932D01*
X64260Y1353828D01*
X64110Y1353726D01*
X63957Y1353629D01*
X63802Y1353535D01*
X63645Y1353445D01*
X63485Y1353359D01*
X63324Y1353277D01*
X63161Y1353198D01*
X62995Y1353124D01*
X62828Y1353054D01*
X62660Y1352987D01*
X62489Y1352925D01*
X62318Y1352867D01*
X62145Y1352813D01*
X61970Y1352763D01*
X61795Y1352718D01*
X61618Y1352677D01*
X61441Y1352640D01*
X61263Y1352607D01*
X61084Y1352579D01*
X60904Y1352555D01*
X60724Y1352535D01*
X60543Y1352520D01*
X60362Y1352509D01*
X60181Y1352502D01*
X60000Y1352500D01*
D44*
X60000Y1360000D03*
D43*
X1702500Y1360000D02*
X1702502Y1359819D01*
X1702509Y1359638D01*
X1702520Y1359457D01*
X1702535Y1359276D01*
X1702555Y1359096D01*
X1702579Y1358916D01*
X1702607Y1358737D01*
X1702640Y1358559D01*
X1702677Y1358382D01*
X1702718Y1358205D01*
X1702763Y1358030D01*
X1702813Y1357855D01*
X1702867Y1357682D01*
X1702925Y1357511D01*
X1702987Y1357340D01*
X1703054Y1357172D01*
X1703124Y1357005D01*
X1703198Y1356839D01*
X1703277Y1356676D01*
X1703359Y1356515D01*
X1703445Y1356355D01*
X1703535Y1356198D01*
X1703629Y1356043D01*
X1703726Y1355890D01*
X1703828Y1355740D01*
X1703932Y1355592D01*
X1704041Y1355446D01*
X1704152Y1355304D01*
X1704268Y1355164D01*
X1704386Y1355027D01*
X1704508Y1354892D01*
X1704633Y1354761D01*
X1704761Y1354633D01*
X1704892Y1354508D01*
X1705027Y1354386D01*
X1705164Y1354268D01*
X1705304Y1354152D01*
X1705446Y1354041D01*
X1705592Y1353932D01*
X1705740Y1353828D01*
X1705890Y1353726D01*
X1706043Y1353629D01*
X1706198Y1353535D01*
X1706355Y1353445D01*
X1706515Y1353359D01*
X1706676Y1353277D01*
X1706839Y1353198D01*
X1707005Y1353124D01*
X1707172Y1353054D01*
X1707340Y1352987D01*
X1707511Y1352925D01*
X1707682Y1352867D01*
X1707855Y1352813D01*
X1708030Y1352763D01*
X1708205Y1352718D01*
X1708382Y1352677D01*
X1708559Y1352640D01*
X1708737Y1352607D01*
X1708916Y1352579D01*
X1709096Y1352555D01*
X1709276Y1352535D01*
X1709457Y1352520D01*
X1709638Y1352509D01*
X1709819Y1352502D01*
X1710000Y1352500D01*
X1702500Y1360000D02*
X1702502Y1360181D01*
X1702509Y1360362D01*
X1702520Y1360543D01*
X1702535Y1360724D01*
X1702555Y1360904D01*
X1702579Y1361084D01*
X1702607Y1361263D01*
X1702640Y1361441D01*
X1702677Y1361618D01*
X1702718Y1361795D01*
X1702763Y1361970D01*
X1702813Y1362145D01*
X1702867Y1362318D01*
X1702925Y1362489D01*
X1702987Y1362660D01*
X1703054Y1362828D01*
X1703124Y1362995D01*
X1703198Y1363161D01*
X1703277Y1363324D01*
X1703359Y1363485D01*
X1703445Y1363645D01*
X1703535Y1363802D01*
X1703629Y1363957D01*
X1703726Y1364110D01*
X1703828Y1364260D01*
X1703932Y1364408D01*
X1704041Y1364554D01*
X1704152Y1364696D01*
X1704268Y1364836D01*
X1704386Y1364973D01*
X1704508Y1365108D01*
X1704633Y1365239D01*
X1704761Y1365367D01*
X1704892Y1365492D01*
X1705027Y1365614D01*
X1705164Y1365732D01*
X1705304Y1365848D01*
X1705446Y1365959D01*
X1705592Y1366068D01*
X1705740Y1366172D01*
X1705890Y1366274D01*
X1706043Y1366371D01*
X1706198Y1366465D01*
X1706355Y1366555D01*
X1706515Y1366641D01*
X1706676Y1366723D01*
X1706839Y1366802D01*
X1707005Y1366876D01*
X1707172Y1366946D01*
X1707340Y1367013D01*
X1707511Y1367075D01*
X1707682Y1367133D01*
X1707855Y1367187D01*
X1708030Y1367237D01*
X1708205Y1367282D01*
X1708382Y1367323D01*
X1708559Y1367360D01*
X1708737Y1367393D01*
X1708916Y1367421D01*
X1709096Y1367445D01*
X1709276Y1367465D01*
X1709457Y1367480D01*
X1709638Y1367491D01*
X1709819Y1367498D01*
X1710000Y1367500D01*
X1710181Y1367498D01*
X1710362Y1367491D01*
X1710543Y1367480D01*
X1710724Y1367465D01*
X1710904Y1367445D01*
X1711084Y1367421D01*
X1711263Y1367393D01*
X1711441Y1367360D01*
X1711618Y1367323D01*
X1711795Y1367282D01*
X1711970Y1367237D01*
X1712145Y1367187D01*
X1712318Y1367133D01*
X1712489Y1367075D01*
X1712660Y1367013D01*
X1712828Y1366946D01*
X1712995Y1366876D01*
X1713161Y1366802D01*
X1713324Y1366723D01*
X1713485Y1366641D01*
X1713645Y1366555D01*
X1713802Y1366465D01*
X1713957Y1366371D01*
X1714110Y1366274D01*
X1714260Y1366172D01*
X1714408Y1366068D01*
X1714554Y1365959D01*
X1714696Y1365848D01*
X1714836Y1365732D01*
X1714973Y1365614D01*
X1715108Y1365492D01*
X1715239Y1365367D01*
X1715367Y1365239D01*
X1715492Y1365108D01*
X1715614Y1364973D01*
X1715732Y1364836D01*
X1715848Y1364696D01*
X1715959Y1364554D01*
X1716068Y1364408D01*
X1716172Y1364260D01*
X1716274Y1364110D01*
X1716371Y1363957D01*
X1716465Y1363802D01*
X1716555Y1363645D01*
X1716641Y1363485D01*
X1716723Y1363324D01*
X1716802Y1363161D01*
X1716876Y1362995D01*
X1716946Y1362828D01*
X1717013Y1362660D01*
X1717075Y1362489D01*
X1717133Y1362318D01*
X1717187Y1362145D01*
X1717237Y1361970D01*
X1717282Y1361795D01*
X1717323Y1361618D01*
X1717360Y1361441D01*
X1717393Y1361263D01*
X1717421Y1361084D01*
X1717445Y1360904D01*
X1717465Y1360724D01*
X1717480Y1360543D01*
X1717491Y1360362D01*
X1717498Y1360181D01*
X1717500Y1360000D01*
X1717498Y1359819D01*
X1717491Y1359638D01*
X1717480Y1359457D01*
X1717465Y1359276D01*
X1717445Y1359096D01*
X1717421Y1358916D01*
X1717393Y1358737D01*
X1717360Y1358559D01*
X1717323Y1358382D01*
X1717282Y1358205D01*
X1717237Y1358030D01*
X1717187Y1357855D01*
X1717133Y1357682D01*
X1717075Y1357511D01*
X1717013Y1357340D01*
X1716946Y1357172D01*
X1716876Y1357005D01*
X1716802Y1356839D01*
X1716723Y1356676D01*
X1716641Y1356515D01*
X1716555Y1356355D01*
X1716465Y1356198D01*
X1716371Y1356043D01*
X1716274Y1355890D01*
X1716172Y1355740D01*
X1716068Y1355592D01*
X1715959Y1355446D01*
X1715848Y1355304D01*
X1715732Y1355164D01*
X1715614Y1355027D01*
X1715492Y1354892D01*
X1715367Y1354761D01*
X1715239Y1354633D01*
X1715108Y1354508D01*
X1714973Y1354386D01*
X1714836Y1354268D01*
X1714696Y1354152D01*
X1714554Y1354041D01*
X1714408Y1353932D01*
X1714260Y1353828D01*
X1714110Y1353726D01*
X1713957Y1353629D01*
X1713802Y1353535D01*
X1713645Y1353445D01*
X1713485Y1353359D01*
X1713324Y1353277D01*
X1713161Y1353198D01*
X1712995Y1353124D01*
X1712828Y1353054D01*
X1712660Y1352987D01*
X1712489Y1352925D01*
X1712318Y1352867D01*
X1712145Y1352813D01*
X1711970Y1352763D01*
X1711795Y1352718D01*
X1711618Y1352677D01*
X1711441Y1352640D01*
X1711263Y1352607D01*
X1711084Y1352579D01*
X1710904Y1352555D01*
X1710724Y1352535D01*
X1710543Y1352520D01*
X1710362Y1352509D01*
X1710181Y1352502D01*
X1710000Y1352500D01*
D44*
X1710000Y1360000D03*
D43*
X1702500Y60000D02*
X1702502Y59819D01*
X1702509Y59638D01*
X1702520Y59457D01*
X1702535Y59276D01*
X1702555Y59096D01*
X1702579Y58916D01*
X1702607Y58737D01*
X1702640Y58559D01*
X1702677Y58382D01*
X1702718Y58205D01*
X1702763Y58030D01*
X1702813Y57855D01*
X1702867Y57682D01*
X1702925Y57511D01*
X1702987Y57340D01*
X1703054Y57172D01*
X1703124Y57005D01*
X1703198Y56839D01*
X1703277Y56676D01*
X1703359Y56515D01*
X1703445Y56355D01*
X1703535Y56198D01*
X1703629Y56043D01*
X1703726Y55890D01*
X1703828Y55740D01*
X1703932Y55592D01*
X1704041Y55446D01*
X1704152Y55304D01*
X1704268Y55164D01*
X1704386Y55027D01*
X1704508Y54892D01*
X1704633Y54761D01*
X1704761Y54633D01*
X1704892Y54508D01*
X1705027Y54386D01*
X1705164Y54268D01*
X1705304Y54152D01*
X1705446Y54041D01*
X1705592Y53932D01*
X1705740Y53828D01*
X1705890Y53726D01*
X1706043Y53629D01*
X1706198Y53535D01*
X1706355Y53445D01*
X1706515Y53359D01*
X1706676Y53277D01*
X1706839Y53198D01*
X1707005Y53124D01*
X1707172Y53054D01*
X1707340Y52987D01*
X1707511Y52925D01*
X1707682Y52867D01*
X1707855Y52813D01*
X1708030Y52763D01*
X1708205Y52718D01*
X1708382Y52677D01*
X1708559Y52640D01*
X1708737Y52607D01*
X1708916Y52579D01*
X1709096Y52555D01*
X1709276Y52535D01*
X1709457Y52520D01*
X1709638Y52509D01*
X1709819Y52502D01*
X1710000Y52500D01*
X1702500Y60000D02*
X1702502Y60181D01*
X1702509Y60362D01*
X1702520Y60543D01*
X1702535Y60724D01*
X1702555Y60904D01*
X1702579Y61084D01*
X1702607Y61263D01*
X1702640Y61441D01*
X1702677Y61618D01*
X1702718Y61795D01*
X1702763Y61970D01*
X1702813Y62145D01*
X1702867Y62318D01*
X1702925Y62489D01*
X1702987Y62660D01*
X1703054Y62828D01*
X1703124Y62995D01*
X1703198Y63161D01*
X1703277Y63324D01*
X1703359Y63485D01*
X1703445Y63645D01*
X1703535Y63802D01*
X1703629Y63957D01*
X1703726Y64110D01*
X1703828Y64260D01*
X1703932Y64408D01*
X1704041Y64554D01*
X1704152Y64696D01*
X1704268Y64836D01*
X1704386Y64973D01*
X1704508Y65108D01*
X1704633Y65239D01*
X1704761Y65367D01*
X1704892Y65492D01*
X1705027Y65614D01*
X1705164Y65732D01*
X1705304Y65848D01*
X1705446Y65959D01*
X1705592Y66068D01*
X1705740Y66172D01*
X1705890Y66274D01*
X1706043Y66371D01*
X1706198Y66465D01*
X1706355Y66555D01*
X1706515Y66641D01*
X1706676Y66723D01*
X1706839Y66802D01*
X1707005Y66876D01*
X1707172Y66946D01*
X1707340Y67013D01*
X1707511Y67075D01*
X1707682Y67133D01*
X1707855Y67187D01*
X1708030Y67237D01*
X1708205Y67282D01*
X1708382Y67323D01*
X1708559Y67360D01*
X1708737Y67393D01*
X1708916Y67421D01*
X1709096Y67445D01*
X1709276Y67465D01*
X1709457Y67480D01*
X1709638Y67491D01*
X1709819Y67498D01*
X1710000Y67500D01*
X1710181Y67498D01*
X1710362Y67491D01*
X1710543Y67480D01*
X1710724Y67465D01*
X1710904Y67445D01*
X1711084Y67421D01*
X1711263Y67393D01*
X1711441Y67360D01*
X1711618Y67323D01*
X1711795Y67282D01*
X1711970Y67237D01*
X1712145Y67187D01*
X1712318Y67133D01*
X1712489Y67075D01*
X1712660Y67013D01*
X1712828Y66946D01*
X1712995Y66876D01*
X1713161Y66802D01*
X1713324Y66723D01*
X1713485Y66641D01*
X1713645Y66555D01*
X1713802Y66465D01*
X1713957Y66371D01*
X1714110Y66274D01*
X1714260Y66172D01*
X1714408Y66068D01*
X1714554Y65959D01*
X1714696Y65848D01*
X1714836Y65732D01*
X1714973Y65614D01*
X1715108Y65492D01*
X1715239Y65367D01*
X1715367Y65239D01*
X1715492Y65108D01*
X1715614Y64973D01*
X1715732Y64836D01*
X1715848Y64696D01*
X1715959Y64554D01*
X1716068Y64408D01*
X1716172Y64260D01*
X1716274Y64110D01*
X1716371Y63957D01*
X1716465Y63802D01*
X1716555Y63645D01*
X1716641Y63485D01*
X1716723Y63324D01*
X1716802Y63161D01*
X1716876Y62995D01*
X1716946Y62828D01*
X1717013Y62660D01*
X1717075Y62489D01*
X1717133Y62318D01*
X1717187Y62145D01*
X1717237Y61970D01*
X1717282Y61795D01*
X1717323Y61618D01*
X1717360Y61441D01*
X1717393Y61263D01*
X1717421Y61084D01*
X1717445Y60904D01*
X1717465Y60724D01*
X1717480Y60543D01*
X1717491Y60362D01*
X1717498Y60181D01*
X1717500Y60000D01*
X1717498Y59819D01*
X1717491Y59638D01*
X1717480Y59457D01*
X1717465Y59276D01*
X1717445Y59096D01*
X1717421Y58916D01*
X1717393Y58737D01*
X1717360Y58559D01*
X1717323Y58382D01*
X1717282Y58205D01*
X1717237Y58030D01*
X1717187Y57855D01*
X1717133Y57682D01*
X1717075Y57511D01*
X1717013Y57340D01*
X1716946Y57172D01*
X1716876Y57005D01*
X1716802Y56839D01*
X1716723Y56676D01*
X1716641Y56515D01*
X1716555Y56355D01*
X1716465Y56198D01*
X1716371Y56043D01*
X1716274Y55890D01*
X1716172Y55740D01*
X1716068Y55592D01*
X1715959Y55446D01*
X1715848Y55304D01*
X1715732Y55164D01*
X1715614Y55027D01*
X1715492Y54892D01*
X1715367Y54761D01*
X1715239Y54633D01*
X1715108Y54508D01*
X1714973Y54386D01*
X1714836Y54268D01*
X1714696Y54152D01*
X1714554Y54041D01*
X1714408Y53932D01*
X1714260Y53828D01*
X1714110Y53726D01*
X1713957Y53629D01*
X1713802Y53535D01*
X1713645Y53445D01*
X1713485Y53359D01*
X1713324Y53277D01*
X1713161Y53198D01*
X1712995Y53124D01*
X1712828Y53054D01*
X1712660Y52987D01*
X1712489Y52925D01*
X1712318Y52867D01*
X1712145Y52813D01*
X1711970Y52763D01*
X1711795Y52718D01*
X1711618Y52677D01*
X1711441Y52640D01*
X1711263Y52607D01*
X1711084Y52579D01*
X1710904Y52555D01*
X1710724Y52535D01*
X1710543Y52520D01*
X1710362Y52509D01*
X1710181Y52502D01*
X1710000Y52500D01*
D44*
X1710000Y60000D03*
D43*
X60000Y52500D02*
X59819Y52502D01*
X59638Y52509D01*
X59457Y52520D01*
X59276Y52535D01*
X59096Y52555D01*
X58916Y52579D01*
X58737Y52607D01*
X58559Y52640D01*
X58382Y52677D01*
X58205Y52718D01*
X58030Y52763D01*
X57855Y52813D01*
X57682Y52867D01*
X57511Y52925D01*
X57340Y52987D01*
X57172Y53054D01*
X57005Y53124D01*
X56839Y53198D01*
X56676Y53277D01*
X56515Y53359D01*
X56355Y53445D01*
X56198Y53535D01*
X56043Y53629D01*
X55890Y53726D01*
X55740Y53828D01*
X55592Y53932D01*
X55446Y54041D01*
X55304Y54152D01*
X55164Y54268D01*
X55027Y54386D01*
X54892Y54508D01*
X54761Y54633D01*
X54633Y54761D01*
X54508Y54892D01*
X54386Y55027D01*
X54268Y55164D01*
X54152Y55304D01*
X54041Y55446D01*
X53932Y55592D01*
X53828Y55740D01*
X53726Y55890D01*
X53629Y56043D01*
X53535Y56198D01*
X53445Y56355D01*
X53359Y56515D01*
X53277Y56676D01*
X53198Y56839D01*
X53124Y57005D01*
X53054Y57172D01*
X52987Y57340D01*
X52925Y57511D01*
X52867Y57682D01*
X52813Y57855D01*
X52763Y58030D01*
X52718Y58205D01*
X52677Y58382D01*
X52640Y58559D01*
X52607Y58737D01*
X52579Y58916D01*
X52555Y59096D01*
X52535Y59276D01*
X52520Y59457D01*
X52509Y59638D01*
X52502Y59819D01*
X52500Y60000D01*
X52502Y60181D01*
X52509Y60362D01*
X52520Y60543D01*
X52535Y60724D01*
X52555Y60904D01*
X52579Y61084D01*
X52607Y61263D01*
X52640Y61441D01*
X52677Y61618D01*
X52718Y61795D01*
X52763Y61970D01*
X52813Y62145D01*
X52867Y62318D01*
X52925Y62489D01*
X52987Y62660D01*
X53054Y62828D01*
X53124Y62995D01*
X53198Y63161D01*
X53277Y63324D01*
X53359Y63485D01*
X53445Y63645D01*
X53535Y63802D01*
X53629Y63957D01*
X53726Y64110D01*
X53828Y64260D01*
X53932Y64408D01*
X54041Y64554D01*
X54152Y64696D01*
X54268Y64836D01*
X54386Y64973D01*
X54508Y65108D01*
X54633Y65239D01*
X54761Y65367D01*
X54892Y65492D01*
X55027Y65614D01*
X55164Y65732D01*
X55304Y65848D01*
X55446Y65959D01*
X55592Y66068D01*
X55740Y66172D01*
X55890Y66274D01*
X56043Y66371D01*
X56198Y66465D01*
X56355Y66555D01*
X56515Y66641D01*
X56676Y66723D01*
X56839Y66802D01*
X57005Y66876D01*
X57172Y66946D01*
X57340Y67013D01*
X57511Y67075D01*
X57682Y67133D01*
X57855Y67187D01*
X58030Y67237D01*
X58205Y67282D01*
X58382Y67323D01*
X58559Y67360D01*
X58737Y67393D01*
X58916Y67421D01*
X59096Y67445D01*
X59276Y67465D01*
X59457Y67480D01*
X59638Y67491D01*
X59819Y67498D01*
X60000Y67500D01*
X60181Y67498D01*
X60362Y67491D01*
X60543Y67480D01*
X60724Y67465D01*
X60904Y67445D01*
X61084Y67421D01*
X61263Y67393D01*
X61441Y67360D01*
X61618Y67323D01*
X61795Y67282D01*
X61970Y67237D01*
X62145Y67187D01*
X62318Y67133D01*
X62489Y67075D01*
X62660Y67013D01*
X62828Y66946D01*
X62995Y66876D01*
X63161Y66802D01*
X63324Y66723D01*
X63485Y66641D01*
X63645Y66555D01*
X63802Y66465D01*
X63957Y66371D01*
X64110Y66274D01*
X64260Y66172D01*
X64408Y66068D01*
X64554Y65959D01*
X64696Y65848D01*
X64836Y65732D01*
X64973Y65614D01*
X65108Y65492D01*
X65239Y65367D01*
X65367Y65239D01*
X65492Y65108D01*
X65614Y64973D01*
X65732Y64836D01*
X65848Y64696D01*
X65959Y64554D01*
X66068Y64408D01*
X66172Y64260D01*
X66274Y64110D01*
X66371Y63957D01*
X66465Y63802D01*
X66555Y63645D01*
X66641Y63485D01*
X66723Y63324D01*
X66802Y63161D01*
X66876Y62995D01*
X66946Y62828D01*
X67013Y62660D01*
X67075Y62489D01*
X67133Y62318D01*
X67187Y62145D01*
X67237Y61970D01*
X67282Y61795D01*
X67323Y61618D01*
X67360Y61441D01*
X67393Y61263D01*
X67421Y61084D01*
X67445Y60904D01*
X67465Y60724D01*
X67480Y60543D01*
X67491Y60362D01*
X67498Y60181D01*
X67500Y60000D01*
X67498Y59819D01*
X67491Y59638D01*
X67480Y59457D01*
X67465Y59276D01*
X67445Y59096D01*
X67421Y58916D01*
X67393Y58737D01*
X67360Y58559D01*
X67323Y58382D01*
X67282Y58205D01*
X67237Y58030D01*
X67187Y57855D01*
X67133Y57682D01*
X67075Y57511D01*
X67013Y57340D01*
X66946Y57172D01*
X66876Y57005D01*
X66802Y56839D01*
X66723Y56676D01*
X66641Y56515D01*
X66555Y56355D01*
X66465Y56198D01*
X66371Y56043D01*
X66274Y55890D01*
X66172Y55740D01*
X66068Y55592D01*
X65959Y55446D01*
X65848Y55304D01*
X65732Y55164D01*
X65614Y55027D01*
X65492Y54892D01*
X65367Y54761D01*
X65239Y54633D01*
X65108Y54508D01*
X64973Y54386D01*
X64836Y54268D01*
X64696Y54152D01*
X64554Y54041D01*
X64408Y53932D01*
X64260Y53828D01*
X64110Y53726D01*
X63957Y53629D01*
X63802Y53535D01*
X63645Y53445D01*
X63485Y53359D01*
X63324Y53277D01*
X63161Y53198D01*
X62995Y53124D01*
X62828Y53054D01*
X62660Y52987D01*
X62489Y52925D01*
X62318Y52867D01*
X62145Y52813D01*
X61970Y52763D01*
X61795Y52718D01*
X61618Y52677D01*
X61441Y52640D01*
X61263Y52607D01*
X61084Y52579D01*
X60904Y52555D01*
X60724Y52535D01*
X60543Y52520D01*
X60362Y52509D01*
X60181Y52502D01*
X60000Y52500D01*
D44*
X60000Y60000D03*
D45*
X610000Y610000D03*
X1140000Y807000D03*
M02*
