G04 EAGLE Gerber RS-274X export*
G75*
%MOMM*%
%FSLAX34Y34*%
%LPD*%
%INBottom Copper*%
%IPPOS*%
%AMOC8*
5,1,8,0,0,1.08239X$1,22.5*%
G01*
%ADD10C,0.756400*%
%ADD11C,0.254000*%
%ADD12C,0.406400*%
%ADD13C,0.806400*%
%ADD14C,1.006400*%
%ADD15C,1.016000*%
%ADD16C,0.609600*%
%ADD17C,0.203200*%
%ADD18C,0.856400*%
%ADD19C,0.304800*%
%ADD20C,1.056400*%


D10*
X470800Y610000D03*
D11*
X554253Y610000D02*
X598317Y654064D01*
X730075Y654064D02*
X825267Y749256D01*
X730075Y654064D02*
X598317Y654064D01*
X825267Y749256D02*
X919744Y749256D01*
X949000Y720000D01*
X554253Y610000D02*
X470800Y610000D01*
D10*
X949000Y720000D03*
X470800Y566000D03*
D11*
X516000Y566000D01*
X731758Y650000D02*
X826950Y745192D01*
X910808Y745192D01*
X936000Y720000D01*
X600000Y650000D02*
X516000Y566000D01*
X600000Y650000D02*
X731758Y650000D01*
D10*
X936000Y720000D03*
X1001174Y977448D03*
X590426Y717426D03*
D12*
X850448Y977448D01*
X1001174Y977448D01*
D10*
X1028098Y987608D03*
X594000Y701000D03*
D12*
X853000Y960000D01*
X1000490Y960000D02*
X1028098Y987608D01*
X1000490Y960000D02*
X853000Y960000D01*
D13*
X1198400Y1083716D03*
D11*
X1176882Y1105234D01*
X705946Y1105234D01*
X701040Y1100328D01*
X672084Y1100328D01*
D13*
X672084Y1100328D03*
D10*
X390000Y760000D03*
D11*
X390000Y964116D01*
X380000Y974116D01*
D10*
X380000Y974116D03*
D13*
X1223800Y1114000D03*
X696468Y1107174D03*
D11*
X699230Y1109936D02*
X1192811Y1109936D01*
X699230Y1109936D02*
X696468Y1107174D01*
X1215800Y1106000D02*
X1223800Y1114000D01*
X1215800Y1106000D02*
X1196747Y1106000D01*
X1192811Y1109936D01*
D10*
X370000Y900000D03*
D11*
X370000Y997798D01*
X371101Y998899D01*
D10*
X371101Y998899D03*
X445400Y562600D03*
D11*
X464224Y581424D01*
X464224Y612724D01*
X471500Y620000D01*
X558505Y620000D02*
X596633Y658128D01*
X728391Y658128D01*
X823583Y753320D02*
X929680Y753320D01*
X962000Y721000D01*
X558505Y620000D02*
X471500Y620000D01*
X728391Y658128D02*
X823583Y753320D01*
D10*
X962000Y721000D03*
X445400Y613400D03*
D11*
X462000Y630000D01*
X562758Y630000D01*
X726708Y662192D02*
X821900Y757384D01*
X936616Y757384D01*
X974000Y720000D01*
X594950Y662192D02*
X562758Y630000D01*
X594950Y662192D02*
X726708Y662192D01*
D10*
X974000Y720000D03*
X420000Y613400D03*
D11*
X440664Y634064D01*
X561075Y634064D02*
X593267Y666256D01*
X725024Y666256D02*
X820216Y761448D01*
X945552Y761448D02*
X987000Y720000D01*
X561075Y634064D02*
X440664Y634064D01*
X593267Y666256D02*
X725024Y666256D01*
X820216Y761448D02*
X945552Y761448D01*
D10*
X987000Y720000D03*
X623200Y613400D03*
D11*
X724400Y613400D01*
X834000Y723000D01*
X870000Y723000D02*
X873000Y720000D01*
X870000Y723000D02*
X834000Y723000D01*
D10*
X873000Y720000D03*
X597800Y566000D03*
D11*
X639976Y619976D02*
X640000Y620000D01*
X639976Y619976D02*
X620476Y619976D01*
X597800Y597300D01*
X597800Y566000D01*
X640000Y620000D02*
X725000Y620000D01*
X833000Y728000D01*
X878000Y728000D01*
X885000Y721000D01*
D10*
X885000Y721000D03*
X597800Y610000D03*
D11*
X614800Y627000D01*
X885000Y733000D02*
X898000Y720000D01*
X726000Y627000D02*
X614800Y627000D01*
X726000Y627000D02*
X832000Y733000D01*
X885000Y733000D01*
D10*
X898000Y720000D03*
X572400Y566000D03*
D11*
X572400Y596400D01*
X610000Y634000D01*
X713000Y634000D01*
X727253Y634000D01*
X830317Y737064D01*
X887683Y737064D01*
X887747Y737000D01*
X890000Y737000D01*
X893000Y737000D01*
X910000Y720000D01*
D10*
X910000Y720000D03*
X572400Y610000D03*
D11*
X603464Y641064D01*
X828633Y741128D02*
X901872Y741128D01*
X923000Y720000D01*
X728569Y641064D02*
X603464Y641064D01*
X728569Y641064D02*
X828633Y741128D01*
D10*
X923000Y720000D03*
D14*
X945804Y1034196D03*
D15*
X1236000Y1034196D01*
X1335804Y1034196D01*
X1390000Y980000D01*
X1390000Y730000D01*
X1310000Y650000D01*
X996000Y650000D01*
X981000Y665000D02*
X981000Y683000D01*
D14*
X981000Y683000D03*
D15*
X981000Y665000D02*
X996000Y650000D01*
D10*
X1236000Y1034196D03*
X588000Y1056000D03*
X503000Y876000D03*
X496000Y905000D03*
X517000Y862000D03*
X536000Y932000D03*
X465000Y945000D03*
X462000Y879000D03*
X462000Y866000D03*
X378000Y880000D03*
X370000Y1035000D03*
X568382Y1091618D03*
X830000Y1020000D03*
X870000Y1030000D03*
X840000Y980000D03*
X930000Y990000D03*
X1046000Y944000D03*
X1040000Y923046D03*
X1063000Y924000D03*
X693000Y1024000D03*
X966000Y1198000D03*
X979811Y1149811D03*
X1060000Y1098658D03*
X678000Y862000D03*
X603000Y862000D03*
X445000Y789000D03*
X879000Y685000D03*
X732000Y1003000D03*
X762000Y1003000D03*
X477000Y819000D03*
X573000Y826000D03*
X420000Y562600D03*
D16*
X390000Y562600D01*
X340000Y612600D01*
X620000Y980000D02*
X687000Y1047000D01*
X801000Y1047000D01*
X902000Y1047000D01*
D10*
X801000Y1047000D03*
X902000Y1047000D03*
D16*
X380000Y1060000D02*
X340000Y1020000D01*
X490000Y1060000D02*
X570000Y980000D01*
X620000Y980000D01*
X340000Y1020000D02*
X340000Y612600D01*
X380000Y1060000D02*
X490000Y1060000D01*
D13*
X519684Y1062228D03*
D10*
X1192672Y1138428D03*
D17*
X621589Y1138428D01*
X621363Y1138654D01*
X596110Y1138654D01*
X519684Y1062228D01*
D13*
X1249200Y1070000D03*
D11*
X1236081Y1056881D01*
X667737Y1056881D01*
X609076Y998220D01*
X608076Y998220D01*
D13*
X608076Y998220D03*
D18*
X1071400Y1066600D03*
D19*
X1071208Y1066408D01*
X667120Y1066408D01*
X618744Y1018032D01*
D13*
X618744Y1018032D03*
X1198400Y1114000D03*
X1198400Y1114000D03*
D11*
X683000Y1114000D01*
X678000Y1119000D01*
D13*
X678000Y1119000D03*
D10*
X590000Y760000D03*
D11*
X590000Y950000D01*
X394907Y1040000D02*
X370453Y1015547D01*
D10*
X370453Y1015547D03*
D11*
X500000Y1040000D02*
X590000Y950000D01*
X500000Y1040000D02*
X394907Y1040000D01*
D20*
X874000Y1091380D03*
X920000Y910000D03*
D10*
X798000Y1145000D03*
D20*
X1090000Y1010000D03*
D10*
X445000Y769000D03*
X590000Y1160000D03*
X955000Y685000D03*
X890000Y1020000D03*
D14*
X830000Y1090000D03*
D10*
X402000Y899950D03*
X510000Y940000D03*
D13*
X1249200Y1114000D03*
D11*
X1210668Y1075468D01*
X669512Y1075468D01*
X655320Y1089660D01*
X655320Y1101057D01*
D13*
X655320Y1101057D03*
D10*
X1274600Y1117400D03*
D17*
X1271428Y1120572D01*
X694512Y1120572D01*
X682752Y1132332D02*
X618744Y1132332D01*
D10*
X618744Y1132332D03*
D17*
X682752Y1132332D02*
X694512Y1120572D01*
D10*
X1040000Y880000D03*
D11*
X1148000Y880000D01*
X1275000Y1007000D01*
D10*
X1275000Y1007000D03*
M02*
