G04 EAGLE Gerber RS-274X export*
G75*
%MOMM*%
%FSLAX34Y34*%
%LPD*%
%INEAGLE Copper Layer 2*%
%IPPOS*%
%AMOC8*
5,1,8,0,0,1.08239X$1,22.5*%
G01*
%ADD10C,0.756400*%
%ADD11C,0.806400*%
%ADD12C,1.006400*%
%ADD13C,0.856400*%
%ADD14C,1.056400*%
%ADD15C,2.540000*%
%ADD16C,0.406400*%
%ADD17C,0.304800*%
%ADD18C,0.508000*%
%ADD19C,0.254000*%

G36*
X680027Y537971D02*
X680027Y537971D01*
X680053Y537969D01*
X680227Y537991D01*
X680401Y538009D01*
X680426Y538017D01*
X680453Y538020D01*
X680618Y538076D01*
X680786Y538127D01*
X680809Y538140D01*
X680834Y538148D01*
X680986Y538235D01*
X681140Y538319D01*
X681160Y538336D01*
X681183Y538349D01*
X681436Y538564D01*
X790841Y647969D01*
X1360000Y647969D01*
X1360027Y647971D01*
X1360053Y647969D01*
X1360227Y647991D01*
X1360401Y648009D01*
X1360426Y648017D01*
X1360453Y648020D01*
X1360618Y648076D01*
X1360786Y648127D01*
X1360809Y648140D01*
X1360834Y648148D01*
X1360986Y648235D01*
X1361140Y648319D01*
X1361160Y648336D01*
X1361183Y648349D01*
X1361436Y648564D01*
X1381436Y668564D01*
X1381442Y668571D01*
X1381449Y668576D01*
X1381460Y668590D01*
X1381474Y668602D01*
X1381581Y668740D01*
X1381691Y668875D01*
X1381696Y668883D01*
X1381701Y668890D01*
X1381709Y668906D01*
X1381720Y668920D01*
X1381798Y669077D01*
X1381880Y669231D01*
X1381883Y669239D01*
X1381887Y669247D01*
X1381892Y669264D01*
X1381900Y669281D01*
X1381945Y669450D01*
X1381995Y669617D01*
X1381996Y669626D01*
X1381998Y669634D01*
X1382000Y669652D01*
X1382004Y669669D01*
X1382031Y670000D01*
X1382031Y1130000D01*
X1382029Y1130018D01*
X1382031Y1130036D01*
X1382010Y1130218D01*
X1381991Y1130401D01*
X1381986Y1130418D01*
X1381984Y1130435D01*
X1381927Y1130610D01*
X1381873Y1130786D01*
X1381865Y1130801D01*
X1381859Y1130818D01*
X1381769Y1130978D01*
X1381681Y1131140D01*
X1381670Y1131153D01*
X1381661Y1131169D01*
X1381541Y1131308D01*
X1381424Y1131449D01*
X1381410Y1131460D01*
X1381398Y1131474D01*
X1381253Y1131586D01*
X1381110Y1131701D01*
X1381094Y1131709D01*
X1381080Y1131720D01*
X1380915Y1131802D01*
X1380753Y1131887D01*
X1380736Y1131892D01*
X1380720Y1131900D01*
X1380541Y1131947D01*
X1380366Y1131998D01*
X1380348Y1132000D01*
X1380331Y1132004D01*
X1380000Y1132031D01*
X1190841Y1132031D01*
X1091436Y1231436D01*
X1091416Y1231453D01*
X1091398Y1231474D01*
X1091260Y1231581D01*
X1091125Y1231691D01*
X1091101Y1231704D01*
X1091080Y1231720D01*
X1090923Y1231798D01*
X1090769Y1231880D01*
X1090744Y1231888D01*
X1090720Y1231900D01*
X1090550Y1231945D01*
X1090383Y1231995D01*
X1090357Y1231997D01*
X1090331Y1232004D01*
X1090000Y1232031D01*
X790000Y1232031D01*
X789982Y1232029D01*
X789964Y1232031D01*
X789782Y1232010D01*
X789599Y1231991D01*
X789582Y1231986D01*
X789565Y1231984D01*
X789390Y1231927D01*
X789214Y1231873D01*
X789199Y1231865D01*
X789182Y1231859D01*
X789022Y1231769D01*
X788860Y1231681D01*
X788847Y1231670D01*
X788831Y1231661D01*
X788692Y1231541D01*
X788551Y1231424D01*
X788540Y1231410D01*
X788527Y1231398D01*
X788414Y1231253D01*
X788299Y1231110D01*
X788291Y1231094D01*
X788280Y1231080D01*
X788198Y1230915D01*
X788113Y1230753D01*
X788108Y1230736D01*
X788100Y1230720D01*
X788053Y1230541D01*
X788002Y1230366D01*
X788000Y1230348D01*
X787996Y1230331D01*
X787969Y1230000D01*
X787969Y1170000D01*
X787971Y1169982D01*
X787969Y1169964D01*
X787990Y1169782D01*
X788009Y1169599D01*
X788014Y1169582D01*
X788016Y1169565D01*
X788073Y1169390D01*
X788127Y1169214D01*
X788135Y1169199D01*
X788141Y1169182D01*
X788231Y1169022D01*
X788319Y1168860D01*
X788330Y1168847D01*
X788339Y1168831D01*
X788459Y1168692D01*
X788576Y1168551D01*
X788590Y1168540D01*
X788602Y1168527D01*
X788747Y1168414D01*
X788890Y1168299D01*
X788906Y1168291D01*
X788920Y1168280D01*
X789085Y1168198D01*
X789247Y1168113D01*
X789264Y1168108D01*
X789281Y1168100D01*
X789459Y1168053D01*
X789634Y1168002D01*
X789652Y1168000D01*
X789669Y1167996D01*
X790000Y1167969D01*
X847493Y1167969D01*
X847498Y1167969D01*
X847502Y1167969D01*
X847697Y1167989D01*
X847894Y1168009D01*
X847898Y1168010D01*
X847903Y1168010D01*
X848091Y1168069D01*
X848279Y1168127D01*
X848283Y1168129D01*
X848287Y1168130D01*
X848459Y1168224D01*
X848633Y1168319D01*
X848636Y1168321D01*
X848640Y1168324D01*
X848791Y1168450D01*
X848942Y1168576D01*
X848945Y1168580D01*
X848948Y1168583D01*
X849072Y1168738D01*
X849194Y1168890D01*
X849197Y1168894D01*
X849199Y1168898D01*
X849290Y1169075D01*
X849380Y1169247D01*
X849381Y1169252D01*
X849383Y1169256D01*
X849438Y1169448D01*
X849491Y1169634D01*
X849492Y1169639D01*
X849493Y1169643D01*
X849508Y1169839D01*
X849524Y1170036D01*
X849524Y1170040D01*
X849524Y1170044D01*
X849500Y1170239D01*
X849477Y1170435D01*
X849476Y1170440D01*
X849475Y1170444D01*
X849413Y1170631D01*
X849352Y1170818D01*
X849350Y1170822D01*
X849349Y1170826D01*
X849252Y1170997D01*
X849155Y1171169D01*
X849152Y1171172D01*
X849149Y1171176D01*
X849018Y1171326D01*
X848891Y1171474D01*
X848888Y1171476D01*
X848885Y1171480D01*
X848727Y1171601D01*
X848573Y1171720D01*
X848569Y1171722D01*
X848566Y1171725D01*
X848271Y1171877D01*
X847574Y1172165D01*
X843061Y1176678D01*
X840619Y1182573D01*
X840619Y1188955D01*
X843061Y1194850D01*
X847574Y1199363D01*
X853469Y1201805D01*
X859851Y1201805D01*
X865746Y1199363D01*
X870259Y1194850D01*
X872701Y1188955D01*
X872701Y1182573D01*
X870259Y1176678D01*
X865746Y1172165D01*
X865049Y1171877D01*
X865045Y1171875D01*
X865041Y1171873D01*
X864868Y1171780D01*
X864695Y1171686D01*
X864691Y1171684D01*
X864687Y1171681D01*
X864537Y1171556D01*
X864384Y1171430D01*
X864381Y1171427D01*
X864378Y1171424D01*
X864254Y1171270D01*
X864130Y1171117D01*
X864128Y1171114D01*
X864126Y1171110D01*
X864035Y1170935D01*
X863943Y1170761D01*
X863942Y1170757D01*
X863940Y1170753D01*
X863886Y1170565D01*
X863830Y1170375D01*
X863830Y1170370D01*
X863829Y1170366D01*
X863812Y1170168D01*
X863796Y1169973D01*
X863796Y1169969D01*
X863796Y1169964D01*
X863819Y1169767D01*
X863841Y1169573D01*
X863842Y1169569D01*
X863843Y1169565D01*
X863904Y1169377D01*
X863964Y1169190D01*
X863966Y1169186D01*
X863968Y1169182D01*
X864066Y1169007D01*
X864160Y1168839D01*
X864163Y1168835D01*
X864165Y1168831D01*
X864293Y1168683D01*
X864422Y1168533D01*
X864426Y1168530D01*
X864429Y1168527D01*
X864582Y1168408D01*
X864739Y1168284D01*
X864743Y1168282D01*
X864747Y1168280D01*
X864922Y1168193D01*
X865099Y1168104D01*
X865103Y1168102D01*
X865107Y1168100D01*
X865297Y1168049D01*
X865487Y1167997D01*
X865492Y1167997D01*
X865496Y1167996D01*
X865827Y1167969D01*
X969159Y1167969D01*
X1058564Y1078564D01*
X1058584Y1078547D01*
X1058602Y1078527D01*
X1058740Y1078419D01*
X1058875Y1078309D01*
X1058899Y1078296D01*
X1058920Y1078280D01*
X1059077Y1078202D01*
X1059231Y1078120D01*
X1059256Y1078112D01*
X1059281Y1078100D01*
X1059450Y1078055D01*
X1059617Y1078005D01*
X1059643Y1078003D01*
X1059669Y1077996D01*
X1060000Y1077969D01*
X1079159Y1077969D01*
X1107969Y1049159D01*
X1107969Y992031D01*
X1035050Y992031D01*
X1035036Y992030D01*
X1035023Y992031D01*
X1034837Y992010D01*
X1034649Y991991D01*
X1034636Y991987D01*
X1034623Y991986D01*
X1034445Y991929D01*
X1034264Y991873D01*
X1034252Y991867D01*
X1034240Y991863D01*
X1034075Y991771D01*
X1033910Y991681D01*
X1033900Y991673D01*
X1033888Y991666D01*
X1033744Y991543D01*
X1033601Y991424D01*
X1033593Y991413D01*
X1033582Y991405D01*
X1033466Y991256D01*
X1033349Y991110D01*
X1033342Y991098D01*
X1033334Y991088D01*
X1033249Y990919D01*
X1033163Y990753D01*
X1033159Y990740D01*
X1033153Y990728D01*
X1033104Y990546D01*
X1033052Y990366D01*
X1033051Y990352D01*
X1033047Y990339D01*
X1033034Y990153D01*
X1033019Y989964D01*
X1033020Y989951D01*
X1033019Y989938D01*
X1033044Y989752D01*
X1033066Y989565D01*
X1033070Y989552D01*
X1033072Y989539D01*
X1033173Y989223D01*
X1033405Y988664D01*
X1033405Y986552D01*
X1032597Y984602D01*
X1031104Y983109D01*
X1030006Y982655D01*
X1030006Y982654D01*
X1029154Y982301D01*
X1027042Y982301D01*
X1025092Y983109D01*
X1023599Y984602D01*
X1022791Y986552D01*
X1022791Y988664D01*
X1023023Y989223D01*
X1023027Y989236D01*
X1023033Y989247D01*
X1023085Y989428D01*
X1023139Y989608D01*
X1023141Y989621D01*
X1023144Y989634D01*
X1023160Y989822D01*
X1023177Y990009D01*
X1023176Y990022D01*
X1023177Y990036D01*
X1023155Y990222D01*
X1023136Y990409D01*
X1023132Y990422D01*
X1023130Y990435D01*
X1023072Y990613D01*
X1023016Y990794D01*
X1023010Y990805D01*
X1023005Y990818D01*
X1022913Y990982D01*
X1022823Y991147D01*
X1022814Y991157D01*
X1022808Y991169D01*
X1022685Y991311D01*
X1022564Y991455D01*
X1022553Y991463D01*
X1022544Y991474D01*
X1022397Y991588D01*
X1022249Y991706D01*
X1022237Y991712D01*
X1022226Y991720D01*
X1022059Y991804D01*
X1021891Y991890D01*
X1021878Y991894D01*
X1021866Y991900D01*
X1021683Y991949D01*
X1021503Y992000D01*
X1021490Y992001D01*
X1021477Y992004D01*
X1021146Y992031D01*
X1000000Y992031D01*
X999982Y992029D01*
X999964Y992031D01*
X999782Y992010D01*
X999599Y991991D01*
X999582Y991986D01*
X999565Y991984D01*
X999390Y991927D01*
X999214Y991873D01*
X999199Y991865D01*
X999182Y991859D01*
X999022Y991769D01*
X998860Y991681D01*
X998847Y991670D01*
X998831Y991661D01*
X998692Y991541D01*
X998551Y991424D01*
X998540Y991410D01*
X998527Y991398D01*
X998414Y991253D01*
X998299Y991110D01*
X998291Y991094D01*
X998280Y991080D01*
X998198Y990915D01*
X998113Y990753D01*
X998108Y990736D01*
X998100Y990720D01*
X998053Y990541D01*
X998002Y990366D01*
X998000Y990348D01*
X997996Y990331D01*
X997969Y990000D01*
X997969Y984786D01*
X997971Y984768D01*
X997969Y984750D01*
X997990Y984568D01*
X998009Y984385D01*
X998014Y984368D01*
X998016Y984351D01*
X998073Y984176D01*
X998127Y984000D01*
X998135Y983985D01*
X998141Y983968D01*
X998231Y983808D01*
X998319Y983646D01*
X998330Y983633D01*
X998339Y983617D01*
X998459Y983478D01*
X998576Y983337D01*
X998590Y983326D01*
X998602Y983312D01*
X998747Y983200D01*
X998890Y983085D01*
X998906Y983077D01*
X998920Y983066D01*
X999085Y982984D01*
X999247Y982899D01*
X999264Y982894D01*
X999281Y982886D01*
X999459Y982839D01*
X999634Y982788D01*
X999652Y982786D01*
X999669Y982782D01*
X1000000Y982755D01*
X1002230Y982755D01*
X1004180Y981947D01*
X1005673Y980454D01*
X1006481Y978504D01*
X1006481Y976392D01*
X1005673Y974442D01*
X1004180Y972949D01*
X1002230Y972141D01*
X1000000Y972141D01*
X999982Y972139D01*
X999964Y972141D01*
X999782Y972120D01*
X999599Y972101D01*
X999582Y972096D01*
X999565Y972094D01*
X999390Y972037D01*
X999214Y971983D01*
X999199Y971975D01*
X999182Y971969D01*
X999022Y971879D01*
X998860Y971791D01*
X998847Y971780D01*
X998831Y971771D01*
X998692Y971651D01*
X998551Y971534D01*
X998540Y971520D01*
X998527Y971508D01*
X998414Y971363D01*
X998299Y971220D01*
X998291Y971204D01*
X998280Y971190D01*
X998198Y971025D01*
X998113Y970863D01*
X998108Y970846D01*
X998100Y970830D01*
X998053Y970651D01*
X998002Y970476D01*
X998000Y970458D01*
X997996Y970441D01*
X997969Y970110D01*
X997969Y882031D01*
X902031Y882031D01*
X902031Y1039886D01*
X902029Y1039908D01*
X902031Y1039930D01*
X902009Y1040108D01*
X901991Y1040286D01*
X901985Y1040308D01*
X901982Y1040330D01*
X901926Y1040500D01*
X901873Y1040671D01*
X901863Y1040691D01*
X901856Y1040712D01*
X901767Y1040868D01*
X901681Y1041025D01*
X901667Y1041043D01*
X901656Y1041062D01*
X901539Y1041197D01*
X901424Y1041335D01*
X901406Y1041349D01*
X901392Y1041365D01*
X901250Y1041475D01*
X901110Y1041587D01*
X901090Y1041597D01*
X901072Y1041611D01*
X900777Y1041763D01*
X898994Y1042501D01*
X897501Y1043994D01*
X896693Y1045944D01*
X896693Y1048056D01*
X897501Y1050006D01*
X898994Y1051499D01*
X900777Y1052237D01*
X900797Y1052248D01*
X900818Y1052255D01*
X900974Y1052343D01*
X901132Y1052428D01*
X901149Y1052442D01*
X901169Y1052453D01*
X901305Y1052570D01*
X901443Y1052684D01*
X901457Y1052701D01*
X901474Y1052716D01*
X901583Y1052857D01*
X901696Y1052997D01*
X901707Y1053017D01*
X901720Y1053034D01*
X901800Y1053195D01*
X901883Y1053353D01*
X901890Y1053375D01*
X901900Y1053395D01*
X901946Y1053568D01*
X901996Y1053740D01*
X901998Y1053762D01*
X902004Y1053783D01*
X902031Y1054114D01*
X902031Y1060000D01*
X902029Y1060018D01*
X902031Y1060036D01*
X902010Y1060218D01*
X901991Y1060401D01*
X901986Y1060418D01*
X901984Y1060435D01*
X901927Y1060609D01*
X901873Y1060786D01*
X901865Y1060801D01*
X901859Y1060818D01*
X901769Y1060978D01*
X901681Y1061140D01*
X901670Y1061153D01*
X901661Y1061169D01*
X901541Y1061308D01*
X901424Y1061449D01*
X901410Y1061460D01*
X901398Y1061474D01*
X901253Y1061586D01*
X901110Y1061701D01*
X901094Y1061709D01*
X901080Y1061720D01*
X900915Y1061802D01*
X900753Y1061887D01*
X900736Y1061892D01*
X900720Y1061900D01*
X900541Y1061947D01*
X900366Y1061998D01*
X900348Y1062000D01*
X900331Y1062004D01*
X900000Y1062031D01*
X852031Y1062031D01*
X852031Y1120000D01*
X852029Y1120018D01*
X852031Y1120036D01*
X852010Y1120218D01*
X851991Y1120401D01*
X851986Y1120418D01*
X851984Y1120435D01*
X851927Y1120610D01*
X851873Y1120786D01*
X851865Y1120801D01*
X851859Y1120818D01*
X851769Y1120978D01*
X851681Y1121140D01*
X851670Y1121153D01*
X851661Y1121169D01*
X851541Y1121308D01*
X851424Y1121449D01*
X851410Y1121460D01*
X851398Y1121474D01*
X851253Y1121586D01*
X851110Y1121701D01*
X851094Y1121709D01*
X851080Y1121720D01*
X850915Y1121802D01*
X850753Y1121887D01*
X850736Y1121892D01*
X850720Y1121900D01*
X850541Y1121947D01*
X850366Y1121998D01*
X850348Y1122000D01*
X850331Y1122004D01*
X850000Y1122031D01*
X762031Y1122031D01*
X762031Y1230000D01*
X762029Y1230018D01*
X762031Y1230036D01*
X762010Y1230218D01*
X761991Y1230401D01*
X761986Y1230418D01*
X761984Y1230435D01*
X761927Y1230610D01*
X761873Y1230786D01*
X761865Y1230801D01*
X761859Y1230818D01*
X761769Y1230978D01*
X761681Y1231140D01*
X761670Y1231153D01*
X761661Y1231169D01*
X761541Y1231308D01*
X761424Y1231449D01*
X761410Y1231460D01*
X761398Y1231474D01*
X761253Y1231586D01*
X761110Y1231701D01*
X761094Y1231709D01*
X761080Y1231720D01*
X760915Y1231802D01*
X760753Y1231887D01*
X760736Y1231892D01*
X760720Y1231900D01*
X760541Y1231947D01*
X760366Y1231998D01*
X760348Y1232000D01*
X760331Y1232004D01*
X760000Y1232031D01*
X560000Y1232031D01*
X559982Y1232029D01*
X559964Y1232031D01*
X559782Y1232010D01*
X559599Y1231991D01*
X559582Y1231986D01*
X559565Y1231984D01*
X559390Y1231927D01*
X559214Y1231873D01*
X559199Y1231865D01*
X559182Y1231859D01*
X559022Y1231769D01*
X558860Y1231681D01*
X558847Y1231670D01*
X558831Y1231661D01*
X558692Y1231541D01*
X558551Y1231424D01*
X558540Y1231410D01*
X558527Y1231398D01*
X558414Y1231253D01*
X558299Y1231110D01*
X558291Y1231094D01*
X558280Y1231080D01*
X558198Y1230915D01*
X558113Y1230753D01*
X558108Y1230736D01*
X558100Y1230720D01*
X558053Y1230541D01*
X558002Y1230366D01*
X558000Y1230348D01*
X557996Y1230331D01*
X557969Y1230000D01*
X557969Y1072031D01*
X330000Y1072031D01*
X329982Y1072029D01*
X329964Y1072031D01*
X329782Y1072010D01*
X329599Y1071991D01*
X329582Y1071986D01*
X329565Y1071984D01*
X329390Y1071927D01*
X329214Y1071873D01*
X329199Y1071865D01*
X329182Y1071859D01*
X329022Y1071769D01*
X328860Y1071681D01*
X328847Y1071670D01*
X328831Y1071661D01*
X328692Y1071541D01*
X328551Y1071424D01*
X328540Y1071410D01*
X328527Y1071398D01*
X328414Y1071253D01*
X328299Y1071110D01*
X328291Y1071094D01*
X328280Y1071080D01*
X328198Y1070915D01*
X328113Y1070753D01*
X328108Y1070736D01*
X328100Y1070720D01*
X328052Y1070541D01*
X328002Y1070366D01*
X328000Y1070348D01*
X327996Y1070331D01*
X327969Y1070000D01*
X327969Y570000D01*
X327971Y569973D01*
X327969Y569947D01*
X327991Y569773D01*
X328009Y569599D01*
X328017Y569574D01*
X328020Y569547D01*
X328076Y569382D01*
X328127Y569214D01*
X328140Y569191D01*
X328148Y569166D01*
X328235Y569014D01*
X328319Y568860D01*
X328336Y568840D01*
X328349Y568817D01*
X328564Y568564D01*
X358564Y538564D01*
X358584Y538547D01*
X358602Y538527D01*
X358740Y538419D01*
X358875Y538309D01*
X358899Y538296D01*
X358920Y538280D01*
X359077Y538202D01*
X359231Y538120D01*
X359256Y538112D01*
X359281Y538100D01*
X359450Y538055D01*
X359617Y538005D01*
X359643Y538003D01*
X359669Y537996D01*
X360000Y537969D01*
X680000Y537969D01*
X680027Y537971D01*
G37*
%LPC*%
G36*
X871944Y714693D02*
X871944Y714693D01*
X869994Y715501D01*
X868501Y716994D01*
X867693Y718944D01*
X867693Y721056D01*
X868501Y723006D01*
X869994Y724499D01*
X871208Y725002D01*
X871944Y725307D01*
X874056Y725307D01*
X876006Y724499D01*
X877179Y723326D01*
X877190Y723317D01*
X877198Y723307D01*
X877345Y723190D01*
X877491Y723070D01*
X877503Y723064D01*
X877513Y723056D01*
X877681Y722970D01*
X877847Y722882D01*
X877859Y722878D01*
X877871Y722872D01*
X878052Y722821D01*
X878232Y722767D01*
X878246Y722766D01*
X878259Y722762D01*
X878445Y722748D01*
X878633Y722731D01*
X878647Y722732D01*
X878660Y722731D01*
X878845Y722754D01*
X879034Y722774D01*
X879047Y722778D01*
X879060Y722780D01*
X879237Y722839D01*
X879418Y722896D01*
X879429Y722902D01*
X879442Y722906D01*
X879605Y722999D01*
X879770Y723090D01*
X879780Y723099D01*
X879792Y723106D01*
X879934Y723230D01*
X880077Y723351D01*
X880085Y723361D01*
X880095Y723370D01*
X880210Y723520D01*
X880326Y723667D01*
X880333Y723679D01*
X880341Y723689D01*
X880492Y723985D01*
X880501Y724006D01*
X881994Y725499D01*
X883944Y726307D01*
X886056Y726307D01*
X888006Y725499D01*
X889499Y724006D01*
X889830Y723205D01*
X889835Y723197D01*
X889837Y723189D01*
X889930Y723019D01*
X890021Y722851D01*
X890026Y722843D01*
X890031Y722836D01*
X890154Y722689D01*
X890277Y722540D01*
X890284Y722534D01*
X890290Y722528D01*
X890441Y722407D01*
X890590Y722286D01*
X890598Y722282D01*
X890605Y722277D01*
X890777Y722188D01*
X890946Y722099D01*
X890955Y722097D01*
X890963Y722093D01*
X891148Y722040D01*
X891333Y721986D01*
X891342Y721985D01*
X891350Y721983D01*
X891542Y721968D01*
X891734Y721952D01*
X891743Y721953D01*
X891752Y721952D01*
X891941Y721975D01*
X892134Y721997D01*
X892143Y722000D01*
X892151Y722001D01*
X892333Y722061D01*
X892517Y722120D01*
X892525Y722124D01*
X892534Y722127D01*
X892702Y722223D01*
X892869Y722316D01*
X892875Y722322D01*
X892883Y722327D01*
X893028Y722452D01*
X893174Y722578D01*
X893180Y722585D01*
X893187Y722591D01*
X893304Y722743D01*
X893423Y722895D01*
X893427Y722903D01*
X893432Y722910D01*
X893460Y722965D01*
X894994Y724499D01*
X896208Y725002D01*
X896944Y725307D01*
X899056Y725307D01*
X901006Y724499D01*
X902564Y722941D01*
X902577Y722930D01*
X902589Y722916D01*
X902733Y722802D01*
X902875Y722686D01*
X902891Y722678D01*
X902905Y722667D01*
X903069Y722583D01*
X903231Y722497D01*
X903248Y722492D01*
X903264Y722484D01*
X903441Y722435D01*
X903617Y722383D01*
X903635Y722381D01*
X903652Y722376D01*
X903835Y722363D01*
X904018Y722346D01*
X904036Y722348D01*
X904053Y722347D01*
X904235Y722370D01*
X904418Y722390D01*
X904435Y722395D01*
X904453Y722397D01*
X904626Y722456D01*
X904802Y722511D01*
X904818Y722520D01*
X904834Y722526D01*
X904993Y722617D01*
X905154Y722706D01*
X905168Y722718D01*
X905183Y722726D01*
X905436Y722941D01*
X906994Y724499D01*
X908208Y725002D01*
X908944Y725307D01*
X911056Y725307D01*
X913006Y724499D01*
X914499Y723006D01*
X914623Y722705D01*
X914628Y722698D01*
X914630Y722689D01*
X914722Y722521D01*
X914813Y722351D01*
X914819Y722344D01*
X914824Y722336D01*
X914947Y722189D01*
X915070Y722040D01*
X915077Y722035D01*
X915083Y722028D01*
X915232Y721908D01*
X915383Y721786D01*
X915391Y721782D01*
X915397Y721777D01*
X915567Y721689D01*
X915739Y721599D01*
X915748Y721597D01*
X915756Y721593D01*
X915941Y721540D01*
X916125Y721486D01*
X916134Y721486D01*
X916143Y721483D01*
X916335Y721468D01*
X916527Y721452D01*
X916535Y721453D01*
X916544Y721452D01*
X916736Y721475D01*
X916927Y721497D01*
X916935Y721499D01*
X916944Y721501D01*
X917128Y721561D01*
X917310Y721620D01*
X917318Y721624D01*
X917326Y721627D01*
X917495Y721723D01*
X917661Y721816D01*
X917668Y721822D01*
X917676Y721827D01*
X917822Y721954D01*
X917967Y722078D01*
X917973Y722085D01*
X917980Y722091D01*
X918098Y722245D01*
X918216Y722395D01*
X918219Y722403D01*
X918225Y722410D01*
X918377Y722705D01*
X918501Y723006D01*
X919994Y724499D01*
X921208Y725002D01*
X921944Y725307D01*
X924056Y725307D01*
X926006Y724499D01*
X927499Y723006D01*
X927623Y722705D01*
X927628Y722697D01*
X927630Y722689D01*
X927723Y722520D01*
X927814Y722351D01*
X927819Y722344D01*
X927824Y722336D01*
X927948Y722188D01*
X928070Y722040D01*
X928077Y722034D01*
X928083Y722028D01*
X928234Y721907D01*
X928383Y721786D01*
X928391Y721782D01*
X928398Y721777D01*
X928568Y721689D01*
X928739Y721599D01*
X928748Y721597D01*
X928756Y721593D01*
X928940Y721540D01*
X929126Y721486D01*
X929134Y721485D01*
X929143Y721483D01*
X929335Y721468D01*
X929527Y721452D01*
X929536Y721453D01*
X929545Y721452D01*
X929736Y721475D01*
X929927Y721497D01*
X929935Y721500D01*
X929944Y721501D01*
X930127Y721561D01*
X930310Y721620D01*
X930318Y721624D01*
X930326Y721627D01*
X930493Y721722D01*
X930662Y721816D01*
X930668Y721822D01*
X930676Y721827D01*
X930821Y721953D01*
X930967Y722078D01*
X930973Y722085D01*
X930980Y722091D01*
X931097Y722244D01*
X931216Y722395D01*
X931220Y722403D01*
X931225Y722410D01*
X931377Y722705D01*
X931501Y723006D01*
X932994Y724499D01*
X934208Y725002D01*
X934944Y725307D01*
X937056Y725307D01*
X939006Y724499D01*
X940499Y723006D01*
X940623Y722705D01*
X940628Y722697D01*
X940630Y722689D01*
X940722Y722521D01*
X940814Y722351D01*
X940819Y722344D01*
X940824Y722336D01*
X940947Y722188D01*
X941070Y722040D01*
X941077Y722034D01*
X941083Y722028D01*
X941233Y721908D01*
X941383Y721786D01*
X941391Y721782D01*
X941398Y721777D01*
X941570Y721688D01*
X941739Y721599D01*
X941748Y721597D01*
X941756Y721593D01*
X941942Y721540D01*
X942126Y721486D01*
X942135Y721485D01*
X942143Y721483D01*
X942335Y721468D01*
X942527Y721452D01*
X942536Y721453D01*
X942545Y721452D01*
X942735Y721475D01*
X942927Y721497D01*
X942935Y721499D01*
X942944Y721501D01*
X943126Y721561D01*
X943310Y721620D01*
X943318Y721624D01*
X943326Y721627D01*
X943493Y721722D01*
X943662Y721816D01*
X943668Y721822D01*
X943676Y721827D01*
X943820Y721952D01*
X943967Y722078D01*
X943973Y722085D01*
X943980Y722091D01*
X944097Y722244D01*
X944216Y722395D01*
X944220Y722403D01*
X944225Y722410D01*
X944377Y722705D01*
X944501Y723006D01*
X945994Y724499D01*
X947208Y725002D01*
X947944Y725307D01*
X950056Y725307D01*
X952006Y724499D01*
X953551Y722954D01*
X953606Y722851D01*
X953612Y722844D01*
X953616Y722836D01*
X953740Y722689D01*
X953863Y722540D01*
X953870Y722535D01*
X953876Y722528D01*
X954027Y722407D01*
X954175Y722287D01*
X954183Y722282D01*
X954190Y722277D01*
X954363Y722188D01*
X954532Y722099D01*
X954540Y722097D01*
X954549Y722093D01*
X954735Y722040D01*
X954918Y721986D01*
X954927Y721986D01*
X954936Y721983D01*
X955127Y721968D01*
X955319Y721952D01*
X955328Y721953D01*
X955337Y721952D01*
X955527Y721975D01*
X955719Y721997D01*
X955728Y721999D01*
X955737Y722001D01*
X955920Y722061D01*
X956103Y722120D01*
X956111Y722124D01*
X956119Y722127D01*
X956287Y722223D01*
X956454Y722316D01*
X956461Y722322D01*
X956469Y722327D01*
X956615Y722454D01*
X956760Y722578D01*
X956766Y722585D01*
X956773Y722591D01*
X956890Y722744D01*
X957008Y722895D01*
X957012Y722903D01*
X957018Y722910D01*
X957170Y723205D01*
X957501Y724006D01*
X958994Y725499D01*
X960944Y726307D01*
X963056Y726307D01*
X965006Y725499D01*
X966499Y724006D01*
X966508Y723985D01*
X966514Y723973D01*
X966518Y723960D01*
X966610Y723795D01*
X966698Y723630D01*
X966706Y723619D01*
X966713Y723608D01*
X966835Y723464D01*
X966954Y723319D01*
X966965Y723311D01*
X966973Y723301D01*
X967121Y723184D01*
X967267Y723066D01*
X967279Y723059D01*
X967289Y723051D01*
X967457Y722966D01*
X967623Y722879D01*
X967636Y722875D01*
X967648Y722869D01*
X967830Y722818D01*
X968010Y722765D01*
X968023Y722764D01*
X968036Y722761D01*
X968225Y722747D01*
X968411Y722731D01*
X968424Y722732D01*
X968438Y722731D01*
X968626Y722755D01*
X968811Y722776D01*
X968824Y722780D01*
X968837Y722782D01*
X969016Y722842D01*
X969194Y722899D01*
X969206Y722906D01*
X969219Y722910D01*
X969382Y723004D01*
X969546Y723095D01*
X969556Y723104D01*
X969568Y723111D01*
X969821Y723326D01*
X970994Y724499D01*
X972208Y725002D01*
X972944Y725307D01*
X975056Y725307D01*
X977006Y724499D01*
X978499Y723006D01*
X978623Y722705D01*
X978628Y722698D01*
X978630Y722689D01*
X978722Y722521D01*
X978813Y722351D01*
X978819Y722344D01*
X978824Y722336D01*
X978947Y722189D01*
X979070Y722040D01*
X979077Y722035D01*
X979083Y722028D01*
X979232Y721908D01*
X979383Y721786D01*
X979391Y721782D01*
X979397Y721777D01*
X979567Y721689D01*
X979739Y721599D01*
X979748Y721597D01*
X979756Y721593D01*
X979941Y721540D01*
X980125Y721486D01*
X980134Y721486D01*
X980143Y721483D01*
X980335Y721468D01*
X980527Y721452D01*
X980535Y721453D01*
X980544Y721452D01*
X980736Y721475D01*
X980927Y721497D01*
X980935Y721499D01*
X980944Y721501D01*
X981128Y721561D01*
X981310Y721620D01*
X981318Y721624D01*
X981326Y721627D01*
X981495Y721723D01*
X981661Y721816D01*
X981668Y721822D01*
X981676Y721827D01*
X981822Y721954D01*
X981967Y722078D01*
X981973Y722085D01*
X981980Y722091D01*
X982098Y722245D01*
X982216Y722395D01*
X982219Y722403D01*
X982225Y722410D01*
X982377Y722705D01*
X982501Y723006D01*
X983994Y724499D01*
X985208Y725002D01*
X985944Y725307D01*
X988056Y725307D01*
X990006Y724499D01*
X991499Y723006D01*
X992307Y721056D01*
X992307Y718944D01*
X991499Y716994D01*
X990006Y715501D01*
X988056Y714693D01*
X985944Y714693D01*
X983994Y715501D01*
X982501Y716994D01*
X982377Y717295D01*
X982372Y717303D01*
X982370Y717311D01*
X982277Y717480D01*
X982186Y717649D01*
X982181Y717656D01*
X982176Y717664D01*
X982053Y717811D01*
X981930Y717960D01*
X981923Y717966D01*
X981917Y717972D01*
X981767Y718092D01*
X981617Y718214D01*
X981609Y718218D01*
X981602Y718223D01*
X981432Y718311D01*
X981261Y718401D01*
X981252Y718403D01*
X981244Y718407D01*
X981060Y718460D01*
X980874Y718514D01*
X980866Y718515D01*
X980857Y718517D01*
X980665Y718532D01*
X980473Y718548D01*
X980464Y718547D01*
X980455Y718548D01*
X980264Y718525D01*
X980073Y718503D01*
X980065Y718500D01*
X980056Y718499D01*
X979873Y718439D01*
X979690Y718380D01*
X979682Y718376D01*
X979674Y718373D01*
X979507Y718278D01*
X979338Y718184D01*
X979332Y718178D01*
X979324Y718173D01*
X979179Y718047D01*
X979033Y717922D01*
X979027Y717915D01*
X979020Y717909D01*
X978902Y717755D01*
X978784Y717605D01*
X978780Y717597D01*
X978775Y717590D01*
X978623Y717295D01*
X978499Y716994D01*
X977006Y715501D01*
X975056Y714693D01*
X972944Y714693D01*
X970994Y715501D01*
X969501Y716994D01*
X969492Y717015D01*
X969486Y717027D01*
X969482Y717040D01*
X969390Y717205D01*
X969302Y717370D01*
X969294Y717381D01*
X969287Y717392D01*
X969165Y717536D01*
X969046Y717681D01*
X969035Y717689D01*
X969027Y717699D01*
X968879Y717816D01*
X968733Y717934D01*
X968721Y717941D01*
X968711Y717949D01*
X968543Y718034D01*
X968377Y718121D01*
X968364Y718125D01*
X968352Y718131D01*
X968170Y718182D01*
X967990Y718235D01*
X967977Y718236D01*
X967964Y718239D01*
X967775Y718253D01*
X967589Y718269D01*
X967576Y718268D01*
X967562Y718269D01*
X967374Y718245D01*
X967189Y718224D01*
X967176Y718220D01*
X967163Y718218D01*
X966984Y718158D01*
X966806Y718101D01*
X966794Y718094D01*
X966781Y718090D01*
X966618Y717996D01*
X966454Y717905D01*
X966444Y717896D01*
X966432Y717889D01*
X966179Y717674D01*
X965006Y716501D01*
X963056Y715693D01*
X960944Y715693D01*
X958994Y716501D01*
X957449Y718046D01*
X957394Y718149D01*
X957388Y718156D01*
X957384Y718164D01*
X957260Y718311D01*
X957137Y718460D01*
X957130Y718465D01*
X957124Y718472D01*
X956973Y718593D01*
X956825Y718713D01*
X956817Y718718D01*
X956810Y718723D01*
X956637Y718812D01*
X956468Y718901D01*
X956460Y718903D01*
X956451Y718907D01*
X956265Y718960D01*
X956082Y719014D01*
X956073Y719014D01*
X956064Y719017D01*
X955873Y719032D01*
X955681Y719048D01*
X955672Y719047D01*
X955663Y719048D01*
X955473Y719025D01*
X955281Y719003D01*
X955272Y719001D01*
X955263Y718999D01*
X955080Y718939D01*
X954897Y718880D01*
X954889Y718876D01*
X954881Y718873D01*
X954713Y718777D01*
X954546Y718684D01*
X954539Y718678D01*
X954531Y718673D01*
X954385Y718546D01*
X954240Y718422D01*
X954234Y718415D01*
X954227Y718409D01*
X954109Y718254D01*
X953992Y718105D01*
X953988Y718097D01*
X953982Y718090D01*
X953830Y717795D01*
X953499Y716994D01*
X952006Y715501D01*
X950056Y714693D01*
X947944Y714693D01*
X945994Y715501D01*
X944501Y716994D01*
X944377Y717295D01*
X944372Y717302D01*
X944370Y717311D01*
X944276Y717482D01*
X944187Y717649D01*
X944181Y717656D01*
X944176Y717664D01*
X944052Y717813D01*
X943930Y717960D01*
X943923Y717965D01*
X943917Y717972D01*
X943765Y718094D01*
X943617Y718214D01*
X943610Y718218D01*
X943603Y718223D01*
X943428Y718313D01*
X943261Y718401D01*
X943252Y718403D01*
X943244Y718407D01*
X943058Y718460D01*
X942875Y718514D01*
X942866Y718515D01*
X942857Y718517D01*
X942665Y718532D01*
X942473Y718548D01*
X942465Y718547D01*
X942456Y718548D01*
X942265Y718525D01*
X942073Y718503D01*
X942065Y718501D01*
X942056Y718499D01*
X941873Y718439D01*
X941690Y718380D01*
X941682Y718376D01*
X941674Y718373D01*
X941507Y718278D01*
X941339Y718184D01*
X941332Y718178D01*
X941324Y718173D01*
X941180Y718048D01*
X941033Y717922D01*
X941027Y717915D01*
X941020Y717909D01*
X940903Y717757D01*
X940784Y717605D01*
X940780Y717597D01*
X940775Y717590D01*
X940623Y717295D01*
X940499Y716994D01*
X939006Y715501D01*
X937056Y714693D01*
X934944Y714693D01*
X932994Y715501D01*
X931501Y716994D01*
X931377Y717295D01*
X931372Y717302D01*
X931370Y717311D01*
X931278Y717479D01*
X931187Y717649D01*
X931181Y717656D01*
X931176Y717664D01*
X931053Y717811D01*
X930930Y717960D01*
X930923Y717965D01*
X930917Y717972D01*
X930768Y718092D01*
X930617Y718214D01*
X930609Y718218D01*
X930603Y718223D01*
X930433Y718311D01*
X930261Y718401D01*
X930252Y718403D01*
X930244Y718407D01*
X930059Y718460D01*
X929875Y718514D01*
X929866Y718514D01*
X929857Y718517D01*
X929665Y718532D01*
X929473Y718548D01*
X929465Y718547D01*
X929456Y718548D01*
X929264Y718525D01*
X929073Y718503D01*
X929065Y718501D01*
X929056Y718499D01*
X928872Y718439D01*
X928690Y718380D01*
X928682Y718376D01*
X928674Y718373D01*
X928505Y718277D01*
X928339Y718184D01*
X928332Y718178D01*
X928324Y718173D01*
X928178Y718046D01*
X928033Y717922D01*
X928027Y717915D01*
X928020Y717909D01*
X927902Y717755D01*
X927784Y717605D01*
X927781Y717597D01*
X927775Y717590D01*
X927623Y717295D01*
X927499Y716994D01*
X926006Y715501D01*
X924056Y714693D01*
X921944Y714693D01*
X919994Y715501D01*
X918501Y716994D01*
X918377Y717295D01*
X918372Y717303D01*
X918370Y717311D01*
X918277Y717480D01*
X918186Y717649D01*
X918181Y717656D01*
X918176Y717664D01*
X918053Y717811D01*
X917930Y717960D01*
X917923Y717966D01*
X917917Y717972D01*
X917767Y718092D01*
X917617Y718214D01*
X917609Y718218D01*
X917602Y718223D01*
X917432Y718311D01*
X917261Y718401D01*
X917252Y718403D01*
X917244Y718407D01*
X917060Y718460D01*
X916874Y718514D01*
X916866Y718515D01*
X916857Y718517D01*
X916665Y718532D01*
X916473Y718548D01*
X916464Y718547D01*
X916455Y718548D01*
X916264Y718525D01*
X916073Y718503D01*
X916065Y718500D01*
X916056Y718499D01*
X915873Y718439D01*
X915690Y718380D01*
X915682Y718376D01*
X915674Y718373D01*
X915507Y718278D01*
X915338Y718184D01*
X915332Y718178D01*
X915324Y718173D01*
X915179Y718047D01*
X915033Y717922D01*
X915027Y717915D01*
X915020Y717909D01*
X914902Y717755D01*
X914784Y717605D01*
X914780Y717597D01*
X914775Y717590D01*
X914623Y717295D01*
X914499Y716994D01*
X913006Y715501D01*
X911056Y714693D01*
X908944Y714693D01*
X906994Y715501D01*
X905436Y717059D01*
X905422Y717070D01*
X905411Y717084D01*
X905267Y717198D01*
X905125Y717314D01*
X905109Y717322D01*
X905095Y717333D01*
X904931Y717417D01*
X904769Y717503D01*
X904752Y717508D01*
X904736Y717516D01*
X904559Y717565D01*
X904383Y717617D01*
X904365Y717619D01*
X904348Y717624D01*
X904165Y717637D01*
X903982Y717654D01*
X903964Y717652D01*
X903947Y717653D01*
X903765Y717630D01*
X903582Y717610D01*
X903565Y717605D01*
X903547Y717603D01*
X903373Y717544D01*
X903198Y717489D01*
X903182Y717480D01*
X903166Y717474D01*
X903007Y717383D01*
X902846Y717294D01*
X902832Y717282D01*
X902817Y717273D01*
X902564Y717059D01*
X901006Y715501D01*
X899056Y714693D01*
X896944Y714693D01*
X894994Y715501D01*
X893501Y716994D01*
X893170Y717795D01*
X893165Y717803D01*
X893163Y717811D01*
X893071Y717979D01*
X892979Y718149D01*
X892974Y718157D01*
X892969Y718164D01*
X892846Y718310D01*
X892723Y718460D01*
X892716Y718466D01*
X892710Y718472D01*
X892559Y718593D01*
X892410Y718714D01*
X892402Y718718D01*
X892395Y718723D01*
X892223Y718812D01*
X892054Y718901D01*
X892045Y718903D01*
X892037Y718907D01*
X891852Y718960D01*
X891667Y719014D01*
X891658Y719015D01*
X891650Y719017D01*
X891458Y719032D01*
X891266Y719048D01*
X891257Y719047D01*
X891248Y719048D01*
X891059Y719025D01*
X890866Y719003D01*
X890857Y719000D01*
X890849Y718999D01*
X890667Y718939D01*
X890483Y718880D01*
X890475Y718876D01*
X890466Y718873D01*
X890298Y718777D01*
X890131Y718684D01*
X890125Y718678D01*
X890117Y718673D01*
X889972Y718548D01*
X889826Y718422D01*
X889820Y718415D01*
X889813Y718409D01*
X889696Y718257D01*
X889577Y718105D01*
X889573Y718097D01*
X889568Y718090D01*
X889540Y718035D01*
X888006Y716501D01*
X886056Y715693D01*
X883944Y715693D01*
X881994Y716501D01*
X880821Y717674D01*
X880810Y717683D01*
X880802Y717693D01*
X880655Y717810D01*
X880509Y717930D01*
X880497Y717936D01*
X880487Y717944D01*
X880319Y718030D01*
X880153Y718118D01*
X880141Y718122D01*
X880129Y718128D01*
X879948Y718179D01*
X879768Y718233D01*
X879754Y718234D01*
X879741Y718238D01*
X879555Y718252D01*
X879367Y718269D01*
X879353Y718268D01*
X879340Y718269D01*
X879155Y718246D01*
X878966Y718226D01*
X878953Y718222D01*
X878940Y718220D01*
X878763Y718161D01*
X878582Y718104D01*
X878571Y718098D01*
X878558Y718094D01*
X878395Y718001D01*
X878230Y717910D01*
X878220Y717901D01*
X878208Y717894D01*
X878066Y717770D01*
X877923Y717649D01*
X877915Y717639D01*
X877905Y717630D01*
X877790Y717480D01*
X877674Y717333D01*
X877667Y717321D01*
X877659Y717311D01*
X877508Y717015D01*
X877499Y716994D01*
X876006Y715501D01*
X874056Y714693D01*
X871944Y714693D01*
G37*
%LPD*%
%LPC*%
G36*
X653509Y1169723D02*
X653509Y1169723D01*
X647614Y1172165D01*
X643101Y1176678D01*
X640659Y1182573D01*
X640659Y1188955D01*
X643101Y1194850D01*
X647614Y1199363D01*
X653509Y1201805D01*
X659891Y1201805D01*
X665786Y1199363D01*
X670299Y1194850D01*
X672741Y1188955D01*
X672741Y1182573D01*
X670299Y1176678D01*
X665786Y1172165D01*
X659891Y1169723D01*
X653509Y1169723D01*
G37*
%LPD*%
%LPC*%
G36*
X1053509Y1170223D02*
X1053509Y1170223D01*
X1047614Y1172665D01*
X1043101Y1177178D01*
X1040659Y1183073D01*
X1040659Y1189455D01*
X1043101Y1195350D01*
X1047614Y1199863D01*
X1048704Y1200314D01*
X1053509Y1202305D01*
X1059891Y1202305D01*
X1065786Y1199863D01*
X1070299Y1195350D01*
X1072741Y1189455D01*
X1072741Y1183073D01*
X1070299Y1177178D01*
X1065786Y1172665D01*
X1063120Y1171561D01*
X1059891Y1170223D01*
X1053509Y1170223D01*
G37*
%LPD*%
%LPC*%
G36*
X1007104Y666209D02*
X1007104Y666209D01*
X1003138Y667852D01*
X1000102Y670888D01*
X998459Y674854D01*
X998459Y679146D01*
X1000102Y683112D01*
X1003138Y686148D01*
X1007104Y687791D01*
X1011396Y687791D01*
X1015362Y686148D01*
X1018398Y683112D01*
X1020041Y679146D01*
X1020041Y674854D01*
X1018398Y670888D01*
X1015362Y667852D01*
X1011396Y666209D01*
X1007104Y666209D01*
G37*
%LPD*%
%LPC*%
G36*
X848604Y666209D02*
X848604Y666209D01*
X844638Y667852D01*
X841602Y670888D01*
X839959Y674854D01*
X839959Y679146D01*
X841602Y683112D01*
X844638Y686148D01*
X848604Y687791D01*
X852896Y687791D01*
X856862Y686148D01*
X859898Y683112D01*
X861541Y679146D01*
X861541Y674854D01*
X859898Y670888D01*
X856862Y667852D01*
X852896Y666209D01*
X848604Y666209D01*
G37*
%LPD*%
%LPC*%
G36*
X430623Y577559D02*
X430623Y577559D01*
X426786Y579149D01*
X423849Y582086D01*
X422259Y585923D01*
X422259Y590077D01*
X423849Y593914D01*
X426786Y596851D01*
X430623Y598441D01*
X434777Y598441D01*
X438614Y596851D01*
X441551Y593914D01*
X443141Y590077D01*
X443141Y585923D01*
X441551Y582086D01*
X438614Y579149D01*
X434777Y577559D01*
X430623Y577559D01*
G37*
%LPD*%
%LPC*%
G36*
X1285223Y1081559D02*
X1285223Y1081559D01*
X1281386Y1083149D01*
X1278449Y1086086D01*
X1276859Y1089923D01*
X1276859Y1094077D01*
X1278449Y1097914D01*
X1281386Y1100851D01*
X1285223Y1102441D01*
X1289377Y1102441D01*
X1293214Y1100851D01*
X1296151Y1097914D01*
X1297741Y1094077D01*
X1297741Y1089923D01*
X1296151Y1086086D01*
X1293214Y1083149D01*
X1289377Y1081559D01*
X1285223Y1081559D01*
G37*
%LPD*%
%LPC*%
G36*
X1082023Y1081559D02*
X1082023Y1081559D01*
X1078186Y1083149D01*
X1075249Y1086086D01*
X1073659Y1089923D01*
X1073659Y1094077D01*
X1075249Y1097914D01*
X1078186Y1100851D01*
X1082023Y1102441D01*
X1086177Y1102441D01*
X1090014Y1100851D01*
X1092951Y1097914D01*
X1094541Y1094077D01*
X1094541Y1089923D01*
X1092951Y1086086D01*
X1090014Y1083149D01*
X1086177Y1081559D01*
X1082023Y1081559D01*
G37*
%LPD*%
%LPC*%
G36*
X633823Y577559D02*
X633823Y577559D01*
X629986Y579149D01*
X627049Y582086D01*
X625459Y585923D01*
X625459Y590077D01*
X627049Y593914D01*
X629986Y596851D01*
X633823Y598441D01*
X637977Y598441D01*
X641814Y596851D01*
X644751Y593914D01*
X646341Y590077D01*
X646341Y585923D01*
X644751Y582086D01*
X641814Y579149D01*
X637977Y577559D01*
X633823Y577559D01*
G37*
%LPD*%
%LPC*%
G36*
X630813Y951719D02*
X630813Y951719D01*
X627674Y953020D01*
X625272Y955422D01*
X623971Y958561D01*
X623971Y961959D01*
X625272Y965098D01*
X627674Y967500D01*
X630813Y968801D01*
X634211Y968801D01*
X637350Y967500D01*
X639752Y965098D01*
X641053Y961959D01*
X641053Y958561D01*
X639752Y955422D01*
X637350Y953020D01*
X634211Y951719D01*
X630813Y951719D01*
G37*
%LPD*%
%LPC*%
G36*
X460944Y860693D02*
X460944Y860693D01*
X458994Y861501D01*
X457501Y862994D01*
X456693Y864944D01*
X456693Y867056D01*
X457501Y869006D01*
X458994Y870499D01*
X459295Y870623D01*
X459303Y870628D01*
X459311Y870630D01*
X459479Y870722D01*
X459649Y870814D01*
X459656Y870819D01*
X459664Y870824D01*
X459812Y870947D01*
X459960Y871070D01*
X459966Y871077D01*
X459972Y871083D01*
X460092Y871233D01*
X460214Y871383D01*
X460218Y871391D01*
X460223Y871398D01*
X460312Y871570D01*
X460401Y871739D01*
X460403Y871748D01*
X460407Y871756D01*
X460460Y871942D01*
X460514Y872126D01*
X460515Y872135D01*
X460517Y872143D01*
X460532Y872335D01*
X460548Y872527D01*
X460547Y872536D01*
X460548Y872545D01*
X460525Y872735D01*
X460503Y872927D01*
X460501Y872935D01*
X460499Y872944D01*
X460440Y873125D01*
X460380Y873310D01*
X460376Y873318D01*
X460373Y873326D01*
X460278Y873493D01*
X460184Y873662D01*
X460178Y873668D01*
X460173Y873676D01*
X460048Y873821D01*
X459922Y873967D01*
X459915Y873973D01*
X459909Y873980D01*
X459756Y874097D01*
X459605Y874216D01*
X459597Y874220D01*
X459590Y874225D01*
X459295Y874377D01*
X458994Y874501D01*
X457501Y875994D01*
X456693Y877944D01*
X456693Y880056D01*
X457501Y882006D01*
X458994Y883499D01*
X460944Y884307D01*
X463056Y884307D01*
X465006Y883499D01*
X466499Y882006D01*
X467307Y880056D01*
X467307Y877944D01*
X466499Y875994D01*
X465006Y874501D01*
X464705Y874377D01*
X464698Y874372D01*
X464689Y874370D01*
X464518Y874276D01*
X464351Y874187D01*
X464344Y874181D01*
X464336Y874176D01*
X464187Y874052D01*
X464040Y873930D01*
X464035Y873923D01*
X464028Y873917D01*
X463906Y873765D01*
X463786Y873617D01*
X463782Y873610D01*
X463777Y873603D01*
X463687Y873428D01*
X463599Y873261D01*
X463597Y873252D01*
X463593Y873244D01*
X463540Y873058D01*
X463486Y872875D01*
X463485Y872866D01*
X463483Y872857D01*
X463468Y872665D01*
X463452Y872473D01*
X463453Y872465D01*
X463452Y872456D01*
X463475Y872265D01*
X463497Y872073D01*
X463499Y872065D01*
X463501Y872056D01*
X463561Y871873D01*
X463620Y871690D01*
X463624Y871682D01*
X463627Y871674D01*
X463722Y871507D01*
X463816Y871339D01*
X463822Y871332D01*
X463827Y871324D01*
X463952Y871180D01*
X464078Y871033D01*
X464085Y871027D01*
X464091Y871020D01*
X464244Y870902D01*
X464395Y870784D01*
X464403Y870780D01*
X464410Y870775D01*
X464705Y870623D01*
X465006Y870499D01*
X466499Y869006D01*
X467307Y867056D01*
X467307Y864944D01*
X466499Y862994D01*
X465006Y861501D01*
X463056Y860693D01*
X460944Y860693D01*
G37*
%LPD*%
%LPC*%
G36*
X979696Y676443D02*
X979696Y676443D01*
X977286Y677441D01*
X975441Y679286D01*
X974443Y681696D01*
X974443Y684304D01*
X975441Y686714D01*
X977286Y688559D01*
X979696Y689557D01*
X982304Y689557D01*
X984714Y688559D01*
X986559Y686714D01*
X987557Y684304D01*
X987557Y681696D01*
X986559Y679286D01*
X984714Y677441D01*
X982304Y676443D01*
X979696Y676443D01*
G37*
%LPD*%
%LPC*%
G36*
X603635Y1179635D02*
X603635Y1179635D01*
X601231Y1180631D01*
X599391Y1182471D01*
X598395Y1184875D01*
X598395Y1187477D01*
X599391Y1189881D01*
X601231Y1191721D01*
X603635Y1192717D01*
X606237Y1192717D01*
X608641Y1191721D01*
X610481Y1189881D01*
X611477Y1187477D01*
X611477Y1184875D01*
X610481Y1182471D01*
X608641Y1180631D01*
X606359Y1179686D01*
X606237Y1179635D01*
X603635Y1179635D01*
G37*
%LPD*%
%LPC*%
G36*
X573635Y1179635D02*
X573635Y1179635D01*
X571231Y1180631D01*
X569391Y1182471D01*
X568395Y1184875D01*
X568395Y1187477D01*
X569391Y1189881D01*
X571231Y1191721D01*
X573635Y1192717D01*
X576237Y1192717D01*
X578641Y1191721D01*
X580481Y1189881D01*
X581477Y1187477D01*
X581477Y1184875D01*
X580481Y1182471D01*
X578641Y1180631D01*
X576359Y1179686D01*
X576237Y1179635D01*
X573635Y1179635D01*
G37*
%LPD*%
%LPC*%
G36*
X1197295Y1078159D02*
X1197295Y1078159D01*
X1195252Y1079005D01*
X1193689Y1080568D01*
X1192843Y1082611D01*
X1192843Y1084821D01*
X1193689Y1086864D01*
X1195252Y1088427D01*
X1197295Y1089273D01*
X1199505Y1089273D01*
X1201548Y1088427D01*
X1203111Y1086864D01*
X1203957Y1084821D01*
X1203957Y1082611D01*
X1203111Y1080568D01*
X1201548Y1079005D01*
X1199505Y1078159D01*
X1197295Y1078159D01*
G37*
%LPD*%
%LPC*%
G36*
X670979Y1094771D02*
X670979Y1094771D01*
X668936Y1095617D01*
X667373Y1097180D01*
X666527Y1099223D01*
X666527Y1101433D01*
X667373Y1103476D01*
X668936Y1105039D01*
X670979Y1105885D01*
X673189Y1105885D01*
X675232Y1105039D01*
X676795Y1103476D01*
X677641Y1101433D01*
X677641Y1099223D01*
X676795Y1097180D01*
X675232Y1095617D01*
X673189Y1094771D01*
X670979Y1094771D01*
G37*
%LPD*%
%LPC*%
G36*
X654215Y1095501D02*
X654215Y1095501D01*
X652172Y1096346D01*
X650609Y1097910D01*
X649763Y1099952D01*
X649763Y1102163D01*
X650609Y1104205D01*
X652172Y1105768D01*
X654215Y1106614D01*
X656425Y1106614D01*
X658468Y1105768D01*
X660031Y1104205D01*
X660877Y1102163D01*
X660877Y1099952D01*
X660031Y1097910D01*
X658468Y1096346D01*
X656425Y1095501D01*
X654215Y1095501D01*
G37*
%LPD*%
%LPC*%
G36*
X695363Y1101617D02*
X695363Y1101617D01*
X693320Y1102463D01*
X691757Y1104026D01*
X690911Y1106069D01*
X690911Y1108279D01*
X691757Y1110322D01*
X693320Y1111885D01*
X695363Y1112731D01*
X697573Y1112731D01*
X699616Y1111885D01*
X701179Y1110322D01*
X702025Y1108279D01*
X702025Y1106069D01*
X701179Y1104026D01*
X699616Y1102463D01*
X697573Y1101617D01*
X695363Y1101617D01*
G37*
%LPD*%
%LPC*%
G36*
X617639Y1012475D02*
X617639Y1012475D01*
X615596Y1013321D01*
X614033Y1014884D01*
X613187Y1016927D01*
X613187Y1019137D01*
X614033Y1021180D01*
X615596Y1022743D01*
X617639Y1023589D01*
X619849Y1023589D01*
X621892Y1022743D01*
X623455Y1021180D01*
X624301Y1019137D01*
X624301Y1016927D01*
X623455Y1014884D01*
X621892Y1013321D01*
X619849Y1012475D01*
X617639Y1012475D01*
G37*
%LPD*%
%LPC*%
G36*
X1248095Y1064443D02*
X1248095Y1064443D01*
X1246052Y1065289D01*
X1244489Y1066852D01*
X1243643Y1068895D01*
X1243643Y1071105D01*
X1244489Y1073148D01*
X1246052Y1074711D01*
X1248095Y1075557D01*
X1250305Y1075557D01*
X1252348Y1074711D01*
X1253911Y1073148D01*
X1254757Y1071105D01*
X1254757Y1068895D01*
X1253911Y1066852D01*
X1252348Y1065289D01*
X1250305Y1064443D01*
X1248095Y1064443D01*
G37*
%LPD*%
%LPC*%
G36*
X518579Y1056671D02*
X518579Y1056671D01*
X516536Y1057517D01*
X514973Y1059080D01*
X514127Y1061123D01*
X514127Y1063333D01*
X514973Y1065376D01*
X516536Y1066939D01*
X518579Y1067785D01*
X520789Y1067785D01*
X522832Y1066939D01*
X524395Y1065376D01*
X525241Y1063333D01*
X525241Y1061123D01*
X524395Y1059080D01*
X522832Y1057517D01*
X520789Y1056671D01*
X518579Y1056671D01*
G37*
%LPD*%
%LPC*%
G36*
X1248095Y1108443D02*
X1248095Y1108443D01*
X1246052Y1109289D01*
X1244489Y1110852D01*
X1243643Y1112895D01*
X1243643Y1115105D01*
X1244489Y1117148D01*
X1246052Y1118711D01*
X1248095Y1119557D01*
X1250305Y1119557D01*
X1252348Y1118711D01*
X1253911Y1117148D01*
X1254757Y1115105D01*
X1254757Y1112895D01*
X1253911Y1110852D01*
X1252348Y1109289D01*
X1250305Y1108443D01*
X1248095Y1108443D01*
G37*
%LPD*%
%LPC*%
G36*
X1197295Y1108443D02*
X1197295Y1108443D01*
X1195252Y1109289D01*
X1193689Y1110852D01*
X1192843Y1112895D01*
X1192843Y1115105D01*
X1193689Y1117148D01*
X1195252Y1118711D01*
X1197295Y1119557D01*
X1199505Y1119557D01*
X1201548Y1118711D01*
X1203111Y1117148D01*
X1203957Y1115105D01*
X1203957Y1112895D01*
X1203111Y1110852D01*
X1201548Y1109289D01*
X1199505Y1108443D01*
X1197295Y1108443D01*
G37*
%LPD*%
%LPC*%
G36*
X1222695Y1108443D02*
X1222695Y1108443D01*
X1220652Y1109289D01*
X1219089Y1110852D01*
X1218243Y1112895D01*
X1218243Y1115105D01*
X1219089Y1117148D01*
X1220652Y1118711D01*
X1222695Y1119557D01*
X1224905Y1119557D01*
X1226948Y1118711D01*
X1228511Y1117148D01*
X1229357Y1115105D01*
X1229357Y1112895D01*
X1228511Y1110852D01*
X1226948Y1109289D01*
X1224905Y1108443D01*
X1222695Y1108443D01*
G37*
%LPD*%
%LPC*%
G36*
X676895Y1113443D02*
X676895Y1113443D01*
X674852Y1114289D01*
X673289Y1115852D01*
X672443Y1117895D01*
X672443Y1120105D01*
X673289Y1122148D01*
X674852Y1123711D01*
X676895Y1124557D01*
X679105Y1124557D01*
X681148Y1123711D01*
X682711Y1122148D01*
X683557Y1120105D01*
X683557Y1117895D01*
X682711Y1115852D01*
X681148Y1114289D01*
X679105Y1113443D01*
X676895Y1113443D01*
G37*
%LPD*%
%LPC*%
G36*
X606971Y992663D02*
X606971Y992663D01*
X604928Y993509D01*
X603365Y995072D01*
X602519Y997115D01*
X602519Y999325D01*
X603365Y1001368D01*
X604928Y1002931D01*
X606971Y1003777D01*
X609181Y1003777D01*
X611224Y1002931D01*
X612787Y1001368D01*
X613633Y999325D01*
X613633Y997115D01*
X612787Y995072D01*
X611224Y993509D01*
X609537Y992811D01*
X609181Y992663D01*
X606971Y992663D01*
G37*
%LPD*%
%LPC*%
G36*
X571944Y820693D02*
X571944Y820693D01*
X569994Y821501D01*
X568501Y822994D01*
X567693Y824944D01*
X567693Y827056D01*
X568501Y829006D01*
X569994Y830499D01*
X570303Y830627D01*
X571944Y831307D01*
X574056Y831307D01*
X576006Y830499D01*
X577499Y829006D01*
X578307Y827056D01*
X578307Y824944D01*
X577499Y822994D01*
X576006Y821501D01*
X574056Y820693D01*
X571944Y820693D01*
G37*
%LPD*%
%LPC*%
G36*
X571344Y560693D02*
X571344Y560693D01*
X569394Y561501D01*
X567901Y562994D01*
X567093Y564944D01*
X567093Y567056D01*
X567901Y569006D01*
X569394Y570499D01*
X569703Y570627D01*
X571344Y571307D01*
X573456Y571307D01*
X575406Y570499D01*
X576899Y569006D01*
X577707Y567056D01*
X577707Y564944D01*
X576899Y562994D01*
X575406Y561501D01*
X573456Y560693D01*
X571344Y560693D01*
G37*
%LPD*%
%LPC*%
G36*
X596744Y560693D02*
X596744Y560693D01*
X594794Y561501D01*
X593301Y562994D01*
X592493Y564944D01*
X592493Y567056D01*
X593301Y569006D01*
X594794Y570499D01*
X595103Y570627D01*
X596744Y571307D01*
X598856Y571307D01*
X600806Y570499D01*
X602299Y569006D01*
X603107Y567056D01*
X603107Y564944D01*
X602299Y562994D01*
X600806Y561501D01*
X598856Y560693D01*
X596744Y560693D01*
G37*
%LPD*%
%LPC*%
G36*
X469744Y560693D02*
X469744Y560693D01*
X467794Y561501D01*
X466301Y562994D01*
X465493Y564944D01*
X465493Y567056D01*
X466301Y569006D01*
X467794Y570499D01*
X468103Y570627D01*
X469744Y571307D01*
X471856Y571307D01*
X473806Y570499D01*
X475299Y569006D01*
X476107Y567056D01*
X476107Y564944D01*
X475299Y562994D01*
X473806Y561501D01*
X471856Y560693D01*
X469744Y560693D01*
G37*
%LPD*%
%LPC*%
G36*
X1273944Y1001693D02*
X1273944Y1001693D01*
X1271994Y1002501D01*
X1270501Y1003994D01*
X1269693Y1005944D01*
X1269693Y1008056D01*
X1270501Y1010006D01*
X1271994Y1011499D01*
X1273944Y1012307D01*
X1276056Y1012307D01*
X1278006Y1011499D01*
X1279499Y1010006D01*
X1280307Y1008056D01*
X1280307Y1005944D01*
X1279499Y1003994D01*
X1278006Y1002501D01*
X1276056Y1001693D01*
X1273944Y1001693D01*
G37*
%LPD*%
%LPC*%
G36*
X760944Y997693D02*
X760944Y997693D01*
X758994Y998501D01*
X757501Y999994D01*
X756693Y1001944D01*
X756693Y1004056D01*
X757501Y1006006D01*
X758994Y1007499D01*
X760944Y1008307D01*
X763056Y1008307D01*
X765006Y1007499D01*
X766499Y1006006D01*
X767307Y1004056D01*
X767307Y1001944D01*
X766499Y999994D01*
X765006Y998501D01*
X763056Y997693D01*
X760944Y997693D01*
G37*
%LPD*%
%LPC*%
G36*
X730944Y997693D02*
X730944Y997693D01*
X728994Y998501D01*
X727501Y999994D01*
X726693Y1001944D01*
X726693Y1004056D01*
X727501Y1006006D01*
X728994Y1007499D01*
X730944Y1008307D01*
X733056Y1008307D01*
X735006Y1007499D01*
X736499Y1006006D01*
X737307Y1004056D01*
X737307Y1001944D01*
X736499Y999994D01*
X735006Y998501D01*
X733056Y997693D01*
X730944Y997693D01*
G37*
%LPD*%
%LPC*%
G36*
X370045Y993592D02*
X370045Y993592D01*
X368095Y994400D01*
X366602Y995893D01*
X365794Y997843D01*
X365794Y999955D01*
X366602Y1001905D01*
X368095Y1003398D01*
X370045Y1004206D01*
X372157Y1004206D01*
X374107Y1003398D01*
X375600Y1001905D01*
X376408Y999955D01*
X376408Y997843D01*
X375600Y995893D01*
X374107Y994400D01*
X372157Y993592D01*
X370045Y993592D01*
G37*
%LPD*%
%LPC*%
G36*
X369398Y1010240D02*
X369398Y1010240D01*
X367447Y1011048D01*
X365954Y1012541D01*
X365147Y1014491D01*
X365147Y1016602D01*
X365954Y1018553D01*
X367447Y1020046D01*
X369398Y1020853D01*
X371509Y1020853D01*
X373459Y1020046D01*
X374952Y1018553D01*
X375760Y1016602D01*
X375760Y1014491D01*
X374952Y1012541D01*
X373459Y1011048D01*
X371509Y1010240D01*
X369398Y1010240D01*
G37*
%LPD*%
%LPC*%
G36*
X418944Y557293D02*
X418944Y557293D01*
X416994Y558101D01*
X415501Y559594D01*
X414693Y561544D01*
X414693Y563656D01*
X415501Y565606D01*
X416994Y567099D01*
X418944Y567907D01*
X421056Y567907D01*
X423006Y567099D01*
X424499Y565606D01*
X425307Y563656D01*
X425307Y561544D01*
X424499Y559594D01*
X423006Y558101D01*
X421056Y557293D01*
X418944Y557293D01*
G37*
%LPD*%
%LPC*%
G36*
X378944Y968809D02*
X378944Y968809D01*
X376994Y969617D01*
X375501Y971110D01*
X374693Y973060D01*
X374693Y975172D01*
X375501Y977122D01*
X376994Y978615D01*
X378944Y979423D01*
X381056Y979423D01*
X383006Y978615D01*
X384499Y977122D01*
X385307Y975172D01*
X385307Y973060D01*
X384499Y971110D01*
X383006Y969617D01*
X381056Y968809D01*
X378944Y968809D01*
G37*
%LPD*%
%LPC*%
G36*
X828944Y1014693D02*
X828944Y1014693D01*
X826994Y1015501D01*
X825501Y1016994D01*
X824693Y1018944D01*
X824693Y1021056D01*
X825501Y1023006D01*
X826994Y1024499D01*
X828944Y1025307D01*
X831056Y1025307D01*
X833006Y1024499D01*
X834499Y1023006D01*
X835307Y1021056D01*
X835307Y1018944D01*
X834499Y1016994D01*
X833006Y1015501D01*
X831056Y1014693D01*
X828944Y1014693D01*
G37*
%LPD*%
%LPC*%
G36*
X463944Y939693D02*
X463944Y939693D01*
X461994Y940501D01*
X460501Y941994D01*
X459693Y943944D01*
X459693Y946056D01*
X460501Y948006D01*
X461994Y949499D01*
X463944Y950307D01*
X466056Y950307D01*
X468006Y949499D01*
X469499Y948006D01*
X470307Y946056D01*
X470307Y943944D01*
X469499Y941994D01*
X468006Y940501D01*
X466056Y939693D01*
X463944Y939693D01*
G37*
%LPD*%
%LPC*%
G36*
X1044944Y938693D02*
X1044944Y938693D01*
X1042994Y939501D01*
X1041501Y940994D01*
X1040693Y942944D01*
X1040693Y945056D01*
X1041501Y947006D01*
X1042994Y948499D01*
X1044944Y949307D01*
X1047056Y949307D01*
X1049006Y948499D01*
X1050499Y947006D01*
X1051307Y945056D01*
X1051307Y942944D01*
X1050499Y940994D01*
X1049006Y939501D01*
X1047056Y938693D01*
X1044944Y938693D01*
G37*
%LPD*%
%LPC*%
G36*
X534944Y926693D02*
X534944Y926693D01*
X532994Y927501D01*
X531501Y928994D01*
X530693Y930944D01*
X530693Y933056D01*
X531501Y935006D01*
X532994Y936499D01*
X534944Y937307D01*
X537056Y937307D01*
X539006Y936499D01*
X540499Y935006D01*
X541307Y933056D01*
X541307Y930944D01*
X540499Y928994D01*
X539006Y927501D01*
X537056Y926693D01*
X534944Y926693D01*
G37*
%LPD*%
%LPC*%
G36*
X1061944Y918693D02*
X1061944Y918693D01*
X1059994Y919501D01*
X1058501Y920994D01*
X1057693Y922944D01*
X1057693Y925056D01*
X1058501Y927006D01*
X1059994Y928499D01*
X1061944Y929307D01*
X1064056Y929307D01*
X1066006Y928499D01*
X1067499Y927006D01*
X1068307Y925056D01*
X1068307Y922944D01*
X1067499Y920994D01*
X1066006Y919501D01*
X1064056Y918693D01*
X1061944Y918693D01*
G37*
%LPD*%
%LPC*%
G36*
X444344Y557293D02*
X444344Y557293D01*
X442394Y558101D01*
X440901Y559594D01*
X440093Y561544D01*
X440093Y563656D01*
X440901Y565606D01*
X442394Y567099D01*
X444344Y567907D01*
X446456Y567907D01*
X448406Y567099D01*
X449899Y565606D01*
X450707Y563656D01*
X450707Y561544D01*
X449899Y559594D01*
X448406Y558101D01*
X446456Y557293D01*
X444344Y557293D01*
G37*
%LPD*%
%LPC*%
G36*
X494944Y899693D02*
X494944Y899693D01*
X492994Y900501D01*
X491501Y901994D01*
X490693Y903944D01*
X490693Y906056D01*
X491501Y908006D01*
X492994Y909499D01*
X494944Y910307D01*
X497056Y910307D01*
X499006Y909499D01*
X500499Y908006D01*
X501307Y906056D01*
X501307Y903944D01*
X500499Y901994D01*
X499006Y900501D01*
X497056Y899693D01*
X494944Y899693D01*
G37*
%LPD*%
%LPC*%
G36*
X368944Y894693D02*
X368944Y894693D01*
X366994Y895501D01*
X365501Y896994D01*
X364693Y898944D01*
X364693Y901056D01*
X365501Y903006D01*
X366994Y904499D01*
X368944Y905307D01*
X371056Y905307D01*
X373006Y904499D01*
X374499Y903006D01*
X375307Y901056D01*
X375307Y898944D01*
X374499Y896994D01*
X373006Y895501D01*
X371056Y894693D01*
X368944Y894693D01*
G37*
%LPD*%
%LPC*%
G36*
X1038944Y874693D02*
X1038944Y874693D01*
X1036994Y875501D01*
X1035501Y876994D01*
X1034693Y878944D01*
X1034693Y881056D01*
X1035501Y883006D01*
X1036994Y884499D01*
X1038944Y885307D01*
X1041056Y885307D01*
X1043006Y884499D01*
X1044499Y883006D01*
X1045307Y881056D01*
X1045307Y878944D01*
X1044499Y876994D01*
X1043006Y875501D01*
X1041056Y874693D01*
X1038944Y874693D01*
G37*
%LPD*%
%LPC*%
G36*
X376944Y874693D02*
X376944Y874693D01*
X374994Y875501D01*
X373501Y876994D01*
X372693Y878944D01*
X372693Y881056D01*
X373501Y883006D01*
X374994Y884499D01*
X376944Y885307D01*
X379056Y885307D01*
X381006Y884499D01*
X382499Y883006D01*
X383307Y881056D01*
X383307Y878944D01*
X382499Y876994D01*
X381006Y875501D01*
X379056Y874693D01*
X376944Y874693D01*
G37*
%LPD*%
%LPC*%
G36*
X964944Y1192693D02*
X964944Y1192693D01*
X962994Y1193501D01*
X961501Y1194994D01*
X960693Y1196944D01*
X960693Y1199056D01*
X961501Y1201006D01*
X962994Y1202499D01*
X964944Y1203307D01*
X967056Y1203307D01*
X969006Y1202499D01*
X970499Y1201006D01*
X971307Y1199056D01*
X971307Y1196944D01*
X970499Y1194994D01*
X969006Y1193501D01*
X967056Y1192693D01*
X964944Y1192693D01*
G37*
%LPD*%
%LPC*%
G36*
X617688Y1127025D02*
X617688Y1127025D01*
X615738Y1127833D01*
X614245Y1129326D01*
X613437Y1131276D01*
X613437Y1133388D01*
X614245Y1135338D01*
X615738Y1136831D01*
X617688Y1137639D01*
X619800Y1137639D01*
X621750Y1136831D01*
X623243Y1135338D01*
X624051Y1133388D01*
X624051Y1131276D01*
X623243Y1129326D01*
X621750Y1127833D01*
X619800Y1127025D01*
X617688Y1127025D01*
G37*
%LPD*%
%LPC*%
G36*
X676944Y856693D02*
X676944Y856693D01*
X674994Y857501D01*
X673501Y858994D01*
X672693Y860944D01*
X672693Y863056D01*
X673501Y865006D01*
X674994Y866499D01*
X676944Y867307D01*
X679056Y867307D01*
X681006Y866499D01*
X682499Y865006D01*
X683307Y863056D01*
X683307Y860944D01*
X682499Y858994D01*
X681006Y857501D01*
X679056Y856693D01*
X676944Y856693D01*
G37*
%LPD*%
%LPC*%
G36*
X601944Y856693D02*
X601944Y856693D01*
X599994Y857501D01*
X598501Y858994D01*
X597693Y860944D01*
X597693Y863056D01*
X598501Y865006D01*
X599994Y866499D01*
X601944Y867307D01*
X604056Y867307D01*
X606006Y866499D01*
X607499Y865006D01*
X608307Y863056D01*
X608307Y860944D01*
X607499Y858994D01*
X606006Y857501D01*
X604056Y856693D01*
X601944Y856693D01*
G37*
%LPD*%
%LPC*%
G36*
X515944Y856693D02*
X515944Y856693D01*
X513994Y857501D01*
X512501Y858994D01*
X511693Y860944D01*
X511693Y863056D01*
X512501Y865006D01*
X513994Y866499D01*
X515944Y867307D01*
X518056Y867307D01*
X520006Y866499D01*
X521499Y865006D01*
X522307Y863056D01*
X522307Y860944D01*
X521499Y858994D01*
X520006Y857501D01*
X518056Y856693D01*
X515944Y856693D01*
G37*
%LPD*%
%LPC*%
G36*
X868944Y1024693D02*
X868944Y1024693D01*
X866994Y1025501D01*
X865501Y1026994D01*
X864693Y1028944D01*
X864693Y1031056D01*
X865501Y1033006D01*
X866994Y1034499D01*
X868944Y1035307D01*
X871056Y1035307D01*
X873006Y1034499D01*
X874499Y1033006D01*
X875307Y1031056D01*
X875307Y1028944D01*
X874499Y1026994D01*
X873006Y1025501D01*
X871056Y1024693D01*
X868944Y1024693D01*
G37*
%LPD*%
%LPC*%
G36*
X1058944Y1093351D02*
X1058944Y1093351D01*
X1056994Y1094159D01*
X1055501Y1095652D01*
X1054693Y1097602D01*
X1054693Y1099714D01*
X1055501Y1101664D01*
X1056994Y1103157D01*
X1058944Y1103965D01*
X1061056Y1103965D01*
X1063006Y1103157D01*
X1064499Y1101664D01*
X1065307Y1099714D01*
X1065307Y1097602D01*
X1064499Y1095652D01*
X1063006Y1094159D01*
X1061056Y1093351D01*
X1058944Y1093351D01*
G37*
%LPD*%
%LPC*%
G36*
X443944Y783693D02*
X443944Y783693D01*
X441994Y784501D01*
X440501Y785994D01*
X439693Y787944D01*
X439693Y790056D01*
X440501Y792006D01*
X441994Y793499D01*
X443944Y794307D01*
X446056Y794307D01*
X448006Y793499D01*
X449499Y792006D01*
X450307Y790056D01*
X450307Y787944D01*
X449499Y785994D01*
X448006Y784501D01*
X446056Y783693D01*
X443944Y783693D01*
G37*
%LPD*%
%LPC*%
G36*
X588944Y754693D02*
X588944Y754693D01*
X586994Y755501D01*
X585501Y756994D01*
X584693Y758944D01*
X584693Y761056D01*
X585501Y763006D01*
X586994Y764499D01*
X588944Y765307D01*
X591056Y765307D01*
X593006Y764499D01*
X594499Y763006D01*
X595307Y761056D01*
X595307Y758944D01*
X594499Y756994D01*
X593006Y755501D01*
X591056Y754693D01*
X588944Y754693D01*
G37*
%LPD*%
%LPC*%
G36*
X388944Y754693D02*
X388944Y754693D01*
X386994Y755501D01*
X385501Y756994D01*
X384693Y758944D01*
X384693Y761056D01*
X385501Y763006D01*
X386994Y764499D01*
X388944Y765307D01*
X391056Y765307D01*
X393006Y764499D01*
X394499Y763006D01*
X395307Y761056D01*
X395307Y758944D01*
X394499Y756994D01*
X393006Y755501D01*
X391056Y754693D01*
X388944Y754693D01*
G37*
%LPD*%
%LPC*%
G36*
X1234944Y1028889D02*
X1234944Y1028889D01*
X1232994Y1029697D01*
X1231501Y1031190D01*
X1230693Y1033140D01*
X1230693Y1035252D01*
X1231501Y1037202D01*
X1232994Y1038695D01*
X1234944Y1039503D01*
X1237056Y1039503D01*
X1239006Y1038695D01*
X1240499Y1037202D01*
X1241307Y1035252D01*
X1241307Y1033140D01*
X1240499Y1031190D01*
X1239006Y1029697D01*
X1237056Y1028889D01*
X1234944Y1028889D01*
G37*
%LPD*%
%LPC*%
G36*
X469744Y604693D02*
X469744Y604693D01*
X467794Y605501D01*
X466301Y606994D01*
X465493Y608944D01*
X465493Y611056D01*
X466301Y613006D01*
X467794Y614499D01*
X469744Y615307D01*
X471856Y615307D01*
X473806Y614499D01*
X475299Y613006D01*
X476107Y611056D01*
X476107Y608944D01*
X475299Y606994D01*
X473806Y605501D01*
X471856Y604693D01*
X469744Y604693D01*
G37*
%LPD*%
%LPC*%
G36*
X592944Y695693D02*
X592944Y695693D01*
X590994Y696501D01*
X589501Y697994D01*
X588693Y699944D01*
X588693Y702056D01*
X589501Y704006D01*
X590994Y705499D01*
X592944Y706307D01*
X595056Y706307D01*
X597006Y705499D01*
X598499Y704006D01*
X599307Y702056D01*
X599307Y699944D01*
X598499Y697994D01*
X597006Y696501D01*
X595056Y695693D01*
X592944Y695693D01*
G37*
%LPD*%
%LPC*%
G36*
X877944Y679693D02*
X877944Y679693D01*
X875994Y680501D01*
X874501Y681994D01*
X873693Y683944D01*
X873693Y686056D01*
X874501Y688006D01*
X875994Y689499D01*
X877944Y690307D01*
X880056Y690307D01*
X882006Y689499D01*
X883499Y688006D01*
X884307Y686056D01*
X884307Y683944D01*
X883499Y681994D01*
X882006Y680501D01*
X880056Y679693D01*
X877944Y679693D01*
G37*
%LPD*%
%LPC*%
G36*
X368944Y1029693D02*
X368944Y1029693D01*
X366994Y1030501D01*
X365501Y1031994D01*
X364693Y1033944D01*
X364693Y1036056D01*
X365501Y1038006D01*
X366994Y1039499D01*
X368944Y1040307D01*
X371056Y1040307D01*
X373006Y1039499D01*
X374499Y1038006D01*
X375307Y1036056D01*
X375307Y1033944D01*
X374499Y1031994D01*
X373006Y1030501D01*
X371056Y1029693D01*
X368944Y1029693D01*
G37*
%LPD*%
%LPC*%
G36*
X799944Y1041693D02*
X799944Y1041693D01*
X797994Y1042501D01*
X796501Y1043994D01*
X795693Y1045944D01*
X795693Y1048056D01*
X796501Y1050006D01*
X797994Y1051499D01*
X799944Y1052307D01*
X802056Y1052307D01*
X804006Y1051499D01*
X805499Y1050006D01*
X806307Y1048056D01*
X806307Y1045944D01*
X805499Y1043994D01*
X804006Y1042501D01*
X802056Y1041693D01*
X799944Y1041693D01*
G37*
%LPD*%
%LPC*%
G36*
X586944Y1050693D02*
X586944Y1050693D01*
X584994Y1051501D01*
X583501Y1052994D01*
X582693Y1054944D01*
X582693Y1057056D01*
X583501Y1059006D01*
X584994Y1060499D01*
X586944Y1061307D01*
X589056Y1061307D01*
X591006Y1060499D01*
X592499Y1059006D01*
X593307Y1057056D01*
X593307Y1054944D01*
X592499Y1052994D01*
X591006Y1051501D01*
X589056Y1050693D01*
X586944Y1050693D01*
G37*
%LPD*%
%LPC*%
G36*
X622144Y608093D02*
X622144Y608093D01*
X620194Y608901D01*
X618701Y610394D01*
X617893Y612344D01*
X617893Y614456D01*
X618701Y616406D01*
X620194Y617899D01*
X622144Y618707D01*
X624256Y618707D01*
X626206Y617899D01*
X627699Y616406D01*
X628507Y614456D01*
X628507Y612344D01*
X627699Y610394D01*
X626206Y608901D01*
X624256Y608093D01*
X622144Y608093D01*
G37*
%LPD*%
%LPC*%
G36*
X444344Y608093D02*
X444344Y608093D01*
X442394Y608901D01*
X440901Y610394D01*
X440093Y612344D01*
X440093Y614456D01*
X440901Y616406D01*
X442394Y617899D01*
X444344Y618707D01*
X446456Y618707D01*
X448406Y617899D01*
X449899Y616406D01*
X450707Y614456D01*
X450707Y612344D01*
X449899Y610394D01*
X448406Y608901D01*
X446456Y608093D01*
X444344Y608093D01*
G37*
%LPD*%
%LPC*%
G36*
X418944Y608093D02*
X418944Y608093D01*
X416994Y608901D01*
X415501Y610394D01*
X414693Y612344D01*
X414693Y614456D01*
X415501Y616406D01*
X416994Y617899D01*
X418944Y618707D01*
X421056Y618707D01*
X423006Y617899D01*
X424499Y616406D01*
X425307Y614456D01*
X425307Y612344D01*
X424499Y610394D01*
X423006Y608901D01*
X421056Y608093D01*
X418944Y608093D01*
G37*
%LPD*%
%LPC*%
G36*
X596744Y604693D02*
X596744Y604693D01*
X594794Y605501D01*
X593301Y606994D01*
X592493Y608944D01*
X592493Y611056D01*
X593301Y613006D01*
X594794Y614499D01*
X596744Y615307D01*
X598856Y615307D01*
X600806Y614499D01*
X602299Y613006D01*
X603107Y611056D01*
X603107Y608944D01*
X602299Y606994D01*
X600806Y605501D01*
X598856Y604693D01*
X596744Y604693D01*
G37*
%LPD*%
%LPC*%
G36*
X571344Y604693D02*
X571344Y604693D01*
X569394Y605501D01*
X567901Y606994D01*
X567093Y608944D01*
X567093Y611056D01*
X567901Y613006D01*
X569394Y614499D01*
X571344Y615307D01*
X573456Y615307D01*
X575406Y614499D01*
X576899Y613006D01*
X577707Y611056D01*
X577707Y608944D01*
X576899Y606994D01*
X575406Y605501D01*
X573456Y604693D01*
X571344Y604693D01*
G37*
%LPD*%
%LPC*%
G36*
X691944Y1018693D02*
X691944Y1018693D01*
X689994Y1019501D01*
X688501Y1020994D01*
X687693Y1022944D01*
X687693Y1025056D01*
X688501Y1027006D01*
X689994Y1028499D01*
X691944Y1029307D01*
X694056Y1029307D01*
X696006Y1028499D01*
X697499Y1027006D01*
X698307Y1025056D01*
X698307Y1022944D01*
X697499Y1020994D01*
X696006Y1019501D01*
X695320Y1019217D01*
X694056Y1018693D01*
X691944Y1018693D01*
G37*
%LPD*%
%LPC*%
G36*
X501944Y870693D02*
X501944Y870693D01*
X499994Y871501D01*
X498501Y872994D01*
X497693Y874944D01*
X497693Y877056D01*
X498501Y879006D01*
X499994Y880499D01*
X501944Y881307D01*
X504056Y881307D01*
X506006Y880499D01*
X507499Y879006D01*
X508307Y877056D01*
X508307Y874944D01*
X507499Y872994D01*
X506006Y871501D01*
X504641Y870936D01*
X504056Y870693D01*
X501944Y870693D01*
G37*
%LPD*%
%LPC*%
G36*
X838944Y974693D02*
X838944Y974693D01*
X836994Y975501D01*
X835501Y976994D01*
X834693Y978944D01*
X834693Y981056D01*
X835501Y983006D01*
X836994Y984499D01*
X838208Y985002D01*
X838944Y985307D01*
X841056Y985307D01*
X843006Y984499D01*
X844499Y983006D01*
X845307Y981056D01*
X845307Y978944D01*
X844499Y976994D01*
X843006Y975501D01*
X841056Y974693D01*
X838944Y974693D01*
G37*
%LPD*%
%LPC*%
G36*
X589371Y712119D02*
X589371Y712119D01*
X587420Y712927D01*
X585927Y714420D01*
X585119Y716371D01*
X585119Y718482D01*
X585927Y720432D01*
X587420Y721925D01*
X589371Y722733D01*
X591482Y722733D01*
X593432Y721925D01*
X594925Y720432D01*
X595733Y718482D01*
X595733Y716371D01*
X594925Y714420D01*
X593432Y712927D01*
X592396Y712498D01*
X591482Y712119D01*
X589371Y712119D01*
G37*
%LPD*%
%LPC*%
G36*
X475944Y813693D02*
X475944Y813693D01*
X473994Y814501D01*
X472501Y815994D01*
X471693Y817944D01*
X471693Y820056D01*
X472501Y822006D01*
X473994Y823499D01*
X475944Y824307D01*
X478056Y824307D01*
X480006Y823499D01*
X481499Y822006D01*
X482307Y820056D01*
X482307Y817944D01*
X481499Y815994D01*
X480006Y814501D01*
X478943Y814061D01*
X478056Y813693D01*
X475944Y813693D01*
G37*
%LPD*%
%LPC*%
G36*
X1038944Y917739D02*
X1038944Y917739D01*
X1036994Y918547D01*
X1035501Y920040D01*
X1034693Y921990D01*
X1034693Y924102D01*
X1035501Y926052D01*
X1036994Y927545D01*
X1038399Y928127D01*
X1038944Y928353D01*
X1041056Y928353D01*
X1043006Y927545D01*
X1044499Y926052D01*
X1045307Y924102D01*
X1045307Y921990D01*
X1044499Y920040D01*
X1043006Y918547D01*
X1041056Y917739D01*
X1038944Y917739D01*
G37*
%LPD*%
%LPC*%
G36*
X1273544Y1112093D02*
X1273544Y1112093D01*
X1271594Y1112901D01*
X1270101Y1114394D01*
X1269293Y1116344D01*
X1269293Y1118456D01*
X1270101Y1120406D01*
X1271594Y1121899D01*
X1273544Y1122707D01*
X1275656Y1122707D01*
X1277606Y1121899D01*
X1279099Y1120406D01*
X1279907Y1118456D01*
X1279907Y1116344D01*
X1279099Y1114394D01*
X1277606Y1112901D01*
X1277011Y1112655D01*
X1277010Y1112654D01*
X1275656Y1112093D01*
X1273544Y1112093D01*
G37*
%LPD*%
%LPC*%
G36*
X567326Y1086312D02*
X567326Y1086312D01*
X565376Y1087119D01*
X563883Y1088612D01*
X563075Y1090563D01*
X563075Y1092674D01*
X563883Y1094624D01*
X565376Y1096117D01*
X566833Y1096721D01*
X567326Y1096925D01*
X569437Y1096925D01*
X571388Y1096117D01*
X572881Y1094624D01*
X573688Y1092674D01*
X573688Y1090563D01*
X572881Y1088612D01*
X571388Y1087119D01*
X569437Y1086312D01*
X567326Y1086312D01*
G37*
%LPD*%
D10*
X470800Y610000D03*
X949000Y720000D03*
X470800Y566000D03*
X936000Y720000D03*
X1001174Y977448D03*
X590426Y717426D03*
X1028098Y987608D03*
X594000Y701000D03*
D11*
X1198400Y1083716D03*
X672084Y1100328D03*
D10*
X390000Y760000D03*
X380000Y974116D03*
D11*
X1223800Y1114000D03*
X696468Y1107174D03*
D10*
X370000Y900000D03*
X371101Y998899D03*
X445400Y562600D03*
X962000Y721000D03*
X445400Y613400D03*
X974000Y720000D03*
X420000Y613400D03*
X987000Y720000D03*
X623200Y613400D03*
X873000Y720000D03*
X597800Y566000D03*
X885000Y721000D03*
X597800Y610000D03*
X898000Y720000D03*
X572400Y566000D03*
X910000Y720000D03*
X572400Y610000D03*
X923000Y720000D03*
D12*
X945804Y1034196D03*
X981000Y683000D03*
D10*
X1236000Y1034196D03*
X588000Y1056000D03*
X503000Y876000D03*
X496000Y905000D03*
X517000Y862000D03*
X536000Y932000D03*
X465000Y945000D03*
X462000Y879000D03*
X462000Y866000D03*
X378000Y880000D03*
X370000Y1035000D03*
X568382Y1091618D03*
X830000Y1020000D03*
X870000Y1030000D03*
X840000Y980000D03*
X930000Y990000D03*
X1046000Y944000D03*
X1040000Y923046D03*
X1063000Y924000D03*
X693000Y1024000D03*
X966000Y1198000D03*
X979811Y1149811D03*
X1060000Y1098658D03*
X678000Y862000D03*
X603000Y862000D03*
X445000Y789000D03*
X879000Y685000D03*
X732000Y1003000D03*
X762000Y1003000D03*
X477000Y819000D03*
X573000Y826000D03*
X420000Y562600D03*
X801000Y1047000D03*
X902000Y1047000D03*
D11*
X519684Y1062228D03*
D10*
X1192672Y1138428D03*
D11*
X1249200Y1070000D03*
X608076Y998220D03*
D13*
X1071400Y1066600D03*
D11*
X618744Y1018032D03*
X1198400Y1114000D03*
X1198400Y1114000D03*
X678000Y1119000D03*
D10*
X590000Y760000D03*
X370453Y1015547D03*
D14*
X874000Y1091380D03*
D15*
X933620Y1091380D01*
X970000Y1055000D02*
X970000Y910000D01*
X920000Y910000D01*
D14*
X920000Y910000D03*
D15*
X970000Y1055000D02*
X933620Y1091380D01*
D10*
X798000Y1145000D03*
D15*
X955000Y1145000D02*
X1090000Y1010000D01*
D14*
X1090000Y1010000D03*
D15*
X955000Y1145000D02*
X798000Y1145000D01*
D16*
X560000Y1070000D02*
X330000Y1070000D01*
X560000Y1070000D02*
X560000Y1230000D01*
X760000Y1230000D01*
X760000Y1120000D01*
X850000Y1120000D01*
X850000Y1060000D01*
X900000Y1060000D01*
X900000Y880000D01*
X1000000Y880000D01*
X1000000Y990000D01*
X1110000Y990000D01*
X1110000Y1050000D01*
X1080000Y1080000D01*
X1060000Y1080000D01*
X970000Y1170000D01*
X790000Y1170000D01*
X790000Y1230000D01*
X1090000Y1230000D01*
X1190000Y1130000D01*
X1380000Y1130000D01*
X1380000Y670000D01*
X1360000Y650000D01*
X790000Y650000D01*
X680000Y540000D01*
X360000Y540000D01*
X330000Y570000D01*
X330000Y1070000D01*
D10*
X445000Y769000D03*
D17*
X446000Y770000D01*
X450000Y770000D01*
D10*
X590000Y1160000D03*
X955000Y685000D03*
D18*
X960000Y690000D01*
D10*
X890000Y1020000D03*
D12*
X830000Y1090000D03*
D10*
X402000Y899950D03*
D19*
X400050Y899950D01*
X400000Y900000D01*
D10*
X510000Y940000D03*
D11*
X1249200Y1114000D03*
X655320Y1101057D03*
D10*
X1274600Y1117400D03*
X618744Y1132332D03*
X1040000Y880000D03*
X1275000Y1007000D03*
M02*
