M48
;GenerationSoftware,Autodesk,EAGLE,9.4.2*%
;CreationDate,2019-06-10T14:50:38Z*%
FMAT,2
ICI,OFF
METRIC,TZ,000.000
T10C0.350
T9C0.400
T8C0.450
T7C0.600
T6C0.650
T5C0.800
T4C1.200
T3C1.580
T2C1.650
T1C2.700
%
G90
M71
T1
X105670Y118626
X85666Y118576
X65670Y118576
T2
X100925Y67700
X85075Y67700
T3
X43270Y58800
X63590Y58800
X108410Y109200
X128730Y109200
T4
X63251Y96026
T5
X57494Y118618
X60494Y118618
T6
X87400Y109138
X92000Y91000
X109000Y101000
T7
X94580Y103420
X83000Y109000
X98100Y68300
T8
X107140Y106660
T9
X69647Y110717
X124920Y111400
X122380Y111400
X67208Y110033
X119840Y108372
X67800Y111900
X119840Y111400
X119840Y111400
X61874Y101803
X60808Y99822
X124920Y107000
X51968Y106223
X65532Y110106
T10
X92300Y72000
X57240Y61000
X123600Y103420
X58800Y105600
X50300Y87600
X49600Y90500
X51700Y86200
X53600Y93200
X46500Y94500
X46200Y87900
X46200Y86600
X37800Y88000
X37000Y103500
X56838Y109162
X83000Y102000
X87000Y103000
X84000Y98000
X93000Y99000
X104600Y94400
X104000Y92305
X106300Y92400
X69300Y102400
X47080Y61000
X97981Y114981
X106000Y109866
X67800Y86200
X60300Y86200
X44500Y78900
X87900Y68500
X73200Y100300
X76200Y100300
X47700Y81900
X57300Y82600
X42000Y56260
X80100Y104700
X90200Y104700
X91000Y72000
X119267Y113843
X57240Y56600
X89800Y72000
X59780Y61000
X88500Y72100
X59780Y56600
X87300Y72000
X62320Y61340
X59000Y76000
X37045Y101555
X98700Y72000
X42000Y61340
X79800Y114500
X97400Y72000
X44500Y76900
X59000Y116000
X95500Y68500
X89000Y102000
X44540Y61340
X40200Y89995
X51000Y94000
X96200Y72100
X44540Y56260
X127460Y111740
X61874Y113233
X104000Y88000
X127500Y100700
X37110Y99890
X37000Y90000
X38000Y97412
X39000Y76000
X59400Y70100
X102810Y98761
X59043Y71743
X100117Y97745
X93600Y72000
X47080Y56600
X94900Y72000
X96600Y119800
M30