G04 EAGLE Gerber RS-274X export*
G75*
%MOMM*%
%FSLAX34Y34*%
%LPD*%
%IN*%
%IPPOS*%
%AMOC8*
5,1,8,0,0,1.08239X$1,22.5*%
G01*
%ADD10C,0.254000*%


D10*
X308500Y585027D02*
X308728Y579803D01*
X309411Y574613D01*
X310543Y569503D01*
X312117Y564511D01*
X314119Y559674D01*
X316536Y555031D01*
X319348Y550617D01*
X322534Y546464D01*
X326070Y542604D01*
X329929Y539068D01*
X334081Y535881D01*
X338496Y533068D01*
X343138Y530651D01*
X347974Y528647D01*
X352966Y527073D01*
X358076Y525939D01*
X363266Y525256D01*
X368495Y525027D01*
X666973Y525002D01*
X667325Y525003D01*
X672547Y525259D01*
X677727Y525969D01*
X682826Y527128D01*
X687804Y528726D01*
X692624Y530753D01*
X697249Y533192D01*
X701643Y536025D01*
X705774Y539229D01*
X709610Y542782D01*
X783360Y617252D01*
X783565Y617458D01*
X787425Y620995D01*
X791577Y624181D01*
X795992Y626994D01*
X800635Y629410D01*
X805471Y631414D01*
X810463Y632988D01*
X815573Y634120D01*
X820762Y634804D01*
X825992Y635032D01*
X1348500Y635032D01*
X1353729Y635260D01*
X1358919Y635944D01*
X1364029Y637076D01*
X1369021Y638650D01*
X1373857Y640654D01*
X1378500Y643070D01*
X1382915Y645883D01*
X1387067Y649069D01*
X1390926Y652606D01*
X1394463Y656465D01*
X1397649Y660617D01*
X1400462Y665032D01*
X1402878Y669675D01*
X1404882Y674511D01*
X1406456Y679503D01*
X1407588Y684613D01*
X1408272Y689803D01*
X1408500Y695032D01*
X1408500Y1104424D01*
X1408348Y1107910D01*
X1407892Y1111370D01*
X1407137Y1114777D01*
X1406088Y1118105D01*
X1404752Y1121329D01*
X1403141Y1124424D01*
X1401266Y1127367D01*
X1399142Y1130136D01*
X1396784Y1132708D01*
X1394212Y1135066D01*
X1391443Y1137190D01*
X1388500Y1139065D01*
X1385405Y1140676D01*
X1382181Y1142012D01*
X1378853Y1143061D01*
X1375446Y1143816D01*
X1371986Y1144272D01*
X1368500Y1144424D01*
X1228500Y1144424D01*
X1225014Y1144576D01*
X1221554Y1145032D01*
X1218147Y1145787D01*
X1214819Y1146836D01*
X1211595Y1148172D01*
X1208500Y1149783D01*
X1205557Y1151658D01*
X1202789Y1153782D01*
X1200216Y1156140D01*
X1197858Y1158713D01*
X1195734Y1161481D01*
X1193859Y1164424D01*
X1192248Y1167519D01*
X1190912Y1170743D01*
X1189863Y1174071D01*
X1189108Y1177478D01*
X1188652Y1180938D01*
X1188500Y1184424D01*
X1188500Y1214424D01*
X1188348Y1217910D01*
X1187892Y1221370D01*
X1187137Y1224777D01*
X1186088Y1228105D01*
X1184752Y1231329D01*
X1183141Y1234424D01*
X1181266Y1237367D01*
X1179142Y1240136D01*
X1176784Y1242708D01*
X1174212Y1245066D01*
X1171443Y1247190D01*
X1168500Y1249065D01*
X1165405Y1250676D01*
X1162181Y1252012D01*
X1158853Y1253061D01*
X1155446Y1253816D01*
X1151986Y1254272D01*
X1148500Y1254424D01*
X568500Y1254424D01*
X565014Y1254272D01*
X561554Y1253816D01*
X558147Y1253061D01*
X554819Y1252012D01*
X551595Y1250676D01*
X548500Y1249065D01*
X545557Y1247190D01*
X542789Y1245066D01*
X540216Y1242708D01*
X537858Y1240136D01*
X535734Y1237367D01*
X533859Y1234424D01*
X532248Y1231329D01*
X530912Y1228105D01*
X529863Y1224777D01*
X529108Y1221370D01*
X528652Y1217910D01*
X528500Y1214424D01*
X528500Y1184424D01*
X528348Y1180938D01*
X527892Y1177478D01*
X527137Y1174071D01*
X526088Y1170743D01*
X524752Y1167519D01*
X523141Y1164424D01*
X521266Y1161481D01*
X519142Y1158713D01*
X516784Y1156140D01*
X514212Y1153782D01*
X511443Y1151658D01*
X508500Y1149783D01*
X505405Y1148172D01*
X502181Y1146836D01*
X498853Y1145787D01*
X495446Y1145032D01*
X491986Y1144576D01*
X488500Y1144424D01*
X348500Y1144424D01*
X345014Y1144272D01*
X341554Y1143816D01*
X338147Y1143061D01*
X334819Y1142012D01*
X331595Y1140676D01*
X328500Y1139065D01*
X325557Y1137190D01*
X322789Y1135066D01*
X320216Y1132708D01*
X317858Y1130136D01*
X315734Y1127367D01*
X313859Y1124424D01*
X312248Y1121329D01*
X310912Y1118105D01*
X309863Y1114777D01*
X309108Y1111370D01*
X308652Y1107910D01*
X308500Y1104424D01*
X308500Y585027D01*
X670200Y1185282D02*
X670131Y1184320D01*
X669994Y1183366D01*
X669789Y1182423D01*
X669517Y1181498D01*
X669180Y1180594D01*
X668780Y1179717D01*
X668318Y1178871D01*
X667796Y1178060D01*
X667218Y1177288D01*
X666587Y1176559D01*
X665905Y1175877D01*
X665176Y1175246D01*
X664404Y1174668D01*
X663593Y1174146D01*
X662747Y1173684D01*
X661870Y1173284D01*
X660966Y1172947D01*
X660041Y1172675D01*
X659099Y1172470D01*
X658144Y1172333D01*
X657182Y1172264D01*
X656218Y1172264D01*
X655256Y1172333D01*
X654302Y1172470D01*
X653359Y1172675D01*
X652434Y1172947D01*
X651530Y1173284D01*
X650653Y1173684D01*
X649807Y1174146D01*
X648996Y1174668D01*
X648224Y1175246D01*
X647495Y1175877D01*
X646813Y1176559D01*
X646182Y1177288D01*
X645604Y1178060D01*
X645082Y1178871D01*
X644620Y1179717D01*
X644220Y1180594D01*
X643883Y1181498D01*
X643611Y1182423D01*
X643406Y1183366D01*
X643269Y1184320D01*
X643200Y1185282D01*
X643200Y1186246D01*
X643269Y1187208D01*
X643406Y1188163D01*
X643611Y1189105D01*
X643883Y1190030D01*
X644220Y1190934D01*
X644620Y1191811D01*
X645082Y1192657D01*
X645604Y1193468D01*
X646182Y1194240D01*
X646813Y1194969D01*
X647495Y1195651D01*
X648224Y1196282D01*
X648996Y1196860D01*
X649807Y1197382D01*
X650653Y1197844D01*
X651530Y1198244D01*
X652434Y1198581D01*
X653359Y1198853D01*
X654302Y1199058D01*
X655256Y1199195D01*
X656218Y1199264D01*
X657182Y1199264D01*
X658144Y1199195D01*
X659099Y1199058D01*
X660041Y1198853D01*
X660966Y1198581D01*
X661870Y1198244D01*
X662747Y1197844D01*
X663593Y1197382D01*
X664404Y1196860D01*
X665176Y1196282D01*
X665905Y1195651D01*
X666587Y1194969D01*
X667218Y1194240D01*
X667796Y1193468D01*
X668318Y1192657D01*
X668780Y1191811D01*
X669180Y1190934D01*
X669517Y1190030D01*
X669789Y1189105D01*
X669994Y1188163D01*
X670131Y1187208D01*
X670200Y1186246D01*
X670200Y1185282D01*
X870160Y1185282D02*
X870091Y1184320D01*
X869954Y1183366D01*
X869749Y1182423D01*
X869477Y1181498D01*
X869140Y1180594D01*
X868740Y1179717D01*
X868278Y1178871D01*
X867756Y1178060D01*
X867178Y1177288D01*
X866547Y1176559D01*
X865865Y1175877D01*
X865136Y1175246D01*
X864364Y1174668D01*
X863553Y1174146D01*
X862707Y1173684D01*
X861830Y1173284D01*
X860926Y1172947D01*
X860001Y1172675D01*
X859059Y1172470D01*
X858104Y1172333D01*
X857142Y1172264D01*
X856178Y1172264D01*
X855216Y1172333D01*
X854262Y1172470D01*
X853319Y1172675D01*
X852394Y1172947D01*
X851490Y1173284D01*
X850613Y1173684D01*
X849767Y1174146D01*
X848956Y1174668D01*
X848184Y1175246D01*
X847455Y1175877D01*
X846773Y1176559D01*
X846142Y1177288D01*
X845564Y1178060D01*
X845042Y1178871D01*
X844580Y1179717D01*
X844180Y1180594D01*
X843843Y1181498D01*
X843571Y1182423D01*
X843366Y1183366D01*
X843229Y1184320D01*
X843160Y1185282D01*
X843160Y1186246D01*
X843229Y1187208D01*
X843366Y1188163D01*
X843571Y1189105D01*
X843843Y1190030D01*
X844180Y1190934D01*
X844580Y1191811D01*
X845042Y1192657D01*
X845564Y1193468D01*
X846142Y1194240D01*
X846773Y1194969D01*
X847455Y1195651D01*
X848184Y1196282D01*
X848956Y1196860D01*
X849767Y1197382D01*
X850613Y1197844D01*
X851490Y1198244D01*
X852394Y1198581D01*
X853319Y1198853D01*
X854262Y1199058D01*
X855216Y1199195D01*
X856178Y1199264D01*
X857142Y1199264D01*
X858104Y1199195D01*
X859059Y1199058D01*
X860001Y1198853D01*
X860926Y1198581D01*
X861830Y1198244D01*
X862707Y1197844D01*
X863553Y1197382D01*
X864364Y1196860D01*
X865136Y1196282D01*
X865865Y1195651D01*
X866547Y1194969D01*
X867178Y1194240D01*
X867756Y1193468D01*
X868278Y1192657D01*
X868740Y1191811D01*
X869140Y1190934D01*
X869477Y1190030D01*
X869749Y1189105D01*
X869954Y1188163D01*
X870091Y1187208D01*
X870160Y1186246D01*
X870160Y1185282D01*
X1070200Y1185782D02*
X1070131Y1184820D01*
X1069994Y1183866D01*
X1069789Y1182923D01*
X1069517Y1181998D01*
X1069180Y1181094D01*
X1068780Y1180217D01*
X1068318Y1179371D01*
X1067796Y1178560D01*
X1067218Y1177788D01*
X1066587Y1177059D01*
X1065905Y1176377D01*
X1065176Y1175746D01*
X1064404Y1175168D01*
X1063593Y1174646D01*
X1062747Y1174184D01*
X1061870Y1173784D01*
X1060966Y1173447D01*
X1060041Y1173175D01*
X1059099Y1172970D01*
X1058144Y1172833D01*
X1057182Y1172764D01*
X1056218Y1172764D01*
X1055256Y1172833D01*
X1054302Y1172970D01*
X1053359Y1173175D01*
X1052434Y1173447D01*
X1051530Y1173784D01*
X1050653Y1174184D01*
X1049807Y1174646D01*
X1048996Y1175168D01*
X1048224Y1175746D01*
X1047495Y1176377D01*
X1046813Y1177059D01*
X1046182Y1177788D01*
X1045604Y1178560D01*
X1045082Y1179371D01*
X1044620Y1180217D01*
X1044220Y1181094D01*
X1043883Y1181998D01*
X1043611Y1182923D01*
X1043406Y1183866D01*
X1043269Y1184820D01*
X1043200Y1185782D01*
X1043200Y1186746D01*
X1043269Y1187708D01*
X1043406Y1188663D01*
X1043611Y1189605D01*
X1043883Y1190530D01*
X1044220Y1191434D01*
X1044620Y1192311D01*
X1045082Y1193157D01*
X1045604Y1193968D01*
X1046182Y1194740D01*
X1046813Y1195469D01*
X1047495Y1196151D01*
X1048224Y1196782D01*
X1048996Y1197360D01*
X1049807Y1197882D01*
X1050653Y1198344D01*
X1051530Y1198744D01*
X1052434Y1199081D01*
X1053359Y1199353D01*
X1054302Y1199558D01*
X1055256Y1199695D01*
X1056218Y1199764D01*
X1057182Y1199764D01*
X1058144Y1199695D01*
X1059099Y1199558D01*
X1060041Y1199353D01*
X1060966Y1199081D01*
X1061870Y1198744D01*
X1062747Y1198344D01*
X1063593Y1197882D01*
X1064404Y1197360D01*
X1065176Y1196782D01*
X1065905Y1196151D01*
X1066587Y1195469D01*
X1067218Y1194740D01*
X1067796Y1193968D01*
X1068318Y1193157D01*
X1068780Y1192311D01*
X1069180Y1191434D01*
X1069517Y1190530D01*
X1069789Y1189605D01*
X1069994Y1188663D01*
X1070131Y1187708D01*
X1070200Y1186746D01*
X1070200Y1185782D01*
X1084488Y1099900D02*
X1085261Y1099824D01*
X1086022Y1099673D01*
X1086765Y1099447D01*
X1087482Y1099150D01*
X1088166Y1098784D01*
X1088812Y1098353D01*
X1089412Y1097861D01*
X1089961Y1097312D01*
X1090453Y1096712D01*
X1090884Y1096066D01*
X1091250Y1095382D01*
X1091547Y1094665D01*
X1091773Y1093922D01*
X1091924Y1093161D01*
X1092000Y1092388D01*
X1092000Y1091612D01*
X1091924Y1090839D01*
X1091773Y1090078D01*
X1091547Y1089335D01*
X1091250Y1088618D01*
X1090884Y1087934D01*
X1090453Y1087288D01*
X1089961Y1086688D01*
X1089412Y1086139D01*
X1088812Y1085647D01*
X1088166Y1085216D01*
X1087482Y1084850D01*
X1086765Y1084553D01*
X1086022Y1084328D01*
X1085261Y1084176D01*
X1084488Y1084100D01*
X1083712Y1084100D01*
X1082939Y1084176D01*
X1082178Y1084328D01*
X1081435Y1084553D01*
X1080718Y1084850D01*
X1080034Y1085216D01*
X1079388Y1085647D01*
X1078788Y1086139D01*
X1078239Y1086688D01*
X1077747Y1087288D01*
X1077316Y1087934D01*
X1076950Y1088618D01*
X1076653Y1089335D01*
X1076428Y1090078D01*
X1076276Y1090839D01*
X1076200Y1091612D01*
X1076200Y1092388D01*
X1076276Y1093161D01*
X1076428Y1093922D01*
X1076653Y1094665D01*
X1076950Y1095382D01*
X1077316Y1096066D01*
X1077747Y1096712D01*
X1078239Y1097312D01*
X1078788Y1097861D01*
X1079388Y1098353D01*
X1080034Y1098784D01*
X1080718Y1099150D01*
X1081435Y1099447D01*
X1082178Y1099673D01*
X1082939Y1099824D01*
X1083712Y1099900D01*
X1084488Y1099900D01*
X1287688Y1099900D02*
X1288461Y1099824D01*
X1289222Y1099673D01*
X1289965Y1099447D01*
X1290682Y1099150D01*
X1291366Y1098784D01*
X1292012Y1098353D01*
X1292612Y1097861D01*
X1293161Y1097312D01*
X1293653Y1096712D01*
X1294084Y1096066D01*
X1294450Y1095382D01*
X1294747Y1094665D01*
X1294973Y1093922D01*
X1295124Y1093161D01*
X1295200Y1092388D01*
X1295200Y1091612D01*
X1295124Y1090839D01*
X1294973Y1090078D01*
X1294747Y1089335D01*
X1294450Y1088618D01*
X1294084Y1087934D01*
X1293653Y1087288D01*
X1293161Y1086688D01*
X1292612Y1086139D01*
X1292012Y1085647D01*
X1291366Y1085216D01*
X1290682Y1084850D01*
X1289965Y1084553D01*
X1289222Y1084328D01*
X1288461Y1084176D01*
X1287688Y1084100D01*
X1286912Y1084100D01*
X1286139Y1084176D01*
X1285378Y1084328D01*
X1284635Y1084553D01*
X1283918Y1084850D01*
X1283234Y1085216D01*
X1282588Y1085647D01*
X1281988Y1086139D01*
X1281439Y1086688D01*
X1280947Y1087288D01*
X1280516Y1087934D01*
X1280150Y1088618D01*
X1279853Y1089335D01*
X1279628Y1090078D01*
X1279476Y1090839D01*
X1279400Y1091612D01*
X1279400Y1092388D01*
X1279476Y1093161D01*
X1279628Y1093922D01*
X1279853Y1094665D01*
X1280150Y1095382D01*
X1280516Y1096066D01*
X1280947Y1096712D01*
X1281439Y1097312D01*
X1281988Y1097861D01*
X1282588Y1098353D01*
X1283234Y1098784D01*
X1283918Y1099150D01*
X1284635Y1099447D01*
X1285378Y1099673D01*
X1286139Y1099824D01*
X1286912Y1099900D01*
X1287688Y1099900D01*
X635512Y580100D02*
X634739Y580176D01*
X633978Y580328D01*
X633235Y580553D01*
X632518Y580850D01*
X631834Y581216D01*
X631188Y581647D01*
X630588Y582139D01*
X630039Y582688D01*
X629547Y583288D01*
X629116Y583934D01*
X628750Y584618D01*
X628453Y585335D01*
X628228Y586078D01*
X628076Y586839D01*
X628000Y587612D01*
X628000Y588388D01*
X628076Y589161D01*
X628228Y589922D01*
X628453Y590665D01*
X628750Y591382D01*
X629116Y592066D01*
X629547Y592712D01*
X630039Y593312D01*
X630588Y593861D01*
X631188Y594353D01*
X631834Y594784D01*
X632518Y595150D01*
X633235Y595447D01*
X633978Y595673D01*
X634739Y595824D01*
X635512Y595900D01*
X636288Y595900D01*
X637061Y595824D01*
X637822Y595673D01*
X638565Y595447D01*
X639282Y595150D01*
X639966Y594784D01*
X640612Y594353D01*
X641212Y593861D01*
X641761Y593312D01*
X642253Y592712D01*
X642684Y592066D01*
X643050Y591382D01*
X643347Y590665D01*
X643573Y589922D01*
X643724Y589161D01*
X643800Y588388D01*
X643800Y587612D01*
X643724Y586839D01*
X643573Y586078D01*
X643347Y585335D01*
X643050Y584618D01*
X642684Y583934D01*
X642253Y583288D01*
X641761Y582688D01*
X641212Y582139D01*
X640612Y581647D01*
X639966Y581216D01*
X639282Y580850D01*
X638565Y580553D01*
X637822Y580328D01*
X637061Y580176D01*
X636288Y580100D01*
X635512Y580100D01*
X432312Y580100D02*
X431539Y580176D01*
X430778Y580328D01*
X430035Y580553D01*
X429318Y580850D01*
X428634Y581216D01*
X427988Y581647D01*
X427388Y582139D01*
X426839Y582688D01*
X426347Y583288D01*
X425916Y583934D01*
X425550Y584618D01*
X425253Y585335D01*
X425028Y586078D01*
X424876Y586839D01*
X424800Y587612D01*
X424800Y588388D01*
X424876Y589161D01*
X425028Y589922D01*
X425253Y590665D01*
X425550Y591382D01*
X425916Y592066D01*
X426347Y592712D01*
X426839Y593312D01*
X427388Y593861D01*
X427988Y594353D01*
X428634Y594784D01*
X429318Y595150D01*
X430035Y595447D01*
X430778Y595673D01*
X431539Y595824D01*
X432312Y595900D01*
X433088Y595900D01*
X433861Y595824D01*
X434622Y595673D01*
X435365Y595447D01*
X436082Y595150D01*
X436766Y594784D01*
X437412Y594353D01*
X438012Y593861D01*
X438561Y593312D01*
X439053Y592712D01*
X439484Y592066D01*
X439850Y591382D01*
X440147Y590665D01*
X440373Y589922D01*
X440524Y589161D01*
X440600Y588388D01*
X440600Y587612D01*
X440524Y586839D01*
X440373Y586078D01*
X440147Y585335D01*
X439850Y584618D01*
X439484Y583934D01*
X439053Y583288D01*
X438561Y582688D01*
X438012Y582139D01*
X437412Y581647D01*
X436766Y581216D01*
X436082Y580850D01*
X435365Y580553D01*
X434622Y580328D01*
X433861Y580176D01*
X433088Y580100D01*
X432312Y580100D01*
X632849Y966260D02*
X633519Y966185D01*
X634176Y966035D01*
X634812Y965812D01*
X635419Y965520D01*
X635990Y965161D01*
X636516Y964741D01*
X636993Y964264D01*
X637413Y963738D01*
X637772Y963167D01*
X638064Y962560D01*
X638287Y961924D01*
X638437Y961267D01*
X638512Y960597D01*
X638512Y959923D01*
X638437Y959253D01*
X638287Y958596D01*
X638064Y957960D01*
X637772Y957353D01*
X637413Y956783D01*
X636993Y956256D01*
X636516Y955779D01*
X635990Y955359D01*
X635419Y955000D01*
X634812Y954708D01*
X634176Y954485D01*
X633519Y954335D01*
X632849Y954260D01*
X632175Y954260D01*
X631505Y954335D01*
X630848Y954485D01*
X630212Y954708D01*
X629605Y955000D01*
X629035Y955359D01*
X628508Y955779D01*
X628031Y956256D01*
X627611Y956783D01*
X627252Y957353D01*
X626960Y957960D01*
X626737Y958596D01*
X626587Y959253D01*
X626512Y959923D01*
X626512Y960597D01*
X626587Y961267D01*
X626737Y961924D01*
X626960Y962560D01*
X627252Y963167D01*
X627611Y963738D01*
X628031Y964264D01*
X628508Y964741D01*
X629035Y965161D01*
X629605Y965520D01*
X630212Y965812D01*
X630848Y966035D01*
X631505Y966185D01*
X632175Y966260D01*
X632849Y966260D01*
X600936Y1186438D02*
X601004Y1186958D01*
X601140Y1187465D01*
X601341Y1187949D01*
X601603Y1188403D01*
X601922Y1188819D01*
X602293Y1189190D01*
X602709Y1189509D01*
X603163Y1189771D01*
X603647Y1189972D01*
X604154Y1190108D01*
X604674Y1190176D01*
X605198Y1190176D01*
X605718Y1190108D01*
X606225Y1189972D01*
X606709Y1189771D01*
X607163Y1189509D01*
X607579Y1189190D01*
X607950Y1188819D01*
X608269Y1188403D01*
X608531Y1187949D01*
X608732Y1187465D01*
X608868Y1186958D01*
X608936Y1186438D01*
X608936Y1185914D01*
X608868Y1185394D01*
X608732Y1184887D01*
X608531Y1184403D01*
X608269Y1183949D01*
X607950Y1183533D01*
X607579Y1183162D01*
X607163Y1182843D01*
X606709Y1182581D01*
X606225Y1182380D01*
X605718Y1182244D01*
X605198Y1182176D01*
X604674Y1182176D01*
X604154Y1182244D01*
X603647Y1182380D01*
X603163Y1182581D01*
X602709Y1182843D01*
X602293Y1183162D01*
X601922Y1183533D01*
X601603Y1183949D01*
X601341Y1184403D01*
X601140Y1184887D01*
X601004Y1185394D01*
X600936Y1185914D01*
X600936Y1186438D01*
X570936Y1186438D02*
X571004Y1186958D01*
X571140Y1187465D01*
X571341Y1187949D01*
X571603Y1188403D01*
X571922Y1188819D01*
X572293Y1189190D01*
X572709Y1189509D01*
X573163Y1189771D01*
X573647Y1189972D01*
X574154Y1190108D01*
X574674Y1190176D01*
X575198Y1190176D01*
X575718Y1190108D01*
X576225Y1189972D01*
X576709Y1189771D01*
X577163Y1189509D01*
X577579Y1189190D01*
X577950Y1188819D01*
X578269Y1188403D01*
X578531Y1187949D01*
X578732Y1187465D01*
X578868Y1186958D01*
X578936Y1186438D01*
X578936Y1185914D01*
X578868Y1185394D01*
X578732Y1184887D01*
X578531Y1184403D01*
X578269Y1183949D01*
X577950Y1183533D01*
X577579Y1183162D01*
X577163Y1182843D01*
X576709Y1182581D01*
X576225Y1182380D01*
X575718Y1182244D01*
X575198Y1182176D01*
X574674Y1182176D01*
X574154Y1182244D01*
X573647Y1182380D01*
X573163Y1182581D01*
X572709Y1182843D01*
X572293Y1183162D01*
X571922Y1183533D01*
X571603Y1183949D01*
X571341Y1184403D01*
X571140Y1184887D01*
X571004Y1185394D01*
X570936Y1185914D01*
X570936Y1186438D01*
X859000Y676595D02*
X858921Y675788D01*
X858762Y674993D01*
X858527Y674217D01*
X858217Y673468D01*
X857835Y672754D01*
X857384Y672080D01*
X856870Y671453D01*
X856297Y670880D01*
X855670Y670366D01*
X854996Y669915D01*
X854282Y669533D01*
X853533Y669223D01*
X852757Y668988D01*
X851962Y668829D01*
X851155Y668750D01*
X850345Y668750D01*
X849538Y668829D01*
X848743Y668988D01*
X847967Y669223D01*
X847218Y669533D01*
X846504Y669915D01*
X845830Y670366D01*
X845203Y670880D01*
X844630Y671453D01*
X844116Y672080D01*
X843665Y672754D01*
X843283Y673468D01*
X842973Y674217D01*
X842738Y674993D01*
X842579Y675788D01*
X842500Y676595D01*
X842500Y677405D01*
X842579Y678212D01*
X842738Y679007D01*
X842973Y679783D01*
X843283Y680532D01*
X843665Y681246D01*
X844116Y681920D01*
X844630Y682547D01*
X845203Y683120D01*
X845830Y683634D01*
X846504Y684085D01*
X847218Y684467D01*
X847967Y684777D01*
X848743Y685012D01*
X849538Y685171D01*
X850345Y685250D01*
X851155Y685250D01*
X851962Y685171D01*
X852757Y685012D01*
X853533Y684777D01*
X854282Y684467D01*
X854996Y684085D01*
X855670Y683634D01*
X856297Y683120D01*
X856870Y682547D01*
X857384Y681920D01*
X857835Y681246D01*
X858217Y680532D01*
X858527Y679783D01*
X858762Y679007D01*
X858921Y678212D01*
X859000Y677405D01*
X859000Y676595D01*
X1017500Y676595D02*
X1017421Y675788D01*
X1017262Y674993D01*
X1017027Y674217D01*
X1016717Y673468D01*
X1016335Y672754D01*
X1015884Y672080D01*
X1015370Y671453D01*
X1014797Y670880D01*
X1014170Y670366D01*
X1013496Y669915D01*
X1012782Y669533D01*
X1012033Y669223D01*
X1011257Y668988D01*
X1010462Y668829D01*
X1009655Y668750D01*
X1008845Y668750D01*
X1008038Y668829D01*
X1007243Y668988D01*
X1006467Y669223D01*
X1005718Y669533D01*
X1005004Y669915D01*
X1004330Y670366D01*
X1003703Y670880D01*
X1003130Y671453D01*
X1002616Y672080D01*
X1002165Y672754D01*
X1001783Y673468D01*
X1001473Y674217D01*
X1001238Y674993D01*
X1001079Y675788D01*
X1001000Y676595D01*
X1001000Y677405D01*
X1001079Y678212D01*
X1001238Y679007D01*
X1001473Y679783D01*
X1001783Y680532D01*
X1002165Y681246D01*
X1002616Y681920D01*
X1003130Y682547D01*
X1003703Y683120D01*
X1004330Y683634D01*
X1005004Y684085D01*
X1005718Y684467D01*
X1006467Y684777D01*
X1007243Y685012D01*
X1008038Y685171D01*
X1008845Y685250D01*
X1009655Y685250D01*
X1010462Y685171D01*
X1011257Y685012D01*
X1012033Y684777D01*
X1012782Y684467D01*
X1013496Y684085D01*
X1014170Y683634D01*
X1014797Y683120D01*
X1015370Y682547D01*
X1015884Y681920D01*
X1016335Y681246D01*
X1016717Y680532D01*
X1017027Y679783D01*
X1017262Y679007D01*
X1017421Y678212D01*
X1017500Y677405D01*
X1017500Y676595D01*
M02*
