G04 EAGLE Gerber RS-274X export*
G75*
%MOMM*%
%FSLAX34Y34*%
%LPD*%
%INSolderpaste Top*%
%IPPOS*%
%AMOC8*
5,1,8,0,0,1.08239X$1,22.5*%
G01*
%ADD10R,1.270000X3.000000*%
%ADD11R,1.270000X3.680000*%
%ADD12C,0.350000*%
%ADD13R,3.700000X3.700000*%
%ADD14R,0.635000X1.270000*%
%ADD15C,0.243678*%
%ADD16R,1.950000X1.500000*%
%ADD17R,1.050000X1.080000*%
%ADD18R,0.720000X1.780000*%
%ADD19R,1.100000X1.000000*%
%ADD20C,0.196759*%
%ADD21R,1.000000X1.100000*%
%ADD22R,0.900000X0.700000*%
%ADD23R,0.600000X0.600000*%
%ADD24R,2.082800X4.851400*%
%ADD25R,0.762000X0.990600*%
%ADD26R,1.000000X5.500000*%
%ADD27R,2.600000X4.000000*%
%ADD28C,0.120000*%
%ADD29R,1.000000X0.300000*%
%ADD30R,1.300000X2.000000*%
%ADD31R,0.800000X0.800000*%
%ADD32R,1.200000X2.700000*%
%ADD33R,0.650000X0.200000*%
%ADD34R,1.300000X1.400000*%
%ADD35R,1.050000X2.200000*%
%ADD36R,1.050000X1.000000*%
%ADD37R,1.300000X1.500000*%


D10*
X1071400Y1066600D03*
X1096800Y1066600D03*
D11*
X1122200Y1070000D03*
X1147600Y1070000D03*
X1173000Y1070000D03*
X1198400Y1070000D03*
X1223800Y1070000D03*
X1249200Y1070000D03*
D10*
X1274600Y1066600D03*
X1300000Y1066600D03*
X1300000Y1117400D03*
X1274600Y1117400D03*
D11*
X1249200Y1114000D03*
X1223800Y1114000D03*
X1198400Y1114000D03*
X1173000Y1114000D03*
X1147600Y1114000D03*
X1122200Y1114000D03*
D10*
X1096800Y1117400D03*
X1071400Y1117400D03*
X648600Y613400D03*
X623200Y613400D03*
D11*
X597800Y610000D03*
X572400Y610000D03*
X547000Y610000D03*
X521600Y610000D03*
X496200Y610000D03*
X470800Y610000D03*
D10*
X445400Y613400D03*
X420000Y613400D03*
X420000Y562600D03*
X445400Y562600D03*
D11*
X470800Y566000D03*
X496200Y566000D03*
X521600Y566000D03*
X547000Y566000D03*
X572400Y566000D03*
X597800Y566000D03*
D10*
X623200Y562600D03*
X648600Y562600D03*
D12*
X499336Y952046D02*
X483836Y952046D01*
X483836Y955546D01*
X499336Y955546D01*
X499336Y952046D01*
X499336Y955371D02*
X483836Y955371D01*
X352036Y962206D02*
X336536Y962206D01*
X336536Y965706D01*
X352036Y965706D01*
X352036Y962206D01*
X352036Y965531D02*
X336536Y965531D01*
X336536Y972366D02*
X352036Y972366D01*
X336536Y972366D02*
X336536Y975866D01*
X352036Y975866D01*
X352036Y972366D01*
X352036Y975691D02*
X336536Y975691D01*
X336536Y982526D02*
X352036Y982526D01*
X336536Y982526D02*
X336536Y986026D01*
X352036Y986026D01*
X352036Y982526D01*
X352036Y985851D02*
X336536Y985851D01*
X336536Y992686D02*
X352036Y992686D01*
X336536Y992686D02*
X336536Y996186D01*
X352036Y996186D01*
X352036Y992686D01*
X352036Y996011D02*
X336536Y996011D01*
X336536Y1002846D02*
X352036Y1002846D01*
X336536Y1002846D02*
X336536Y1006346D01*
X352036Y1006346D01*
X352036Y1002846D01*
X352036Y1006171D02*
X336536Y1006171D01*
X336536Y1013006D02*
X352036Y1013006D01*
X336536Y1013006D02*
X336536Y1016506D01*
X352036Y1016506D01*
X352036Y1013006D01*
X352036Y1016331D02*
X336536Y1016331D01*
X336536Y1023166D02*
X352036Y1023166D01*
X336536Y1023166D02*
X336536Y1026666D01*
X352036Y1026666D01*
X352036Y1023166D01*
X352036Y1026491D02*
X336536Y1026491D01*
X336536Y1033326D02*
X352036Y1033326D01*
X336536Y1033326D02*
X336536Y1036826D01*
X352036Y1036826D01*
X352036Y1033326D01*
X352036Y1036651D02*
X336536Y1036651D01*
X336536Y1043486D02*
X352036Y1043486D01*
X336536Y1043486D02*
X336536Y1046986D01*
X352036Y1046986D01*
X352036Y1043486D01*
X352036Y1046811D02*
X336536Y1046811D01*
X336536Y1053646D02*
X352036Y1053646D01*
X336536Y1053646D02*
X336536Y1057146D01*
X352036Y1057146D01*
X352036Y1053646D01*
X352036Y1056971D02*
X336536Y1056971D01*
X483836Y962206D02*
X499336Y962206D01*
X483836Y962206D02*
X483836Y965706D01*
X499336Y965706D01*
X499336Y962206D01*
X499336Y965531D02*
X483836Y965531D01*
X483836Y972366D02*
X499336Y972366D01*
X483836Y972366D02*
X483836Y975866D01*
X499336Y975866D01*
X499336Y972366D01*
X499336Y975691D02*
X483836Y975691D01*
X483836Y982526D02*
X499336Y982526D01*
X483836Y982526D02*
X483836Y986026D01*
X499336Y986026D01*
X499336Y982526D01*
X499336Y985851D02*
X483836Y985851D01*
X483836Y1023166D02*
X499336Y1023166D01*
X483836Y1023166D02*
X483836Y1026666D01*
X499336Y1026666D01*
X499336Y1023166D01*
X499336Y1026491D02*
X483836Y1026491D01*
X483836Y1043486D02*
X499336Y1043486D01*
X483836Y1043486D02*
X483836Y1046986D01*
X499336Y1046986D01*
X499336Y1043486D01*
X499336Y1046811D02*
X483836Y1046811D01*
X483836Y1053646D02*
X499336Y1053646D01*
X483836Y1053646D02*
X483836Y1057146D01*
X499336Y1057146D01*
X499336Y1053646D01*
X499336Y1056971D02*
X483836Y1056971D01*
X483836Y1063806D02*
X499336Y1063806D01*
X483836Y1063806D02*
X483836Y1067306D01*
X499336Y1067306D01*
X499336Y1063806D01*
X499336Y1067131D02*
X483836Y1067131D01*
X483836Y1073966D02*
X499336Y1073966D01*
X483836Y1073966D02*
X483836Y1077466D01*
X499336Y1077466D01*
X499336Y1073966D01*
X499336Y1077291D02*
X483836Y1077291D01*
X365036Y934846D02*
X365036Y919346D01*
X361536Y919346D01*
X361536Y934846D01*
X365036Y934846D01*
X365036Y922671D02*
X361536Y922671D01*
X361536Y925996D02*
X365036Y925996D01*
X365036Y929321D02*
X361536Y929321D01*
X361536Y932646D02*
X365036Y932646D01*
X395516Y934846D02*
X395516Y919346D01*
X392016Y919346D01*
X392016Y934846D01*
X395516Y934846D01*
X395516Y922671D02*
X392016Y922671D01*
X392016Y925996D02*
X395516Y925996D01*
X395516Y929321D02*
X392016Y929321D01*
X392016Y932646D02*
X395516Y932646D01*
X405676Y934846D02*
X405676Y919346D01*
X402176Y919346D01*
X402176Y934846D01*
X405676Y934846D01*
X405676Y922671D02*
X402176Y922671D01*
X402176Y925996D02*
X405676Y925996D01*
X405676Y929321D02*
X402176Y929321D01*
X402176Y932646D02*
X405676Y932646D01*
X415836Y934846D02*
X415836Y919346D01*
X412336Y919346D01*
X412336Y934846D01*
X415836Y934846D01*
X415836Y922671D02*
X412336Y922671D01*
X412336Y925996D02*
X415836Y925996D01*
X415836Y929321D02*
X412336Y929321D01*
X412336Y932646D02*
X415836Y932646D01*
X425996Y934846D02*
X425996Y919346D01*
X422496Y919346D01*
X422496Y934846D01*
X425996Y934846D01*
X425996Y922671D02*
X422496Y922671D01*
X422496Y925996D02*
X425996Y925996D01*
X425996Y929321D02*
X422496Y929321D01*
X422496Y932646D02*
X425996Y932646D01*
X436156Y934846D02*
X436156Y919346D01*
X432656Y919346D01*
X432656Y934846D01*
X436156Y934846D01*
X436156Y922671D02*
X432656Y922671D01*
X432656Y925996D02*
X436156Y925996D01*
X436156Y929321D02*
X432656Y929321D01*
X432656Y932646D02*
X436156Y932646D01*
X446316Y934846D02*
X446316Y919346D01*
X442816Y919346D01*
X442816Y934846D01*
X446316Y934846D01*
X446316Y922671D02*
X442816Y922671D01*
X442816Y925996D02*
X446316Y925996D01*
X446316Y929321D02*
X442816Y929321D01*
X442816Y932646D02*
X446316Y932646D01*
X456476Y934846D02*
X456476Y919346D01*
X452976Y919346D01*
X452976Y934846D01*
X456476Y934846D01*
X456476Y922671D02*
X452976Y922671D01*
X452976Y925996D02*
X456476Y925996D01*
X456476Y929321D02*
X452976Y929321D01*
X452976Y932646D02*
X456476Y932646D01*
X466636Y934846D02*
X466636Y919346D01*
X463136Y919346D01*
X463136Y934846D01*
X466636Y934846D01*
X466636Y922671D02*
X463136Y922671D01*
X463136Y925996D02*
X466636Y925996D01*
X466636Y929321D02*
X463136Y929321D01*
X463136Y932646D02*
X466636Y932646D01*
D13*
X413086Y989796D03*
D14*
X573012Y878260D03*
X588012Y878260D03*
X603012Y878260D03*
X618012Y878260D03*
X633012Y878260D03*
X648012Y878260D03*
X663012Y878260D03*
X678012Y878260D03*
X693012Y878260D03*
X708012Y878260D03*
X708012Y1038260D03*
X693012Y1038260D03*
X678012Y1038260D03*
X663012Y1038260D03*
X648012Y1038260D03*
X633012Y1038260D03*
X618012Y1038260D03*
X603012Y1038260D03*
X588012Y1038260D03*
X573012Y1038260D03*
D15*
X543756Y922577D02*
X543756Y912395D01*
X543756Y922577D02*
X547412Y922577D01*
X547412Y912395D01*
X543756Y912395D01*
X543756Y914710D02*
X547412Y914710D01*
X547412Y917025D02*
X543756Y917025D01*
X543756Y919340D02*
X547412Y919340D01*
X547412Y921655D02*
X543756Y921655D01*
X534256Y922577D02*
X534256Y912395D01*
X534256Y922577D02*
X537912Y922577D01*
X537912Y912395D01*
X534256Y912395D01*
X534256Y914710D02*
X537912Y914710D01*
X537912Y917025D02*
X534256Y917025D01*
X534256Y919340D02*
X537912Y919340D01*
X537912Y921655D02*
X534256Y921655D01*
X524756Y922577D02*
X524756Y912395D01*
X524756Y922577D02*
X528412Y922577D01*
X528412Y912395D01*
X524756Y912395D01*
X524756Y914710D02*
X528412Y914710D01*
X528412Y917025D02*
X524756Y917025D01*
X524756Y919340D02*
X528412Y919340D01*
X528412Y921655D02*
X524756Y921655D01*
X524756Y899077D02*
X524756Y888895D01*
X524756Y899077D02*
X528412Y899077D01*
X528412Y888895D01*
X524756Y888895D01*
X524756Y891210D02*
X528412Y891210D01*
X528412Y893525D02*
X524756Y893525D01*
X524756Y895840D02*
X528412Y895840D01*
X528412Y898155D02*
X524756Y898155D01*
X543756Y899077D02*
X543756Y888895D01*
X543756Y899077D02*
X547412Y899077D01*
X547412Y888895D01*
X543756Y888895D01*
X543756Y891210D02*
X547412Y891210D01*
X547412Y893525D02*
X543756Y893525D01*
X543756Y895840D02*
X547412Y895840D01*
X547412Y898155D02*
X543756Y898155D01*
X396277Y887768D02*
X386095Y887768D01*
X386095Y891424D01*
X396277Y891424D01*
X396277Y887768D01*
X396277Y890083D02*
X386095Y890083D01*
X386095Y878268D02*
X396277Y878268D01*
X386095Y878268D02*
X386095Y881924D01*
X396277Y881924D01*
X396277Y878268D01*
X396277Y880583D02*
X386095Y880583D01*
X386095Y868768D02*
X396277Y868768D01*
X386095Y868768D02*
X386095Y872424D01*
X396277Y872424D01*
X396277Y868768D01*
X396277Y871083D02*
X386095Y871083D01*
X409595Y868768D02*
X419777Y868768D01*
X409595Y868768D02*
X409595Y872424D01*
X419777Y872424D01*
X419777Y868768D01*
X419777Y871083D02*
X409595Y871083D01*
X409595Y887768D02*
X419777Y887768D01*
X409595Y887768D02*
X409595Y891424D01*
X419777Y891424D01*
X419777Y887768D01*
X419777Y890083D02*
X409595Y890083D01*
D16*
X434186Y894096D03*
X461686Y894096D03*
X545834Y876736D03*
X518334Y876736D03*
D17*
X430186Y866096D03*
X447686Y866096D03*
X512834Y893736D03*
X495334Y893736D03*
X430186Y879096D03*
X447686Y879096D03*
X545834Y861736D03*
X528334Y861736D03*
D18*
X982250Y953348D03*
X982250Y1004212D03*
X994950Y953348D03*
X1007650Y953348D03*
X994950Y1004212D03*
X1007650Y1004212D03*
X1020350Y953348D03*
X1020350Y1004212D03*
D19*
X945810Y902580D03*
X962810Y902580D03*
X945810Y938140D03*
X962810Y938140D03*
D20*
X973725Y931175D02*
X985875Y931175D01*
X973725Y931175D02*
X973725Y934125D01*
X985875Y934125D01*
X985875Y931175D01*
X985875Y933045D02*
X973725Y933045D01*
X973725Y924675D02*
X985875Y924675D01*
X973725Y924675D02*
X973725Y927625D01*
X985875Y927625D01*
X985875Y924675D01*
X985875Y926545D02*
X973725Y926545D01*
X973725Y918175D02*
X985875Y918175D01*
X973725Y918175D02*
X973725Y921125D01*
X985875Y921125D01*
X985875Y918175D01*
X985875Y920045D02*
X973725Y920045D01*
X973725Y911675D02*
X985875Y911675D01*
X973725Y911675D02*
X973725Y914625D01*
X985875Y914625D01*
X985875Y911675D01*
X985875Y913545D02*
X973725Y913545D01*
X1016725Y911675D02*
X1028875Y911675D01*
X1016725Y911675D02*
X1016725Y914625D01*
X1028875Y914625D01*
X1028875Y911675D01*
X1028875Y913545D02*
X1016725Y913545D01*
X1016725Y918175D02*
X1028875Y918175D01*
X1016725Y918175D02*
X1016725Y921125D01*
X1028875Y921125D01*
X1028875Y918175D01*
X1028875Y920045D02*
X1016725Y920045D01*
X1016725Y924675D02*
X1028875Y924675D01*
X1016725Y924675D02*
X1016725Y927625D01*
X1028875Y927625D01*
X1028875Y924675D01*
X1028875Y926545D02*
X1016725Y926545D01*
X1016725Y931175D02*
X1028875Y931175D01*
X1016725Y931175D02*
X1016725Y934125D01*
X1028875Y934125D01*
X1028875Y931175D01*
X1028875Y933045D02*
X1016725Y933045D01*
D19*
X1046140Y912740D03*
X1063140Y912740D03*
X962810Y1004180D03*
X945810Y1004180D03*
X1046140Y1009260D03*
X1063140Y1009260D03*
X1063140Y954650D03*
X1046140Y954650D03*
D21*
X1085120Y973310D03*
X1085120Y956310D03*
D15*
X878192Y999667D02*
X878192Y1009849D01*
X881848Y1009849D01*
X881848Y999667D01*
X878192Y999667D01*
X878192Y1001982D02*
X881848Y1001982D01*
X881848Y1004297D02*
X878192Y1004297D01*
X878192Y1006612D02*
X881848Y1006612D01*
X881848Y1008927D02*
X878192Y1008927D01*
X868692Y1009849D02*
X868692Y999667D01*
X868692Y1009849D02*
X872348Y1009849D01*
X872348Y999667D01*
X868692Y999667D01*
X868692Y1001982D02*
X872348Y1001982D01*
X872348Y1004297D02*
X868692Y1004297D01*
X868692Y1006612D02*
X872348Y1006612D01*
X872348Y1008927D02*
X868692Y1008927D01*
X859192Y1009849D02*
X859192Y999667D01*
X859192Y1009849D02*
X862848Y1009849D01*
X862848Y999667D01*
X859192Y999667D01*
X859192Y1001982D02*
X862848Y1001982D01*
X862848Y1004297D02*
X859192Y1004297D01*
X859192Y1006612D02*
X862848Y1006612D01*
X862848Y1008927D02*
X859192Y1008927D01*
X859192Y986349D02*
X859192Y976167D01*
X859192Y986349D02*
X862848Y986349D01*
X862848Y976167D01*
X859192Y976167D01*
X859192Y978482D02*
X862848Y978482D01*
X862848Y980797D02*
X859192Y980797D01*
X859192Y983112D02*
X862848Y983112D01*
X862848Y985427D02*
X859192Y985427D01*
X878192Y986349D02*
X878192Y976167D01*
X878192Y986349D02*
X881848Y986349D01*
X881848Y976167D01*
X878192Y976167D01*
X878192Y978482D02*
X881848Y978482D01*
X881848Y980797D02*
X878192Y980797D01*
X878192Y983112D02*
X881848Y983112D01*
X881848Y985427D02*
X878192Y985427D01*
D16*
X888594Y964984D03*
X916094Y964984D03*
D17*
X860846Y965364D03*
X843346Y965364D03*
X884578Y948636D03*
X902078Y948636D03*
D22*
X619936Y1186176D03*
X559936Y1186176D03*
D23*
X589936Y1172626D03*
X599936Y1172626D03*
X579936Y1172626D03*
D19*
X841060Y1019816D03*
X858060Y1019816D03*
D24*
X775798Y1098833D03*
X800690Y1098833D03*
D25*
X781894Y1062257D03*
X769194Y1062257D03*
X794594Y1062257D03*
X807294Y1062257D03*
D24*
X902186Y1098833D03*
X927078Y1098833D03*
D25*
X908282Y1062257D03*
X895582Y1062257D03*
X920982Y1062257D03*
X933682Y1062257D03*
D26*
X966260Y1160000D03*
X946260Y1160000D03*
D27*
X990260Y1182500D03*
X922260Y1182500D03*
D26*
X770000Y1160000D03*
X750000Y1160000D03*
D27*
X794000Y1182500D03*
X726000Y1182500D03*
D28*
X455416Y762352D02*
X455416Y760552D01*
X455416Y762352D02*
X464216Y762352D01*
X464216Y760552D01*
X455416Y760552D01*
X455416Y761692D02*
X464216Y761692D01*
X455416Y757352D02*
X455416Y755552D01*
X455416Y757352D02*
X464216Y757352D01*
X464216Y755552D01*
X455416Y755552D01*
X455416Y756692D02*
X464216Y756692D01*
X455416Y765552D02*
X455416Y767352D01*
X464216Y767352D01*
X464216Y765552D01*
X455416Y765552D01*
X455416Y766692D02*
X464216Y766692D01*
X455416Y770552D02*
X455416Y772352D01*
X464216Y772352D01*
X464216Y770552D01*
X455416Y770552D01*
X455416Y771692D02*
X464216Y771692D01*
X455416Y775552D02*
X455416Y777352D01*
X464216Y777352D01*
X464216Y775552D01*
X455416Y775552D01*
X455416Y776692D02*
X464216Y776692D01*
X455416Y780552D02*
X455416Y782352D01*
X464216Y782352D01*
X464216Y780552D01*
X455416Y780552D01*
X455416Y781692D02*
X464216Y781692D01*
X455416Y785552D02*
X455416Y787352D01*
X464216Y787352D01*
X464216Y785552D01*
X455416Y785552D01*
X455416Y786692D02*
X464216Y786692D01*
X455416Y790552D02*
X455416Y792352D01*
X464216Y792352D01*
X464216Y790552D01*
X455416Y790552D01*
X455416Y791692D02*
X464216Y791692D01*
D29*
X459816Y796452D03*
D28*
X455416Y752352D02*
X455416Y750552D01*
X455416Y752352D02*
X464216Y752352D01*
X464216Y750552D01*
X455416Y750552D01*
X455416Y751692D02*
X464216Y751692D01*
X455416Y747352D02*
X455416Y745552D01*
X455416Y747352D02*
X464216Y747352D01*
X464216Y745552D01*
X455416Y745552D01*
X455416Y746692D02*
X464216Y746692D01*
X455416Y742352D02*
X455416Y740552D01*
X455416Y742352D02*
X464216Y742352D01*
X464216Y740552D01*
X455416Y740552D01*
X455416Y741692D02*
X464216Y741692D01*
X455416Y737352D02*
X455416Y735552D01*
X455416Y737352D02*
X464216Y737352D01*
X464216Y735552D01*
X455416Y735552D01*
X455416Y736692D02*
X464216Y736692D01*
X455416Y732352D02*
X455416Y730552D01*
X455416Y732352D02*
X464216Y732352D01*
X464216Y730552D01*
X455416Y730552D01*
X455416Y731692D02*
X464216Y731692D01*
X455416Y727352D02*
X455416Y725552D01*
X455416Y727352D02*
X464216Y727352D01*
X464216Y725552D01*
X455416Y725552D01*
X455416Y726692D02*
X464216Y726692D01*
X455416Y722352D02*
X455416Y720552D01*
X455416Y722352D02*
X464216Y722352D01*
X464216Y720552D01*
X455416Y720552D01*
X455416Y721692D02*
X464216Y721692D01*
D30*
X432816Y698452D03*
X432816Y819452D03*
D28*
X557524Y762352D02*
X557524Y760552D01*
X557524Y762352D02*
X566324Y762352D01*
X566324Y760552D01*
X557524Y760552D01*
X557524Y761692D02*
X566324Y761692D01*
X557524Y757352D02*
X557524Y755552D01*
X557524Y757352D02*
X566324Y757352D01*
X566324Y755552D01*
X557524Y755552D01*
X557524Y756692D02*
X566324Y756692D01*
X557524Y765552D02*
X557524Y767352D01*
X566324Y767352D01*
X566324Y765552D01*
X557524Y765552D01*
X557524Y766692D02*
X566324Y766692D01*
X557524Y770552D02*
X557524Y772352D01*
X566324Y772352D01*
X566324Y770552D01*
X557524Y770552D01*
X557524Y771692D02*
X566324Y771692D01*
X557524Y775552D02*
X557524Y777352D01*
X566324Y777352D01*
X566324Y775552D01*
X557524Y775552D01*
X557524Y776692D02*
X566324Y776692D01*
X557524Y780552D02*
X557524Y782352D01*
X566324Y782352D01*
X566324Y780552D01*
X557524Y780552D01*
X557524Y781692D02*
X566324Y781692D01*
X557524Y785552D02*
X557524Y787352D01*
X566324Y787352D01*
X566324Y785552D01*
X557524Y785552D01*
X557524Y786692D02*
X566324Y786692D01*
X557524Y790552D02*
X557524Y792352D01*
X566324Y792352D01*
X566324Y790552D01*
X557524Y790552D01*
X557524Y791692D02*
X566324Y791692D01*
D29*
X561924Y796452D03*
D28*
X557524Y752352D02*
X557524Y750552D01*
X557524Y752352D02*
X566324Y752352D01*
X566324Y750552D01*
X557524Y750552D01*
X557524Y751692D02*
X566324Y751692D01*
X557524Y747352D02*
X557524Y745552D01*
X557524Y747352D02*
X566324Y747352D01*
X566324Y745552D01*
X557524Y745552D01*
X557524Y746692D02*
X566324Y746692D01*
X557524Y742352D02*
X557524Y740552D01*
X557524Y742352D02*
X566324Y742352D01*
X566324Y740552D01*
X557524Y740552D01*
X557524Y741692D02*
X566324Y741692D01*
X557524Y737352D02*
X557524Y735552D01*
X557524Y737352D02*
X566324Y737352D01*
X566324Y735552D01*
X557524Y735552D01*
X557524Y736692D02*
X566324Y736692D01*
X557524Y732352D02*
X557524Y730552D01*
X557524Y732352D02*
X566324Y732352D01*
X566324Y730552D01*
X557524Y730552D01*
X557524Y731692D02*
X566324Y731692D01*
X557524Y727352D02*
X557524Y725552D01*
X557524Y727352D02*
X566324Y727352D01*
X566324Y725552D01*
X557524Y725552D01*
X557524Y726692D02*
X566324Y726692D01*
X557524Y722352D02*
X557524Y720552D01*
X557524Y722352D02*
X566324Y722352D01*
X566324Y720552D01*
X557524Y720552D01*
X557524Y721692D02*
X566324Y721692D01*
D30*
X534924Y698452D03*
X534924Y819452D03*
D31*
X872850Y709700D03*
X885550Y709700D03*
X898250Y709700D03*
X910950Y709700D03*
X923650Y709700D03*
X936350Y709700D03*
X949050Y709700D03*
X961750Y709700D03*
X974450Y709700D03*
X987150Y709700D03*
X987150Y697000D03*
X974450Y697000D03*
X961750Y697000D03*
X949050Y697000D03*
X936350Y697000D03*
X923650Y697000D03*
X910950Y697000D03*
X898250Y697000D03*
X885550Y697000D03*
X872850Y697000D03*
D32*
X847900Y652500D03*
X1012100Y652500D03*
X1012100Y701500D03*
X847900Y701500D03*
D33*
X1040750Y985000D03*
X1040750Y981000D03*
X1040750Y977000D03*
X1040750Y973000D03*
X1040750Y969000D03*
X1065250Y969000D03*
X1065250Y973000D03*
X1065250Y977000D03*
X1065250Y981000D03*
X1065250Y985000D03*
D34*
X1053000Y977000D03*
D35*
X761750Y1023000D03*
X732250Y1023000D03*
D36*
X747000Y1038250D03*
D37*
X527500Y955000D03*
X546500Y955000D03*
D19*
X476500Y832000D03*
X459500Y832000D03*
X572500Y842000D03*
X555500Y842000D03*
X1236500Y1007000D03*
X1253500Y1007000D03*
M02*
