G04 EAGLE Gerber RS-274X export*
G75*
%MOMM*%
%FSLAX34Y34*%
%LPD*%
%INBottom Copper*%
%IPPOS*%
%AMOC8*
5,1,8,0,0,1.08239X$1,22.5*%
G01*
%ADD10R,3.000000X1.270000*%
%ADD11R,3.680000X1.270000*%
%ADD12C,0.756400*%
%ADD13C,0.254000*%
%ADD14C,0.706400*%
%ADD15C,0.152400*%
%ADD16C,0.406400*%
%ADD17C,0.806400*%
%ADD18C,1.006400*%
%ADD19C,1.016000*%
%ADD20C,0.609600*%
%ADD21C,0.203200*%
%ADD22C,0.856400*%
%ADD23C,0.304800*%
%ADD24C,1.056400*%
%ADD25C,8.000000*%


D10*
X1086500Y448500D03*
X1086500Y423100D03*
D11*
X1083500Y397700D03*
X1083500Y372300D03*
D10*
X1086500Y346900D03*
X1086500Y321500D03*
X1036500Y321500D03*
X1036500Y346900D03*
D11*
X1039500Y372300D03*
X1039500Y397700D03*
D10*
X1036500Y423100D03*
X1036500Y448500D03*
X1086500Y1248500D03*
X1086500Y1223100D03*
D11*
X1083500Y1197700D03*
X1083500Y1172300D03*
D10*
X1086500Y1146900D03*
X1086500Y1121500D03*
X1036500Y1121500D03*
X1036500Y1146900D03*
D11*
X1039500Y1172300D03*
X1039500Y1197700D03*
D10*
X1036500Y1223100D03*
X1036500Y1248500D03*
D12*
X262300Y185000D03*
D13*
X345753Y185000D02*
X389817Y229064D01*
X521575Y229064D02*
X616767Y324256D01*
X521575Y229064D02*
X389817Y229064D01*
X616767Y324256D02*
X711244Y324256D01*
X740500Y295000D01*
X345753Y185000D02*
X262300Y185000D01*
D12*
X740500Y295000D03*
D13*
X1019500Y372300D02*
X1039500Y372300D01*
X1019500Y372300D02*
X1008500Y361300D01*
X742884Y361300D01*
X740500Y363684D01*
D14*
X740500Y363684D03*
D12*
X262300Y141000D03*
D13*
X307500Y141000D01*
X523258Y225000D02*
X618450Y320192D01*
X702308Y320192D01*
X727500Y295000D01*
X391500Y225000D02*
X307500Y141000D01*
X391500Y225000D02*
X523258Y225000D01*
D12*
X727500Y295000D03*
D14*
X727500Y359000D03*
D13*
X1019221Y346900D02*
X1036500Y346900D01*
X1019221Y346900D02*
X1009255Y356866D01*
D15*
X729634Y356866D02*
X727500Y359000D01*
D13*
X729634Y356866D02*
X1009255Y356866D01*
D12*
X792674Y552448D03*
X381926Y292426D03*
D16*
X641948Y552448D01*
X792674Y552448D01*
D12*
X819598Y562608D03*
X385500Y276000D03*
D16*
X385500Y283000D01*
X637500Y535000D01*
X791990Y535000D02*
X819598Y562608D01*
X791990Y535000D02*
X637500Y535000D01*
D17*
X989900Y658716D03*
D13*
X968382Y680234D01*
X497446Y680234D01*
X492540Y675328D01*
X463584Y675328D01*
D17*
X463584Y675328D03*
D12*
X181500Y335000D03*
D13*
X181500Y539116D01*
X171500Y549116D01*
D12*
X171500Y549116D03*
D17*
X1015300Y689000D03*
X487968Y682174D03*
D13*
X490730Y684936D02*
X984311Y684936D01*
X490730Y684936D02*
X487968Y682174D01*
X1007300Y681000D02*
X1015300Y689000D01*
X1007300Y681000D02*
X988247Y681000D01*
X984311Y684936D01*
D12*
X161500Y475000D03*
D13*
X161500Y562798D01*
X161601Y562899D01*
D12*
X161601Y562899D03*
X236900Y137600D03*
D13*
X255724Y156424D01*
X255724Y187724D01*
X263000Y195000D01*
X350005Y195000D02*
X388133Y233128D01*
X519891Y233128D01*
X615083Y328320D02*
X721180Y328320D01*
X753500Y296000D01*
X350005Y195000D02*
X263000Y195000D01*
X519891Y233128D02*
X615083Y328320D01*
D12*
X753500Y296000D03*
D13*
X1019500Y423100D02*
X1036500Y423100D01*
X1019500Y423100D02*
X976500Y380100D01*
X753600Y380100D01*
D15*
X753500Y380000D01*
D14*
X753500Y380000D03*
D12*
X236900Y188400D03*
D13*
X253500Y205000D01*
X354258Y205000D01*
X518208Y237192D02*
X613400Y332384D01*
X728116Y332384D01*
X765500Y295000D01*
X386450Y237192D02*
X354258Y205000D01*
X386450Y237192D02*
X518208Y237192D01*
D12*
X765500Y295000D03*
D14*
X765500Y392000D03*
D13*
X1019500Y448500D02*
X1036500Y448500D01*
X963000Y392000D02*
X765500Y392000D01*
X963000Y392000D02*
X1019500Y448500D01*
D12*
X211500Y188400D03*
D13*
X232164Y209064D01*
X352575Y209064D02*
X384767Y241256D01*
X516524Y241256D02*
X611716Y336448D01*
X737052Y336448D02*
X778500Y295000D01*
X352575Y209064D02*
X232164Y209064D01*
X384767Y241256D02*
X516524Y241256D01*
X611716Y336448D02*
X737052Y336448D01*
D12*
X778500Y295000D03*
D13*
X1019500Y397700D02*
X1039500Y397700D01*
X1019500Y397700D02*
X993800Y372000D01*
X778500Y372000D01*
D14*
X778500Y372000D03*
D12*
X414700Y188400D03*
D13*
X515900Y188400D01*
X625500Y298000D01*
X661500Y298000D02*
X664500Y295000D01*
X661500Y298000D02*
X625500Y298000D01*
D12*
X664500Y295000D03*
D13*
X1086500Y346900D02*
X1103500Y346900D01*
X1114500Y335900D01*
X1114500Y313000D01*
X1098500Y297000D01*
X808500Y297000D01*
X760500Y345000D01*
D15*
X666338Y345000D02*
X664500Y346838D01*
D14*
X664500Y346838D03*
D13*
X666338Y345000D02*
X760500Y345000D01*
D12*
X389300Y141000D03*
D13*
X431476Y194976D02*
X431500Y195000D01*
X431476Y194976D02*
X411976Y194976D01*
X389300Y172300D01*
X389300Y141000D01*
X431500Y195000D02*
X516500Y195000D01*
X624500Y303000D01*
X669500Y303000D01*
X676500Y296000D01*
D12*
X676500Y296000D03*
D13*
X1086500Y321500D02*
X1103000Y321500D01*
D14*
X676500Y351818D03*
D13*
X760993Y351818D02*
X809763Y303048D01*
X760993Y351818D02*
X676500Y351818D01*
X1095548Y303048D02*
X1106500Y314000D01*
X1106500Y318000D01*
X1103000Y321500D01*
X1095548Y303048D02*
X809763Y303048D01*
D12*
X389300Y185000D03*
D13*
X406300Y202000D01*
X676500Y308000D02*
X689500Y295000D01*
X517500Y202000D02*
X406300Y202000D01*
X517500Y202000D02*
X623500Y308000D01*
X676500Y308000D01*
D12*
X689500Y295000D03*
X363900Y141000D03*
D13*
X363900Y171400D01*
X401500Y209000D01*
X518753Y209000D01*
X621817Y312064D01*
X679183Y312064D01*
X679247Y312000D01*
X684500Y312000D01*
X701500Y295000D01*
D12*
X701500Y295000D03*
X363900Y185000D03*
D13*
X394964Y216064D01*
X620133Y316128D02*
X693372Y316128D01*
X714500Y295000D01*
X520069Y216064D02*
X394964Y216064D01*
X520069Y216064D02*
X620133Y316128D01*
D12*
X714500Y295000D03*
D18*
X737304Y609196D03*
D19*
X1027500Y609196D01*
X1079304Y609196D01*
X1160500Y528000D01*
X1160500Y398000D01*
X1160500Y312000D01*
X1077500Y229000D01*
X783500Y229000D01*
X772500Y240000D02*
X772500Y258000D01*
D18*
X772500Y258000D03*
D19*
X772500Y240000D02*
X783500Y229000D01*
D12*
X1027500Y609196D03*
D13*
X789500Y275000D02*
X772500Y258000D01*
X789500Y275000D02*
X789500Y298000D01*
X746988Y340512D01*
X610012Y340512D02*
X514820Y245320D01*
X610012Y340512D02*
X746988Y340512D01*
X514820Y245320D02*
X383083Y245320D01*
X366763Y229000D02*
X338500Y229000D01*
X245500Y229000D01*
X366763Y229000D02*
X383083Y245320D01*
D14*
X245500Y229000D03*
X338500Y229000D03*
D13*
X1083500Y397700D02*
X1160200Y397700D01*
D15*
X1160500Y398000D01*
D12*
X379500Y631000D03*
X294500Y451000D03*
X287500Y480000D03*
X308500Y437000D03*
X327500Y507000D03*
X256500Y520000D03*
X253500Y454000D03*
X253500Y441000D03*
X169500Y455000D03*
X161500Y610000D03*
X359882Y666618D03*
X621500Y595000D03*
X661500Y605000D03*
X631500Y555000D03*
X721500Y565000D03*
X837500Y519000D03*
X831500Y498046D03*
X854500Y499000D03*
X484500Y599000D03*
X757500Y773000D03*
X771311Y724811D03*
X851500Y673658D03*
X469500Y437000D03*
X394500Y437000D03*
X236500Y364000D03*
X670500Y260000D03*
X523500Y578000D03*
X553500Y578000D03*
X268500Y394000D03*
X364500Y401000D03*
D13*
X1086500Y423100D02*
X1115400Y423100D01*
D15*
X1115500Y423000D01*
D14*
X1115500Y423000D03*
X909500Y771000D03*
D12*
X211500Y137600D03*
D20*
X181500Y137600D01*
X131500Y187600D01*
X411500Y555000D02*
X478500Y622000D01*
X592500Y622000D01*
X693500Y622000D01*
D12*
X592500Y622000D03*
X693500Y622000D03*
D20*
X171500Y635000D02*
X131500Y595000D01*
X281500Y635000D02*
X361500Y555000D01*
X411500Y555000D01*
X131500Y595000D02*
X131500Y187600D01*
X171500Y635000D02*
X281500Y635000D01*
D17*
X311184Y637228D03*
D12*
X984172Y713428D03*
D21*
X413089Y713428D01*
X412863Y713654D01*
X387610Y713654D01*
X311184Y637228D01*
D17*
X1040700Y645000D03*
D13*
X1027581Y631881D01*
X459237Y631881D01*
X400576Y573220D01*
X399576Y573220D01*
D17*
X399576Y573220D03*
D22*
X862900Y641600D03*
D23*
X862708Y641408D01*
X458620Y641408D01*
X410244Y593032D01*
D17*
X410244Y593032D03*
X989900Y689000D03*
X989900Y689000D03*
D13*
X474500Y689000D01*
X469500Y694000D01*
D17*
X469500Y694000D03*
D12*
X381500Y335000D03*
D13*
X381500Y525000D01*
X186407Y615000D02*
X161953Y590547D01*
D12*
X161953Y590547D03*
D13*
X291500Y615000D02*
X381500Y525000D01*
X291500Y615000D02*
X186407Y615000D01*
D14*
X928500Y595000D03*
D13*
X1074500Y595000D01*
X1135500Y534000D02*
X1135500Y421000D01*
X1125344Y410844D01*
X1065943Y410844D02*
X1061306Y406207D01*
X1061306Y382194D01*
X1135500Y534000D02*
X1074500Y595000D01*
X1065943Y410844D02*
X1125344Y410844D01*
X1070000Y373500D02*
X1061306Y382194D01*
D15*
X1082300Y373500D02*
X1083500Y372300D01*
X1082300Y373500D02*
X1070000Y373500D01*
D24*
X665500Y666380D03*
X711500Y485000D03*
D17*
X797500Y506000D03*
D16*
X668188Y506000D01*
X666500Y507688D01*
D17*
X666500Y507688D03*
D12*
X589500Y720000D03*
D24*
X881500Y585000D03*
D12*
X236500Y344000D03*
X371500Y766000D03*
X746500Y260000D03*
X681500Y595000D03*
D18*
X621500Y665000D03*
D12*
X193500Y474950D03*
X301500Y515000D03*
D13*
X1086500Y459000D02*
X1086500Y448500D01*
X1086500Y459000D02*
X1093500Y466000D01*
D14*
X1093500Y466000D03*
D17*
X1040700Y689000D03*
D13*
X1002168Y650468D01*
X461012Y650468D01*
X446820Y664660D01*
X446820Y676057D01*
D17*
X446820Y676057D03*
D14*
X156500Y574000D03*
D13*
X163500Y574000D01*
X204174Y533326D02*
X222174Y533326D01*
D14*
X222174Y533326D03*
D13*
X204174Y533326D02*
X163500Y574000D01*
D12*
X1066100Y692400D03*
D21*
X1062928Y695572D01*
X486012Y695572D01*
X474252Y707332D02*
X410244Y707332D01*
D12*
X410244Y707332D03*
D21*
X474252Y707332D02*
X486012Y695572D01*
D12*
X831500Y455000D03*
D13*
X939500Y455000D01*
X1066500Y582000D01*
D12*
X1066500Y582000D03*
D25*
X551500Y385000D03*
D12*
X262300Y985000D03*
D13*
X345753Y985000D02*
X389817Y1029064D01*
X521575Y1029064D02*
X616767Y1124256D01*
X521575Y1029064D02*
X389817Y1029064D01*
X616767Y1124256D02*
X711244Y1124256D01*
X740500Y1095000D01*
X345753Y985000D02*
X262300Y985000D01*
D12*
X740500Y1095000D03*
D13*
X1019500Y1172300D02*
X1039500Y1172300D01*
X1019500Y1172300D02*
X1008500Y1161300D01*
X742884Y1161300D01*
X740500Y1163684D01*
D14*
X740500Y1163684D03*
D12*
X262300Y941000D03*
D13*
X307500Y941000D01*
X523258Y1025000D02*
X618450Y1120192D01*
X702308Y1120192D01*
X727500Y1095000D01*
X391500Y1025000D02*
X307500Y941000D01*
X391500Y1025000D02*
X523258Y1025000D01*
D12*
X727500Y1095000D03*
D14*
X727500Y1159000D03*
D13*
X1019221Y1146900D02*
X1036500Y1146900D01*
X1019221Y1146900D02*
X1009255Y1156866D01*
D15*
X729634Y1156866D02*
X727500Y1159000D01*
D13*
X729634Y1156866D02*
X1009255Y1156866D01*
D12*
X792674Y1352448D03*
X381926Y1092426D03*
D16*
X641948Y1352448D01*
X792674Y1352448D01*
D12*
X819598Y1362608D03*
X385500Y1076000D03*
D16*
X385500Y1083000D01*
X637500Y1335000D01*
X791990Y1335000D02*
X819598Y1362608D01*
X791990Y1335000D02*
X637500Y1335000D01*
D17*
X989900Y1458716D03*
D13*
X968382Y1480234D01*
X497446Y1480234D01*
X492540Y1475328D01*
X463584Y1475328D01*
D17*
X463584Y1475328D03*
D12*
X181500Y1135000D03*
D13*
X181500Y1339116D01*
X171500Y1349116D01*
D12*
X171500Y1349116D03*
D17*
X1015300Y1489000D03*
X487968Y1482174D03*
D13*
X490730Y1484936D02*
X984311Y1484936D01*
X490730Y1484936D02*
X487968Y1482174D01*
X1007300Y1481000D02*
X1015300Y1489000D01*
X1007300Y1481000D02*
X988247Y1481000D01*
X984311Y1484936D01*
D12*
X161500Y1275000D03*
D13*
X161500Y1362798D01*
X161601Y1362899D01*
D12*
X161601Y1362899D03*
X236900Y937600D03*
D13*
X255724Y956424D01*
X255724Y987724D01*
X263000Y995000D01*
X350005Y995000D02*
X388133Y1033128D01*
X519891Y1033128D01*
X615083Y1128320D02*
X721180Y1128320D01*
X753500Y1096000D01*
X350005Y995000D02*
X263000Y995000D01*
X519891Y1033128D02*
X615083Y1128320D01*
D12*
X753500Y1096000D03*
D13*
X1019500Y1223100D02*
X1036500Y1223100D01*
X1019500Y1223100D02*
X976500Y1180100D01*
X753600Y1180100D01*
D15*
X753500Y1180000D01*
D14*
X753500Y1180000D03*
D12*
X236900Y988400D03*
D13*
X253500Y1005000D01*
X354258Y1005000D01*
X518208Y1037192D02*
X613400Y1132384D01*
X728116Y1132384D01*
X765500Y1095000D01*
X386450Y1037192D02*
X354258Y1005000D01*
X386450Y1037192D02*
X518208Y1037192D01*
D12*
X765500Y1095000D03*
D14*
X765500Y1192000D03*
D13*
X1019500Y1248500D02*
X1036500Y1248500D01*
X963000Y1192000D02*
X765500Y1192000D01*
X963000Y1192000D02*
X1019500Y1248500D01*
D12*
X211500Y988400D03*
D13*
X232164Y1009064D01*
X352575Y1009064D02*
X384767Y1041256D01*
X516524Y1041256D02*
X611716Y1136448D01*
X737052Y1136448D02*
X778500Y1095000D01*
X352575Y1009064D02*
X232164Y1009064D01*
X384767Y1041256D02*
X516524Y1041256D01*
X611716Y1136448D02*
X737052Y1136448D01*
D12*
X778500Y1095000D03*
D13*
X1019500Y1197700D02*
X1039500Y1197700D01*
X1019500Y1197700D02*
X993800Y1172000D01*
X778500Y1172000D01*
D14*
X778500Y1172000D03*
D12*
X414700Y988400D03*
D13*
X515900Y988400D01*
X625500Y1098000D01*
X661500Y1098000D02*
X664500Y1095000D01*
X661500Y1098000D02*
X625500Y1098000D01*
D12*
X664500Y1095000D03*
D13*
X1086500Y1146900D02*
X1103500Y1146900D01*
X1114500Y1135900D01*
X1114500Y1113000D01*
X1098500Y1097000D01*
X808500Y1097000D01*
X760500Y1145000D01*
D15*
X666338Y1145000D02*
X664500Y1146838D01*
D14*
X664500Y1146838D03*
D13*
X666338Y1145000D02*
X760500Y1145000D01*
D12*
X389300Y941000D03*
D13*
X431476Y994976D02*
X431500Y995000D01*
X431476Y994976D02*
X411976Y994976D01*
X389300Y972300D01*
X389300Y941000D01*
X431500Y995000D02*
X516500Y995000D01*
X624500Y1103000D01*
X669500Y1103000D01*
X676500Y1096000D01*
D12*
X676500Y1096000D03*
D13*
X1086500Y1121500D02*
X1103000Y1121500D01*
D14*
X676500Y1151818D03*
D13*
X760993Y1151818D02*
X809763Y1103048D01*
X760993Y1151818D02*
X676500Y1151818D01*
X1095548Y1103048D02*
X1106500Y1114000D01*
X1106500Y1118000D01*
X1103000Y1121500D01*
X1095548Y1103048D02*
X809763Y1103048D01*
D12*
X389300Y985000D03*
D13*
X406300Y1002000D01*
X676500Y1108000D02*
X689500Y1095000D01*
X517500Y1002000D02*
X406300Y1002000D01*
X517500Y1002000D02*
X623500Y1108000D01*
X676500Y1108000D01*
D12*
X689500Y1095000D03*
X363900Y941000D03*
D13*
X363900Y971400D01*
X401500Y1009000D01*
X518753Y1009000D01*
X621817Y1112064D01*
X679183Y1112064D01*
X679247Y1112000D01*
X684500Y1112000D01*
X701500Y1095000D01*
D12*
X701500Y1095000D03*
X363900Y985000D03*
D13*
X394964Y1016064D01*
X620133Y1116128D02*
X693372Y1116128D01*
X714500Y1095000D01*
X520069Y1016064D02*
X394964Y1016064D01*
X520069Y1016064D02*
X620133Y1116128D01*
D12*
X714500Y1095000D03*
D18*
X737304Y1409196D03*
D19*
X1027500Y1409196D01*
X1079304Y1409196D01*
X1160500Y1328000D01*
X1160500Y1198000D01*
X1160500Y1112000D01*
X1077500Y1029000D01*
X783500Y1029000D01*
X772500Y1040000D02*
X772500Y1058000D01*
D18*
X772500Y1058000D03*
D19*
X772500Y1040000D02*
X783500Y1029000D01*
D12*
X1027500Y1409196D03*
D13*
X789500Y1075000D02*
X772500Y1058000D01*
X789500Y1075000D02*
X789500Y1098000D01*
X746988Y1140512D01*
X610012Y1140512D02*
X514820Y1045320D01*
X610012Y1140512D02*
X746988Y1140512D01*
X514820Y1045320D02*
X383083Y1045320D01*
X366763Y1029000D02*
X338500Y1029000D01*
X245500Y1029000D01*
X366763Y1029000D02*
X383083Y1045320D01*
D14*
X245500Y1029000D03*
X338500Y1029000D03*
D13*
X1083500Y1197700D02*
X1160200Y1197700D01*
D15*
X1160500Y1198000D01*
D12*
X379500Y1431000D03*
X294500Y1251000D03*
X287500Y1280000D03*
X308500Y1237000D03*
X327500Y1307000D03*
X256500Y1320000D03*
X253500Y1254000D03*
X253500Y1241000D03*
X169500Y1255000D03*
X161500Y1410000D03*
X359882Y1466618D03*
X621500Y1395000D03*
X661500Y1405000D03*
X631500Y1355000D03*
X721500Y1365000D03*
X837500Y1319000D03*
X831500Y1298046D03*
X854500Y1299000D03*
X484500Y1399000D03*
X757500Y1573000D03*
X771311Y1524811D03*
X851500Y1473658D03*
X469500Y1237000D03*
X394500Y1237000D03*
X236500Y1164000D03*
X670500Y1060000D03*
X523500Y1378000D03*
X553500Y1378000D03*
X268500Y1194000D03*
X364500Y1201000D03*
D13*
X1086500Y1223100D02*
X1115400Y1223100D01*
D15*
X1115500Y1223000D01*
D14*
X1115500Y1223000D03*
X909500Y1571000D03*
D12*
X211500Y937600D03*
D20*
X181500Y937600D01*
X131500Y987600D01*
X411500Y1355000D02*
X478500Y1422000D01*
X592500Y1422000D01*
X693500Y1422000D01*
D12*
X592500Y1422000D03*
X693500Y1422000D03*
D20*
X171500Y1435000D02*
X131500Y1395000D01*
X281500Y1435000D02*
X361500Y1355000D01*
X411500Y1355000D01*
X131500Y1395000D02*
X131500Y987600D01*
X171500Y1435000D02*
X281500Y1435000D01*
D17*
X311184Y1437228D03*
D12*
X984172Y1513428D03*
D21*
X413089Y1513428D01*
X412863Y1513654D01*
X387610Y1513654D01*
X311184Y1437228D01*
D17*
X1040700Y1445000D03*
D13*
X1027581Y1431881D01*
X459237Y1431881D01*
X400576Y1373220D01*
X399576Y1373220D01*
D17*
X399576Y1373220D03*
D22*
X862900Y1441600D03*
D23*
X862708Y1441408D01*
X458620Y1441408D01*
X410244Y1393032D01*
D17*
X410244Y1393032D03*
X989900Y1489000D03*
X989900Y1489000D03*
D13*
X474500Y1489000D01*
X469500Y1494000D01*
D17*
X469500Y1494000D03*
D12*
X381500Y1135000D03*
D13*
X381500Y1325000D01*
X186407Y1415000D02*
X161953Y1390547D01*
D12*
X161953Y1390547D03*
D13*
X291500Y1415000D02*
X381500Y1325000D01*
X291500Y1415000D02*
X186407Y1415000D01*
D14*
X928500Y1395000D03*
D13*
X1074500Y1395000D01*
X1135500Y1334000D02*
X1135500Y1221000D01*
X1125344Y1210844D01*
X1065943Y1210844D02*
X1061306Y1206207D01*
X1061306Y1182194D01*
X1135500Y1334000D02*
X1074500Y1395000D01*
X1065943Y1210844D02*
X1125344Y1210844D01*
X1070000Y1173500D02*
X1061306Y1182194D01*
D15*
X1082300Y1173500D02*
X1083500Y1172300D01*
X1082300Y1173500D02*
X1070000Y1173500D01*
D24*
X665500Y1466380D03*
X711500Y1285000D03*
D17*
X797500Y1306000D03*
D16*
X668188Y1306000D01*
X666500Y1307688D01*
D17*
X666500Y1307688D03*
D12*
X589500Y1520000D03*
D24*
X881500Y1385000D03*
D12*
X236500Y1144000D03*
X371500Y1566000D03*
X746500Y1060000D03*
X681500Y1395000D03*
D18*
X621500Y1465000D03*
D12*
X193500Y1274950D03*
X301500Y1315000D03*
D13*
X1086500Y1259000D02*
X1086500Y1248500D01*
X1086500Y1259000D02*
X1093500Y1266000D01*
D14*
X1093500Y1266000D03*
D17*
X1040700Y1489000D03*
D13*
X1002168Y1450468D01*
X461012Y1450468D01*
X446820Y1464660D01*
X446820Y1476057D01*
D17*
X446820Y1476057D03*
D14*
X156500Y1374000D03*
D13*
X163500Y1374000D01*
X204174Y1333326D02*
X222174Y1333326D01*
D14*
X222174Y1333326D03*
D13*
X204174Y1333326D02*
X163500Y1374000D01*
D12*
X1066100Y1492400D03*
D21*
X1062928Y1495572D01*
X486012Y1495572D01*
X474252Y1507332D02*
X410244Y1507332D01*
D12*
X410244Y1507332D03*
D21*
X474252Y1507332D02*
X486012Y1495572D01*
D12*
X831500Y1255000D03*
D13*
X939500Y1255000D01*
X1066500Y1382000D01*
D12*
X1066500Y1382000D03*
D25*
X551500Y1185000D03*
M02*
