G04 EAGLE Gerber RS-274X export*
G75*
%MOMM*%
%FSLAX34Y34*%
%LPD*%
%INTop Copper*%
%IPPOS*%
%AMOC8*
5,1,8,0,0,1.08239X$1,22.5*%
G01*
%ADD10C,0.152400*%
%ADD11R,1.270000X3.000000*%
%ADD12R,1.270000X3.680000*%
%ADD13C,0.350000*%
%ADD14R,3.700000X3.700000*%
%ADD15R,0.635000X1.270000*%
%ADD16C,0.243678*%
%ADD17R,1.950000X1.500000*%
%ADD18R,1.050000X1.080000*%
%ADD19R,0.720000X1.780000*%
%ADD20R,1.100000X1.000000*%
%ADD21C,0.196759*%
%ADD22R,1.000000X1.100000*%
%ADD23R,0.900000X0.700000*%
%ADD24R,0.600000X0.600000*%
%ADD25R,2.082800X4.851400*%
%ADD26R,0.762000X0.990600*%
%ADD27R,1.000000X5.500000*%
%ADD28R,2.600000X4.000000*%
%ADD29C,0.120000*%
%ADD30R,1.000000X0.300000*%
%ADD31R,1.300000X2.000000*%
%ADD32R,0.800000X0.800000*%
%ADD33R,1.200000X2.700000*%
%ADD34R,0.650000X0.200000*%
%ADD35R,1.300000X1.400000*%
%ADD36R,1.050000X2.200000*%
%ADD37R,1.050000X1.000000*%
%ADD38R,1.300000X1.500000*%
%ADD39C,1.000000*%
%ADD40C,0.756400*%
%ADD41C,0.254000*%
%ADD42C,0.706400*%
%ADD43C,0.200000*%
%ADD44C,0.406400*%
%ADD45C,0.806400*%
%ADD46C,0.304800*%
%ADD47C,1.016000*%
%ADD48C,1.006400*%
%ADD49C,0.609600*%
%ADD50C,0.508000*%
%ADD51C,0.203200*%
%ADD52C,0.856400*%
%ADD53C,2.540000*%
%ADD54C,1.056400*%
%ADD55C,1.270000*%
%ADD56C,8.000000*%


D10*
X538511Y1671872D02*
X538511Y1688128D01*
X543026Y1688128D01*
X543157Y1688126D01*
X543289Y1688120D01*
X543420Y1688111D01*
X543550Y1688097D01*
X543681Y1688080D01*
X543810Y1688059D01*
X543939Y1688035D01*
X544067Y1688006D01*
X544195Y1687974D01*
X544321Y1687938D01*
X544446Y1687899D01*
X544571Y1687856D01*
X544693Y1687809D01*
X544815Y1687759D01*
X544935Y1687705D01*
X545053Y1687648D01*
X545169Y1687587D01*
X545284Y1687523D01*
X545397Y1687456D01*
X545508Y1687385D01*
X545616Y1687311D01*
X545723Y1687234D01*
X545827Y1687154D01*
X545929Y1687071D01*
X546028Y1686986D01*
X546125Y1686897D01*
X546219Y1686805D01*
X546311Y1686711D01*
X546400Y1686614D01*
X546485Y1686515D01*
X546568Y1686413D01*
X546648Y1686309D01*
X546725Y1686202D01*
X546799Y1686094D01*
X546870Y1685983D01*
X546937Y1685870D01*
X547001Y1685755D01*
X547062Y1685639D01*
X547119Y1685521D01*
X547173Y1685401D01*
X547223Y1685279D01*
X547270Y1685157D01*
X547313Y1685032D01*
X547352Y1684907D01*
X547388Y1684781D01*
X547420Y1684653D01*
X547449Y1684525D01*
X547473Y1684396D01*
X547494Y1684267D01*
X547511Y1684136D01*
X547525Y1684006D01*
X547534Y1683875D01*
X547540Y1683743D01*
X547542Y1683612D01*
X547542Y1676388D01*
X547540Y1676257D01*
X547534Y1676125D01*
X547525Y1675994D01*
X547511Y1675864D01*
X547494Y1675733D01*
X547473Y1675604D01*
X547449Y1675475D01*
X547420Y1675347D01*
X547388Y1675219D01*
X547352Y1675093D01*
X547313Y1674968D01*
X547270Y1674843D01*
X547223Y1674721D01*
X547173Y1674599D01*
X547119Y1674479D01*
X547062Y1674361D01*
X547001Y1674245D01*
X546937Y1674130D01*
X546870Y1674017D01*
X546799Y1673906D01*
X546725Y1673798D01*
X546648Y1673691D01*
X546568Y1673587D01*
X546485Y1673485D01*
X546400Y1673386D01*
X546311Y1673289D01*
X546219Y1673195D01*
X546125Y1673103D01*
X546028Y1673014D01*
X545929Y1672929D01*
X545827Y1672846D01*
X545723Y1672766D01*
X545616Y1672689D01*
X545508Y1672615D01*
X545397Y1672544D01*
X545284Y1672477D01*
X545169Y1672413D01*
X545053Y1672352D01*
X544935Y1672295D01*
X544815Y1672241D01*
X544693Y1672191D01*
X544571Y1672144D01*
X544446Y1672101D01*
X544321Y1672062D01*
X544195Y1672026D01*
X544067Y1671994D01*
X543939Y1671965D01*
X543810Y1671941D01*
X543680Y1671920D01*
X543550Y1671903D01*
X543420Y1671889D01*
X543289Y1671880D01*
X543157Y1671874D01*
X543026Y1671872D01*
X538511Y1671872D01*
X553760Y1671872D02*
X559179Y1688128D01*
X564597Y1671872D01*
X563243Y1675936D02*
X555115Y1675936D01*
X570907Y1671872D02*
X570907Y1688128D01*
X575422Y1688128D01*
X575555Y1688126D01*
X575687Y1688120D01*
X575819Y1688110D01*
X575951Y1688097D01*
X576083Y1688079D01*
X576213Y1688058D01*
X576344Y1688033D01*
X576473Y1688004D01*
X576601Y1687971D01*
X576729Y1687935D01*
X576855Y1687895D01*
X576980Y1687851D01*
X577104Y1687803D01*
X577226Y1687752D01*
X577347Y1687697D01*
X577466Y1687639D01*
X577584Y1687577D01*
X577699Y1687512D01*
X577813Y1687443D01*
X577924Y1687372D01*
X578033Y1687296D01*
X578140Y1687218D01*
X578245Y1687137D01*
X578347Y1687052D01*
X578447Y1686965D01*
X578544Y1686875D01*
X578639Y1686782D01*
X578730Y1686686D01*
X578819Y1686588D01*
X578905Y1686487D01*
X578988Y1686383D01*
X579068Y1686277D01*
X579144Y1686169D01*
X579218Y1686059D01*
X579288Y1685946D01*
X579355Y1685832D01*
X579418Y1685715D01*
X579478Y1685597D01*
X579535Y1685477D01*
X579588Y1685355D01*
X579637Y1685232D01*
X579683Y1685108D01*
X579725Y1684982D01*
X579763Y1684855D01*
X579798Y1684727D01*
X579829Y1684598D01*
X579856Y1684469D01*
X579879Y1684338D01*
X579899Y1684207D01*
X579914Y1684075D01*
X579926Y1683943D01*
X579934Y1683811D01*
X579938Y1683678D01*
X579938Y1683546D01*
X579934Y1683413D01*
X579926Y1683281D01*
X579914Y1683149D01*
X579899Y1683017D01*
X579879Y1682886D01*
X579856Y1682755D01*
X579829Y1682626D01*
X579798Y1682497D01*
X579763Y1682369D01*
X579725Y1682242D01*
X579683Y1682116D01*
X579637Y1681992D01*
X579588Y1681869D01*
X579535Y1681747D01*
X579478Y1681627D01*
X579418Y1681509D01*
X579355Y1681392D01*
X579288Y1681278D01*
X579218Y1681165D01*
X579144Y1681055D01*
X579068Y1680947D01*
X578988Y1680841D01*
X578905Y1680737D01*
X578819Y1680636D01*
X578730Y1680538D01*
X578639Y1680442D01*
X578544Y1680349D01*
X578447Y1680259D01*
X578347Y1680172D01*
X578245Y1680087D01*
X578140Y1680006D01*
X578033Y1679928D01*
X577924Y1679852D01*
X577813Y1679781D01*
X577699Y1679712D01*
X577584Y1679647D01*
X577466Y1679585D01*
X577347Y1679527D01*
X577226Y1679472D01*
X577104Y1679421D01*
X576980Y1679373D01*
X576855Y1679329D01*
X576729Y1679289D01*
X576601Y1679253D01*
X576473Y1679220D01*
X576344Y1679191D01*
X576213Y1679166D01*
X576083Y1679145D01*
X575951Y1679127D01*
X575819Y1679114D01*
X575687Y1679104D01*
X575555Y1679098D01*
X575422Y1679096D01*
X575422Y1679097D02*
X570907Y1679097D01*
X576326Y1679097D02*
X579938Y1671872D01*
X589434Y1671872D02*
X585821Y1688128D01*
X593046Y1682709D02*
X589434Y1671872D01*
X596659Y1671872D02*
X593046Y1682709D01*
X600271Y1688128D02*
X596659Y1671872D01*
X607635Y1671872D02*
X607635Y1688128D01*
X605829Y1671872D02*
X609442Y1671872D01*
X609442Y1688128D02*
X605829Y1688128D01*
X616146Y1688128D02*
X616146Y1671872D01*
X625177Y1671872D02*
X616146Y1688128D01*
X625177Y1688128D02*
X625177Y1671872D01*
X632437Y1678194D02*
X643274Y1678194D01*
X637856Y1672775D02*
X637856Y1683612D01*
X650626Y1688128D02*
X650626Y1671872D01*
X650626Y1688128D02*
X655142Y1688128D01*
X655275Y1688126D01*
X655407Y1688120D01*
X655539Y1688110D01*
X655671Y1688097D01*
X655803Y1688079D01*
X655933Y1688058D01*
X656064Y1688033D01*
X656193Y1688004D01*
X656321Y1687971D01*
X656449Y1687935D01*
X656575Y1687895D01*
X656700Y1687851D01*
X656824Y1687803D01*
X656946Y1687752D01*
X657067Y1687697D01*
X657186Y1687639D01*
X657304Y1687577D01*
X657419Y1687512D01*
X657533Y1687443D01*
X657644Y1687372D01*
X657753Y1687296D01*
X657860Y1687218D01*
X657965Y1687137D01*
X658067Y1687052D01*
X658167Y1686965D01*
X658264Y1686875D01*
X658359Y1686782D01*
X658450Y1686686D01*
X658539Y1686588D01*
X658625Y1686487D01*
X658708Y1686383D01*
X658788Y1686277D01*
X658864Y1686169D01*
X658938Y1686059D01*
X659008Y1685946D01*
X659075Y1685832D01*
X659138Y1685715D01*
X659198Y1685597D01*
X659255Y1685477D01*
X659308Y1685355D01*
X659357Y1685232D01*
X659403Y1685108D01*
X659445Y1684982D01*
X659483Y1684855D01*
X659518Y1684727D01*
X659549Y1684598D01*
X659576Y1684469D01*
X659599Y1684338D01*
X659619Y1684207D01*
X659634Y1684075D01*
X659646Y1683943D01*
X659654Y1683811D01*
X659658Y1683678D01*
X659658Y1683546D01*
X659654Y1683413D01*
X659646Y1683281D01*
X659634Y1683149D01*
X659619Y1683017D01*
X659599Y1682886D01*
X659576Y1682755D01*
X659549Y1682626D01*
X659518Y1682497D01*
X659483Y1682369D01*
X659445Y1682242D01*
X659403Y1682116D01*
X659357Y1681992D01*
X659308Y1681869D01*
X659255Y1681747D01*
X659198Y1681627D01*
X659138Y1681509D01*
X659075Y1681392D01*
X659008Y1681278D01*
X658938Y1681165D01*
X658864Y1681055D01*
X658788Y1680947D01*
X658708Y1680841D01*
X658625Y1680737D01*
X658539Y1680636D01*
X658450Y1680538D01*
X658359Y1680442D01*
X658264Y1680349D01*
X658167Y1680259D01*
X658067Y1680172D01*
X657965Y1680087D01*
X657860Y1680006D01*
X657753Y1679928D01*
X657644Y1679852D01*
X657533Y1679781D01*
X657419Y1679712D01*
X657304Y1679647D01*
X657186Y1679585D01*
X657067Y1679527D01*
X656946Y1679472D01*
X656824Y1679421D01*
X656700Y1679373D01*
X656575Y1679329D01*
X656449Y1679289D01*
X656321Y1679253D01*
X656193Y1679220D01*
X656064Y1679191D01*
X655933Y1679166D01*
X655803Y1679145D01*
X655671Y1679127D01*
X655539Y1679114D01*
X655407Y1679104D01*
X655275Y1679098D01*
X655142Y1679096D01*
X655142Y1679097D02*
X650626Y1679097D01*
X656045Y1679097D02*
X659657Y1671872D01*
X665263Y1671872D02*
X670681Y1688128D01*
X676100Y1671872D01*
X674745Y1675936D02*
X666617Y1675936D01*
X682318Y1671872D02*
X682318Y1688128D01*
X686834Y1688128D01*
X686965Y1688126D01*
X687097Y1688120D01*
X687228Y1688111D01*
X687358Y1688097D01*
X687489Y1688080D01*
X687618Y1688059D01*
X687747Y1688035D01*
X687875Y1688006D01*
X688003Y1687974D01*
X688129Y1687938D01*
X688254Y1687899D01*
X688379Y1687856D01*
X688501Y1687809D01*
X688623Y1687759D01*
X688743Y1687705D01*
X688861Y1687648D01*
X688977Y1687587D01*
X689092Y1687523D01*
X689205Y1687456D01*
X689316Y1687385D01*
X689424Y1687311D01*
X689531Y1687234D01*
X689635Y1687154D01*
X689737Y1687071D01*
X689836Y1686986D01*
X689933Y1686897D01*
X690027Y1686805D01*
X690119Y1686711D01*
X690208Y1686614D01*
X690293Y1686515D01*
X690376Y1686413D01*
X690456Y1686309D01*
X690533Y1686202D01*
X690607Y1686094D01*
X690678Y1685983D01*
X690745Y1685870D01*
X690809Y1685755D01*
X690870Y1685639D01*
X690927Y1685521D01*
X690981Y1685401D01*
X691031Y1685279D01*
X691078Y1685157D01*
X691121Y1685032D01*
X691160Y1684907D01*
X691196Y1684781D01*
X691228Y1684653D01*
X691257Y1684525D01*
X691281Y1684396D01*
X691302Y1684267D01*
X691319Y1684136D01*
X691333Y1684006D01*
X691342Y1683875D01*
X691348Y1683743D01*
X691350Y1683612D01*
X691349Y1683612D02*
X691349Y1676388D01*
X691350Y1676388D02*
X691348Y1676257D01*
X691342Y1676125D01*
X691333Y1675994D01*
X691319Y1675864D01*
X691302Y1675733D01*
X691281Y1675604D01*
X691257Y1675475D01*
X691228Y1675347D01*
X691196Y1675219D01*
X691160Y1675093D01*
X691121Y1674968D01*
X691078Y1674843D01*
X691031Y1674721D01*
X690981Y1674599D01*
X690927Y1674479D01*
X690870Y1674361D01*
X690809Y1674245D01*
X690745Y1674130D01*
X690678Y1674017D01*
X690607Y1673906D01*
X690533Y1673798D01*
X690456Y1673691D01*
X690376Y1673587D01*
X690293Y1673485D01*
X690208Y1673386D01*
X690119Y1673289D01*
X690027Y1673195D01*
X689933Y1673103D01*
X689836Y1673014D01*
X689737Y1672929D01*
X689635Y1672846D01*
X689531Y1672766D01*
X689424Y1672689D01*
X689316Y1672615D01*
X689205Y1672544D01*
X689092Y1672477D01*
X688977Y1672413D01*
X688861Y1672352D01*
X688743Y1672295D01*
X688623Y1672241D01*
X688501Y1672191D01*
X688379Y1672144D01*
X688254Y1672101D01*
X688129Y1672062D01*
X688003Y1672026D01*
X687875Y1671994D01*
X687747Y1671965D01*
X687618Y1671941D01*
X687488Y1671920D01*
X687358Y1671903D01*
X687228Y1671889D01*
X687097Y1671880D01*
X686965Y1671874D01*
X686834Y1671872D01*
X682318Y1671872D01*
X699860Y1671872D02*
X699860Y1688128D01*
X698053Y1671872D02*
X701666Y1671872D01*
X701666Y1688128D02*
X698053Y1688128D01*
X707849Y1683612D02*
X707849Y1676388D01*
X707849Y1683612D02*
X707851Y1683745D01*
X707857Y1683877D01*
X707867Y1684009D01*
X707880Y1684141D01*
X707898Y1684273D01*
X707919Y1684403D01*
X707944Y1684534D01*
X707973Y1684663D01*
X708006Y1684791D01*
X708042Y1684919D01*
X708082Y1685045D01*
X708126Y1685170D01*
X708174Y1685294D01*
X708225Y1685416D01*
X708280Y1685537D01*
X708338Y1685656D01*
X708400Y1685774D01*
X708465Y1685889D01*
X708534Y1686003D01*
X708605Y1686114D01*
X708681Y1686223D01*
X708759Y1686330D01*
X708840Y1686435D01*
X708925Y1686537D01*
X709012Y1686637D01*
X709102Y1686734D01*
X709195Y1686829D01*
X709291Y1686920D01*
X709389Y1687009D01*
X709490Y1687095D01*
X709594Y1687178D01*
X709700Y1687258D01*
X709808Y1687334D01*
X709918Y1687408D01*
X710031Y1687478D01*
X710145Y1687545D01*
X710262Y1687608D01*
X710380Y1687668D01*
X710500Y1687725D01*
X710622Y1687778D01*
X710745Y1687827D01*
X710869Y1687873D01*
X710995Y1687915D01*
X711122Y1687953D01*
X711250Y1687988D01*
X711379Y1688019D01*
X711508Y1688046D01*
X711639Y1688069D01*
X711770Y1688089D01*
X711902Y1688104D01*
X712034Y1688116D01*
X712166Y1688124D01*
X712299Y1688128D01*
X712431Y1688128D01*
X712564Y1688124D01*
X712696Y1688116D01*
X712828Y1688104D01*
X712960Y1688089D01*
X713091Y1688069D01*
X713222Y1688046D01*
X713351Y1688019D01*
X713480Y1687988D01*
X713608Y1687953D01*
X713735Y1687915D01*
X713861Y1687873D01*
X713985Y1687827D01*
X714108Y1687778D01*
X714230Y1687725D01*
X714350Y1687668D01*
X714468Y1687608D01*
X714585Y1687545D01*
X714699Y1687478D01*
X714812Y1687408D01*
X714922Y1687334D01*
X715030Y1687258D01*
X715136Y1687178D01*
X715240Y1687095D01*
X715341Y1687009D01*
X715439Y1686920D01*
X715535Y1686829D01*
X715628Y1686734D01*
X715718Y1686637D01*
X715805Y1686537D01*
X715890Y1686435D01*
X715971Y1686330D01*
X716049Y1686223D01*
X716125Y1686114D01*
X716196Y1686003D01*
X716265Y1685889D01*
X716330Y1685774D01*
X716392Y1685656D01*
X716450Y1685537D01*
X716505Y1685416D01*
X716556Y1685294D01*
X716604Y1685170D01*
X716648Y1685045D01*
X716688Y1684919D01*
X716724Y1684791D01*
X716757Y1684663D01*
X716786Y1684534D01*
X716811Y1684403D01*
X716832Y1684273D01*
X716850Y1684141D01*
X716863Y1684009D01*
X716873Y1683877D01*
X716879Y1683745D01*
X716881Y1683612D01*
X716880Y1683612D02*
X716880Y1676388D01*
X716881Y1676388D02*
X716879Y1676255D01*
X716873Y1676123D01*
X716863Y1675991D01*
X716850Y1675859D01*
X716832Y1675727D01*
X716811Y1675597D01*
X716786Y1675466D01*
X716757Y1675337D01*
X716724Y1675209D01*
X716688Y1675081D01*
X716648Y1674955D01*
X716604Y1674830D01*
X716556Y1674706D01*
X716505Y1674584D01*
X716450Y1674463D01*
X716392Y1674344D01*
X716330Y1674226D01*
X716265Y1674111D01*
X716196Y1673997D01*
X716125Y1673886D01*
X716049Y1673777D01*
X715971Y1673670D01*
X715890Y1673565D01*
X715805Y1673463D01*
X715718Y1673363D01*
X715628Y1673266D01*
X715535Y1673171D01*
X715439Y1673080D01*
X715341Y1672991D01*
X715240Y1672905D01*
X715136Y1672822D01*
X715030Y1672742D01*
X714922Y1672666D01*
X714812Y1672592D01*
X714699Y1672522D01*
X714585Y1672455D01*
X714468Y1672392D01*
X714350Y1672332D01*
X714230Y1672275D01*
X714108Y1672222D01*
X713985Y1672173D01*
X713861Y1672127D01*
X713735Y1672085D01*
X713608Y1672047D01*
X713480Y1672012D01*
X713351Y1671981D01*
X713222Y1671954D01*
X713091Y1671931D01*
X712960Y1671911D01*
X712828Y1671896D01*
X712696Y1671884D01*
X712564Y1671876D01*
X712431Y1671872D01*
X712299Y1671872D01*
X712166Y1671876D01*
X712034Y1671884D01*
X711902Y1671896D01*
X711770Y1671911D01*
X711639Y1671931D01*
X711508Y1671954D01*
X711379Y1671981D01*
X711250Y1672012D01*
X711122Y1672047D01*
X710995Y1672085D01*
X710869Y1672127D01*
X710745Y1672173D01*
X710622Y1672222D01*
X710500Y1672275D01*
X710380Y1672332D01*
X710262Y1672392D01*
X710145Y1672455D01*
X710031Y1672522D01*
X709918Y1672592D01*
X709808Y1672666D01*
X709700Y1672742D01*
X709594Y1672822D01*
X709490Y1672905D01*
X709389Y1672991D01*
X709291Y1673080D01*
X709195Y1673171D01*
X709102Y1673266D01*
X709012Y1673363D01*
X708925Y1673463D01*
X708840Y1673565D01*
X708759Y1673670D01*
X708681Y1673777D01*
X708605Y1673886D01*
X708534Y1673997D01*
X708465Y1674111D01*
X708400Y1674226D01*
X708338Y1674344D01*
X708280Y1674463D01*
X708225Y1674584D01*
X708174Y1674706D01*
X708126Y1674830D01*
X708082Y1674955D01*
X708042Y1675081D01*
X708006Y1675209D01*
X707973Y1675337D01*
X707944Y1675466D01*
X707919Y1675597D01*
X707898Y1675727D01*
X707880Y1675859D01*
X707867Y1675991D01*
X707857Y1676123D01*
X707851Y1676255D01*
X707849Y1676388D01*
X723619Y1678194D02*
X734457Y1678194D01*
X729038Y1683612D02*
X729038Y1672775D01*
X741928Y1671872D02*
X741928Y1688128D01*
X746443Y1688128D01*
X746576Y1688126D01*
X746708Y1688120D01*
X746840Y1688110D01*
X746972Y1688097D01*
X747104Y1688079D01*
X747234Y1688058D01*
X747365Y1688033D01*
X747494Y1688004D01*
X747622Y1687971D01*
X747750Y1687935D01*
X747876Y1687895D01*
X748001Y1687851D01*
X748125Y1687803D01*
X748247Y1687752D01*
X748368Y1687697D01*
X748487Y1687639D01*
X748605Y1687577D01*
X748720Y1687512D01*
X748834Y1687443D01*
X748945Y1687372D01*
X749054Y1687296D01*
X749161Y1687218D01*
X749266Y1687137D01*
X749368Y1687052D01*
X749468Y1686965D01*
X749565Y1686875D01*
X749660Y1686782D01*
X749751Y1686686D01*
X749840Y1686588D01*
X749926Y1686487D01*
X750009Y1686383D01*
X750089Y1686277D01*
X750165Y1686169D01*
X750239Y1686059D01*
X750309Y1685946D01*
X750376Y1685832D01*
X750439Y1685715D01*
X750499Y1685597D01*
X750556Y1685477D01*
X750609Y1685355D01*
X750658Y1685232D01*
X750704Y1685108D01*
X750746Y1684982D01*
X750784Y1684855D01*
X750819Y1684727D01*
X750850Y1684598D01*
X750877Y1684469D01*
X750900Y1684338D01*
X750920Y1684207D01*
X750935Y1684075D01*
X750947Y1683943D01*
X750955Y1683811D01*
X750959Y1683678D01*
X750959Y1683546D01*
X750955Y1683413D01*
X750947Y1683281D01*
X750935Y1683149D01*
X750920Y1683017D01*
X750900Y1682886D01*
X750877Y1682755D01*
X750850Y1682626D01*
X750819Y1682497D01*
X750784Y1682369D01*
X750746Y1682242D01*
X750704Y1682116D01*
X750658Y1681992D01*
X750609Y1681869D01*
X750556Y1681747D01*
X750499Y1681627D01*
X750439Y1681509D01*
X750376Y1681392D01*
X750309Y1681278D01*
X750239Y1681165D01*
X750165Y1681055D01*
X750089Y1680947D01*
X750009Y1680841D01*
X749926Y1680737D01*
X749840Y1680636D01*
X749751Y1680538D01*
X749660Y1680442D01*
X749565Y1680349D01*
X749468Y1680259D01*
X749368Y1680172D01*
X749266Y1680087D01*
X749161Y1680006D01*
X749054Y1679928D01*
X748945Y1679852D01*
X748834Y1679781D01*
X748720Y1679712D01*
X748605Y1679647D01*
X748487Y1679585D01*
X748368Y1679527D01*
X748247Y1679472D01*
X748125Y1679421D01*
X748001Y1679373D01*
X747876Y1679329D01*
X747750Y1679289D01*
X747622Y1679253D01*
X747494Y1679220D01*
X747365Y1679191D01*
X747234Y1679166D01*
X747104Y1679145D01*
X746972Y1679127D01*
X746840Y1679114D01*
X746708Y1679104D01*
X746576Y1679098D01*
X746443Y1679096D01*
X746443Y1679097D02*
X741928Y1679097D01*
X755924Y1671872D02*
X761343Y1688128D01*
X766761Y1671872D01*
X765407Y1675936D02*
X757279Y1675936D01*
X777425Y1688128D02*
X777550Y1688126D01*
X777675Y1688120D01*
X777800Y1688111D01*
X777924Y1688097D01*
X778048Y1688080D01*
X778172Y1688059D01*
X778294Y1688034D01*
X778416Y1688005D01*
X778537Y1687973D01*
X778657Y1687937D01*
X778776Y1687897D01*
X778893Y1687854D01*
X779009Y1687807D01*
X779124Y1687756D01*
X779236Y1687702D01*
X779348Y1687644D01*
X779457Y1687584D01*
X779564Y1687519D01*
X779670Y1687452D01*
X779773Y1687381D01*
X779874Y1687307D01*
X779973Y1687230D01*
X780069Y1687150D01*
X780163Y1687067D01*
X780254Y1686982D01*
X780343Y1686893D01*
X780428Y1686802D01*
X780511Y1686708D01*
X780591Y1686612D01*
X780668Y1686513D01*
X780742Y1686412D01*
X780813Y1686309D01*
X780880Y1686203D01*
X780945Y1686096D01*
X781005Y1685987D01*
X781063Y1685875D01*
X781117Y1685763D01*
X781168Y1685648D01*
X781215Y1685532D01*
X781258Y1685415D01*
X781298Y1685296D01*
X781334Y1685176D01*
X781366Y1685055D01*
X781395Y1684933D01*
X781420Y1684811D01*
X781441Y1684687D01*
X781458Y1684563D01*
X781472Y1684439D01*
X781481Y1684314D01*
X781487Y1684189D01*
X781489Y1684064D01*
X777425Y1688128D02*
X777282Y1688126D01*
X777140Y1688120D01*
X776997Y1688110D01*
X776855Y1688097D01*
X776714Y1688079D01*
X776572Y1688058D01*
X776432Y1688033D01*
X776292Y1688004D01*
X776153Y1687971D01*
X776015Y1687934D01*
X775878Y1687894D01*
X775743Y1687850D01*
X775608Y1687802D01*
X775475Y1687750D01*
X775343Y1687695D01*
X775213Y1687636D01*
X775085Y1687574D01*
X774958Y1687508D01*
X774833Y1687439D01*
X774710Y1687367D01*
X774590Y1687291D01*
X774471Y1687212D01*
X774354Y1687129D01*
X774240Y1687044D01*
X774128Y1686955D01*
X774019Y1686864D01*
X773912Y1686769D01*
X773807Y1686672D01*
X773706Y1686571D01*
X773607Y1686468D01*
X773511Y1686363D01*
X773418Y1686254D01*
X773328Y1686143D01*
X773241Y1686030D01*
X773157Y1685915D01*
X773077Y1685797D01*
X772999Y1685677D01*
X772925Y1685555D01*
X772855Y1685431D01*
X772787Y1685305D01*
X772724Y1685177D01*
X772663Y1685048D01*
X772606Y1684917D01*
X772553Y1684785D01*
X772504Y1684651D01*
X772458Y1684516D01*
X780134Y1680903D02*
X780228Y1680995D01*
X780318Y1681089D01*
X780406Y1681186D01*
X780491Y1681286D01*
X780573Y1681388D01*
X780652Y1681493D01*
X780727Y1681600D01*
X780799Y1681709D01*
X780868Y1681820D01*
X780934Y1681934D01*
X780996Y1682049D01*
X781055Y1682166D01*
X781110Y1682285D01*
X781161Y1682405D01*
X781209Y1682527D01*
X781254Y1682650D01*
X781294Y1682774D01*
X781331Y1682900D01*
X781364Y1683027D01*
X781393Y1683154D01*
X781419Y1683283D01*
X781440Y1683412D01*
X781458Y1683542D01*
X781471Y1683672D01*
X781481Y1683802D01*
X781487Y1683933D01*
X781489Y1684064D01*
X780135Y1680903D02*
X772458Y1671872D01*
X781489Y1671872D01*
D11*
X862900Y641600D03*
X888300Y641600D03*
D12*
X913700Y645000D03*
X939100Y645000D03*
X964500Y645000D03*
X989900Y645000D03*
X1015300Y645000D03*
X1040700Y645000D03*
D11*
X1066100Y641600D03*
X1091500Y641600D03*
X1091500Y692400D03*
X1066100Y692400D03*
D12*
X1040700Y689000D03*
X1015300Y689000D03*
X989900Y689000D03*
X964500Y689000D03*
X939100Y689000D03*
X913700Y689000D03*
D11*
X888300Y692400D03*
X862900Y692400D03*
X440100Y188400D03*
X414700Y188400D03*
D12*
X389300Y185000D03*
X363900Y185000D03*
X338500Y185000D03*
X313100Y185000D03*
X287700Y185000D03*
X262300Y185000D03*
D11*
X236900Y188400D03*
X211500Y188400D03*
X211500Y137600D03*
X236900Y137600D03*
D12*
X262300Y141000D03*
X287700Y141000D03*
X313100Y141000D03*
X338500Y141000D03*
X363900Y141000D03*
X389300Y141000D03*
D11*
X414700Y137600D03*
X440100Y137600D03*
D13*
X290836Y527046D02*
X275336Y527046D01*
X275336Y530546D01*
X290836Y530546D01*
X290836Y527046D01*
X290836Y530371D02*
X275336Y530371D01*
X143536Y537206D02*
X128036Y537206D01*
X128036Y540706D01*
X143536Y540706D01*
X143536Y537206D01*
X143536Y540531D02*
X128036Y540531D01*
X128036Y547366D02*
X143536Y547366D01*
X128036Y547366D02*
X128036Y550866D01*
X143536Y550866D01*
X143536Y547366D01*
X143536Y550691D02*
X128036Y550691D01*
X128036Y557526D02*
X143536Y557526D01*
X128036Y557526D02*
X128036Y561026D01*
X143536Y561026D01*
X143536Y557526D01*
X143536Y560851D02*
X128036Y560851D01*
X128036Y567686D02*
X143536Y567686D01*
X128036Y567686D02*
X128036Y571186D01*
X143536Y571186D01*
X143536Y567686D01*
X143536Y571011D02*
X128036Y571011D01*
X128036Y577846D02*
X143536Y577846D01*
X128036Y577846D02*
X128036Y581346D01*
X143536Y581346D01*
X143536Y577846D01*
X143536Y581171D02*
X128036Y581171D01*
X128036Y588006D02*
X143536Y588006D01*
X128036Y588006D02*
X128036Y591506D01*
X143536Y591506D01*
X143536Y588006D01*
X143536Y591331D02*
X128036Y591331D01*
X128036Y598166D02*
X143536Y598166D01*
X128036Y598166D02*
X128036Y601666D01*
X143536Y601666D01*
X143536Y598166D01*
X143536Y601491D02*
X128036Y601491D01*
X128036Y608326D02*
X143536Y608326D01*
X128036Y608326D02*
X128036Y611826D01*
X143536Y611826D01*
X143536Y608326D01*
X143536Y611651D02*
X128036Y611651D01*
X128036Y618486D02*
X143536Y618486D01*
X128036Y618486D02*
X128036Y621986D01*
X143536Y621986D01*
X143536Y618486D01*
X143536Y621811D02*
X128036Y621811D01*
X128036Y628646D02*
X143536Y628646D01*
X128036Y628646D02*
X128036Y632146D01*
X143536Y632146D01*
X143536Y628646D01*
X143536Y631971D02*
X128036Y631971D01*
X275336Y537206D02*
X290836Y537206D01*
X275336Y537206D02*
X275336Y540706D01*
X290836Y540706D01*
X290836Y537206D01*
X290836Y540531D02*
X275336Y540531D01*
X275336Y547366D02*
X290836Y547366D01*
X275336Y547366D02*
X275336Y550866D01*
X290836Y550866D01*
X290836Y547366D01*
X290836Y550691D02*
X275336Y550691D01*
X275336Y557526D02*
X290836Y557526D01*
X275336Y557526D02*
X275336Y561026D01*
X290836Y561026D01*
X290836Y557526D01*
X290836Y560851D02*
X275336Y560851D01*
X275336Y598166D02*
X290836Y598166D01*
X275336Y598166D02*
X275336Y601666D01*
X290836Y601666D01*
X290836Y598166D01*
X290836Y601491D02*
X275336Y601491D01*
X275336Y618486D02*
X290836Y618486D01*
X275336Y618486D02*
X275336Y621986D01*
X290836Y621986D01*
X290836Y618486D01*
X290836Y621811D02*
X275336Y621811D01*
X275336Y628646D02*
X290836Y628646D01*
X275336Y628646D02*
X275336Y632146D01*
X290836Y632146D01*
X290836Y628646D01*
X290836Y631971D02*
X275336Y631971D01*
X275336Y638806D02*
X290836Y638806D01*
X275336Y638806D02*
X275336Y642306D01*
X290836Y642306D01*
X290836Y638806D01*
X290836Y642131D02*
X275336Y642131D01*
X275336Y648966D02*
X290836Y648966D01*
X275336Y648966D02*
X275336Y652466D01*
X290836Y652466D01*
X290836Y648966D01*
X290836Y652291D02*
X275336Y652291D01*
X156536Y509846D02*
X156536Y494346D01*
X153036Y494346D01*
X153036Y509846D01*
X156536Y509846D01*
X156536Y497671D02*
X153036Y497671D01*
X153036Y500996D02*
X156536Y500996D01*
X156536Y504321D02*
X153036Y504321D01*
X153036Y507646D02*
X156536Y507646D01*
X187016Y509846D02*
X187016Y494346D01*
X183516Y494346D01*
X183516Y509846D01*
X187016Y509846D01*
X187016Y497671D02*
X183516Y497671D01*
X183516Y500996D02*
X187016Y500996D01*
X187016Y504321D02*
X183516Y504321D01*
X183516Y507646D02*
X187016Y507646D01*
X197176Y509846D02*
X197176Y494346D01*
X193676Y494346D01*
X193676Y509846D01*
X197176Y509846D01*
X197176Y497671D02*
X193676Y497671D01*
X193676Y500996D02*
X197176Y500996D01*
X197176Y504321D02*
X193676Y504321D01*
X193676Y507646D02*
X197176Y507646D01*
X207336Y509846D02*
X207336Y494346D01*
X203836Y494346D01*
X203836Y509846D01*
X207336Y509846D01*
X207336Y497671D02*
X203836Y497671D01*
X203836Y500996D02*
X207336Y500996D01*
X207336Y504321D02*
X203836Y504321D01*
X203836Y507646D02*
X207336Y507646D01*
X217496Y509846D02*
X217496Y494346D01*
X213996Y494346D01*
X213996Y509846D01*
X217496Y509846D01*
X217496Y497671D02*
X213996Y497671D01*
X213996Y500996D02*
X217496Y500996D01*
X217496Y504321D02*
X213996Y504321D01*
X213996Y507646D02*
X217496Y507646D01*
X227656Y509846D02*
X227656Y494346D01*
X224156Y494346D01*
X224156Y509846D01*
X227656Y509846D01*
X227656Y497671D02*
X224156Y497671D01*
X224156Y500996D02*
X227656Y500996D01*
X227656Y504321D02*
X224156Y504321D01*
X224156Y507646D02*
X227656Y507646D01*
X237816Y509846D02*
X237816Y494346D01*
X234316Y494346D01*
X234316Y509846D01*
X237816Y509846D01*
X237816Y497671D02*
X234316Y497671D01*
X234316Y500996D02*
X237816Y500996D01*
X237816Y504321D02*
X234316Y504321D01*
X234316Y507646D02*
X237816Y507646D01*
X247976Y509846D02*
X247976Y494346D01*
X244476Y494346D01*
X244476Y509846D01*
X247976Y509846D01*
X247976Y497671D02*
X244476Y497671D01*
X244476Y500996D02*
X247976Y500996D01*
X247976Y504321D02*
X244476Y504321D01*
X244476Y507646D02*
X247976Y507646D01*
X258136Y509846D02*
X258136Y494346D01*
X254636Y494346D01*
X254636Y509846D01*
X258136Y509846D01*
X258136Y497671D02*
X254636Y497671D01*
X254636Y500996D02*
X258136Y500996D01*
X258136Y504321D02*
X254636Y504321D01*
X254636Y507646D02*
X258136Y507646D01*
D14*
X204586Y564796D03*
D15*
X364512Y453260D03*
X379512Y453260D03*
X394512Y453260D03*
X409512Y453260D03*
X424512Y453260D03*
X439512Y453260D03*
X454512Y453260D03*
X469512Y453260D03*
X484512Y453260D03*
X499512Y453260D03*
X499512Y613260D03*
X484512Y613260D03*
X469512Y613260D03*
X454512Y613260D03*
X439512Y613260D03*
X424512Y613260D03*
X409512Y613260D03*
X394512Y613260D03*
X379512Y613260D03*
X364512Y613260D03*
D16*
X335256Y497577D02*
X335256Y487395D01*
X335256Y497577D02*
X338912Y497577D01*
X338912Y487395D01*
X335256Y487395D01*
X335256Y489710D02*
X338912Y489710D01*
X338912Y492025D02*
X335256Y492025D01*
X335256Y494340D02*
X338912Y494340D01*
X338912Y496655D02*
X335256Y496655D01*
X325756Y497577D02*
X325756Y487395D01*
X325756Y497577D02*
X329412Y497577D01*
X329412Y487395D01*
X325756Y487395D01*
X325756Y489710D02*
X329412Y489710D01*
X329412Y492025D02*
X325756Y492025D01*
X325756Y494340D02*
X329412Y494340D01*
X329412Y496655D02*
X325756Y496655D01*
X316256Y497577D02*
X316256Y487395D01*
X316256Y497577D02*
X319912Y497577D01*
X319912Y487395D01*
X316256Y487395D01*
X316256Y489710D02*
X319912Y489710D01*
X319912Y492025D02*
X316256Y492025D01*
X316256Y494340D02*
X319912Y494340D01*
X319912Y496655D02*
X316256Y496655D01*
X316256Y474077D02*
X316256Y463895D01*
X316256Y474077D02*
X319912Y474077D01*
X319912Y463895D01*
X316256Y463895D01*
X316256Y466210D02*
X319912Y466210D01*
X319912Y468525D02*
X316256Y468525D01*
X316256Y470840D02*
X319912Y470840D01*
X319912Y473155D02*
X316256Y473155D01*
X335256Y474077D02*
X335256Y463895D01*
X335256Y474077D02*
X338912Y474077D01*
X338912Y463895D01*
X335256Y463895D01*
X335256Y466210D02*
X338912Y466210D01*
X338912Y468525D02*
X335256Y468525D01*
X335256Y470840D02*
X338912Y470840D01*
X338912Y473155D02*
X335256Y473155D01*
X187777Y462768D02*
X177595Y462768D01*
X177595Y466424D01*
X187777Y466424D01*
X187777Y462768D01*
X187777Y465083D02*
X177595Y465083D01*
X177595Y453268D02*
X187777Y453268D01*
X177595Y453268D02*
X177595Y456924D01*
X187777Y456924D01*
X187777Y453268D01*
X187777Y455583D02*
X177595Y455583D01*
X177595Y443768D02*
X187777Y443768D01*
X177595Y443768D02*
X177595Y447424D01*
X187777Y447424D01*
X187777Y443768D01*
X187777Y446083D02*
X177595Y446083D01*
X201095Y443768D02*
X211277Y443768D01*
X201095Y443768D02*
X201095Y447424D01*
X211277Y447424D01*
X211277Y443768D01*
X211277Y446083D02*
X201095Y446083D01*
X201095Y462768D02*
X211277Y462768D01*
X201095Y462768D02*
X201095Y466424D01*
X211277Y466424D01*
X211277Y462768D01*
X211277Y465083D02*
X201095Y465083D01*
D17*
X225686Y469096D03*
X253186Y469096D03*
X337334Y451736D03*
X309834Y451736D03*
D18*
X221686Y441096D03*
X239186Y441096D03*
X304334Y468736D03*
X286834Y468736D03*
X221686Y454096D03*
X239186Y454096D03*
X337334Y436736D03*
X319834Y436736D03*
D19*
X773750Y528348D03*
X773750Y579212D03*
X786450Y528348D03*
X799150Y528348D03*
X786450Y579212D03*
X799150Y579212D03*
X811850Y528348D03*
X811850Y579212D03*
D20*
X737310Y477580D03*
X754310Y477580D03*
X737310Y513140D03*
X754310Y513140D03*
D21*
X765225Y506175D02*
X777375Y506175D01*
X765225Y506175D02*
X765225Y509125D01*
X777375Y509125D01*
X777375Y506175D01*
X777375Y508045D02*
X765225Y508045D01*
X765225Y499675D02*
X777375Y499675D01*
X765225Y499675D02*
X765225Y502625D01*
X777375Y502625D01*
X777375Y499675D01*
X777375Y501545D02*
X765225Y501545D01*
X765225Y493175D02*
X777375Y493175D01*
X765225Y493175D02*
X765225Y496125D01*
X777375Y496125D01*
X777375Y493175D01*
X777375Y495045D02*
X765225Y495045D01*
X765225Y486675D02*
X777375Y486675D01*
X765225Y486675D02*
X765225Y489625D01*
X777375Y489625D01*
X777375Y486675D01*
X777375Y488545D02*
X765225Y488545D01*
X808225Y486675D02*
X820375Y486675D01*
X808225Y486675D02*
X808225Y489625D01*
X820375Y489625D01*
X820375Y486675D01*
X820375Y488545D02*
X808225Y488545D01*
X808225Y493175D02*
X820375Y493175D01*
X808225Y493175D02*
X808225Y496125D01*
X820375Y496125D01*
X820375Y493175D01*
X820375Y495045D02*
X808225Y495045D01*
X808225Y499675D02*
X820375Y499675D01*
X808225Y499675D02*
X808225Y502625D01*
X820375Y502625D01*
X820375Y499675D01*
X820375Y501545D02*
X808225Y501545D01*
X808225Y506175D02*
X820375Y506175D01*
X808225Y506175D02*
X808225Y509125D01*
X820375Y509125D01*
X820375Y506175D01*
X820375Y508045D02*
X808225Y508045D01*
D20*
X837640Y487740D03*
X854640Y487740D03*
X754310Y579180D03*
X737310Y579180D03*
X837640Y584260D03*
X854640Y584260D03*
X854640Y529650D03*
X837640Y529650D03*
D22*
X876620Y548310D03*
X876620Y531310D03*
D16*
X669692Y574667D02*
X669692Y584849D01*
X673348Y584849D01*
X673348Y574667D01*
X669692Y574667D01*
X669692Y576982D02*
X673348Y576982D01*
X673348Y579297D02*
X669692Y579297D01*
X669692Y581612D02*
X673348Y581612D01*
X673348Y583927D02*
X669692Y583927D01*
X660192Y584849D02*
X660192Y574667D01*
X660192Y584849D02*
X663848Y584849D01*
X663848Y574667D01*
X660192Y574667D01*
X660192Y576982D02*
X663848Y576982D01*
X663848Y579297D02*
X660192Y579297D01*
X660192Y581612D02*
X663848Y581612D01*
X663848Y583927D02*
X660192Y583927D01*
X650692Y584849D02*
X650692Y574667D01*
X650692Y584849D02*
X654348Y584849D01*
X654348Y574667D01*
X650692Y574667D01*
X650692Y576982D02*
X654348Y576982D01*
X654348Y579297D02*
X650692Y579297D01*
X650692Y581612D02*
X654348Y581612D01*
X654348Y583927D02*
X650692Y583927D01*
X650692Y561349D02*
X650692Y551167D01*
X650692Y561349D02*
X654348Y561349D01*
X654348Y551167D01*
X650692Y551167D01*
X650692Y553482D02*
X654348Y553482D01*
X654348Y555797D02*
X650692Y555797D01*
X650692Y558112D02*
X654348Y558112D01*
X654348Y560427D02*
X650692Y560427D01*
X669692Y561349D02*
X669692Y551167D01*
X669692Y561349D02*
X673348Y561349D01*
X673348Y551167D01*
X669692Y551167D01*
X669692Y553482D02*
X673348Y553482D01*
X673348Y555797D02*
X669692Y555797D01*
X669692Y558112D02*
X673348Y558112D01*
X673348Y560427D02*
X669692Y560427D01*
D17*
X680094Y539984D03*
X707594Y539984D03*
D18*
X652346Y540364D03*
X634846Y540364D03*
X676078Y523636D03*
X693578Y523636D03*
D23*
X401436Y789176D03*
X341436Y789176D03*
D24*
X371436Y775626D03*
X381436Y775626D03*
X361436Y775626D03*
D20*
X632560Y594816D03*
X649560Y594816D03*
D25*
X567298Y673833D03*
X592190Y673833D03*
D26*
X573394Y637257D03*
X560694Y637257D03*
X586094Y637257D03*
X598794Y637257D03*
D25*
X693686Y673833D03*
X718578Y673833D03*
D26*
X699782Y637257D03*
X687082Y637257D03*
X712482Y637257D03*
X725182Y637257D03*
D27*
X757760Y735000D03*
X737760Y735000D03*
D28*
X781760Y757500D03*
X713760Y757500D03*
D27*
X561500Y735000D03*
X541500Y735000D03*
D28*
X585500Y757500D03*
X517500Y757500D03*
D29*
X246916Y337352D02*
X246916Y335552D01*
X246916Y337352D02*
X255716Y337352D01*
X255716Y335552D01*
X246916Y335552D01*
X246916Y336692D02*
X255716Y336692D01*
X246916Y332352D02*
X246916Y330552D01*
X246916Y332352D02*
X255716Y332352D01*
X255716Y330552D01*
X246916Y330552D01*
X246916Y331692D02*
X255716Y331692D01*
X246916Y340552D02*
X246916Y342352D01*
X255716Y342352D01*
X255716Y340552D01*
X246916Y340552D01*
X246916Y341692D02*
X255716Y341692D01*
X246916Y345552D02*
X246916Y347352D01*
X255716Y347352D01*
X255716Y345552D01*
X246916Y345552D01*
X246916Y346692D02*
X255716Y346692D01*
X246916Y350552D02*
X246916Y352352D01*
X255716Y352352D01*
X255716Y350552D01*
X246916Y350552D01*
X246916Y351692D02*
X255716Y351692D01*
X246916Y355552D02*
X246916Y357352D01*
X255716Y357352D01*
X255716Y355552D01*
X246916Y355552D01*
X246916Y356692D02*
X255716Y356692D01*
X246916Y360552D02*
X246916Y362352D01*
X255716Y362352D01*
X255716Y360552D01*
X246916Y360552D01*
X246916Y361692D02*
X255716Y361692D01*
X246916Y365552D02*
X246916Y367352D01*
X255716Y367352D01*
X255716Y365552D01*
X246916Y365552D01*
X246916Y366692D02*
X255716Y366692D01*
D30*
X251316Y371452D03*
D29*
X246916Y327352D02*
X246916Y325552D01*
X246916Y327352D02*
X255716Y327352D01*
X255716Y325552D01*
X246916Y325552D01*
X246916Y326692D02*
X255716Y326692D01*
X246916Y322352D02*
X246916Y320552D01*
X246916Y322352D02*
X255716Y322352D01*
X255716Y320552D01*
X246916Y320552D01*
X246916Y321692D02*
X255716Y321692D01*
X246916Y317352D02*
X246916Y315552D01*
X246916Y317352D02*
X255716Y317352D01*
X255716Y315552D01*
X246916Y315552D01*
X246916Y316692D02*
X255716Y316692D01*
X246916Y312352D02*
X246916Y310552D01*
X246916Y312352D02*
X255716Y312352D01*
X255716Y310552D01*
X246916Y310552D01*
X246916Y311692D02*
X255716Y311692D01*
X246916Y307352D02*
X246916Y305552D01*
X246916Y307352D02*
X255716Y307352D01*
X255716Y305552D01*
X246916Y305552D01*
X246916Y306692D02*
X255716Y306692D01*
X246916Y302352D02*
X246916Y300552D01*
X246916Y302352D02*
X255716Y302352D01*
X255716Y300552D01*
X246916Y300552D01*
X246916Y301692D02*
X255716Y301692D01*
X246916Y297352D02*
X246916Y295552D01*
X246916Y297352D02*
X255716Y297352D01*
X255716Y295552D01*
X246916Y295552D01*
X246916Y296692D02*
X255716Y296692D01*
D31*
X224316Y273452D03*
X224316Y394452D03*
D29*
X349024Y337352D02*
X349024Y335552D01*
X349024Y337352D02*
X357824Y337352D01*
X357824Y335552D01*
X349024Y335552D01*
X349024Y336692D02*
X357824Y336692D01*
X349024Y332352D02*
X349024Y330552D01*
X349024Y332352D02*
X357824Y332352D01*
X357824Y330552D01*
X349024Y330552D01*
X349024Y331692D02*
X357824Y331692D01*
X349024Y340552D02*
X349024Y342352D01*
X357824Y342352D01*
X357824Y340552D01*
X349024Y340552D01*
X349024Y341692D02*
X357824Y341692D01*
X349024Y345552D02*
X349024Y347352D01*
X357824Y347352D01*
X357824Y345552D01*
X349024Y345552D01*
X349024Y346692D02*
X357824Y346692D01*
X349024Y350552D02*
X349024Y352352D01*
X357824Y352352D01*
X357824Y350552D01*
X349024Y350552D01*
X349024Y351692D02*
X357824Y351692D01*
X349024Y355552D02*
X349024Y357352D01*
X357824Y357352D01*
X357824Y355552D01*
X349024Y355552D01*
X349024Y356692D02*
X357824Y356692D01*
X349024Y360552D02*
X349024Y362352D01*
X357824Y362352D01*
X357824Y360552D01*
X349024Y360552D01*
X349024Y361692D02*
X357824Y361692D01*
X349024Y365552D02*
X349024Y367352D01*
X357824Y367352D01*
X357824Y365552D01*
X349024Y365552D01*
X349024Y366692D02*
X357824Y366692D01*
D30*
X353424Y371452D03*
D29*
X349024Y327352D02*
X349024Y325552D01*
X349024Y327352D02*
X357824Y327352D01*
X357824Y325552D01*
X349024Y325552D01*
X349024Y326692D02*
X357824Y326692D01*
X349024Y322352D02*
X349024Y320552D01*
X349024Y322352D02*
X357824Y322352D01*
X357824Y320552D01*
X349024Y320552D01*
X349024Y321692D02*
X357824Y321692D01*
X349024Y317352D02*
X349024Y315552D01*
X349024Y317352D02*
X357824Y317352D01*
X357824Y315552D01*
X349024Y315552D01*
X349024Y316692D02*
X357824Y316692D01*
X349024Y312352D02*
X349024Y310552D01*
X349024Y312352D02*
X357824Y312352D01*
X357824Y310552D01*
X349024Y310552D01*
X349024Y311692D02*
X357824Y311692D01*
X349024Y307352D02*
X349024Y305552D01*
X349024Y307352D02*
X357824Y307352D01*
X357824Y305552D01*
X349024Y305552D01*
X349024Y306692D02*
X357824Y306692D01*
X349024Y302352D02*
X349024Y300552D01*
X349024Y302352D02*
X357824Y302352D01*
X357824Y300552D01*
X349024Y300552D01*
X349024Y301692D02*
X357824Y301692D01*
X349024Y297352D02*
X349024Y295552D01*
X349024Y297352D02*
X357824Y297352D01*
X357824Y295552D01*
X349024Y295552D01*
X349024Y296692D02*
X357824Y296692D01*
D31*
X326424Y273452D03*
X326424Y394452D03*
D32*
X664350Y284700D03*
X677050Y284700D03*
X689750Y284700D03*
X702450Y284700D03*
X715150Y284700D03*
X727850Y284700D03*
X740550Y284700D03*
X753250Y284700D03*
X765950Y284700D03*
X778650Y284700D03*
X778650Y272000D03*
X765950Y272000D03*
X753250Y272000D03*
X740550Y272000D03*
X727850Y272000D03*
X715150Y272000D03*
X702450Y272000D03*
X689750Y272000D03*
X677050Y272000D03*
X664350Y272000D03*
D33*
X639400Y227500D03*
X803600Y227500D03*
X803600Y276500D03*
X639400Y276500D03*
D34*
X832250Y560000D03*
X832250Y556000D03*
X832250Y552000D03*
X832250Y548000D03*
X832250Y544000D03*
X856750Y544000D03*
X856750Y548000D03*
X856750Y552000D03*
X856750Y556000D03*
X856750Y560000D03*
D35*
X844500Y552000D03*
D36*
X553250Y598000D03*
X523750Y598000D03*
D37*
X538500Y613250D03*
D38*
X319000Y530000D03*
X338000Y530000D03*
D20*
X268000Y407000D03*
X251000Y407000D03*
X364000Y417000D03*
X347000Y417000D03*
X1028000Y582000D03*
X1045000Y582000D03*
X308000Y229000D03*
X325000Y229000D03*
X277000Y229000D03*
X260000Y229000D03*
D39*
X151500Y135000D03*
X1151500Y685000D03*
X915500Y569000D03*
X276500Y427000D03*
D27*
X929500Y738000D03*
X909500Y738000D03*
D28*
X953500Y760500D03*
X885500Y760500D03*
D22*
X796500Y380500D03*
X796500Y397500D03*
D11*
X862900Y1441600D03*
X888300Y1441600D03*
D12*
X913700Y1445000D03*
X939100Y1445000D03*
X964500Y1445000D03*
X989900Y1445000D03*
X1015300Y1445000D03*
X1040700Y1445000D03*
D11*
X1066100Y1441600D03*
X1091500Y1441600D03*
X1091500Y1492400D03*
X1066100Y1492400D03*
D12*
X1040700Y1489000D03*
X1015300Y1489000D03*
X989900Y1489000D03*
X964500Y1489000D03*
X939100Y1489000D03*
X913700Y1489000D03*
D11*
X888300Y1492400D03*
X862900Y1492400D03*
X440100Y988400D03*
X414700Y988400D03*
D12*
X389300Y985000D03*
X363900Y985000D03*
X338500Y985000D03*
X313100Y985000D03*
X287700Y985000D03*
X262300Y985000D03*
D11*
X236900Y988400D03*
X211500Y988400D03*
X211500Y937600D03*
X236900Y937600D03*
D12*
X262300Y941000D03*
X287700Y941000D03*
X313100Y941000D03*
X338500Y941000D03*
X363900Y941000D03*
X389300Y941000D03*
D11*
X414700Y937600D03*
X440100Y937600D03*
D13*
X290836Y1327046D02*
X275336Y1327046D01*
X275336Y1330546D01*
X290836Y1330546D01*
X290836Y1327046D01*
X290836Y1330371D02*
X275336Y1330371D01*
X143536Y1337206D02*
X128036Y1337206D01*
X128036Y1340706D01*
X143536Y1340706D01*
X143536Y1337206D01*
X143536Y1340531D02*
X128036Y1340531D01*
X128036Y1347366D02*
X143536Y1347366D01*
X128036Y1347366D02*
X128036Y1350866D01*
X143536Y1350866D01*
X143536Y1347366D01*
X143536Y1350691D02*
X128036Y1350691D01*
X128036Y1357526D02*
X143536Y1357526D01*
X128036Y1357526D02*
X128036Y1361026D01*
X143536Y1361026D01*
X143536Y1357526D01*
X143536Y1360851D02*
X128036Y1360851D01*
X128036Y1367686D02*
X143536Y1367686D01*
X128036Y1367686D02*
X128036Y1371186D01*
X143536Y1371186D01*
X143536Y1367686D01*
X143536Y1371011D02*
X128036Y1371011D01*
X128036Y1377846D02*
X143536Y1377846D01*
X128036Y1377846D02*
X128036Y1381346D01*
X143536Y1381346D01*
X143536Y1377846D01*
X143536Y1381171D02*
X128036Y1381171D01*
X128036Y1388006D02*
X143536Y1388006D01*
X128036Y1388006D02*
X128036Y1391506D01*
X143536Y1391506D01*
X143536Y1388006D01*
X143536Y1391331D02*
X128036Y1391331D01*
X128036Y1398166D02*
X143536Y1398166D01*
X128036Y1398166D02*
X128036Y1401666D01*
X143536Y1401666D01*
X143536Y1398166D01*
X143536Y1401491D02*
X128036Y1401491D01*
X128036Y1408326D02*
X143536Y1408326D01*
X128036Y1408326D02*
X128036Y1411826D01*
X143536Y1411826D01*
X143536Y1408326D01*
X143536Y1411651D02*
X128036Y1411651D01*
X128036Y1418486D02*
X143536Y1418486D01*
X128036Y1418486D02*
X128036Y1421986D01*
X143536Y1421986D01*
X143536Y1418486D01*
X143536Y1421811D02*
X128036Y1421811D01*
X128036Y1428646D02*
X143536Y1428646D01*
X128036Y1428646D02*
X128036Y1432146D01*
X143536Y1432146D01*
X143536Y1428646D01*
X143536Y1431971D02*
X128036Y1431971D01*
X275336Y1337206D02*
X290836Y1337206D01*
X275336Y1337206D02*
X275336Y1340706D01*
X290836Y1340706D01*
X290836Y1337206D01*
X290836Y1340531D02*
X275336Y1340531D01*
X275336Y1347366D02*
X290836Y1347366D01*
X275336Y1347366D02*
X275336Y1350866D01*
X290836Y1350866D01*
X290836Y1347366D01*
X290836Y1350691D02*
X275336Y1350691D01*
X275336Y1357526D02*
X290836Y1357526D01*
X275336Y1357526D02*
X275336Y1361026D01*
X290836Y1361026D01*
X290836Y1357526D01*
X290836Y1360851D02*
X275336Y1360851D01*
X275336Y1398166D02*
X290836Y1398166D01*
X275336Y1398166D02*
X275336Y1401666D01*
X290836Y1401666D01*
X290836Y1398166D01*
X290836Y1401491D02*
X275336Y1401491D01*
X275336Y1418486D02*
X290836Y1418486D01*
X275336Y1418486D02*
X275336Y1421986D01*
X290836Y1421986D01*
X290836Y1418486D01*
X290836Y1421811D02*
X275336Y1421811D01*
X275336Y1428646D02*
X290836Y1428646D01*
X275336Y1428646D02*
X275336Y1432146D01*
X290836Y1432146D01*
X290836Y1428646D01*
X290836Y1431971D02*
X275336Y1431971D01*
X275336Y1438806D02*
X290836Y1438806D01*
X275336Y1438806D02*
X275336Y1442306D01*
X290836Y1442306D01*
X290836Y1438806D01*
X290836Y1442131D02*
X275336Y1442131D01*
X275336Y1448966D02*
X290836Y1448966D01*
X275336Y1448966D02*
X275336Y1452466D01*
X290836Y1452466D01*
X290836Y1448966D01*
X290836Y1452291D02*
X275336Y1452291D01*
X156536Y1309846D02*
X156536Y1294346D01*
X153036Y1294346D01*
X153036Y1309846D01*
X156536Y1309846D01*
X156536Y1297671D02*
X153036Y1297671D01*
X153036Y1300996D02*
X156536Y1300996D01*
X156536Y1304321D02*
X153036Y1304321D01*
X153036Y1307646D02*
X156536Y1307646D01*
X187016Y1309846D02*
X187016Y1294346D01*
X183516Y1294346D01*
X183516Y1309846D01*
X187016Y1309846D01*
X187016Y1297671D02*
X183516Y1297671D01*
X183516Y1300996D02*
X187016Y1300996D01*
X187016Y1304321D02*
X183516Y1304321D01*
X183516Y1307646D02*
X187016Y1307646D01*
X197176Y1309846D02*
X197176Y1294346D01*
X193676Y1294346D01*
X193676Y1309846D01*
X197176Y1309846D01*
X197176Y1297671D02*
X193676Y1297671D01*
X193676Y1300996D02*
X197176Y1300996D01*
X197176Y1304321D02*
X193676Y1304321D01*
X193676Y1307646D02*
X197176Y1307646D01*
X207336Y1309846D02*
X207336Y1294346D01*
X203836Y1294346D01*
X203836Y1309846D01*
X207336Y1309846D01*
X207336Y1297671D02*
X203836Y1297671D01*
X203836Y1300996D02*
X207336Y1300996D01*
X207336Y1304321D02*
X203836Y1304321D01*
X203836Y1307646D02*
X207336Y1307646D01*
X217496Y1309846D02*
X217496Y1294346D01*
X213996Y1294346D01*
X213996Y1309846D01*
X217496Y1309846D01*
X217496Y1297671D02*
X213996Y1297671D01*
X213996Y1300996D02*
X217496Y1300996D01*
X217496Y1304321D02*
X213996Y1304321D01*
X213996Y1307646D02*
X217496Y1307646D01*
X227656Y1309846D02*
X227656Y1294346D01*
X224156Y1294346D01*
X224156Y1309846D01*
X227656Y1309846D01*
X227656Y1297671D02*
X224156Y1297671D01*
X224156Y1300996D02*
X227656Y1300996D01*
X227656Y1304321D02*
X224156Y1304321D01*
X224156Y1307646D02*
X227656Y1307646D01*
X237816Y1309846D02*
X237816Y1294346D01*
X234316Y1294346D01*
X234316Y1309846D01*
X237816Y1309846D01*
X237816Y1297671D02*
X234316Y1297671D01*
X234316Y1300996D02*
X237816Y1300996D01*
X237816Y1304321D02*
X234316Y1304321D01*
X234316Y1307646D02*
X237816Y1307646D01*
X247976Y1309846D02*
X247976Y1294346D01*
X244476Y1294346D01*
X244476Y1309846D01*
X247976Y1309846D01*
X247976Y1297671D02*
X244476Y1297671D01*
X244476Y1300996D02*
X247976Y1300996D01*
X247976Y1304321D02*
X244476Y1304321D01*
X244476Y1307646D02*
X247976Y1307646D01*
X258136Y1309846D02*
X258136Y1294346D01*
X254636Y1294346D01*
X254636Y1309846D01*
X258136Y1309846D01*
X258136Y1297671D02*
X254636Y1297671D01*
X254636Y1300996D02*
X258136Y1300996D01*
X258136Y1304321D02*
X254636Y1304321D01*
X254636Y1307646D02*
X258136Y1307646D01*
D14*
X204586Y1364796D03*
D15*
X364512Y1253260D03*
X379512Y1253260D03*
X394512Y1253260D03*
X409512Y1253260D03*
X424512Y1253260D03*
X439512Y1253260D03*
X454512Y1253260D03*
X469512Y1253260D03*
X484512Y1253260D03*
X499512Y1253260D03*
X499512Y1413260D03*
X484512Y1413260D03*
X469512Y1413260D03*
X454512Y1413260D03*
X439512Y1413260D03*
X424512Y1413260D03*
X409512Y1413260D03*
X394512Y1413260D03*
X379512Y1413260D03*
X364512Y1413260D03*
D16*
X335256Y1297577D02*
X335256Y1287395D01*
X335256Y1297577D02*
X338912Y1297577D01*
X338912Y1287395D01*
X335256Y1287395D01*
X335256Y1289710D02*
X338912Y1289710D01*
X338912Y1292025D02*
X335256Y1292025D01*
X335256Y1294340D02*
X338912Y1294340D01*
X338912Y1296655D02*
X335256Y1296655D01*
X325756Y1297577D02*
X325756Y1287395D01*
X325756Y1297577D02*
X329412Y1297577D01*
X329412Y1287395D01*
X325756Y1287395D01*
X325756Y1289710D02*
X329412Y1289710D01*
X329412Y1292025D02*
X325756Y1292025D01*
X325756Y1294340D02*
X329412Y1294340D01*
X329412Y1296655D02*
X325756Y1296655D01*
X316256Y1297577D02*
X316256Y1287395D01*
X316256Y1297577D02*
X319912Y1297577D01*
X319912Y1287395D01*
X316256Y1287395D01*
X316256Y1289710D02*
X319912Y1289710D01*
X319912Y1292025D02*
X316256Y1292025D01*
X316256Y1294340D02*
X319912Y1294340D01*
X319912Y1296655D02*
X316256Y1296655D01*
X316256Y1274077D02*
X316256Y1263895D01*
X316256Y1274077D02*
X319912Y1274077D01*
X319912Y1263895D01*
X316256Y1263895D01*
X316256Y1266210D02*
X319912Y1266210D01*
X319912Y1268525D02*
X316256Y1268525D01*
X316256Y1270840D02*
X319912Y1270840D01*
X319912Y1273155D02*
X316256Y1273155D01*
X335256Y1274077D02*
X335256Y1263895D01*
X335256Y1274077D02*
X338912Y1274077D01*
X338912Y1263895D01*
X335256Y1263895D01*
X335256Y1266210D02*
X338912Y1266210D01*
X338912Y1268525D02*
X335256Y1268525D01*
X335256Y1270840D02*
X338912Y1270840D01*
X338912Y1273155D02*
X335256Y1273155D01*
X187777Y1262768D02*
X177595Y1262768D01*
X177595Y1266424D01*
X187777Y1266424D01*
X187777Y1262768D01*
X187777Y1265083D02*
X177595Y1265083D01*
X177595Y1253268D02*
X187777Y1253268D01*
X177595Y1253268D02*
X177595Y1256924D01*
X187777Y1256924D01*
X187777Y1253268D01*
X187777Y1255583D02*
X177595Y1255583D01*
X177595Y1243768D02*
X187777Y1243768D01*
X177595Y1243768D02*
X177595Y1247424D01*
X187777Y1247424D01*
X187777Y1243768D01*
X187777Y1246083D02*
X177595Y1246083D01*
X201095Y1243768D02*
X211277Y1243768D01*
X201095Y1243768D02*
X201095Y1247424D01*
X211277Y1247424D01*
X211277Y1243768D01*
X211277Y1246083D02*
X201095Y1246083D01*
X201095Y1262768D02*
X211277Y1262768D01*
X201095Y1262768D02*
X201095Y1266424D01*
X211277Y1266424D01*
X211277Y1262768D01*
X211277Y1265083D02*
X201095Y1265083D01*
D17*
X225686Y1269096D03*
X253186Y1269096D03*
X337334Y1251736D03*
X309834Y1251736D03*
D18*
X221686Y1241096D03*
X239186Y1241096D03*
X304334Y1268736D03*
X286834Y1268736D03*
X221686Y1254096D03*
X239186Y1254096D03*
X337334Y1236736D03*
X319834Y1236736D03*
D19*
X773750Y1328348D03*
X773750Y1379212D03*
X786450Y1328348D03*
X799150Y1328348D03*
X786450Y1379212D03*
X799150Y1379212D03*
X811850Y1328348D03*
X811850Y1379212D03*
D20*
X737310Y1277580D03*
X754310Y1277580D03*
X737310Y1313140D03*
X754310Y1313140D03*
D21*
X765225Y1306175D02*
X777375Y1306175D01*
X765225Y1306175D02*
X765225Y1309125D01*
X777375Y1309125D01*
X777375Y1306175D01*
X777375Y1308045D02*
X765225Y1308045D01*
X765225Y1299675D02*
X777375Y1299675D01*
X765225Y1299675D02*
X765225Y1302625D01*
X777375Y1302625D01*
X777375Y1299675D01*
X777375Y1301545D02*
X765225Y1301545D01*
X765225Y1293175D02*
X777375Y1293175D01*
X765225Y1293175D02*
X765225Y1296125D01*
X777375Y1296125D01*
X777375Y1293175D01*
X777375Y1295045D02*
X765225Y1295045D01*
X765225Y1286675D02*
X777375Y1286675D01*
X765225Y1286675D02*
X765225Y1289625D01*
X777375Y1289625D01*
X777375Y1286675D01*
X777375Y1288545D02*
X765225Y1288545D01*
X808225Y1286675D02*
X820375Y1286675D01*
X808225Y1286675D02*
X808225Y1289625D01*
X820375Y1289625D01*
X820375Y1286675D01*
X820375Y1288545D02*
X808225Y1288545D01*
X808225Y1293175D02*
X820375Y1293175D01*
X808225Y1293175D02*
X808225Y1296125D01*
X820375Y1296125D01*
X820375Y1293175D01*
X820375Y1295045D02*
X808225Y1295045D01*
X808225Y1299675D02*
X820375Y1299675D01*
X808225Y1299675D02*
X808225Y1302625D01*
X820375Y1302625D01*
X820375Y1299675D01*
X820375Y1301545D02*
X808225Y1301545D01*
X808225Y1306175D02*
X820375Y1306175D01*
X808225Y1306175D02*
X808225Y1309125D01*
X820375Y1309125D01*
X820375Y1306175D01*
X820375Y1308045D02*
X808225Y1308045D01*
D20*
X837640Y1287740D03*
X854640Y1287740D03*
X754310Y1379180D03*
X737310Y1379180D03*
X837640Y1384260D03*
X854640Y1384260D03*
X854640Y1329650D03*
X837640Y1329650D03*
D22*
X876620Y1348310D03*
X876620Y1331310D03*
D16*
X669692Y1374667D02*
X669692Y1384849D01*
X673348Y1384849D01*
X673348Y1374667D01*
X669692Y1374667D01*
X669692Y1376982D02*
X673348Y1376982D01*
X673348Y1379297D02*
X669692Y1379297D01*
X669692Y1381612D02*
X673348Y1381612D01*
X673348Y1383927D02*
X669692Y1383927D01*
X660192Y1384849D02*
X660192Y1374667D01*
X660192Y1384849D02*
X663848Y1384849D01*
X663848Y1374667D01*
X660192Y1374667D01*
X660192Y1376982D02*
X663848Y1376982D01*
X663848Y1379297D02*
X660192Y1379297D01*
X660192Y1381612D02*
X663848Y1381612D01*
X663848Y1383927D02*
X660192Y1383927D01*
X650692Y1384849D02*
X650692Y1374667D01*
X650692Y1384849D02*
X654348Y1384849D01*
X654348Y1374667D01*
X650692Y1374667D01*
X650692Y1376982D02*
X654348Y1376982D01*
X654348Y1379297D02*
X650692Y1379297D01*
X650692Y1381612D02*
X654348Y1381612D01*
X654348Y1383927D02*
X650692Y1383927D01*
X650692Y1361349D02*
X650692Y1351167D01*
X650692Y1361349D02*
X654348Y1361349D01*
X654348Y1351167D01*
X650692Y1351167D01*
X650692Y1353482D02*
X654348Y1353482D01*
X654348Y1355797D02*
X650692Y1355797D01*
X650692Y1358112D02*
X654348Y1358112D01*
X654348Y1360427D02*
X650692Y1360427D01*
X669692Y1361349D02*
X669692Y1351167D01*
X669692Y1361349D02*
X673348Y1361349D01*
X673348Y1351167D01*
X669692Y1351167D01*
X669692Y1353482D02*
X673348Y1353482D01*
X673348Y1355797D02*
X669692Y1355797D01*
X669692Y1358112D02*
X673348Y1358112D01*
X673348Y1360427D02*
X669692Y1360427D01*
D17*
X680094Y1339984D03*
X707594Y1339984D03*
D18*
X652346Y1340364D03*
X634846Y1340364D03*
X676078Y1323636D03*
X693578Y1323636D03*
D23*
X401436Y1589176D03*
X341436Y1589176D03*
D24*
X371436Y1575626D03*
X381436Y1575626D03*
X361436Y1575626D03*
D20*
X632560Y1394816D03*
X649560Y1394816D03*
D25*
X567298Y1473833D03*
X592190Y1473833D03*
D26*
X573394Y1437257D03*
X560694Y1437257D03*
X586094Y1437257D03*
X598794Y1437257D03*
D25*
X693686Y1473833D03*
X718578Y1473833D03*
D26*
X699782Y1437257D03*
X687082Y1437257D03*
X712482Y1437257D03*
X725182Y1437257D03*
D27*
X757760Y1535000D03*
X737760Y1535000D03*
D28*
X781760Y1557500D03*
X713760Y1557500D03*
D27*
X561500Y1535000D03*
X541500Y1535000D03*
D28*
X585500Y1557500D03*
X517500Y1557500D03*
D29*
X246916Y1137352D02*
X246916Y1135552D01*
X246916Y1137352D02*
X255716Y1137352D01*
X255716Y1135552D01*
X246916Y1135552D01*
X246916Y1136692D02*
X255716Y1136692D01*
X246916Y1132352D02*
X246916Y1130552D01*
X246916Y1132352D02*
X255716Y1132352D01*
X255716Y1130552D01*
X246916Y1130552D01*
X246916Y1131692D02*
X255716Y1131692D01*
X246916Y1140552D02*
X246916Y1142352D01*
X255716Y1142352D01*
X255716Y1140552D01*
X246916Y1140552D01*
X246916Y1141692D02*
X255716Y1141692D01*
X246916Y1145552D02*
X246916Y1147352D01*
X255716Y1147352D01*
X255716Y1145552D01*
X246916Y1145552D01*
X246916Y1146692D02*
X255716Y1146692D01*
X246916Y1150552D02*
X246916Y1152352D01*
X255716Y1152352D01*
X255716Y1150552D01*
X246916Y1150552D01*
X246916Y1151692D02*
X255716Y1151692D01*
X246916Y1155552D02*
X246916Y1157352D01*
X255716Y1157352D01*
X255716Y1155552D01*
X246916Y1155552D01*
X246916Y1156692D02*
X255716Y1156692D01*
X246916Y1160552D02*
X246916Y1162352D01*
X255716Y1162352D01*
X255716Y1160552D01*
X246916Y1160552D01*
X246916Y1161692D02*
X255716Y1161692D01*
X246916Y1165552D02*
X246916Y1167352D01*
X255716Y1167352D01*
X255716Y1165552D01*
X246916Y1165552D01*
X246916Y1166692D02*
X255716Y1166692D01*
D30*
X251316Y1171452D03*
D29*
X246916Y1127352D02*
X246916Y1125552D01*
X246916Y1127352D02*
X255716Y1127352D01*
X255716Y1125552D01*
X246916Y1125552D01*
X246916Y1126692D02*
X255716Y1126692D01*
X246916Y1122352D02*
X246916Y1120552D01*
X246916Y1122352D02*
X255716Y1122352D01*
X255716Y1120552D01*
X246916Y1120552D01*
X246916Y1121692D02*
X255716Y1121692D01*
X246916Y1117352D02*
X246916Y1115552D01*
X246916Y1117352D02*
X255716Y1117352D01*
X255716Y1115552D01*
X246916Y1115552D01*
X246916Y1116692D02*
X255716Y1116692D01*
X246916Y1112352D02*
X246916Y1110552D01*
X246916Y1112352D02*
X255716Y1112352D01*
X255716Y1110552D01*
X246916Y1110552D01*
X246916Y1111692D02*
X255716Y1111692D01*
X246916Y1107352D02*
X246916Y1105552D01*
X246916Y1107352D02*
X255716Y1107352D01*
X255716Y1105552D01*
X246916Y1105552D01*
X246916Y1106692D02*
X255716Y1106692D01*
X246916Y1102352D02*
X246916Y1100552D01*
X246916Y1102352D02*
X255716Y1102352D01*
X255716Y1100552D01*
X246916Y1100552D01*
X246916Y1101692D02*
X255716Y1101692D01*
X246916Y1097352D02*
X246916Y1095552D01*
X246916Y1097352D02*
X255716Y1097352D01*
X255716Y1095552D01*
X246916Y1095552D01*
X246916Y1096692D02*
X255716Y1096692D01*
D31*
X224316Y1073452D03*
X224316Y1194452D03*
D29*
X349024Y1137352D02*
X349024Y1135552D01*
X349024Y1137352D02*
X357824Y1137352D01*
X357824Y1135552D01*
X349024Y1135552D01*
X349024Y1136692D02*
X357824Y1136692D01*
X349024Y1132352D02*
X349024Y1130552D01*
X349024Y1132352D02*
X357824Y1132352D01*
X357824Y1130552D01*
X349024Y1130552D01*
X349024Y1131692D02*
X357824Y1131692D01*
X349024Y1140552D02*
X349024Y1142352D01*
X357824Y1142352D01*
X357824Y1140552D01*
X349024Y1140552D01*
X349024Y1141692D02*
X357824Y1141692D01*
X349024Y1145552D02*
X349024Y1147352D01*
X357824Y1147352D01*
X357824Y1145552D01*
X349024Y1145552D01*
X349024Y1146692D02*
X357824Y1146692D01*
X349024Y1150552D02*
X349024Y1152352D01*
X357824Y1152352D01*
X357824Y1150552D01*
X349024Y1150552D01*
X349024Y1151692D02*
X357824Y1151692D01*
X349024Y1155552D02*
X349024Y1157352D01*
X357824Y1157352D01*
X357824Y1155552D01*
X349024Y1155552D01*
X349024Y1156692D02*
X357824Y1156692D01*
X349024Y1160552D02*
X349024Y1162352D01*
X357824Y1162352D01*
X357824Y1160552D01*
X349024Y1160552D01*
X349024Y1161692D02*
X357824Y1161692D01*
X349024Y1165552D02*
X349024Y1167352D01*
X357824Y1167352D01*
X357824Y1165552D01*
X349024Y1165552D01*
X349024Y1166692D02*
X357824Y1166692D01*
D30*
X353424Y1171452D03*
D29*
X349024Y1127352D02*
X349024Y1125552D01*
X349024Y1127352D02*
X357824Y1127352D01*
X357824Y1125552D01*
X349024Y1125552D01*
X349024Y1126692D02*
X357824Y1126692D01*
X349024Y1122352D02*
X349024Y1120552D01*
X349024Y1122352D02*
X357824Y1122352D01*
X357824Y1120552D01*
X349024Y1120552D01*
X349024Y1121692D02*
X357824Y1121692D01*
X349024Y1117352D02*
X349024Y1115552D01*
X349024Y1117352D02*
X357824Y1117352D01*
X357824Y1115552D01*
X349024Y1115552D01*
X349024Y1116692D02*
X357824Y1116692D01*
X349024Y1112352D02*
X349024Y1110552D01*
X349024Y1112352D02*
X357824Y1112352D01*
X357824Y1110552D01*
X349024Y1110552D01*
X349024Y1111692D02*
X357824Y1111692D01*
X349024Y1107352D02*
X349024Y1105552D01*
X349024Y1107352D02*
X357824Y1107352D01*
X357824Y1105552D01*
X349024Y1105552D01*
X349024Y1106692D02*
X357824Y1106692D01*
X349024Y1102352D02*
X349024Y1100552D01*
X349024Y1102352D02*
X357824Y1102352D01*
X357824Y1100552D01*
X349024Y1100552D01*
X349024Y1101692D02*
X357824Y1101692D01*
X349024Y1097352D02*
X349024Y1095552D01*
X349024Y1097352D02*
X357824Y1097352D01*
X357824Y1095552D01*
X349024Y1095552D01*
X349024Y1096692D02*
X357824Y1096692D01*
D31*
X326424Y1073452D03*
X326424Y1194452D03*
D32*
X664350Y1084700D03*
X677050Y1084700D03*
X689750Y1084700D03*
X702450Y1084700D03*
X715150Y1084700D03*
X727850Y1084700D03*
X740550Y1084700D03*
X753250Y1084700D03*
X765950Y1084700D03*
X778650Y1084700D03*
X778650Y1072000D03*
X765950Y1072000D03*
X753250Y1072000D03*
X740550Y1072000D03*
X727850Y1072000D03*
X715150Y1072000D03*
X702450Y1072000D03*
X689750Y1072000D03*
X677050Y1072000D03*
X664350Y1072000D03*
D33*
X639400Y1027500D03*
X803600Y1027500D03*
X803600Y1076500D03*
X639400Y1076500D03*
D34*
X832250Y1360000D03*
X832250Y1356000D03*
X832250Y1352000D03*
X832250Y1348000D03*
X832250Y1344000D03*
X856750Y1344000D03*
X856750Y1348000D03*
X856750Y1352000D03*
X856750Y1356000D03*
X856750Y1360000D03*
D35*
X844500Y1352000D03*
D36*
X553250Y1398000D03*
X523750Y1398000D03*
D37*
X538500Y1413250D03*
D38*
X319000Y1330000D03*
X338000Y1330000D03*
D20*
X268000Y1207000D03*
X251000Y1207000D03*
X364000Y1217000D03*
X347000Y1217000D03*
X1028000Y1382000D03*
X1045000Y1382000D03*
X308000Y1029000D03*
X325000Y1029000D03*
X277000Y1029000D03*
X260000Y1029000D03*
D39*
X151500Y935000D03*
X1151500Y1485000D03*
X915500Y1369000D03*
X276500Y1227000D03*
D27*
X929500Y1538000D03*
X909500Y1538000D03*
D28*
X953500Y1560500D03*
X885500Y1560500D03*
D22*
X796500Y1180500D03*
X796500Y1197500D03*
D40*
X262300Y185000D03*
D41*
X740550Y284700D02*
X740550Y294950D01*
X740500Y295000D01*
D40*
X740500Y295000D03*
D42*
X740500Y363684D03*
D10*
X740550Y363634D01*
D41*
X740550Y294950D01*
D40*
X262300Y141000D03*
D41*
X727850Y284700D02*
X727850Y294650D01*
X727500Y295000D01*
D40*
X727500Y295000D03*
D42*
X727500Y359000D03*
D10*
X727500Y356000D01*
X727850Y355650D01*
D41*
X727850Y294650D01*
D40*
X792674Y552448D03*
D41*
X792816Y552590D01*
X287700Y229000D02*
X287700Y185000D01*
X287700Y229000D02*
X287700Y238800D01*
X241500Y285000D01*
X241500Y298000D01*
X244952Y301452D02*
X251316Y301452D01*
X244952Y301452D02*
X241500Y298000D01*
X251316Y301452D02*
X353424Y301452D01*
X372900Y301452D02*
X381926Y292426D01*
D40*
X381926Y292426D03*
D41*
X372900Y301452D02*
X353424Y301452D01*
D43*
X797406Y548000D02*
X832250Y548000D01*
X797406Y548000D02*
X792816Y552590D01*
D41*
X287700Y229000D02*
X277000Y229000D01*
D40*
X819598Y562608D03*
D41*
X287700Y156299D02*
X287700Y141000D01*
X287700Y156299D02*
X296844Y165443D01*
X296844Y229000D01*
X296844Y239656D01*
X251316Y285184D02*
X251316Y296452D01*
X251316Y285184D02*
X296844Y239656D01*
X251316Y296452D02*
X353424Y296452D01*
X365048Y296452D02*
X385500Y276000D01*
D40*
X385500Y276000D03*
D41*
X365048Y296452D02*
X353424Y296452D01*
D43*
X823500Y552000D02*
X832250Y552000D01*
X819598Y555902D02*
X819598Y562608D01*
X819598Y555902D02*
X823500Y552000D01*
D41*
X308000Y229000D02*
X296844Y229000D01*
D44*
X951500Y676000D02*
X964500Y689000D01*
X505772Y447000D02*
X499512Y453260D01*
X505772Y447000D02*
X854500Y447000D01*
X951500Y544000D02*
X951500Y676000D01*
X951500Y544000D02*
X854500Y447000D01*
X964500Y539000D02*
X964500Y645000D01*
X493500Y436000D02*
X484512Y444988D01*
X484512Y453260D01*
X861500Y436000D02*
X964500Y539000D01*
X861500Y436000D02*
X493500Y436000D01*
D41*
X171500Y549116D02*
X135786Y549116D01*
X171500Y549116D02*
X176267Y549116D01*
X183405Y541978D01*
X225078Y541978D01*
X265744Y582644D02*
X302450Y582644D01*
X402689Y682883D01*
X265744Y582644D02*
X225078Y541978D01*
D45*
X989900Y658716D03*
X463584Y675328D03*
D41*
X456029Y682883D01*
X402689Y682883D01*
X353424Y321452D02*
X251316Y321452D01*
X195048Y321452D01*
X181500Y335000D01*
D40*
X181500Y335000D03*
X171500Y549116D03*
D41*
X300766Y586708D02*
X402863Y688805D01*
X185410Y586708D02*
X161601Y562899D01*
X157978Y559276D01*
X135786Y559276D01*
X185410Y586708D02*
X300766Y586708D01*
D45*
X1015300Y689000D03*
X487968Y682174D03*
D41*
X471673Y682174D01*
X465042Y688805D01*
X402863Y688805D01*
X353424Y331452D02*
X251316Y331452D01*
X251022Y331158D01*
X196510Y331158D01*
X161500Y366168D01*
D40*
X161500Y475000D03*
X161601Y562899D03*
D41*
X161500Y475000D02*
X161500Y366168D01*
D40*
X236900Y137600D03*
D41*
X753250Y284700D02*
X753250Y295750D01*
X753500Y296000D01*
D40*
X753500Y296000D03*
D42*
X753500Y380000D03*
D10*
X753250Y379750D01*
D41*
X753250Y295750D01*
D40*
X236900Y188400D03*
D41*
X765950Y284700D02*
X765950Y294550D01*
X765500Y295000D01*
D40*
X765500Y295000D03*
D42*
X765500Y392000D03*
D41*
X765500Y295000D01*
D40*
X211500Y188400D03*
D41*
X778650Y284700D02*
X778650Y294850D01*
X778500Y295000D01*
D40*
X778500Y295000D03*
D42*
X778500Y372000D03*
D10*
X778650Y371850D01*
D41*
X778650Y294850D01*
X388605Y311452D02*
X353424Y311452D01*
X440100Y259957D02*
X440100Y188400D01*
X440100Y259957D02*
X388605Y311452D01*
X353424Y311452D02*
X251316Y311452D01*
D40*
X414700Y188400D03*
D41*
X664350Y284700D02*
X664350Y294850D01*
X664500Y295000D01*
D40*
X664500Y295000D03*
D42*
X664500Y346838D03*
D10*
X664500Y295000D01*
D40*
X389300Y141000D03*
D41*
X676500Y285250D02*
X677050Y284700D01*
X676500Y285250D02*
X676500Y296000D01*
D40*
X676500Y296000D03*
D42*
X676500Y351818D03*
D10*
X676500Y296000D01*
D40*
X389300Y185000D03*
D41*
X689750Y284700D02*
X689750Y294750D01*
X689500Y295000D01*
D40*
X689500Y295000D03*
X363900Y141000D03*
D41*
X702450Y284700D02*
X702450Y294050D01*
X701500Y295000D01*
D40*
X701500Y295000D03*
D41*
X701682Y295182D01*
X701682Y345410D01*
X832107Y397500D02*
X977136Y542529D01*
X755090Y398818D02*
X701682Y345410D01*
X977136Y542529D02*
X977136Y716364D01*
X795182Y398818D02*
X755090Y398818D01*
D10*
X795182Y398818D02*
X796500Y397500D01*
D41*
X832107Y397500D01*
X934500Y733000D02*
X960500Y733000D01*
D10*
X934500Y733000D02*
X929500Y738000D01*
D41*
X960500Y733000D02*
X977136Y716364D01*
D40*
X363900Y185000D03*
D41*
X714500Y285350D02*
X715150Y284700D01*
X714500Y285350D02*
X714500Y295000D01*
D40*
X714500Y295000D03*
D46*
X347394Y111980D02*
X336928Y122446D01*
X347394Y111980D02*
X451606Y111980D01*
X461500Y121874D01*
X461500Y280652D01*
X338500Y141000D02*
X336928Y139428D01*
X336928Y122446D01*
X310000Y417500D02*
X271500Y456000D01*
X324652Y417500D02*
X461500Y280652D01*
X324652Y417500D02*
X321500Y417500D01*
X310000Y417500D01*
X271500Y456000D02*
X271500Y475000D01*
X291500Y495000D01*
X315570Y495000D01*
X318084Y492486D01*
D41*
X321500Y417500D02*
X346500Y417500D01*
X347000Y417000D01*
D46*
X220782Y407500D02*
X182686Y445596D01*
X220782Y407500D02*
X231500Y407500D01*
X232079Y407500D01*
X359687Y376000D02*
X456500Y279187D01*
X359687Y376000D02*
X263579Y376000D01*
X232079Y407500D01*
X456500Y123340D02*
X449713Y116552D01*
X456500Y123340D02*
X456500Y279187D01*
X351500Y172000D02*
X338500Y185000D01*
X351500Y124340D02*
X359288Y116552D01*
X449713Y116552D01*
X351500Y124340D02*
X351500Y172000D01*
D41*
X250500Y407500D02*
X231500Y407500D01*
X250500Y407500D02*
X251000Y407000D01*
D44*
X671520Y556258D02*
X677943Y549835D01*
X680094Y547684D01*
X680094Y539984D01*
X676078Y535968D02*
X676078Y523636D01*
X676078Y535968D02*
X680094Y539984D01*
D47*
X888300Y692400D02*
X888300Y718480D01*
X878112Y728668D01*
X856776Y728668D01*
X737304Y609196D01*
X677943Y549835D01*
D48*
X737304Y609196D03*
X772500Y258000D03*
D49*
X772500Y265850D01*
X778650Y272000D01*
X772500Y265450D02*
X765950Y272000D01*
X772500Y265450D02*
X772500Y258000D01*
D41*
X1028000Y582000D02*
X1028000Y608696D01*
X1027500Y609196D01*
D40*
X1027500Y609196D03*
D41*
X260000Y229000D02*
X245500Y229000D01*
D42*
X245500Y229000D03*
D41*
X325000Y229000D02*
X338500Y229000D01*
D42*
X338500Y229000D03*
D10*
X796500Y367000D02*
X796500Y380500D01*
X789500Y360000D02*
X789500Y269000D01*
X778500Y258000D01*
X772500Y258000D01*
X789500Y360000D02*
X796500Y367000D01*
D41*
X353424Y356452D02*
X251316Y356452D01*
X251316Y361452D02*
X353424Y361452D01*
X353424Y366452D02*
X251316Y366452D01*
X251316Y371452D02*
X353424Y371452D01*
D44*
X379512Y613260D02*
X379512Y630988D01*
X379500Y631000D01*
D40*
X379500Y631000D03*
D44*
X309834Y451736D02*
X295236Y451736D01*
X294500Y451000D01*
D40*
X294500Y451000D03*
D44*
X286834Y468736D02*
X287500Y469402D01*
X287500Y480000D01*
D40*
X287500Y480000D03*
D44*
X308764Y436736D02*
X319834Y436736D01*
X308764Y436736D02*
X308500Y437000D01*
D40*
X308500Y437000D03*
D44*
X327584Y492486D02*
X327584Y506916D01*
X327500Y507000D01*
D40*
X327500Y507000D03*
D44*
X256386Y502096D02*
X256386Y519886D01*
X256500Y520000D01*
D40*
X256500Y520000D03*
D44*
X253186Y469096D02*
X253186Y454314D01*
X253500Y454000D01*
D40*
X253500Y454000D03*
D44*
X239404Y454314D02*
X239186Y454096D01*
X239404Y454314D02*
X253186Y454314D01*
X253404Y441096D02*
X239186Y441096D01*
X253404Y441096D02*
X253500Y441000D01*
D40*
X253500Y441000D03*
D44*
X182686Y455096D02*
X169596Y455096D01*
X169500Y455000D01*
D40*
X169500Y455000D03*
D44*
X161424Y610076D02*
X135786Y610076D01*
X161424Y610076D02*
X161500Y610000D01*
D40*
X161500Y610000D03*
D44*
X283086Y650716D02*
X343980Y650716D01*
X359882Y666618D01*
D40*
X359882Y666618D03*
D44*
X621684Y594816D02*
X632560Y594816D01*
X621684Y594816D02*
X621500Y595000D01*
D40*
X621500Y595000D03*
D44*
X662020Y604480D02*
X662020Y579758D01*
X662020Y604480D02*
X661500Y605000D01*
D40*
X661500Y605000D03*
D44*
X631500Y543710D02*
X634846Y540364D01*
X631500Y543710D02*
X631500Y555000D01*
D40*
X631500Y555000D03*
D44*
X693578Y523636D02*
X707594Y537652D01*
X707594Y539984D01*
X721500Y553890D01*
X721500Y565000D01*
D40*
X721500Y565000D03*
D44*
X723130Y565000D02*
X737310Y579180D01*
X723130Y565000D02*
X721500Y565000D01*
D43*
X830250Y542000D02*
X832250Y544000D01*
D44*
X830250Y542000D02*
X830250Y537040D01*
X837640Y529650D01*
X837640Y519140D01*
X837500Y519000D01*
D40*
X837500Y519000D03*
X831500Y498046D03*
D44*
X814785Y495135D02*
X814300Y494650D01*
X814785Y495135D02*
X822256Y495135D01*
X825167Y498046D02*
X831500Y498046D01*
X825167Y498046D02*
X822256Y495135D01*
X854640Y498860D02*
X854640Y487740D01*
X854640Y498860D02*
X854500Y499000D01*
D40*
X854500Y499000D03*
D44*
X484512Y599012D02*
X484512Y613260D01*
X484512Y599012D02*
X484500Y599000D01*
D40*
X484500Y599000D03*
D44*
X757760Y735000D02*
X757760Y772740D01*
X757500Y773000D01*
D40*
X757500Y773000D03*
D44*
X757760Y735000D02*
X767949Y724811D01*
X771311Y724811D01*
D40*
X771311Y724811D03*
D44*
X851500Y681000D02*
X862900Y692400D01*
X851500Y681000D02*
X851500Y673658D01*
D40*
X851500Y673658D03*
D44*
X469512Y453260D02*
X469512Y437012D01*
X469500Y437000D01*
D40*
X469500Y437000D03*
D44*
X394512Y437012D02*
X394512Y453260D01*
X394512Y437012D02*
X394500Y437000D01*
D40*
X394500Y437000D03*
D46*
X251316Y371452D02*
X243952Y371452D01*
X236500Y364000D01*
D40*
X236500Y364000D03*
D46*
X238952Y366452D02*
X251316Y366452D01*
X238952Y366452D02*
X236500Y364000D01*
X239048Y361452D02*
X251316Y361452D01*
X239048Y361452D02*
X236500Y364000D01*
X244048Y356452D02*
X251316Y356452D01*
X244048Y356452D02*
X236500Y364000D01*
D50*
X664350Y272000D02*
X664350Y266150D01*
X670500Y260000D01*
D40*
X670500Y260000D03*
D50*
X677050Y266550D02*
X677050Y272000D01*
X677050Y266550D02*
X670500Y260000D01*
D41*
X523750Y578250D02*
X523750Y598000D01*
X523750Y578250D02*
X523500Y578000D01*
D40*
X523500Y578000D03*
D41*
X553250Y578250D02*
X553250Y598000D01*
X553250Y578250D02*
X553500Y578000D01*
D40*
X553500Y578000D03*
D41*
X268000Y407000D02*
X268000Y394500D01*
X268500Y394000D01*
D40*
X268500Y394000D03*
D41*
X364000Y401500D02*
X364000Y417000D01*
X364000Y401500D02*
X364500Y401000D01*
D40*
X364500Y401000D03*
D42*
X1115500Y423000D03*
D10*
X909500Y738000D02*
X909500Y771000D01*
D42*
X909500Y771000D03*
D40*
X211500Y137600D03*
D49*
X592500Y630851D02*
X586094Y637257D01*
X592500Y630851D02*
X592500Y622000D01*
D40*
X592500Y622000D03*
D49*
X592500Y630963D02*
X598794Y637257D01*
X592500Y630963D02*
X592500Y630851D01*
X693500Y630975D02*
X699782Y637257D01*
X693500Y630975D02*
X693500Y622000D01*
D40*
X693500Y622000D03*
D49*
X687218Y637257D02*
X687082Y637257D01*
X687218Y637257D02*
X693500Y630975D01*
D41*
X264160Y620236D02*
X135786Y620236D01*
X264160Y620236D02*
X272454Y611942D01*
D45*
X311184Y637228D03*
D41*
X295042Y611942D02*
X272454Y611942D01*
X295042Y611942D02*
X311184Y628084D01*
X311184Y637228D01*
D51*
X1006280Y645000D02*
X1015300Y645000D01*
X1006280Y645000D02*
X1006128Y644848D01*
X1001556Y649420D02*
X1001556Y708856D01*
X996984Y713428D01*
X984172Y713428D01*
D40*
X984172Y713428D03*
D51*
X1001556Y649420D02*
X1006128Y644848D01*
D41*
X288324Y559276D02*
X283086Y559276D01*
D45*
X1040700Y645000D03*
X399576Y573220D03*
D41*
X302268Y573220D01*
X288324Y559276D01*
D52*
X862900Y641600D03*
D45*
X410244Y593032D03*
D46*
X410244Y453992D01*
X409512Y453260D01*
D41*
X380753Y306452D02*
X353424Y306452D01*
X401500Y150800D02*
X414700Y137600D01*
X401500Y285705D02*
X380753Y306452D01*
X401500Y285705D02*
X401500Y150800D01*
X353424Y306452D02*
X251316Y306452D01*
X353424Y316452D02*
X396458Y316452D01*
X440100Y163099D02*
X440100Y137600D01*
X440100Y163099D02*
X449244Y172243D01*
X449244Y263666D01*
X396458Y316452D01*
X353424Y316452D02*
X251316Y316452D01*
D45*
X989900Y689000D03*
D41*
X151003Y579596D02*
X135786Y579596D01*
X151003Y579596D02*
X161953Y590547D01*
X162593Y591186D01*
X299497Y591186D01*
X402275Y693965D01*
D45*
X989900Y689000D03*
X469500Y694000D03*
D41*
X469465Y693965D01*
X402275Y693965D01*
X353424Y326452D02*
X251316Y326452D01*
X353424Y326452D02*
X372952Y326452D01*
X381500Y335000D01*
D40*
X381500Y335000D03*
X161953Y590547D03*
D41*
X913700Y609800D02*
X913700Y645000D01*
X913700Y609800D02*
X928500Y595000D01*
D42*
X928500Y595000D03*
D46*
X221686Y441096D02*
X210686Y441096D01*
X206186Y445596D01*
X304584Y468986D02*
X318084Y468986D01*
X304584Y468986D02*
X304334Y468736D01*
X362988Y451736D02*
X364512Y453260D01*
X362988Y451736D02*
X337334Y451736D01*
X337334Y436736D01*
D44*
X337084Y451986D02*
X337084Y468986D01*
X337084Y451986D02*
X337334Y451736D01*
D46*
X206186Y464596D02*
X206186Y481780D01*
X206186Y501496D01*
X205586Y502096D01*
X206186Y464596D02*
X221186Y464596D01*
X221686Y465096D01*
X221686Y454096D01*
X221686Y465096D02*
X225686Y469096D01*
X175102Y481780D02*
X154786Y502096D01*
X175102Y481780D02*
X195500Y481780D01*
X206186Y481780D01*
X135786Y630396D02*
X122996Y630396D01*
X120684Y628084D01*
X120684Y536198D01*
X154786Y502096D01*
D41*
X195426Y502096D02*
X195426Y481854D01*
X195500Y481780D01*
D49*
X754310Y513140D02*
X764860Y513140D01*
X767400Y515680D01*
X771300Y511780D01*
X771300Y508182D01*
X769819Y508182D01*
X767400Y510600D01*
X767400Y515680D02*
X773750Y522030D01*
X773750Y528348D01*
X786450Y528348D01*
X799150Y528348D01*
D46*
X771300Y501150D02*
X751500Y501150D01*
X746640Y501150D01*
D47*
X691500Y665000D02*
X691500Y685000D01*
D53*
X693686Y673833D02*
X672953Y673833D01*
X665500Y666380D01*
D54*
X665500Y666380D03*
X711500Y485000D03*
D53*
X718456Y673833D02*
X693686Y673833D01*
D49*
X729890Y485000D02*
X730490Y485000D01*
X729890Y485000D02*
X711500Y485000D01*
D41*
X711500Y487330D02*
X737310Y513140D01*
X711500Y487330D02*
X711500Y485000D01*
X749300Y501150D02*
X751500Y501150D01*
X749300Y501150D02*
X737310Y513140D01*
D49*
X729890Y485000D02*
X737310Y477580D01*
D46*
X811850Y514410D02*
X811850Y528348D01*
X811850Y514410D02*
X814300Y511960D01*
X814300Y507650D01*
D49*
X773718Y579180D02*
X754310Y579180D01*
X773718Y579180D02*
X773750Y579212D01*
X786450Y579212D01*
X799150Y579212D01*
X811850Y579212D01*
X832592Y579212D02*
X837640Y584260D01*
X832592Y579212D02*
X811850Y579212D01*
D47*
X560694Y637257D02*
X560437Y637000D01*
X573137Y637000D02*
X573394Y637257D01*
X573137Y637000D02*
X560437Y637000D01*
X541500Y637000D01*
X541500Y735000D01*
X754310Y579180D02*
X754310Y556098D01*
X705900Y507688D01*
X666500Y507688D01*
X640368Y507688D01*
X573312Y574744D01*
X573312Y637175D01*
D44*
X573394Y637257D01*
D41*
X856750Y565150D02*
X856750Y560000D01*
X856750Y565150D02*
X837640Y584260D01*
D44*
X814300Y501150D02*
X802350Y501150D01*
X797500Y506000D01*
D45*
X797500Y506000D03*
X666500Y507688D03*
D46*
X833420Y488150D02*
X837640Y487740D01*
X833420Y488150D02*
X814300Y488150D01*
D49*
X854640Y529650D02*
X875350Y529650D01*
D43*
X856750Y531760D02*
X854640Y529650D01*
D49*
X876620Y531310D02*
X886192Y540882D01*
D53*
X589500Y720000D02*
X568500Y720000D01*
D40*
X589500Y720000D03*
D54*
X881500Y585000D03*
D49*
X886192Y580308D02*
X886192Y540882D01*
X886192Y580308D02*
X881500Y585000D01*
D50*
X855380Y585000D02*
X854640Y584260D01*
X855380Y585000D02*
X860808Y585000D01*
X860873Y584935D01*
X865503Y584935D01*
X865568Y585000D01*
X881500Y585000D01*
D10*
X844500Y552000D02*
X852500Y544000D01*
X856750Y544000D01*
X856750Y531760D01*
D43*
X856750Y548000D02*
X876310Y548000D01*
X876620Y548310D01*
D44*
X760730Y477580D02*
X754310Y477580D01*
X760730Y477580D02*
X771300Y488150D01*
X652520Y540538D02*
X652520Y556258D01*
X652520Y540538D02*
X652346Y540364D01*
X652520Y579758D02*
X652520Y591856D01*
X649560Y594816D01*
X436884Y811090D02*
X421436Y795626D01*
X401436Y775626D02*
X381436Y775626D01*
X401436Y775626D02*
X421436Y795626D01*
X580535Y811161D02*
X609676Y782021D01*
X609676Y724308D01*
X580535Y811161D02*
X436884Y811090D01*
X649244Y684740D02*
X649244Y595132D01*
X649560Y594816D01*
X649244Y684740D02*
X609676Y724308D01*
D41*
X353424Y336452D02*
X251316Y336452D01*
X251316Y341452D02*
X353424Y341452D01*
X353424Y346452D02*
X251316Y346452D01*
X251316Y351452D02*
X353424Y351452D01*
D46*
X251316Y351452D02*
X243952Y351452D01*
X236500Y344000D01*
D40*
X236500Y344000D03*
D46*
X244048Y336452D02*
X251316Y336452D01*
X244048Y336452D02*
X236500Y344000D01*
X239048Y341452D02*
X251316Y341452D01*
X239048Y341452D02*
X236500Y344000D01*
X238952Y346452D02*
X251316Y346452D01*
X238952Y346452D02*
X236500Y344000D01*
X371500Y766000D02*
X371500Y775562D01*
X371436Y775626D01*
D40*
X371500Y766000D03*
D50*
X740550Y272000D02*
X740550Y265950D01*
X746500Y260000D01*
D40*
X746500Y260000D03*
D50*
X753250Y266750D02*
X753250Y272000D01*
X753250Y266750D02*
X746500Y260000D01*
X671520Y579758D02*
X671520Y585020D01*
X681500Y595000D01*
D40*
X681500Y595000D03*
D55*
X592190Y673833D02*
X567298Y673833D01*
X592190Y673833D02*
X612667Y673833D01*
X621500Y665000D01*
D48*
X621500Y665000D03*
D41*
X193040Y474950D02*
X182686Y464596D01*
X193040Y474950D02*
X193500Y474950D01*
D40*
X193500Y474950D03*
D41*
X305500Y530000D02*
X319000Y530000D01*
X301500Y526000D02*
X301500Y515000D01*
D40*
X301500Y515000D03*
D41*
X301500Y526000D02*
X305500Y530000D01*
D42*
X1093500Y466000D03*
D47*
X725439Y637000D02*
X725182Y637257D01*
X737760Y637260D02*
X737760Y735000D01*
X737760Y637260D02*
X737500Y637000D01*
X725439Y637000D01*
X725182Y637257D02*
X712482Y637257D01*
D41*
X304133Y578580D02*
X267427Y578580D01*
X304133Y578580D02*
X403276Y677724D01*
D45*
X1040700Y689000D03*
D41*
X267427Y578580D02*
X222174Y533326D01*
D45*
X446820Y676057D03*
D41*
X445154Y677724D01*
X403276Y677724D01*
X151936Y569436D02*
X135786Y569436D01*
X151936Y569436D02*
X156500Y574000D01*
D42*
X156500Y574000D03*
X222174Y533326D03*
D41*
X264160Y599916D02*
X135786Y599916D01*
X264160Y599916D02*
X272122Y607878D01*
X310441Y607878D02*
X401688Y699124D01*
X310441Y607878D02*
X272122Y607878D01*
D40*
X1066100Y692400D03*
X410244Y707332D03*
D51*
X402036Y699124D01*
X401688Y699124D01*
D41*
X771300Y494650D02*
X791850Y494650D01*
X831500Y455000D01*
D40*
X831500Y455000D03*
X1066500Y582000D03*
D41*
X1066500Y641200D01*
X1066100Y641600D01*
X1066500Y582000D02*
X1045000Y582000D01*
X538490Y613260D02*
X499512Y613260D01*
X538490Y613260D02*
X538500Y613250D01*
X337598Y493000D02*
X337084Y492486D01*
X337598Y493000D02*
X338000Y530000D01*
D56*
X551500Y385000D03*
D40*
X262300Y985000D03*
D41*
X740550Y1084700D02*
X740550Y1094950D01*
X740500Y1095000D01*
D40*
X740500Y1095000D03*
D42*
X740500Y1163684D03*
D10*
X740550Y1163634D01*
D41*
X740550Y1094950D01*
D40*
X262300Y941000D03*
D41*
X727850Y1084700D02*
X727850Y1094650D01*
X727500Y1095000D01*
D40*
X727500Y1095000D03*
D42*
X727500Y1159000D03*
D10*
X727500Y1156000D01*
X727850Y1155650D01*
D41*
X727850Y1094650D01*
D40*
X792674Y1352448D03*
D41*
X792816Y1352590D01*
X287700Y1029000D02*
X287700Y985000D01*
X287700Y1029000D02*
X287700Y1038800D01*
X241500Y1085000D01*
X241500Y1098000D01*
X244952Y1101452D02*
X251316Y1101452D01*
X244952Y1101452D02*
X241500Y1098000D01*
X251316Y1101452D02*
X353424Y1101452D01*
X372900Y1101452D02*
X381926Y1092426D01*
D40*
X381926Y1092426D03*
D41*
X372900Y1101452D02*
X353424Y1101452D01*
D43*
X797406Y1348000D02*
X832250Y1348000D01*
X797406Y1348000D02*
X792816Y1352590D01*
D41*
X287700Y1029000D02*
X277000Y1029000D01*
D40*
X819598Y1362608D03*
D41*
X287700Y956299D02*
X287700Y941000D01*
X287700Y956299D02*
X296844Y965443D01*
X296844Y1029000D01*
X296844Y1039656D01*
X251316Y1085184D02*
X251316Y1096452D01*
X251316Y1085184D02*
X296844Y1039656D01*
X251316Y1096452D02*
X353424Y1096452D01*
X365048Y1096452D02*
X385500Y1076000D01*
D40*
X385500Y1076000D03*
D41*
X365048Y1096452D02*
X353424Y1096452D01*
D43*
X823500Y1352000D02*
X832250Y1352000D01*
X819598Y1355902D02*
X819598Y1362608D01*
X819598Y1355902D02*
X823500Y1352000D01*
D41*
X308000Y1029000D02*
X296844Y1029000D01*
D44*
X951500Y1476000D02*
X964500Y1489000D01*
X505772Y1247000D02*
X499512Y1253260D01*
X505772Y1247000D02*
X854500Y1247000D01*
X951500Y1344000D02*
X951500Y1476000D01*
X951500Y1344000D02*
X854500Y1247000D01*
X964500Y1339000D02*
X964500Y1445000D01*
X493500Y1236000D02*
X484512Y1244988D01*
X484512Y1253260D01*
X861500Y1236000D02*
X964500Y1339000D01*
X861500Y1236000D02*
X493500Y1236000D01*
D41*
X171500Y1349116D02*
X135786Y1349116D01*
X171500Y1349116D02*
X176267Y1349116D01*
X183405Y1341978D01*
X225078Y1341978D01*
X265744Y1382644D02*
X302450Y1382644D01*
X402689Y1482883D01*
X265744Y1382644D02*
X225078Y1341978D01*
D45*
X989900Y1458716D03*
X463584Y1475328D03*
D41*
X456029Y1482883D01*
X402689Y1482883D01*
X353424Y1121452D02*
X251316Y1121452D01*
X195048Y1121452D01*
X181500Y1135000D01*
D40*
X181500Y1135000D03*
X171500Y1349116D03*
D41*
X300766Y1386708D02*
X402863Y1488805D01*
X185410Y1386708D02*
X161601Y1362899D01*
X157978Y1359276D01*
X135786Y1359276D01*
X185410Y1386708D02*
X300766Y1386708D01*
D45*
X1015300Y1489000D03*
X487968Y1482174D03*
D41*
X471673Y1482174D01*
X465042Y1488805D01*
X402863Y1488805D01*
X353424Y1131452D02*
X251316Y1131452D01*
X251022Y1131158D01*
X196510Y1131158D01*
X161500Y1166168D01*
D40*
X161500Y1275000D03*
X161601Y1362899D03*
D41*
X161500Y1275000D02*
X161500Y1166168D01*
D40*
X236900Y937600D03*
D41*
X753250Y1084700D02*
X753250Y1095750D01*
X753500Y1096000D01*
D40*
X753500Y1096000D03*
D42*
X753500Y1180000D03*
D10*
X753250Y1179750D01*
D41*
X753250Y1095750D01*
D40*
X236900Y988400D03*
D41*
X765950Y1084700D02*
X765950Y1094550D01*
X765500Y1095000D01*
D40*
X765500Y1095000D03*
D42*
X765500Y1192000D03*
D41*
X765500Y1095000D01*
D40*
X211500Y988400D03*
D41*
X778650Y1084700D02*
X778650Y1094850D01*
X778500Y1095000D01*
D40*
X778500Y1095000D03*
D42*
X778500Y1172000D03*
D10*
X778650Y1171850D01*
D41*
X778650Y1094850D01*
X388605Y1111452D02*
X353424Y1111452D01*
X440100Y1059957D02*
X440100Y988400D01*
X440100Y1059957D02*
X388605Y1111452D01*
X353424Y1111452D02*
X251316Y1111452D01*
D40*
X414700Y988400D03*
D41*
X664350Y1084700D02*
X664350Y1094850D01*
X664500Y1095000D01*
D40*
X664500Y1095000D03*
D42*
X664500Y1146838D03*
D10*
X664500Y1095000D01*
D40*
X389300Y941000D03*
D41*
X676500Y1085250D02*
X677050Y1084700D01*
X676500Y1085250D02*
X676500Y1096000D01*
D40*
X676500Y1096000D03*
D42*
X676500Y1151818D03*
D10*
X676500Y1096000D01*
D40*
X389300Y985000D03*
D41*
X689750Y1084700D02*
X689750Y1094750D01*
X689500Y1095000D01*
D40*
X689500Y1095000D03*
X363900Y941000D03*
D41*
X702450Y1084700D02*
X702450Y1094050D01*
X701500Y1095000D01*
D40*
X701500Y1095000D03*
D41*
X701682Y1095182D01*
X701682Y1145410D01*
X832107Y1197500D02*
X977136Y1342529D01*
X755090Y1198818D02*
X701682Y1145410D01*
X977136Y1342529D02*
X977136Y1516364D01*
X795182Y1198818D02*
X755090Y1198818D01*
D10*
X795182Y1198818D02*
X796500Y1197500D01*
D41*
X832107Y1197500D01*
X934500Y1533000D02*
X960500Y1533000D01*
D10*
X934500Y1533000D02*
X929500Y1538000D01*
D41*
X960500Y1533000D02*
X977136Y1516364D01*
D40*
X363900Y985000D03*
D41*
X714500Y1085350D02*
X715150Y1084700D01*
X714500Y1085350D02*
X714500Y1095000D01*
D40*
X714500Y1095000D03*
D46*
X347394Y911980D02*
X336928Y922446D01*
X347394Y911980D02*
X451606Y911980D01*
X461500Y921874D01*
X461500Y1080652D01*
X338500Y941000D02*
X336928Y939428D01*
X336928Y922446D01*
X310000Y1217500D02*
X271500Y1256000D01*
X324652Y1217500D02*
X461500Y1080652D01*
X324652Y1217500D02*
X321500Y1217500D01*
X310000Y1217500D01*
X271500Y1256000D02*
X271500Y1275000D01*
X291500Y1295000D01*
X315570Y1295000D01*
X318084Y1292486D01*
D41*
X321500Y1217500D02*
X346500Y1217500D01*
X347000Y1217000D01*
D46*
X220782Y1207500D02*
X182686Y1245596D01*
X220782Y1207500D02*
X231500Y1207500D01*
X232079Y1207500D01*
X359687Y1176000D02*
X456500Y1079187D01*
X359687Y1176000D02*
X263579Y1176000D01*
X232079Y1207500D01*
X456500Y923340D02*
X449713Y916552D01*
X456500Y923340D02*
X456500Y1079187D01*
X351500Y972000D02*
X338500Y985000D01*
X351500Y924340D02*
X359288Y916552D01*
X449713Y916552D01*
X351500Y924340D02*
X351500Y972000D01*
D41*
X250500Y1207500D02*
X231500Y1207500D01*
X250500Y1207500D02*
X251000Y1207000D01*
D44*
X671520Y1356258D02*
X677943Y1349835D01*
X680094Y1347684D01*
X680094Y1339984D01*
X676078Y1335968D02*
X676078Y1323636D01*
X676078Y1335968D02*
X680094Y1339984D01*
D47*
X888300Y1492400D02*
X888300Y1518480D01*
X878112Y1528668D01*
X856776Y1528668D01*
X737304Y1409196D01*
X677943Y1349835D01*
D48*
X737304Y1409196D03*
X772500Y1058000D03*
D49*
X772500Y1065850D01*
X778650Y1072000D01*
X772500Y1065450D02*
X765950Y1072000D01*
X772500Y1065450D02*
X772500Y1058000D01*
D41*
X1028000Y1382000D02*
X1028000Y1408696D01*
X1027500Y1409196D01*
D40*
X1027500Y1409196D03*
D41*
X260000Y1029000D02*
X245500Y1029000D01*
D42*
X245500Y1029000D03*
D41*
X325000Y1029000D02*
X338500Y1029000D01*
D42*
X338500Y1029000D03*
D10*
X796500Y1167000D02*
X796500Y1180500D01*
X789500Y1160000D02*
X789500Y1069000D01*
X778500Y1058000D01*
X772500Y1058000D01*
X789500Y1160000D02*
X796500Y1167000D01*
D41*
X353424Y1156452D02*
X251316Y1156452D01*
X251316Y1161452D02*
X353424Y1161452D01*
X353424Y1166452D02*
X251316Y1166452D01*
X251316Y1171452D02*
X353424Y1171452D01*
D44*
X379512Y1413260D02*
X379512Y1430988D01*
X379500Y1431000D01*
D40*
X379500Y1431000D03*
D44*
X309834Y1251736D02*
X295236Y1251736D01*
X294500Y1251000D01*
D40*
X294500Y1251000D03*
D44*
X286834Y1268736D02*
X287500Y1269402D01*
X287500Y1280000D01*
D40*
X287500Y1280000D03*
D44*
X308764Y1236736D02*
X319834Y1236736D01*
X308764Y1236736D02*
X308500Y1237000D01*
D40*
X308500Y1237000D03*
D44*
X327584Y1292486D02*
X327584Y1306916D01*
X327500Y1307000D01*
D40*
X327500Y1307000D03*
D44*
X256386Y1302096D02*
X256386Y1319886D01*
X256500Y1320000D01*
D40*
X256500Y1320000D03*
D44*
X253186Y1269096D02*
X253186Y1254314D01*
X253500Y1254000D01*
D40*
X253500Y1254000D03*
D44*
X239404Y1254314D02*
X239186Y1254096D01*
X239404Y1254314D02*
X253186Y1254314D01*
X253404Y1241096D02*
X239186Y1241096D01*
X253404Y1241096D02*
X253500Y1241000D01*
D40*
X253500Y1241000D03*
D44*
X182686Y1255096D02*
X169596Y1255096D01*
X169500Y1255000D01*
D40*
X169500Y1255000D03*
D44*
X161424Y1410076D02*
X135786Y1410076D01*
X161424Y1410076D02*
X161500Y1410000D01*
D40*
X161500Y1410000D03*
D44*
X283086Y1450716D02*
X343980Y1450716D01*
X359882Y1466618D01*
D40*
X359882Y1466618D03*
D44*
X621684Y1394816D02*
X632560Y1394816D01*
X621684Y1394816D02*
X621500Y1395000D01*
D40*
X621500Y1395000D03*
D44*
X662020Y1404480D02*
X662020Y1379758D01*
X662020Y1404480D02*
X661500Y1405000D01*
D40*
X661500Y1405000D03*
D44*
X631500Y1343710D02*
X634846Y1340364D01*
X631500Y1343710D02*
X631500Y1355000D01*
D40*
X631500Y1355000D03*
D44*
X693578Y1323636D02*
X707594Y1337652D01*
X707594Y1339984D01*
X721500Y1353890D01*
X721500Y1365000D01*
D40*
X721500Y1365000D03*
D44*
X723130Y1365000D02*
X737310Y1379180D01*
X723130Y1365000D02*
X721500Y1365000D01*
D43*
X830250Y1342000D02*
X832250Y1344000D01*
D44*
X830250Y1342000D02*
X830250Y1337040D01*
X837640Y1329650D01*
X837640Y1319140D01*
X837500Y1319000D01*
D40*
X837500Y1319000D03*
X831500Y1298046D03*
D44*
X814785Y1295135D02*
X814300Y1294650D01*
X814785Y1295135D02*
X822256Y1295135D01*
X825167Y1298046D02*
X831500Y1298046D01*
X825167Y1298046D02*
X822256Y1295135D01*
X854640Y1298860D02*
X854640Y1287740D01*
X854640Y1298860D02*
X854500Y1299000D01*
D40*
X854500Y1299000D03*
D44*
X484512Y1399012D02*
X484512Y1413260D01*
X484512Y1399012D02*
X484500Y1399000D01*
D40*
X484500Y1399000D03*
D44*
X757760Y1535000D02*
X757760Y1572740D01*
X757500Y1573000D01*
D40*
X757500Y1573000D03*
D44*
X757760Y1535000D02*
X767949Y1524811D01*
X771311Y1524811D01*
D40*
X771311Y1524811D03*
D44*
X851500Y1481000D02*
X862900Y1492400D01*
X851500Y1481000D02*
X851500Y1473658D01*
D40*
X851500Y1473658D03*
D44*
X469512Y1253260D02*
X469512Y1237012D01*
X469500Y1237000D01*
D40*
X469500Y1237000D03*
D44*
X394512Y1237012D02*
X394512Y1253260D01*
X394512Y1237012D02*
X394500Y1237000D01*
D40*
X394500Y1237000D03*
D46*
X251316Y1171452D02*
X243952Y1171452D01*
X236500Y1164000D01*
D40*
X236500Y1164000D03*
D46*
X238952Y1166452D02*
X251316Y1166452D01*
X238952Y1166452D02*
X236500Y1164000D01*
X239048Y1161452D02*
X251316Y1161452D01*
X239048Y1161452D02*
X236500Y1164000D01*
X244048Y1156452D02*
X251316Y1156452D01*
X244048Y1156452D02*
X236500Y1164000D01*
D50*
X664350Y1072000D02*
X664350Y1066150D01*
X670500Y1060000D01*
D40*
X670500Y1060000D03*
D50*
X677050Y1066550D02*
X677050Y1072000D01*
X677050Y1066550D02*
X670500Y1060000D01*
D41*
X523750Y1378250D02*
X523750Y1398000D01*
X523750Y1378250D02*
X523500Y1378000D01*
D40*
X523500Y1378000D03*
D41*
X553250Y1378250D02*
X553250Y1398000D01*
X553250Y1378250D02*
X553500Y1378000D01*
D40*
X553500Y1378000D03*
D41*
X268000Y1207000D02*
X268000Y1194500D01*
X268500Y1194000D01*
D40*
X268500Y1194000D03*
D41*
X364000Y1201500D02*
X364000Y1217000D01*
X364000Y1201500D02*
X364500Y1201000D01*
D40*
X364500Y1201000D03*
D42*
X1115500Y1223000D03*
D10*
X909500Y1538000D02*
X909500Y1571000D01*
D42*
X909500Y1571000D03*
D40*
X211500Y937600D03*
D49*
X592500Y1430851D02*
X586094Y1437257D01*
X592500Y1430851D02*
X592500Y1422000D01*
D40*
X592500Y1422000D03*
D49*
X592500Y1430963D02*
X598794Y1437257D01*
X592500Y1430963D02*
X592500Y1430851D01*
X693500Y1430975D02*
X699782Y1437257D01*
X693500Y1430975D02*
X693500Y1422000D01*
D40*
X693500Y1422000D03*
D49*
X687218Y1437257D02*
X687082Y1437257D01*
X687218Y1437257D02*
X693500Y1430975D01*
D41*
X264160Y1420236D02*
X135786Y1420236D01*
X264160Y1420236D02*
X272454Y1411942D01*
D45*
X311184Y1437228D03*
D41*
X295042Y1411942D02*
X272454Y1411942D01*
X295042Y1411942D02*
X311184Y1428084D01*
X311184Y1437228D01*
D51*
X1006280Y1445000D02*
X1015300Y1445000D01*
X1006280Y1445000D02*
X1006128Y1444848D01*
X1001556Y1449420D02*
X1001556Y1508856D01*
X996984Y1513428D01*
X984172Y1513428D01*
D40*
X984172Y1513428D03*
D51*
X1001556Y1449420D02*
X1006128Y1444848D01*
D41*
X288324Y1359276D02*
X283086Y1359276D01*
D45*
X1040700Y1445000D03*
X399576Y1373220D03*
D41*
X302268Y1373220D01*
X288324Y1359276D01*
D52*
X862900Y1441600D03*
D45*
X410244Y1393032D03*
D46*
X410244Y1253992D01*
X409512Y1253260D01*
D41*
X380753Y1106452D02*
X353424Y1106452D01*
X401500Y950800D02*
X414700Y937600D01*
X401500Y1085705D02*
X380753Y1106452D01*
X401500Y1085705D02*
X401500Y950800D01*
X353424Y1106452D02*
X251316Y1106452D01*
X353424Y1116452D02*
X396458Y1116452D01*
X440100Y963099D02*
X440100Y937600D01*
X440100Y963099D02*
X449244Y972243D01*
X449244Y1063666D01*
X396458Y1116452D01*
X353424Y1116452D02*
X251316Y1116452D01*
D45*
X989900Y1489000D03*
D41*
X151003Y1379596D02*
X135786Y1379596D01*
X151003Y1379596D02*
X161953Y1390547D01*
X162593Y1391186D01*
X299497Y1391186D01*
X402275Y1493965D01*
D45*
X989900Y1489000D03*
X469500Y1494000D03*
D41*
X469465Y1493965D01*
X402275Y1493965D01*
X353424Y1126452D02*
X251316Y1126452D01*
X353424Y1126452D02*
X372952Y1126452D01*
X381500Y1135000D01*
D40*
X381500Y1135000D03*
X161953Y1390547D03*
D41*
X913700Y1409800D02*
X913700Y1445000D01*
X913700Y1409800D02*
X928500Y1395000D01*
D42*
X928500Y1395000D03*
D46*
X221686Y1241096D02*
X210686Y1241096D01*
X206186Y1245596D01*
X304584Y1268986D02*
X318084Y1268986D01*
X304584Y1268986D02*
X304334Y1268736D01*
X362988Y1251736D02*
X364512Y1253260D01*
X362988Y1251736D02*
X337334Y1251736D01*
X337334Y1236736D01*
D44*
X337084Y1251986D02*
X337084Y1268986D01*
X337084Y1251986D02*
X337334Y1251736D01*
D46*
X206186Y1264596D02*
X206186Y1281780D01*
X206186Y1301496D01*
X205586Y1302096D01*
X206186Y1264596D02*
X221186Y1264596D01*
X221686Y1265096D01*
X221686Y1254096D01*
X221686Y1265096D02*
X225686Y1269096D01*
X175102Y1281780D02*
X154786Y1302096D01*
X175102Y1281780D02*
X195500Y1281780D01*
X206186Y1281780D01*
X135786Y1430396D02*
X122996Y1430396D01*
X120684Y1428084D01*
X120684Y1336198D01*
X154786Y1302096D01*
D41*
X195426Y1302096D02*
X195426Y1281854D01*
X195500Y1281780D01*
D49*
X754310Y1313140D02*
X764860Y1313140D01*
X767400Y1315680D01*
X771300Y1311780D01*
X771300Y1308182D01*
X769819Y1308182D01*
X767400Y1310600D01*
X767400Y1315680D02*
X773750Y1322030D01*
X773750Y1328348D01*
X786450Y1328348D01*
X799150Y1328348D01*
D46*
X771300Y1301150D02*
X751500Y1301150D01*
X746640Y1301150D01*
D47*
X691500Y1465000D02*
X691500Y1485000D01*
D53*
X693686Y1473833D02*
X672953Y1473833D01*
X665500Y1466380D01*
D54*
X665500Y1466380D03*
X711500Y1285000D03*
D53*
X718456Y1473833D02*
X693686Y1473833D01*
D49*
X729890Y1285000D02*
X730490Y1285000D01*
X729890Y1285000D02*
X711500Y1285000D01*
D41*
X711500Y1287330D02*
X737310Y1313140D01*
X711500Y1287330D02*
X711500Y1285000D01*
X749300Y1301150D02*
X751500Y1301150D01*
X749300Y1301150D02*
X737310Y1313140D01*
D49*
X729890Y1285000D02*
X737310Y1277580D01*
D46*
X811850Y1314410D02*
X811850Y1328348D01*
X811850Y1314410D02*
X814300Y1311960D01*
X814300Y1307650D01*
D49*
X773718Y1379180D02*
X754310Y1379180D01*
X773718Y1379180D02*
X773750Y1379212D01*
X786450Y1379212D01*
X799150Y1379212D01*
X811850Y1379212D01*
X832592Y1379212D02*
X837640Y1384260D01*
X832592Y1379212D02*
X811850Y1379212D01*
D47*
X560694Y1437257D02*
X560437Y1437000D01*
X573137Y1437000D02*
X573394Y1437257D01*
X573137Y1437000D02*
X560437Y1437000D01*
X541500Y1437000D01*
X541500Y1535000D01*
X754310Y1379180D02*
X754310Y1356098D01*
X705900Y1307688D01*
X666500Y1307688D01*
X640368Y1307688D01*
X573312Y1374744D01*
X573312Y1437175D01*
D44*
X573394Y1437257D01*
D41*
X856750Y1365150D02*
X856750Y1360000D01*
X856750Y1365150D02*
X837640Y1384260D01*
D44*
X814300Y1301150D02*
X802350Y1301150D01*
X797500Y1306000D01*
D45*
X797500Y1306000D03*
X666500Y1307688D03*
D46*
X833420Y1288150D02*
X837640Y1287740D01*
X833420Y1288150D02*
X814300Y1288150D01*
D49*
X854640Y1329650D02*
X875350Y1329650D01*
D43*
X856750Y1331760D02*
X854640Y1329650D01*
D49*
X876620Y1331310D02*
X886192Y1340882D01*
D53*
X589500Y1520000D02*
X568500Y1520000D01*
D40*
X589500Y1520000D03*
D54*
X881500Y1385000D03*
D49*
X886192Y1380308D02*
X886192Y1340882D01*
X886192Y1380308D02*
X881500Y1385000D01*
D50*
X855380Y1385000D02*
X854640Y1384260D01*
X855380Y1385000D02*
X860808Y1385000D01*
X860873Y1384935D01*
X865503Y1384935D01*
X865568Y1385000D01*
X881500Y1385000D01*
D10*
X844500Y1352000D02*
X852500Y1344000D01*
X856750Y1344000D01*
X856750Y1331760D01*
D43*
X856750Y1348000D02*
X876310Y1348000D01*
X876620Y1348310D01*
D44*
X760730Y1277580D02*
X754310Y1277580D01*
X760730Y1277580D02*
X771300Y1288150D01*
X652520Y1340538D02*
X652520Y1356258D01*
X652520Y1340538D02*
X652346Y1340364D01*
X652520Y1379758D02*
X652520Y1391856D01*
X649560Y1394816D01*
X436884Y1611090D02*
X421436Y1595626D01*
X401436Y1575626D02*
X381436Y1575626D01*
X401436Y1575626D02*
X421436Y1595626D01*
X580535Y1611161D02*
X609676Y1582021D01*
X609676Y1524308D01*
X580535Y1611161D02*
X436884Y1611090D01*
X649244Y1484740D02*
X649244Y1395132D01*
X649560Y1394816D01*
X649244Y1484740D02*
X609676Y1524308D01*
D41*
X353424Y1136452D02*
X251316Y1136452D01*
X251316Y1141452D02*
X353424Y1141452D01*
X353424Y1146452D02*
X251316Y1146452D01*
X251316Y1151452D02*
X353424Y1151452D01*
D46*
X251316Y1151452D02*
X243952Y1151452D01*
X236500Y1144000D01*
D40*
X236500Y1144000D03*
D46*
X244048Y1136452D02*
X251316Y1136452D01*
X244048Y1136452D02*
X236500Y1144000D01*
X239048Y1141452D02*
X251316Y1141452D01*
X239048Y1141452D02*
X236500Y1144000D01*
X238952Y1146452D02*
X251316Y1146452D01*
X238952Y1146452D02*
X236500Y1144000D01*
X371500Y1566000D02*
X371500Y1575562D01*
X371436Y1575626D01*
D40*
X371500Y1566000D03*
D50*
X740550Y1072000D02*
X740550Y1065950D01*
X746500Y1060000D01*
D40*
X746500Y1060000D03*
D50*
X753250Y1066750D02*
X753250Y1072000D01*
X753250Y1066750D02*
X746500Y1060000D01*
X671520Y1379758D02*
X671520Y1385020D01*
X681500Y1395000D01*
D40*
X681500Y1395000D03*
D55*
X592190Y1473833D02*
X567298Y1473833D01*
X592190Y1473833D02*
X612667Y1473833D01*
X621500Y1465000D01*
D48*
X621500Y1465000D03*
D41*
X193040Y1274950D02*
X182686Y1264596D01*
X193040Y1274950D02*
X193500Y1274950D01*
D40*
X193500Y1274950D03*
D41*
X305500Y1330000D02*
X319000Y1330000D01*
X301500Y1326000D02*
X301500Y1315000D01*
D40*
X301500Y1315000D03*
D41*
X301500Y1326000D02*
X305500Y1330000D01*
D42*
X1093500Y1266000D03*
D47*
X725439Y1437000D02*
X725182Y1437257D01*
X737760Y1437260D02*
X737760Y1535000D01*
X737760Y1437260D02*
X737500Y1437000D01*
X725439Y1437000D01*
X725182Y1437257D02*
X712482Y1437257D01*
D41*
X304133Y1378580D02*
X267427Y1378580D01*
X304133Y1378580D02*
X403276Y1477724D01*
D45*
X1040700Y1489000D03*
D41*
X267427Y1378580D02*
X222174Y1333326D01*
D45*
X446820Y1476057D03*
D41*
X445154Y1477724D01*
X403276Y1477724D01*
X151936Y1369436D02*
X135786Y1369436D01*
X151936Y1369436D02*
X156500Y1374000D01*
D42*
X156500Y1374000D03*
X222174Y1333326D03*
D41*
X264160Y1399916D02*
X135786Y1399916D01*
X264160Y1399916D02*
X272122Y1407878D01*
X310441Y1407878D02*
X401688Y1499124D01*
X310441Y1407878D02*
X272122Y1407878D01*
D40*
X1066100Y1492400D03*
X410244Y1507332D03*
D51*
X402036Y1499124D01*
X401688Y1499124D01*
D41*
X771300Y1294650D02*
X791850Y1294650D01*
X831500Y1255000D01*
D40*
X831500Y1255000D03*
X1066500Y1382000D03*
D41*
X1066500Y1441200D01*
X1066100Y1441600D01*
X1066500Y1382000D02*
X1045000Y1382000D01*
X538490Y1413260D02*
X499512Y1413260D01*
X538490Y1413260D02*
X538500Y1413250D01*
X337598Y1293000D02*
X337084Y1292486D01*
X337598Y1293000D02*
X338000Y1330000D01*
D56*
X551500Y1185000D03*
M02*
