G04 EAGLE Gerber RS-274X export*
G75*
%MOMM*%
%FSLAX34Y34*%
%LPD*%
%INLayer 2*%
%IPPOS*%
%AMOC8*
5,1,8,0,0,1.08239X$1,22.5*%
G01*
%ADD10C,0.756400*%
%ADD11C,0.706400*%
%ADD12C,0.806400*%
%ADD13C,1.006400*%
%ADD14C,0.856400*%
%ADD15C,1.056400*%
%ADD16C,2.540000*%
%ADD17C,0.304800*%
%ADD18C,0.508000*%
%ADD19C,0.254000*%
%ADD20C,6.316000*%

G36*
X471502Y914997D02*
X471502Y914997D01*
X471503Y914997D01*
X581502Y1024996D01*
X1151500Y1024996D01*
X1151502Y1024997D01*
X1151503Y1024997D01*
X1171503Y1044997D01*
X1171503Y1044998D01*
X1171503Y1044999D01*
X1171504Y1045000D01*
X1171504Y1485000D01*
X1171503Y1485002D01*
X1171503Y1485003D01*
X1151503Y1505003D01*
X1151501Y1505003D01*
X1151500Y1505004D01*
X981502Y1505004D01*
X914564Y1571942D01*
X914563Y1571942D01*
X914562Y1571943D01*
X914560Y1571942D01*
X914558Y1571942D01*
X914558Y1571940D01*
X914557Y1571939D01*
X914557Y1568905D01*
X911595Y1565943D01*
X907405Y1565943D01*
X904443Y1568905D01*
X904443Y1573095D01*
X907405Y1576057D01*
X910439Y1576057D01*
X910440Y1576058D01*
X910442Y1576058D01*
X910442Y1576059D01*
X910443Y1576060D01*
X910442Y1576062D01*
X910442Y1576064D01*
X881503Y1605003D01*
X881501Y1605003D01*
X881500Y1605004D01*
X601500Y1605004D01*
X601498Y1605003D01*
X601497Y1605003D01*
X581497Y1585003D01*
X581497Y1585001D01*
X581496Y1585000D01*
X581496Y1565000D01*
X581497Y1564998D01*
X581497Y1564997D01*
X601497Y1544997D01*
X601499Y1544997D01*
X601500Y1544996D01*
X644290Y1544996D01*
X644292Y1544997D01*
X644294Y1544998D01*
X644294Y1544999D01*
X644293Y1545001D01*
X644292Y1545004D01*
X639074Y1547165D01*
X634561Y1551678D01*
X632119Y1557573D01*
X632119Y1563955D01*
X634561Y1569850D01*
X639074Y1574363D01*
X644969Y1576805D01*
X651351Y1576805D01*
X657246Y1574363D01*
X661759Y1569850D01*
X664201Y1563955D01*
X664201Y1557573D01*
X661759Y1551678D01*
X657246Y1547165D01*
X652028Y1545004D01*
X652027Y1545002D01*
X652026Y1545001D01*
X652026Y1545000D01*
X652026Y1544999D01*
X652028Y1544998D01*
X652030Y1544996D01*
X761498Y1544996D01*
X851497Y1454997D01*
X851499Y1454997D01*
X851500Y1454996D01*
X871498Y1454996D01*
X901496Y1424998D01*
X901496Y1375002D01*
X891498Y1365004D01*
X824717Y1365004D01*
X824716Y1365003D01*
X824714Y1365003D01*
X824714Y1365002D01*
X824713Y1365001D01*
X824714Y1364999D01*
X824714Y1364997D01*
X824905Y1364806D01*
X824905Y1360410D01*
X821796Y1357301D01*
X817400Y1357301D01*
X814291Y1360410D01*
X814291Y1364806D01*
X814482Y1364997D01*
X814482Y1364998D01*
X814483Y1364999D01*
X814482Y1365001D01*
X814482Y1365003D01*
X814480Y1365003D01*
X814479Y1365004D01*
X801500Y1365004D01*
X801498Y1365003D01*
X801497Y1365003D01*
X794256Y1357762D01*
X794256Y1357761D01*
X794255Y1357760D01*
X794256Y1357758D01*
X794256Y1357756D01*
X794258Y1357756D01*
X794259Y1357755D01*
X794872Y1357755D01*
X797981Y1354646D01*
X797981Y1350250D01*
X794872Y1347141D01*
X791500Y1347141D01*
X791496Y1347138D01*
X791496Y1347137D01*
X791496Y1275002D01*
X771498Y1255004D01*
X711502Y1255004D01*
X691504Y1275002D01*
X691504Y1415000D01*
X691503Y1415002D01*
X691503Y1415003D01*
X671503Y1435003D01*
X671501Y1435003D01*
X671500Y1435004D01*
X661502Y1435004D01*
X641504Y1455002D01*
X641504Y1485000D01*
X641503Y1485002D01*
X641503Y1485003D01*
X631503Y1495003D01*
X631501Y1495003D01*
X631500Y1495004D01*
X571502Y1495004D01*
X551504Y1515002D01*
X551504Y1585000D01*
X551503Y1585002D01*
X551503Y1585003D01*
X531503Y1605003D01*
X531501Y1605003D01*
X531500Y1605004D01*
X371500Y1605004D01*
X371498Y1605003D01*
X371497Y1605003D01*
X360681Y1594187D01*
X360681Y1594186D01*
X360680Y1594185D01*
X360681Y1594183D01*
X360681Y1594181D01*
X361981Y1592881D01*
X362977Y1590477D01*
X362977Y1587875D01*
X361981Y1585471D01*
X360141Y1583631D01*
X357737Y1582635D01*
X355135Y1582635D01*
X352731Y1583631D01*
X351503Y1584859D01*
X351502Y1584859D01*
X351501Y1584860D01*
X351499Y1584859D01*
X351497Y1584859D01*
X351497Y1584857D01*
X351496Y1584856D01*
X351496Y1465002D01*
X331498Y1445004D01*
X141500Y1445004D01*
X141498Y1445003D01*
X141497Y1445003D01*
X121497Y1425003D01*
X121497Y1425002D01*
X121496Y1425001D01*
X121496Y1425000D01*
X121496Y945000D01*
X121497Y944998D01*
X121497Y944997D01*
X151497Y914997D01*
X151499Y914997D01*
X151500Y914996D01*
X471500Y914996D01*
X471502Y914997D01*
G37*
G36*
X471502Y114997D02*
X471502Y114997D01*
X471503Y114997D01*
X581502Y224996D01*
X1151500Y224996D01*
X1151502Y224997D01*
X1151503Y224997D01*
X1171503Y244997D01*
X1171503Y244998D01*
X1171503Y244999D01*
X1171504Y245000D01*
X1171504Y685000D01*
X1171503Y685002D01*
X1171503Y685003D01*
X1151503Y705003D01*
X1151501Y705003D01*
X1151500Y705004D01*
X981502Y705004D01*
X914564Y771942D01*
X914563Y771942D01*
X914562Y771943D01*
X914560Y771942D01*
X914558Y771942D01*
X914558Y771940D01*
X914557Y771939D01*
X914557Y768905D01*
X911595Y765943D01*
X907405Y765943D01*
X904443Y768905D01*
X904443Y773095D01*
X907405Y776057D01*
X910439Y776057D01*
X910440Y776058D01*
X910442Y776058D01*
X910442Y776059D01*
X910443Y776060D01*
X910442Y776062D01*
X910442Y776064D01*
X881503Y805003D01*
X881501Y805003D01*
X881500Y805004D01*
X601500Y805004D01*
X601498Y805003D01*
X601497Y805003D01*
X581497Y785003D01*
X581497Y785001D01*
X581496Y785000D01*
X581496Y765000D01*
X581497Y764998D01*
X581497Y764997D01*
X601497Y744997D01*
X601499Y744997D01*
X601500Y744996D01*
X644290Y744996D01*
X644292Y744997D01*
X644294Y744998D01*
X644294Y744999D01*
X644293Y745001D01*
X644292Y745004D01*
X639074Y747165D01*
X634561Y751678D01*
X632119Y757573D01*
X632119Y763955D01*
X634561Y769850D01*
X639074Y774363D01*
X644969Y776805D01*
X651351Y776805D01*
X657246Y774363D01*
X661759Y769850D01*
X664201Y763955D01*
X664201Y757573D01*
X661759Y751678D01*
X657246Y747165D01*
X652028Y745004D01*
X652027Y745002D01*
X652026Y745001D01*
X652026Y745000D01*
X652026Y744999D01*
X652028Y744998D01*
X652030Y744996D01*
X761498Y744996D01*
X851497Y654997D01*
X851499Y654997D01*
X851500Y654996D01*
X871498Y654996D01*
X901496Y624998D01*
X901496Y575002D01*
X891498Y565004D01*
X824717Y565004D01*
X824716Y565003D01*
X824714Y565003D01*
X824714Y565002D01*
X824713Y565001D01*
X824714Y564999D01*
X824714Y564997D01*
X824905Y564806D01*
X824905Y560410D01*
X821796Y557301D01*
X817400Y557301D01*
X814291Y560410D01*
X814291Y564806D01*
X814482Y564997D01*
X814482Y564998D01*
X814483Y564999D01*
X814482Y565001D01*
X814482Y565003D01*
X814480Y565003D01*
X814479Y565004D01*
X801500Y565004D01*
X801498Y565003D01*
X801497Y565003D01*
X794256Y557762D01*
X794256Y557761D01*
X794255Y557760D01*
X794256Y557758D01*
X794256Y557756D01*
X794258Y557756D01*
X794259Y557755D01*
X794872Y557755D01*
X797981Y554646D01*
X797981Y550250D01*
X794872Y547141D01*
X791500Y547141D01*
X791496Y547138D01*
X791496Y547137D01*
X791496Y475002D01*
X771498Y455004D01*
X711502Y455004D01*
X691504Y475002D01*
X691504Y615000D01*
X691503Y615002D01*
X691503Y615003D01*
X671503Y635003D01*
X671501Y635003D01*
X671500Y635004D01*
X661502Y635004D01*
X641504Y655002D01*
X641504Y685000D01*
X641503Y685002D01*
X641503Y685003D01*
X631503Y695003D01*
X631501Y695003D01*
X631500Y695004D01*
X571502Y695004D01*
X551504Y715002D01*
X551504Y785000D01*
X551503Y785002D01*
X551503Y785003D01*
X531503Y805003D01*
X531501Y805003D01*
X531500Y805004D01*
X371500Y805004D01*
X371498Y805003D01*
X371497Y805003D01*
X360681Y794187D01*
X360681Y794186D01*
X360680Y794185D01*
X360681Y794183D01*
X360681Y794181D01*
X361981Y792881D01*
X362977Y790477D01*
X362977Y787875D01*
X361981Y785471D01*
X360141Y783631D01*
X357737Y782635D01*
X355135Y782635D01*
X352731Y783631D01*
X351503Y784859D01*
X351502Y784859D01*
X351501Y784860D01*
X351499Y784859D01*
X351497Y784859D01*
X351497Y784857D01*
X351496Y784856D01*
X351496Y665002D01*
X331498Y645004D01*
X141500Y645004D01*
X141498Y645003D01*
X141497Y645003D01*
X121497Y625003D01*
X121497Y625002D01*
X121496Y625001D01*
X121496Y625000D01*
X121496Y145000D01*
X121497Y144998D01*
X121497Y144997D01*
X151497Y114997D01*
X151499Y114997D01*
X151500Y114996D01*
X471500Y114996D01*
X471502Y114997D01*
G37*
%LPC*%
G36*
X547142Y1151895D02*
X547142Y1151895D01*
X538722Y1154151D01*
X531173Y1158510D01*
X525010Y1164673D01*
X520651Y1172222D01*
X518395Y1180642D01*
X518395Y1189358D01*
X520651Y1197778D01*
X525010Y1205327D01*
X531173Y1211490D01*
X538722Y1215849D01*
X547142Y1218105D01*
X555858Y1218105D01*
X564278Y1215849D01*
X571827Y1211490D01*
X577990Y1205327D01*
X582349Y1197778D01*
X584605Y1189358D01*
X584605Y1180642D01*
X582349Y1172222D01*
X577990Y1164673D01*
X571827Y1158510D01*
X564278Y1154151D01*
X555858Y1151895D01*
X547142Y1151895D01*
G37*
%LPD*%
%LPC*%
G36*
X547142Y351895D02*
X547142Y351895D01*
X538722Y354151D01*
X531173Y358510D01*
X525010Y364673D01*
X520651Y372222D01*
X518395Y380642D01*
X518395Y389358D01*
X520651Y397778D01*
X525010Y405327D01*
X531173Y411490D01*
X538722Y415849D01*
X547142Y418105D01*
X555858Y418105D01*
X564278Y415849D01*
X571827Y411490D01*
X577990Y405327D01*
X582349Y397778D01*
X584605Y389358D01*
X584605Y380642D01*
X582349Y372222D01*
X577990Y364673D01*
X571827Y358510D01*
X564278Y354151D01*
X555858Y351895D01*
X547142Y351895D01*
G37*
%LPD*%
%LPC*%
G36*
X445009Y1544723D02*
X445009Y1544723D01*
X439114Y1547165D01*
X434601Y1551678D01*
X432159Y1557573D01*
X432159Y1563955D01*
X434601Y1569850D01*
X439114Y1574363D01*
X445009Y1576805D01*
X451391Y1576805D01*
X457286Y1574363D01*
X461799Y1569850D01*
X464241Y1563955D01*
X464241Y1557573D01*
X461799Y1551678D01*
X457286Y1547165D01*
X451391Y1544723D01*
X445009Y1544723D01*
G37*
%LPD*%
%LPC*%
G36*
X845009Y1545223D02*
X845009Y1545223D01*
X839114Y1547665D01*
X834601Y1552178D01*
X832159Y1558073D01*
X832159Y1564455D01*
X834601Y1570350D01*
X839114Y1574863D01*
X845009Y1577305D01*
X851391Y1577305D01*
X857286Y1574863D01*
X861799Y1570350D01*
X864241Y1564455D01*
X864241Y1558073D01*
X861799Y1552178D01*
X857286Y1547665D01*
X851391Y1545223D01*
X845009Y1545223D01*
G37*
%LPD*%
%LPC*%
G36*
X445009Y744723D02*
X445009Y744723D01*
X439114Y747165D01*
X434601Y751678D01*
X432159Y757573D01*
X432159Y763955D01*
X434601Y769850D01*
X439114Y774363D01*
X445009Y776805D01*
X451391Y776805D01*
X457286Y774363D01*
X461799Y769850D01*
X464241Y763955D01*
X464241Y757573D01*
X461799Y751678D01*
X457286Y747165D01*
X451391Y744723D01*
X445009Y744723D01*
G37*
%LPD*%
%LPC*%
G36*
X845009Y745223D02*
X845009Y745223D01*
X839114Y747665D01*
X834601Y752178D01*
X832159Y758073D01*
X832159Y764455D01*
X834601Y770350D01*
X839114Y774863D01*
X845009Y777305D01*
X851391Y777305D01*
X857286Y774863D01*
X861799Y770350D01*
X864241Y764455D01*
X864241Y758073D01*
X861799Y752178D01*
X857286Y747665D01*
X851391Y745223D01*
X845009Y745223D01*
G37*
%LPD*%
%LPC*%
G36*
X798604Y241209D02*
X798604Y241209D01*
X794638Y242852D01*
X791602Y245888D01*
X789959Y249854D01*
X789959Y254146D01*
X791602Y258112D01*
X794638Y261148D01*
X798604Y262791D01*
X802896Y262791D01*
X806862Y261148D01*
X809898Y258112D01*
X811541Y254146D01*
X811541Y249854D01*
X809898Y245888D01*
X806862Y242852D01*
X802896Y241209D01*
X798604Y241209D01*
G37*
%LPD*%
%LPC*%
G36*
X640104Y241209D02*
X640104Y241209D01*
X636138Y242852D01*
X633102Y245888D01*
X631459Y249854D01*
X631459Y254146D01*
X633102Y258112D01*
X636138Y261148D01*
X640104Y262791D01*
X644396Y262791D01*
X648362Y261148D01*
X651398Y258112D01*
X653041Y254146D01*
X653041Y249854D01*
X651398Y245888D01*
X648362Y242852D01*
X644396Y241209D01*
X640104Y241209D01*
G37*
%LPD*%
%LPC*%
G36*
X798604Y1041209D02*
X798604Y1041209D01*
X794638Y1042852D01*
X791602Y1045888D01*
X789959Y1049854D01*
X789959Y1054146D01*
X791602Y1058112D01*
X794638Y1061148D01*
X798604Y1062791D01*
X802896Y1062791D01*
X806862Y1061148D01*
X809898Y1058112D01*
X811541Y1054146D01*
X811541Y1049854D01*
X809898Y1045888D01*
X806862Y1042852D01*
X802896Y1041209D01*
X798604Y1041209D01*
G37*
%LPD*%
%LPC*%
G36*
X640104Y1041209D02*
X640104Y1041209D01*
X636138Y1042852D01*
X633102Y1045888D01*
X631459Y1049854D01*
X631459Y1054146D01*
X633102Y1058112D01*
X636138Y1061148D01*
X640104Y1062791D01*
X644396Y1062791D01*
X648362Y1061148D01*
X651398Y1058112D01*
X653041Y1054146D01*
X653041Y1049854D01*
X651398Y1045888D01*
X648362Y1042852D01*
X644396Y1041209D01*
X640104Y1041209D01*
G37*
%LPD*%
%LPC*%
G36*
X425323Y952559D02*
X425323Y952559D01*
X421486Y954149D01*
X418549Y957086D01*
X416959Y960923D01*
X416959Y965077D01*
X418549Y968914D01*
X421486Y971851D01*
X425323Y973441D01*
X429477Y973441D01*
X433314Y971851D01*
X436251Y968914D01*
X437841Y965077D01*
X437841Y960923D01*
X436251Y957086D01*
X433314Y954149D01*
X429477Y952559D01*
X425323Y952559D01*
G37*
%LPD*%
%LPC*%
G36*
X222123Y952559D02*
X222123Y952559D01*
X218286Y954149D01*
X215349Y957086D01*
X213759Y960923D01*
X213759Y965077D01*
X215349Y968914D01*
X218286Y971851D01*
X222123Y973441D01*
X226277Y973441D01*
X230114Y971851D01*
X233051Y968914D01*
X234641Y965077D01*
X234641Y960923D01*
X233051Y957086D01*
X230114Y954149D01*
X226277Y952559D01*
X222123Y952559D01*
G37*
%LPD*%
%LPC*%
G36*
X873523Y656559D02*
X873523Y656559D01*
X869686Y658149D01*
X866749Y661086D01*
X865159Y664923D01*
X865159Y669077D01*
X866749Y672914D01*
X869686Y675851D01*
X873523Y677441D01*
X877677Y677441D01*
X881514Y675851D01*
X884451Y672914D01*
X886041Y669077D01*
X886041Y664923D01*
X884451Y661086D01*
X881514Y658149D01*
X877677Y656559D01*
X873523Y656559D01*
G37*
%LPD*%
%LPC*%
G36*
X1076723Y1456559D02*
X1076723Y1456559D01*
X1072886Y1458149D01*
X1069949Y1461086D01*
X1068359Y1464923D01*
X1068359Y1469077D01*
X1069949Y1472914D01*
X1072886Y1475851D01*
X1076723Y1477441D01*
X1080877Y1477441D01*
X1084714Y1475851D01*
X1087651Y1472914D01*
X1089241Y1469077D01*
X1089241Y1464923D01*
X1087651Y1461086D01*
X1084714Y1458149D01*
X1080877Y1456559D01*
X1076723Y1456559D01*
G37*
%LPD*%
%LPC*%
G36*
X873523Y1456559D02*
X873523Y1456559D01*
X869686Y1458149D01*
X866749Y1461086D01*
X865159Y1464923D01*
X865159Y1469077D01*
X866749Y1472914D01*
X869686Y1475851D01*
X873523Y1477441D01*
X877677Y1477441D01*
X881514Y1475851D01*
X884451Y1472914D01*
X886041Y1469077D01*
X886041Y1464923D01*
X884451Y1461086D01*
X881514Y1458149D01*
X877677Y1456559D01*
X873523Y1456559D01*
G37*
%LPD*%
%LPC*%
G36*
X1059013Y1225359D02*
X1059013Y1225359D01*
X1055176Y1226949D01*
X1052239Y1229886D01*
X1050649Y1233723D01*
X1050649Y1237877D01*
X1052239Y1241714D01*
X1055176Y1244651D01*
X1059013Y1246241D01*
X1063167Y1246241D01*
X1067004Y1244651D01*
X1069941Y1241714D01*
X1071531Y1237877D01*
X1071531Y1233723D01*
X1069941Y1229886D01*
X1067004Y1226949D01*
X1063167Y1225359D01*
X1059013Y1225359D01*
G37*
%LPD*%
%LPC*%
G36*
X222123Y152559D02*
X222123Y152559D01*
X218286Y154149D01*
X215349Y157086D01*
X213759Y160923D01*
X213759Y165077D01*
X215349Y168914D01*
X218286Y171851D01*
X222123Y173441D01*
X226277Y173441D01*
X230114Y171851D01*
X233051Y168914D01*
X234641Y165077D01*
X234641Y160923D01*
X233051Y157086D01*
X230114Y154149D01*
X226277Y152559D01*
X222123Y152559D01*
G37*
%LPD*%
%LPC*%
G36*
X1059013Y1123759D02*
X1059013Y1123759D01*
X1055176Y1125349D01*
X1052239Y1128286D01*
X1050649Y1132123D01*
X1050649Y1136277D01*
X1052239Y1140114D01*
X1055176Y1143051D01*
X1059013Y1144641D01*
X1063167Y1144641D01*
X1067004Y1143051D01*
X1069941Y1140114D01*
X1071531Y1136277D01*
X1071531Y1132123D01*
X1069941Y1128286D01*
X1067004Y1125349D01*
X1063167Y1123759D01*
X1059013Y1123759D01*
G37*
%LPD*%
%LPC*%
G36*
X1076723Y656559D02*
X1076723Y656559D01*
X1072886Y658149D01*
X1069949Y661086D01*
X1068359Y664923D01*
X1068359Y669077D01*
X1069949Y672914D01*
X1072886Y675851D01*
X1076723Y677441D01*
X1080877Y677441D01*
X1084714Y675851D01*
X1087651Y672914D01*
X1089241Y669077D01*
X1089241Y664923D01*
X1087651Y661086D01*
X1084714Y658149D01*
X1080877Y656559D01*
X1076723Y656559D01*
G37*
%LPD*%
%LPC*%
G36*
X1059013Y425359D02*
X1059013Y425359D01*
X1055176Y426949D01*
X1052239Y429886D01*
X1050649Y433723D01*
X1050649Y437877D01*
X1052239Y441714D01*
X1055176Y444651D01*
X1059013Y446241D01*
X1063167Y446241D01*
X1067004Y444651D01*
X1069941Y441714D01*
X1071531Y437877D01*
X1071531Y433723D01*
X1069941Y429886D01*
X1067004Y426949D01*
X1063167Y425359D01*
X1059013Y425359D01*
G37*
%LPD*%
%LPC*%
G36*
X1059013Y323759D02*
X1059013Y323759D01*
X1055176Y325349D01*
X1052239Y328286D01*
X1050649Y332123D01*
X1050649Y336277D01*
X1052239Y340114D01*
X1055176Y343051D01*
X1059013Y344641D01*
X1063167Y344641D01*
X1067004Y343051D01*
X1069941Y340114D01*
X1071531Y336277D01*
X1071531Y332123D01*
X1069941Y328286D01*
X1067004Y325349D01*
X1063167Y323759D01*
X1059013Y323759D01*
G37*
%LPD*%
%LPC*%
G36*
X425323Y152559D02*
X425323Y152559D01*
X421486Y154149D01*
X418549Y157086D01*
X416959Y160923D01*
X416959Y165077D01*
X418549Y168914D01*
X421486Y171851D01*
X425323Y173441D01*
X429477Y173441D01*
X433314Y171851D01*
X436251Y168914D01*
X437841Y165077D01*
X437841Y160923D01*
X436251Y157086D01*
X433314Y154149D01*
X429477Y152559D01*
X425323Y152559D01*
G37*
%LPD*%
%LPC*%
G36*
X422313Y1326719D02*
X422313Y1326719D01*
X419174Y1328020D01*
X416772Y1330422D01*
X415471Y1333561D01*
X415471Y1336959D01*
X416772Y1340098D01*
X419174Y1342500D01*
X422313Y1343801D01*
X425711Y1343801D01*
X428850Y1342500D01*
X431252Y1340098D01*
X432553Y1336959D01*
X432553Y1333561D01*
X431252Y1330422D01*
X428850Y1328020D01*
X425711Y1326719D01*
X422313Y1326719D01*
G37*
%LPD*%
%LPC*%
G36*
X422313Y526719D02*
X422313Y526719D01*
X419174Y528020D01*
X416772Y530422D01*
X415471Y533561D01*
X415471Y536959D01*
X416772Y540098D01*
X419174Y542500D01*
X422313Y543801D01*
X425711Y543801D01*
X428850Y542500D01*
X431252Y540098D01*
X432553Y536959D01*
X432553Y533561D01*
X431252Y530422D01*
X428850Y528020D01*
X425711Y526719D01*
X422313Y526719D01*
G37*
%LPD*%
%LPC*%
G36*
X771196Y251443D02*
X771196Y251443D01*
X768786Y252441D01*
X766941Y254286D01*
X765943Y256696D01*
X765943Y259304D01*
X766941Y261714D01*
X768786Y263559D01*
X771196Y264557D01*
X773804Y264557D01*
X776214Y263559D01*
X778059Y261714D01*
X779057Y259304D01*
X779057Y256696D01*
X778059Y254286D01*
X776214Y252441D01*
X773804Y251443D01*
X771196Y251443D01*
G37*
%LPD*%
%LPC*%
G36*
X771196Y1051443D02*
X771196Y1051443D01*
X768786Y1052441D01*
X766941Y1054286D01*
X765943Y1056696D01*
X765943Y1059304D01*
X766941Y1061714D01*
X768786Y1063559D01*
X771196Y1064557D01*
X773804Y1064557D01*
X776214Y1063559D01*
X778059Y1061714D01*
X779057Y1059304D01*
X779057Y1056696D01*
X778059Y1054286D01*
X776214Y1052441D01*
X773804Y1051443D01*
X771196Y1051443D01*
G37*
%LPD*%
%LPC*%
G36*
X385135Y782635D02*
X385135Y782635D01*
X382731Y783631D01*
X380891Y785471D01*
X379895Y787875D01*
X379895Y790477D01*
X380891Y792881D01*
X382731Y794721D01*
X385135Y795717D01*
X387737Y795717D01*
X390141Y794721D01*
X391981Y792881D01*
X392977Y790477D01*
X392977Y787875D01*
X391981Y785471D01*
X390141Y783631D01*
X387737Y782635D01*
X385135Y782635D01*
G37*
%LPD*%
%LPC*%
G36*
X385135Y1582635D02*
X385135Y1582635D01*
X382731Y1583631D01*
X380891Y1585471D01*
X379895Y1587875D01*
X379895Y1590477D01*
X380891Y1592881D01*
X382731Y1594721D01*
X385135Y1595717D01*
X387737Y1595717D01*
X390141Y1594721D01*
X391981Y1592881D01*
X392977Y1590477D01*
X392977Y1587875D01*
X391981Y1585471D01*
X390141Y1583631D01*
X387737Y1582635D01*
X385135Y1582635D01*
G37*
%LPD*%
%LPC*%
G36*
X397274Y567663D02*
X397274Y567663D01*
X394019Y570918D01*
X394019Y575522D01*
X397274Y578777D01*
X401878Y578777D01*
X405133Y575522D01*
X405133Y570918D01*
X401878Y567663D01*
X397274Y567663D01*
G37*
%LPD*%
%LPC*%
G36*
X308882Y631671D02*
X308882Y631671D01*
X305627Y634926D01*
X305627Y639530D01*
X308882Y642785D01*
X313486Y642785D01*
X316741Y639530D01*
X316741Y634926D01*
X313486Y631671D01*
X308882Y631671D01*
G37*
%LPD*%
%LPC*%
G36*
X1038398Y639443D02*
X1038398Y639443D01*
X1035143Y642698D01*
X1035143Y647302D01*
X1038398Y650557D01*
X1043002Y650557D01*
X1046257Y647302D01*
X1046257Y642698D01*
X1043002Y639443D01*
X1038398Y639443D01*
G37*
%LPD*%
%LPC*%
G36*
X987598Y653159D02*
X987598Y653159D01*
X984343Y656414D01*
X984343Y661018D01*
X987598Y664273D01*
X992202Y664273D01*
X995457Y661018D01*
X995457Y656414D01*
X992202Y653159D01*
X987598Y653159D01*
G37*
%LPD*%
%LPC*%
G36*
X664198Y502131D02*
X664198Y502131D01*
X660943Y505386D01*
X660943Y509990D01*
X664198Y513245D01*
X668802Y513245D01*
X672057Y509990D01*
X672057Y505386D01*
X668802Y502131D01*
X664198Y502131D01*
G37*
%LPD*%
%LPC*%
G36*
X397274Y1367663D02*
X397274Y1367663D01*
X394019Y1370918D01*
X394019Y1375522D01*
X397274Y1378777D01*
X401878Y1378777D01*
X405133Y1375522D01*
X405133Y1370918D01*
X401878Y1367663D01*
X397274Y1367663D01*
G37*
%LPD*%
%LPC*%
G36*
X795198Y500443D02*
X795198Y500443D01*
X791943Y503698D01*
X791943Y508302D01*
X795198Y511557D01*
X799802Y511557D01*
X803057Y508302D01*
X803057Y503698D01*
X799802Y500443D01*
X795198Y500443D01*
G37*
%LPD*%
%LPC*%
G36*
X461282Y669771D02*
X461282Y669771D01*
X458027Y673026D01*
X458027Y677630D01*
X461282Y680885D01*
X465886Y680885D01*
X469141Y677630D01*
X469141Y673026D01*
X465886Y669771D01*
X461282Y669771D01*
G37*
%LPD*%
%LPC*%
G36*
X444518Y670501D02*
X444518Y670501D01*
X441263Y673756D01*
X441263Y678359D01*
X444518Y681614D01*
X449122Y681614D01*
X452377Y678359D01*
X452377Y673756D01*
X449122Y670501D01*
X444518Y670501D01*
G37*
%LPD*%
%LPC*%
G36*
X308882Y1431671D02*
X308882Y1431671D01*
X305627Y1434926D01*
X305627Y1439530D01*
X308882Y1442785D01*
X313486Y1442785D01*
X316741Y1439530D01*
X316741Y1434926D01*
X313486Y1431671D01*
X308882Y1431671D01*
G37*
%LPD*%
%LPC*%
G36*
X485666Y676617D02*
X485666Y676617D01*
X482411Y679872D01*
X482411Y684476D01*
X485666Y687731D01*
X490270Y687731D01*
X493525Y684476D01*
X493525Y679872D01*
X490270Y676617D01*
X485666Y676617D01*
G37*
%LPD*%
%LPC*%
G36*
X987598Y683443D02*
X987598Y683443D01*
X984343Y686698D01*
X984343Y691302D01*
X987598Y694557D01*
X992202Y694557D01*
X995457Y691302D01*
X995457Y686698D01*
X992202Y683443D01*
X987598Y683443D01*
G37*
%LPD*%
%LPC*%
G36*
X1012998Y683443D02*
X1012998Y683443D01*
X1009743Y686698D01*
X1009743Y691302D01*
X1012998Y694557D01*
X1017602Y694557D01*
X1020857Y691302D01*
X1020857Y686698D01*
X1017602Y683443D01*
X1012998Y683443D01*
G37*
%LPD*%
%LPC*%
G36*
X664198Y1302131D02*
X664198Y1302131D01*
X660943Y1305386D01*
X660943Y1309990D01*
X664198Y1313245D01*
X668802Y1313245D01*
X672057Y1309990D01*
X672057Y1305386D01*
X668802Y1302131D01*
X664198Y1302131D01*
G37*
%LPD*%
%LPC*%
G36*
X1038398Y683443D02*
X1038398Y683443D01*
X1035143Y686698D01*
X1035143Y691302D01*
X1038398Y694557D01*
X1043002Y694557D01*
X1046257Y691302D01*
X1046257Y686698D01*
X1043002Y683443D01*
X1038398Y683443D01*
G37*
%LPD*%
%LPC*%
G36*
X795198Y1300443D02*
X795198Y1300443D01*
X791943Y1303698D01*
X791943Y1308302D01*
X795198Y1311557D01*
X799802Y1311557D01*
X803057Y1308302D01*
X803057Y1303698D01*
X799802Y1300443D01*
X795198Y1300443D01*
G37*
%LPD*%
%LPC*%
G36*
X467198Y688443D02*
X467198Y688443D01*
X463943Y691698D01*
X463943Y696302D01*
X467198Y699557D01*
X471802Y699557D01*
X475057Y696302D01*
X475057Y691698D01*
X471802Y688443D01*
X467198Y688443D01*
G37*
%LPD*%
%LPC*%
G36*
X1038398Y1439443D02*
X1038398Y1439443D01*
X1035143Y1442698D01*
X1035143Y1447302D01*
X1038398Y1450557D01*
X1043002Y1450557D01*
X1046257Y1447302D01*
X1046257Y1442698D01*
X1043002Y1439443D01*
X1038398Y1439443D01*
G37*
%LPD*%
%LPC*%
G36*
X987598Y1453159D02*
X987598Y1453159D01*
X984343Y1456414D01*
X984343Y1461018D01*
X987598Y1464273D01*
X992202Y1464273D01*
X995457Y1461018D01*
X995457Y1456414D01*
X992202Y1453159D01*
X987598Y1453159D01*
G37*
%LPD*%
%LPC*%
G36*
X407942Y1387475D02*
X407942Y1387475D01*
X404687Y1390730D01*
X404687Y1395334D01*
X407942Y1398589D01*
X412546Y1398589D01*
X415801Y1395334D01*
X415801Y1390730D01*
X412546Y1387475D01*
X407942Y1387475D01*
G37*
%LPD*%
%LPC*%
G36*
X461282Y1469771D02*
X461282Y1469771D01*
X458027Y1473026D01*
X458027Y1477630D01*
X461282Y1480885D01*
X465886Y1480885D01*
X469141Y1477630D01*
X469141Y1473026D01*
X465886Y1469771D01*
X461282Y1469771D01*
G37*
%LPD*%
%LPC*%
G36*
X444518Y1470501D02*
X444518Y1470501D01*
X441263Y1473756D01*
X441263Y1478359D01*
X444518Y1481614D01*
X449122Y1481614D01*
X452377Y1478359D01*
X452377Y1473756D01*
X449122Y1470501D01*
X444518Y1470501D01*
G37*
%LPD*%
%LPC*%
G36*
X485666Y1476617D02*
X485666Y1476617D01*
X482411Y1479872D01*
X482411Y1484476D01*
X485666Y1487731D01*
X490270Y1487731D01*
X493525Y1484476D01*
X493525Y1479872D01*
X490270Y1476617D01*
X485666Y1476617D01*
G37*
%LPD*%
%LPC*%
G36*
X1038398Y1483443D02*
X1038398Y1483443D01*
X1035143Y1486698D01*
X1035143Y1491302D01*
X1038398Y1494557D01*
X1043002Y1494557D01*
X1046257Y1491302D01*
X1046257Y1486698D01*
X1043002Y1483443D01*
X1038398Y1483443D01*
G37*
%LPD*%
%LPC*%
G36*
X1012998Y1483443D02*
X1012998Y1483443D01*
X1009743Y1486698D01*
X1009743Y1491302D01*
X1012998Y1494557D01*
X1017602Y1494557D01*
X1020857Y1491302D01*
X1020857Y1486698D01*
X1017602Y1483443D01*
X1012998Y1483443D01*
G37*
%LPD*%
%LPC*%
G36*
X987598Y1483443D02*
X987598Y1483443D01*
X984343Y1486698D01*
X984343Y1491302D01*
X987598Y1494557D01*
X992202Y1494557D01*
X995457Y1491302D01*
X995457Y1486698D01*
X992202Y1483443D01*
X987598Y1483443D01*
G37*
%LPD*%
%LPC*%
G36*
X467198Y1488443D02*
X467198Y1488443D01*
X463943Y1491698D01*
X463943Y1496302D01*
X467198Y1499557D01*
X471802Y1499557D01*
X475057Y1496302D01*
X475057Y1491698D01*
X471802Y1488443D01*
X467198Y1488443D01*
G37*
%LPD*%
%LPC*%
G36*
X407942Y587475D02*
X407942Y587475D01*
X404687Y590730D01*
X404687Y595334D01*
X407942Y598589D01*
X412546Y598589D01*
X415801Y595334D01*
X415801Y590730D01*
X412546Y587475D01*
X407942Y587475D01*
G37*
%LPD*%
%LPC*%
G36*
X306302Y1231693D02*
X306302Y1231693D01*
X303193Y1234802D01*
X303193Y1239198D01*
X306302Y1242307D01*
X310698Y1242307D01*
X313807Y1239198D01*
X313807Y1234802D01*
X310698Y1231693D01*
X306302Y1231693D01*
G37*
%LPD*%
%LPC*%
G36*
X159755Y1385240D02*
X159755Y1385240D01*
X156647Y1388349D01*
X156647Y1392745D01*
X159755Y1395853D01*
X164151Y1395853D01*
X167260Y1392745D01*
X167260Y1388349D01*
X164151Y1385240D01*
X159755Y1385240D01*
G37*
%LPD*%
%LPC*%
G36*
X392302Y1231693D02*
X392302Y1231693D01*
X389193Y1234802D01*
X389193Y1239198D01*
X392302Y1242307D01*
X396698Y1242307D01*
X399807Y1239198D01*
X399807Y1234802D01*
X396698Y1231693D01*
X392302Y1231693D01*
G37*
%LPD*%
%LPC*%
G36*
X362302Y1195693D02*
X362302Y1195693D01*
X359193Y1198802D01*
X359193Y1203198D01*
X362302Y1206307D01*
X366698Y1206307D01*
X369807Y1203198D01*
X369807Y1198802D01*
X366698Y1195693D01*
X362302Y1195693D01*
G37*
%LPD*%
%LPC*%
G36*
X266302Y1188693D02*
X266302Y1188693D01*
X263193Y1191802D01*
X263193Y1196198D01*
X266302Y1199307D01*
X270698Y1199307D01*
X273807Y1196198D01*
X273807Y1191802D01*
X270698Y1188693D01*
X266302Y1188693D01*
G37*
%LPD*%
%LPC*%
G36*
X234702Y132293D02*
X234702Y132293D01*
X231593Y135402D01*
X231593Y139798D01*
X234702Y142907D01*
X239098Y142907D01*
X242207Y139798D01*
X242207Y135402D01*
X239098Y132293D01*
X234702Y132293D01*
G37*
%LPD*%
%LPC*%
G36*
X387102Y135693D02*
X387102Y135693D01*
X383993Y138802D01*
X383993Y143198D01*
X387102Y146307D01*
X391498Y146307D01*
X394607Y143198D01*
X394607Y138802D01*
X391498Y135693D01*
X387102Y135693D01*
G37*
%LPD*%
%LPC*%
G36*
X260102Y135693D02*
X260102Y135693D01*
X256993Y138802D01*
X256993Y143198D01*
X260102Y146307D01*
X264498Y146307D01*
X267607Y143198D01*
X267607Y138802D01*
X264498Y135693D01*
X260102Y135693D01*
G37*
%LPD*%
%LPC*%
G36*
X234302Y1158693D02*
X234302Y1158693D01*
X231193Y1161802D01*
X231193Y1166198D01*
X234302Y1169307D01*
X238698Y1169307D01*
X241807Y1166198D01*
X241807Y1161802D01*
X238698Y1158693D01*
X234302Y1158693D01*
G37*
%LPD*%
%LPC*%
G36*
X361702Y135693D02*
X361702Y135693D01*
X358593Y138802D01*
X358593Y143198D01*
X361702Y146307D01*
X366098Y146307D01*
X369207Y143198D01*
X369207Y138802D01*
X366098Y135693D01*
X361702Y135693D01*
G37*
%LPD*%
%LPC*%
G36*
X408046Y1502025D02*
X408046Y1502025D01*
X404937Y1505134D01*
X404937Y1509530D01*
X408046Y1512639D01*
X412442Y1512639D01*
X415551Y1509530D01*
X415551Y1505134D01*
X412442Y1502025D01*
X408046Y1502025D01*
G37*
%LPD*%
%LPC*%
G36*
X1063902Y1487093D02*
X1063902Y1487093D01*
X1060793Y1490202D01*
X1060793Y1494598D01*
X1063902Y1497707D01*
X1068298Y1497707D01*
X1071407Y1494598D01*
X1071407Y1490202D01*
X1068298Y1487093D01*
X1063902Y1487093D01*
G37*
%LPD*%
%LPC*%
G36*
X260102Y179693D02*
X260102Y179693D01*
X256993Y182802D01*
X256993Y187198D01*
X260102Y190307D01*
X264498Y190307D01*
X267607Y187198D01*
X267607Y182802D01*
X264498Y179693D01*
X260102Y179693D01*
G37*
%LPD*%
%LPC*%
G36*
X467302Y1231693D02*
X467302Y1231693D01*
X464193Y1234802D01*
X464193Y1239198D01*
X467302Y1242307D01*
X471698Y1242307D01*
X474807Y1239198D01*
X474807Y1234802D01*
X471698Y1231693D01*
X467302Y1231693D01*
G37*
%LPD*%
%LPC*%
G36*
X379302Y1129693D02*
X379302Y1129693D01*
X376193Y1132802D01*
X376193Y1137198D01*
X379302Y1140307D01*
X383698Y1140307D01*
X386807Y1137198D01*
X386807Y1132802D01*
X383698Y1129693D01*
X379302Y1129693D01*
G37*
%LPD*%
%LPC*%
G36*
X179302Y1129693D02*
X179302Y1129693D01*
X176193Y1132802D01*
X176193Y1137198D01*
X179302Y1140307D01*
X183698Y1140307D01*
X186807Y1137198D01*
X186807Y1132802D01*
X183698Y1129693D01*
X179302Y1129693D01*
G37*
%LPD*%
%LPC*%
G36*
X751302Y1090693D02*
X751302Y1090693D01*
X748193Y1093802D01*
X748193Y1098198D01*
X751302Y1101307D01*
X755698Y1101307D01*
X758807Y1098198D01*
X758807Y1093802D01*
X755698Y1090693D01*
X751302Y1090693D01*
G37*
%LPD*%
%LPC*%
G36*
X674302Y1090693D02*
X674302Y1090693D01*
X671193Y1093802D01*
X671193Y1098198D01*
X674302Y1101307D01*
X678698Y1101307D01*
X681807Y1098198D01*
X681807Y1093802D01*
X678698Y1090693D01*
X674302Y1090693D01*
G37*
%LPD*%
%LPC*%
G36*
X776302Y1089693D02*
X776302Y1089693D01*
X773193Y1092802D01*
X773193Y1097198D01*
X776302Y1100307D01*
X780698Y1100307D01*
X783807Y1097198D01*
X783807Y1092802D01*
X780698Y1089693D01*
X776302Y1089693D01*
G37*
%LPD*%
%LPC*%
G36*
X763302Y1089693D02*
X763302Y1089693D01*
X760193Y1092802D01*
X760193Y1097198D01*
X763302Y1100307D01*
X767698Y1100307D01*
X770807Y1097198D01*
X770807Y1092802D01*
X767698Y1089693D01*
X763302Y1089693D01*
G37*
%LPD*%
%LPC*%
G36*
X738302Y1089693D02*
X738302Y1089693D01*
X735193Y1092802D01*
X735193Y1097198D01*
X738302Y1100307D01*
X742698Y1100307D01*
X745807Y1097198D01*
X745807Y1092802D01*
X742698Y1089693D01*
X738302Y1089693D01*
G37*
%LPD*%
%LPC*%
G36*
X725302Y1089693D02*
X725302Y1089693D01*
X722193Y1092802D01*
X722193Y1097198D01*
X725302Y1100307D01*
X729698Y1100307D01*
X732807Y1097198D01*
X732807Y1092802D01*
X729698Y1089693D01*
X725302Y1089693D01*
G37*
%LPD*%
%LPC*%
G36*
X712302Y1089693D02*
X712302Y1089693D01*
X709193Y1092802D01*
X709193Y1097198D01*
X712302Y1100307D01*
X716698Y1100307D01*
X719807Y1097198D01*
X719807Y1092802D01*
X716698Y1089693D01*
X712302Y1089693D01*
G37*
%LPD*%
%LPC*%
G36*
X699302Y1089693D02*
X699302Y1089693D01*
X696193Y1092802D01*
X696193Y1097198D01*
X699302Y1100307D01*
X703698Y1100307D01*
X706807Y1097198D01*
X706807Y1092802D01*
X703698Y1089693D01*
X699302Y1089693D01*
G37*
%LPD*%
%LPC*%
G36*
X687302Y1089693D02*
X687302Y1089693D01*
X684193Y1092802D01*
X684193Y1097198D01*
X687302Y1100307D01*
X691698Y1100307D01*
X694807Y1097198D01*
X694807Y1092802D01*
X691698Y1089693D01*
X687302Y1089693D01*
G37*
%LPD*%
%LPC*%
G36*
X662302Y1089693D02*
X662302Y1089693D01*
X659193Y1092802D01*
X659193Y1097198D01*
X662302Y1100307D01*
X666698Y1100307D01*
X669807Y1097198D01*
X669807Y1092802D01*
X666698Y1089693D01*
X662302Y1089693D01*
G37*
%LPD*%
%LPC*%
G36*
X379728Y1087119D02*
X379728Y1087119D01*
X376619Y1090228D01*
X376619Y1094624D01*
X379728Y1097733D01*
X384124Y1097733D01*
X387233Y1094624D01*
X387233Y1090228D01*
X384124Y1087119D01*
X379728Y1087119D01*
G37*
%LPD*%
%LPC*%
G36*
X383302Y1070693D02*
X383302Y1070693D01*
X380193Y1073802D01*
X380193Y1078198D01*
X383302Y1081307D01*
X387698Y1081307D01*
X390807Y1078198D01*
X390807Y1073802D01*
X387698Y1070693D01*
X383302Y1070693D01*
G37*
%LPD*%
%LPC*%
G36*
X668302Y1054693D02*
X668302Y1054693D01*
X665193Y1057802D01*
X665193Y1062198D01*
X668302Y1065307D01*
X672698Y1065307D01*
X675807Y1062198D01*
X675807Y1057802D01*
X672698Y1054693D01*
X668302Y1054693D01*
G37*
%LPD*%
%LPC*%
G36*
X251302Y1235693D02*
X251302Y1235693D01*
X248193Y1238802D01*
X248193Y1243198D01*
X251302Y1246307D01*
X255698Y1246307D01*
X258807Y1243198D01*
X258807Y1238802D01*
X255698Y1235693D01*
X251302Y1235693D01*
G37*
%LPD*%
%LPC*%
G36*
X292302Y1245693D02*
X292302Y1245693D01*
X289193Y1248802D01*
X289193Y1253198D01*
X292302Y1256307D01*
X296698Y1256307D01*
X299807Y1253198D01*
X299807Y1248802D01*
X296698Y1245693D01*
X292302Y1245693D01*
G37*
%LPD*%
%LPC*%
G36*
X251302Y1248693D02*
X251302Y1248693D01*
X248193Y1251802D01*
X248193Y1256198D01*
X251302Y1259307D01*
X255698Y1259307D01*
X258807Y1256198D01*
X258807Y1251802D01*
X255698Y1248693D01*
X251302Y1248693D01*
G37*
%LPD*%
%LPC*%
G36*
X361702Y179693D02*
X361702Y179693D01*
X358593Y182802D01*
X358593Y187198D01*
X361702Y190307D01*
X366098Y190307D01*
X369207Y187198D01*
X369207Y182802D01*
X366098Y179693D01*
X361702Y179693D01*
G37*
%LPD*%
%LPC*%
G36*
X387102Y179693D02*
X387102Y179693D01*
X383993Y182802D01*
X383993Y187198D01*
X387102Y190307D01*
X391498Y190307D01*
X394607Y187198D01*
X394607Y182802D01*
X391498Y179693D01*
X387102Y179693D01*
G37*
%LPD*%
%LPC*%
G36*
X412502Y983093D02*
X412502Y983093D01*
X409393Y986202D01*
X409393Y990598D01*
X412502Y993707D01*
X416898Y993707D01*
X420007Y990598D01*
X420007Y986202D01*
X416898Y983093D01*
X412502Y983093D01*
G37*
%LPD*%
%LPC*%
G36*
X234702Y983093D02*
X234702Y983093D01*
X231593Y986202D01*
X231593Y990598D01*
X234702Y993707D01*
X239098Y993707D01*
X242207Y990598D01*
X242207Y986202D01*
X239098Y983093D01*
X234702Y983093D01*
G37*
%LPD*%
%LPC*%
G36*
X209302Y983093D02*
X209302Y983093D01*
X206193Y986202D01*
X206193Y990598D01*
X209302Y993707D01*
X213698Y993707D01*
X216807Y990598D01*
X216807Y986202D01*
X213698Y983093D01*
X209302Y983093D01*
G37*
%LPD*%
%LPC*%
G36*
X387102Y979693D02*
X387102Y979693D01*
X383993Y982802D01*
X383993Y987198D01*
X387102Y990307D01*
X391498Y990307D01*
X394607Y987198D01*
X394607Y982802D01*
X391498Y979693D01*
X387102Y979693D01*
G37*
%LPD*%
%LPC*%
G36*
X361702Y979693D02*
X361702Y979693D01*
X358593Y982802D01*
X358593Y987198D01*
X361702Y990307D01*
X366098Y990307D01*
X369207Y987198D01*
X369207Y982802D01*
X366098Y979693D01*
X361702Y979693D01*
G37*
%LPD*%
%LPC*%
G36*
X260102Y979693D02*
X260102Y979693D01*
X256993Y982802D01*
X256993Y987198D01*
X260102Y990307D01*
X264498Y990307D01*
X267607Y987198D01*
X267607Y982802D01*
X264498Y979693D01*
X260102Y979693D01*
G37*
%LPD*%
%LPC*%
G36*
X167302Y1249693D02*
X167302Y1249693D01*
X164193Y1252802D01*
X164193Y1257198D01*
X167302Y1260307D01*
X171698Y1260307D01*
X174807Y1257198D01*
X174807Y1252802D01*
X171698Y1249693D01*
X167302Y1249693D01*
G37*
%LPD*%
%LPC*%
G36*
X829302Y1249693D02*
X829302Y1249693D01*
X826193Y1252802D01*
X826193Y1257198D01*
X829302Y1260307D01*
X833698Y1260307D01*
X836807Y1257198D01*
X836807Y1252802D01*
X833698Y1249693D01*
X829302Y1249693D01*
G37*
%LPD*%
%LPC*%
G36*
X387102Y935693D02*
X387102Y935693D01*
X383993Y938802D01*
X383993Y943198D01*
X387102Y946307D01*
X391498Y946307D01*
X394607Y943198D01*
X394607Y938802D01*
X391498Y935693D01*
X387102Y935693D01*
G37*
%LPD*%
%LPC*%
G36*
X361702Y935693D02*
X361702Y935693D01*
X358593Y938802D01*
X358593Y943198D01*
X361702Y946307D01*
X366098Y946307D01*
X369207Y943198D01*
X369207Y938802D01*
X366098Y935693D01*
X361702Y935693D01*
G37*
%LPD*%
%LPC*%
G36*
X260102Y935693D02*
X260102Y935693D01*
X256993Y938802D01*
X256993Y943198D01*
X260102Y946307D01*
X264498Y946307D01*
X267607Y943198D01*
X267607Y938802D01*
X264498Y935693D01*
X260102Y935693D01*
G37*
%LPD*%
%LPC*%
G36*
X234702Y932293D02*
X234702Y932293D01*
X231593Y935402D01*
X231593Y939798D01*
X234702Y942907D01*
X239098Y942907D01*
X242207Y939798D01*
X242207Y935402D01*
X239098Y932293D01*
X234702Y932293D01*
G37*
%LPD*%
%LPC*%
G36*
X209302Y932293D02*
X209302Y932293D01*
X206193Y935402D01*
X206193Y939798D01*
X209302Y942907D01*
X213698Y942907D01*
X216807Y939798D01*
X216807Y935402D01*
X213698Y932293D01*
X209302Y932293D01*
G37*
%LPD*%
%LPC*%
G36*
X159302Y1269693D02*
X159302Y1269693D01*
X156193Y1272802D01*
X156193Y1277198D01*
X159302Y1280307D01*
X163698Y1280307D01*
X166807Y1277198D01*
X166807Y1272802D01*
X163698Y1269693D01*
X159302Y1269693D01*
G37*
%LPD*%
%LPC*%
G36*
X755302Y1567693D02*
X755302Y1567693D01*
X752193Y1570802D01*
X752193Y1575198D01*
X755302Y1578307D01*
X759698Y1578307D01*
X762807Y1575198D01*
X762807Y1570802D01*
X759698Y1567693D01*
X755302Y1567693D01*
G37*
%LPD*%
%LPC*%
G36*
X755302Y767693D02*
X755302Y767693D01*
X752193Y770802D01*
X752193Y775198D01*
X755302Y778307D01*
X759698Y778307D01*
X762807Y775198D01*
X762807Y770802D01*
X759698Y767693D01*
X755302Y767693D01*
G37*
%LPD*%
%LPC*%
G36*
X285302Y1274693D02*
X285302Y1274693D01*
X282193Y1277802D01*
X282193Y1282198D01*
X285302Y1285307D01*
X289698Y1285307D01*
X292807Y1282198D01*
X292807Y1277802D01*
X289698Y1274693D01*
X285302Y1274693D01*
G37*
%LPD*%
%LPC*%
G36*
X829302Y1292739D02*
X829302Y1292739D01*
X826193Y1295848D01*
X826193Y1300244D01*
X829302Y1303353D01*
X833698Y1303353D01*
X836807Y1300244D01*
X836807Y1295848D01*
X833698Y1292739D01*
X829302Y1292739D01*
G37*
%LPD*%
%LPC*%
G36*
X408046Y702025D02*
X408046Y702025D01*
X404937Y705134D01*
X404937Y709530D01*
X408046Y712639D01*
X412442Y712639D01*
X415551Y709530D01*
X415551Y705134D01*
X412442Y702025D01*
X408046Y702025D01*
G37*
%LPD*%
%LPC*%
G36*
X852302Y1293693D02*
X852302Y1293693D01*
X849193Y1296802D01*
X849193Y1301198D01*
X852302Y1304307D01*
X856698Y1304307D01*
X859807Y1301198D01*
X859807Y1296802D01*
X856698Y1293693D01*
X852302Y1293693D01*
G37*
%LPD*%
%LPC*%
G36*
X1063902Y687093D02*
X1063902Y687093D01*
X1060793Y690202D01*
X1060793Y694598D01*
X1063902Y697707D01*
X1068298Y697707D01*
X1071407Y694598D01*
X1071407Y690202D01*
X1068298Y687093D01*
X1063902Y687093D01*
G37*
%LPD*%
%LPC*%
G36*
X325302Y1301693D02*
X325302Y1301693D01*
X322193Y1304802D01*
X322193Y1309198D01*
X325302Y1312307D01*
X329698Y1312307D01*
X332807Y1309198D01*
X332807Y1304802D01*
X329698Y1301693D01*
X325302Y1301693D01*
G37*
%LPD*%
%LPC*%
G36*
X835302Y1313693D02*
X835302Y1313693D01*
X832193Y1316802D01*
X832193Y1321198D01*
X835302Y1324307D01*
X839698Y1324307D01*
X842807Y1321198D01*
X842807Y1316802D01*
X839698Y1313693D01*
X835302Y1313693D01*
G37*
%LPD*%
%LPC*%
G36*
X254302Y1314693D02*
X254302Y1314693D01*
X251193Y1317802D01*
X251193Y1322198D01*
X254302Y1325307D01*
X258698Y1325307D01*
X261807Y1322198D01*
X261807Y1317802D01*
X258698Y1314693D01*
X254302Y1314693D01*
G37*
%LPD*%
%LPC*%
G36*
X209302Y183093D02*
X209302Y183093D01*
X206193Y186202D01*
X206193Y190598D01*
X209302Y193707D01*
X213698Y193707D01*
X216807Y190598D01*
X216807Y186202D01*
X213698Y183093D01*
X209302Y183093D01*
G37*
%LPD*%
%LPC*%
G36*
X169302Y1343809D02*
X169302Y1343809D01*
X166193Y1346918D01*
X166193Y1351314D01*
X169302Y1354423D01*
X173698Y1354423D01*
X176807Y1351314D01*
X176807Y1346918D01*
X173698Y1343809D01*
X169302Y1343809D01*
G37*
%LPD*%
%LPC*%
G36*
X629302Y1349693D02*
X629302Y1349693D01*
X626193Y1352802D01*
X626193Y1357198D01*
X629302Y1360307D01*
X633698Y1360307D01*
X636807Y1357198D01*
X636807Y1352802D01*
X633698Y1349693D01*
X629302Y1349693D01*
G37*
%LPD*%
%LPC*%
G36*
X849302Y668351D02*
X849302Y668351D01*
X846193Y671460D01*
X846193Y675856D01*
X849302Y678965D01*
X853698Y678965D01*
X856807Y675856D01*
X856807Y671460D01*
X853698Y668351D01*
X849302Y668351D01*
G37*
%LPD*%
%LPC*%
G36*
X159403Y1357592D02*
X159403Y1357592D01*
X156294Y1360701D01*
X156294Y1365097D01*
X159403Y1368206D01*
X163799Y1368206D01*
X166908Y1365097D01*
X166908Y1360701D01*
X163799Y1357592D01*
X159403Y1357592D01*
G37*
%LPD*%
%LPC*%
G36*
X234702Y183093D02*
X234702Y183093D01*
X231593Y186202D01*
X231593Y190598D01*
X234702Y193707D01*
X239098Y193707D01*
X242207Y190598D01*
X242207Y186202D01*
X239098Y183093D01*
X234702Y183093D01*
G37*
%LPD*%
%LPC*%
G36*
X357684Y661312D02*
X357684Y661312D01*
X354575Y664420D01*
X354575Y668816D01*
X357684Y671925D01*
X362080Y671925D01*
X365188Y668816D01*
X365188Y664420D01*
X362080Y661312D01*
X357684Y661312D01*
G37*
%LPD*%
%LPC*%
G36*
X521302Y1372693D02*
X521302Y1372693D01*
X518193Y1375802D01*
X518193Y1380198D01*
X521302Y1383307D01*
X525698Y1383307D01*
X528807Y1380198D01*
X528807Y1375802D01*
X525698Y1372693D01*
X521302Y1372693D01*
G37*
%LPD*%
%LPC*%
G36*
X551302Y1372693D02*
X551302Y1372693D01*
X548193Y1375802D01*
X548193Y1380198D01*
X551302Y1383307D01*
X555698Y1383307D01*
X558807Y1380198D01*
X558807Y1375802D01*
X555698Y1372693D01*
X551302Y1372693D01*
G37*
%LPD*%
%LPC*%
G36*
X1064302Y1376693D02*
X1064302Y1376693D01*
X1061193Y1379802D01*
X1061193Y1384198D01*
X1064302Y1387307D01*
X1068698Y1387307D01*
X1071807Y1384198D01*
X1071807Y1379802D01*
X1068698Y1376693D01*
X1064302Y1376693D01*
G37*
%LPD*%
%LPC*%
G36*
X377302Y625693D02*
X377302Y625693D01*
X374193Y628802D01*
X374193Y633198D01*
X377302Y636307D01*
X381698Y636307D01*
X384807Y633198D01*
X384807Y628802D01*
X381698Y625693D01*
X377302Y625693D01*
G37*
%LPD*%
%LPC*%
G36*
X590302Y616693D02*
X590302Y616693D01*
X587193Y619802D01*
X587193Y624198D01*
X590302Y627307D01*
X594698Y627307D01*
X597807Y624198D01*
X597807Y619802D01*
X594698Y616693D01*
X590302Y616693D01*
G37*
%LPD*%
%LPC*%
G36*
X159302Y604693D02*
X159302Y604693D01*
X156193Y607802D01*
X156193Y612198D01*
X159302Y615307D01*
X163698Y615307D01*
X166807Y612198D01*
X166807Y607802D01*
X163698Y604693D01*
X159302Y604693D01*
G37*
%LPD*%
%LPC*%
G36*
X1025302Y603889D02*
X1025302Y603889D01*
X1022193Y606998D01*
X1022193Y611394D01*
X1025302Y614503D01*
X1029698Y614503D01*
X1032807Y611394D01*
X1032807Y606998D01*
X1029698Y603889D01*
X1025302Y603889D01*
G37*
%LPD*%
%LPC*%
G36*
X659302Y599693D02*
X659302Y599693D01*
X656193Y602802D01*
X656193Y607198D01*
X659302Y610307D01*
X663698Y610307D01*
X666807Y607198D01*
X666807Y602802D01*
X663698Y599693D01*
X659302Y599693D01*
G37*
%LPD*%
%LPC*%
G36*
X482302Y593693D02*
X482302Y593693D01*
X479193Y596802D01*
X479193Y601198D01*
X482302Y604307D01*
X486698Y604307D01*
X489807Y601198D01*
X489807Y596802D01*
X486698Y593693D01*
X482302Y593693D01*
G37*
%LPD*%
%LPC*%
G36*
X619302Y589693D02*
X619302Y589693D01*
X616193Y592802D01*
X616193Y597198D01*
X619302Y600307D01*
X623698Y600307D01*
X626807Y597198D01*
X626807Y592802D01*
X623698Y589693D01*
X619302Y589693D01*
G37*
%LPD*%
%LPC*%
G36*
X412502Y183093D02*
X412502Y183093D01*
X409393Y186202D01*
X409393Y190598D01*
X412502Y193707D01*
X416898Y193707D01*
X420007Y190598D01*
X420007Y186202D01*
X416898Y183093D01*
X412502Y183093D01*
G37*
%LPD*%
%LPC*%
G36*
X209302Y132293D02*
X209302Y132293D01*
X206193Y135402D01*
X206193Y139798D01*
X209302Y142907D01*
X213698Y142907D01*
X216807Y139798D01*
X216807Y135402D01*
X213698Y132293D01*
X209302Y132293D01*
G37*
%LPD*%
%LPC*%
G36*
X159755Y585240D02*
X159755Y585240D01*
X156647Y588349D01*
X156647Y592745D01*
X159755Y595853D01*
X164151Y595853D01*
X167260Y592745D01*
X167260Y588349D01*
X164151Y585240D01*
X159755Y585240D01*
G37*
%LPD*%
%LPC*%
G36*
X1064302Y576693D02*
X1064302Y576693D01*
X1061193Y579802D01*
X1061193Y584198D01*
X1064302Y587307D01*
X1068698Y587307D01*
X1071807Y584198D01*
X1071807Y579802D01*
X1068698Y576693D01*
X1064302Y576693D01*
G37*
%LPD*%
%LPC*%
G36*
X551302Y572693D02*
X551302Y572693D01*
X548193Y575802D01*
X548193Y580198D01*
X551302Y583307D01*
X555698Y583307D01*
X558807Y580198D01*
X558807Y575802D01*
X555698Y572693D01*
X551302Y572693D01*
G37*
%LPD*%
%LPC*%
G36*
X521302Y572693D02*
X521302Y572693D01*
X518193Y575802D01*
X518193Y580198D01*
X521302Y583307D01*
X525698Y583307D01*
X528807Y580198D01*
X528807Y575802D01*
X525698Y572693D01*
X521302Y572693D01*
G37*
%LPD*%
%LPC*%
G36*
X849302Y1468351D02*
X849302Y1468351D01*
X846193Y1471460D01*
X846193Y1475856D01*
X849302Y1478965D01*
X853698Y1478965D01*
X856807Y1475856D01*
X856807Y1471460D01*
X853698Y1468351D01*
X849302Y1468351D01*
G37*
%LPD*%
%LPC*%
G36*
X357684Y1461312D02*
X357684Y1461312D01*
X354575Y1464420D01*
X354575Y1468816D01*
X357684Y1471925D01*
X362080Y1471925D01*
X365188Y1468816D01*
X365188Y1464420D01*
X362080Y1461312D01*
X357684Y1461312D01*
G37*
%LPD*%
%LPC*%
G36*
X159403Y557592D02*
X159403Y557592D01*
X156294Y560701D01*
X156294Y565097D01*
X159403Y568206D01*
X163799Y568206D01*
X166908Y565097D01*
X166908Y560701D01*
X163799Y557592D01*
X159403Y557592D01*
G37*
%LPD*%
%LPC*%
G36*
X629302Y549693D02*
X629302Y549693D01*
X626193Y552802D01*
X626193Y557198D01*
X629302Y560307D01*
X633698Y560307D01*
X636807Y557198D01*
X636807Y552802D01*
X633698Y549693D01*
X629302Y549693D01*
G37*
%LPD*%
%LPC*%
G36*
X169302Y543809D02*
X169302Y543809D01*
X166193Y546918D01*
X166193Y551314D01*
X169302Y554423D01*
X173698Y554423D01*
X176807Y551314D01*
X176807Y546918D01*
X173698Y543809D01*
X169302Y543809D01*
G37*
%LPD*%
%LPC*%
G36*
X619302Y1389693D02*
X619302Y1389693D01*
X616193Y1392802D01*
X616193Y1397198D01*
X619302Y1400307D01*
X623698Y1400307D01*
X626807Y1397198D01*
X626807Y1392802D01*
X623698Y1389693D01*
X619302Y1389693D01*
G37*
%LPD*%
%LPC*%
G36*
X377302Y1425693D02*
X377302Y1425693D01*
X374193Y1428802D01*
X374193Y1433198D01*
X377302Y1436307D01*
X381698Y1436307D01*
X384807Y1433198D01*
X384807Y1428802D01*
X381698Y1425693D01*
X377302Y1425693D01*
G37*
%LPD*%
%LPC*%
G36*
X254302Y514693D02*
X254302Y514693D01*
X251193Y517802D01*
X251193Y522198D01*
X254302Y525307D01*
X258698Y525307D01*
X261807Y522198D01*
X261807Y517802D01*
X258698Y514693D01*
X254302Y514693D01*
G37*
%LPD*%
%LPC*%
G36*
X835302Y513693D02*
X835302Y513693D01*
X832193Y516802D01*
X832193Y521198D01*
X835302Y524307D01*
X839698Y524307D01*
X842807Y521198D01*
X842807Y516802D01*
X839698Y513693D01*
X835302Y513693D01*
G37*
%LPD*%
%LPC*%
G36*
X482302Y1393693D02*
X482302Y1393693D01*
X479193Y1396802D01*
X479193Y1401198D01*
X482302Y1404307D01*
X486698Y1404307D01*
X489807Y1401198D01*
X489807Y1396802D01*
X486698Y1393693D01*
X482302Y1393693D01*
G37*
%LPD*%
%LPC*%
G36*
X325302Y501693D02*
X325302Y501693D01*
X322193Y504802D01*
X322193Y509198D01*
X325302Y512307D01*
X329698Y512307D01*
X332807Y509198D01*
X332807Y504802D01*
X329698Y501693D01*
X325302Y501693D01*
G37*
%LPD*%
%LPC*%
G36*
X659302Y1399693D02*
X659302Y1399693D01*
X656193Y1402802D01*
X656193Y1407198D01*
X659302Y1410307D01*
X663698Y1410307D01*
X666807Y1407198D01*
X666807Y1402802D01*
X663698Y1399693D01*
X659302Y1399693D01*
G37*
%LPD*%
%LPC*%
G36*
X852302Y493693D02*
X852302Y493693D01*
X849193Y496802D01*
X849193Y501198D01*
X852302Y504307D01*
X856698Y504307D01*
X859807Y501198D01*
X859807Y496802D01*
X856698Y493693D01*
X852302Y493693D01*
G37*
%LPD*%
%LPC*%
G36*
X829302Y492739D02*
X829302Y492739D01*
X826193Y495848D01*
X826193Y500244D01*
X829302Y503353D01*
X833698Y503353D01*
X836807Y500244D01*
X836807Y495848D01*
X833698Y492739D01*
X829302Y492739D01*
G37*
%LPD*%
%LPC*%
G36*
X285302Y474693D02*
X285302Y474693D01*
X282193Y477802D01*
X282193Y482198D01*
X285302Y485307D01*
X289698Y485307D01*
X292807Y482198D01*
X292807Y477802D01*
X289698Y474693D01*
X285302Y474693D01*
G37*
%LPD*%
%LPC*%
G36*
X159302Y469693D02*
X159302Y469693D01*
X156193Y472802D01*
X156193Y477198D01*
X159302Y480307D01*
X163698Y480307D01*
X166807Y477198D01*
X166807Y472802D01*
X163698Y469693D01*
X159302Y469693D01*
G37*
%LPD*%
%LPC*%
G36*
X829302Y449693D02*
X829302Y449693D01*
X826193Y452802D01*
X826193Y457198D01*
X829302Y460307D01*
X833698Y460307D01*
X836807Y457198D01*
X836807Y452802D01*
X833698Y449693D01*
X829302Y449693D01*
G37*
%LPD*%
%LPC*%
G36*
X167302Y449693D02*
X167302Y449693D01*
X164193Y452802D01*
X164193Y457198D01*
X167302Y460307D01*
X171698Y460307D01*
X174807Y457198D01*
X174807Y452802D01*
X171698Y449693D01*
X167302Y449693D01*
G37*
%LPD*%
%LPC*%
G36*
X251302Y448693D02*
X251302Y448693D01*
X248193Y451802D01*
X248193Y456198D01*
X251302Y459307D01*
X255698Y459307D01*
X258807Y456198D01*
X258807Y451802D01*
X255698Y448693D01*
X251302Y448693D01*
G37*
%LPD*%
%LPC*%
G36*
X292302Y445693D02*
X292302Y445693D01*
X289193Y448802D01*
X289193Y453198D01*
X292302Y456307D01*
X296698Y456307D01*
X299807Y453198D01*
X299807Y448802D01*
X296698Y445693D01*
X292302Y445693D01*
G37*
%LPD*%
%LPC*%
G36*
X251302Y435693D02*
X251302Y435693D01*
X248193Y438802D01*
X248193Y443198D01*
X251302Y446307D01*
X255698Y446307D01*
X258807Y443198D01*
X258807Y438802D01*
X255698Y435693D01*
X251302Y435693D01*
G37*
%LPD*%
%LPC*%
G36*
X1025302Y1403889D02*
X1025302Y1403889D01*
X1022193Y1406998D01*
X1022193Y1411394D01*
X1025302Y1414503D01*
X1029698Y1414503D01*
X1032807Y1411394D01*
X1032807Y1406998D01*
X1029698Y1403889D01*
X1025302Y1403889D01*
G37*
%LPD*%
%LPC*%
G36*
X467302Y431693D02*
X467302Y431693D01*
X464193Y434802D01*
X464193Y439198D01*
X467302Y442307D01*
X471698Y442307D01*
X474807Y439198D01*
X474807Y434802D01*
X471698Y431693D01*
X467302Y431693D01*
G37*
%LPD*%
%LPC*%
G36*
X392302Y431693D02*
X392302Y431693D01*
X389193Y434802D01*
X389193Y439198D01*
X392302Y442307D01*
X396698Y442307D01*
X399807Y439198D01*
X399807Y434802D01*
X396698Y431693D01*
X392302Y431693D01*
G37*
%LPD*%
%LPC*%
G36*
X306302Y431693D02*
X306302Y431693D01*
X303193Y434802D01*
X303193Y439198D01*
X306302Y442307D01*
X310698Y442307D01*
X313807Y439198D01*
X313807Y434802D01*
X310698Y431693D01*
X306302Y431693D01*
G37*
%LPD*%
%LPC*%
G36*
X668302Y254693D02*
X668302Y254693D01*
X665193Y257802D01*
X665193Y262198D01*
X668302Y265307D01*
X672698Y265307D01*
X675807Y262198D01*
X675807Y257802D01*
X672698Y254693D01*
X668302Y254693D01*
G37*
%LPD*%
%LPC*%
G36*
X159302Y1404693D02*
X159302Y1404693D01*
X156193Y1407802D01*
X156193Y1412198D01*
X159302Y1415307D01*
X163698Y1415307D01*
X166807Y1412198D01*
X166807Y1407802D01*
X163698Y1404693D01*
X159302Y1404693D01*
G37*
%LPD*%
%LPC*%
G36*
X362302Y395693D02*
X362302Y395693D01*
X359193Y398802D01*
X359193Y403198D01*
X362302Y406307D01*
X366698Y406307D01*
X369807Y403198D01*
X369807Y398802D01*
X366698Y395693D01*
X362302Y395693D01*
G37*
%LPD*%
%LPC*%
G36*
X266302Y388693D02*
X266302Y388693D01*
X263193Y391802D01*
X263193Y396198D01*
X266302Y399307D01*
X270698Y399307D01*
X273807Y396198D01*
X273807Y391802D01*
X270698Y388693D01*
X266302Y388693D01*
G37*
%LPD*%
%LPC*%
G36*
X383302Y270693D02*
X383302Y270693D01*
X380193Y273802D01*
X380193Y278198D01*
X383302Y281307D01*
X387698Y281307D01*
X390807Y278198D01*
X390807Y273802D01*
X387698Y270693D01*
X383302Y270693D01*
G37*
%LPD*%
%LPC*%
G36*
X379728Y287119D02*
X379728Y287119D01*
X376619Y290228D01*
X376619Y294624D01*
X379728Y297733D01*
X384124Y297733D01*
X387233Y294624D01*
X387233Y290228D01*
X384124Y287119D01*
X379728Y287119D01*
G37*
%LPD*%
%LPC*%
G36*
X662302Y289693D02*
X662302Y289693D01*
X659193Y292802D01*
X659193Y297198D01*
X662302Y300307D01*
X666698Y300307D01*
X669807Y297198D01*
X669807Y292802D01*
X666698Y289693D01*
X662302Y289693D01*
G37*
%LPD*%
%LPC*%
G36*
X234302Y358693D02*
X234302Y358693D01*
X231193Y361802D01*
X231193Y366198D01*
X234302Y369307D01*
X238698Y369307D01*
X241807Y366198D01*
X241807Y361802D01*
X238698Y358693D01*
X234302Y358693D01*
G37*
%LPD*%
%LPC*%
G36*
X687302Y289693D02*
X687302Y289693D01*
X684193Y292802D01*
X684193Y297198D01*
X687302Y300307D01*
X691698Y300307D01*
X694807Y297198D01*
X694807Y292802D01*
X691698Y289693D01*
X687302Y289693D01*
G37*
%LPD*%
%LPC*%
G36*
X699302Y289693D02*
X699302Y289693D01*
X696193Y292802D01*
X696193Y297198D01*
X699302Y300307D01*
X703698Y300307D01*
X706807Y297198D01*
X706807Y292802D01*
X703698Y289693D01*
X699302Y289693D01*
G37*
%LPD*%
%LPC*%
G36*
X712302Y289693D02*
X712302Y289693D01*
X709193Y292802D01*
X709193Y297198D01*
X712302Y300307D01*
X716698Y300307D01*
X719807Y297198D01*
X719807Y292802D01*
X716698Y289693D01*
X712302Y289693D01*
G37*
%LPD*%
%LPC*%
G36*
X725302Y289693D02*
X725302Y289693D01*
X722193Y292802D01*
X722193Y297198D01*
X725302Y300307D01*
X729698Y300307D01*
X732807Y297198D01*
X732807Y292802D01*
X729698Y289693D01*
X725302Y289693D01*
G37*
%LPD*%
%LPC*%
G36*
X590302Y1416693D02*
X590302Y1416693D01*
X587193Y1419802D01*
X587193Y1424198D01*
X590302Y1427307D01*
X594698Y1427307D01*
X597807Y1424198D01*
X597807Y1419802D01*
X594698Y1416693D01*
X590302Y1416693D01*
G37*
%LPD*%
%LPC*%
G36*
X179302Y329693D02*
X179302Y329693D01*
X176193Y332802D01*
X176193Y337198D01*
X179302Y340307D01*
X183698Y340307D01*
X186807Y337198D01*
X186807Y332802D01*
X183698Y329693D01*
X179302Y329693D01*
G37*
%LPD*%
%LPC*%
G36*
X379302Y329693D02*
X379302Y329693D01*
X376193Y332802D01*
X376193Y337198D01*
X379302Y340307D01*
X383698Y340307D01*
X386807Y337198D01*
X386807Y332802D01*
X383698Y329693D01*
X379302Y329693D01*
G37*
%LPD*%
%LPC*%
G36*
X751302Y290693D02*
X751302Y290693D01*
X748193Y293802D01*
X748193Y298198D01*
X751302Y301307D01*
X755698Y301307D01*
X758807Y298198D01*
X758807Y293802D01*
X755698Y290693D01*
X751302Y290693D01*
G37*
%LPD*%
%LPC*%
G36*
X674302Y290693D02*
X674302Y290693D01*
X671193Y293802D01*
X671193Y298198D01*
X674302Y301307D01*
X678698Y301307D01*
X681807Y298198D01*
X681807Y293802D01*
X678698Y290693D01*
X674302Y290693D01*
G37*
%LPD*%
%LPC*%
G36*
X776302Y289693D02*
X776302Y289693D01*
X773193Y292802D01*
X773193Y297198D01*
X776302Y300307D01*
X780698Y300307D01*
X783807Y297198D01*
X783807Y292802D01*
X780698Y289693D01*
X776302Y289693D01*
G37*
%LPD*%
%LPC*%
G36*
X763302Y289693D02*
X763302Y289693D01*
X760193Y292802D01*
X760193Y297198D01*
X763302Y300307D01*
X767698Y300307D01*
X770807Y297198D01*
X770807Y292802D01*
X767698Y289693D01*
X763302Y289693D01*
G37*
%LPD*%
%LPC*%
G36*
X738302Y289693D02*
X738302Y289693D01*
X735193Y292802D01*
X735193Y297198D01*
X738302Y300307D01*
X742698Y300307D01*
X745807Y297198D01*
X745807Y292802D01*
X742698Y289693D01*
X738302Y289693D01*
G37*
%LPD*%
%LPC*%
G36*
X662405Y341781D02*
X662405Y341781D01*
X659443Y344743D01*
X659443Y348933D01*
X662405Y351895D01*
X666595Y351895D01*
X669557Y348933D01*
X669557Y344743D01*
X666595Y341781D01*
X662405Y341781D01*
G37*
%LPD*%
%LPC*%
G36*
X674405Y346761D02*
X674405Y346761D01*
X671443Y349723D01*
X671443Y353913D01*
X674405Y356875D01*
X678595Y356875D01*
X681557Y353913D01*
X681557Y349723D01*
X678595Y346761D01*
X674405Y346761D01*
G37*
%LPD*%
%LPC*%
G36*
X725405Y353943D02*
X725405Y353943D01*
X722443Y356905D01*
X722443Y361095D01*
X725405Y364057D01*
X729595Y364057D01*
X732557Y361095D01*
X732557Y356905D01*
X729595Y353943D01*
X725405Y353943D01*
G37*
%LPD*%
%LPC*%
G36*
X738405Y358627D02*
X738405Y358627D01*
X735443Y361589D01*
X735443Y365779D01*
X738405Y368741D01*
X742595Y368741D01*
X745557Y365779D01*
X745557Y361589D01*
X742595Y358627D01*
X738405Y358627D01*
G37*
%LPD*%
%LPC*%
G36*
X776405Y366943D02*
X776405Y366943D01*
X773443Y369905D01*
X773443Y374095D01*
X776405Y377057D01*
X780595Y377057D01*
X783557Y374095D01*
X783557Y369905D01*
X780595Y366943D01*
X776405Y366943D01*
G37*
%LPD*%
%LPC*%
G36*
X751405Y374943D02*
X751405Y374943D01*
X748443Y377905D01*
X748443Y382095D01*
X751405Y385057D01*
X755595Y385057D01*
X758557Y382095D01*
X758557Y377905D01*
X755595Y374943D01*
X751405Y374943D01*
G37*
%LPD*%
%LPC*%
G36*
X763405Y386943D02*
X763405Y386943D01*
X760443Y389905D01*
X760443Y394095D01*
X763405Y397057D01*
X767595Y397057D01*
X770557Y394095D01*
X770557Y389905D01*
X767595Y386943D01*
X763405Y386943D01*
G37*
%LPD*%
%LPC*%
G36*
X1113405Y417943D02*
X1113405Y417943D01*
X1110443Y420905D01*
X1110443Y425095D01*
X1113405Y428057D01*
X1117595Y428057D01*
X1120557Y425095D01*
X1120557Y420905D01*
X1117595Y417943D01*
X1113405Y417943D01*
G37*
%LPD*%
%LPC*%
G36*
X220079Y528270D02*
X220079Y528270D01*
X217117Y531232D01*
X217117Y535421D01*
X220079Y538383D01*
X224268Y538383D01*
X227230Y535421D01*
X227230Y531232D01*
X224268Y528270D01*
X220079Y528270D01*
G37*
%LPD*%
%LPC*%
G36*
X926405Y1389943D02*
X926405Y1389943D01*
X923443Y1392905D01*
X923443Y1397095D01*
X926405Y1400057D01*
X930595Y1400057D01*
X933557Y1397095D01*
X933557Y1392905D01*
X930595Y1389943D01*
X926405Y1389943D01*
G37*
%LPD*%
%LPC*%
G36*
X154405Y568943D02*
X154405Y568943D01*
X151443Y571905D01*
X151443Y576095D01*
X154405Y579057D01*
X158595Y579057D01*
X161557Y576095D01*
X161557Y571905D01*
X158595Y568943D01*
X154405Y568943D01*
G37*
%LPD*%
%LPC*%
G36*
X336405Y223943D02*
X336405Y223943D01*
X333443Y226905D01*
X333443Y231095D01*
X336405Y234057D01*
X340595Y234057D01*
X343557Y231095D01*
X343557Y226905D01*
X340595Y223943D01*
X336405Y223943D01*
G37*
%LPD*%
%LPC*%
G36*
X243405Y223943D02*
X243405Y223943D01*
X240443Y226905D01*
X240443Y231095D01*
X243405Y234057D01*
X247595Y234057D01*
X250557Y231095D01*
X250557Y226905D01*
X247595Y223943D01*
X243405Y223943D01*
G37*
%LPD*%
%LPC*%
G36*
X926405Y589943D02*
X926405Y589943D01*
X923443Y592905D01*
X923443Y597095D01*
X926405Y600057D01*
X930595Y600057D01*
X933557Y597095D01*
X933557Y592905D01*
X930595Y589943D01*
X926405Y589943D01*
G37*
%LPD*%
%LPC*%
G36*
X154405Y1368943D02*
X154405Y1368943D01*
X151443Y1371905D01*
X151443Y1376095D01*
X154405Y1379057D01*
X158595Y1379057D01*
X161557Y1376095D01*
X161557Y1371905D01*
X158595Y1368943D01*
X154405Y1368943D01*
G37*
%LPD*%
%LPC*%
G36*
X220079Y1328270D02*
X220079Y1328270D01*
X217117Y1331232D01*
X217117Y1335421D01*
X220079Y1338383D01*
X224268Y1338383D01*
X227230Y1335421D01*
X227230Y1331232D01*
X224268Y1328270D01*
X220079Y1328270D01*
G37*
%LPD*%
%LPC*%
G36*
X336405Y1023943D02*
X336405Y1023943D01*
X333443Y1026905D01*
X333443Y1031095D01*
X336405Y1034057D01*
X340595Y1034057D01*
X343557Y1031095D01*
X343557Y1026905D01*
X340595Y1023943D01*
X336405Y1023943D01*
G37*
%LPD*%
%LPC*%
G36*
X243405Y1023943D02*
X243405Y1023943D01*
X240443Y1026905D01*
X240443Y1031095D01*
X243405Y1034057D01*
X247595Y1034057D01*
X250557Y1031095D01*
X250557Y1026905D01*
X247595Y1023943D01*
X243405Y1023943D01*
G37*
%LPD*%
%LPC*%
G36*
X662405Y1141781D02*
X662405Y1141781D01*
X659443Y1144743D01*
X659443Y1148933D01*
X662405Y1151895D01*
X666595Y1151895D01*
X669557Y1148933D01*
X669557Y1144743D01*
X666595Y1141781D01*
X662405Y1141781D01*
G37*
%LPD*%
%LPC*%
G36*
X674405Y1146761D02*
X674405Y1146761D01*
X671443Y1149723D01*
X671443Y1153913D01*
X674405Y1156875D01*
X678595Y1156875D01*
X681557Y1153913D01*
X681557Y1149723D01*
X678595Y1146761D01*
X674405Y1146761D01*
G37*
%LPD*%
%LPC*%
G36*
X725405Y1153943D02*
X725405Y1153943D01*
X722443Y1156905D01*
X722443Y1161095D01*
X725405Y1164057D01*
X729595Y1164057D01*
X732557Y1161095D01*
X732557Y1156905D01*
X729595Y1153943D01*
X725405Y1153943D01*
G37*
%LPD*%
%LPC*%
G36*
X738405Y1158627D02*
X738405Y1158627D01*
X735443Y1161589D01*
X735443Y1165779D01*
X738405Y1168741D01*
X742595Y1168741D01*
X745557Y1165779D01*
X745557Y1161589D01*
X742595Y1158627D01*
X738405Y1158627D01*
G37*
%LPD*%
%LPC*%
G36*
X776405Y1166943D02*
X776405Y1166943D01*
X773443Y1169905D01*
X773443Y1174095D01*
X776405Y1177057D01*
X780595Y1177057D01*
X783557Y1174095D01*
X783557Y1169905D01*
X780595Y1166943D01*
X776405Y1166943D01*
G37*
%LPD*%
%LPC*%
G36*
X751405Y1174943D02*
X751405Y1174943D01*
X748443Y1177905D01*
X748443Y1182095D01*
X751405Y1185057D01*
X755595Y1185057D01*
X758557Y1182095D01*
X758557Y1177905D01*
X755595Y1174943D01*
X751405Y1174943D01*
G37*
%LPD*%
%LPC*%
G36*
X763405Y1186943D02*
X763405Y1186943D01*
X760443Y1189905D01*
X760443Y1194095D01*
X763405Y1197057D01*
X767595Y1197057D01*
X770557Y1194095D01*
X770557Y1189905D01*
X767595Y1186943D01*
X763405Y1186943D01*
G37*
%LPD*%
%LPC*%
G36*
X1113405Y1217943D02*
X1113405Y1217943D01*
X1110443Y1220905D01*
X1110443Y1225095D01*
X1113405Y1228057D01*
X1117595Y1228057D01*
X1120557Y1225095D01*
X1120557Y1220905D01*
X1117595Y1217943D01*
X1113405Y1217943D01*
G37*
%LPD*%
D10*
X262300Y185000D03*
X740500Y295000D03*
D11*
X740500Y363684D03*
D10*
X262300Y141000D03*
X727500Y295000D03*
D11*
X727500Y359000D03*
D10*
X792674Y552448D03*
X381926Y292426D03*
X819598Y562608D03*
X385500Y276000D03*
D12*
X989900Y658716D03*
X463584Y675328D03*
D10*
X181500Y335000D03*
X171500Y549116D03*
D12*
X1015300Y689000D03*
X487968Y682174D03*
D10*
X161500Y475000D03*
X161601Y562899D03*
X236900Y137600D03*
X753500Y296000D03*
D11*
X753500Y380000D03*
D10*
X236900Y188400D03*
X765500Y295000D03*
D11*
X765500Y392000D03*
D10*
X211500Y188400D03*
X778500Y295000D03*
D11*
X778500Y372000D03*
D10*
X414700Y188400D03*
X664500Y295000D03*
D11*
X664500Y346838D03*
D10*
X389300Y141000D03*
X676500Y296000D03*
D11*
X676500Y351818D03*
D10*
X389300Y185000D03*
X689500Y295000D03*
X363900Y141000D03*
X701500Y295000D03*
X363900Y185000D03*
X714500Y295000D03*
D13*
X737304Y609196D03*
X772500Y258000D03*
D10*
X1027500Y609196D03*
D11*
X245500Y229000D03*
X338500Y229000D03*
D10*
X379500Y631000D03*
X294500Y451000D03*
X287500Y480000D03*
X308500Y437000D03*
X327500Y507000D03*
X256500Y520000D03*
X253500Y454000D03*
X253500Y441000D03*
X169500Y455000D03*
X161500Y610000D03*
X359882Y666618D03*
X621500Y595000D03*
X661500Y605000D03*
X631500Y555000D03*
X721500Y565000D03*
X837500Y519000D03*
X831500Y498046D03*
X854500Y499000D03*
X484500Y599000D03*
X757500Y773000D03*
X771311Y724811D03*
X851500Y673658D03*
X469500Y437000D03*
X394500Y437000D03*
X236500Y364000D03*
X670500Y260000D03*
X523500Y578000D03*
X553500Y578000D03*
X268500Y394000D03*
X364500Y401000D03*
D11*
X1115500Y423000D03*
X909500Y771000D03*
D10*
X211500Y137600D03*
X592500Y622000D03*
X693500Y622000D03*
D12*
X311184Y637228D03*
D10*
X984172Y713428D03*
D12*
X1040700Y645000D03*
X399576Y573220D03*
D14*
X862900Y641600D03*
D12*
X410244Y593032D03*
X989900Y689000D03*
X989900Y689000D03*
X469500Y694000D03*
D10*
X381500Y335000D03*
X161953Y590547D03*
D11*
X928500Y595000D03*
D15*
X665500Y666380D03*
D16*
X725120Y666380D01*
X761500Y630000D02*
X761500Y485000D01*
X711500Y485000D01*
D15*
X711500Y485000D03*
D16*
X761500Y630000D02*
X725120Y666380D01*
D12*
X797500Y506000D03*
X666500Y507688D03*
D10*
X589500Y720000D03*
D16*
X746500Y720000D02*
X881500Y585000D01*
D15*
X881500Y585000D03*
D16*
X746500Y720000D02*
X589500Y720000D01*
D10*
X236500Y344000D03*
D17*
X237500Y345000D01*
X241500Y345000D01*
D10*
X371500Y766000D03*
X746500Y260000D03*
D18*
X751500Y265000D01*
D10*
X681500Y595000D03*
D13*
X621500Y665000D03*
D10*
X193500Y474950D03*
D19*
X191550Y474950D01*
X191500Y475000D01*
D10*
X301500Y515000D03*
D11*
X1093500Y466000D03*
D12*
X1040700Y689000D03*
X446820Y676057D03*
D11*
X156500Y574000D03*
X222174Y533326D03*
D10*
X1066100Y692400D03*
X410244Y707332D03*
X831500Y455000D03*
X1066500Y582000D03*
D20*
X551500Y385000D03*
D10*
X262300Y985000D03*
X740500Y1095000D03*
D11*
X740500Y1163684D03*
D10*
X262300Y941000D03*
X727500Y1095000D03*
D11*
X727500Y1159000D03*
D10*
X792674Y1352448D03*
X381926Y1092426D03*
X819598Y1362608D03*
X385500Y1076000D03*
D12*
X989900Y1458716D03*
X463584Y1475328D03*
D10*
X181500Y1135000D03*
X171500Y1349116D03*
D12*
X1015300Y1489000D03*
X487968Y1482174D03*
D10*
X161500Y1275000D03*
X161601Y1362899D03*
X236900Y937600D03*
X753500Y1096000D03*
D11*
X753500Y1180000D03*
D10*
X236900Y988400D03*
X765500Y1095000D03*
D11*
X765500Y1192000D03*
D10*
X211500Y988400D03*
X778500Y1095000D03*
D11*
X778500Y1172000D03*
D10*
X414700Y988400D03*
X664500Y1095000D03*
D11*
X664500Y1146838D03*
D10*
X389300Y941000D03*
X676500Y1096000D03*
D11*
X676500Y1151818D03*
D10*
X389300Y985000D03*
X689500Y1095000D03*
X363900Y941000D03*
X701500Y1095000D03*
X363900Y985000D03*
X714500Y1095000D03*
D13*
X737304Y1409196D03*
X772500Y1058000D03*
D10*
X1027500Y1409196D03*
D11*
X245500Y1029000D03*
X338500Y1029000D03*
D10*
X379500Y1431000D03*
X294500Y1251000D03*
X287500Y1280000D03*
X308500Y1237000D03*
X327500Y1307000D03*
X256500Y1320000D03*
X253500Y1254000D03*
X253500Y1241000D03*
X169500Y1255000D03*
X161500Y1410000D03*
X359882Y1466618D03*
X621500Y1395000D03*
X661500Y1405000D03*
X631500Y1355000D03*
X721500Y1365000D03*
X837500Y1319000D03*
X831500Y1298046D03*
X854500Y1299000D03*
X484500Y1399000D03*
X757500Y1573000D03*
X771311Y1524811D03*
X851500Y1473658D03*
X469500Y1237000D03*
X394500Y1237000D03*
X236500Y1164000D03*
X670500Y1060000D03*
X523500Y1378000D03*
X553500Y1378000D03*
X268500Y1194000D03*
X364500Y1201000D03*
D11*
X1115500Y1223000D03*
X909500Y1571000D03*
D10*
X211500Y937600D03*
X592500Y1422000D03*
X693500Y1422000D03*
D12*
X311184Y1437228D03*
D10*
X984172Y1513428D03*
D12*
X1040700Y1445000D03*
X399576Y1373220D03*
D14*
X862900Y1441600D03*
D12*
X410244Y1393032D03*
X989900Y1489000D03*
X989900Y1489000D03*
X469500Y1494000D03*
D10*
X381500Y1135000D03*
X161953Y1390547D03*
D11*
X928500Y1395000D03*
D15*
X665500Y1466380D03*
D16*
X725120Y1466380D01*
X761500Y1430000D02*
X761500Y1285000D01*
X711500Y1285000D01*
D15*
X711500Y1285000D03*
D16*
X761500Y1430000D02*
X725120Y1466380D01*
D12*
X797500Y1306000D03*
X666500Y1307688D03*
D10*
X589500Y1520000D03*
D16*
X746500Y1520000D02*
X881500Y1385000D01*
D15*
X881500Y1385000D03*
D16*
X746500Y1520000D02*
X589500Y1520000D01*
D10*
X236500Y1144000D03*
D17*
X237500Y1145000D01*
X241500Y1145000D01*
D10*
X371500Y1566000D03*
X746500Y1060000D03*
D18*
X751500Y1065000D01*
D10*
X681500Y1395000D03*
D13*
X621500Y1465000D03*
D10*
X193500Y1274950D03*
D19*
X191550Y1274950D01*
X191500Y1275000D01*
D10*
X301500Y1315000D03*
D11*
X1093500Y1266000D03*
D12*
X1040700Y1489000D03*
X446820Y1476057D03*
D11*
X156500Y1374000D03*
X222174Y1333326D03*
D10*
X1066100Y1492400D03*
X410244Y1507332D03*
X831500Y1255000D03*
X1066500Y1382000D03*
D20*
X551500Y1185000D03*
M02*
