M48
;GenerationSoftware,Autodesk,EAGLE,9.4.2*%
;CreationDate,2019-09-06T20:58:25Z*%
FMAT,2
ICI,OFF
METRIC,TZ,000.000
T13C0.300
T12C0.350
T11C0.400
T10C0.450
T9C0.600
T8C0.650
T7C0.800
T6C1.200
T5C1.580
T4C1.650
T3C2.540
T2C2.700
T1C5.300
%
G90
M71
T1
X55150Y118500
X55150Y38500
T2
X84820Y156126
X64816Y156076
X44820Y156076
X84820Y76126
X64816Y76076
X44820Y76076
T3
X2500Y18000
X127500Y18000
X127500Y155000
X2500Y155000
T4
X80075Y105200
X64225Y105200
X64225Y25200
X80075Y25200
T5
X87560Y66700
X106109Y113420
X106109Y123580
X107880Y66700
X42740Y16300
X22420Y16300
X22420Y96300
X42740Y96300
X107880Y146700
X87560Y146700
X106109Y33420
X106109Y43580
T6
X42401Y133526
X42401Y53526
T7
X35644Y78918
X38644Y78918
X38644Y158918
X35644Y158918
T8
X88150Y58500
X71150Y48500
X66550Y66638
X66550Y146638
X71150Y128500
X88150Y138500
T9
X77250Y25800
X62150Y146500
X73730Y60920
X62150Y66500
X73730Y140920
X77250Y105800
T10
X86290Y64160
X86290Y144160
T11
X98990Y148900
X98990Y148900
X41024Y139303
X46950Y149400
X39958Y137322
X104070Y144500
X31118Y143723
X44682Y147606
X104070Y148900
X48797Y148217
X101530Y148900
X46358Y147533
X98990Y145872
X48797Y68217
X44682Y67606
X104070Y68900
X79750Y130600
X101530Y68900
X66650Y50769
X79750Y50600
X46358Y67533
X98990Y65872
X46950Y69400
X98990Y68900
X98990Y68900
X41024Y59303
X66650Y130769
X39958Y57322
X104070Y64500
X31118Y63723
T12
X69350Y62200
X59250Y62200
X98417Y71343
X21150Y13760
X16150Y127500
X74050Y29500
X36450Y40100
X26850Y39400
X55350Y57800
X52350Y57800
X38150Y33500
X16195Y59055
X26230Y14100
X67050Y26000
X23650Y36400
X39450Y43700
X46950Y43700
X58950Y72000
X85150Y67366
X23650Y34400
X37150Y76600
X74650Y26000
X68150Y59500
X77131Y72481
X19350Y47495
X30150Y51500
X72750Y29500
X75750Y77300
X48450Y59900
X79267Y55245
X38193Y29243
X106610Y69240
X41024Y70733
X83150Y45500
X106650Y58200
X85450Y49900
X26230Y98500
X74050Y109500
X81960Y56261
X26230Y94100
X72750Y109500
X38550Y27600
X79267Y135245
X38193Y109243
X81960Y136261
X38550Y107600
X83150Y49805
X83750Y51900
X18150Y113500
X17150Y134912
X72150Y56500
X63150Y55500
X26230Y18500
X16160Y136290
X23690Y93760
X75350Y109600
X18150Y33500
X23690Y98840
X76550Y109500
X17150Y54912
X21150Y98840
X77850Y109500
X16150Y47500
X41470Y98840
X66450Y109500
X16160Y56290
X38930Y94100
X67650Y109600
X23690Y13760
X38930Y98500
X68950Y109500
X36390Y94100
X70150Y109500
X36390Y98500
X71450Y109500
X66150Y60500
X62150Y59500
X102750Y140920
X75350Y29600
X23690Y18840
X37950Y143100
X29450Y125100
X28750Y128000
X30850Y123700
X32750Y130700
X25650Y132000
X25350Y125400
X25350Y124100
X16950Y125500
X16150Y141000
X35988Y146662
X62150Y139500
X66150Y140500
X63150Y135500
X72150Y136500
X83750Y131900
X83150Y129805
X85450Y129900
X48450Y139900
X75750Y157300
X77131Y152481
X85150Y147366
X46950Y123700
X39450Y123700
X23650Y116400
X67050Y106000
X52350Y137800
X55350Y137800
X26850Y119400
X36450Y120100
X76550Y29500
X21150Y18840
X21150Y93760
X59250Y142200
X69350Y142200
X35988Y66662
X98417Y151343
X16150Y61000
X16950Y45500
X25350Y44100
X25350Y45400
X25650Y52000
X32750Y50700
X30850Y43700
X38150Y113500
X16195Y139055
X77850Y29500
X28750Y48000
X29450Y45100
X37950Y63100
X41470Y18840
X58950Y152000
X66450Y29500
X23650Y114400
X37150Y156600
X74650Y106000
X68150Y139500
X102750Y60920
X19350Y127495
X30150Y131500
X38930Y14100
X71450Y29500
X36390Y18500
X67650Y29600
X38930Y18500
X106610Y149240
X41024Y150733
X83150Y125500
X106650Y138200
X70150Y29500
X36390Y14100
X68950Y29500
T13
X22217Y133333
X67650Y35182
X15650Y137400
X109350Y126600
X66450Y34684
X24550Y22900
X33850Y22900
X77850Y37200
X92850Y139500
X90950Y157100
X76550Y39200
X111550Y122300
X33850Y102900
X75350Y38000
X24550Y102900
X67650Y115182
X66450Y114684
X77850Y117200
X76550Y119200
X75350Y118000
X72750Y115900
X74050Y116368
X22217Y53333
X15650Y57400
X72750Y35900
X109350Y46600
X92850Y59500
X74050Y36368
X111550Y42300
X90950Y77100
M30