G04 EAGLE Gerber RS-274X export*
G75*
%MOMM*%
%FSLAX34Y34*%
%LPD*%
%IN*%
%IPPOS*%
%AMOC8*
5,1,8,0,0,1.08239X$1,22.5*%
G01*
%ADD10C,0.254000*%


D10*
X-50000Y-50000D02*
X1350000Y-50000D01*
X1350000Y1780000D01*
X-50000Y1780000D01*
X-50000Y-50000D01*
X50000Y630000D02*
X100000Y630000D01*
X100000Y679424D01*
X100128Y682936D01*
X100562Y686424D01*
X101298Y689861D01*
X102331Y693221D01*
X103653Y696477D01*
X105254Y699607D01*
X107121Y702584D01*
X109240Y705388D01*
X111596Y707996D01*
X114171Y710389D01*
X116944Y712549D01*
X119895Y714458D01*
X123001Y716104D01*
X126238Y717472D01*
X129583Y718553D01*
X133008Y719338D01*
X136490Y719822D01*
X140000Y720000D01*
X280000Y720000D01*
X283462Y720126D01*
X286900Y720553D01*
X290288Y721279D01*
X293600Y722296D01*
X296810Y723599D01*
X299895Y725176D01*
X302830Y727017D01*
X305594Y729106D01*
X308165Y731428D01*
X310524Y733965D01*
X312653Y736698D01*
X314536Y739607D01*
X316158Y742668D01*
X317507Y745859D01*
X318572Y749156D01*
X319347Y752532D01*
X319824Y755964D01*
X320000Y759424D01*
X320000Y789424D01*
X320128Y792936D01*
X320562Y796424D01*
X321298Y799861D01*
X322331Y803221D01*
X323653Y806477D01*
X325254Y809607D01*
X327121Y812584D01*
X329240Y815388D01*
X331596Y817996D01*
X334171Y820389D01*
X336944Y822549D01*
X339895Y824458D01*
X343001Y826104D01*
X346238Y827472D01*
X349583Y828553D01*
X353008Y829338D01*
X356490Y829822D01*
X360000Y830000D01*
X670000Y830000D01*
X670000Y1010000D01*
X617492Y1010000D01*
X617200Y1009999D01*
X611973Y1009749D01*
X606788Y1009044D01*
X601684Y1007890D01*
X596700Y1006295D01*
X591874Y1004273D01*
X587243Y1001837D01*
X582841Y999006D01*
X578703Y995803D01*
X574860Y992252D01*
X501110Y917782D01*
X500862Y917533D01*
X497006Y914003D01*
X492856Y910822D01*
X488445Y908015D01*
X483806Y905603D01*
X478974Y903604D01*
X473987Y902034D01*
X468881Y900905D01*
X463697Y900225D01*
X458473Y900000D01*
X159995Y900000D01*
X154770Y900230D01*
X149579Y900914D01*
X144468Y902048D01*
X139475Y903624D01*
X134638Y905629D01*
X129995Y908047D01*
X125580Y910861D01*
X121427Y914049D01*
X117568Y917587D01*
X114032Y921448D01*
X110846Y925602D01*
X108034Y930018D01*
X105617Y934663D01*
X103615Y939500D01*
X102041Y944494D01*
X100909Y949606D01*
X100227Y954796D01*
X100000Y960027D01*
X100000Y1010000D01*
X50000Y1010000D01*
X50000Y630000D01*
X890000Y830000D02*
X940000Y830000D01*
X943510Y829822D01*
X946992Y829338D01*
X950418Y828553D01*
X953762Y827472D01*
X956999Y826104D01*
X960105Y824458D01*
X963056Y822549D01*
X965829Y820389D01*
X968404Y817996D01*
X970760Y815388D01*
X972879Y812584D01*
X974746Y809607D01*
X976347Y806477D01*
X977669Y803221D01*
X978702Y799861D01*
X979438Y796424D01*
X979872Y792936D01*
X980000Y789424D01*
X980000Y759424D01*
X980176Y755964D01*
X980653Y752532D01*
X981428Y749156D01*
X982493Y745859D01*
X983842Y742668D01*
X985464Y739607D01*
X987347Y736698D01*
X989476Y733965D01*
X991835Y731428D01*
X994406Y729106D01*
X997170Y727017D01*
X1000105Y725176D01*
X1003190Y723599D01*
X1006400Y722296D01*
X1009712Y721279D01*
X1013100Y720553D01*
X1016538Y720126D01*
X1020000Y720000D01*
X1160000Y720000D01*
X1163510Y719822D01*
X1166992Y719338D01*
X1170418Y718553D01*
X1173762Y717472D01*
X1176999Y716104D01*
X1180105Y714458D01*
X1183056Y712549D01*
X1185829Y710389D01*
X1188404Y707996D01*
X1190760Y705388D01*
X1192879Y702584D01*
X1194746Y699607D01*
X1196347Y696477D01*
X1197669Y693221D01*
X1198702Y689861D01*
X1199438Y686424D01*
X1199872Y682936D01*
X1200000Y679424D01*
X1200000Y630000D01*
X1250000Y630000D01*
X1250000Y1120000D01*
X1200000Y1120000D01*
X1200000Y1070032D01*
X1199773Y1064801D01*
X1199091Y1059610D01*
X1197959Y1054498D01*
X1196386Y1049504D01*
X1194384Y1044667D01*
X1191967Y1040022D01*
X1189155Y1035605D01*
X1185969Y1031451D01*
X1182433Y1027590D01*
X1178574Y1024051D01*
X1174421Y1020863D01*
X1170006Y1018049D01*
X1165362Y1015630D01*
X1160526Y1013625D01*
X1155533Y1012049D01*
X1150421Y1010915D01*
X1145231Y1010230D01*
X1140000Y1010000D01*
X890000Y1010000D01*
X890000Y830000D01*
X1090000Y50000D02*
X1250000Y50000D01*
X1250000Y320000D01*
X1200000Y320000D01*
X1200000Y270032D01*
X1199773Y264801D01*
X1199091Y259610D01*
X1197959Y254498D01*
X1196386Y249504D01*
X1194384Y244667D01*
X1191967Y240022D01*
X1189155Y235605D01*
X1185969Y231451D01*
X1182433Y227590D01*
X1178574Y224051D01*
X1174421Y220863D01*
X1170006Y218049D01*
X1165362Y215630D01*
X1160526Y213625D01*
X1155533Y212049D01*
X1150421Y210915D01*
X1145231Y210230D01*
X1140000Y210000D01*
X1090000Y210000D01*
X1090000Y50000D01*
X50000Y50000D02*
X670000Y50000D01*
X670000Y210000D01*
X617492Y210000D01*
X617200Y209999D01*
X611973Y209749D01*
X606788Y209044D01*
X601684Y207890D01*
X596700Y206295D01*
X591874Y204273D01*
X587243Y201837D01*
X582841Y199006D01*
X578703Y195803D01*
X574860Y192252D01*
X501110Y117782D01*
X500862Y117533D01*
X497006Y114003D01*
X492856Y110822D01*
X488445Y108015D01*
X483806Y105603D01*
X478974Y103604D01*
X473987Y102034D01*
X468881Y100905D01*
X463697Y100225D01*
X458473Y100000D01*
X159995Y100000D01*
X154770Y100230D01*
X149579Y100914D01*
X144468Y102048D01*
X139475Y103624D01*
X134638Y105629D01*
X129995Y108047D01*
X125580Y110861D01*
X121427Y114049D01*
X117568Y117587D01*
X114032Y121448D01*
X110846Y125602D01*
X108034Y130018D01*
X105617Y134663D01*
X103615Y139500D01*
X102041Y144494D01*
X100909Y149606D01*
X100227Y154796D01*
X100000Y160027D01*
X100000Y210000D01*
X50000Y210000D01*
X50000Y50000D01*
X50000Y1430000D02*
X100000Y1430000D01*
X100000Y1479424D01*
X100128Y1482936D01*
X100562Y1486424D01*
X101298Y1489861D01*
X102331Y1493221D01*
X103653Y1496477D01*
X105254Y1499607D01*
X107121Y1502584D01*
X109240Y1505388D01*
X111596Y1507996D01*
X114171Y1510389D01*
X116944Y1512549D01*
X119895Y1514458D01*
X123001Y1516104D01*
X126238Y1517472D01*
X129583Y1518553D01*
X133008Y1519338D01*
X136490Y1519822D01*
X140000Y1520000D01*
X280000Y1520000D01*
X283462Y1520126D01*
X286900Y1520553D01*
X290288Y1521279D01*
X293600Y1522296D01*
X296810Y1523599D01*
X299895Y1525176D01*
X302830Y1527017D01*
X305594Y1529106D01*
X308165Y1531428D01*
X310524Y1533965D01*
X312653Y1536698D01*
X314536Y1539607D01*
X316158Y1542668D01*
X317507Y1545859D01*
X318572Y1549156D01*
X319347Y1552532D01*
X319824Y1555964D01*
X320000Y1559424D01*
X320000Y1589424D01*
X320128Y1592936D01*
X320562Y1596424D01*
X321298Y1599861D01*
X322331Y1603221D01*
X323653Y1606477D01*
X325254Y1609607D01*
X327121Y1612584D01*
X329240Y1615388D01*
X331596Y1617996D01*
X334171Y1620389D01*
X336944Y1622549D01*
X339895Y1624458D01*
X343001Y1626104D01*
X346238Y1627472D01*
X349583Y1628553D01*
X353008Y1629338D01*
X356490Y1629822D01*
X360000Y1630000D01*
X410000Y1630000D01*
X410000Y1680000D01*
X50000Y1680000D01*
X50000Y1430000D01*
X890000Y1630000D02*
X940000Y1630000D01*
X943510Y1629822D01*
X946992Y1629338D01*
X950418Y1628553D01*
X953762Y1627472D01*
X956999Y1626104D01*
X960105Y1624458D01*
X963056Y1622549D01*
X965829Y1620389D01*
X968404Y1617996D01*
X970760Y1615388D01*
X972879Y1612584D01*
X974746Y1609607D01*
X976347Y1606477D01*
X977669Y1603221D01*
X978702Y1599861D01*
X979438Y1596424D01*
X979872Y1592936D01*
X980000Y1589424D01*
X980000Y1559424D01*
X980176Y1555964D01*
X980653Y1552532D01*
X981428Y1549156D01*
X982493Y1545859D01*
X983842Y1542668D01*
X985464Y1539607D01*
X987347Y1536698D01*
X989476Y1533965D01*
X991835Y1531428D01*
X994406Y1529106D01*
X997170Y1527017D01*
X1000105Y1525176D01*
X1003190Y1523599D01*
X1006400Y1522296D01*
X1009712Y1521279D01*
X1013100Y1520553D01*
X1016538Y1520126D01*
X1020000Y1520000D01*
X1160000Y1520000D01*
X1163510Y1519822D01*
X1166992Y1519338D01*
X1170418Y1518553D01*
X1173762Y1517472D01*
X1176999Y1516104D01*
X1180105Y1514458D01*
X1183056Y1512549D01*
X1185829Y1510389D01*
X1188404Y1507996D01*
X1190760Y1505388D01*
X1192879Y1502584D01*
X1194746Y1499607D01*
X1196347Y1496477D01*
X1197669Y1493221D01*
X1198702Y1489861D01*
X1199438Y1486424D01*
X1199872Y1482936D01*
X1200000Y1479424D01*
X1200000Y1420000D01*
X1250000Y1420000D01*
X1250000Y1680000D01*
X890000Y1680000D01*
X890000Y1630000D01*
X461700Y760282D02*
X461631Y759320D01*
X461494Y758366D01*
X461289Y757423D01*
X461017Y756498D01*
X460680Y755594D01*
X460280Y754717D01*
X459818Y753871D01*
X459296Y753060D01*
X458718Y752288D01*
X458087Y751559D01*
X457405Y750877D01*
X456676Y750246D01*
X455904Y749668D01*
X455093Y749146D01*
X454247Y748684D01*
X453370Y748284D01*
X452466Y747947D01*
X451541Y747675D01*
X450599Y747470D01*
X449644Y747333D01*
X448682Y747264D01*
X447718Y747264D01*
X446756Y747333D01*
X445802Y747470D01*
X444859Y747675D01*
X443934Y747947D01*
X443030Y748284D01*
X442153Y748684D01*
X441307Y749146D01*
X440496Y749668D01*
X439724Y750246D01*
X438995Y750877D01*
X438313Y751559D01*
X437682Y752288D01*
X437104Y753060D01*
X436582Y753871D01*
X436120Y754717D01*
X435720Y755594D01*
X435383Y756498D01*
X435111Y757423D01*
X434906Y758366D01*
X434769Y759320D01*
X434700Y760282D01*
X434700Y761246D01*
X434769Y762208D01*
X434906Y763163D01*
X435111Y764105D01*
X435383Y765030D01*
X435720Y765934D01*
X436120Y766811D01*
X436582Y767657D01*
X437104Y768468D01*
X437682Y769240D01*
X438313Y769969D01*
X438995Y770651D01*
X439724Y771282D01*
X440496Y771860D01*
X441307Y772382D01*
X442153Y772844D01*
X443030Y773244D01*
X443934Y773581D01*
X444859Y773853D01*
X445802Y774058D01*
X446756Y774195D01*
X447718Y774264D01*
X448682Y774264D01*
X449644Y774195D01*
X450599Y774058D01*
X451541Y773853D01*
X452466Y773581D01*
X453370Y773244D01*
X454247Y772844D01*
X455093Y772382D01*
X455904Y771860D01*
X456676Y771282D01*
X457405Y770651D01*
X458087Y769969D01*
X458718Y769240D01*
X459296Y768468D01*
X459818Y767657D01*
X460280Y766811D01*
X460680Y765934D01*
X461017Y765030D01*
X461289Y764105D01*
X461494Y763163D01*
X461631Y762208D01*
X461700Y761246D01*
X461700Y760282D01*
X661660Y760282D02*
X661591Y759320D01*
X661454Y758366D01*
X661249Y757423D01*
X660977Y756498D01*
X660640Y755594D01*
X660240Y754717D01*
X659778Y753871D01*
X659256Y753060D01*
X658678Y752288D01*
X658047Y751559D01*
X657365Y750877D01*
X656636Y750246D01*
X655864Y749668D01*
X655053Y749146D01*
X654207Y748684D01*
X653330Y748284D01*
X652426Y747947D01*
X651501Y747675D01*
X650559Y747470D01*
X649604Y747333D01*
X648642Y747264D01*
X647678Y747264D01*
X646716Y747333D01*
X645762Y747470D01*
X644819Y747675D01*
X643894Y747947D01*
X642990Y748284D01*
X642113Y748684D01*
X641267Y749146D01*
X640456Y749668D01*
X639684Y750246D01*
X638955Y750877D01*
X638273Y751559D01*
X637642Y752288D01*
X637064Y753060D01*
X636542Y753871D01*
X636080Y754717D01*
X635680Y755594D01*
X635343Y756498D01*
X635071Y757423D01*
X634866Y758366D01*
X634729Y759320D01*
X634660Y760282D01*
X634660Y761246D01*
X634729Y762208D01*
X634866Y763163D01*
X635071Y764105D01*
X635343Y765030D01*
X635680Y765934D01*
X636080Y766811D01*
X636542Y767657D01*
X637064Y768468D01*
X637642Y769240D01*
X638273Y769969D01*
X638955Y770651D01*
X639684Y771282D01*
X640456Y771860D01*
X641267Y772382D01*
X642113Y772844D01*
X642990Y773244D01*
X643894Y773581D01*
X644819Y773853D01*
X645762Y774058D01*
X646716Y774195D01*
X647678Y774264D01*
X648642Y774264D01*
X649604Y774195D01*
X650559Y774058D01*
X651501Y773853D01*
X652426Y773581D01*
X653330Y773244D01*
X654207Y772844D01*
X655053Y772382D01*
X655864Y771860D01*
X656636Y771282D01*
X657365Y770651D01*
X658047Y769969D01*
X658678Y769240D01*
X659256Y768468D01*
X659778Y767657D01*
X660240Y766811D01*
X660640Y765934D01*
X660977Y765030D01*
X661249Y764105D01*
X661454Y763163D01*
X661591Y762208D01*
X661660Y761246D01*
X661660Y760282D01*
X861700Y760782D02*
X861631Y759820D01*
X861494Y758866D01*
X861289Y757923D01*
X861017Y756998D01*
X860680Y756094D01*
X860280Y755217D01*
X859818Y754371D01*
X859296Y753560D01*
X858718Y752788D01*
X858087Y752059D01*
X857405Y751377D01*
X856676Y750746D01*
X855904Y750168D01*
X855093Y749646D01*
X854247Y749184D01*
X853370Y748784D01*
X852466Y748447D01*
X851541Y748175D01*
X850599Y747970D01*
X849644Y747833D01*
X848682Y747764D01*
X847718Y747764D01*
X846756Y747833D01*
X845802Y747970D01*
X844859Y748175D01*
X843934Y748447D01*
X843030Y748784D01*
X842153Y749184D01*
X841307Y749646D01*
X840496Y750168D01*
X839724Y750746D01*
X838995Y751377D01*
X838313Y752059D01*
X837682Y752788D01*
X837104Y753560D01*
X836582Y754371D01*
X836120Y755217D01*
X835720Y756094D01*
X835383Y756998D01*
X835111Y757923D01*
X834906Y758866D01*
X834769Y759820D01*
X834700Y760782D01*
X834700Y761746D01*
X834769Y762708D01*
X834906Y763663D01*
X835111Y764605D01*
X835383Y765530D01*
X835720Y766434D01*
X836120Y767311D01*
X836582Y768157D01*
X837104Y768968D01*
X837682Y769740D01*
X838313Y770469D01*
X838995Y771151D01*
X839724Y771782D01*
X840496Y772360D01*
X841307Y772882D01*
X842153Y773344D01*
X843030Y773744D01*
X843934Y774081D01*
X844859Y774353D01*
X845802Y774558D01*
X846756Y774695D01*
X847718Y774764D01*
X848682Y774764D01*
X849644Y774695D01*
X850599Y774558D01*
X851541Y774353D01*
X852466Y774081D01*
X853370Y773744D01*
X854247Y773344D01*
X855093Y772882D01*
X855904Y772360D01*
X856676Y771782D01*
X857405Y771151D01*
X858087Y770469D01*
X858718Y769740D01*
X859296Y768968D01*
X859818Y768157D01*
X860280Y767311D01*
X860680Y766434D01*
X861017Y765530D01*
X861289Y764605D01*
X861494Y763663D01*
X861631Y762708D01*
X861700Y761746D01*
X861700Y760782D01*
X461700Y1560282D02*
X461631Y1559320D01*
X461494Y1558366D01*
X461289Y1557423D01*
X461017Y1556498D01*
X460680Y1555594D01*
X460280Y1554717D01*
X459818Y1553871D01*
X459296Y1553060D01*
X458718Y1552288D01*
X458087Y1551559D01*
X457405Y1550877D01*
X456676Y1550246D01*
X455904Y1549668D01*
X455093Y1549146D01*
X454247Y1548684D01*
X453370Y1548284D01*
X452466Y1547947D01*
X451541Y1547675D01*
X450599Y1547470D01*
X449644Y1547333D01*
X448682Y1547264D01*
X447718Y1547264D01*
X446756Y1547333D01*
X445802Y1547470D01*
X444859Y1547675D01*
X443934Y1547947D01*
X443030Y1548284D01*
X442153Y1548684D01*
X441307Y1549146D01*
X440496Y1549668D01*
X439724Y1550246D01*
X438995Y1550877D01*
X438313Y1551559D01*
X437682Y1552288D01*
X437104Y1553060D01*
X436582Y1553871D01*
X436120Y1554717D01*
X435720Y1555594D01*
X435383Y1556498D01*
X435111Y1557423D01*
X434906Y1558366D01*
X434769Y1559320D01*
X434700Y1560282D01*
X434700Y1561246D01*
X434769Y1562208D01*
X434906Y1563163D01*
X435111Y1564105D01*
X435383Y1565030D01*
X435720Y1565934D01*
X436120Y1566811D01*
X436582Y1567657D01*
X437104Y1568468D01*
X437682Y1569240D01*
X438313Y1569969D01*
X438995Y1570651D01*
X439724Y1571282D01*
X440496Y1571860D01*
X441307Y1572382D01*
X442153Y1572844D01*
X443030Y1573244D01*
X443934Y1573581D01*
X444859Y1573853D01*
X445802Y1574058D01*
X446756Y1574195D01*
X447718Y1574264D01*
X448682Y1574264D01*
X449644Y1574195D01*
X450599Y1574058D01*
X451541Y1573853D01*
X452466Y1573581D01*
X453370Y1573244D01*
X454247Y1572844D01*
X455093Y1572382D01*
X455904Y1571860D01*
X456676Y1571282D01*
X457405Y1570651D01*
X458087Y1569969D01*
X458718Y1569240D01*
X459296Y1568468D01*
X459818Y1567657D01*
X460280Y1566811D01*
X460680Y1565934D01*
X461017Y1565030D01*
X461289Y1564105D01*
X461494Y1563163D01*
X461631Y1562208D01*
X461700Y1561246D01*
X461700Y1560282D01*
X661660Y1560282D02*
X661591Y1559320D01*
X661454Y1558366D01*
X661249Y1557423D01*
X660977Y1556498D01*
X660640Y1555594D01*
X660240Y1554717D01*
X659778Y1553871D01*
X659256Y1553060D01*
X658678Y1552288D01*
X658047Y1551559D01*
X657365Y1550877D01*
X656636Y1550246D01*
X655864Y1549668D01*
X655053Y1549146D01*
X654207Y1548684D01*
X653330Y1548284D01*
X652426Y1547947D01*
X651501Y1547675D01*
X650559Y1547470D01*
X649604Y1547333D01*
X648642Y1547264D01*
X647678Y1547264D01*
X646716Y1547333D01*
X645762Y1547470D01*
X644819Y1547675D01*
X643894Y1547947D01*
X642990Y1548284D01*
X642113Y1548684D01*
X641267Y1549146D01*
X640456Y1549668D01*
X639684Y1550246D01*
X638955Y1550877D01*
X638273Y1551559D01*
X637642Y1552288D01*
X637064Y1553060D01*
X636542Y1553871D01*
X636080Y1554717D01*
X635680Y1555594D01*
X635343Y1556498D01*
X635071Y1557423D01*
X634866Y1558366D01*
X634729Y1559320D01*
X634660Y1560282D01*
X634660Y1561246D01*
X634729Y1562208D01*
X634866Y1563163D01*
X635071Y1564105D01*
X635343Y1565030D01*
X635680Y1565934D01*
X636080Y1566811D01*
X636542Y1567657D01*
X637064Y1568468D01*
X637642Y1569240D01*
X638273Y1569969D01*
X638955Y1570651D01*
X639684Y1571282D01*
X640456Y1571860D01*
X641267Y1572382D01*
X642113Y1572844D01*
X642990Y1573244D01*
X643894Y1573581D01*
X644819Y1573853D01*
X645762Y1574058D01*
X646716Y1574195D01*
X647678Y1574264D01*
X648642Y1574264D01*
X649604Y1574195D01*
X650559Y1574058D01*
X651501Y1573853D01*
X652426Y1573581D01*
X653330Y1573244D01*
X654207Y1572844D01*
X655053Y1572382D01*
X655864Y1571860D01*
X656636Y1571282D01*
X657365Y1570651D01*
X658047Y1569969D01*
X658678Y1569240D01*
X659256Y1568468D01*
X659778Y1567657D01*
X660240Y1566811D01*
X660640Y1565934D01*
X660977Y1565030D01*
X661249Y1564105D01*
X661454Y1563163D01*
X661591Y1562208D01*
X661660Y1561246D01*
X661660Y1560282D01*
X861700Y1560782D02*
X861631Y1559820D01*
X861494Y1558866D01*
X861289Y1557923D01*
X861017Y1556998D01*
X860680Y1556094D01*
X860280Y1555217D01*
X859818Y1554371D01*
X859296Y1553560D01*
X858718Y1552788D01*
X858087Y1552059D01*
X857405Y1551377D01*
X856676Y1550746D01*
X855904Y1550168D01*
X855093Y1549646D01*
X854247Y1549184D01*
X853370Y1548784D01*
X852466Y1548447D01*
X851541Y1548175D01*
X850599Y1547970D01*
X849644Y1547833D01*
X848682Y1547764D01*
X847718Y1547764D01*
X846756Y1547833D01*
X845802Y1547970D01*
X844859Y1548175D01*
X843934Y1548447D01*
X843030Y1548784D01*
X842153Y1549184D01*
X841307Y1549646D01*
X840496Y1550168D01*
X839724Y1550746D01*
X838995Y1551377D01*
X838313Y1552059D01*
X837682Y1552788D01*
X837104Y1553560D01*
X836582Y1554371D01*
X836120Y1555217D01*
X835720Y1556094D01*
X835383Y1556998D01*
X835111Y1557923D01*
X834906Y1558866D01*
X834769Y1559820D01*
X834700Y1560782D01*
X834700Y1561746D01*
X834769Y1562708D01*
X834906Y1563663D01*
X835111Y1564605D01*
X835383Y1565530D01*
X835720Y1566434D01*
X836120Y1567311D01*
X836582Y1568157D01*
X837104Y1568968D01*
X837682Y1569740D01*
X838313Y1570469D01*
X838995Y1571151D01*
X839724Y1571782D01*
X840496Y1572360D01*
X841307Y1572882D01*
X842153Y1573344D01*
X843030Y1573744D01*
X843934Y1574081D01*
X844859Y1574353D01*
X845802Y1574558D01*
X846756Y1574695D01*
X847718Y1574764D01*
X848682Y1574764D01*
X849644Y1574695D01*
X850599Y1574558D01*
X851541Y1574353D01*
X852466Y1574081D01*
X853370Y1573744D01*
X854247Y1573344D01*
X855093Y1572882D01*
X855904Y1572360D01*
X856676Y1571782D01*
X857405Y1571151D01*
X858087Y1570469D01*
X858718Y1569740D01*
X859296Y1568968D01*
X859818Y1568157D01*
X860280Y1567311D01*
X860680Y1566434D01*
X861017Y1565530D01*
X861289Y1564605D01*
X861494Y1563663D01*
X861631Y1562708D01*
X861700Y1561746D01*
X861700Y1560782D01*
X37700Y1549501D02*
X37622Y1548506D01*
X37466Y1547520D01*
X37233Y1546550D01*
X36924Y1545601D01*
X36542Y1544679D01*
X36089Y1543790D01*
X35568Y1542939D01*
X34981Y1542131D01*
X34333Y1541373D01*
X33627Y1540667D01*
X32869Y1540019D01*
X32061Y1539432D01*
X31210Y1538911D01*
X30321Y1538458D01*
X29399Y1538076D01*
X28450Y1537767D01*
X27480Y1537534D01*
X26494Y1537378D01*
X25499Y1537300D01*
X24501Y1537300D01*
X23506Y1537378D01*
X22520Y1537534D01*
X21550Y1537767D01*
X20601Y1538076D01*
X19679Y1538458D01*
X18790Y1538911D01*
X17939Y1539432D01*
X17131Y1540019D01*
X16373Y1540667D01*
X15667Y1541373D01*
X15019Y1542131D01*
X14432Y1542939D01*
X13911Y1543790D01*
X13458Y1544679D01*
X13076Y1545601D01*
X12767Y1546550D01*
X12534Y1547520D01*
X12378Y1548506D01*
X12300Y1549501D01*
X12300Y1550499D01*
X12378Y1551494D01*
X12534Y1552480D01*
X12767Y1553450D01*
X13076Y1554399D01*
X13458Y1555321D01*
X13911Y1556210D01*
X14432Y1557061D01*
X15019Y1557869D01*
X15667Y1558627D01*
X16373Y1559333D01*
X17131Y1559981D01*
X17939Y1560568D01*
X18790Y1561089D01*
X19679Y1561542D01*
X20601Y1561924D01*
X21550Y1562233D01*
X22520Y1562466D01*
X23506Y1562622D01*
X24501Y1562700D01*
X25499Y1562700D01*
X26494Y1562622D01*
X27480Y1562466D01*
X28450Y1562233D01*
X29399Y1561924D01*
X30321Y1561542D01*
X31210Y1561089D01*
X32061Y1560568D01*
X32869Y1559981D01*
X33627Y1559333D01*
X34333Y1558627D01*
X34981Y1557869D01*
X35568Y1557061D01*
X36089Y1556210D01*
X36542Y1555321D01*
X36924Y1554399D01*
X37233Y1553450D01*
X37466Y1552480D01*
X37622Y1551494D01*
X37700Y1550499D01*
X37700Y1549501D01*
X1287700Y1549501D02*
X1287622Y1548506D01*
X1287466Y1547520D01*
X1287233Y1546550D01*
X1286924Y1545601D01*
X1286542Y1544679D01*
X1286089Y1543790D01*
X1285568Y1542939D01*
X1284981Y1542131D01*
X1284333Y1541373D01*
X1283627Y1540667D01*
X1282869Y1540019D01*
X1282061Y1539432D01*
X1281210Y1538911D01*
X1280321Y1538458D01*
X1279399Y1538076D01*
X1278450Y1537767D01*
X1277480Y1537534D01*
X1276494Y1537378D01*
X1275499Y1537300D01*
X1274501Y1537300D01*
X1273506Y1537378D01*
X1272520Y1537534D01*
X1271550Y1537767D01*
X1270601Y1538076D01*
X1269679Y1538458D01*
X1268790Y1538911D01*
X1267939Y1539432D01*
X1267131Y1540019D01*
X1266373Y1540667D01*
X1265667Y1541373D01*
X1265019Y1542131D01*
X1264432Y1542939D01*
X1263911Y1543790D01*
X1263458Y1544679D01*
X1263076Y1545601D01*
X1262767Y1546550D01*
X1262534Y1547520D01*
X1262378Y1548506D01*
X1262300Y1549501D01*
X1262300Y1550499D01*
X1262378Y1551494D01*
X1262534Y1552480D01*
X1262767Y1553450D01*
X1263076Y1554399D01*
X1263458Y1555321D01*
X1263911Y1556210D01*
X1264432Y1557061D01*
X1265019Y1557869D01*
X1265667Y1558627D01*
X1266373Y1559333D01*
X1267131Y1559981D01*
X1267939Y1560568D01*
X1268790Y1561089D01*
X1269679Y1561542D01*
X1270601Y1561924D01*
X1271550Y1562233D01*
X1272520Y1562466D01*
X1273506Y1562622D01*
X1274501Y1562700D01*
X1275499Y1562700D01*
X1276494Y1562622D01*
X1277480Y1562466D01*
X1278450Y1562233D01*
X1279399Y1561924D01*
X1280321Y1561542D01*
X1281210Y1561089D01*
X1282061Y1560568D01*
X1282869Y1559981D01*
X1283627Y1559333D01*
X1284333Y1558627D01*
X1284981Y1557869D01*
X1285568Y1557061D01*
X1286089Y1556210D01*
X1286542Y1555321D01*
X1286924Y1554399D01*
X1287233Y1553450D01*
X1287466Y1552480D01*
X1287622Y1551494D01*
X1287700Y1550499D01*
X1287700Y1549501D01*
X1287700Y179501D02*
X1287622Y178506D01*
X1287466Y177520D01*
X1287233Y176550D01*
X1286924Y175601D01*
X1286542Y174679D01*
X1286089Y173790D01*
X1285568Y172939D01*
X1284981Y172131D01*
X1284333Y171373D01*
X1283627Y170667D01*
X1282869Y170019D01*
X1282061Y169432D01*
X1281210Y168911D01*
X1280321Y168458D01*
X1279399Y168076D01*
X1278450Y167767D01*
X1277480Y167534D01*
X1276494Y167378D01*
X1275499Y167300D01*
X1274501Y167300D01*
X1273506Y167378D01*
X1272520Y167534D01*
X1271550Y167767D01*
X1270601Y168076D01*
X1269679Y168458D01*
X1268790Y168911D01*
X1267939Y169432D01*
X1267131Y170019D01*
X1266373Y170667D01*
X1265667Y171373D01*
X1265019Y172131D01*
X1264432Y172939D01*
X1263911Y173790D01*
X1263458Y174679D01*
X1263076Y175601D01*
X1262767Y176550D01*
X1262534Y177520D01*
X1262378Y178506D01*
X1262300Y179501D01*
X1262300Y180499D01*
X1262378Y181494D01*
X1262534Y182480D01*
X1262767Y183450D01*
X1263076Y184399D01*
X1263458Y185321D01*
X1263911Y186210D01*
X1264432Y187061D01*
X1265019Y187869D01*
X1265667Y188627D01*
X1266373Y189333D01*
X1267131Y189981D01*
X1267939Y190568D01*
X1268790Y191089D01*
X1269679Y191542D01*
X1270601Y191924D01*
X1271550Y192233D01*
X1272520Y192466D01*
X1273506Y192622D01*
X1274501Y192700D01*
X1275499Y192700D01*
X1276494Y192622D01*
X1277480Y192466D01*
X1278450Y192233D01*
X1279399Y191924D01*
X1280321Y191542D01*
X1281210Y191089D01*
X1282061Y190568D01*
X1282869Y189981D01*
X1283627Y189333D01*
X1284333Y188627D01*
X1284981Y187869D01*
X1285568Y187061D01*
X1286089Y186210D01*
X1286542Y185321D01*
X1286924Y184399D01*
X1287233Y183450D01*
X1287466Y182480D01*
X1287622Y181494D01*
X1287700Y180499D01*
X1287700Y179501D01*
X37700Y179501D02*
X37622Y178506D01*
X37466Y177520D01*
X37233Y176550D01*
X36924Y175601D01*
X36542Y174679D01*
X36089Y173790D01*
X35568Y172939D01*
X34981Y172131D01*
X34333Y171373D01*
X33627Y170667D01*
X32869Y170019D01*
X32061Y169432D01*
X31210Y168911D01*
X30321Y168458D01*
X29399Y168076D01*
X28450Y167767D01*
X27480Y167534D01*
X26494Y167378D01*
X25499Y167300D01*
X24501Y167300D01*
X23506Y167378D01*
X22520Y167534D01*
X21550Y167767D01*
X20601Y168076D01*
X19679Y168458D01*
X18790Y168911D01*
X17939Y169432D01*
X17131Y170019D01*
X16373Y170667D01*
X15667Y171373D01*
X15019Y172131D01*
X14432Y172939D01*
X13911Y173790D01*
X13458Y174679D01*
X13076Y175601D01*
X12767Y176550D01*
X12534Y177520D01*
X12378Y178506D01*
X12300Y179501D01*
X12300Y180499D01*
X12378Y181494D01*
X12534Y182480D01*
X12767Y183450D01*
X13076Y184399D01*
X13458Y185321D01*
X13911Y186210D01*
X14432Y187061D01*
X15019Y187869D01*
X15667Y188627D01*
X16373Y189333D01*
X17131Y189981D01*
X17939Y190568D01*
X18790Y191089D01*
X19679Y191542D01*
X20601Y191924D01*
X21550Y192233D01*
X22520Y192466D01*
X23506Y192622D01*
X24501Y192700D01*
X25499Y192700D01*
X26494Y192622D01*
X27480Y192466D01*
X28450Y192233D01*
X29399Y191924D01*
X30321Y191542D01*
X31210Y191089D01*
X32061Y190568D01*
X32869Y189981D01*
X33627Y189333D01*
X34333Y188627D01*
X34981Y187869D01*
X35568Y187061D01*
X36089Y186210D01*
X36542Y185321D01*
X36924Y184399D01*
X37233Y183450D01*
X37466Y182480D01*
X37622Y181494D01*
X37700Y180499D01*
X37700Y179501D01*
X875988Y674900D02*
X876761Y674824D01*
X877522Y674673D01*
X878265Y674447D01*
X878982Y674150D01*
X879666Y673784D01*
X880312Y673353D01*
X880912Y672861D01*
X881461Y672312D01*
X881953Y671712D01*
X882384Y671066D01*
X882750Y670382D01*
X883047Y669665D01*
X883273Y668922D01*
X883424Y668161D01*
X883500Y667388D01*
X883500Y666612D01*
X883424Y665839D01*
X883273Y665078D01*
X883047Y664335D01*
X882750Y663618D01*
X882384Y662934D01*
X881953Y662288D01*
X881461Y661688D01*
X880912Y661139D01*
X880312Y660647D01*
X879666Y660216D01*
X878982Y659850D01*
X878265Y659553D01*
X877522Y659328D01*
X876761Y659176D01*
X875988Y659100D01*
X875212Y659100D01*
X874439Y659176D01*
X873678Y659328D01*
X872935Y659553D01*
X872218Y659850D01*
X871534Y660216D01*
X870888Y660647D01*
X870288Y661139D01*
X869739Y661688D01*
X869247Y662288D01*
X868816Y662934D01*
X868450Y663618D01*
X868153Y664335D01*
X867928Y665078D01*
X867776Y665839D01*
X867700Y666612D01*
X867700Y667388D01*
X867776Y668161D01*
X867928Y668922D01*
X868153Y669665D01*
X868450Y670382D01*
X868816Y671066D01*
X869247Y671712D01*
X869739Y672312D01*
X870288Y672861D01*
X870888Y673353D01*
X871534Y673784D01*
X872218Y674150D01*
X872935Y674447D01*
X873678Y674673D01*
X874439Y674824D01*
X875212Y674900D01*
X875988Y674900D01*
X1079188Y674900D02*
X1079961Y674824D01*
X1080722Y674673D01*
X1081465Y674447D01*
X1082182Y674150D01*
X1082866Y673784D01*
X1083512Y673353D01*
X1084112Y672861D01*
X1084661Y672312D01*
X1085153Y671712D01*
X1085584Y671066D01*
X1085950Y670382D01*
X1086247Y669665D01*
X1086473Y668922D01*
X1086624Y668161D01*
X1086700Y667388D01*
X1086700Y666612D01*
X1086624Y665839D01*
X1086473Y665078D01*
X1086247Y664335D01*
X1085950Y663618D01*
X1085584Y662934D01*
X1085153Y662288D01*
X1084661Y661688D01*
X1084112Y661139D01*
X1083512Y660647D01*
X1082866Y660216D01*
X1082182Y659850D01*
X1081465Y659553D01*
X1080722Y659328D01*
X1079961Y659176D01*
X1079188Y659100D01*
X1078412Y659100D01*
X1077639Y659176D01*
X1076878Y659328D01*
X1076135Y659553D01*
X1075418Y659850D01*
X1074734Y660216D01*
X1074088Y660647D01*
X1073488Y661139D01*
X1072939Y661688D01*
X1072447Y662288D01*
X1072016Y662934D01*
X1071650Y663618D01*
X1071353Y664335D01*
X1071128Y665078D01*
X1070976Y665839D01*
X1070900Y666612D01*
X1070900Y667388D01*
X1070976Y668161D01*
X1071128Y668922D01*
X1071353Y669665D01*
X1071650Y670382D01*
X1072016Y671066D01*
X1072447Y671712D01*
X1072939Y672312D01*
X1073488Y672861D01*
X1074088Y673353D01*
X1074734Y673784D01*
X1075418Y674150D01*
X1076135Y674447D01*
X1076878Y674673D01*
X1077639Y674824D01*
X1078412Y674900D01*
X1079188Y674900D01*
X427012Y155100D02*
X426239Y155176D01*
X425478Y155328D01*
X424735Y155553D01*
X424018Y155850D01*
X423334Y156216D01*
X422688Y156647D01*
X422088Y157139D01*
X421539Y157688D01*
X421047Y158288D01*
X420616Y158934D01*
X420250Y159618D01*
X419953Y160335D01*
X419728Y161078D01*
X419576Y161839D01*
X419500Y162612D01*
X419500Y163388D01*
X419576Y164161D01*
X419728Y164922D01*
X419953Y165665D01*
X420250Y166382D01*
X420616Y167066D01*
X421047Y167712D01*
X421539Y168312D01*
X422088Y168861D01*
X422688Y169353D01*
X423334Y169784D01*
X424018Y170150D01*
X424735Y170447D01*
X425478Y170673D01*
X426239Y170824D01*
X427012Y170900D01*
X427788Y170900D01*
X428561Y170824D01*
X429322Y170673D01*
X430065Y170447D01*
X430782Y170150D01*
X431466Y169784D01*
X432112Y169353D01*
X432712Y168861D01*
X433261Y168312D01*
X433753Y167712D01*
X434184Y167066D01*
X434550Y166382D01*
X434847Y165665D01*
X435073Y164922D01*
X435224Y164161D01*
X435300Y163388D01*
X435300Y162612D01*
X435224Y161839D01*
X435073Y161078D01*
X434847Y160335D01*
X434550Y159618D01*
X434184Y158934D01*
X433753Y158288D01*
X433261Y157688D01*
X432712Y157139D01*
X432112Y156647D01*
X431466Y156216D01*
X430782Y155850D01*
X430065Y155553D01*
X429322Y155328D01*
X428561Y155176D01*
X427788Y155100D01*
X427012Y155100D01*
X223812Y155100D02*
X223039Y155176D01*
X222278Y155328D01*
X221535Y155553D01*
X220818Y155850D01*
X220134Y156216D01*
X219488Y156647D01*
X218888Y157139D01*
X218339Y157688D01*
X217847Y158288D01*
X217416Y158934D01*
X217050Y159618D01*
X216753Y160335D01*
X216528Y161078D01*
X216376Y161839D01*
X216300Y162612D01*
X216300Y163388D01*
X216376Y164161D01*
X216528Y164922D01*
X216753Y165665D01*
X217050Y166382D01*
X217416Y167066D01*
X217847Y167712D01*
X218339Y168312D01*
X218888Y168861D01*
X219488Y169353D01*
X220134Y169784D01*
X220818Y170150D01*
X221535Y170447D01*
X222278Y170673D01*
X223039Y170824D01*
X223812Y170900D01*
X224588Y170900D01*
X225361Y170824D01*
X226122Y170673D01*
X226865Y170447D01*
X227582Y170150D01*
X228266Y169784D01*
X228912Y169353D01*
X229512Y168861D01*
X230061Y168312D01*
X230553Y167712D01*
X230984Y167066D01*
X231350Y166382D01*
X231647Y165665D01*
X231873Y164922D01*
X232024Y164161D01*
X232100Y163388D01*
X232100Y162612D01*
X232024Y161839D01*
X231873Y161078D01*
X231647Y160335D01*
X231350Y159618D01*
X230984Y158934D01*
X230553Y158288D01*
X230061Y157688D01*
X229512Y157139D01*
X228912Y156647D01*
X228266Y156216D01*
X227582Y155850D01*
X226865Y155553D01*
X226122Y155328D01*
X225361Y155176D01*
X224588Y155100D01*
X223812Y155100D01*
X424349Y541260D02*
X425019Y541185D01*
X425676Y541035D01*
X426312Y540812D01*
X426919Y540520D01*
X427490Y540161D01*
X428016Y539741D01*
X428493Y539264D01*
X428913Y538738D01*
X429272Y538167D01*
X429564Y537560D01*
X429787Y536924D01*
X429937Y536267D01*
X430012Y535597D01*
X430012Y534923D01*
X429937Y534253D01*
X429787Y533596D01*
X429564Y532960D01*
X429272Y532353D01*
X428913Y531783D01*
X428493Y531256D01*
X428016Y530779D01*
X427490Y530359D01*
X426919Y530000D01*
X426312Y529708D01*
X425676Y529485D01*
X425019Y529335D01*
X424349Y529260D01*
X423675Y529260D01*
X423005Y529335D01*
X422348Y529485D01*
X421712Y529708D01*
X421105Y530000D01*
X420535Y530359D01*
X420008Y530779D01*
X419531Y531256D01*
X419111Y531783D01*
X418752Y532353D01*
X418460Y532960D01*
X418237Y533596D01*
X418087Y534253D01*
X418012Y534923D01*
X418012Y535597D01*
X418087Y536267D01*
X418237Y536924D01*
X418460Y537560D01*
X418752Y538167D01*
X419111Y538738D01*
X419531Y539264D01*
X420008Y539741D01*
X420535Y540161D01*
X421105Y540520D01*
X421712Y540812D01*
X422348Y541035D01*
X423005Y541185D01*
X423675Y541260D01*
X424349Y541260D01*
X382436Y789438D02*
X382504Y789958D01*
X382640Y790465D01*
X382841Y790949D01*
X383103Y791403D01*
X383422Y791819D01*
X383793Y792190D01*
X384209Y792509D01*
X384663Y792771D01*
X385147Y792972D01*
X385654Y793108D01*
X386174Y793176D01*
X386698Y793176D01*
X387218Y793108D01*
X387725Y792972D01*
X388209Y792771D01*
X388663Y792509D01*
X389079Y792190D01*
X389450Y791819D01*
X389769Y791403D01*
X390031Y790949D01*
X390232Y790465D01*
X390368Y789958D01*
X390436Y789438D01*
X390436Y788914D01*
X390368Y788394D01*
X390232Y787887D01*
X390031Y787403D01*
X389769Y786949D01*
X389450Y786533D01*
X389079Y786162D01*
X388663Y785843D01*
X388209Y785581D01*
X387725Y785380D01*
X387218Y785244D01*
X386698Y785176D01*
X386174Y785176D01*
X385654Y785244D01*
X385147Y785380D01*
X384663Y785581D01*
X384209Y785843D01*
X383793Y786162D01*
X383422Y786533D01*
X383103Y786949D01*
X382841Y787403D01*
X382640Y787887D01*
X382504Y788394D01*
X382436Y788914D01*
X382436Y789438D01*
X352436Y789438D02*
X352504Y789958D01*
X352640Y790465D01*
X352841Y790949D01*
X353103Y791403D01*
X353422Y791819D01*
X353793Y792190D01*
X354209Y792509D01*
X354663Y792771D01*
X355147Y792972D01*
X355654Y793108D01*
X356174Y793176D01*
X356698Y793176D01*
X357218Y793108D01*
X357725Y792972D01*
X358209Y792771D01*
X358663Y792509D01*
X359079Y792190D01*
X359450Y791819D01*
X359769Y791403D01*
X360031Y790949D01*
X360232Y790465D01*
X360368Y789958D01*
X360436Y789438D01*
X360436Y788914D01*
X360368Y788394D01*
X360232Y787887D01*
X360031Y787403D01*
X359769Y786949D01*
X359450Y786533D01*
X359079Y786162D01*
X358663Y785843D01*
X358209Y785581D01*
X357725Y785380D01*
X357218Y785244D01*
X356698Y785176D01*
X356174Y785176D01*
X355654Y785244D01*
X355147Y785380D01*
X354663Y785581D01*
X354209Y785843D01*
X353793Y786162D01*
X353422Y786533D01*
X353103Y786949D01*
X352841Y787403D01*
X352640Y787887D01*
X352504Y788394D01*
X352436Y788914D01*
X352436Y789438D01*
X650500Y251595D02*
X650421Y250788D01*
X650262Y249993D01*
X650027Y249217D01*
X649717Y248468D01*
X649335Y247754D01*
X648884Y247080D01*
X648370Y246453D01*
X647797Y245880D01*
X647170Y245366D01*
X646496Y244915D01*
X645782Y244533D01*
X645033Y244223D01*
X644257Y243988D01*
X643462Y243829D01*
X642655Y243750D01*
X641845Y243750D01*
X641038Y243829D01*
X640243Y243988D01*
X639467Y244223D01*
X638718Y244533D01*
X638004Y244915D01*
X637330Y245366D01*
X636703Y245880D01*
X636130Y246453D01*
X635616Y247080D01*
X635165Y247754D01*
X634783Y248468D01*
X634473Y249217D01*
X634238Y249993D01*
X634079Y250788D01*
X634000Y251595D01*
X634000Y252405D01*
X634079Y253212D01*
X634238Y254007D01*
X634473Y254783D01*
X634783Y255532D01*
X635165Y256246D01*
X635616Y256920D01*
X636130Y257547D01*
X636703Y258120D01*
X637330Y258634D01*
X638004Y259085D01*
X638718Y259467D01*
X639467Y259777D01*
X640243Y260012D01*
X641038Y260171D01*
X641845Y260250D01*
X642655Y260250D01*
X643462Y260171D01*
X644257Y260012D01*
X645033Y259777D01*
X645782Y259467D01*
X646496Y259085D01*
X647170Y258634D01*
X647797Y258120D01*
X648370Y257547D01*
X648884Y256920D01*
X649335Y256246D01*
X649717Y255532D01*
X650027Y254783D01*
X650262Y254007D01*
X650421Y253212D01*
X650500Y252405D01*
X650500Y251595D01*
X809000Y251595D02*
X808921Y250788D01*
X808762Y249993D01*
X808527Y249217D01*
X808217Y248468D01*
X807835Y247754D01*
X807384Y247080D01*
X806870Y246453D01*
X806297Y245880D01*
X805670Y245366D01*
X804996Y244915D01*
X804282Y244533D01*
X803533Y244223D01*
X802757Y243988D01*
X801962Y243829D01*
X801155Y243750D01*
X800345Y243750D01*
X799538Y243829D01*
X798743Y243988D01*
X797967Y244223D01*
X797218Y244533D01*
X796504Y244915D01*
X795830Y245366D01*
X795203Y245880D01*
X794630Y246453D01*
X794116Y247080D01*
X793665Y247754D01*
X793283Y248468D01*
X792973Y249217D01*
X792738Y249993D01*
X792579Y250788D01*
X792500Y251595D01*
X792500Y252405D01*
X792579Y253212D01*
X792738Y254007D01*
X792973Y254783D01*
X793283Y255532D01*
X793665Y256246D01*
X794116Y256920D01*
X794630Y257547D01*
X795203Y258120D01*
X795830Y258634D01*
X796504Y259085D01*
X797218Y259467D01*
X797967Y259777D01*
X798743Y260012D01*
X799538Y260171D01*
X800345Y260250D01*
X801155Y260250D01*
X801962Y260171D01*
X802757Y260012D01*
X803533Y259777D01*
X804282Y259467D01*
X804996Y259085D01*
X805670Y258634D01*
X806297Y258120D01*
X806870Y257547D01*
X807384Y256920D01*
X807835Y256246D01*
X808217Y255532D01*
X808527Y254783D01*
X808762Y254007D01*
X808921Y253212D01*
X809000Y252405D01*
X809000Y251595D01*
X1053190Y435412D02*
X1053266Y434639D01*
X1053418Y433878D01*
X1053643Y433135D01*
X1053940Y432418D01*
X1054306Y431734D01*
X1054737Y431088D01*
X1055229Y430488D01*
X1055778Y429939D01*
X1056378Y429447D01*
X1057024Y429016D01*
X1057708Y428650D01*
X1058425Y428353D01*
X1059168Y428128D01*
X1059929Y427976D01*
X1060702Y427900D01*
X1061478Y427900D01*
X1062251Y427976D01*
X1063012Y428128D01*
X1063755Y428353D01*
X1064472Y428650D01*
X1065156Y429016D01*
X1065802Y429447D01*
X1066402Y429939D01*
X1066951Y430488D01*
X1067443Y431088D01*
X1067874Y431734D01*
X1068240Y432418D01*
X1068537Y433135D01*
X1068763Y433878D01*
X1068914Y434639D01*
X1068990Y435412D01*
X1068990Y436188D01*
X1068914Y436961D01*
X1068763Y437722D01*
X1068537Y438465D01*
X1068240Y439182D01*
X1067874Y439866D01*
X1067443Y440512D01*
X1066951Y441112D01*
X1066402Y441661D01*
X1065802Y442153D01*
X1065156Y442584D01*
X1064472Y442950D01*
X1063755Y443247D01*
X1063012Y443473D01*
X1062251Y443624D01*
X1061478Y443700D01*
X1060702Y443700D01*
X1059929Y443624D01*
X1059168Y443473D01*
X1058425Y443247D01*
X1057708Y442950D01*
X1057024Y442584D01*
X1056378Y442153D01*
X1055778Y441661D01*
X1055229Y441112D01*
X1054737Y440512D01*
X1054306Y439866D01*
X1053940Y439182D01*
X1053643Y438465D01*
X1053418Y437722D01*
X1053266Y436961D01*
X1053190Y436188D01*
X1053190Y435412D01*
X1053190Y333812D02*
X1053266Y333039D01*
X1053418Y332278D01*
X1053643Y331535D01*
X1053940Y330818D01*
X1054306Y330134D01*
X1054737Y329488D01*
X1055229Y328888D01*
X1055778Y328339D01*
X1056378Y327847D01*
X1057024Y327416D01*
X1057708Y327050D01*
X1058425Y326753D01*
X1059168Y326528D01*
X1059929Y326376D01*
X1060702Y326300D01*
X1061478Y326300D01*
X1062251Y326376D01*
X1063012Y326528D01*
X1063755Y326753D01*
X1064472Y327050D01*
X1065156Y327416D01*
X1065802Y327847D01*
X1066402Y328339D01*
X1066951Y328888D01*
X1067443Y329488D01*
X1067874Y330134D01*
X1068240Y330818D01*
X1068537Y331535D01*
X1068763Y332278D01*
X1068914Y333039D01*
X1068990Y333812D01*
X1068990Y334588D01*
X1068914Y335361D01*
X1068763Y336122D01*
X1068537Y336865D01*
X1068240Y337582D01*
X1067874Y338266D01*
X1067443Y338912D01*
X1066951Y339512D01*
X1066402Y340061D01*
X1065802Y340553D01*
X1065156Y340984D01*
X1064472Y341350D01*
X1063755Y341647D01*
X1063012Y341873D01*
X1062251Y342024D01*
X1061478Y342100D01*
X1060702Y342100D01*
X1059929Y342024D01*
X1059168Y341873D01*
X1058425Y341647D01*
X1057708Y341350D01*
X1057024Y340984D01*
X1056378Y340553D01*
X1055778Y340061D01*
X1055229Y339512D01*
X1054737Y338912D01*
X1054306Y338266D01*
X1053940Y337582D01*
X1053643Y336865D01*
X1053418Y336122D01*
X1053266Y335361D01*
X1053190Y334588D01*
X1053190Y333812D01*
X875988Y1474900D02*
X876761Y1474824D01*
X877522Y1474673D01*
X878265Y1474447D01*
X878982Y1474150D01*
X879666Y1473784D01*
X880312Y1473353D01*
X880912Y1472861D01*
X881461Y1472312D01*
X881953Y1471712D01*
X882384Y1471066D01*
X882750Y1470382D01*
X883047Y1469665D01*
X883273Y1468922D01*
X883424Y1468161D01*
X883500Y1467388D01*
X883500Y1466612D01*
X883424Y1465839D01*
X883273Y1465078D01*
X883047Y1464335D01*
X882750Y1463618D01*
X882384Y1462934D01*
X881953Y1462288D01*
X881461Y1461688D01*
X880912Y1461139D01*
X880312Y1460647D01*
X879666Y1460216D01*
X878982Y1459850D01*
X878265Y1459553D01*
X877522Y1459328D01*
X876761Y1459176D01*
X875988Y1459100D01*
X875212Y1459100D01*
X874439Y1459176D01*
X873678Y1459328D01*
X872935Y1459553D01*
X872218Y1459850D01*
X871534Y1460216D01*
X870888Y1460647D01*
X870288Y1461139D01*
X869739Y1461688D01*
X869247Y1462288D01*
X868816Y1462934D01*
X868450Y1463618D01*
X868153Y1464335D01*
X867928Y1465078D01*
X867776Y1465839D01*
X867700Y1466612D01*
X867700Y1467388D01*
X867776Y1468161D01*
X867928Y1468922D01*
X868153Y1469665D01*
X868450Y1470382D01*
X868816Y1471066D01*
X869247Y1471712D01*
X869739Y1472312D01*
X870288Y1472861D01*
X870888Y1473353D01*
X871534Y1473784D01*
X872218Y1474150D01*
X872935Y1474447D01*
X873678Y1474673D01*
X874439Y1474824D01*
X875212Y1474900D01*
X875988Y1474900D01*
X1079188Y1474900D02*
X1079961Y1474824D01*
X1080722Y1474673D01*
X1081465Y1474447D01*
X1082182Y1474150D01*
X1082866Y1473784D01*
X1083512Y1473353D01*
X1084112Y1472861D01*
X1084661Y1472312D01*
X1085153Y1471712D01*
X1085584Y1471066D01*
X1085950Y1470382D01*
X1086247Y1469665D01*
X1086473Y1468922D01*
X1086624Y1468161D01*
X1086700Y1467388D01*
X1086700Y1466612D01*
X1086624Y1465839D01*
X1086473Y1465078D01*
X1086247Y1464335D01*
X1085950Y1463618D01*
X1085584Y1462934D01*
X1085153Y1462288D01*
X1084661Y1461688D01*
X1084112Y1461139D01*
X1083512Y1460647D01*
X1082866Y1460216D01*
X1082182Y1459850D01*
X1081465Y1459553D01*
X1080722Y1459328D01*
X1079961Y1459176D01*
X1079188Y1459100D01*
X1078412Y1459100D01*
X1077639Y1459176D01*
X1076878Y1459328D01*
X1076135Y1459553D01*
X1075418Y1459850D01*
X1074734Y1460216D01*
X1074088Y1460647D01*
X1073488Y1461139D01*
X1072939Y1461688D01*
X1072447Y1462288D01*
X1072016Y1462934D01*
X1071650Y1463618D01*
X1071353Y1464335D01*
X1071128Y1465078D01*
X1070976Y1465839D01*
X1070900Y1466612D01*
X1070900Y1467388D01*
X1070976Y1468161D01*
X1071128Y1468922D01*
X1071353Y1469665D01*
X1071650Y1470382D01*
X1072016Y1471066D01*
X1072447Y1471712D01*
X1072939Y1472312D01*
X1073488Y1472861D01*
X1074088Y1473353D01*
X1074734Y1473784D01*
X1075418Y1474150D01*
X1076135Y1474447D01*
X1076878Y1474673D01*
X1077639Y1474824D01*
X1078412Y1474900D01*
X1079188Y1474900D01*
X427012Y955100D02*
X426239Y955176D01*
X425478Y955328D01*
X424735Y955553D01*
X424018Y955850D01*
X423334Y956216D01*
X422688Y956647D01*
X422088Y957139D01*
X421539Y957688D01*
X421047Y958288D01*
X420616Y958934D01*
X420250Y959618D01*
X419953Y960335D01*
X419728Y961078D01*
X419576Y961839D01*
X419500Y962612D01*
X419500Y963388D01*
X419576Y964161D01*
X419728Y964922D01*
X419953Y965665D01*
X420250Y966382D01*
X420616Y967066D01*
X421047Y967712D01*
X421539Y968312D01*
X422088Y968861D01*
X422688Y969353D01*
X423334Y969784D01*
X424018Y970150D01*
X424735Y970447D01*
X425478Y970673D01*
X426239Y970824D01*
X427012Y970900D01*
X427788Y970900D01*
X428561Y970824D01*
X429322Y970673D01*
X430065Y970447D01*
X430782Y970150D01*
X431466Y969784D01*
X432112Y969353D01*
X432712Y968861D01*
X433261Y968312D01*
X433753Y967712D01*
X434184Y967066D01*
X434550Y966382D01*
X434847Y965665D01*
X435073Y964922D01*
X435224Y964161D01*
X435300Y963388D01*
X435300Y962612D01*
X435224Y961839D01*
X435073Y961078D01*
X434847Y960335D01*
X434550Y959618D01*
X434184Y958934D01*
X433753Y958288D01*
X433261Y957688D01*
X432712Y957139D01*
X432112Y956647D01*
X431466Y956216D01*
X430782Y955850D01*
X430065Y955553D01*
X429322Y955328D01*
X428561Y955176D01*
X427788Y955100D01*
X427012Y955100D01*
X223812Y955100D02*
X223039Y955176D01*
X222278Y955328D01*
X221535Y955553D01*
X220818Y955850D01*
X220134Y956216D01*
X219488Y956647D01*
X218888Y957139D01*
X218339Y957688D01*
X217847Y958288D01*
X217416Y958934D01*
X217050Y959618D01*
X216753Y960335D01*
X216528Y961078D01*
X216376Y961839D01*
X216300Y962612D01*
X216300Y963388D01*
X216376Y964161D01*
X216528Y964922D01*
X216753Y965665D01*
X217050Y966382D01*
X217416Y967066D01*
X217847Y967712D01*
X218339Y968312D01*
X218888Y968861D01*
X219488Y969353D01*
X220134Y969784D01*
X220818Y970150D01*
X221535Y970447D01*
X222278Y970673D01*
X223039Y970824D01*
X223812Y970900D01*
X224588Y970900D01*
X225361Y970824D01*
X226122Y970673D01*
X226865Y970447D01*
X227582Y970150D01*
X228266Y969784D01*
X228912Y969353D01*
X229512Y968861D01*
X230061Y968312D01*
X230553Y967712D01*
X230984Y967066D01*
X231350Y966382D01*
X231647Y965665D01*
X231873Y964922D01*
X232024Y964161D01*
X232100Y963388D01*
X232100Y962612D01*
X232024Y961839D01*
X231873Y961078D01*
X231647Y960335D01*
X231350Y959618D01*
X230984Y958934D01*
X230553Y958288D01*
X230061Y957688D01*
X229512Y957139D01*
X228912Y956647D01*
X228266Y956216D01*
X227582Y955850D01*
X226865Y955553D01*
X226122Y955328D01*
X225361Y955176D01*
X224588Y955100D01*
X223812Y955100D01*
X424349Y1341260D02*
X425019Y1341185D01*
X425676Y1341035D01*
X426312Y1340812D01*
X426919Y1340520D01*
X427490Y1340161D01*
X428016Y1339741D01*
X428493Y1339264D01*
X428913Y1338738D01*
X429272Y1338167D01*
X429564Y1337560D01*
X429787Y1336924D01*
X429937Y1336267D01*
X430012Y1335597D01*
X430012Y1334923D01*
X429937Y1334253D01*
X429787Y1333596D01*
X429564Y1332960D01*
X429272Y1332353D01*
X428913Y1331783D01*
X428493Y1331256D01*
X428016Y1330779D01*
X427490Y1330359D01*
X426919Y1330000D01*
X426312Y1329708D01*
X425676Y1329485D01*
X425019Y1329335D01*
X424349Y1329260D01*
X423675Y1329260D01*
X423005Y1329335D01*
X422348Y1329485D01*
X421712Y1329708D01*
X421105Y1330000D01*
X420535Y1330359D01*
X420008Y1330779D01*
X419531Y1331256D01*
X419111Y1331783D01*
X418752Y1332353D01*
X418460Y1332960D01*
X418237Y1333596D01*
X418087Y1334253D01*
X418012Y1334923D01*
X418012Y1335597D01*
X418087Y1336267D01*
X418237Y1336924D01*
X418460Y1337560D01*
X418752Y1338167D01*
X419111Y1338738D01*
X419531Y1339264D01*
X420008Y1339741D01*
X420535Y1340161D01*
X421105Y1340520D01*
X421712Y1340812D01*
X422348Y1341035D01*
X423005Y1341185D01*
X423675Y1341260D01*
X424349Y1341260D01*
X382436Y1589438D02*
X382504Y1589958D01*
X382640Y1590465D01*
X382841Y1590949D01*
X383103Y1591403D01*
X383422Y1591819D01*
X383793Y1592190D01*
X384209Y1592509D01*
X384663Y1592771D01*
X385147Y1592972D01*
X385654Y1593108D01*
X386174Y1593176D01*
X386698Y1593176D01*
X387218Y1593108D01*
X387725Y1592972D01*
X388209Y1592771D01*
X388663Y1592509D01*
X389079Y1592190D01*
X389450Y1591819D01*
X389769Y1591403D01*
X390031Y1590949D01*
X390232Y1590465D01*
X390368Y1589958D01*
X390436Y1589438D01*
X390436Y1588914D01*
X390368Y1588394D01*
X390232Y1587887D01*
X390031Y1587403D01*
X389769Y1586949D01*
X389450Y1586533D01*
X389079Y1586162D01*
X388663Y1585843D01*
X388209Y1585581D01*
X387725Y1585380D01*
X387218Y1585244D01*
X386698Y1585176D01*
X386174Y1585176D01*
X385654Y1585244D01*
X385147Y1585380D01*
X384663Y1585581D01*
X384209Y1585843D01*
X383793Y1586162D01*
X383422Y1586533D01*
X383103Y1586949D01*
X382841Y1587403D01*
X382640Y1587887D01*
X382504Y1588394D01*
X382436Y1588914D01*
X382436Y1589438D01*
X352436Y1589438D02*
X352504Y1589958D01*
X352640Y1590465D01*
X352841Y1590949D01*
X353103Y1591403D01*
X353422Y1591819D01*
X353793Y1592190D01*
X354209Y1592509D01*
X354663Y1592771D01*
X355147Y1592972D01*
X355654Y1593108D01*
X356174Y1593176D01*
X356698Y1593176D01*
X357218Y1593108D01*
X357725Y1592972D01*
X358209Y1592771D01*
X358663Y1592509D01*
X359079Y1592190D01*
X359450Y1591819D01*
X359769Y1591403D01*
X360031Y1590949D01*
X360232Y1590465D01*
X360368Y1589958D01*
X360436Y1589438D01*
X360436Y1588914D01*
X360368Y1588394D01*
X360232Y1587887D01*
X360031Y1587403D01*
X359769Y1586949D01*
X359450Y1586533D01*
X359079Y1586162D01*
X358663Y1585843D01*
X358209Y1585581D01*
X357725Y1585380D01*
X357218Y1585244D01*
X356698Y1585176D01*
X356174Y1585176D01*
X355654Y1585244D01*
X355147Y1585380D01*
X354663Y1585581D01*
X354209Y1585843D01*
X353793Y1586162D01*
X353422Y1586533D01*
X353103Y1586949D01*
X352841Y1587403D01*
X352640Y1587887D01*
X352504Y1588394D01*
X352436Y1588914D01*
X352436Y1589438D01*
X650500Y1051595D02*
X650421Y1050788D01*
X650262Y1049993D01*
X650027Y1049217D01*
X649717Y1048468D01*
X649335Y1047754D01*
X648884Y1047080D01*
X648370Y1046453D01*
X647797Y1045880D01*
X647170Y1045366D01*
X646496Y1044915D01*
X645782Y1044533D01*
X645033Y1044223D01*
X644257Y1043988D01*
X643462Y1043829D01*
X642655Y1043750D01*
X641845Y1043750D01*
X641038Y1043829D01*
X640243Y1043988D01*
X639467Y1044223D01*
X638718Y1044533D01*
X638004Y1044915D01*
X637330Y1045366D01*
X636703Y1045880D01*
X636130Y1046453D01*
X635616Y1047080D01*
X635165Y1047754D01*
X634783Y1048468D01*
X634473Y1049217D01*
X634238Y1049993D01*
X634079Y1050788D01*
X634000Y1051595D01*
X634000Y1052405D01*
X634079Y1053212D01*
X634238Y1054007D01*
X634473Y1054783D01*
X634783Y1055532D01*
X635165Y1056246D01*
X635616Y1056920D01*
X636130Y1057547D01*
X636703Y1058120D01*
X637330Y1058634D01*
X638004Y1059085D01*
X638718Y1059467D01*
X639467Y1059777D01*
X640243Y1060012D01*
X641038Y1060171D01*
X641845Y1060250D01*
X642655Y1060250D01*
X643462Y1060171D01*
X644257Y1060012D01*
X645033Y1059777D01*
X645782Y1059467D01*
X646496Y1059085D01*
X647170Y1058634D01*
X647797Y1058120D01*
X648370Y1057547D01*
X648884Y1056920D01*
X649335Y1056246D01*
X649717Y1055532D01*
X650027Y1054783D01*
X650262Y1054007D01*
X650421Y1053212D01*
X650500Y1052405D01*
X650500Y1051595D01*
X809000Y1051595D02*
X808921Y1050788D01*
X808762Y1049993D01*
X808527Y1049217D01*
X808217Y1048468D01*
X807835Y1047754D01*
X807384Y1047080D01*
X806870Y1046453D01*
X806297Y1045880D01*
X805670Y1045366D01*
X804996Y1044915D01*
X804282Y1044533D01*
X803533Y1044223D01*
X802757Y1043988D01*
X801962Y1043829D01*
X801155Y1043750D01*
X800345Y1043750D01*
X799538Y1043829D01*
X798743Y1043988D01*
X797967Y1044223D01*
X797218Y1044533D01*
X796504Y1044915D01*
X795830Y1045366D01*
X795203Y1045880D01*
X794630Y1046453D01*
X794116Y1047080D01*
X793665Y1047754D01*
X793283Y1048468D01*
X792973Y1049217D01*
X792738Y1049993D01*
X792579Y1050788D01*
X792500Y1051595D01*
X792500Y1052405D01*
X792579Y1053212D01*
X792738Y1054007D01*
X792973Y1054783D01*
X793283Y1055532D01*
X793665Y1056246D01*
X794116Y1056920D01*
X794630Y1057547D01*
X795203Y1058120D01*
X795830Y1058634D01*
X796504Y1059085D01*
X797218Y1059467D01*
X797967Y1059777D01*
X798743Y1060012D01*
X799538Y1060171D01*
X800345Y1060250D01*
X801155Y1060250D01*
X801962Y1060171D01*
X802757Y1060012D01*
X803533Y1059777D01*
X804282Y1059467D01*
X804996Y1059085D01*
X805670Y1058634D01*
X806297Y1058120D01*
X806870Y1057547D01*
X807384Y1056920D01*
X807835Y1056246D01*
X808217Y1055532D01*
X808527Y1054783D01*
X808762Y1054007D01*
X808921Y1053212D01*
X809000Y1052405D01*
X809000Y1051595D01*
X1053190Y1235412D02*
X1053266Y1234639D01*
X1053418Y1233878D01*
X1053643Y1233135D01*
X1053940Y1232418D01*
X1054306Y1231734D01*
X1054737Y1231088D01*
X1055229Y1230488D01*
X1055778Y1229939D01*
X1056378Y1229447D01*
X1057024Y1229016D01*
X1057708Y1228650D01*
X1058425Y1228353D01*
X1059168Y1228128D01*
X1059929Y1227976D01*
X1060702Y1227900D01*
X1061478Y1227900D01*
X1062251Y1227976D01*
X1063012Y1228128D01*
X1063755Y1228353D01*
X1064472Y1228650D01*
X1065156Y1229016D01*
X1065802Y1229447D01*
X1066402Y1229939D01*
X1066951Y1230488D01*
X1067443Y1231088D01*
X1067874Y1231734D01*
X1068240Y1232418D01*
X1068537Y1233135D01*
X1068763Y1233878D01*
X1068914Y1234639D01*
X1068990Y1235412D01*
X1068990Y1236188D01*
X1068914Y1236961D01*
X1068763Y1237722D01*
X1068537Y1238465D01*
X1068240Y1239182D01*
X1067874Y1239866D01*
X1067443Y1240512D01*
X1066951Y1241112D01*
X1066402Y1241661D01*
X1065802Y1242153D01*
X1065156Y1242584D01*
X1064472Y1242950D01*
X1063755Y1243247D01*
X1063012Y1243473D01*
X1062251Y1243624D01*
X1061478Y1243700D01*
X1060702Y1243700D01*
X1059929Y1243624D01*
X1059168Y1243473D01*
X1058425Y1243247D01*
X1057708Y1242950D01*
X1057024Y1242584D01*
X1056378Y1242153D01*
X1055778Y1241661D01*
X1055229Y1241112D01*
X1054737Y1240512D01*
X1054306Y1239866D01*
X1053940Y1239182D01*
X1053643Y1238465D01*
X1053418Y1237722D01*
X1053266Y1236961D01*
X1053190Y1236188D01*
X1053190Y1235412D01*
X1053190Y1133812D02*
X1053266Y1133039D01*
X1053418Y1132278D01*
X1053643Y1131535D01*
X1053940Y1130818D01*
X1054306Y1130134D01*
X1054737Y1129488D01*
X1055229Y1128888D01*
X1055778Y1128339D01*
X1056378Y1127847D01*
X1057024Y1127416D01*
X1057708Y1127050D01*
X1058425Y1126753D01*
X1059168Y1126528D01*
X1059929Y1126376D01*
X1060702Y1126300D01*
X1061478Y1126300D01*
X1062251Y1126376D01*
X1063012Y1126528D01*
X1063755Y1126753D01*
X1064472Y1127050D01*
X1065156Y1127416D01*
X1065802Y1127847D01*
X1066402Y1128339D01*
X1066951Y1128888D01*
X1067443Y1129488D01*
X1067874Y1130134D01*
X1068240Y1130818D01*
X1068537Y1131535D01*
X1068763Y1132278D01*
X1068914Y1133039D01*
X1068990Y1133812D01*
X1068990Y1134588D01*
X1068914Y1135361D01*
X1068763Y1136122D01*
X1068537Y1136865D01*
X1068240Y1137582D01*
X1067874Y1138266D01*
X1067443Y1138912D01*
X1066951Y1139512D01*
X1066402Y1140061D01*
X1065802Y1140553D01*
X1065156Y1140984D01*
X1064472Y1141350D01*
X1063755Y1141647D01*
X1063012Y1141873D01*
X1062251Y1142024D01*
X1061478Y1142100D01*
X1060702Y1142100D01*
X1059929Y1142024D01*
X1059168Y1141873D01*
X1058425Y1141647D01*
X1057708Y1141350D01*
X1057024Y1140984D01*
X1056378Y1140553D01*
X1055778Y1140061D01*
X1055229Y1139512D01*
X1054737Y1138912D01*
X1054306Y1138266D01*
X1053940Y1137582D01*
X1053643Y1136865D01*
X1053418Y1136122D01*
X1053266Y1135361D01*
X1053190Y1134588D01*
X1053190Y1133812D01*
M02*
