G04 EAGLE Gerber RS-274X export*
G75*
%MOMM*%
%FSLAX34Y34*%
%LPD*%
%INSolderpaste Top*%
%IPPOS*%
%AMOC8*
5,1,8,0,0,1.08239X$1,22.5*%
G01*
%ADD10R,1.270000X3.000000*%
%ADD11R,1.270000X3.680000*%
%ADD12C,0.350000*%
%ADD13R,3.700000X3.700000*%
%ADD14R,0.635000X1.270000*%
%ADD15C,0.243678*%
%ADD16R,1.950000X1.500000*%
%ADD17R,1.050000X1.080000*%
%ADD18R,0.720000X1.780000*%
%ADD19R,1.100000X1.000000*%
%ADD20C,0.196759*%
%ADD21R,1.000000X1.100000*%
%ADD22R,0.900000X0.700000*%
%ADD23R,0.600000X0.600000*%
%ADD24R,2.082800X4.851400*%
%ADD25R,0.762000X0.990600*%
%ADD26R,1.000000X5.500000*%
%ADD27R,2.600000X4.000000*%
%ADD28C,0.120000*%
%ADD29R,1.000000X0.300000*%
%ADD30R,1.300000X2.000000*%
%ADD31R,0.800000X0.800000*%
%ADD32R,1.200000X2.700000*%
%ADD33R,0.650000X0.200000*%
%ADD34R,1.300000X1.400000*%
%ADD35R,1.050000X2.200000*%
%ADD36R,1.050000X1.000000*%
%ADD37R,1.300000X1.500000*%


D10*
X862900Y641600D03*
X888300Y641600D03*
D11*
X913700Y645000D03*
X939100Y645000D03*
X964500Y645000D03*
X989900Y645000D03*
X1015300Y645000D03*
X1040700Y645000D03*
D10*
X1066100Y641600D03*
X1091500Y641600D03*
X1091500Y692400D03*
X1066100Y692400D03*
D11*
X1040700Y689000D03*
X1015300Y689000D03*
X989900Y689000D03*
X964500Y689000D03*
X939100Y689000D03*
X913700Y689000D03*
D10*
X888300Y692400D03*
X862900Y692400D03*
X440100Y188400D03*
X414700Y188400D03*
D11*
X389300Y185000D03*
X363900Y185000D03*
X338500Y185000D03*
X313100Y185000D03*
X287700Y185000D03*
X262300Y185000D03*
D10*
X236900Y188400D03*
X211500Y188400D03*
X211500Y137600D03*
X236900Y137600D03*
D11*
X262300Y141000D03*
X287700Y141000D03*
X313100Y141000D03*
X338500Y141000D03*
X363900Y141000D03*
X389300Y141000D03*
D10*
X414700Y137600D03*
X440100Y137600D03*
D12*
X290836Y527046D02*
X275336Y527046D01*
X275336Y530546D01*
X290836Y530546D01*
X290836Y527046D01*
X290836Y530371D02*
X275336Y530371D01*
X143536Y537206D02*
X128036Y537206D01*
X128036Y540706D01*
X143536Y540706D01*
X143536Y537206D01*
X143536Y540531D02*
X128036Y540531D01*
X128036Y547366D02*
X143536Y547366D01*
X128036Y547366D02*
X128036Y550866D01*
X143536Y550866D01*
X143536Y547366D01*
X143536Y550691D02*
X128036Y550691D01*
X128036Y557526D02*
X143536Y557526D01*
X128036Y557526D02*
X128036Y561026D01*
X143536Y561026D01*
X143536Y557526D01*
X143536Y560851D02*
X128036Y560851D01*
X128036Y567686D02*
X143536Y567686D01*
X128036Y567686D02*
X128036Y571186D01*
X143536Y571186D01*
X143536Y567686D01*
X143536Y571011D02*
X128036Y571011D01*
X128036Y577846D02*
X143536Y577846D01*
X128036Y577846D02*
X128036Y581346D01*
X143536Y581346D01*
X143536Y577846D01*
X143536Y581171D02*
X128036Y581171D01*
X128036Y588006D02*
X143536Y588006D01*
X128036Y588006D02*
X128036Y591506D01*
X143536Y591506D01*
X143536Y588006D01*
X143536Y591331D02*
X128036Y591331D01*
X128036Y598166D02*
X143536Y598166D01*
X128036Y598166D02*
X128036Y601666D01*
X143536Y601666D01*
X143536Y598166D01*
X143536Y601491D02*
X128036Y601491D01*
X128036Y608326D02*
X143536Y608326D01*
X128036Y608326D02*
X128036Y611826D01*
X143536Y611826D01*
X143536Y608326D01*
X143536Y611651D02*
X128036Y611651D01*
X128036Y618486D02*
X143536Y618486D01*
X128036Y618486D02*
X128036Y621986D01*
X143536Y621986D01*
X143536Y618486D01*
X143536Y621811D02*
X128036Y621811D01*
X128036Y628646D02*
X143536Y628646D01*
X128036Y628646D02*
X128036Y632146D01*
X143536Y632146D01*
X143536Y628646D01*
X143536Y631971D02*
X128036Y631971D01*
X275336Y537206D02*
X290836Y537206D01*
X275336Y537206D02*
X275336Y540706D01*
X290836Y540706D01*
X290836Y537206D01*
X290836Y540531D02*
X275336Y540531D01*
X275336Y547366D02*
X290836Y547366D01*
X275336Y547366D02*
X275336Y550866D01*
X290836Y550866D01*
X290836Y547366D01*
X290836Y550691D02*
X275336Y550691D01*
X275336Y557526D02*
X290836Y557526D01*
X275336Y557526D02*
X275336Y561026D01*
X290836Y561026D01*
X290836Y557526D01*
X290836Y560851D02*
X275336Y560851D01*
X275336Y598166D02*
X290836Y598166D01*
X275336Y598166D02*
X275336Y601666D01*
X290836Y601666D01*
X290836Y598166D01*
X290836Y601491D02*
X275336Y601491D01*
X275336Y618486D02*
X290836Y618486D01*
X275336Y618486D02*
X275336Y621986D01*
X290836Y621986D01*
X290836Y618486D01*
X290836Y621811D02*
X275336Y621811D01*
X275336Y628646D02*
X290836Y628646D01*
X275336Y628646D02*
X275336Y632146D01*
X290836Y632146D01*
X290836Y628646D01*
X290836Y631971D02*
X275336Y631971D01*
X275336Y638806D02*
X290836Y638806D01*
X275336Y638806D02*
X275336Y642306D01*
X290836Y642306D01*
X290836Y638806D01*
X290836Y642131D02*
X275336Y642131D01*
X275336Y648966D02*
X290836Y648966D01*
X275336Y648966D02*
X275336Y652466D01*
X290836Y652466D01*
X290836Y648966D01*
X290836Y652291D02*
X275336Y652291D01*
X156536Y509846D02*
X156536Y494346D01*
X153036Y494346D01*
X153036Y509846D01*
X156536Y509846D01*
X156536Y497671D02*
X153036Y497671D01*
X153036Y500996D02*
X156536Y500996D01*
X156536Y504321D02*
X153036Y504321D01*
X153036Y507646D02*
X156536Y507646D01*
X187016Y509846D02*
X187016Y494346D01*
X183516Y494346D01*
X183516Y509846D01*
X187016Y509846D01*
X187016Y497671D02*
X183516Y497671D01*
X183516Y500996D02*
X187016Y500996D01*
X187016Y504321D02*
X183516Y504321D01*
X183516Y507646D02*
X187016Y507646D01*
X197176Y509846D02*
X197176Y494346D01*
X193676Y494346D01*
X193676Y509846D01*
X197176Y509846D01*
X197176Y497671D02*
X193676Y497671D01*
X193676Y500996D02*
X197176Y500996D01*
X197176Y504321D02*
X193676Y504321D01*
X193676Y507646D02*
X197176Y507646D01*
X207336Y509846D02*
X207336Y494346D01*
X203836Y494346D01*
X203836Y509846D01*
X207336Y509846D01*
X207336Y497671D02*
X203836Y497671D01*
X203836Y500996D02*
X207336Y500996D01*
X207336Y504321D02*
X203836Y504321D01*
X203836Y507646D02*
X207336Y507646D01*
X217496Y509846D02*
X217496Y494346D01*
X213996Y494346D01*
X213996Y509846D01*
X217496Y509846D01*
X217496Y497671D02*
X213996Y497671D01*
X213996Y500996D02*
X217496Y500996D01*
X217496Y504321D02*
X213996Y504321D01*
X213996Y507646D02*
X217496Y507646D01*
X227656Y509846D02*
X227656Y494346D01*
X224156Y494346D01*
X224156Y509846D01*
X227656Y509846D01*
X227656Y497671D02*
X224156Y497671D01*
X224156Y500996D02*
X227656Y500996D01*
X227656Y504321D02*
X224156Y504321D01*
X224156Y507646D02*
X227656Y507646D01*
X237816Y509846D02*
X237816Y494346D01*
X234316Y494346D01*
X234316Y509846D01*
X237816Y509846D01*
X237816Y497671D02*
X234316Y497671D01*
X234316Y500996D02*
X237816Y500996D01*
X237816Y504321D02*
X234316Y504321D01*
X234316Y507646D02*
X237816Y507646D01*
X247976Y509846D02*
X247976Y494346D01*
X244476Y494346D01*
X244476Y509846D01*
X247976Y509846D01*
X247976Y497671D02*
X244476Y497671D01*
X244476Y500996D02*
X247976Y500996D01*
X247976Y504321D02*
X244476Y504321D01*
X244476Y507646D02*
X247976Y507646D01*
X258136Y509846D02*
X258136Y494346D01*
X254636Y494346D01*
X254636Y509846D01*
X258136Y509846D01*
X258136Y497671D02*
X254636Y497671D01*
X254636Y500996D02*
X258136Y500996D01*
X258136Y504321D02*
X254636Y504321D01*
X254636Y507646D02*
X258136Y507646D01*
D13*
X204586Y564796D03*
D14*
X364512Y453260D03*
X379512Y453260D03*
X394512Y453260D03*
X409512Y453260D03*
X424512Y453260D03*
X439512Y453260D03*
X454512Y453260D03*
X469512Y453260D03*
X484512Y453260D03*
X499512Y453260D03*
X499512Y613260D03*
X484512Y613260D03*
X469512Y613260D03*
X454512Y613260D03*
X439512Y613260D03*
X424512Y613260D03*
X409512Y613260D03*
X394512Y613260D03*
X379512Y613260D03*
X364512Y613260D03*
D15*
X335256Y497577D02*
X335256Y487395D01*
X335256Y497577D02*
X338912Y497577D01*
X338912Y487395D01*
X335256Y487395D01*
X335256Y489710D02*
X338912Y489710D01*
X338912Y492025D02*
X335256Y492025D01*
X335256Y494340D02*
X338912Y494340D01*
X338912Y496655D02*
X335256Y496655D01*
X325756Y497577D02*
X325756Y487395D01*
X325756Y497577D02*
X329412Y497577D01*
X329412Y487395D01*
X325756Y487395D01*
X325756Y489710D02*
X329412Y489710D01*
X329412Y492025D02*
X325756Y492025D01*
X325756Y494340D02*
X329412Y494340D01*
X329412Y496655D02*
X325756Y496655D01*
X316256Y497577D02*
X316256Y487395D01*
X316256Y497577D02*
X319912Y497577D01*
X319912Y487395D01*
X316256Y487395D01*
X316256Y489710D02*
X319912Y489710D01*
X319912Y492025D02*
X316256Y492025D01*
X316256Y494340D02*
X319912Y494340D01*
X319912Y496655D02*
X316256Y496655D01*
X316256Y474077D02*
X316256Y463895D01*
X316256Y474077D02*
X319912Y474077D01*
X319912Y463895D01*
X316256Y463895D01*
X316256Y466210D02*
X319912Y466210D01*
X319912Y468525D02*
X316256Y468525D01*
X316256Y470840D02*
X319912Y470840D01*
X319912Y473155D02*
X316256Y473155D01*
X335256Y474077D02*
X335256Y463895D01*
X335256Y474077D02*
X338912Y474077D01*
X338912Y463895D01*
X335256Y463895D01*
X335256Y466210D02*
X338912Y466210D01*
X338912Y468525D02*
X335256Y468525D01*
X335256Y470840D02*
X338912Y470840D01*
X338912Y473155D02*
X335256Y473155D01*
X187777Y462768D02*
X177595Y462768D01*
X177595Y466424D01*
X187777Y466424D01*
X187777Y462768D01*
X187777Y465083D02*
X177595Y465083D01*
X177595Y453268D02*
X187777Y453268D01*
X177595Y453268D02*
X177595Y456924D01*
X187777Y456924D01*
X187777Y453268D01*
X187777Y455583D02*
X177595Y455583D01*
X177595Y443768D02*
X187777Y443768D01*
X177595Y443768D02*
X177595Y447424D01*
X187777Y447424D01*
X187777Y443768D01*
X187777Y446083D02*
X177595Y446083D01*
X201095Y443768D02*
X211277Y443768D01*
X201095Y443768D02*
X201095Y447424D01*
X211277Y447424D01*
X211277Y443768D01*
X211277Y446083D02*
X201095Y446083D01*
X201095Y462768D02*
X211277Y462768D01*
X201095Y462768D02*
X201095Y466424D01*
X211277Y466424D01*
X211277Y462768D01*
X211277Y465083D02*
X201095Y465083D01*
D16*
X225686Y469096D03*
X253186Y469096D03*
X337334Y451736D03*
X309834Y451736D03*
D17*
X221686Y441096D03*
X239186Y441096D03*
X304334Y468736D03*
X286834Y468736D03*
X221686Y454096D03*
X239186Y454096D03*
X337334Y436736D03*
X319834Y436736D03*
D18*
X773750Y528348D03*
X773750Y579212D03*
X786450Y528348D03*
X799150Y528348D03*
X786450Y579212D03*
X799150Y579212D03*
X811850Y528348D03*
X811850Y579212D03*
D19*
X737310Y477580D03*
X754310Y477580D03*
X737310Y513140D03*
X754310Y513140D03*
D20*
X765225Y506175D02*
X777375Y506175D01*
X765225Y506175D02*
X765225Y509125D01*
X777375Y509125D01*
X777375Y506175D01*
X777375Y508045D02*
X765225Y508045D01*
X765225Y499675D02*
X777375Y499675D01*
X765225Y499675D02*
X765225Y502625D01*
X777375Y502625D01*
X777375Y499675D01*
X777375Y501545D02*
X765225Y501545D01*
X765225Y493175D02*
X777375Y493175D01*
X765225Y493175D02*
X765225Y496125D01*
X777375Y496125D01*
X777375Y493175D01*
X777375Y495045D02*
X765225Y495045D01*
X765225Y486675D02*
X777375Y486675D01*
X765225Y486675D02*
X765225Y489625D01*
X777375Y489625D01*
X777375Y486675D01*
X777375Y488545D02*
X765225Y488545D01*
X808225Y486675D02*
X820375Y486675D01*
X808225Y486675D02*
X808225Y489625D01*
X820375Y489625D01*
X820375Y486675D01*
X820375Y488545D02*
X808225Y488545D01*
X808225Y493175D02*
X820375Y493175D01*
X808225Y493175D02*
X808225Y496125D01*
X820375Y496125D01*
X820375Y493175D01*
X820375Y495045D02*
X808225Y495045D01*
X808225Y499675D02*
X820375Y499675D01*
X808225Y499675D02*
X808225Y502625D01*
X820375Y502625D01*
X820375Y499675D01*
X820375Y501545D02*
X808225Y501545D01*
X808225Y506175D02*
X820375Y506175D01*
X808225Y506175D02*
X808225Y509125D01*
X820375Y509125D01*
X820375Y506175D01*
X820375Y508045D02*
X808225Y508045D01*
D19*
X837640Y487740D03*
X854640Y487740D03*
X754310Y579180D03*
X737310Y579180D03*
X837640Y584260D03*
X854640Y584260D03*
X854640Y529650D03*
X837640Y529650D03*
D21*
X876620Y548310D03*
X876620Y531310D03*
D15*
X669692Y574667D02*
X669692Y584849D01*
X673348Y584849D01*
X673348Y574667D01*
X669692Y574667D01*
X669692Y576982D02*
X673348Y576982D01*
X673348Y579297D02*
X669692Y579297D01*
X669692Y581612D02*
X673348Y581612D01*
X673348Y583927D02*
X669692Y583927D01*
X660192Y584849D02*
X660192Y574667D01*
X660192Y584849D02*
X663848Y584849D01*
X663848Y574667D01*
X660192Y574667D01*
X660192Y576982D02*
X663848Y576982D01*
X663848Y579297D02*
X660192Y579297D01*
X660192Y581612D02*
X663848Y581612D01*
X663848Y583927D02*
X660192Y583927D01*
X650692Y584849D02*
X650692Y574667D01*
X650692Y584849D02*
X654348Y584849D01*
X654348Y574667D01*
X650692Y574667D01*
X650692Y576982D02*
X654348Y576982D01*
X654348Y579297D02*
X650692Y579297D01*
X650692Y581612D02*
X654348Y581612D01*
X654348Y583927D02*
X650692Y583927D01*
X650692Y561349D02*
X650692Y551167D01*
X650692Y561349D02*
X654348Y561349D01*
X654348Y551167D01*
X650692Y551167D01*
X650692Y553482D02*
X654348Y553482D01*
X654348Y555797D02*
X650692Y555797D01*
X650692Y558112D02*
X654348Y558112D01*
X654348Y560427D02*
X650692Y560427D01*
X669692Y561349D02*
X669692Y551167D01*
X669692Y561349D02*
X673348Y561349D01*
X673348Y551167D01*
X669692Y551167D01*
X669692Y553482D02*
X673348Y553482D01*
X673348Y555797D02*
X669692Y555797D01*
X669692Y558112D02*
X673348Y558112D01*
X673348Y560427D02*
X669692Y560427D01*
D16*
X680094Y539984D03*
X707594Y539984D03*
D17*
X652346Y540364D03*
X634846Y540364D03*
X676078Y523636D03*
X693578Y523636D03*
D22*
X401436Y789176D03*
X341436Y789176D03*
D23*
X371436Y775626D03*
X381436Y775626D03*
X361436Y775626D03*
D19*
X632560Y594816D03*
X649560Y594816D03*
D24*
X567298Y673833D03*
X592190Y673833D03*
D25*
X573394Y637257D03*
X560694Y637257D03*
X586094Y637257D03*
X598794Y637257D03*
D24*
X693686Y673833D03*
X718578Y673833D03*
D25*
X699782Y637257D03*
X687082Y637257D03*
X712482Y637257D03*
X725182Y637257D03*
D26*
X757760Y735000D03*
X737760Y735000D03*
D27*
X781760Y757500D03*
X713760Y757500D03*
D26*
X561500Y735000D03*
X541500Y735000D03*
D27*
X585500Y757500D03*
X517500Y757500D03*
D28*
X246916Y337352D02*
X246916Y335552D01*
X246916Y337352D02*
X255716Y337352D01*
X255716Y335552D01*
X246916Y335552D01*
X246916Y336692D02*
X255716Y336692D01*
X246916Y332352D02*
X246916Y330552D01*
X246916Y332352D02*
X255716Y332352D01*
X255716Y330552D01*
X246916Y330552D01*
X246916Y331692D02*
X255716Y331692D01*
X246916Y340552D02*
X246916Y342352D01*
X255716Y342352D01*
X255716Y340552D01*
X246916Y340552D01*
X246916Y341692D02*
X255716Y341692D01*
X246916Y345552D02*
X246916Y347352D01*
X255716Y347352D01*
X255716Y345552D01*
X246916Y345552D01*
X246916Y346692D02*
X255716Y346692D01*
X246916Y350552D02*
X246916Y352352D01*
X255716Y352352D01*
X255716Y350552D01*
X246916Y350552D01*
X246916Y351692D02*
X255716Y351692D01*
X246916Y355552D02*
X246916Y357352D01*
X255716Y357352D01*
X255716Y355552D01*
X246916Y355552D01*
X246916Y356692D02*
X255716Y356692D01*
X246916Y360552D02*
X246916Y362352D01*
X255716Y362352D01*
X255716Y360552D01*
X246916Y360552D01*
X246916Y361692D02*
X255716Y361692D01*
X246916Y365552D02*
X246916Y367352D01*
X255716Y367352D01*
X255716Y365552D01*
X246916Y365552D01*
X246916Y366692D02*
X255716Y366692D01*
D29*
X251316Y371452D03*
D28*
X246916Y327352D02*
X246916Y325552D01*
X246916Y327352D02*
X255716Y327352D01*
X255716Y325552D01*
X246916Y325552D01*
X246916Y326692D02*
X255716Y326692D01*
X246916Y322352D02*
X246916Y320552D01*
X246916Y322352D02*
X255716Y322352D01*
X255716Y320552D01*
X246916Y320552D01*
X246916Y321692D02*
X255716Y321692D01*
X246916Y317352D02*
X246916Y315552D01*
X246916Y317352D02*
X255716Y317352D01*
X255716Y315552D01*
X246916Y315552D01*
X246916Y316692D02*
X255716Y316692D01*
X246916Y312352D02*
X246916Y310552D01*
X246916Y312352D02*
X255716Y312352D01*
X255716Y310552D01*
X246916Y310552D01*
X246916Y311692D02*
X255716Y311692D01*
X246916Y307352D02*
X246916Y305552D01*
X246916Y307352D02*
X255716Y307352D01*
X255716Y305552D01*
X246916Y305552D01*
X246916Y306692D02*
X255716Y306692D01*
X246916Y302352D02*
X246916Y300552D01*
X246916Y302352D02*
X255716Y302352D01*
X255716Y300552D01*
X246916Y300552D01*
X246916Y301692D02*
X255716Y301692D01*
X246916Y297352D02*
X246916Y295552D01*
X246916Y297352D02*
X255716Y297352D01*
X255716Y295552D01*
X246916Y295552D01*
X246916Y296692D02*
X255716Y296692D01*
D30*
X224316Y273452D03*
X224316Y394452D03*
D28*
X349024Y337352D02*
X349024Y335552D01*
X349024Y337352D02*
X357824Y337352D01*
X357824Y335552D01*
X349024Y335552D01*
X349024Y336692D02*
X357824Y336692D01*
X349024Y332352D02*
X349024Y330552D01*
X349024Y332352D02*
X357824Y332352D01*
X357824Y330552D01*
X349024Y330552D01*
X349024Y331692D02*
X357824Y331692D01*
X349024Y340552D02*
X349024Y342352D01*
X357824Y342352D01*
X357824Y340552D01*
X349024Y340552D01*
X349024Y341692D02*
X357824Y341692D01*
X349024Y345552D02*
X349024Y347352D01*
X357824Y347352D01*
X357824Y345552D01*
X349024Y345552D01*
X349024Y346692D02*
X357824Y346692D01*
X349024Y350552D02*
X349024Y352352D01*
X357824Y352352D01*
X357824Y350552D01*
X349024Y350552D01*
X349024Y351692D02*
X357824Y351692D01*
X349024Y355552D02*
X349024Y357352D01*
X357824Y357352D01*
X357824Y355552D01*
X349024Y355552D01*
X349024Y356692D02*
X357824Y356692D01*
X349024Y360552D02*
X349024Y362352D01*
X357824Y362352D01*
X357824Y360552D01*
X349024Y360552D01*
X349024Y361692D02*
X357824Y361692D01*
X349024Y365552D02*
X349024Y367352D01*
X357824Y367352D01*
X357824Y365552D01*
X349024Y365552D01*
X349024Y366692D02*
X357824Y366692D01*
D29*
X353424Y371452D03*
D28*
X349024Y327352D02*
X349024Y325552D01*
X349024Y327352D02*
X357824Y327352D01*
X357824Y325552D01*
X349024Y325552D01*
X349024Y326692D02*
X357824Y326692D01*
X349024Y322352D02*
X349024Y320552D01*
X349024Y322352D02*
X357824Y322352D01*
X357824Y320552D01*
X349024Y320552D01*
X349024Y321692D02*
X357824Y321692D01*
X349024Y317352D02*
X349024Y315552D01*
X349024Y317352D02*
X357824Y317352D01*
X357824Y315552D01*
X349024Y315552D01*
X349024Y316692D02*
X357824Y316692D01*
X349024Y312352D02*
X349024Y310552D01*
X349024Y312352D02*
X357824Y312352D01*
X357824Y310552D01*
X349024Y310552D01*
X349024Y311692D02*
X357824Y311692D01*
X349024Y307352D02*
X349024Y305552D01*
X349024Y307352D02*
X357824Y307352D01*
X357824Y305552D01*
X349024Y305552D01*
X349024Y306692D02*
X357824Y306692D01*
X349024Y302352D02*
X349024Y300552D01*
X349024Y302352D02*
X357824Y302352D01*
X357824Y300552D01*
X349024Y300552D01*
X349024Y301692D02*
X357824Y301692D01*
X349024Y297352D02*
X349024Y295552D01*
X349024Y297352D02*
X357824Y297352D01*
X357824Y295552D01*
X349024Y295552D01*
X349024Y296692D02*
X357824Y296692D01*
D30*
X326424Y273452D03*
X326424Y394452D03*
D31*
X664350Y284700D03*
X677050Y284700D03*
X689750Y284700D03*
X702450Y284700D03*
X715150Y284700D03*
X727850Y284700D03*
X740550Y284700D03*
X753250Y284700D03*
X765950Y284700D03*
X778650Y284700D03*
X778650Y272000D03*
X765950Y272000D03*
X753250Y272000D03*
X740550Y272000D03*
X727850Y272000D03*
X715150Y272000D03*
X702450Y272000D03*
X689750Y272000D03*
X677050Y272000D03*
X664350Y272000D03*
D32*
X639400Y227500D03*
X803600Y227500D03*
X803600Y276500D03*
X639400Y276500D03*
D33*
X832250Y560000D03*
X832250Y556000D03*
X832250Y552000D03*
X832250Y548000D03*
X832250Y544000D03*
X856750Y544000D03*
X856750Y548000D03*
X856750Y552000D03*
X856750Y556000D03*
X856750Y560000D03*
D34*
X844500Y552000D03*
D35*
X553250Y598000D03*
X523750Y598000D03*
D36*
X538500Y613250D03*
D37*
X319000Y530000D03*
X338000Y530000D03*
D19*
X268000Y407000D03*
X251000Y407000D03*
X364000Y417000D03*
X347000Y417000D03*
X1028000Y582000D03*
X1045000Y582000D03*
X308000Y229000D03*
X325000Y229000D03*
X277000Y229000D03*
X260000Y229000D03*
D26*
X929500Y738000D03*
X909500Y738000D03*
D27*
X953500Y760500D03*
X885500Y760500D03*
D21*
X796500Y380500D03*
X796500Y397500D03*
D10*
X862900Y1441600D03*
X888300Y1441600D03*
D11*
X913700Y1445000D03*
X939100Y1445000D03*
X964500Y1445000D03*
X989900Y1445000D03*
X1015300Y1445000D03*
X1040700Y1445000D03*
D10*
X1066100Y1441600D03*
X1091500Y1441600D03*
X1091500Y1492400D03*
X1066100Y1492400D03*
D11*
X1040700Y1489000D03*
X1015300Y1489000D03*
X989900Y1489000D03*
X964500Y1489000D03*
X939100Y1489000D03*
X913700Y1489000D03*
D10*
X888300Y1492400D03*
X862900Y1492400D03*
X440100Y988400D03*
X414700Y988400D03*
D11*
X389300Y985000D03*
X363900Y985000D03*
X338500Y985000D03*
X313100Y985000D03*
X287700Y985000D03*
X262300Y985000D03*
D10*
X236900Y988400D03*
X211500Y988400D03*
X211500Y937600D03*
X236900Y937600D03*
D11*
X262300Y941000D03*
X287700Y941000D03*
X313100Y941000D03*
X338500Y941000D03*
X363900Y941000D03*
X389300Y941000D03*
D10*
X414700Y937600D03*
X440100Y937600D03*
D12*
X290836Y1327046D02*
X275336Y1327046D01*
X275336Y1330546D01*
X290836Y1330546D01*
X290836Y1327046D01*
X290836Y1330371D02*
X275336Y1330371D01*
X143536Y1337206D02*
X128036Y1337206D01*
X128036Y1340706D01*
X143536Y1340706D01*
X143536Y1337206D01*
X143536Y1340531D02*
X128036Y1340531D01*
X128036Y1347366D02*
X143536Y1347366D01*
X128036Y1347366D02*
X128036Y1350866D01*
X143536Y1350866D01*
X143536Y1347366D01*
X143536Y1350691D02*
X128036Y1350691D01*
X128036Y1357526D02*
X143536Y1357526D01*
X128036Y1357526D02*
X128036Y1361026D01*
X143536Y1361026D01*
X143536Y1357526D01*
X143536Y1360851D02*
X128036Y1360851D01*
X128036Y1367686D02*
X143536Y1367686D01*
X128036Y1367686D02*
X128036Y1371186D01*
X143536Y1371186D01*
X143536Y1367686D01*
X143536Y1371011D02*
X128036Y1371011D01*
X128036Y1377846D02*
X143536Y1377846D01*
X128036Y1377846D02*
X128036Y1381346D01*
X143536Y1381346D01*
X143536Y1377846D01*
X143536Y1381171D02*
X128036Y1381171D01*
X128036Y1388006D02*
X143536Y1388006D01*
X128036Y1388006D02*
X128036Y1391506D01*
X143536Y1391506D01*
X143536Y1388006D01*
X143536Y1391331D02*
X128036Y1391331D01*
X128036Y1398166D02*
X143536Y1398166D01*
X128036Y1398166D02*
X128036Y1401666D01*
X143536Y1401666D01*
X143536Y1398166D01*
X143536Y1401491D02*
X128036Y1401491D01*
X128036Y1408326D02*
X143536Y1408326D01*
X128036Y1408326D02*
X128036Y1411826D01*
X143536Y1411826D01*
X143536Y1408326D01*
X143536Y1411651D02*
X128036Y1411651D01*
X128036Y1418486D02*
X143536Y1418486D01*
X128036Y1418486D02*
X128036Y1421986D01*
X143536Y1421986D01*
X143536Y1418486D01*
X143536Y1421811D02*
X128036Y1421811D01*
X128036Y1428646D02*
X143536Y1428646D01*
X128036Y1428646D02*
X128036Y1432146D01*
X143536Y1432146D01*
X143536Y1428646D01*
X143536Y1431971D02*
X128036Y1431971D01*
X275336Y1337206D02*
X290836Y1337206D01*
X275336Y1337206D02*
X275336Y1340706D01*
X290836Y1340706D01*
X290836Y1337206D01*
X290836Y1340531D02*
X275336Y1340531D01*
X275336Y1347366D02*
X290836Y1347366D01*
X275336Y1347366D02*
X275336Y1350866D01*
X290836Y1350866D01*
X290836Y1347366D01*
X290836Y1350691D02*
X275336Y1350691D01*
X275336Y1357526D02*
X290836Y1357526D01*
X275336Y1357526D02*
X275336Y1361026D01*
X290836Y1361026D01*
X290836Y1357526D01*
X290836Y1360851D02*
X275336Y1360851D01*
X275336Y1398166D02*
X290836Y1398166D01*
X275336Y1398166D02*
X275336Y1401666D01*
X290836Y1401666D01*
X290836Y1398166D01*
X290836Y1401491D02*
X275336Y1401491D01*
X275336Y1418486D02*
X290836Y1418486D01*
X275336Y1418486D02*
X275336Y1421986D01*
X290836Y1421986D01*
X290836Y1418486D01*
X290836Y1421811D02*
X275336Y1421811D01*
X275336Y1428646D02*
X290836Y1428646D01*
X275336Y1428646D02*
X275336Y1432146D01*
X290836Y1432146D01*
X290836Y1428646D01*
X290836Y1431971D02*
X275336Y1431971D01*
X275336Y1438806D02*
X290836Y1438806D01*
X275336Y1438806D02*
X275336Y1442306D01*
X290836Y1442306D01*
X290836Y1438806D01*
X290836Y1442131D02*
X275336Y1442131D01*
X275336Y1448966D02*
X290836Y1448966D01*
X275336Y1448966D02*
X275336Y1452466D01*
X290836Y1452466D01*
X290836Y1448966D01*
X290836Y1452291D02*
X275336Y1452291D01*
X156536Y1309846D02*
X156536Y1294346D01*
X153036Y1294346D01*
X153036Y1309846D01*
X156536Y1309846D01*
X156536Y1297671D02*
X153036Y1297671D01*
X153036Y1300996D02*
X156536Y1300996D01*
X156536Y1304321D02*
X153036Y1304321D01*
X153036Y1307646D02*
X156536Y1307646D01*
X187016Y1309846D02*
X187016Y1294346D01*
X183516Y1294346D01*
X183516Y1309846D01*
X187016Y1309846D01*
X187016Y1297671D02*
X183516Y1297671D01*
X183516Y1300996D02*
X187016Y1300996D01*
X187016Y1304321D02*
X183516Y1304321D01*
X183516Y1307646D02*
X187016Y1307646D01*
X197176Y1309846D02*
X197176Y1294346D01*
X193676Y1294346D01*
X193676Y1309846D01*
X197176Y1309846D01*
X197176Y1297671D02*
X193676Y1297671D01*
X193676Y1300996D02*
X197176Y1300996D01*
X197176Y1304321D02*
X193676Y1304321D01*
X193676Y1307646D02*
X197176Y1307646D01*
X207336Y1309846D02*
X207336Y1294346D01*
X203836Y1294346D01*
X203836Y1309846D01*
X207336Y1309846D01*
X207336Y1297671D02*
X203836Y1297671D01*
X203836Y1300996D02*
X207336Y1300996D01*
X207336Y1304321D02*
X203836Y1304321D01*
X203836Y1307646D02*
X207336Y1307646D01*
X217496Y1309846D02*
X217496Y1294346D01*
X213996Y1294346D01*
X213996Y1309846D01*
X217496Y1309846D01*
X217496Y1297671D02*
X213996Y1297671D01*
X213996Y1300996D02*
X217496Y1300996D01*
X217496Y1304321D02*
X213996Y1304321D01*
X213996Y1307646D02*
X217496Y1307646D01*
X227656Y1309846D02*
X227656Y1294346D01*
X224156Y1294346D01*
X224156Y1309846D01*
X227656Y1309846D01*
X227656Y1297671D02*
X224156Y1297671D01*
X224156Y1300996D02*
X227656Y1300996D01*
X227656Y1304321D02*
X224156Y1304321D01*
X224156Y1307646D02*
X227656Y1307646D01*
X237816Y1309846D02*
X237816Y1294346D01*
X234316Y1294346D01*
X234316Y1309846D01*
X237816Y1309846D01*
X237816Y1297671D02*
X234316Y1297671D01*
X234316Y1300996D02*
X237816Y1300996D01*
X237816Y1304321D02*
X234316Y1304321D01*
X234316Y1307646D02*
X237816Y1307646D01*
X247976Y1309846D02*
X247976Y1294346D01*
X244476Y1294346D01*
X244476Y1309846D01*
X247976Y1309846D01*
X247976Y1297671D02*
X244476Y1297671D01*
X244476Y1300996D02*
X247976Y1300996D01*
X247976Y1304321D02*
X244476Y1304321D01*
X244476Y1307646D02*
X247976Y1307646D01*
X258136Y1309846D02*
X258136Y1294346D01*
X254636Y1294346D01*
X254636Y1309846D01*
X258136Y1309846D01*
X258136Y1297671D02*
X254636Y1297671D01*
X254636Y1300996D02*
X258136Y1300996D01*
X258136Y1304321D02*
X254636Y1304321D01*
X254636Y1307646D02*
X258136Y1307646D01*
D13*
X204586Y1364796D03*
D14*
X364512Y1253260D03*
X379512Y1253260D03*
X394512Y1253260D03*
X409512Y1253260D03*
X424512Y1253260D03*
X439512Y1253260D03*
X454512Y1253260D03*
X469512Y1253260D03*
X484512Y1253260D03*
X499512Y1253260D03*
X499512Y1413260D03*
X484512Y1413260D03*
X469512Y1413260D03*
X454512Y1413260D03*
X439512Y1413260D03*
X424512Y1413260D03*
X409512Y1413260D03*
X394512Y1413260D03*
X379512Y1413260D03*
X364512Y1413260D03*
D15*
X335256Y1297577D02*
X335256Y1287395D01*
X335256Y1297577D02*
X338912Y1297577D01*
X338912Y1287395D01*
X335256Y1287395D01*
X335256Y1289710D02*
X338912Y1289710D01*
X338912Y1292025D02*
X335256Y1292025D01*
X335256Y1294340D02*
X338912Y1294340D01*
X338912Y1296655D02*
X335256Y1296655D01*
X325756Y1297577D02*
X325756Y1287395D01*
X325756Y1297577D02*
X329412Y1297577D01*
X329412Y1287395D01*
X325756Y1287395D01*
X325756Y1289710D02*
X329412Y1289710D01*
X329412Y1292025D02*
X325756Y1292025D01*
X325756Y1294340D02*
X329412Y1294340D01*
X329412Y1296655D02*
X325756Y1296655D01*
X316256Y1297577D02*
X316256Y1287395D01*
X316256Y1297577D02*
X319912Y1297577D01*
X319912Y1287395D01*
X316256Y1287395D01*
X316256Y1289710D02*
X319912Y1289710D01*
X319912Y1292025D02*
X316256Y1292025D01*
X316256Y1294340D02*
X319912Y1294340D01*
X319912Y1296655D02*
X316256Y1296655D01*
X316256Y1274077D02*
X316256Y1263895D01*
X316256Y1274077D02*
X319912Y1274077D01*
X319912Y1263895D01*
X316256Y1263895D01*
X316256Y1266210D02*
X319912Y1266210D01*
X319912Y1268525D02*
X316256Y1268525D01*
X316256Y1270840D02*
X319912Y1270840D01*
X319912Y1273155D02*
X316256Y1273155D01*
X335256Y1274077D02*
X335256Y1263895D01*
X335256Y1274077D02*
X338912Y1274077D01*
X338912Y1263895D01*
X335256Y1263895D01*
X335256Y1266210D02*
X338912Y1266210D01*
X338912Y1268525D02*
X335256Y1268525D01*
X335256Y1270840D02*
X338912Y1270840D01*
X338912Y1273155D02*
X335256Y1273155D01*
X187777Y1262768D02*
X177595Y1262768D01*
X177595Y1266424D01*
X187777Y1266424D01*
X187777Y1262768D01*
X187777Y1265083D02*
X177595Y1265083D01*
X177595Y1253268D02*
X187777Y1253268D01*
X177595Y1253268D02*
X177595Y1256924D01*
X187777Y1256924D01*
X187777Y1253268D01*
X187777Y1255583D02*
X177595Y1255583D01*
X177595Y1243768D02*
X187777Y1243768D01*
X177595Y1243768D02*
X177595Y1247424D01*
X187777Y1247424D01*
X187777Y1243768D01*
X187777Y1246083D02*
X177595Y1246083D01*
X201095Y1243768D02*
X211277Y1243768D01*
X201095Y1243768D02*
X201095Y1247424D01*
X211277Y1247424D01*
X211277Y1243768D01*
X211277Y1246083D02*
X201095Y1246083D01*
X201095Y1262768D02*
X211277Y1262768D01*
X201095Y1262768D02*
X201095Y1266424D01*
X211277Y1266424D01*
X211277Y1262768D01*
X211277Y1265083D02*
X201095Y1265083D01*
D16*
X225686Y1269096D03*
X253186Y1269096D03*
X337334Y1251736D03*
X309834Y1251736D03*
D17*
X221686Y1241096D03*
X239186Y1241096D03*
X304334Y1268736D03*
X286834Y1268736D03*
X221686Y1254096D03*
X239186Y1254096D03*
X337334Y1236736D03*
X319834Y1236736D03*
D18*
X773750Y1328348D03*
X773750Y1379212D03*
X786450Y1328348D03*
X799150Y1328348D03*
X786450Y1379212D03*
X799150Y1379212D03*
X811850Y1328348D03*
X811850Y1379212D03*
D19*
X737310Y1277580D03*
X754310Y1277580D03*
X737310Y1313140D03*
X754310Y1313140D03*
D20*
X765225Y1306175D02*
X777375Y1306175D01*
X765225Y1306175D02*
X765225Y1309125D01*
X777375Y1309125D01*
X777375Y1306175D01*
X777375Y1308045D02*
X765225Y1308045D01*
X765225Y1299675D02*
X777375Y1299675D01*
X765225Y1299675D02*
X765225Y1302625D01*
X777375Y1302625D01*
X777375Y1299675D01*
X777375Y1301545D02*
X765225Y1301545D01*
X765225Y1293175D02*
X777375Y1293175D01*
X765225Y1293175D02*
X765225Y1296125D01*
X777375Y1296125D01*
X777375Y1293175D01*
X777375Y1295045D02*
X765225Y1295045D01*
X765225Y1286675D02*
X777375Y1286675D01*
X765225Y1286675D02*
X765225Y1289625D01*
X777375Y1289625D01*
X777375Y1286675D01*
X777375Y1288545D02*
X765225Y1288545D01*
X808225Y1286675D02*
X820375Y1286675D01*
X808225Y1286675D02*
X808225Y1289625D01*
X820375Y1289625D01*
X820375Y1286675D01*
X820375Y1288545D02*
X808225Y1288545D01*
X808225Y1293175D02*
X820375Y1293175D01*
X808225Y1293175D02*
X808225Y1296125D01*
X820375Y1296125D01*
X820375Y1293175D01*
X820375Y1295045D02*
X808225Y1295045D01*
X808225Y1299675D02*
X820375Y1299675D01*
X808225Y1299675D02*
X808225Y1302625D01*
X820375Y1302625D01*
X820375Y1299675D01*
X820375Y1301545D02*
X808225Y1301545D01*
X808225Y1306175D02*
X820375Y1306175D01*
X808225Y1306175D02*
X808225Y1309125D01*
X820375Y1309125D01*
X820375Y1306175D01*
X820375Y1308045D02*
X808225Y1308045D01*
D19*
X837640Y1287740D03*
X854640Y1287740D03*
X754310Y1379180D03*
X737310Y1379180D03*
X837640Y1384260D03*
X854640Y1384260D03*
X854640Y1329650D03*
X837640Y1329650D03*
D21*
X876620Y1348310D03*
X876620Y1331310D03*
D15*
X669692Y1374667D02*
X669692Y1384849D01*
X673348Y1384849D01*
X673348Y1374667D01*
X669692Y1374667D01*
X669692Y1376982D02*
X673348Y1376982D01*
X673348Y1379297D02*
X669692Y1379297D01*
X669692Y1381612D02*
X673348Y1381612D01*
X673348Y1383927D02*
X669692Y1383927D01*
X660192Y1384849D02*
X660192Y1374667D01*
X660192Y1384849D02*
X663848Y1384849D01*
X663848Y1374667D01*
X660192Y1374667D01*
X660192Y1376982D02*
X663848Y1376982D01*
X663848Y1379297D02*
X660192Y1379297D01*
X660192Y1381612D02*
X663848Y1381612D01*
X663848Y1383927D02*
X660192Y1383927D01*
X650692Y1384849D02*
X650692Y1374667D01*
X650692Y1384849D02*
X654348Y1384849D01*
X654348Y1374667D01*
X650692Y1374667D01*
X650692Y1376982D02*
X654348Y1376982D01*
X654348Y1379297D02*
X650692Y1379297D01*
X650692Y1381612D02*
X654348Y1381612D01*
X654348Y1383927D02*
X650692Y1383927D01*
X650692Y1361349D02*
X650692Y1351167D01*
X650692Y1361349D02*
X654348Y1361349D01*
X654348Y1351167D01*
X650692Y1351167D01*
X650692Y1353482D02*
X654348Y1353482D01*
X654348Y1355797D02*
X650692Y1355797D01*
X650692Y1358112D02*
X654348Y1358112D01*
X654348Y1360427D02*
X650692Y1360427D01*
X669692Y1361349D02*
X669692Y1351167D01*
X669692Y1361349D02*
X673348Y1361349D01*
X673348Y1351167D01*
X669692Y1351167D01*
X669692Y1353482D02*
X673348Y1353482D01*
X673348Y1355797D02*
X669692Y1355797D01*
X669692Y1358112D02*
X673348Y1358112D01*
X673348Y1360427D02*
X669692Y1360427D01*
D16*
X680094Y1339984D03*
X707594Y1339984D03*
D17*
X652346Y1340364D03*
X634846Y1340364D03*
X676078Y1323636D03*
X693578Y1323636D03*
D22*
X401436Y1589176D03*
X341436Y1589176D03*
D23*
X371436Y1575626D03*
X381436Y1575626D03*
X361436Y1575626D03*
D19*
X632560Y1394816D03*
X649560Y1394816D03*
D24*
X567298Y1473833D03*
X592190Y1473833D03*
D25*
X573394Y1437257D03*
X560694Y1437257D03*
X586094Y1437257D03*
X598794Y1437257D03*
D24*
X693686Y1473833D03*
X718578Y1473833D03*
D25*
X699782Y1437257D03*
X687082Y1437257D03*
X712482Y1437257D03*
X725182Y1437257D03*
D26*
X757760Y1535000D03*
X737760Y1535000D03*
D27*
X781760Y1557500D03*
X713760Y1557500D03*
D26*
X561500Y1535000D03*
X541500Y1535000D03*
D27*
X585500Y1557500D03*
X517500Y1557500D03*
D28*
X246916Y1137352D02*
X246916Y1135552D01*
X246916Y1137352D02*
X255716Y1137352D01*
X255716Y1135552D01*
X246916Y1135552D01*
X246916Y1136692D02*
X255716Y1136692D01*
X246916Y1132352D02*
X246916Y1130552D01*
X246916Y1132352D02*
X255716Y1132352D01*
X255716Y1130552D01*
X246916Y1130552D01*
X246916Y1131692D02*
X255716Y1131692D01*
X246916Y1140552D02*
X246916Y1142352D01*
X255716Y1142352D01*
X255716Y1140552D01*
X246916Y1140552D01*
X246916Y1141692D02*
X255716Y1141692D01*
X246916Y1145552D02*
X246916Y1147352D01*
X255716Y1147352D01*
X255716Y1145552D01*
X246916Y1145552D01*
X246916Y1146692D02*
X255716Y1146692D01*
X246916Y1150552D02*
X246916Y1152352D01*
X255716Y1152352D01*
X255716Y1150552D01*
X246916Y1150552D01*
X246916Y1151692D02*
X255716Y1151692D01*
X246916Y1155552D02*
X246916Y1157352D01*
X255716Y1157352D01*
X255716Y1155552D01*
X246916Y1155552D01*
X246916Y1156692D02*
X255716Y1156692D01*
X246916Y1160552D02*
X246916Y1162352D01*
X255716Y1162352D01*
X255716Y1160552D01*
X246916Y1160552D01*
X246916Y1161692D02*
X255716Y1161692D01*
X246916Y1165552D02*
X246916Y1167352D01*
X255716Y1167352D01*
X255716Y1165552D01*
X246916Y1165552D01*
X246916Y1166692D02*
X255716Y1166692D01*
D29*
X251316Y1171452D03*
D28*
X246916Y1127352D02*
X246916Y1125552D01*
X246916Y1127352D02*
X255716Y1127352D01*
X255716Y1125552D01*
X246916Y1125552D01*
X246916Y1126692D02*
X255716Y1126692D01*
X246916Y1122352D02*
X246916Y1120552D01*
X246916Y1122352D02*
X255716Y1122352D01*
X255716Y1120552D01*
X246916Y1120552D01*
X246916Y1121692D02*
X255716Y1121692D01*
X246916Y1117352D02*
X246916Y1115552D01*
X246916Y1117352D02*
X255716Y1117352D01*
X255716Y1115552D01*
X246916Y1115552D01*
X246916Y1116692D02*
X255716Y1116692D01*
X246916Y1112352D02*
X246916Y1110552D01*
X246916Y1112352D02*
X255716Y1112352D01*
X255716Y1110552D01*
X246916Y1110552D01*
X246916Y1111692D02*
X255716Y1111692D01*
X246916Y1107352D02*
X246916Y1105552D01*
X246916Y1107352D02*
X255716Y1107352D01*
X255716Y1105552D01*
X246916Y1105552D01*
X246916Y1106692D02*
X255716Y1106692D01*
X246916Y1102352D02*
X246916Y1100552D01*
X246916Y1102352D02*
X255716Y1102352D01*
X255716Y1100552D01*
X246916Y1100552D01*
X246916Y1101692D02*
X255716Y1101692D01*
X246916Y1097352D02*
X246916Y1095552D01*
X246916Y1097352D02*
X255716Y1097352D01*
X255716Y1095552D01*
X246916Y1095552D01*
X246916Y1096692D02*
X255716Y1096692D01*
D30*
X224316Y1073452D03*
X224316Y1194452D03*
D28*
X349024Y1137352D02*
X349024Y1135552D01*
X349024Y1137352D02*
X357824Y1137352D01*
X357824Y1135552D01*
X349024Y1135552D01*
X349024Y1136692D02*
X357824Y1136692D01*
X349024Y1132352D02*
X349024Y1130552D01*
X349024Y1132352D02*
X357824Y1132352D01*
X357824Y1130552D01*
X349024Y1130552D01*
X349024Y1131692D02*
X357824Y1131692D01*
X349024Y1140552D02*
X349024Y1142352D01*
X357824Y1142352D01*
X357824Y1140552D01*
X349024Y1140552D01*
X349024Y1141692D02*
X357824Y1141692D01*
X349024Y1145552D02*
X349024Y1147352D01*
X357824Y1147352D01*
X357824Y1145552D01*
X349024Y1145552D01*
X349024Y1146692D02*
X357824Y1146692D01*
X349024Y1150552D02*
X349024Y1152352D01*
X357824Y1152352D01*
X357824Y1150552D01*
X349024Y1150552D01*
X349024Y1151692D02*
X357824Y1151692D01*
X349024Y1155552D02*
X349024Y1157352D01*
X357824Y1157352D01*
X357824Y1155552D01*
X349024Y1155552D01*
X349024Y1156692D02*
X357824Y1156692D01*
X349024Y1160552D02*
X349024Y1162352D01*
X357824Y1162352D01*
X357824Y1160552D01*
X349024Y1160552D01*
X349024Y1161692D02*
X357824Y1161692D01*
X349024Y1165552D02*
X349024Y1167352D01*
X357824Y1167352D01*
X357824Y1165552D01*
X349024Y1165552D01*
X349024Y1166692D02*
X357824Y1166692D01*
D29*
X353424Y1171452D03*
D28*
X349024Y1127352D02*
X349024Y1125552D01*
X349024Y1127352D02*
X357824Y1127352D01*
X357824Y1125552D01*
X349024Y1125552D01*
X349024Y1126692D02*
X357824Y1126692D01*
X349024Y1122352D02*
X349024Y1120552D01*
X349024Y1122352D02*
X357824Y1122352D01*
X357824Y1120552D01*
X349024Y1120552D01*
X349024Y1121692D02*
X357824Y1121692D01*
X349024Y1117352D02*
X349024Y1115552D01*
X349024Y1117352D02*
X357824Y1117352D01*
X357824Y1115552D01*
X349024Y1115552D01*
X349024Y1116692D02*
X357824Y1116692D01*
X349024Y1112352D02*
X349024Y1110552D01*
X349024Y1112352D02*
X357824Y1112352D01*
X357824Y1110552D01*
X349024Y1110552D01*
X349024Y1111692D02*
X357824Y1111692D01*
X349024Y1107352D02*
X349024Y1105552D01*
X349024Y1107352D02*
X357824Y1107352D01*
X357824Y1105552D01*
X349024Y1105552D01*
X349024Y1106692D02*
X357824Y1106692D01*
X349024Y1102352D02*
X349024Y1100552D01*
X349024Y1102352D02*
X357824Y1102352D01*
X357824Y1100552D01*
X349024Y1100552D01*
X349024Y1101692D02*
X357824Y1101692D01*
X349024Y1097352D02*
X349024Y1095552D01*
X349024Y1097352D02*
X357824Y1097352D01*
X357824Y1095552D01*
X349024Y1095552D01*
X349024Y1096692D02*
X357824Y1096692D01*
D30*
X326424Y1073452D03*
X326424Y1194452D03*
D31*
X664350Y1084700D03*
X677050Y1084700D03*
X689750Y1084700D03*
X702450Y1084700D03*
X715150Y1084700D03*
X727850Y1084700D03*
X740550Y1084700D03*
X753250Y1084700D03*
X765950Y1084700D03*
X778650Y1084700D03*
X778650Y1072000D03*
X765950Y1072000D03*
X753250Y1072000D03*
X740550Y1072000D03*
X727850Y1072000D03*
X715150Y1072000D03*
X702450Y1072000D03*
X689750Y1072000D03*
X677050Y1072000D03*
X664350Y1072000D03*
D32*
X639400Y1027500D03*
X803600Y1027500D03*
X803600Y1076500D03*
X639400Y1076500D03*
D33*
X832250Y1360000D03*
X832250Y1356000D03*
X832250Y1352000D03*
X832250Y1348000D03*
X832250Y1344000D03*
X856750Y1344000D03*
X856750Y1348000D03*
X856750Y1352000D03*
X856750Y1356000D03*
X856750Y1360000D03*
D34*
X844500Y1352000D03*
D35*
X553250Y1398000D03*
X523750Y1398000D03*
D36*
X538500Y1413250D03*
D37*
X319000Y1330000D03*
X338000Y1330000D03*
D19*
X268000Y1207000D03*
X251000Y1207000D03*
X364000Y1217000D03*
X347000Y1217000D03*
X1028000Y1382000D03*
X1045000Y1382000D03*
X308000Y1029000D03*
X325000Y1029000D03*
X277000Y1029000D03*
X260000Y1029000D03*
D26*
X929500Y1538000D03*
X909500Y1538000D03*
D27*
X953500Y1560500D03*
X885500Y1560500D03*
D21*
X796500Y1180500D03*
X796500Y1197500D03*
M02*
