G04 EAGLE Gerber RS-274X export*
G75*
%MOMM*%
%FSLAX34Y34*%
%LPD*%
%INSoldermask Top*%
%IPPOS*%
%AMOC8*
5,1,8,0,0,1.08239X$1,22.5*%
G01*
%ADD10C,2.903200*%
%ADD11C,2.743200*%
%ADD12R,1.473200X3.203200*%
%ADD13R,1.473200X3.883200*%
%ADD14C,1.783200*%
%ADD15C,0.550950*%
%ADD16R,3.903200X3.903200*%
%ADD17R,0.838200X1.473200*%
%ADD18C,1.403200*%
%ADD19C,0.446819*%
%ADD20R,2.153200X1.703200*%
%ADD21R,1.253200X1.283200*%
%ADD22R,0.923200X1.983200*%
%ADD23R,1.303200X1.203200*%
%ADD24C,0.403156*%
%ADD25R,1.203200X1.303200*%
%ADD26R,1.103200X0.903200*%
%ADD27R,0.803200X0.803200*%
%ADD28C,1.003200*%
%ADD29R,2.286000X5.054600*%
%ADD30R,0.965200X1.193800*%
%ADD31R,1.203200X5.703200*%
%ADD32R,2.803200X4.203200*%
%ADD33C,0.322047*%
%ADD34R,1.203200X0.503200*%
%ADD35R,1.503200X2.203200*%
%ADD36R,1.003200X1.003200*%
%ADD37R,1.403200X2.903200*%
%ADD38C,1.853200*%
%ADD39R,0.853200X0.403200*%
%ADD40R,1.503200X1.603200*%
%ADD41R,1.253200X2.403200*%
%ADD42R,1.253200X1.203200*%
%ADD43R,1.503200X1.703200*%
%ADD44C,0.500000*%
%ADD45C,1.203200*%
%ADD46C,8.203200*%


D10*
X448200Y760764D03*
X648160Y760764D03*
X848200Y761264D03*
X448200Y1560764D03*
X648160Y1560764D03*
X848200Y1561264D03*
D11*
X25000Y1550000D03*
X1275000Y1550000D03*
X1275000Y180000D03*
X25000Y180000D03*
D12*
X862900Y641600D03*
X888300Y641600D03*
D13*
X913700Y645000D03*
X939100Y645000D03*
X964500Y645000D03*
X989900Y645000D03*
X1015300Y645000D03*
X1040700Y645000D03*
D12*
X1066100Y641600D03*
X1091500Y641600D03*
X1091500Y692400D03*
X1066100Y692400D03*
D13*
X1040700Y689000D03*
X1015300Y689000D03*
X989900Y689000D03*
X964500Y689000D03*
X939100Y689000D03*
X913700Y689000D03*
D12*
X888300Y692400D03*
X862900Y692400D03*
D14*
X875600Y667000D03*
X1078800Y667000D03*
D12*
X440100Y188400D03*
X414700Y188400D03*
D13*
X389300Y185000D03*
X363900Y185000D03*
X338500Y185000D03*
X313100Y185000D03*
X287700Y185000D03*
X262300Y185000D03*
D12*
X236900Y188400D03*
X211500Y188400D03*
X211500Y137600D03*
X236900Y137600D03*
D13*
X262300Y141000D03*
X287700Y141000D03*
X313100Y141000D03*
X338500Y141000D03*
X363900Y141000D03*
X389300Y141000D03*
D12*
X414700Y137600D03*
X440100Y137600D03*
D14*
X427400Y163000D03*
X224200Y163000D03*
D15*
X275325Y527035D02*
X290847Y527035D01*
X275325Y527035D02*
X275325Y530557D01*
X290847Y530557D01*
X290847Y527035D01*
X143547Y537195D02*
X128025Y537195D01*
X128025Y540717D01*
X143547Y540717D01*
X143547Y537195D01*
X143547Y547355D02*
X128025Y547355D01*
X128025Y550877D01*
X143547Y550877D01*
X143547Y547355D01*
X143547Y557515D02*
X128025Y557515D01*
X128025Y561037D01*
X143547Y561037D01*
X143547Y557515D01*
X143547Y567675D02*
X128025Y567675D01*
X128025Y571197D01*
X143547Y571197D01*
X143547Y567675D01*
X143547Y577835D02*
X128025Y577835D01*
X128025Y581357D01*
X143547Y581357D01*
X143547Y577835D01*
X143547Y587995D02*
X128025Y587995D01*
X128025Y591517D01*
X143547Y591517D01*
X143547Y587995D01*
X143547Y598155D02*
X128025Y598155D01*
X128025Y601677D01*
X143547Y601677D01*
X143547Y598155D01*
X143547Y608315D02*
X128025Y608315D01*
X128025Y611837D01*
X143547Y611837D01*
X143547Y608315D01*
X143547Y618475D02*
X128025Y618475D01*
X128025Y621997D01*
X143547Y621997D01*
X143547Y618475D01*
X143547Y628635D02*
X128025Y628635D01*
X128025Y632157D01*
X143547Y632157D01*
X143547Y628635D01*
X275325Y537195D02*
X290847Y537195D01*
X275325Y537195D02*
X275325Y540717D01*
X290847Y540717D01*
X290847Y537195D01*
X290847Y547355D02*
X275325Y547355D01*
X275325Y550877D01*
X290847Y550877D01*
X290847Y547355D01*
X290847Y557515D02*
X275325Y557515D01*
X275325Y561037D01*
X290847Y561037D01*
X290847Y557515D01*
X290847Y598155D02*
X275325Y598155D01*
X275325Y601677D01*
X290847Y601677D01*
X290847Y598155D01*
X290847Y618475D02*
X275325Y618475D01*
X275325Y621997D01*
X290847Y621997D01*
X290847Y618475D01*
X290847Y628635D02*
X275325Y628635D01*
X275325Y632157D01*
X290847Y632157D01*
X290847Y628635D01*
X290847Y638795D02*
X275325Y638795D01*
X275325Y642317D01*
X290847Y642317D01*
X290847Y638795D01*
X290847Y648955D02*
X275325Y648955D01*
X275325Y652477D01*
X290847Y652477D01*
X290847Y648955D01*
X156547Y509857D02*
X156547Y494335D01*
X153025Y494335D01*
X153025Y509857D01*
X156547Y509857D01*
X156547Y499569D02*
X153025Y499569D01*
X153025Y504803D02*
X156547Y504803D01*
X187027Y509857D02*
X187027Y494335D01*
X183505Y494335D01*
X183505Y509857D01*
X187027Y509857D01*
X187027Y499569D02*
X183505Y499569D01*
X183505Y504803D02*
X187027Y504803D01*
X197187Y509857D02*
X197187Y494335D01*
X193665Y494335D01*
X193665Y509857D01*
X197187Y509857D01*
X197187Y499569D02*
X193665Y499569D01*
X193665Y504803D02*
X197187Y504803D01*
X207347Y509857D02*
X207347Y494335D01*
X203825Y494335D01*
X203825Y509857D01*
X207347Y509857D01*
X207347Y499569D02*
X203825Y499569D01*
X203825Y504803D02*
X207347Y504803D01*
X217507Y509857D02*
X217507Y494335D01*
X213985Y494335D01*
X213985Y509857D01*
X217507Y509857D01*
X217507Y499569D02*
X213985Y499569D01*
X213985Y504803D02*
X217507Y504803D01*
X227667Y509857D02*
X227667Y494335D01*
X224145Y494335D01*
X224145Y509857D01*
X227667Y509857D01*
X227667Y499569D02*
X224145Y499569D01*
X224145Y504803D02*
X227667Y504803D01*
X237827Y509857D02*
X237827Y494335D01*
X234305Y494335D01*
X234305Y509857D01*
X237827Y509857D01*
X237827Y499569D02*
X234305Y499569D01*
X234305Y504803D02*
X237827Y504803D01*
X247987Y509857D02*
X247987Y494335D01*
X244465Y494335D01*
X244465Y509857D01*
X247987Y509857D01*
X247987Y499569D02*
X244465Y499569D01*
X244465Y504803D02*
X247987Y504803D01*
X258147Y509857D02*
X258147Y494335D01*
X254625Y494335D01*
X254625Y509857D01*
X258147Y509857D01*
X258147Y499569D02*
X254625Y499569D01*
X254625Y504803D02*
X258147Y504803D01*
D16*
X204586Y564796D03*
D17*
X364512Y453260D03*
X379512Y453260D03*
X394512Y453260D03*
X409512Y453260D03*
X424512Y453260D03*
X439512Y453260D03*
X454512Y453260D03*
X469512Y453260D03*
X484512Y453260D03*
X499512Y453260D03*
X499512Y613260D03*
X484512Y613260D03*
X469512Y613260D03*
X454512Y613260D03*
X439512Y613260D03*
X424512Y613260D03*
X409512Y613260D03*
X394512Y613260D03*
X379512Y613260D03*
X364512Y613260D03*
D18*
X424012Y535260D03*
D19*
X335256Y497577D02*
X335256Y487395D01*
X335256Y497577D02*
X338912Y497577D01*
X338912Y487395D01*
X335256Y487395D01*
X335256Y491640D02*
X338912Y491640D01*
X338912Y495885D02*
X335256Y495885D01*
X325756Y497577D02*
X325756Y487395D01*
X325756Y497577D02*
X329412Y497577D01*
X329412Y487395D01*
X325756Y487395D01*
X325756Y491640D02*
X329412Y491640D01*
X329412Y495885D02*
X325756Y495885D01*
X316256Y497577D02*
X316256Y487395D01*
X316256Y497577D02*
X319912Y497577D01*
X319912Y487395D01*
X316256Y487395D01*
X316256Y491640D02*
X319912Y491640D01*
X319912Y495885D02*
X316256Y495885D01*
X316256Y474077D02*
X316256Y463895D01*
X316256Y474077D02*
X319912Y474077D01*
X319912Y463895D01*
X316256Y463895D01*
X316256Y468140D02*
X319912Y468140D01*
X319912Y472385D02*
X316256Y472385D01*
X335256Y474077D02*
X335256Y463895D01*
X335256Y474077D02*
X338912Y474077D01*
X338912Y463895D01*
X335256Y463895D01*
X335256Y468140D02*
X338912Y468140D01*
X338912Y472385D02*
X335256Y472385D01*
X187777Y462768D02*
X177595Y462768D01*
X177595Y466424D01*
X187777Y466424D01*
X187777Y462768D01*
X187777Y453268D02*
X177595Y453268D01*
X177595Y456924D01*
X187777Y456924D01*
X187777Y453268D01*
X187777Y443768D02*
X177595Y443768D01*
X177595Y447424D01*
X187777Y447424D01*
X187777Y443768D01*
X201095Y443768D02*
X211277Y443768D01*
X201095Y443768D02*
X201095Y447424D01*
X211277Y447424D01*
X211277Y443768D01*
X211277Y462768D02*
X201095Y462768D01*
X201095Y466424D01*
X211277Y466424D01*
X211277Y462768D01*
D20*
X225686Y469096D03*
X253186Y469096D03*
X337334Y451736D03*
X309834Y451736D03*
D21*
X221686Y441096D03*
X239186Y441096D03*
X304334Y468736D03*
X286834Y468736D03*
X221686Y454096D03*
X239186Y454096D03*
X337334Y436736D03*
X319834Y436736D03*
D22*
X773750Y528348D03*
X773750Y579212D03*
X786450Y528348D03*
X799150Y528348D03*
X786450Y579212D03*
X799150Y579212D03*
X811850Y528348D03*
X811850Y579212D03*
D23*
X737310Y477580D03*
X754310Y477580D03*
X737310Y513140D03*
X754310Y513140D03*
D24*
X765241Y506191D02*
X777359Y506191D01*
X765241Y506191D02*
X765241Y509109D01*
X777359Y509109D01*
X777359Y506191D01*
X777359Y499691D02*
X765241Y499691D01*
X765241Y502609D01*
X777359Y502609D01*
X777359Y499691D01*
X777359Y493191D02*
X765241Y493191D01*
X765241Y496109D01*
X777359Y496109D01*
X777359Y493191D01*
X777359Y486691D02*
X765241Y486691D01*
X765241Y489609D01*
X777359Y489609D01*
X777359Y486691D01*
X808241Y486691D02*
X820359Y486691D01*
X808241Y486691D02*
X808241Y489609D01*
X820359Y489609D01*
X820359Y486691D01*
X820359Y493191D02*
X808241Y493191D01*
X808241Y496109D01*
X820359Y496109D01*
X820359Y493191D01*
X820359Y499691D02*
X808241Y499691D01*
X808241Y502609D01*
X820359Y502609D01*
X820359Y499691D01*
X820359Y506191D02*
X808241Y506191D01*
X808241Y509109D01*
X820359Y509109D01*
X820359Y506191D01*
D23*
X837640Y487740D03*
X854640Y487740D03*
X754310Y579180D03*
X737310Y579180D03*
X837640Y584260D03*
X854640Y584260D03*
X854640Y529650D03*
X837640Y529650D03*
D25*
X876620Y548310D03*
X876620Y531310D03*
D19*
X669692Y574667D02*
X669692Y584849D01*
X673348Y584849D01*
X673348Y574667D01*
X669692Y574667D01*
X669692Y578912D02*
X673348Y578912D01*
X673348Y583157D02*
X669692Y583157D01*
X660192Y584849D02*
X660192Y574667D01*
X660192Y584849D02*
X663848Y584849D01*
X663848Y574667D01*
X660192Y574667D01*
X660192Y578912D02*
X663848Y578912D01*
X663848Y583157D02*
X660192Y583157D01*
X650692Y584849D02*
X650692Y574667D01*
X650692Y584849D02*
X654348Y584849D01*
X654348Y574667D01*
X650692Y574667D01*
X650692Y578912D02*
X654348Y578912D01*
X654348Y583157D02*
X650692Y583157D01*
X650692Y561349D02*
X650692Y551167D01*
X650692Y561349D02*
X654348Y561349D01*
X654348Y551167D01*
X650692Y551167D01*
X650692Y555412D02*
X654348Y555412D01*
X654348Y559657D02*
X650692Y559657D01*
X669692Y561349D02*
X669692Y551167D01*
X669692Y561349D02*
X673348Y561349D01*
X673348Y551167D01*
X669692Y551167D01*
X669692Y555412D02*
X673348Y555412D01*
X673348Y559657D02*
X669692Y559657D01*
D20*
X680094Y539984D03*
X707594Y539984D03*
D21*
X652346Y540364D03*
X634846Y540364D03*
X676078Y523636D03*
X693578Y523636D03*
D26*
X401436Y789176D03*
X341436Y789176D03*
D27*
X371436Y775626D03*
X381436Y775626D03*
X361436Y775626D03*
D28*
X386436Y789176D03*
X356436Y789176D03*
D23*
X632560Y594816D03*
X649560Y594816D03*
D29*
X567298Y673833D03*
X592190Y673833D03*
D30*
X573394Y637257D03*
X560694Y637257D03*
X586094Y637257D03*
X598794Y637257D03*
D29*
X693686Y673833D03*
X718578Y673833D03*
D30*
X699782Y637257D03*
X687082Y637257D03*
X712482Y637257D03*
X725182Y637257D03*
D31*
X757760Y735000D03*
X737760Y735000D03*
D32*
X781760Y757500D03*
X713760Y757500D03*
D31*
X561500Y735000D03*
X541500Y735000D03*
D32*
X585500Y757500D03*
X517500Y757500D03*
D33*
X246910Y337358D02*
X246910Y335546D01*
X246910Y337358D02*
X255722Y337358D01*
X255722Y335546D01*
X246910Y335546D01*
X246910Y332358D02*
X246910Y330546D01*
X246910Y332358D02*
X255722Y332358D01*
X255722Y330546D01*
X246910Y330546D01*
X246910Y340546D02*
X246910Y342358D01*
X255722Y342358D01*
X255722Y340546D01*
X246910Y340546D01*
X246910Y345546D02*
X246910Y347358D01*
X255722Y347358D01*
X255722Y345546D01*
X246910Y345546D01*
X246910Y350546D02*
X246910Y352358D01*
X255722Y352358D01*
X255722Y350546D01*
X246910Y350546D01*
X246910Y355546D02*
X246910Y357358D01*
X255722Y357358D01*
X255722Y355546D01*
X246910Y355546D01*
X246910Y360546D02*
X246910Y362358D01*
X255722Y362358D01*
X255722Y360546D01*
X246910Y360546D01*
X246910Y365546D02*
X246910Y367358D01*
X255722Y367358D01*
X255722Y365546D01*
X246910Y365546D01*
D34*
X251316Y371452D03*
D33*
X246910Y327358D02*
X246910Y325546D01*
X246910Y327358D02*
X255722Y327358D01*
X255722Y325546D01*
X246910Y325546D01*
X246910Y322358D02*
X246910Y320546D01*
X246910Y322358D02*
X255722Y322358D01*
X255722Y320546D01*
X246910Y320546D01*
X246910Y317358D02*
X246910Y315546D01*
X246910Y317358D02*
X255722Y317358D01*
X255722Y315546D01*
X246910Y315546D01*
X246910Y312358D02*
X246910Y310546D01*
X246910Y312358D02*
X255722Y312358D01*
X255722Y310546D01*
X246910Y310546D01*
X246910Y307358D02*
X246910Y305546D01*
X246910Y307358D02*
X255722Y307358D01*
X255722Y305546D01*
X246910Y305546D01*
X246910Y302358D02*
X246910Y300546D01*
X246910Y302358D02*
X255722Y302358D01*
X255722Y300546D01*
X246910Y300546D01*
X246910Y297358D02*
X246910Y295546D01*
X246910Y297358D02*
X255722Y297358D01*
X255722Y295546D01*
X246910Y295546D01*
D35*
X224316Y273452D03*
X224316Y394452D03*
D33*
X349018Y337358D02*
X349018Y335546D01*
X349018Y337358D02*
X357830Y337358D01*
X357830Y335546D01*
X349018Y335546D01*
X349018Y332358D02*
X349018Y330546D01*
X349018Y332358D02*
X357830Y332358D01*
X357830Y330546D01*
X349018Y330546D01*
X349018Y340546D02*
X349018Y342358D01*
X357830Y342358D01*
X357830Y340546D01*
X349018Y340546D01*
X349018Y345546D02*
X349018Y347358D01*
X357830Y347358D01*
X357830Y345546D01*
X349018Y345546D01*
X349018Y350546D02*
X349018Y352358D01*
X357830Y352358D01*
X357830Y350546D01*
X349018Y350546D01*
X349018Y355546D02*
X349018Y357358D01*
X357830Y357358D01*
X357830Y355546D01*
X349018Y355546D01*
X349018Y360546D02*
X349018Y362358D01*
X357830Y362358D01*
X357830Y360546D01*
X349018Y360546D01*
X349018Y365546D02*
X349018Y367358D01*
X357830Y367358D01*
X357830Y365546D01*
X349018Y365546D01*
D34*
X353424Y371452D03*
D33*
X349018Y327358D02*
X349018Y325546D01*
X349018Y327358D02*
X357830Y327358D01*
X357830Y325546D01*
X349018Y325546D01*
X349018Y322358D02*
X349018Y320546D01*
X349018Y322358D02*
X357830Y322358D01*
X357830Y320546D01*
X349018Y320546D01*
X349018Y317358D02*
X349018Y315546D01*
X349018Y317358D02*
X357830Y317358D01*
X357830Y315546D01*
X349018Y315546D01*
X349018Y312358D02*
X349018Y310546D01*
X349018Y312358D02*
X357830Y312358D01*
X357830Y310546D01*
X349018Y310546D01*
X349018Y307358D02*
X349018Y305546D01*
X349018Y307358D02*
X357830Y307358D01*
X357830Y305546D01*
X349018Y305546D01*
X349018Y302358D02*
X349018Y300546D01*
X349018Y302358D02*
X357830Y302358D01*
X357830Y300546D01*
X349018Y300546D01*
X349018Y297358D02*
X349018Y295546D01*
X349018Y297358D02*
X357830Y297358D01*
X357830Y295546D01*
X349018Y295546D01*
D35*
X326424Y273452D03*
X326424Y394452D03*
D36*
X664350Y284700D03*
X677050Y284700D03*
X689750Y284700D03*
X702450Y284700D03*
X715150Y284700D03*
X727850Y284700D03*
X740550Y284700D03*
X753250Y284700D03*
X765950Y284700D03*
X778650Y284700D03*
X778650Y272000D03*
X765950Y272000D03*
X753250Y272000D03*
X740550Y272000D03*
X727850Y272000D03*
X715150Y272000D03*
X702450Y272000D03*
X689750Y272000D03*
X677050Y272000D03*
X664350Y272000D03*
D37*
X639400Y227500D03*
X803600Y227500D03*
X803600Y276500D03*
X639400Y276500D03*
D38*
X642250Y252000D03*
X800750Y252000D03*
D39*
X832250Y560000D03*
X832250Y556000D03*
X832250Y552000D03*
X832250Y548000D03*
X832250Y544000D03*
X856750Y544000D03*
X856750Y548000D03*
X856750Y552000D03*
X856750Y556000D03*
X856750Y560000D03*
D40*
X844500Y552000D03*
D41*
X553250Y598000D03*
X523750Y598000D03*
D42*
X538500Y613250D03*
D43*
X319000Y530000D03*
X338000Y530000D03*
D23*
X268000Y407000D03*
X251000Y407000D03*
X364000Y417000D03*
X347000Y417000D03*
X1028000Y582000D03*
X1045000Y582000D03*
X308000Y229000D03*
X325000Y229000D03*
X277000Y229000D03*
X260000Y229000D03*
D14*
X1061090Y435800D03*
X1061090Y334200D03*
D44*
X151500Y142500D02*
X151319Y142498D01*
X151138Y142491D01*
X150957Y142480D01*
X150776Y142465D01*
X150596Y142445D01*
X150416Y142421D01*
X150237Y142393D01*
X150059Y142360D01*
X149882Y142323D01*
X149705Y142282D01*
X149530Y142237D01*
X149355Y142187D01*
X149182Y142133D01*
X149011Y142075D01*
X148840Y142013D01*
X148672Y141946D01*
X148505Y141876D01*
X148339Y141802D01*
X148176Y141723D01*
X148015Y141641D01*
X147855Y141555D01*
X147698Y141465D01*
X147543Y141371D01*
X147390Y141274D01*
X147240Y141172D01*
X147092Y141068D01*
X146946Y140959D01*
X146804Y140848D01*
X146664Y140732D01*
X146527Y140614D01*
X146392Y140492D01*
X146261Y140367D01*
X146133Y140239D01*
X146008Y140108D01*
X145886Y139973D01*
X145768Y139836D01*
X145652Y139696D01*
X145541Y139554D01*
X145432Y139408D01*
X145328Y139260D01*
X145226Y139110D01*
X145129Y138957D01*
X145035Y138802D01*
X144945Y138645D01*
X144859Y138485D01*
X144777Y138324D01*
X144698Y138161D01*
X144624Y137995D01*
X144554Y137828D01*
X144487Y137660D01*
X144425Y137489D01*
X144367Y137318D01*
X144313Y137145D01*
X144263Y136970D01*
X144218Y136795D01*
X144177Y136618D01*
X144140Y136441D01*
X144107Y136263D01*
X144079Y136084D01*
X144055Y135904D01*
X144035Y135724D01*
X144020Y135543D01*
X144009Y135362D01*
X144002Y135181D01*
X144000Y135000D01*
X151500Y142500D02*
X151681Y142498D01*
X151862Y142491D01*
X152043Y142480D01*
X152224Y142465D01*
X152404Y142445D01*
X152584Y142421D01*
X152763Y142393D01*
X152941Y142360D01*
X153118Y142323D01*
X153295Y142282D01*
X153470Y142237D01*
X153645Y142187D01*
X153818Y142133D01*
X153989Y142075D01*
X154160Y142013D01*
X154328Y141946D01*
X154495Y141876D01*
X154661Y141802D01*
X154824Y141723D01*
X154985Y141641D01*
X155145Y141555D01*
X155302Y141465D01*
X155457Y141371D01*
X155610Y141274D01*
X155760Y141172D01*
X155908Y141068D01*
X156054Y140959D01*
X156196Y140848D01*
X156336Y140732D01*
X156473Y140614D01*
X156608Y140492D01*
X156739Y140367D01*
X156867Y140239D01*
X156992Y140108D01*
X157114Y139973D01*
X157232Y139836D01*
X157348Y139696D01*
X157459Y139554D01*
X157568Y139408D01*
X157672Y139260D01*
X157774Y139110D01*
X157871Y138957D01*
X157965Y138802D01*
X158055Y138645D01*
X158141Y138485D01*
X158223Y138324D01*
X158302Y138161D01*
X158376Y137995D01*
X158446Y137828D01*
X158513Y137660D01*
X158575Y137489D01*
X158633Y137318D01*
X158687Y137145D01*
X158737Y136970D01*
X158782Y136795D01*
X158823Y136618D01*
X158860Y136441D01*
X158893Y136263D01*
X158921Y136084D01*
X158945Y135904D01*
X158965Y135724D01*
X158980Y135543D01*
X158991Y135362D01*
X158998Y135181D01*
X159000Y135000D01*
X158998Y134819D01*
X158991Y134638D01*
X158980Y134457D01*
X158965Y134276D01*
X158945Y134096D01*
X158921Y133916D01*
X158893Y133737D01*
X158860Y133559D01*
X158823Y133382D01*
X158782Y133205D01*
X158737Y133030D01*
X158687Y132855D01*
X158633Y132682D01*
X158575Y132511D01*
X158513Y132340D01*
X158446Y132172D01*
X158376Y132005D01*
X158302Y131839D01*
X158223Y131676D01*
X158141Y131515D01*
X158055Y131355D01*
X157965Y131198D01*
X157871Y131043D01*
X157774Y130890D01*
X157672Y130740D01*
X157568Y130592D01*
X157459Y130446D01*
X157348Y130304D01*
X157232Y130164D01*
X157114Y130027D01*
X156992Y129892D01*
X156867Y129761D01*
X156739Y129633D01*
X156608Y129508D01*
X156473Y129386D01*
X156336Y129268D01*
X156196Y129152D01*
X156054Y129041D01*
X155908Y128932D01*
X155760Y128828D01*
X155610Y128726D01*
X155457Y128629D01*
X155302Y128535D01*
X155145Y128445D01*
X154985Y128359D01*
X154824Y128277D01*
X154661Y128198D01*
X154495Y128124D01*
X154328Y128054D01*
X154160Y127987D01*
X153989Y127925D01*
X153818Y127867D01*
X153645Y127813D01*
X153470Y127763D01*
X153295Y127718D01*
X153118Y127677D01*
X152941Y127640D01*
X152763Y127607D01*
X152584Y127579D01*
X152404Y127555D01*
X152224Y127535D01*
X152043Y127520D01*
X151862Y127509D01*
X151681Y127502D01*
X151500Y127500D01*
X151319Y127502D01*
X151138Y127509D01*
X150957Y127520D01*
X150776Y127535D01*
X150596Y127555D01*
X150416Y127579D01*
X150237Y127607D01*
X150059Y127640D01*
X149882Y127677D01*
X149705Y127718D01*
X149530Y127763D01*
X149355Y127813D01*
X149182Y127867D01*
X149011Y127925D01*
X148840Y127987D01*
X148672Y128054D01*
X148505Y128124D01*
X148339Y128198D01*
X148176Y128277D01*
X148015Y128359D01*
X147855Y128445D01*
X147698Y128535D01*
X147543Y128629D01*
X147390Y128726D01*
X147240Y128828D01*
X147092Y128932D01*
X146946Y129041D01*
X146804Y129152D01*
X146664Y129268D01*
X146527Y129386D01*
X146392Y129508D01*
X146261Y129633D01*
X146133Y129761D01*
X146008Y129892D01*
X145886Y130027D01*
X145768Y130164D01*
X145652Y130304D01*
X145541Y130446D01*
X145432Y130592D01*
X145328Y130740D01*
X145226Y130890D01*
X145129Y131043D01*
X145035Y131198D01*
X144945Y131355D01*
X144859Y131515D01*
X144777Y131676D01*
X144698Y131839D01*
X144624Y132005D01*
X144554Y132172D01*
X144487Y132340D01*
X144425Y132511D01*
X144367Y132682D01*
X144313Y132855D01*
X144263Y133030D01*
X144218Y133205D01*
X144177Y133382D01*
X144140Y133559D01*
X144107Y133737D01*
X144079Y133916D01*
X144055Y134096D01*
X144035Y134276D01*
X144020Y134457D01*
X144009Y134638D01*
X144002Y134819D01*
X144000Y135000D01*
D45*
X151500Y135000D03*
D44*
X1144000Y685000D02*
X1144002Y685181D01*
X1144009Y685362D01*
X1144020Y685543D01*
X1144035Y685724D01*
X1144055Y685904D01*
X1144079Y686084D01*
X1144107Y686263D01*
X1144140Y686441D01*
X1144177Y686618D01*
X1144218Y686795D01*
X1144263Y686970D01*
X1144313Y687145D01*
X1144367Y687318D01*
X1144425Y687489D01*
X1144487Y687660D01*
X1144554Y687828D01*
X1144624Y687995D01*
X1144698Y688161D01*
X1144777Y688324D01*
X1144859Y688485D01*
X1144945Y688645D01*
X1145035Y688802D01*
X1145129Y688957D01*
X1145226Y689110D01*
X1145328Y689260D01*
X1145432Y689408D01*
X1145541Y689554D01*
X1145652Y689696D01*
X1145768Y689836D01*
X1145886Y689973D01*
X1146008Y690108D01*
X1146133Y690239D01*
X1146261Y690367D01*
X1146392Y690492D01*
X1146527Y690614D01*
X1146664Y690732D01*
X1146804Y690848D01*
X1146946Y690959D01*
X1147092Y691068D01*
X1147240Y691172D01*
X1147390Y691274D01*
X1147543Y691371D01*
X1147698Y691465D01*
X1147855Y691555D01*
X1148015Y691641D01*
X1148176Y691723D01*
X1148339Y691802D01*
X1148505Y691876D01*
X1148672Y691946D01*
X1148840Y692013D01*
X1149011Y692075D01*
X1149182Y692133D01*
X1149355Y692187D01*
X1149530Y692237D01*
X1149705Y692282D01*
X1149882Y692323D01*
X1150059Y692360D01*
X1150237Y692393D01*
X1150416Y692421D01*
X1150596Y692445D01*
X1150776Y692465D01*
X1150957Y692480D01*
X1151138Y692491D01*
X1151319Y692498D01*
X1151500Y692500D01*
X1151681Y692498D01*
X1151862Y692491D01*
X1152043Y692480D01*
X1152224Y692465D01*
X1152404Y692445D01*
X1152584Y692421D01*
X1152763Y692393D01*
X1152941Y692360D01*
X1153118Y692323D01*
X1153295Y692282D01*
X1153470Y692237D01*
X1153645Y692187D01*
X1153818Y692133D01*
X1153989Y692075D01*
X1154160Y692013D01*
X1154328Y691946D01*
X1154495Y691876D01*
X1154661Y691802D01*
X1154824Y691723D01*
X1154985Y691641D01*
X1155145Y691555D01*
X1155302Y691465D01*
X1155457Y691371D01*
X1155610Y691274D01*
X1155760Y691172D01*
X1155908Y691068D01*
X1156054Y690959D01*
X1156196Y690848D01*
X1156336Y690732D01*
X1156473Y690614D01*
X1156608Y690492D01*
X1156739Y690367D01*
X1156867Y690239D01*
X1156992Y690108D01*
X1157114Y689973D01*
X1157232Y689836D01*
X1157348Y689696D01*
X1157459Y689554D01*
X1157568Y689408D01*
X1157672Y689260D01*
X1157774Y689110D01*
X1157871Y688957D01*
X1157965Y688802D01*
X1158055Y688645D01*
X1158141Y688485D01*
X1158223Y688324D01*
X1158302Y688161D01*
X1158376Y687995D01*
X1158446Y687828D01*
X1158513Y687660D01*
X1158575Y687489D01*
X1158633Y687318D01*
X1158687Y687145D01*
X1158737Y686970D01*
X1158782Y686795D01*
X1158823Y686618D01*
X1158860Y686441D01*
X1158893Y686263D01*
X1158921Y686084D01*
X1158945Y685904D01*
X1158965Y685724D01*
X1158980Y685543D01*
X1158991Y685362D01*
X1158998Y685181D01*
X1159000Y685000D01*
X1158998Y684819D01*
X1158991Y684638D01*
X1158980Y684457D01*
X1158965Y684276D01*
X1158945Y684096D01*
X1158921Y683916D01*
X1158893Y683737D01*
X1158860Y683559D01*
X1158823Y683382D01*
X1158782Y683205D01*
X1158737Y683030D01*
X1158687Y682855D01*
X1158633Y682682D01*
X1158575Y682511D01*
X1158513Y682340D01*
X1158446Y682172D01*
X1158376Y682005D01*
X1158302Y681839D01*
X1158223Y681676D01*
X1158141Y681515D01*
X1158055Y681355D01*
X1157965Y681198D01*
X1157871Y681043D01*
X1157774Y680890D01*
X1157672Y680740D01*
X1157568Y680592D01*
X1157459Y680446D01*
X1157348Y680304D01*
X1157232Y680164D01*
X1157114Y680027D01*
X1156992Y679892D01*
X1156867Y679761D01*
X1156739Y679633D01*
X1156608Y679508D01*
X1156473Y679386D01*
X1156336Y679268D01*
X1156196Y679152D01*
X1156054Y679041D01*
X1155908Y678932D01*
X1155760Y678828D01*
X1155610Y678726D01*
X1155457Y678629D01*
X1155302Y678535D01*
X1155145Y678445D01*
X1154985Y678359D01*
X1154824Y678277D01*
X1154661Y678198D01*
X1154495Y678124D01*
X1154328Y678054D01*
X1154160Y677987D01*
X1153989Y677925D01*
X1153818Y677867D01*
X1153645Y677813D01*
X1153470Y677763D01*
X1153295Y677718D01*
X1153118Y677677D01*
X1152941Y677640D01*
X1152763Y677607D01*
X1152584Y677579D01*
X1152404Y677555D01*
X1152224Y677535D01*
X1152043Y677520D01*
X1151862Y677509D01*
X1151681Y677502D01*
X1151500Y677500D01*
X1151319Y677502D01*
X1151138Y677509D01*
X1150957Y677520D01*
X1150776Y677535D01*
X1150596Y677555D01*
X1150416Y677579D01*
X1150237Y677607D01*
X1150059Y677640D01*
X1149882Y677677D01*
X1149705Y677718D01*
X1149530Y677763D01*
X1149355Y677813D01*
X1149182Y677867D01*
X1149011Y677925D01*
X1148840Y677987D01*
X1148672Y678054D01*
X1148505Y678124D01*
X1148339Y678198D01*
X1148176Y678277D01*
X1148015Y678359D01*
X1147855Y678445D01*
X1147698Y678535D01*
X1147543Y678629D01*
X1147390Y678726D01*
X1147240Y678828D01*
X1147092Y678932D01*
X1146946Y679041D01*
X1146804Y679152D01*
X1146664Y679268D01*
X1146527Y679386D01*
X1146392Y679508D01*
X1146261Y679633D01*
X1146133Y679761D01*
X1146008Y679892D01*
X1145886Y680027D01*
X1145768Y680164D01*
X1145652Y680304D01*
X1145541Y680446D01*
X1145432Y680592D01*
X1145328Y680740D01*
X1145226Y680890D01*
X1145129Y681043D01*
X1145035Y681198D01*
X1144945Y681355D01*
X1144859Y681515D01*
X1144777Y681676D01*
X1144698Y681839D01*
X1144624Y682005D01*
X1144554Y682172D01*
X1144487Y682340D01*
X1144425Y682511D01*
X1144367Y682682D01*
X1144313Y682855D01*
X1144263Y683030D01*
X1144218Y683205D01*
X1144177Y683382D01*
X1144140Y683559D01*
X1144107Y683737D01*
X1144079Y683916D01*
X1144055Y684096D01*
X1144035Y684276D01*
X1144020Y684457D01*
X1144009Y684638D01*
X1144002Y684819D01*
X1144000Y685000D01*
D45*
X1151500Y685000D03*
D44*
X915500Y576500D02*
X915319Y576498D01*
X915138Y576491D01*
X914957Y576480D01*
X914776Y576465D01*
X914596Y576445D01*
X914416Y576421D01*
X914237Y576393D01*
X914059Y576360D01*
X913882Y576323D01*
X913705Y576282D01*
X913530Y576237D01*
X913355Y576187D01*
X913182Y576133D01*
X913011Y576075D01*
X912840Y576013D01*
X912672Y575946D01*
X912505Y575876D01*
X912339Y575802D01*
X912176Y575723D01*
X912015Y575641D01*
X911855Y575555D01*
X911698Y575465D01*
X911543Y575371D01*
X911390Y575274D01*
X911240Y575172D01*
X911092Y575068D01*
X910946Y574959D01*
X910804Y574848D01*
X910664Y574732D01*
X910527Y574614D01*
X910392Y574492D01*
X910261Y574367D01*
X910133Y574239D01*
X910008Y574108D01*
X909886Y573973D01*
X909768Y573836D01*
X909652Y573696D01*
X909541Y573554D01*
X909432Y573408D01*
X909328Y573260D01*
X909226Y573110D01*
X909129Y572957D01*
X909035Y572802D01*
X908945Y572645D01*
X908859Y572485D01*
X908777Y572324D01*
X908698Y572161D01*
X908624Y571995D01*
X908554Y571828D01*
X908487Y571660D01*
X908425Y571489D01*
X908367Y571318D01*
X908313Y571145D01*
X908263Y570970D01*
X908218Y570795D01*
X908177Y570618D01*
X908140Y570441D01*
X908107Y570263D01*
X908079Y570084D01*
X908055Y569904D01*
X908035Y569724D01*
X908020Y569543D01*
X908009Y569362D01*
X908002Y569181D01*
X908000Y569000D01*
X915500Y576500D02*
X915681Y576498D01*
X915862Y576491D01*
X916043Y576480D01*
X916224Y576465D01*
X916404Y576445D01*
X916584Y576421D01*
X916763Y576393D01*
X916941Y576360D01*
X917118Y576323D01*
X917295Y576282D01*
X917470Y576237D01*
X917645Y576187D01*
X917818Y576133D01*
X917989Y576075D01*
X918160Y576013D01*
X918328Y575946D01*
X918495Y575876D01*
X918661Y575802D01*
X918824Y575723D01*
X918985Y575641D01*
X919145Y575555D01*
X919302Y575465D01*
X919457Y575371D01*
X919610Y575274D01*
X919760Y575172D01*
X919908Y575068D01*
X920054Y574959D01*
X920196Y574848D01*
X920336Y574732D01*
X920473Y574614D01*
X920608Y574492D01*
X920739Y574367D01*
X920867Y574239D01*
X920992Y574108D01*
X921114Y573973D01*
X921232Y573836D01*
X921348Y573696D01*
X921459Y573554D01*
X921568Y573408D01*
X921672Y573260D01*
X921774Y573110D01*
X921871Y572957D01*
X921965Y572802D01*
X922055Y572645D01*
X922141Y572485D01*
X922223Y572324D01*
X922302Y572161D01*
X922376Y571995D01*
X922446Y571828D01*
X922513Y571660D01*
X922575Y571489D01*
X922633Y571318D01*
X922687Y571145D01*
X922737Y570970D01*
X922782Y570795D01*
X922823Y570618D01*
X922860Y570441D01*
X922893Y570263D01*
X922921Y570084D01*
X922945Y569904D01*
X922965Y569724D01*
X922980Y569543D01*
X922991Y569362D01*
X922998Y569181D01*
X923000Y569000D01*
X922998Y568819D01*
X922991Y568638D01*
X922980Y568457D01*
X922965Y568276D01*
X922945Y568096D01*
X922921Y567916D01*
X922893Y567737D01*
X922860Y567559D01*
X922823Y567382D01*
X922782Y567205D01*
X922737Y567030D01*
X922687Y566855D01*
X922633Y566682D01*
X922575Y566511D01*
X922513Y566340D01*
X922446Y566172D01*
X922376Y566005D01*
X922302Y565839D01*
X922223Y565676D01*
X922141Y565515D01*
X922055Y565355D01*
X921965Y565198D01*
X921871Y565043D01*
X921774Y564890D01*
X921672Y564740D01*
X921568Y564592D01*
X921459Y564446D01*
X921348Y564304D01*
X921232Y564164D01*
X921114Y564027D01*
X920992Y563892D01*
X920867Y563761D01*
X920739Y563633D01*
X920608Y563508D01*
X920473Y563386D01*
X920336Y563268D01*
X920196Y563152D01*
X920054Y563041D01*
X919908Y562932D01*
X919760Y562828D01*
X919610Y562726D01*
X919457Y562629D01*
X919302Y562535D01*
X919145Y562445D01*
X918985Y562359D01*
X918824Y562277D01*
X918661Y562198D01*
X918495Y562124D01*
X918328Y562054D01*
X918160Y561987D01*
X917989Y561925D01*
X917818Y561867D01*
X917645Y561813D01*
X917470Y561763D01*
X917295Y561718D01*
X917118Y561677D01*
X916941Y561640D01*
X916763Y561607D01*
X916584Y561579D01*
X916404Y561555D01*
X916224Y561535D01*
X916043Y561520D01*
X915862Y561509D01*
X915681Y561502D01*
X915500Y561500D01*
X915319Y561502D01*
X915138Y561509D01*
X914957Y561520D01*
X914776Y561535D01*
X914596Y561555D01*
X914416Y561579D01*
X914237Y561607D01*
X914059Y561640D01*
X913882Y561677D01*
X913705Y561718D01*
X913530Y561763D01*
X913355Y561813D01*
X913182Y561867D01*
X913011Y561925D01*
X912840Y561987D01*
X912672Y562054D01*
X912505Y562124D01*
X912339Y562198D01*
X912176Y562277D01*
X912015Y562359D01*
X911855Y562445D01*
X911698Y562535D01*
X911543Y562629D01*
X911390Y562726D01*
X911240Y562828D01*
X911092Y562932D01*
X910946Y563041D01*
X910804Y563152D01*
X910664Y563268D01*
X910527Y563386D01*
X910392Y563508D01*
X910261Y563633D01*
X910133Y563761D01*
X910008Y563892D01*
X909886Y564027D01*
X909768Y564164D01*
X909652Y564304D01*
X909541Y564446D01*
X909432Y564592D01*
X909328Y564740D01*
X909226Y564890D01*
X909129Y565043D01*
X909035Y565198D01*
X908945Y565355D01*
X908859Y565515D01*
X908777Y565676D01*
X908698Y565839D01*
X908624Y566005D01*
X908554Y566172D01*
X908487Y566340D01*
X908425Y566511D01*
X908367Y566682D01*
X908313Y566855D01*
X908263Y567030D01*
X908218Y567205D01*
X908177Y567382D01*
X908140Y567559D01*
X908107Y567737D01*
X908079Y567916D01*
X908055Y568096D01*
X908035Y568276D01*
X908020Y568457D01*
X908009Y568638D01*
X908002Y568819D01*
X908000Y569000D01*
D45*
X915500Y569000D03*
D44*
X276500Y434500D02*
X276319Y434498D01*
X276138Y434491D01*
X275957Y434480D01*
X275776Y434465D01*
X275596Y434445D01*
X275416Y434421D01*
X275237Y434393D01*
X275059Y434360D01*
X274882Y434323D01*
X274705Y434282D01*
X274530Y434237D01*
X274355Y434187D01*
X274182Y434133D01*
X274011Y434075D01*
X273840Y434013D01*
X273672Y433946D01*
X273505Y433876D01*
X273339Y433802D01*
X273176Y433723D01*
X273015Y433641D01*
X272855Y433555D01*
X272698Y433465D01*
X272543Y433371D01*
X272390Y433274D01*
X272240Y433172D01*
X272092Y433068D01*
X271946Y432959D01*
X271804Y432848D01*
X271664Y432732D01*
X271527Y432614D01*
X271392Y432492D01*
X271261Y432367D01*
X271133Y432239D01*
X271008Y432108D01*
X270886Y431973D01*
X270768Y431836D01*
X270652Y431696D01*
X270541Y431554D01*
X270432Y431408D01*
X270328Y431260D01*
X270226Y431110D01*
X270129Y430957D01*
X270035Y430802D01*
X269945Y430645D01*
X269859Y430485D01*
X269777Y430324D01*
X269698Y430161D01*
X269624Y429995D01*
X269554Y429828D01*
X269487Y429660D01*
X269425Y429489D01*
X269367Y429318D01*
X269313Y429145D01*
X269263Y428970D01*
X269218Y428795D01*
X269177Y428618D01*
X269140Y428441D01*
X269107Y428263D01*
X269079Y428084D01*
X269055Y427904D01*
X269035Y427724D01*
X269020Y427543D01*
X269009Y427362D01*
X269002Y427181D01*
X269000Y427000D01*
X276500Y434500D02*
X276681Y434498D01*
X276862Y434491D01*
X277043Y434480D01*
X277224Y434465D01*
X277404Y434445D01*
X277584Y434421D01*
X277763Y434393D01*
X277941Y434360D01*
X278118Y434323D01*
X278295Y434282D01*
X278470Y434237D01*
X278645Y434187D01*
X278818Y434133D01*
X278989Y434075D01*
X279160Y434013D01*
X279328Y433946D01*
X279495Y433876D01*
X279661Y433802D01*
X279824Y433723D01*
X279985Y433641D01*
X280145Y433555D01*
X280302Y433465D01*
X280457Y433371D01*
X280610Y433274D01*
X280760Y433172D01*
X280908Y433068D01*
X281054Y432959D01*
X281196Y432848D01*
X281336Y432732D01*
X281473Y432614D01*
X281608Y432492D01*
X281739Y432367D01*
X281867Y432239D01*
X281992Y432108D01*
X282114Y431973D01*
X282232Y431836D01*
X282348Y431696D01*
X282459Y431554D01*
X282568Y431408D01*
X282672Y431260D01*
X282774Y431110D01*
X282871Y430957D01*
X282965Y430802D01*
X283055Y430645D01*
X283141Y430485D01*
X283223Y430324D01*
X283302Y430161D01*
X283376Y429995D01*
X283446Y429828D01*
X283513Y429660D01*
X283575Y429489D01*
X283633Y429318D01*
X283687Y429145D01*
X283737Y428970D01*
X283782Y428795D01*
X283823Y428618D01*
X283860Y428441D01*
X283893Y428263D01*
X283921Y428084D01*
X283945Y427904D01*
X283965Y427724D01*
X283980Y427543D01*
X283991Y427362D01*
X283998Y427181D01*
X284000Y427000D01*
X283998Y426819D01*
X283991Y426638D01*
X283980Y426457D01*
X283965Y426276D01*
X283945Y426096D01*
X283921Y425916D01*
X283893Y425737D01*
X283860Y425559D01*
X283823Y425382D01*
X283782Y425205D01*
X283737Y425030D01*
X283687Y424855D01*
X283633Y424682D01*
X283575Y424511D01*
X283513Y424340D01*
X283446Y424172D01*
X283376Y424005D01*
X283302Y423839D01*
X283223Y423676D01*
X283141Y423515D01*
X283055Y423355D01*
X282965Y423198D01*
X282871Y423043D01*
X282774Y422890D01*
X282672Y422740D01*
X282568Y422592D01*
X282459Y422446D01*
X282348Y422304D01*
X282232Y422164D01*
X282114Y422027D01*
X281992Y421892D01*
X281867Y421761D01*
X281739Y421633D01*
X281608Y421508D01*
X281473Y421386D01*
X281336Y421268D01*
X281196Y421152D01*
X281054Y421041D01*
X280908Y420932D01*
X280760Y420828D01*
X280610Y420726D01*
X280457Y420629D01*
X280302Y420535D01*
X280145Y420445D01*
X279985Y420359D01*
X279824Y420277D01*
X279661Y420198D01*
X279495Y420124D01*
X279328Y420054D01*
X279160Y419987D01*
X278989Y419925D01*
X278818Y419867D01*
X278645Y419813D01*
X278470Y419763D01*
X278295Y419718D01*
X278118Y419677D01*
X277941Y419640D01*
X277763Y419607D01*
X277584Y419579D01*
X277404Y419555D01*
X277224Y419535D01*
X277043Y419520D01*
X276862Y419509D01*
X276681Y419502D01*
X276500Y419500D01*
X276319Y419502D01*
X276138Y419509D01*
X275957Y419520D01*
X275776Y419535D01*
X275596Y419555D01*
X275416Y419579D01*
X275237Y419607D01*
X275059Y419640D01*
X274882Y419677D01*
X274705Y419718D01*
X274530Y419763D01*
X274355Y419813D01*
X274182Y419867D01*
X274011Y419925D01*
X273840Y419987D01*
X273672Y420054D01*
X273505Y420124D01*
X273339Y420198D01*
X273176Y420277D01*
X273015Y420359D01*
X272855Y420445D01*
X272698Y420535D01*
X272543Y420629D01*
X272390Y420726D01*
X272240Y420828D01*
X272092Y420932D01*
X271946Y421041D01*
X271804Y421152D01*
X271664Y421268D01*
X271527Y421386D01*
X271392Y421508D01*
X271261Y421633D01*
X271133Y421761D01*
X271008Y421892D01*
X270886Y422027D01*
X270768Y422164D01*
X270652Y422304D01*
X270541Y422446D01*
X270432Y422592D01*
X270328Y422740D01*
X270226Y422890D01*
X270129Y423043D01*
X270035Y423198D01*
X269945Y423355D01*
X269859Y423515D01*
X269777Y423676D01*
X269698Y423839D01*
X269624Y424005D01*
X269554Y424172D01*
X269487Y424340D01*
X269425Y424511D01*
X269367Y424682D01*
X269313Y424855D01*
X269263Y425030D01*
X269218Y425205D01*
X269177Y425382D01*
X269140Y425559D01*
X269107Y425737D01*
X269079Y425916D01*
X269055Y426096D01*
X269035Y426276D01*
X269020Y426457D01*
X269009Y426638D01*
X269002Y426819D01*
X269000Y427000D01*
D45*
X276500Y427000D03*
D31*
X929500Y738000D03*
X909500Y738000D03*
D32*
X953500Y760500D03*
X885500Y760500D03*
D25*
X796500Y380500D03*
X796500Y397500D03*
D12*
X862900Y1441600D03*
X888300Y1441600D03*
D13*
X913700Y1445000D03*
X939100Y1445000D03*
X964500Y1445000D03*
X989900Y1445000D03*
X1015300Y1445000D03*
X1040700Y1445000D03*
D12*
X1066100Y1441600D03*
X1091500Y1441600D03*
X1091500Y1492400D03*
X1066100Y1492400D03*
D13*
X1040700Y1489000D03*
X1015300Y1489000D03*
X989900Y1489000D03*
X964500Y1489000D03*
X939100Y1489000D03*
X913700Y1489000D03*
D12*
X888300Y1492400D03*
X862900Y1492400D03*
D14*
X875600Y1467000D03*
X1078800Y1467000D03*
D12*
X440100Y988400D03*
X414700Y988400D03*
D13*
X389300Y985000D03*
X363900Y985000D03*
X338500Y985000D03*
X313100Y985000D03*
X287700Y985000D03*
X262300Y985000D03*
D12*
X236900Y988400D03*
X211500Y988400D03*
X211500Y937600D03*
X236900Y937600D03*
D13*
X262300Y941000D03*
X287700Y941000D03*
X313100Y941000D03*
X338500Y941000D03*
X363900Y941000D03*
X389300Y941000D03*
D12*
X414700Y937600D03*
X440100Y937600D03*
D14*
X427400Y963000D03*
X224200Y963000D03*
D15*
X275325Y1327035D02*
X290847Y1327035D01*
X275325Y1327035D02*
X275325Y1330557D01*
X290847Y1330557D01*
X290847Y1327035D01*
X143547Y1337195D02*
X128025Y1337195D01*
X128025Y1340717D01*
X143547Y1340717D01*
X143547Y1337195D01*
X143547Y1347355D02*
X128025Y1347355D01*
X128025Y1350877D01*
X143547Y1350877D01*
X143547Y1347355D01*
X143547Y1357515D02*
X128025Y1357515D01*
X128025Y1361037D01*
X143547Y1361037D01*
X143547Y1357515D01*
X143547Y1367675D02*
X128025Y1367675D01*
X128025Y1371197D01*
X143547Y1371197D01*
X143547Y1367675D01*
X143547Y1377835D02*
X128025Y1377835D01*
X128025Y1381357D01*
X143547Y1381357D01*
X143547Y1377835D01*
X143547Y1387995D02*
X128025Y1387995D01*
X128025Y1391517D01*
X143547Y1391517D01*
X143547Y1387995D01*
X143547Y1398155D02*
X128025Y1398155D01*
X128025Y1401677D01*
X143547Y1401677D01*
X143547Y1398155D01*
X143547Y1408315D02*
X128025Y1408315D01*
X128025Y1411837D01*
X143547Y1411837D01*
X143547Y1408315D01*
X143547Y1418475D02*
X128025Y1418475D01*
X128025Y1421997D01*
X143547Y1421997D01*
X143547Y1418475D01*
X143547Y1428635D02*
X128025Y1428635D01*
X128025Y1432157D01*
X143547Y1432157D01*
X143547Y1428635D01*
X275325Y1337195D02*
X290847Y1337195D01*
X275325Y1337195D02*
X275325Y1340717D01*
X290847Y1340717D01*
X290847Y1337195D01*
X290847Y1347355D02*
X275325Y1347355D01*
X275325Y1350877D01*
X290847Y1350877D01*
X290847Y1347355D01*
X290847Y1357515D02*
X275325Y1357515D01*
X275325Y1361037D01*
X290847Y1361037D01*
X290847Y1357515D01*
X290847Y1398155D02*
X275325Y1398155D01*
X275325Y1401677D01*
X290847Y1401677D01*
X290847Y1398155D01*
X290847Y1418475D02*
X275325Y1418475D01*
X275325Y1421997D01*
X290847Y1421997D01*
X290847Y1418475D01*
X290847Y1428635D02*
X275325Y1428635D01*
X275325Y1432157D01*
X290847Y1432157D01*
X290847Y1428635D01*
X290847Y1438795D02*
X275325Y1438795D01*
X275325Y1442317D01*
X290847Y1442317D01*
X290847Y1438795D01*
X290847Y1448955D02*
X275325Y1448955D01*
X275325Y1452477D01*
X290847Y1452477D01*
X290847Y1448955D01*
X156547Y1309857D02*
X156547Y1294335D01*
X153025Y1294335D01*
X153025Y1309857D01*
X156547Y1309857D01*
X156547Y1299569D02*
X153025Y1299569D01*
X153025Y1304803D02*
X156547Y1304803D01*
X187027Y1309857D02*
X187027Y1294335D01*
X183505Y1294335D01*
X183505Y1309857D01*
X187027Y1309857D01*
X187027Y1299569D02*
X183505Y1299569D01*
X183505Y1304803D02*
X187027Y1304803D01*
X197187Y1309857D02*
X197187Y1294335D01*
X193665Y1294335D01*
X193665Y1309857D01*
X197187Y1309857D01*
X197187Y1299569D02*
X193665Y1299569D01*
X193665Y1304803D02*
X197187Y1304803D01*
X207347Y1309857D02*
X207347Y1294335D01*
X203825Y1294335D01*
X203825Y1309857D01*
X207347Y1309857D01*
X207347Y1299569D02*
X203825Y1299569D01*
X203825Y1304803D02*
X207347Y1304803D01*
X217507Y1309857D02*
X217507Y1294335D01*
X213985Y1294335D01*
X213985Y1309857D01*
X217507Y1309857D01*
X217507Y1299569D02*
X213985Y1299569D01*
X213985Y1304803D02*
X217507Y1304803D01*
X227667Y1309857D02*
X227667Y1294335D01*
X224145Y1294335D01*
X224145Y1309857D01*
X227667Y1309857D01*
X227667Y1299569D02*
X224145Y1299569D01*
X224145Y1304803D02*
X227667Y1304803D01*
X237827Y1309857D02*
X237827Y1294335D01*
X234305Y1294335D01*
X234305Y1309857D01*
X237827Y1309857D01*
X237827Y1299569D02*
X234305Y1299569D01*
X234305Y1304803D02*
X237827Y1304803D01*
X247987Y1309857D02*
X247987Y1294335D01*
X244465Y1294335D01*
X244465Y1309857D01*
X247987Y1309857D01*
X247987Y1299569D02*
X244465Y1299569D01*
X244465Y1304803D02*
X247987Y1304803D01*
X258147Y1309857D02*
X258147Y1294335D01*
X254625Y1294335D01*
X254625Y1309857D01*
X258147Y1309857D01*
X258147Y1299569D02*
X254625Y1299569D01*
X254625Y1304803D02*
X258147Y1304803D01*
D16*
X204586Y1364796D03*
D17*
X364512Y1253260D03*
X379512Y1253260D03*
X394512Y1253260D03*
X409512Y1253260D03*
X424512Y1253260D03*
X439512Y1253260D03*
X454512Y1253260D03*
X469512Y1253260D03*
X484512Y1253260D03*
X499512Y1253260D03*
X499512Y1413260D03*
X484512Y1413260D03*
X469512Y1413260D03*
X454512Y1413260D03*
X439512Y1413260D03*
X424512Y1413260D03*
X409512Y1413260D03*
X394512Y1413260D03*
X379512Y1413260D03*
X364512Y1413260D03*
D18*
X424012Y1335260D03*
D19*
X335256Y1297577D02*
X335256Y1287395D01*
X335256Y1297577D02*
X338912Y1297577D01*
X338912Y1287395D01*
X335256Y1287395D01*
X335256Y1291640D02*
X338912Y1291640D01*
X338912Y1295885D02*
X335256Y1295885D01*
X325756Y1297577D02*
X325756Y1287395D01*
X325756Y1297577D02*
X329412Y1297577D01*
X329412Y1287395D01*
X325756Y1287395D01*
X325756Y1291640D02*
X329412Y1291640D01*
X329412Y1295885D02*
X325756Y1295885D01*
X316256Y1297577D02*
X316256Y1287395D01*
X316256Y1297577D02*
X319912Y1297577D01*
X319912Y1287395D01*
X316256Y1287395D01*
X316256Y1291640D02*
X319912Y1291640D01*
X319912Y1295885D02*
X316256Y1295885D01*
X316256Y1274077D02*
X316256Y1263895D01*
X316256Y1274077D02*
X319912Y1274077D01*
X319912Y1263895D01*
X316256Y1263895D01*
X316256Y1268140D02*
X319912Y1268140D01*
X319912Y1272385D02*
X316256Y1272385D01*
X335256Y1274077D02*
X335256Y1263895D01*
X335256Y1274077D02*
X338912Y1274077D01*
X338912Y1263895D01*
X335256Y1263895D01*
X335256Y1268140D02*
X338912Y1268140D01*
X338912Y1272385D02*
X335256Y1272385D01*
X187777Y1262768D02*
X177595Y1262768D01*
X177595Y1266424D01*
X187777Y1266424D01*
X187777Y1262768D01*
X187777Y1253268D02*
X177595Y1253268D01*
X177595Y1256924D01*
X187777Y1256924D01*
X187777Y1253268D01*
X187777Y1243768D02*
X177595Y1243768D01*
X177595Y1247424D01*
X187777Y1247424D01*
X187777Y1243768D01*
X201095Y1243768D02*
X211277Y1243768D01*
X201095Y1243768D02*
X201095Y1247424D01*
X211277Y1247424D01*
X211277Y1243768D01*
X211277Y1262768D02*
X201095Y1262768D01*
X201095Y1266424D01*
X211277Y1266424D01*
X211277Y1262768D01*
D20*
X225686Y1269096D03*
X253186Y1269096D03*
X337334Y1251736D03*
X309834Y1251736D03*
D21*
X221686Y1241096D03*
X239186Y1241096D03*
X304334Y1268736D03*
X286834Y1268736D03*
X221686Y1254096D03*
X239186Y1254096D03*
X337334Y1236736D03*
X319834Y1236736D03*
D22*
X773750Y1328348D03*
X773750Y1379212D03*
X786450Y1328348D03*
X799150Y1328348D03*
X786450Y1379212D03*
X799150Y1379212D03*
X811850Y1328348D03*
X811850Y1379212D03*
D23*
X737310Y1277580D03*
X754310Y1277580D03*
X737310Y1313140D03*
X754310Y1313140D03*
D24*
X765241Y1306191D02*
X777359Y1306191D01*
X765241Y1306191D02*
X765241Y1309109D01*
X777359Y1309109D01*
X777359Y1306191D01*
X777359Y1299691D02*
X765241Y1299691D01*
X765241Y1302609D01*
X777359Y1302609D01*
X777359Y1299691D01*
X777359Y1293191D02*
X765241Y1293191D01*
X765241Y1296109D01*
X777359Y1296109D01*
X777359Y1293191D01*
X777359Y1286691D02*
X765241Y1286691D01*
X765241Y1289609D01*
X777359Y1289609D01*
X777359Y1286691D01*
X808241Y1286691D02*
X820359Y1286691D01*
X808241Y1286691D02*
X808241Y1289609D01*
X820359Y1289609D01*
X820359Y1286691D01*
X820359Y1293191D02*
X808241Y1293191D01*
X808241Y1296109D01*
X820359Y1296109D01*
X820359Y1293191D01*
X820359Y1299691D02*
X808241Y1299691D01*
X808241Y1302609D01*
X820359Y1302609D01*
X820359Y1299691D01*
X820359Y1306191D02*
X808241Y1306191D01*
X808241Y1309109D01*
X820359Y1309109D01*
X820359Y1306191D01*
D23*
X837640Y1287740D03*
X854640Y1287740D03*
X754310Y1379180D03*
X737310Y1379180D03*
X837640Y1384260D03*
X854640Y1384260D03*
X854640Y1329650D03*
X837640Y1329650D03*
D25*
X876620Y1348310D03*
X876620Y1331310D03*
D19*
X669692Y1374667D02*
X669692Y1384849D01*
X673348Y1384849D01*
X673348Y1374667D01*
X669692Y1374667D01*
X669692Y1378912D02*
X673348Y1378912D01*
X673348Y1383157D02*
X669692Y1383157D01*
X660192Y1384849D02*
X660192Y1374667D01*
X660192Y1384849D02*
X663848Y1384849D01*
X663848Y1374667D01*
X660192Y1374667D01*
X660192Y1378912D02*
X663848Y1378912D01*
X663848Y1383157D02*
X660192Y1383157D01*
X650692Y1384849D02*
X650692Y1374667D01*
X650692Y1384849D02*
X654348Y1384849D01*
X654348Y1374667D01*
X650692Y1374667D01*
X650692Y1378912D02*
X654348Y1378912D01*
X654348Y1383157D02*
X650692Y1383157D01*
X650692Y1361349D02*
X650692Y1351167D01*
X650692Y1361349D02*
X654348Y1361349D01*
X654348Y1351167D01*
X650692Y1351167D01*
X650692Y1355412D02*
X654348Y1355412D01*
X654348Y1359657D02*
X650692Y1359657D01*
X669692Y1361349D02*
X669692Y1351167D01*
X669692Y1361349D02*
X673348Y1361349D01*
X673348Y1351167D01*
X669692Y1351167D01*
X669692Y1355412D02*
X673348Y1355412D01*
X673348Y1359657D02*
X669692Y1359657D01*
D20*
X680094Y1339984D03*
X707594Y1339984D03*
D21*
X652346Y1340364D03*
X634846Y1340364D03*
X676078Y1323636D03*
X693578Y1323636D03*
D26*
X401436Y1589176D03*
X341436Y1589176D03*
D27*
X371436Y1575626D03*
X381436Y1575626D03*
X361436Y1575626D03*
D28*
X386436Y1589176D03*
X356436Y1589176D03*
D23*
X632560Y1394816D03*
X649560Y1394816D03*
D29*
X567298Y1473833D03*
X592190Y1473833D03*
D30*
X573394Y1437257D03*
X560694Y1437257D03*
X586094Y1437257D03*
X598794Y1437257D03*
D29*
X693686Y1473833D03*
X718578Y1473833D03*
D30*
X699782Y1437257D03*
X687082Y1437257D03*
X712482Y1437257D03*
X725182Y1437257D03*
D31*
X757760Y1535000D03*
X737760Y1535000D03*
D32*
X781760Y1557500D03*
X713760Y1557500D03*
D31*
X561500Y1535000D03*
X541500Y1535000D03*
D32*
X585500Y1557500D03*
X517500Y1557500D03*
D33*
X246910Y1137358D02*
X246910Y1135546D01*
X246910Y1137358D02*
X255722Y1137358D01*
X255722Y1135546D01*
X246910Y1135546D01*
X246910Y1132358D02*
X246910Y1130546D01*
X246910Y1132358D02*
X255722Y1132358D01*
X255722Y1130546D01*
X246910Y1130546D01*
X246910Y1140546D02*
X246910Y1142358D01*
X255722Y1142358D01*
X255722Y1140546D01*
X246910Y1140546D01*
X246910Y1145546D02*
X246910Y1147358D01*
X255722Y1147358D01*
X255722Y1145546D01*
X246910Y1145546D01*
X246910Y1150546D02*
X246910Y1152358D01*
X255722Y1152358D01*
X255722Y1150546D01*
X246910Y1150546D01*
X246910Y1155546D02*
X246910Y1157358D01*
X255722Y1157358D01*
X255722Y1155546D01*
X246910Y1155546D01*
X246910Y1160546D02*
X246910Y1162358D01*
X255722Y1162358D01*
X255722Y1160546D01*
X246910Y1160546D01*
X246910Y1165546D02*
X246910Y1167358D01*
X255722Y1167358D01*
X255722Y1165546D01*
X246910Y1165546D01*
D34*
X251316Y1171452D03*
D33*
X246910Y1127358D02*
X246910Y1125546D01*
X246910Y1127358D02*
X255722Y1127358D01*
X255722Y1125546D01*
X246910Y1125546D01*
X246910Y1122358D02*
X246910Y1120546D01*
X246910Y1122358D02*
X255722Y1122358D01*
X255722Y1120546D01*
X246910Y1120546D01*
X246910Y1117358D02*
X246910Y1115546D01*
X246910Y1117358D02*
X255722Y1117358D01*
X255722Y1115546D01*
X246910Y1115546D01*
X246910Y1112358D02*
X246910Y1110546D01*
X246910Y1112358D02*
X255722Y1112358D01*
X255722Y1110546D01*
X246910Y1110546D01*
X246910Y1107358D02*
X246910Y1105546D01*
X246910Y1107358D02*
X255722Y1107358D01*
X255722Y1105546D01*
X246910Y1105546D01*
X246910Y1102358D02*
X246910Y1100546D01*
X246910Y1102358D02*
X255722Y1102358D01*
X255722Y1100546D01*
X246910Y1100546D01*
X246910Y1097358D02*
X246910Y1095546D01*
X246910Y1097358D02*
X255722Y1097358D01*
X255722Y1095546D01*
X246910Y1095546D01*
D35*
X224316Y1073452D03*
X224316Y1194452D03*
D33*
X349018Y1137358D02*
X349018Y1135546D01*
X349018Y1137358D02*
X357830Y1137358D01*
X357830Y1135546D01*
X349018Y1135546D01*
X349018Y1132358D02*
X349018Y1130546D01*
X349018Y1132358D02*
X357830Y1132358D01*
X357830Y1130546D01*
X349018Y1130546D01*
X349018Y1140546D02*
X349018Y1142358D01*
X357830Y1142358D01*
X357830Y1140546D01*
X349018Y1140546D01*
X349018Y1145546D02*
X349018Y1147358D01*
X357830Y1147358D01*
X357830Y1145546D01*
X349018Y1145546D01*
X349018Y1150546D02*
X349018Y1152358D01*
X357830Y1152358D01*
X357830Y1150546D01*
X349018Y1150546D01*
X349018Y1155546D02*
X349018Y1157358D01*
X357830Y1157358D01*
X357830Y1155546D01*
X349018Y1155546D01*
X349018Y1160546D02*
X349018Y1162358D01*
X357830Y1162358D01*
X357830Y1160546D01*
X349018Y1160546D01*
X349018Y1165546D02*
X349018Y1167358D01*
X357830Y1167358D01*
X357830Y1165546D01*
X349018Y1165546D01*
D34*
X353424Y1171452D03*
D33*
X349018Y1127358D02*
X349018Y1125546D01*
X349018Y1127358D02*
X357830Y1127358D01*
X357830Y1125546D01*
X349018Y1125546D01*
X349018Y1122358D02*
X349018Y1120546D01*
X349018Y1122358D02*
X357830Y1122358D01*
X357830Y1120546D01*
X349018Y1120546D01*
X349018Y1117358D02*
X349018Y1115546D01*
X349018Y1117358D02*
X357830Y1117358D01*
X357830Y1115546D01*
X349018Y1115546D01*
X349018Y1112358D02*
X349018Y1110546D01*
X349018Y1112358D02*
X357830Y1112358D01*
X357830Y1110546D01*
X349018Y1110546D01*
X349018Y1107358D02*
X349018Y1105546D01*
X349018Y1107358D02*
X357830Y1107358D01*
X357830Y1105546D01*
X349018Y1105546D01*
X349018Y1102358D02*
X349018Y1100546D01*
X349018Y1102358D02*
X357830Y1102358D01*
X357830Y1100546D01*
X349018Y1100546D01*
X349018Y1097358D02*
X349018Y1095546D01*
X349018Y1097358D02*
X357830Y1097358D01*
X357830Y1095546D01*
X349018Y1095546D01*
D35*
X326424Y1073452D03*
X326424Y1194452D03*
D36*
X664350Y1084700D03*
X677050Y1084700D03*
X689750Y1084700D03*
X702450Y1084700D03*
X715150Y1084700D03*
X727850Y1084700D03*
X740550Y1084700D03*
X753250Y1084700D03*
X765950Y1084700D03*
X778650Y1084700D03*
X778650Y1072000D03*
X765950Y1072000D03*
X753250Y1072000D03*
X740550Y1072000D03*
X727850Y1072000D03*
X715150Y1072000D03*
X702450Y1072000D03*
X689750Y1072000D03*
X677050Y1072000D03*
X664350Y1072000D03*
D37*
X639400Y1027500D03*
X803600Y1027500D03*
X803600Y1076500D03*
X639400Y1076500D03*
D38*
X642250Y1052000D03*
X800750Y1052000D03*
D39*
X832250Y1360000D03*
X832250Y1356000D03*
X832250Y1352000D03*
X832250Y1348000D03*
X832250Y1344000D03*
X856750Y1344000D03*
X856750Y1348000D03*
X856750Y1352000D03*
X856750Y1356000D03*
X856750Y1360000D03*
D40*
X844500Y1352000D03*
D41*
X553250Y1398000D03*
X523750Y1398000D03*
D42*
X538500Y1413250D03*
D43*
X319000Y1330000D03*
X338000Y1330000D03*
D23*
X268000Y1207000D03*
X251000Y1207000D03*
X364000Y1217000D03*
X347000Y1217000D03*
X1028000Y1382000D03*
X1045000Y1382000D03*
X308000Y1029000D03*
X325000Y1029000D03*
X277000Y1029000D03*
X260000Y1029000D03*
D14*
X1061090Y1235800D03*
X1061090Y1134200D03*
D44*
X151500Y942500D02*
X151319Y942498D01*
X151138Y942491D01*
X150957Y942480D01*
X150776Y942465D01*
X150596Y942445D01*
X150416Y942421D01*
X150237Y942393D01*
X150059Y942360D01*
X149882Y942323D01*
X149705Y942282D01*
X149530Y942237D01*
X149355Y942187D01*
X149182Y942133D01*
X149011Y942075D01*
X148840Y942013D01*
X148672Y941946D01*
X148505Y941876D01*
X148339Y941802D01*
X148176Y941723D01*
X148015Y941641D01*
X147855Y941555D01*
X147698Y941465D01*
X147543Y941371D01*
X147390Y941274D01*
X147240Y941172D01*
X147092Y941068D01*
X146946Y940959D01*
X146804Y940848D01*
X146664Y940732D01*
X146527Y940614D01*
X146392Y940492D01*
X146261Y940367D01*
X146133Y940239D01*
X146008Y940108D01*
X145886Y939973D01*
X145768Y939836D01*
X145652Y939696D01*
X145541Y939554D01*
X145432Y939408D01*
X145328Y939260D01*
X145226Y939110D01*
X145129Y938957D01*
X145035Y938802D01*
X144945Y938645D01*
X144859Y938485D01*
X144777Y938324D01*
X144698Y938161D01*
X144624Y937995D01*
X144554Y937828D01*
X144487Y937660D01*
X144425Y937489D01*
X144367Y937318D01*
X144313Y937145D01*
X144263Y936970D01*
X144218Y936795D01*
X144177Y936618D01*
X144140Y936441D01*
X144107Y936263D01*
X144079Y936084D01*
X144055Y935904D01*
X144035Y935724D01*
X144020Y935543D01*
X144009Y935362D01*
X144002Y935181D01*
X144000Y935000D01*
X151500Y942500D02*
X151681Y942498D01*
X151862Y942491D01*
X152043Y942480D01*
X152224Y942465D01*
X152404Y942445D01*
X152584Y942421D01*
X152763Y942393D01*
X152941Y942360D01*
X153118Y942323D01*
X153295Y942282D01*
X153470Y942237D01*
X153645Y942187D01*
X153818Y942133D01*
X153989Y942075D01*
X154160Y942013D01*
X154328Y941946D01*
X154495Y941876D01*
X154661Y941802D01*
X154824Y941723D01*
X154985Y941641D01*
X155145Y941555D01*
X155302Y941465D01*
X155457Y941371D01*
X155610Y941274D01*
X155760Y941172D01*
X155908Y941068D01*
X156054Y940959D01*
X156196Y940848D01*
X156336Y940732D01*
X156473Y940614D01*
X156608Y940492D01*
X156739Y940367D01*
X156867Y940239D01*
X156992Y940108D01*
X157114Y939973D01*
X157232Y939836D01*
X157348Y939696D01*
X157459Y939554D01*
X157568Y939408D01*
X157672Y939260D01*
X157774Y939110D01*
X157871Y938957D01*
X157965Y938802D01*
X158055Y938645D01*
X158141Y938485D01*
X158223Y938324D01*
X158302Y938161D01*
X158376Y937995D01*
X158446Y937828D01*
X158513Y937660D01*
X158575Y937489D01*
X158633Y937318D01*
X158687Y937145D01*
X158737Y936970D01*
X158782Y936795D01*
X158823Y936618D01*
X158860Y936441D01*
X158893Y936263D01*
X158921Y936084D01*
X158945Y935904D01*
X158965Y935724D01*
X158980Y935543D01*
X158991Y935362D01*
X158998Y935181D01*
X159000Y935000D01*
X158998Y934819D01*
X158991Y934638D01*
X158980Y934457D01*
X158965Y934276D01*
X158945Y934096D01*
X158921Y933916D01*
X158893Y933737D01*
X158860Y933559D01*
X158823Y933382D01*
X158782Y933205D01*
X158737Y933030D01*
X158687Y932855D01*
X158633Y932682D01*
X158575Y932511D01*
X158513Y932340D01*
X158446Y932172D01*
X158376Y932005D01*
X158302Y931839D01*
X158223Y931676D01*
X158141Y931515D01*
X158055Y931355D01*
X157965Y931198D01*
X157871Y931043D01*
X157774Y930890D01*
X157672Y930740D01*
X157568Y930592D01*
X157459Y930446D01*
X157348Y930304D01*
X157232Y930164D01*
X157114Y930027D01*
X156992Y929892D01*
X156867Y929761D01*
X156739Y929633D01*
X156608Y929508D01*
X156473Y929386D01*
X156336Y929268D01*
X156196Y929152D01*
X156054Y929041D01*
X155908Y928932D01*
X155760Y928828D01*
X155610Y928726D01*
X155457Y928629D01*
X155302Y928535D01*
X155145Y928445D01*
X154985Y928359D01*
X154824Y928277D01*
X154661Y928198D01*
X154495Y928124D01*
X154328Y928054D01*
X154160Y927987D01*
X153989Y927925D01*
X153818Y927867D01*
X153645Y927813D01*
X153470Y927763D01*
X153295Y927718D01*
X153118Y927677D01*
X152941Y927640D01*
X152763Y927607D01*
X152584Y927579D01*
X152404Y927555D01*
X152224Y927535D01*
X152043Y927520D01*
X151862Y927509D01*
X151681Y927502D01*
X151500Y927500D01*
X151319Y927502D01*
X151138Y927509D01*
X150957Y927520D01*
X150776Y927535D01*
X150596Y927555D01*
X150416Y927579D01*
X150237Y927607D01*
X150059Y927640D01*
X149882Y927677D01*
X149705Y927718D01*
X149530Y927763D01*
X149355Y927813D01*
X149182Y927867D01*
X149011Y927925D01*
X148840Y927987D01*
X148672Y928054D01*
X148505Y928124D01*
X148339Y928198D01*
X148176Y928277D01*
X148015Y928359D01*
X147855Y928445D01*
X147698Y928535D01*
X147543Y928629D01*
X147390Y928726D01*
X147240Y928828D01*
X147092Y928932D01*
X146946Y929041D01*
X146804Y929152D01*
X146664Y929268D01*
X146527Y929386D01*
X146392Y929508D01*
X146261Y929633D01*
X146133Y929761D01*
X146008Y929892D01*
X145886Y930027D01*
X145768Y930164D01*
X145652Y930304D01*
X145541Y930446D01*
X145432Y930592D01*
X145328Y930740D01*
X145226Y930890D01*
X145129Y931043D01*
X145035Y931198D01*
X144945Y931355D01*
X144859Y931515D01*
X144777Y931676D01*
X144698Y931839D01*
X144624Y932005D01*
X144554Y932172D01*
X144487Y932340D01*
X144425Y932511D01*
X144367Y932682D01*
X144313Y932855D01*
X144263Y933030D01*
X144218Y933205D01*
X144177Y933382D01*
X144140Y933559D01*
X144107Y933737D01*
X144079Y933916D01*
X144055Y934096D01*
X144035Y934276D01*
X144020Y934457D01*
X144009Y934638D01*
X144002Y934819D01*
X144000Y935000D01*
D45*
X151500Y935000D03*
D44*
X1144000Y1485000D02*
X1144002Y1485181D01*
X1144009Y1485362D01*
X1144020Y1485543D01*
X1144035Y1485724D01*
X1144055Y1485904D01*
X1144079Y1486084D01*
X1144107Y1486263D01*
X1144140Y1486441D01*
X1144177Y1486618D01*
X1144218Y1486795D01*
X1144263Y1486970D01*
X1144313Y1487145D01*
X1144367Y1487318D01*
X1144425Y1487489D01*
X1144487Y1487660D01*
X1144554Y1487828D01*
X1144624Y1487995D01*
X1144698Y1488161D01*
X1144777Y1488324D01*
X1144859Y1488485D01*
X1144945Y1488645D01*
X1145035Y1488802D01*
X1145129Y1488957D01*
X1145226Y1489110D01*
X1145328Y1489260D01*
X1145432Y1489408D01*
X1145541Y1489554D01*
X1145652Y1489696D01*
X1145768Y1489836D01*
X1145886Y1489973D01*
X1146008Y1490108D01*
X1146133Y1490239D01*
X1146261Y1490367D01*
X1146392Y1490492D01*
X1146527Y1490614D01*
X1146664Y1490732D01*
X1146804Y1490848D01*
X1146946Y1490959D01*
X1147092Y1491068D01*
X1147240Y1491172D01*
X1147390Y1491274D01*
X1147543Y1491371D01*
X1147698Y1491465D01*
X1147855Y1491555D01*
X1148015Y1491641D01*
X1148176Y1491723D01*
X1148339Y1491802D01*
X1148505Y1491876D01*
X1148672Y1491946D01*
X1148840Y1492013D01*
X1149011Y1492075D01*
X1149182Y1492133D01*
X1149355Y1492187D01*
X1149530Y1492237D01*
X1149705Y1492282D01*
X1149882Y1492323D01*
X1150059Y1492360D01*
X1150237Y1492393D01*
X1150416Y1492421D01*
X1150596Y1492445D01*
X1150776Y1492465D01*
X1150957Y1492480D01*
X1151138Y1492491D01*
X1151319Y1492498D01*
X1151500Y1492500D01*
X1151681Y1492498D01*
X1151862Y1492491D01*
X1152043Y1492480D01*
X1152224Y1492465D01*
X1152404Y1492445D01*
X1152584Y1492421D01*
X1152763Y1492393D01*
X1152941Y1492360D01*
X1153118Y1492323D01*
X1153295Y1492282D01*
X1153470Y1492237D01*
X1153645Y1492187D01*
X1153818Y1492133D01*
X1153989Y1492075D01*
X1154160Y1492013D01*
X1154328Y1491946D01*
X1154495Y1491876D01*
X1154661Y1491802D01*
X1154824Y1491723D01*
X1154985Y1491641D01*
X1155145Y1491555D01*
X1155302Y1491465D01*
X1155457Y1491371D01*
X1155610Y1491274D01*
X1155760Y1491172D01*
X1155908Y1491068D01*
X1156054Y1490959D01*
X1156196Y1490848D01*
X1156336Y1490732D01*
X1156473Y1490614D01*
X1156608Y1490492D01*
X1156739Y1490367D01*
X1156867Y1490239D01*
X1156992Y1490108D01*
X1157114Y1489973D01*
X1157232Y1489836D01*
X1157348Y1489696D01*
X1157459Y1489554D01*
X1157568Y1489408D01*
X1157672Y1489260D01*
X1157774Y1489110D01*
X1157871Y1488957D01*
X1157965Y1488802D01*
X1158055Y1488645D01*
X1158141Y1488485D01*
X1158223Y1488324D01*
X1158302Y1488161D01*
X1158376Y1487995D01*
X1158446Y1487828D01*
X1158513Y1487660D01*
X1158575Y1487489D01*
X1158633Y1487318D01*
X1158687Y1487145D01*
X1158737Y1486970D01*
X1158782Y1486795D01*
X1158823Y1486618D01*
X1158860Y1486441D01*
X1158893Y1486263D01*
X1158921Y1486084D01*
X1158945Y1485904D01*
X1158965Y1485724D01*
X1158980Y1485543D01*
X1158991Y1485362D01*
X1158998Y1485181D01*
X1159000Y1485000D01*
X1158998Y1484819D01*
X1158991Y1484638D01*
X1158980Y1484457D01*
X1158965Y1484276D01*
X1158945Y1484096D01*
X1158921Y1483916D01*
X1158893Y1483737D01*
X1158860Y1483559D01*
X1158823Y1483382D01*
X1158782Y1483205D01*
X1158737Y1483030D01*
X1158687Y1482855D01*
X1158633Y1482682D01*
X1158575Y1482511D01*
X1158513Y1482340D01*
X1158446Y1482172D01*
X1158376Y1482005D01*
X1158302Y1481839D01*
X1158223Y1481676D01*
X1158141Y1481515D01*
X1158055Y1481355D01*
X1157965Y1481198D01*
X1157871Y1481043D01*
X1157774Y1480890D01*
X1157672Y1480740D01*
X1157568Y1480592D01*
X1157459Y1480446D01*
X1157348Y1480304D01*
X1157232Y1480164D01*
X1157114Y1480027D01*
X1156992Y1479892D01*
X1156867Y1479761D01*
X1156739Y1479633D01*
X1156608Y1479508D01*
X1156473Y1479386D01*
X1156336Y1479268D01*
X1156196Y1479152D01*
X1156054Y1479041D01*
X1155908Y1478932D01*
X1155760Y1478828D01*
X1155610Y1478726D01*
X1155457Y1478629D01*
X1155302Y1478535D01*
X1155145Y1478445D01*
X1154985Y1478359D01*
X1154824Y1478277D01*
X1154661Y1478198D01*
X1154495Y1478124D01*
X1154328Y1478054D01*
X1154160Y1477987D01*
X1153989Y1477925D01*
X1153818Y1477867D01*
X1153645Y1477813D01*
X1153470Y1477763D01*
X1153295Y1477718D01*
X1153118Y1477677D01*
X1152941Y1477640D01*
X1152763Y1477607D01*
X1152584Y1477579D01*
X1152404Y1477555D01*
X1152224Y1477535D01*
X1152043Y1477520D01*
X1151862Y1477509D01*
X1151681Y1477502D01*
X1151500Y1477500D01*
X1151319Y1477502D01*
X1151138Y1477509D01*
X1150957Y1477520D01*
X1150776Y1477535D01*
X1150596Y1477555D01*
X1150416Y1477579D01*
X1150237Y1477607D01*
X1150059Y1477640D01*
X1149882Y1477677D01*
X1149705Y1477718D01*
X1149530Y1477763D01*
X1149355Y1477813D01*
X1149182Y1477867D01*
X1149011Y1477925D01*
X1148840Y1477987D01*
X1148672Y1478054D01*
X1148505Y1478124D01*
X1148339Y1478198D01*
X1148176Y1478277D01*
X1148015Y1478359D01*
X1147855Y1478445D01*
X1147698Y1478535D01*
X1147543Y1478629D01*
X1147390Y1478726D01*
X1147240Y1478828D01*
X1147092Y1478932D01*
X1146946Y1479041D01*
X1146804Y1479152D01*
X1146664Y1479268D01*
X1146527Y1479386D01*
X1146392Y1479508D01*
X1146261Y1479633D01*
X1146133Y1479761D01*
X1146008Y1479892D01*
X1145886Y1480027D01*
X1145768Y1480164D01*
X1145652Y1480304D01*
X1145541Y1480446D01*
X1145432Y1480592D01*
X1145328Y1480740D01*
X1145226Y1480890D01*
X1145129Y1481043D01*
X1145035Y1481198D01*
X1144945Y1481355D01*
X1144859Y1481515D01*
X1144777Y1481676D01*
X1144698Y1481839D01*
X1144624Y1482005D01*
X1144554Y1482172D01*
X1144487Y1482340D01*
X1144425Y1482511D01*
X1144367Y1482682D01*
X1144313Y1482855D01*
X1144263Y1483030D01*
X1144218Y1483205D01*
X1144177Y1483382D01*
X1144140Y1483559D01*
X1144107Y1483737D01*
X1144079Y1483916D01*
X1144055Y1484096D01*
X1144035Y1484276D01*
X1144020Y1484457D01*
X1144009Y1484638D01*
X1144002Y1484819D01*
X1144000Y1485000D01*
D45*
X1151500Y1485000D03*
D44*
X915500Y1376500D02*
X915319Y1376498D01*
X915138Y1376491D01*
X914957Y1376480D01*
X914776Y1376465D01*
X914596Y1376445D01*
X914416Y1376421D01*
X914237Y1376393D01*
X914059Y1376360D01*
X913882Y1376323D01*
X913705Y1376282D01*
X913530Y1376237D01*
X913355Y1376187D01*
X913182Y1376133D01*
X913011Y1376075D01*
X912840Y1376013D01*
X912672Y1375946D01*
X912505Y1375876D01*
X912339Y1375802D01*
X912176Y1375723D01*
X912015Y1375641D01*
X911855Y1375555D01*
X911698Y1375465D01*
X911543Y1375371D01*
X911390Y1375274D01*
X911240Y1375172D01*
X911092Y1375068D01*
X910946Y1374959D01*
X910804Y1374848D01*
X910664Y1374732D01*
X910527Y1374614D01*
X910392Y1374492D01*
X910261Y1374367D01*
X910133Y1374239D01*
X910008Y1374108D01*
X909886Y1373973D01*
X909768Y1373836D01*
X909652Y1373696D01*
X909541Y1373554D01*
X909432Y1373408D01*
X909328Y1373260D01*
X909226Y1373110D01*
X909129Y1372957D01*
X909035Y1372802D01*
X908945Y1372645D01*
X908859Y1372485D01*
X908777Y1372324D01*
X908698Y1372161D01*
X908624Y1371995D01*
X908554Y1371828D01*
X908487Y1371660D01*
X908425Y1371489D01*
X908367Y1371318D01*
X908313Y1371145D01*
X908263Y1370970D01*
X908218Y1370795D01*
X908177Y1370618D01*
X908140Y1370441D01*
X908107Y1370263D01*
X908079Y1370084D01*
X908055Y1369904D01*
X908035Y1369724D01*
X908020Y1369543D01*
X908009Y1369362D01*
X908002Y1369181D01*
X908000Y1369000D01*
X915500Y1376500D02*
X915681Y1376498D01*
X915862Y1376491D01*
X916043Y1376480D01*
X916224Y1376465D01*
X916404Y1376445D01*
X916584Y1376421D01*
X916763Y1376393D01*
X916941Y1376360D01*
X917118Y1376323D01*
X917295Y1376282D01*
X917470Y1376237D01*
X917645Y1376187D01*
X917818Y1376133D01*
X917989Y1376075D01*
X918160Y1376013D01*
X918328Y1375946D01*
X918495Y1375876D01*
X918661Y1375802D01*
X918824Y1375723D01*
X918985Y1375641D01*
X919145Y1375555D01*
X919302Y1375465D01*
X919457Y1375371D01*
X919610Y1375274D01*
X919760Y1375172D01*
X919908Y1375068D01*
X920054Y1374959D01*
X920196Y1374848D01*
X920336Y1374732D01*
X920473Y1374614D01*
X920608Y1374492D01*
X920739Y1374367D01*
X920867Y1374239D01*
X920992Y1374108D01*
X921114Y1373973D01*
X921232Y1373836D01*
X921348Y1373696D01*
X921459Y1373554D01*
X921568Y1373408D01*
X921672Y1373260D01*
X921774Y1373110D01*
X921871Y1372957D01*
X921965Y1372802D01*
X922055Y1372645D01*
X922141Y1372485D01*
X922223Y1372324D01*
X922302Y1372161D01*
X922376Y1371995D01*
X922446Y1371828D01*
X922513Y1371660D01*
X922575Y1371489D01*
X922633Y1371318D01*
X922687Y1371145D01*
X922737Y1370970D01*
X922782Y1370795D01*
X922823Y1370618D01*
X922860Y1370441D01*
X922893Y1370263D01*
X922921Y1370084D01*
X922945Y1369904D01*
X922965Y1369724D01*
X922980Y1369543D01*
X922991Y1369362D01*
X922998Y1369181D01*
X923000Y1369000D01*
X922998Y1368819D01*
X922991Y1368638D01*
X922980Y1368457D01*
X922965Y1368276D01*
X922945Y1368096D01*
X922921Y1367916D01*
X922893Y1367737D01*
X922860Y1367559D01*
X922823Y1367382D01*
X922782Y1367205D01*
X922737Y1367030D01*
X922687Y1366855D01*
X922633Y1366682D01*
X922575Y1366511D01*
X922513Y1366340D01*
X922446Y1366172D01*
X922376Y1366005D01*
X922302Y1365839D01*
X922223Y1365676D01*
X922141Y1365515D01*
X922055Y1365355D01*
X921965Y1365198D01*
X921871Y1365043D01*
X921774Y1364890D01*
X921672Y1364740D01*
X921568Y1364592D01*
X921459Y1364446D01*
X921348Y1364304D01*
X921232Y1364164D01*
X921114Y1364027D01*
X920992Y1363892D01*
X920867Y1363761D01*
X920739Y1363633D01*
X920608Y1363508D01*
X920473Y1363386D01*
X920336Y1363268D01*
X920196Y1363152D01*
X920054Y1363041D01*
X919908Y1362932D01*
X919760Y1362828D01*
X919610Y1362726D01*
X919457Y1362629D01*
X919302Y1362535D01*
X919145Y1362445D01*
X918985Y1362359D01*
X918824Y1362277D01*
X918661Y1362198D01*
X918495Y1362124D01*
X918328Y1362054D01*
X918160Y1361987D01*
X917989Y1361925D01*
X917818Y1361867D01*
X917645Y1361813D01*
X917470Y1361763D01*
X917295Y1361718D01*
X917118Y1361677D01*
X916941Y1361640D01*
X916763Y1361607D01*
X916584Y1361579D01*
X916404Y1361555D01*
X916224Y1361535D01*
X916043Y1361520D01*
X915862Y1361509D01*
X915681Y1361502D01*
X915500Y1361500D01*
X915319Y1361502D01*
X915138Y1361509D01*
X914957Y1361520D01*
X914776Y1361535D01*
X914596Y1361555D01*
X914416Y1361579D01*
X914237Y1361607D01*
X914059Y1361640D01*
X913882Y1361677D01*
X913705Y1361718D01*
X913530Y1361763D01*
X913355Y1361813D01*
X913182Y1361867D01*
X913011Y1361925D01*
X912840Y1361987D01*
X912672Y1362054D01*
X912505Y1362124D01*
X912339Y1362198D01*
X912176Y1362277D01*
X912015Y1362359D01*
X911855Y1362445D01*
X911698Y1362535D01*
X911543Y1362629D01*
X911390Y1362726D01*
X911240Y1362828D01*
X911092Y1362932D01*
X910946Y1363041D01*
X910804Y1363152D01*
X910664Y1363268D01*
X910527Y1363386D01*
X910392Y1363508D01*
X910261Y1363633D01*
X910133Y1363761D01*
X910008Y1363892D01*
X909886Y1364027D01*
X909768Y1364164D01*
X909652Y1364304D01*
X909541Y1364446D01*
X909432Y1364592D01*
X909328Y1364740D01*
X909226Y1364890D01*
X909129Y1365043D01*
X909035Y1365198D01*
X908945Y1365355D01*
X908859Y1365515D01*
X908777Y1365676D01*
X908698Y1365839D01*
X908624Y1366005D01*
X908554Y1366172D01*
X908487Y1366340D01*
X908425Y1366511D01*
X908367Y1366682D01*
X908313Y1366855D01*
X908263Y1367030D01*
X908218Y1367205D01*
X908177Y1367382D01*
X908140Y1367559D01*
X908107Y1367737D01*
X908079Y1367916D01*
X908055Y1368096D01*
X908035Y1368276D01*
X908020Y1368457D01*
X908009Y1368638D01*
X908002Y1368819D01*
X908000Y1369000D01*
D45*
X915500Y1369000D03*
D44*
X276500Y1234500D02*
X276319Y1234498D01*
X276138Y1234491D01*
X275957Y1234480D01*
X275776Y1234465D01*
X275596Y1234445D01*
X275416Y1234421D01*
X275237Y1234393D01*
X275059Y1234360D01*
X274882Y1234323D01*
X274705Y1234282D01*
X274530Y1234237D01*
X274355Y1234187D01*
X274182Y1234133D01*
X274011Y1234075D01*
X273840Y1234013D01*
X273672Y1233946D01*
X273505Y1233876D01*
X273339Y1233802D01*
X273176Y1233723D01*
X273015Y1233641D01*
X272855Y1233555D01*
X272698Y1233465D01*
X272543Y1233371D01*
X272390Y1233274D01*
X272240Y1233172D01*
X272092Y1233068D01*
X271946Y1232959D01*
X271804Y1232848D01*
X271664Y1232732D01*
X271527Y1232614D01*
X271392Y1232492D01*
X271261Y1232367D01*
X271133Y1232239D01*
X271008Y1232108D01*
X270886Y1231973D01*
X270768Y1231836D01*
X270652Y1231696D01*
X270541Y1231554D01*
X270432Y1231408D01*
X270328Y1231260D01*
X270226Y1231110D01*
X270129Y1230957D01*
X270035Y1230802D01*
X269945Y1230645D01*
X269859Y1230485D01*
X269777Y1230324D01*
X269698Y1230161D01*
X269624Y1229995D01*
X269554Y1229828D01*
X269487Y1229660D01*
X269425Y1229489D01*
X269367Y1229318D01*
X269313Y1229145D01*
X269263Y1228970D01*
X269218Y1228795D01*
X269177Y1228618D01*
X269140Y1228441D01*
X269107Y1228263D01*
X269079Y1228084D01*
X269055Y1227904D01*
X269035Y1227724D01*
X269020Y1227543D01*
X269009Y1227362D01*
X269002Y1227181D01*
X269000Y1227000D01*
X276500Y1234500D02*
X276681Y1234498D01*
X276862Y1234491D01*
X277043Y1234480D01*
X277224Y1234465D01*
X277404Y1234445D01*
X277584Y1234421D01*
X277763Y1234393D01*
X277941Y1234360D01*
X278118Y1234323D01*
X278295Y1234282D01*
X278470Y1234237D01*
X278645Y1234187D01*
X278818Y1234133D01*
X278989Y1234075D01*
X279160Y1234013D01*
X279328Y1233946D01*
X279495Y1233876D01*
X279661Y1233802D01*
X279824Y1233723D01*
X279985Y1233641D01*
X280145Y1233555D01*
X280302Y1233465D01*
X280457Y1233371D01*
X280610Y1233274D01*
X280760Y1233172D01*
X280908Y1233068D01*
X281054Y1232959D01*
X281196Y1232848D01*
X281336Y1232732D01*
X281473Y1232614D01*
X281608Y1232492D01*
X281739Y1232367D01*
X281867Y1232239D01*
X281992Y1232108D01*
X282114Y1231973D01*
X282232Y1231836D01*
X282348Y1231696D01*
X282459Y1231554D01*
X282568Y1231408D01*
X282672Y1231260D01*
X282774Y1231110D01*
X282871Y1230957D01*
X282965Y1230802D01*
X283055Y1230645D01*
X283141Y1230485D01*
X283223Y1230324D01*
X283302Y1230161D01*
X283376Y1229995D01*
X283446Y1229828D01*
X283513Y1229660D01*
X283575Y1229489D01*
X283633Y1229318D01*
X283687Y1229145D01*
X283737Y1228970D01*
X283782Y1228795D01*
X283823Y1228618D01*
X283860Y1228441D01*
X283893Y1228263D01*
X283921Y1228084D01*
X283945Y1227904D01*
X283965Y1227724D01*
X283980Y1227543D01*
X283991Y1227362D01*
X283998Y1227181D01*
X284000Y1227000D01*
X283998Y1226819D01*
X283991Y1226638D01*
X283980Y1226457D01*
X283965Y1226276D01*
X283945Y1226096D01*
X283921Y1225916D01*
X283893Y1225737D01*
X283860Y1225559D01*
X283823Y1225382D01*
X283782Y1225205D01*
X283737Y1225030D01*
X283687Y1224855D01*
X283633Y1224682D01*
X283575Y1224511D01*
X283513Y1224340D01*
X283446Y1224172D01*
X283376Y1224005D01*
X283302Y1223839D01*
X283223Y1223676D01*
X283141Y1223515D01*
X283055Y1223355D01*
X282965Y1223198D01*
X282871Y1223043D01*
X282774Y1222890D01*
X282672Y1222740D01*
X282568Y1222592D01*
X282459Y1222446D01*
X282348Y1222304D01*
X282232Y1222164D01*
X282114Y1222027D01*
X281992Y1221892D01*
X281867Y1221761D01*
X281739Y1221633D01*
X281608Y1221508D01*
X281473Y1221386D01*
X281336Y1221268D01*
X281196Y1221152D01*
X281054Y1221041D01*
X280908Y1220932D01*
X280760Y1220828D01*
X280610Y1220726D01*
X280457Y1220629D01*
X280302Y1220535D01*
X280145Y1220445D01*
X279985Y1220359D01*
X279824Y1220277D01*
X279661Y1220198D01*
X279495Y1220124D01*
X279328Y1220054D01*
X279160Y1219987D01*
X278989Y1219925D01*
X278818Y1219867D01*
X278645Y1219813D01*
X278470Y1219763D01*
X278295Y1219718D01*
X278118Y1219677D01*
X277941Y1219640D01*
X277763Y1219607D01*
X277584Y1219579D01*
X277404Y1219555D01*
X277224Y1219535D01*
X277043Y1219520D01*
X276862Y1219509D01*
X276681Y1219502D01*
X276500Y1219500D01*
X276319Y1219502D01*
X276138Y1219509D01*
X275957Y1219520D01*
X275776Y1219535D01*
X275596Y1219555D01*
X275416Y1219579D01*
X275237Y1219607D01*
X275059Y1219640D01*
X274882Y1219677D01*
X274705Y1219718D01*
X274530Y1219763D01*
X274355Y1219813D01*
X274182Y1219867D01*
X274011Y1219925D01*
X273840Y1219987D01*
X273672Y1220054D01*
X273505Y1220124D01*
X273339Y1220198D01*
X273176Y1220277D01*
X273015Y1220359D01*
X272855Y1220445D01*
X272698Y1220535D01*
X272543Y1220629D01*
X272390Y1220726D01*
X272240Y1220828D01*
X272092Y1220932D01*
X271946Y1221041D01*
X271804Y1221152D01*
X271664Y1221268D01*
X271527Y1221386D01*
X271392Y1221508D01*
X271261Y1221633D01*
X271133Y1221761D01*
X271008Y1221892D01*
X270886Y1222027D01*
X270768Y1222164D01*
X270652Y1222304D01*
X270541Y1222446D01*
X270432Y1222592D01*
X270328Y1222740D01*
X270226Y1222890D01*
X270129Y1223043D01*
X270035Y1223198D01*
X269945Y1223355D01*
X269859Y1223515D01*
X269777Y1223676D01*
X269698Y1223839D01*
X269624Y1224005D01*
X269554Y1224172D01*
X269487Y1224340D01*
X269425Y1224511D01*
X269367Y1224682D01*
X269313Y1224855D01*
X269263Y1225030D01*
X269218Y1225205D01*
X269177Y1225382D01*
X269140Y1225559D01*
X269107Y1225737D01*
X269079Y1225916D01*
X269055Y1226096D01*
X269035Y1226276D01*
X269020Y1226457D01*
X269009Y1226638D01*
X269002Y1226819D01*
X269000Y1227000D01*
D45*
X276500Y1227000D03*
D31*
X929500Y1538000D03*
X909500Y1538000D03*
D32*
X953500Y1560500D03*
X885500Y1560500D03*
D25*
X796500Y1180500D03*
X796500Y1197500D03*
D46*
X551500Y385000D03*
X551500Y1185000D03*
M02*
